<svg xmlns="http://www.w3.org/2000/svg" width="410" height="605">
  <rect x="50" y="150" width="120" height="120" stroke="black" fill="none"/>
  <g>
    <svg xmlns:xlink="http://www.w3.org/1999/xlink" t="1737635882929" class="icon" viewBox="0 0 1024 1024" version="1.1" p-id="1739" width="40" height="40" x="60.0" y="105">
      <path d="M804.266667 228.693333H219.093333s-102.4 91.733333-102.4 386.986667c0 150.613333 40.96 248.32 81.066667 307.84 33.493333 49.92 90.026667 79.146667 150.186667 79.146667H674.986667c60.16 0 116.693333-29.44 150.186666-79.146667 40.106667-59.52 81.066667-157.226667 81.066667-307.84 0.213333-295.253333-101.973333-386.986667-101.973333-386.986667z" fill="#FF740E" p-id="1740"/>
      <path d="M804.266667 228.693333h-153.6s102.4 91.733333 102.4 386.986667c0 150.613333-40.96 248.32-81.066667 307.84-33.493333 49.92-90.026667 79.146667-150.186667 79.146667H675.2c60.16 0 116.693333-29.44 150.186667-79.146667 40.106667-59.52 81.066667-157.226667 81.066666-307.84 0-295.253333-102.186667-386.986667-102.186666-386.986667z" fill="#FF8C3E" p-id="1741"/>
      <path d="M720.213333 363.733333c40.746667 0 48.853333 57.813333 153.6 57.813334 5.76 0 10.453333-0.426667 14.506667-1.28-6.186667-29.44-13.226667-55.04-20.906667-77.013334-29.013333-29.226667-63.146667-55.68-63.146666-55.68H219.093333s-33.706667 22.186667-60.8 48c-7.253333 19.626667-14.08 42.666667-20.053333 68.906667 0.64 0.426667 1.28 0.853333 2.133333 1.066667 59.093333 27.52 93.226667-37.973333 157.44-34.133334 64.213333 3.84 59.093333 47.146667 93.226667 49.92 34.133333 2.56 43.306667-55.04 107.52-55.04 64.213333 0 70.826667 55.253333 117.973333 55.253334 47.146667 0 62.933333-57.813333 103.68-57.813334z" fill="#1B1C20" opacity=".1" p-id="1742"/>
      <path d="M825.386667 152.533333H197.973333c-0.64 0-1.066667-0.426667-1.066666-1.066666V31.573333c0-5.546667 4.48-10.24 10.24-10.24h609.493333c5.546667 0 10.24 4.48 10.24 10.24V151.466667c-0.426667 0.64-0.853333 1.066667-1.493333 1.066666z" fill="#FED8B2" p-id="1743"/>
      <path d="M271.573333 21.333333c-41.386667 0-74.88 33.493333-74.88 74.88v47.786667c0 4.693333 3.84 8.533333 8.533334 8.533333h474.24V21.333333H271.573333z" fill="#F2C59E" p-id="1744"/>
      <path d="M219.093333 152.533333H804.266667v76.16H219.093333z" fill="#CCE8E3" p-id="1745"/>
      <path d="M219.093333 152.533333h460.586667v76.16H219.093333z" fill="#B6D3CD" p-id="1746"/>
      <path d="M873.813333 362.453333c-104.746667 0-112.853333-57.813333-153.6-57.813333-6.826667 0-13.013333 1.493333-18.773333 4.48-24.96 11.946667-41.813333 44.8-72.533333 52.053333-0.853333 0.213333-1.493333 0.213333-2.346667 0.426667-1.493333 0.213333-3.2 0.426667-4.48 0.64-1.92 0.213333-3.84 0.213333-5.546667 0.213333-47.146667 0-53.76-55.04-117.973333-55.04-64.213333 0-73.386667 57.6-107.52 55.04-34.133333-2.773333-28.8-45.866667-93.226667-49.92-64.213333-3.84-98.346667 61.653333-157.44 34.133334-59.093333-27.52 78.72-117.973333 78.72-117.973334H804.266667s174.293333 133.76 69.546666 133.76z" fill="#FED8B2" p-id="1747"/>
      <path d="M701.44 309.12c-24.96 11.946667-41.813333 44.8-72.533333 52.053333-0.853333 0.213333-1.493333 0.213333-2.346667 0.426667-1.493333 0.213333-3.2 0.426667-4.48 0.64-1.92 0.213333-3.84 0.213333-5.546667 0.213333-47.146667 0-53.76-55.04-117.973333-55.04-64.213333 0-73.386667 57.6-107.52 55.04-34.133333-2.773333-28.8-45.866667-93.226667-49.92-64.213333-3.84-98.346667 61.653333-157.44 34.133334-59.093333-27.52 78.72-117.973333 78.72-117.973334h460.586667l21.76 80.426667z" fill="#F2C59E" p-id="1748"/>
      <path d="M776.533333 216.746667h-17.066666c-0.64 0-1.28-0.64-1.28-1.28V167.04c0-0.64 0.64-1.28 1.28-1.28h17.066666c0.64 0 1.28 0.64 1.28 1.28V215.466667c0.213333 0.853333-0.426667 1.28-1.28 1.28zM747.093333 210.56h-17.066666c-0.64 0-1.28-0.64-1.28-1.28v-36.266667c0-0.64 0.64-1.28 1.28-1.28h17.066666c0.64 0 1.28 0.64 1.28 1.28v36.266667c0 0.853333-0.64 1.28-1.28 1.28zM717.653333 206.293333h-17.066666c-0.64 0-1.28-0.64-1.28-1.28V177.493333c0-0.64 0.64-1.28 1.28-1.28h17.066666c0.64 0 1.28 0.64 1.28 1.28V204.8c0 0.853333-0.64 1.493333-1.28 1.493333zM750.506667 897.493333c-9.386667-5.546667-12.373333-17.706667-6.826667-26.88l0.64-0.426666c19.84-16 33.493333-38.4 39.04-63.146667l1.28-5.76c5.546667-9.386667 17.706667-12.373333 26.88-6.826667 9.386667 5.546667 5.546667 33.28 5.546667 33.28-5.76 24.96-20.053333 47.36-39.893334 63.36 0-0.426667-17.28 11.946667-26.666666 6.4z" fill="#FFFFFF" p-id="1749"/>
    </svg>
    <text x="110.0" y="125.0" style="font-size: 15px;" dominant_baseline="middle">tiny glass jar</text>
  </g>
  <svg xmlns:xlink="http://www.w3.org/1999/xlink" height="30" width="30" version="1.1" id="Layer_1" viewBox="0 0 513.2 513.2" xml:space="preserve" x="70.0" y="170.0">
<g>
	<circle style="fill:#E65100;" cx="256.2" cy="252" r="8"/>
	<circle style="fill:#E65100;" cx="256.2" cy="179.6" r="8"/>
</g>
<path style="fill:#FFB74D;" d="M248.2,179.6c0,4.4,3.6,8,8,8s8-3.6,8-8s-3.6-8-8-8S248.2,175.2,248.2,179.6z M256.2,260  c4.4,0,8-3.6,8-8s-3.6-8-8-8s-8,3.6-8,8S251.8,260,256.2,260z M234.6,71.6c5.2,0,9.6-4.4,9.6-10s-4.4-10-9.6-10c-5.6,0-10,4.4-10,10  S229,71.6,234.6,71.6z M130.6,164.4h53.6V72c0-37.6,30.4-68,68-68s68,30.4,68,68v92.4h58.4h16c27.6,0,50,22.4,50,50s-22.4,50-50,50  h-16h-44.8l49.6,182.8c7.2,26.8-8.8,52.4-35.2,59.6c-26.8,7.2-54-8.8-61.2-35.6l-30-112.8l-30.4,112.8  c-7.2,26.8-34.4,42.8-61.2,35.6c-26.8-7.2-42.4-32.8-35.2-59.2l49.6-182.8h-49.2h-12.4c-27.6,0-50-22.4-50-50s22.4-50,50-50h12.4  V164.4z M256.2,223.6c4.4,0,8-3.6,8-8s-3.6-8-8-8s-8,3.6-8,8C248.2,220.4,251.8,223.6,256.2,223.6z M268.2,62c0,5.6,4.4,10,9.6,10  c5.6,0,9.6-4.4,9.6-10s-4.4-10-9.6-10S268.2,56.4,268.2,62z"/>
<g>
	<path style="fill:#E65100;" d="M287.8,62c0,5.6-4.4,10-9.6,10c-5.6,0-9.6-4.4-9.6-10s4.4-10,9.6-10S287.8,56.4,287.8,62z"/>
	<circle style="fill:#E65100;" cx="256.2" cy="216" r="8"/>
	<path style="fill:#E65100;" d="M244.2,62c0,5.6-4.4,10-9.6,10c-5.6,0-9.6-4.4-9.6-10s4.4-10,9.6-10S244.2,56.4,244.2,62z"/>
</g>
<path d="M178.2,513.2c-4.4,0-9.2-0.8-13.6-2c-14-3.6-25.6-12.4-32.8-24.4s-9.2-26.4-5.2-40.4l48.4-178h-56.4c-29.6,0-54-24.4-54-54  s24-54,54-54h62V72c0-39.6,32.4-72,72-72s72,32.4,72,72v88.4h70c29.6,0,54,24.4,54,54s-24,54-54,54h-55.2l48.4,178  c3.6,14,1.6,28-5.6,40c-7.2,11.6-18.8,20.4-32.8,24s-28.4,2-40.8-5.2s-21.2-18.8-25.2-32.8l-26.4-98l-26.4,98.4  c-3.6,14-12.8,25.6-25.2,33.2C197,510.4,187.4,513.2,178.2,513.2z M118.2,168.4c-25.2,0-46,20.8-46,46s20.4,46,46,46h61.6  c1.2,0,2.4,0.4,3.2,1.6c0.8,0.8,1.2,2.4,0.8,3.6l-49.6,182.8c-3.2,11.6-1.6,24,4.4,34.4s16,17.6,28,20.8c11.6,3.2,24,1.6,34.8-4.8  s18.4-16.4,21.6-28l30.4-113.2c0.4-1.6,2-2.8,4-2.8s3.2,1.2,4,2.8l30,112.4c3.2,12,10.8,21.6,21.6,28c10.8,6,23.2,7.6,34.8,4.4  c12-3.2,22-10.4,28-20.4s7.6-22,4.4-33.6l-49.6-182.8c-0.4-1.2,0-2.4,0.8-3.6c0.8-0.8,2-1.6,3.2-1.6H395c25.2,0,46-20.8,46-46  s-20.8-46-46-46h-74.8c-2.4,0-4-1.6-4-4V72c0-35.2-28.8-64-64-64s-64,28.8-64,64v92.4c0,2.4-1.6,4-4,4H118.2z"/>
<path d="M256.2,116.4c-16.4,0-31.6-8.4-40.8-22.4c-1.2-2-0.8-4.4,1.2-5.6s4.4-0.8,5.6,1.2c7.6,11.6,20,18.4,34,18.4  c13.6,0,26.4-6.8,34-18.4c1.2-2,3.6-2.4,5.6-1.2c2,1.2,2.4,3.6,1.2,5.6C288.2,108,273,116.4,256.2,116.4z"/>
<path d="M234.6,75.6c-7.6,0-13.6-6-13.6-14s6-14,13.6-14s13.6,6,13.6,14S242.2,75.6,234.6,75.6z M234.6,56c-3.2,0-5.6,2.8-5.6,6  s2.8,6,5.6,6s5.6-2.8,5.6-6S237.8,56,234.6,56z"/>
<path d="M278.2,75.6c-7.6,0-14-6-14-14s6-14,14-14s13.6,6,13.6,14S285.8,75.6,278.2,75.6z M278.2,56c-3.2,0-6,2.8-6,6s2.8,6,6,6  s5.6-2.8,5.6-6S281.4,56,278.2,56z"/>
<path d="M256.2,191.6c-6.4,0-12-5.2-12-12c0-6.4,5.2-12,12-12c6.4,0,12,5.2,12,12S263,191.6,256.2,191.6z M256.2,175.6  c-2,0-4,1.6-4,4s1.6,4,4,4s4-1.6,4-4S258.6,175.6,256.2,175.6z"/>
<path d="M256.2,227.6c-6.4,0-12-5.2-12-12s5.2-12,12-12c6.4,0,12,5.2,12,12S263,227.6,256.2,227.6z M256.2,212c-2,0-4,1.6-4,4  s1.6,4,4,4s4-1.6,4-4S258.6,212,256.2,212z"/>
<path d="M256.2,264c-6.4,0-12-5.2-12-12c0-6.4,5.2-12,12-12c6.4,0,12,5.2,12,12S263,264,256.2,264z M256.2,248c-2,0-4,1.6-4,4  s1.6,4,4,4s4-1.6,4-4S258.6,248,256.2,248z"/>
<path d="M128.2,268.4c-2.4,0-4-1.6-4-4v-64c0-2.4,1.6-4,4-4s4,1.6,4,4v64C132.2,266.8,130.6,268.4,128.2,268.4z"/>
<path d="M376.2,268.4c-2.4,0-4-1.6-4-4v-64c0-2.4,1.6-4,4-4s4,1.6,4,4v64C380.2,266.8,378.6,268.4,376.2,268.4z"/>
<path d="M128.2,184.4c-2.4,0-4-1.6-4-4v-16c0-2.4,1.6-4,4-4s4,1.6,4,4v16C132.2,182.8,130.6,184.4,128.2,184.4z"/>
<path d="M376.2,184.4c-2.4,0-4-1.6-4-4v-16c0-2.4,1.6-4,4-4s4,1.6,4,4v16C380.2,182.8,378.6,184.4,376.2,184.4z"/>
<path d="M153.4,439.6c-0.4,0-0.8,0-1.2,0l-17.6-4.8c-2-0.4-3.2-2.8-2.8-4.8s2.8-3.2,4.8-2.8l17.6,4.8c2,0.4,3.2,2.8,2.8,4.8  C157,438.4,155.4,439.6,153.4,439.6z"/>
<path d="M230.6,460c-0.4,0-0.8,0-1.2,0l-55.2-14.8c-2-0.4-3.6-2.8-2.8-4.8c0.4-2,2.8-3.6,4.8-2.8l55.2,14.8c2,0.4,3.6,2.8,2.8,4.8  C233.8,458.8,232.2,460,230.6,460z"/>
<path d="M322.2,449.6c-1.6,0-3.2-1.2-4-2.8c-0.4-2,0.8-4.4,2.8-4.8l55.6-14.8c2-0.4,4.4,0.8,4.8,2.8c0.4,2-0.8,4.4-2.8,4.8  L323,449.6C323,449.6,322.6,449.6,322.2,449.6z"/>
<path d="M283.4,460c-1.6,0-3.2-1.2-4-2.8c-0.4-2,0.8-4.4,2.8-4.8l17.2-4.8c2-0.4,4.4,0.8,4.8,2.8s-0.8,4.4-2.8,4.8l-17.2,4.8  C283.8,460,283.8,460,283.4,460z"/>
</svg>
  <svg xmlns:xlink="http://www.w3.org/1999/xlink" height="30" width="30" version="1.1" id="Layer_1" viewBox="0 0 513.2 513.2" xml:space="preserve" x="110.0" y="170.0">
<g>
	<circle style="fill:#E65100;" cx="256.2" cy="252" r="8"/>
	<circle style="fill:#E65100;" cx="256.2" cy="179.6" r="8"/>
</g>
<path style="fill:#FFB74D;" d="M248.2,179.6c0,4.4,3.6,8,8,8s8-3.6,8-8s-3.6-8-8-8S248.2,175.2,248.2,179.6z M256.2,260  c4.4,0,8-3.6,8-8s-3.6-8-8-8s-8,3.6-8,8S251.8,260,256.2,260z M234.6,71.6c5.2,0,9.6-4.4,9.6-10s-4.4-10-9.6-10c-5.6,0-10,4.4-10,10  S229,71.6,234.6,71.6z M130.6,164.4h53.6V72c0-37.6,30.4-68,68-68s68,30.4,68,68v92.4h58.4h16c27.6,0,50,22.4,50,50s-22.4,50-50,50  h-16h-44.8l49.6,182.8c7.2,26.8-8.8,52.4-35.2,59.6c-26.8,7.2-54-8.8-61.2-35.6l-30-112.8l-30.4,112.8  c-7.2,26.8-34.4,42.8-61.2,35.6c-26.8-7.2-42.4-32.8-35.2-59.2l49.6-182.8h-49.2h-12.4c-27.6,0-50-22.4-50-50s22.4-50,50-50h12.4  V164.4z M256.2,223.6c4.4,0,8-3.6,8-8s-3.6-8-8-8s-8,3.6-8,8C248.2,220.4,251.8,223.6,256.2,223.6z M268.2,62c0,5.6,4.4,10,9.6,10  c5.6,0,9.6-4.4,9.6-10s-4.4-10-9.6-10S268.2,56.4,268.2,62z"/>
<g>
	<path style="fill:#E65100;" d="M287.8,62c0,5.6-4.4,10-9.6,10c-5.6,0-9.6-4.4-9.6-10s4.4-10,9.6-10S287.8,56.4,287.8,62z"/>
	<circle style="fill:#E65100;" cx="256.2" cy="216" r="8"/>
	<path style="fill:#E65100;" d="M244.2,62c0,5.6-4.4,10-9.6,10c-5.6,0-9.6-4.4-9.6-10s4.4-10,9.6-10S244.2,56.4,244.2,62z"/>
</g>
<path d="M178.2,513.2c-4.4,0-9.2-0.8-13.6-2c-14-3.6-25.6-12.4-32.8-24.4s-9.2-26.4-5.2-40.4l48.4-178h-56.4c-29.6,0-54-24.4-54-54  s24-54,54-54h62V72c0-39.6,32.4-72,72-72s72,32.4,72,72v88.4h70c29.6,0,54,24.4,54,54s-24,54-54,54h-55.2l48.4,178  c3.6,14,1.6,28-5.6,40c-7.2,11.6-18.8,20.4-32.8,24s-28.4,2-40.8-5.2s-21.2-18.8-25.2-32.8l-26.4-98l-26.4,98.4  c-3.6,14-12.8,25.6-25.2,33.2C197,510.4,187.4,513.2,178.2,513.2z M118.2,168.4c-25.2,0-46,20.8-46,46s20.4,46,46,46h61.6  c1.2,0,2.4,0.4,3.2,1.6c0.8,0.8,1.2,2.4,0.8,3.6l-49.6,182.8c-3.2,11.6-1.6,24,4.4,34.4s16,17.6,28,20.8c11.6,3.2,24,1.6,34.8-4.8  s18.4-16.4,21.6-28l30.4-113.2c0.4-1.6,2-2.8,4-2.8s3.2,1.2,4,2.8l30,112.4c3.2,12,10.8,21.6,21.6,28c10.8,6,23.2,7.6,34.8,4.4  c12-3.2,22-10.4,28-20.4s7.6-22,4.4-33.6l-49.6-182.8c-0.4-1.2,0-2.4,0.8-3.6c0.8-0.8,2-1.6,3.2-1.6H395c25.2,0,46-20.8,46-46  s-20.8-46-46-46h-74.8c-2.4,0-4-1.6-4-4V72c0-35.2-28.8-64-64-64s-64,28.8-64,64v92.4c0,2.4-1.6,4-4,4H118.2z"/>
<path d="M256.2,116.4c-16.4,0-31.6-8.4-40.8-22.4c-1.2-2-0.8-4.4,1.2-5.6s4.4-0.8,5.6,1.2c7.6,11.6,20,18.4,34,18.4  c13.6,0,26.4-6.8,34-18.4c1.2-2,3.6-2.4,5.6-1.2c2,1.2,2.4,3.6,1.2,5.6C288.2,108,273,116.4,256.2,116.4z"/>
<path d="M234.6,75.6c-7.6,0-13.6-6-13.6-14s6-14,13.6-14s13.6,6,13.6,14S242.2,75.6,234.6,75.6z M234.6,56c-3.2,0-5.6,2.8-5.6,6  s2.8,6,5.6,6s5.6-2.8,5.6-6S237.8,56,234.6,56z"/>
<path d="M278.2,75.6c-7.6,0-14-6-14-14s6-14,14-14s13.6,6,13.6,14S285.8,75.6,278.2,75.6z M278.2,56c-3.2,0-6,2.8-6,6s2.8,6,6,6  s5.6-2.8,5.6-6S281.4,56,278.2,56z"/>
<path d="M256.2,191.6c-6.4,0-12-5.2-12-12c0-6.4,5.2-12,12-12c6.4,0,12,5.2,12,12S263,191.6,256.2,191.6z M256.2,175.6  c-2,0-4,1.6-4,4s1.6,4,4,4s4-1.6,4-4S258.6,175.6,256.2,175.6z"/>
<path d="M256.2,227.6c-6.4,0-12-5.2-12-12s5.2-12,12-12c6.4,0,12,5.2,12,12S263,227.6,256.2,227.6z M256.2,212c-2,0-4,1.6-4,4  s1.6,4,4,4s4-1.6,4-4S258.6,212,256.2,212z"/>
<path d="M256.2,264c-6.4,0-12-5.2-12-12c0-6.4,5.2-12,12-12c6.4,0,12,5.2,12,12S263,264,256.2,264z M256.2,248c-2,0-4,1.6-4,4  s1.6,4,4,4s4-1.6,4-4S258.6,248,256.2,248z"/>
<path d="M128.2,268.4c-2.4,0-4-1.6-4-4v-64c0-2.4,1.6-4,4-4s4,1.6,4,4v64C132.2,266.8,130.6,268.4,128.2,268.4z"/>
<path d="M376.2,268.4c-2.4,0-4-1.6-4-4v-64c0-2.4,1.6-4,4-4s4,1.6,4,4v64C380.2,266.8,378.6,268.4,376.2,268.4z"/>
<path d="M128.2,184.4c-2.4,0-4-1.6-4-4v-16c0-2.4,1.6-4,4-4s4,1.6,4,4v16C132.2,182.8,130.6,184.4,128.2,184.4z"/>
<path d="M376.2,184.4c-2.4,0-4-1.6-4-4v-16c0-2.4,1.6-4,4-4s4,1.6,4,4v16C380.2,182.8,378.6,184.4,376.2,184.4z"/>
<path d="M153.4,439.6c-0.4,0-0.8,0-1.2,0l-17.6-4.8c-2-0.4-3.2-2.8-2.8-4.8s2.8-3.2,4.8-2.8l17.6,4.8c2,0.4,3.2,2.8,2.8,4.8  C157,438.4,155.4,439.6,153.4,439.6z"/>
<path d="M230.6,460c-0.4,0-0.8,0-1.2,0l-55.2-14.8c-2-0.4-3.6-2.8-2.8-4.8c0.4-2,2.8-3.6,4.8-2.8l55.2,14.8c2,0.4,3.6,2.8,2.8,4.8  C233.8,458.8,232.2,460,230.6,460z"/>
<path d="M322.2,449.6c-1.6,0-3.2-1.2-4-2.8c-0.4-2,0.8-4.4,2.8-4.8l55.6-14.8c2-0.4,4.4,0.8,4.8,2.8c0.4,2-0.8,4.4-2.8,4.8  L323,449.6C323,449.6,322.6,449.6,322.2,449.6z"/>
<path d="M283.4,460c-1.6,0-3.2-1.2-4-2.8c-0.4-2,0.8-4.4,2.8-4.8l17.2-4.8c2-0.4,4.4,0.8,4.8,2.8s-0.8,4.4-2.8,4.8l-17.2,4.8  C283.8,460,283.8,460,283.4,460z"/>
</svg>
  <svg xmlns:xlink="http://www.w3.org/1999/xlink" height="30" width="30" version="1.1" id="Layer_1" viewBox="0 0 513.2 513.2" xml:space="preserve" x="70.0" y="210.0">
<g>
	<circle style="fill:#E65100;" cx="256.2" cy="252" r="8"/>
	<circle style="fill:#E65100;" cx="256.2" cy="179.6" r="8"/>
</g>
<path style="fill:#FFB74D;" d="M248.2,179.6c0,4.4,3.6,8,8,8s8-3.6,8-8s-3.6-8-8-8S248.2,175.2,248.2,179.6z M256.2,260  c4.4,0,8-3.6,8-8s-3.6-8-8-8s-8,3.6-8,8S251.8,260,256.2,260z M234.6,71.6c5.2,0,9.6-4.4,9.6-10s-4.4-10-9.6-10c-5.6,0-10,4.4-10,10  S229,71.6,234.6,71.6z M130.6,164.4h53.6V72c0-37.6,30.4-68,68-68s68,30.4,68,68v92.4h58.4h16c27.6,0,50,22.4,50,50s-22.4,50-50,50  h-16h-44.8l49.6,182.8c7.2,26.8-8.8,52.4-35.2,59.6c-26.8,7.2-54-8.8-61.2-35.6l-30-112.8l-30.4,112.8  c-7.2,26.8-34.4,42.8-61.2,35.6c-26.8-7.2-42.4-32.8-35.2-59.2l49.6-182.8h-49.2h-12.4c-27.6,0-50-22.4-50-50s22.4-50,50-50h12.4  V164.4z M256.2,223.6c4.4,0,8-3.6,8-8s-3.6-8-8-8s-8,3.6-8,8C248.2,220.4,251.8,223.6,256.2,223.6z M268.2,62c0,5.6,4.4,10,9.6,10  c5.6,0,9.6-4.4,9.6-10s-4.4-10-9.6-10S268.2,56.4,268.2,62z"/>
<g>
	<path style="fill:#E65100;" d="M287.8,62c0,5.6-4.4,10-9.6,10c-5.6,0-9.6-4.4-9.6-10s4.4-10,9.6-10S287.8,56.4,287.8,62z"/>
	<circle style="fill:#E65100;" cx="256.2" cy="216" r="8"/>
	<path style="fill:#E65100;" d="M244.2,62c0,5.6-4.4,10-9.6,10c-5.6,0-9.6-4.4-9.6-10s4.4-10,9.6-10S244.2,56.4,244.2,62z"/>
</g>
<path d="M178.2,513.2c-4.4,0-9.2-0.8-13.6-2c-14-3.6-25.6-12.4-32.8-24.4s-9.2-26.4-5.2-40.4l48.4-178h-56.4c-29.6,0-54-24.4-54-54  s24-54,54-54h62V72c0-39.6,32.4-72,72-72s72,32.4,72,72v88.4h70c29.6,0,54,24.4,54,54s-24,54-54,54h-55.2l48.4,178  c3.6,14,1.6,28-5.6,40c-7.2,11.6-18.8,20.4-32.8,24s-28.4,2-40.8-5.2s-21.2-18.8-25.2-32.8l-26.4-98l-26.4,98.4  c-3.6,14-12.8,25.6-25.2,33.2C197,510.4,187.4,513.2,178.2,513.2z M118.2,168.4c-25.2,0-46,20.8-46,46s20.4,46,46,46h61.6  c1.2,0,2.4,0.4,3.2,1.6c0.8,0.8,1.2,2.4,0.8,3.6l-49.6,182.8c-3.2,11.6-1.6,24,4.4,34.4s16,17.6,28,20.8c11.6,3.2,24,1.6,34.8-4.8  s18.4-16.4,21.6-28l30.4-113.2c0.4-1.6,2-2.8,4-2.8s3.2,1.2,4,2.8l30,112.4c3.2,12,10.8,21.6,21.6,28c10.8,6,23.2,7.6,34.8,4.4  c12-3.2,22-10.4,28-20.4s7.6-22,4.4-33.6l-49.6-182.8c-0.4-1.2,0-2.4,0.8-3.6c0.8-0.8,2-1.6,3.2-1.6H395c25.2,0,46-20.8,46-46  s-20.8-46-46-46h-74.8c-2.4,0-4-1.6-4-4V72c0-35.2-28.8-64-64-64s-64,28.8-64,64v92.4c0,2.4-1.6,4-4,4H118.2z"/>
<path d="M256.2,116.4c-16.4,0-31.6-8.4-40.8-22.4c-1.2-2-0.8-4.4,1.2-5.6s4.4-0.8,5.6,1.2c7.6,11.6,20,18.4,34,18.4  c13.6,0,26.4-6.8,34-18.4c1.2-2,3.6-2.4,5.6-1.2c2,1.2,2.4,3.6,1.2,5.6C288.2,108,273,116.4,256.2,116.4z"/>
<path d="M234.6,75.6c-7.6,0-13.6-6-13.6-14s6-14,13.6-14s13.6,6,13.6,14S242.2,75.6,234.6,75.6z M234.6,56c-3.2,0-5.6,2.8-5.6,6  s2.8,6,5.6,6s5.6-2.8,5.6-6S237.8,56,234.6,56z"/>
<path d="M278.2,75.6c-7.6,0-14-6-14-14s6-14,14-14s13.6,6,13.6,14S285.8,75.6,278.2,75.6z M278.2,56c-3.2,0-6,2.8-6,6s2.8,6,6,6  s5.6-2.8,5.6-6S281.4,56,278.2,56z"/>
<path d="M256.2,191.6c-6.4,0-12-5.2-12-12c0-6.4,5.2-12,12-12c6.4,0,12,5.2,12,12S263,191.6,256.2,191.6z M256.2,175.6  c-2,0-4,1.6-4,4s1.6,4,4,4s4-1.6,4-4S258.6,175.6,256.2,175.6z"/>
<path d="M256.2,227.6c-6.4,0-12-5.2-12-12s5.2-12,12-12c6.4,0,12,5.2,12,12S263,227.6,256.2,227.6z M256.2,212c-2,0-4,1.6-4,4  s1.6,4,4,4s4-1.6,4-4S258.6,212,256.2,212z"/>
<path d="M256.2,264c-6.4,0-12-5.2-12-12c0-6.4,5.2-12,12-12c6.4,0,12,5.2,12,12S263,264,256.2,264z M256.2,248c-2,0-4,1.6-4,4  s1.6,4,4,4s4-1.6,4-4S258.6,248,256.2,248z"/>
<path d="M128.2,268.4c-2.4,0-4-1.6-4-4v-64c0-2.4,1.6-4,4-4s4,1.6,4,4v64C132.2,266.8,130.6,268.4,128.2,268.4z"/>
<path d="M376.2,268.4c-2.4,0-4-1.6-4-4v-64c0-2.4,1.6-4,4-4s4,1.6,4,4v64C380.2,266.8,378.6,268.4,376.2,268.4z"/>
<path d="M128.2,184.4c-2.4,0-4-1.6-4-4v-16c0-2.4,1.6-4,4-4s4,1.6,4,4v16C132.2,182.8,130.6,184.4,128.2,184.4z"/>
<path d="M376.2,184.4c-2.4,0-4-1.6-4-4v-16c0-2.4,1.6-4,4-4s4,1.6,4,4v16C380.2,182.8,378.6,184.4,376.2,184.4z"/>
<path d="M153.4,439.6c-0.4,0-0.8,0-1.2,0l-17.6-4.8c-2-0.4-3.2-2.8-2.8-4.8s2.8-3.2,4.8-2.8l17.6,4.8c2,0.4,3.2,2.8,2.8,4.8  C157,438.4,155.4,439.6,153.4,439.6z"/>
<path d="M230.6,460c-0.4,0-0.8,0-1.2,0l-55.2-14.8c-2-0.4-3.6-2.8-2.8-4.8c0.4-2,2.8-3.6,4.8-2.8l55.2,14.8c2,0.4,3.6,2.8,2.8,4.8  C233.8,458.8,232.2,460,230.6,460z"/>
<path d="M322.2,449.6c-1.6,0-3.2-1.2-4-2.8c-0.4-2,0.8-4.4,2.8-4.8l55.6-14.8c2-0.4,4.4,0.8,4.8,2.8c0.4,2-0.8,4.4-2.8,4.8  L323,449.6C323,449.6,322.6,449.6,322.2,449.6z"/>
<path d="M283.4,460c-1.6,0-3.2-1.2-4-2.8c-0.4-2,0.8-4.4,2.8-4.8l17.2-4.8c2-0.4,4.4,0.8,4.8,2.8s-0.8,4.4-2.8,4.8l-17.2,4.8  C283.8,460,283.8,460,283.4,460z"/>
</svg>
  <rect x="190" y="150" width="120" height="120" stroke="black" fill="none"/>
  <g>
    <svg xmlns:xlink="http://www.w3.org/1999/xlink" t="1737635882929" class="icon" viewBox="0 0 1024 1024" version="1.1" p-id="1739" width="40" height="40" x="200.0" y="105">
      <path d="M804.266667 228.693333H219.093333s-102.4 91.733333-102.4 386.986667c0 150.613333 40.96 248.32 81.066667 307.84 33.493333 49.92 90.026667 79.146667 150.186667 79.146667H674.986667c60.16 0 116.693333-29.44 150.186666-79.146667 40.106667-59.52 81.066667-157.226667 81.066667-307.84 0.213333-295.253333-101.973333-386.986667-101.973333-386.986667z" fill="#FF740E" p-id="1740"/>
      <path d="M804.266667 228.693333h-153.6s102.4 91.733333 102.4 386.986667c0 150.613333-40.96 248.32-81.066667 307.84-33.493333 49.92-90.026667 79.146667-150.186667 79.146667H675.2c60.16 0 116.693333-29.44 150.186667-79.146667 40.106667-59.52 81.066667-157.226667 81.066666-307.84 0-295.253333-102.186667-386.986667-102.186666-386.986667z" fill="#FF8C3E" p-id="1741"/>
      <path d="M720.213333 363.733333c40.746667 0 48.853333 57.813333 153.6 57.813334 5.76 0 10.453333-0.426667 14.506667-1.28-6.186667-29.44-13.226667-55.04-20.906667-77.013334-29.013333-29.226667-63.146667-55.68-63.146666-55.68H219.093333s-33.706667 22.186667-60.8 48c-7.253333 19.626667-14.08 42.666667-20.053333 68.906667 0.64 0.426667 1.28 0.853333 2.133333 1.066667 59.093333 27.52 93.226667-37.973333 157.44-34.133334 64.213333 3.84 59.093333 47.146667 93.226667 49.92 34.133333 2.56 43.306667-55.04 107.52-55.04 64.213333 0 70.826667 55.253333 117.973333 55.253334 47.146667 0 62.933333-57.813333 103.68-57.813334z" fill="#1B1C20" opacity=".1" p-id="1742"/>
      <path d="M825.386667 152.533333H197.973333c-0.64 0-1.066667-0.426667-1.066666-1.066666V31.573333c0-5.546667 4.48-10.24 10.24-10.24h609.493333c5.546667 0 10.24 4.48 10.24 10.24V151.466667c-0.426667 0.64-0.853333 1.066667-1.493333 1.066666z" fill="#FED8B2" p-id="1743"/>
      <path d="M271.573333 21.333333c-41.386667 0-74.88 33.493333-74.88 74.88v47.786667c0 4.693333 3.84 8.533333 8.533334 8.533333h474.24V21.333333H271.573333z" fill="#F2C59E" p-id="1744"/>
      <path d="M219.093333 152.533333H804.266667v76.16H219.093333z" fill="#CCE8E3" p-id="1745"/>
      <path d="M219.093333 152.533333h460.586667v76.16H219.093333z" fill="#B6D3CD" p-id="1746"/>
      <path d="M873.813333 362.453333c-104.746667 0-112.853333-57.813333-153.6-57.813333-6.826667 0-13.013333 1.493333-18.773333 4.48-24.96 11.946667-41.813333 44.8-72.533333 52.053333-0.853333 0.213333-1.493333 0.213333-2.346667 0.426667-1.493333 0.213333-3.2 0.426667-4.48 0.64-1.92 0.213333-3.84 0.213333-5.546667 0.213333-47.146667 0-53.76-55.04-117.973333-55.04-64.213333 0-73.386667 57.6-107.52 55.04-34.133333-2.773333-28.8-45.866667-93.226667-49.92-64.213333-3.84-98.346667 61.653333-157.44 34.133334-59.093333-27.52 78.72-117.973333 78.72-117.973334H804.266667s174.293333 133.76 69.546666 133.76z" fill="#FED8B2" p-id="1747"/>
      <path d="M701.44 309.12c-24.96 11.946667-41.813333 44.8-72.533333 52.053333-0.853333 0.213333-1.493333 0.213333-2.346667 0.426667-1.493333 0.213333-3.2 0.426667-4.48 0.64-1.92 0.213333-3.84 0.213333-5.546667 0.213333-47.146667 0-53.76-55.04-117.973333-55.04-64.213333 0-73.386667 57.6-107.52 55.04-34.133333-2.773333-28.8-45.866667-93.226667-49.92-64.213333-3.84-98.346667 61.653333-157.44 34.133334-59.093333-27.52 78.72-117.973333 78.72-117.973334h460.586667l21.76 80.426667z" fill="#F2C59E" p-id="1748"/>
      <path d="M776.533333 216.746667h-17.066666c-0.64 0-1.28-0.64-1.28-1.28V167.04c0-0.64 0.64-1.28 1.28-1.28h17.066666c0.64 0 1.28 0.64 1.28 1.28V215.466667c0.213333 0.853333-0.426667 1.28-1.28 1.28zM747.093333 210.56h-17.066666c-0.64 0-1.28-0.64-1.28-1.28v-36.266667c0-0.64 0.64-1.28 1.28-1.28h17.066666c0.64 0 1.28 0.64 1.28 1.28v36.266667c0 0.853333-0.64 1.28-1.28 1.28zM717.653333 206.293333h-17.066666c-0.64 0-1.28-0.64-1.28-1.28V177.493333c0-0.64 0.64-1.28 1.28-1.28h17.066666c0.64 0 1.28 0.64 1.28 1.28V204.8c0 0.853333-0.64 1.493333-1.28 1.493333zM750.506667 897.493333c-9.386667-5.546667-12.373333-17.706667-6.826667-26.88l0.64-0.426666c19.84-16 33.493333-38.4 39.04-63.146667l1.28-5.76c5.546667-9.386667 17.706667-12.373333 26.88-6.826667 9.386667 5.546667 5.546667 33.28 5.546667 33.28-5.76 24.96-20.053333 47.36-39.893334 63.36 0-0.426667-17.28 11.946667-26.666666 6.4z" fill="#FFFFFF" p-id="1749"/>
    </svg>
    <text x="250.0" y="125.0" style="font-size: 15px;" dominant_baseline="middle">tiny glass jar</text>
  </g>
  <svg xmlns:xlink="http://www.w3.org/1999/xlink" height="30" width="30" version="1.1" id="Layer_1" viewBox="0 0 513.2 513.2" xml:space="preserve" x="210.0" y="170.0">
<g>
	<circle style="fill:#E65100;" cx="256.2" cy="252" r="8"/>
	<circle style="fill:#E65100;" cx="256.2" cy="179.6" r="8"/>
</g>
<path style="fill:#FFB74D;" d="M248.2,179.6c0,4.4,3.6,8,8,8s8-3.6,8-8s-3.6-8-8-8S248.2,175.2,248.2,179.6z M256.2,260  c4.4,0,8-3.6,8-8s-3.6-8-8-8s-8,3.6-8,8S251.8,260,256.2,260z M234.6,71.6c5.2,0,9.6-4.4,9.6-10s-4.4-10-9.6-10c-5.6,0-10,4.4-10,10  S229,71.6,234.6,71.6z M130.6,164.4h53.6V72c0-37.6,30.4-68,68-68s68,30.4,68,68v92.4h58.4h16c27.6,0,50,22.4,50,50s-22.4,50-50,50  h-16h-44.8l49.6,182.8c7.2,26.8-8.8,52.4-35.2,59.6c-26.8,7.2-54-8.8-61.2-35.6l-30-112.8l-30.4,112.8  c-7.2,26.8-34.4,42.8-61.2,35.6c-26.8-7.2-42.4-32.8-35.2-59.2l49.6-182.8h-49.2h-12.4c-27.6,0-50-22.4-50-50s22.4-50,50-50h12.4  V164.4z M256.2,223.6c4.4,0,8-3.6,8-8s-3.6-8-8-8s-8,3.6-8,8C248.2,220.4,251.8,223.6,256.2,223.6z M268.2,62c0,5.6,4.4,10,9.6,10  c5.6,0,9.6-4.4,9.6-10s-4.4-10-9.6-10S268.2,56.4,268.2,62z"/>
<g>
	<path style="fill:#E65100;" d="M287.8,62c0,5.6-4.4,10-9.6,10c-5.6,0-9.6-4.4-9.6-10s4.4-10,9.6-10S287.8,56.4,287.8,62z"/>
	<circle style="fill:#E65100;" cx="256.2" cy="216" r="8"/>
	<path style="fill:#E65100;" d="M244.2,62c0,5.6-4.4,10-9.6,10c-5.6,0-9.6-4.4-9.6-10s4.4-10,9.6-10S244.2,56.4,244.2,62z"/>
</g>
<path d="M178.2,513.2c-4.4,0-9.2-0.8-13.6-2c-14-3.6-25.6-12.4-32.8-24.4s-9.2-26.4-5.2-40.4l48.4-178h-56.4c-29.6,0-54-24.4-54-54  s24-54,54-54h62V72c0-39.6,32.4-72,72-72s72,32.4,72,72v88.4h70c29.6,0,54,24.4,54,54s-24,54-54,54h-55.2l48.4,178  c3.6,14,1.6,28-5.6,40c-7.2,11.6-18.8,20.4-32.8,24s-28.4,2-40.8-5.2s-21.2-18.8-25.2-32.8l-26.4-98l-26.4,98.4  c-3.6,14-12.8,25.6-25.2,33.2C197,510.4,187.4,513.2,178.2,513.2z M118.2,168.4c-25.2,0-46,20.8-46,46s20.4,46,46,46h61.6  c1.2,0,2.4,0.4,3.2,1.6c0.8,0.8,1.2,2.4,0.8,3.6l-49.6,182.8c-3.2,11.6-1.6,24,4.4,34.4s16,17.6,28,20.8c11.6,3.2,24,1.6,34.8-4.8  s18.4-16.4,21.6-28l30.4-113.2c0.4-1.6,2-2.8,4-2.8s3.2,1.2,4,2.8l30,112.4c3.2,12,10.8,21.6,21.6,28c10.8,6,23.2,7.6,34.8,4.4  c12-3.2,22-10.4,28-20.4s7.6-22,4.4-33.6l-49.6-182.8c-0.4-1.2,0-2.4,0.8-3.6c0.8-0.8,2-1.6,3.2-1.6H395c25.2,0,46-20.8,46-46  s-20.8-46-46-46h-74.8c-2.4,0-4-1.6-4-4V72c0-35.2-28.8-64-64-64s-64,28.8-64,64v92.4c0,2.4-1.6,4-4,4H118.2z"/>
<path d="M256.2,116.4c-16.4,0-31.6-8.4-40.8-22.4c-1.2-2-0.8-4.4,1.2-5.6s4.4-0.8,5.6,1.2c7.6,11.6,20,18.4,34,18.4  c13.6,0,26.4-6.8,34-18.4c1.2-2,3.6-2.4,5.6-1.2c2,1.2,2.4,3.6,1.2,5.6C288.2,108,273,116.4,256.2,116.4z"/>
<path d="M234.6,75.6c-7.6,0-13.6-6-13.6-14s6-14,13.6-14s13.6,6,13.6,14S242.2,75.6,234.6,75.6z M234.6,56c-3.2,0-5.6,2.8-5.6,6  s2.8,6,5.6,6s5.6-2.8,5.6-6S237.8,56,234.6,56z"/>
<path d="M278.2,75.6c-7.6,0-14-6-14-14s6-14,14-14s13.6,6,13.6,14S285.8,75.6,278.2,75.6z M278.2,56c-3.2,0-6,2.8-6,6s2.8,6,6,6  s5.6-2.8,5.6-6S281.4,56,278.2,56z"/>
<path d="M256.2,191.6c-6.4,0-12-5.2-12-12c0-6.4,5.2-12,12-12c6.4,0,12,5.2,12,12S263,191.6,256.2,191.6z M256.2,175.6  c-2,0-4,1.6-4,4s1.6,4,4,4s4-1.6,4-4S258.6,175.6,256.2,175.6z"/>
<path d="M256.2,227.6c-6.4,0-12-5.2-12-12s5.2-12,12-12c6.4,0,12,5.2,12,12S263,227.6,256.2,227.6z M256.2,212c-2,0-4,1.6-4,4  s1.6,4,4,4s4-1.6,4-4S258.6,212,256.2,212z"/>
<path d="M256.2,264c-6.4,0-12-5.2-12-12c0-6.4,5.2-12,12-12c6.4,0,12,5.2,12,12S263,264,256.2,264z M256.2,248c-2,0-4,1.6-4,4  s1.6,4,4,4s4-1.6,4-4S258.6,248,256.2,248z"/>
<path d="M128.2,268.4c-2.4,0-4-1.6-4-4v-64c0-2.4,1.6-4,4-4s4,1.6,4,4v64C132.2,266.8,130.6,268.4,128.2,268.4z"/>
<path d="M376.2,268.4c-2.4,0-4-1.6-4-4v-64c0-2.4,1.6-4,4-4s4,1.6,4,4v64C380.2,266.8,378.6,268.4,376.2,268.4z"/>
<path d="M128.2,184.4c-2.4,0-4-1.6-4-4v-16c0-2.4,1.6-4,4-4s4,1.6,4,4v16C132.2,182.8,130.6,184.4,128.2,184.4z"/>
<path d="M376.2,184.4c-2.4,0-4-1.6-4-4v-16c0-2.4,1.6-4,4-4s4,1.6,4,4v16C380.2,182.8,378.6,184.4,376.2,184.4z"/>
<path d="M153.4,439.6c-0.4,0-0.8,0-1.2,0l-17.6-4.8c-2-0.4-3.2-2.8-2.8-4.8s2.8-3.2,4.8-2.8l17.6,4.8c2,0.4,3.2,2.8,2.8,4.8  C157,438.4,155.4,439.6,153.4,439.6z"/>
<path d="M230.6,460c-0.4,0-0.8,0-1.2,0l-55.2-14.8c-2-0.4-3.6-2.8-2.8-4.8c0.4-2,2.8-3.6,4.8-2.8l55.2,14.8c2,0.4,3.6,2.8,2.8,4.8  C233.8,458.8,232.2,460,230.6,460z"/>
<path d="M322.2,449.6c-1.6,0-3.2-1.2-4-2.8c-0.4-2,0.8-4.4,2.8-4.8l55.6-14.8c2-0.4,4.4,0.8,4.8,2.8c0.4,2-0.8,4.4-2.8,4.8  L323,449.6C323,449.6,322.6,449.6,322.2,449.6z"/>
<path d="M283.4,460c-1.6,0-3.2-1.2-4-2.8c-0.4-2,0.8-4.4,2.8-4.8l17.2-4.8c2-0.4,4.4,0.8,4.8,2.8s-0.8,4.4-2.8,4.8l-17.2,4.8  C283.8,460,283.8,460,283.4,460z"/>
</svg>
  <svg xmlns:xlink="http://www.w3.org/1999/xlink" height="30" width="30" version="1.1" id="Layer_1" viewBox="0 0 513.2 513.2" xml:space="preserve" x="250.0" y="170.0">
<g>
	<circle style="fill:#E65100;" cx="256.2" cy="252" r="8"/>
	<circle style="fill:#E65100;" cx="256.2" cy="179.6" r="8"/>
</g>
<path style="fill:#FFB74D;" d="M248.2,179.6c0,4.4,3.6,8,8,8s8-3.6,8-8s-3.6-8-8-8S248.2,175.2,248.2,179.6z M256.2,260  c4.4,0,8-3.6,8-8s-3.6-8-8-8s-8,3.6-8,8S251.8,260,256.2,260z M234.6,71.6c5.2,0,9.6-4.4,9.6-10s-4.4-10-9.6-10c-5.6,0-10,4.4-10,10  S229,71.6,234.6,71.6z M130.6,164.4h53.6V72c0-37.6,30.4-68,68-68s68,30.4,68,68v92.4h58.4h16c27.6,0,50,22.4,50,50s-22.4,50-50,50  h-16h-44.8l49.6,182.8c7.2,26.8-8.8,52.4-35.2,59.6c-26.8,7.2-54-8.8-61.2-35.6l-30-112.8l-30.4,112.8  c-7.2,26.8-34.4,42.8-61.2,35.6c-26.8-7.2-42.4-32.8-35.2-59.2l49.6-182.8h-49.2h-12.4c-27.6,0-50-22.4-50-50s22.4-50,50-50h12.4  V164.4z M256.2,223.6c4.4,0,8-3.6,8-8s-3.6-8-8-8s-8,3.6-8,8C248.2,220.4,251.8,223.6,256.2,223.6z M268.2,62c0,5.6,4.4,10,9.6,10  c5.6,0,9.6-4.4,9.6-10s-4.4-10-9.6-10S268.2,56.4,268.2,62z"/>
<g>
	<path style="fill:#E65100;" d="M287.8,62c0,5.6-4.4,10-9.6,10c-5.6,0-9.6-4.4-9.6-10s4.4-10,9.6-10S287.8,56.4,287.8,62z"/>
	<circle style="fill:#E65100;" cx="256.2" cy="216" r="8"/>
	<path style="fill:#E65100;" d="M244.2,62c0,5.6-4.4,10-9.6,10c-5.6,0-9.6-4.4-9.6-10s4.4-10,9.6-10S244.2,56.4,244.2,62z"/>
</g>
<path d="M178.2,513.2c-4.4,0-9.2-0.8-13.6-2c-14-3.6-25.6-12.4-32.8-24.4s-9.2-26.4-5.2-40.4l48.4-178h-56.4c-29.6,0-54-24.4-54-54  s24-54,54-54h62V72c0-39.6,32.4-72,72-72s72,32.4,72,72v88.4h70c29.6,0,54,24.4,54,54s-24,54-54,54h-55.2l48.4,178  c3.6,14,1.6,28-5.6,40c-7.2,11.6-18.8,20.4-32.8,24s-28.4,2-40.8-5.2s-21.2-18.8-25.2-32.8l-26.4-98l-26.4,98.4  c-3.6,14-12.8,25.6-25.2,33.2C197,510.4,187.4,513.2,178.2,513.2z M118.2,168.4c-25.2,0-46,20.8-46,46s20.4,46,46,46h61.6  c1.2,0,2.4,0.4,3.2,1.6c0.8,0.8,1.2,2.4,0.8,3.6l-49.6,182.8c-3.2,11.6-1.6,24,4.4,34.4s16,17.6,28,20.8c11.6,3.2,24,1.6,34.8-4.8  s18.4-16.4,21.6-28l30.4-113.2c0.4-1.6,2-2.8,4-2.8s3.2,1.2,4,2.8l30,112.4c3.2,12,10.8,21.6,21.6,28c10.8,6,23.2,7.6,34.8,4.4  c12-3.2,22-10.4,28-20.4s7.6-22,4.4-33.6l-49.6-182.8c-0.4-1.2,0-2.4,0.8-3.6c0.8-0.8,2-1.6,3.2-1.6H395c25.2,0,46-20.8,46-46  s-20.8-46-46-46h-74.8c-2.4,0-4-1.6-4-4V72c0-35.2-28.8-64-64-64s-64,28.8-64,64v92.4c0,2.4-1.6,4-4,4H118.2z"/>
<path d="M256.2,116.4c-16.4,0-31.6-8.4-40.8-22.4c-1.2-2-0.8-4.4,1.2-5.6s4.4-0.8,5.6,1.2c7.6,11.6,20,18.4,34,18.4  c13.6,0,26.4-6.8,34-18.4c1.2-2,3.6-2.4,5.6-1.2c2,1.2,2.4,3.6,1.2,5.6C288.2,108,273,116.4,256.2,116.4z"/>
<path d="M234.6,75.6c-7.6,0-13.6-6-13.6-14s6-14,13.6-14s13.6,6,13.6,14S242.2,75.6,234.6,75.6z M234.6,56c-3.2,0-5.6,2.8-5.6,6  s2.8,6,5.6,6s5.6-2.8,5.6-6S237.8,56,234.6,56z"/>
<path d="M278.2,75.6c-7.6,0-14-6-14-14s6-14,14-14s13.6,6,13.6,14S285.8,75.6,278.2,75.6z M278.2,56c-3.2,0-6,2.8-6,6s2.8,6,6,6  s5.6-2.8,5.6-6S281.4,56,278.2,56z"/>
<path d="M256.2,191.6c-6.4,0-12-5.2-12-12c0-6.4,5.2-12,12-12c6.4,0,12,5.2,12,12S263,191.6,256.2,191.6z M256.2,175.6  c-2,0-4,1.6-4,4s1.6,4,4,4s4-1.6,4-4S258.6,175.6,256.2,175.6z"/>
<path d="M256.2,227.6c-6.4,0-12-5.2-12-12s5.2-12,12-12c6.4,0,12,5.2,12,12S263,227.6,256.2,227.6z M256.2,212c-2,0-4,1.6-4,4  s1.6,4,4,4s4-1.6,4-4S258.6,212,256.2,212z"/>
<path d="M256.2,264c-6.4,0-12-5.2-12-12c0-6.4,5.2-12,12-12c6.4,0,12,5.2,12,12S263,264,256.2,264z M256.2,248c-2,0-4,1.6-4,4  s1.6,4,4,4s4-1.6,4-4S258.6,248,256.2,248z"/>
<path d="M128.2,268.4c-2.4,0-4-1.6-4-4v-64c0-2.4,1.6-4,4-4s4,1.6,4,4v64C132.2,266.8,130.6,268.4,128.2,268.4z"/>
<path d="M376.2,268.4c-2.4,0-4-1.6-4-4v-64c0-2.4,1.6-4,4-4s4,1.6,4,4v64C380.2,266.8,378.6,268.4,376.2,268.4z"/>
<path d="M128.2,184.4c-2.4,0-4-1.6-4-4v-16c0-2.4,1.6-4,4-4s4,1.6,4,4v16C132.2,182.8,130.6,184.4,128.2,184.4z"/>
<path d="M376.2,184.4c-2.4,0-4-1.6-4-4v-16c0-2.4,1.6-4,4-4s4,1.6,4,4v16C380.2,182.8,378.6,184.4,376.2,184.4z"/>
<path d="M153.4,439.6c-0.4,0-0.8,0-1.2,0l-17.6-4.8c-2-0.4-3.2-2.8-2.8-4.8s2.8-3.2,4.8-2.8l17.6,4.8c2,0.4,3.2,2.8,2.8,4.8  C157,438.4,155.4,439.6,153.4,439.6z"/>
<path d="M230.6,460c-0.4,0-0.8,0-1.2,0l-55.2-14.8c-2-0.4-3.6-2.8-2.8-4.8c0.4-2,2.8-3.6,4.8-2.8l55.2,14.8c2,0.4,3.6,2.8,2.8,4.8  C233.8,458.8,232.2,460,230.6,460z"/>
<path d="M322.2,449.6c-1.6,0-3.2-1.2-4-2.8c-0.4-2,0.8-4.4,2.8-4.8l55.6-14.8c2-0.4,4.4,0.8,4.8,2.8c0.4,2-0.8,4.4-2.8,4.8  L323,449.6C323,449.6,322.6,449.6,322.2,449.6z"/>
<path d="M283.4,460c-1.6,0-3.2-1.2-4-2.8c-0.4-2,0.8-4.4,2.8-4.8l17.2-4.8c2-0.4,4.4,0.8,4.8,2.8s-0.8,4.4-2.8,4.8l-17.2,4.8  C283.8,460,283.8,460,283.4,460z"/>
</svg>
  <svg xmlns:xlink="http://www.w3.org/1999/xlink" height="30" width="30" version="1.1" id="Layer_1" viewBox="0 0 513.2 513.2" xml:space="preserve" x="210.0" y="210.0">
<g>
	<circle style="fill:#E65100;" cx="256.2" cy="252" r="8"/>
	<circle style="fill:#E65100;" cx="256.2" cy="179.6" r="8"/>
</g>
<path style="fill:#FFB74D;" d="M248.2,179.6c0,4.4,3.6,8,8,8s8-3.6,8-8s-3.6-8-8-8S248.2,175.2,248.2,179.6z M256.2,260  c4.4,0,8-3.6,8-8s-3.6-8-8-8s-8,3.6-8,8S251.8,260,256.2,260z M234.6,71.6c5.2,0,9.6-4.4,9.6-10s-4.4-10-9.6-10c-5.6,0-10,4.4-10,10  S229,71.6,234.6,71.6z M130.6,164.4h53.6V72c0-37.6,30.4-68,68-68s68,30.4,68,68v92.4h58.4h16c27.6,0,50,22.4,50,50s-22.4,50-50,50  h-16h-44.8l49.6,182.8c7.2,26.8-8.8,52.4-35.2,59.6c-26.8,7.2-54-8.8-61.2-35.6l-30-112.8l-30.4,112.8  c-7.2,26.8-34.4,42.8-61.2,35.6c-26.8-7.2-42.4-32.8-35.2-59.2l49.6-182.8h-49.2h-12.4c-27.6,0-50-22.4-50-50s22.4-50,50-50h12.4  V164.4z M256.2,223.6c4.4,0,8-3.6,8-8s-3.6-8-8-8s-8,3.6-8,8C248.2,220.4,251.8,223.6,256.2,223.6z M268.2,62c0,5.6,4.4,10,9.6,10  c5.6,0,9.6-4.4,9.6-10s-4.4-10-9.6-10S268.2,56.4,268.2,62z"/>
<g>
	<path style="fill:#E65100;" d="M287.8,62c0,5.6-4.4,10-9.6,10c-5.6,0-9.6-4.4-9.6-10s4.4-10,9.6-10S287.8,56.4,287.8,62z"/>
	<circle style="fill:#E65100;" cx="256.2" cy="216" r="8"/>
	<path style="fill:#E65100;" d="M244.2,62c0,5.6-4.4,10-9.6,10c-5.6,0-9.6-4.4-9.6-10s4.4-10,9.6-10S244.2,56.4,244.2,62z"/>
</g>
<path d="M178.2,513.2c-4.4,0-9.2-0.8-13.6-2c-14-3.6-25.6-12.4-32.8-24.4s-9.2-26.4-5.2-40.4l48.4-178h-56.4c-29.6,0-54-24.4-54-54  s24-54,54-54h62V72c0-39.6,32.4-72,72-72s72,32.4,72,72v88.4h70c29.6,0,54,24.4,54,54s-24,54-54,54h-55.2l48.4,178  c3.6,14,1.6,28-5.6,40c-7.2,11.6-18.8,20.4-32.8,24s-28.4,2-40.8-5.2s-21.2-18.8-25.2-32.8l-26.4-98l-26.4,98.4  c-3.6,14-12.8,25.6-25.2,33.2C197,510.4,187.4,513.2,178.2,513.2z M118.2,168.4c-25.2,0-46,20.8-46,46s20.4,46,46,46h61.6  c1.2,0,2.4,0.4,3.2,1.6c0.8,0.8,1.2,2.4,0.8,3.6l-49.6,182.8c-3.2,11.6-1.6,24,4.4,34.4s16,17.6,28,20.8c11.6,3.2,24,1.6,34.8-4.8  s18.4-16.4,21.6-28l30.4-113.2c0.4-1.6,2-2.8,4-2.8s3.2,1.2,4,2.8l30,112.4c3.2,12,10.8,21.6,21.6,28c10.8,6,23.2,7.6,34.8,4.4  c12-3.2,22-10.4,28-20.4s7.6-22,4.4-33.6l-49.6-182.8c-0.4-1.2,0-2.4,0.8-3.6c0.8-0.8,2-1.6,3.2-1.6H395c25.2,0,46-20.8,46-46  s-20.8-46-46-46h-74.8c-2.4,0-4-1.6-4-4V72c0-35.2-28.8-64-64-64s-64,28.8-64,64v92.4c0,2.4-1.6,4-4,4H118.2z"/>
<path d="M256.2,116.4c-16.4,0-31.6-8.4-40.8-22.4c-1.2-2-0.8-4.4,1.2-5.6s4.4-0.8,5.6,1.2c7.6,11.6,20,18.4,34,18.4  c13.6,0,26.4-6.8,34-18.4c1.2-2,3.6-2.4,5.6-1.2c2,1.2,2.4,3.6,1.2,5.6C288.2,108,273,116.4,256.2,116.4z"/>
<path d="M234.6,75.6c-7.6,0-13.6-6-13.6-14s6-14,13.6-14s13.6,6,13.6,14S242.2,75.6,234.6,75.6z M234.6,56c-3.2,0-5.6,2.8-5.6,6  s2.8,6,5.6,6s5.6-2.8,5.6-6S237.8,56,234.6,56z"/>
<path d="M278.2,75.6c-7.6,0-14-6-14-14s6-14,14-14s13.6,6,13.6,14S285.8,75.6,278.2,75.6z M278.2,56c-3.2,0-6,2.8-6,6s2.8,6,6,6  s5.6-2.8,5.6-6S281.4,56,278.2,56z"/>
<path d="M256.2,191.6c-6.4,0-12-5.2-12-12c0-6.4,5.2-12,12-12c6.4,0,12,5.2,12,12S263,191.6,256.2,191.6z M256.2,175.6  c-2,0-4,1.6-4,4s1.6,4,4,4s4-1.6,4-4S258.6,175.6,256.2,175.6z"/>
<path d="M256.2,227.6c-6.4,0-12-5.2-12-12s5.2-12,12-12c6.4,0,12,5.2,12,12S263,227.6,256.2,227.6z M256.2,212c-2,0-4,1.6-4,4  s1.6,4,4,4s4-1.6,4-4S258.6,212,256.2,212z"/>
<path d="M256.2,264c-6.4,0-12-5.2-12-12c0-6.4,5.2-12,12-12c6.4,0,12,5.2,12,12S263,264,256.2,264z M256.2,248c-2,0-4,1.6-4,4  s1.6,4,4,4s4-1.6,4-4S258.6,248,256.2,248z"/>
<path d="M128.2,268.4c-2.4,0-4-1.6-4-4v-64c0-2.4,1.6-4,4-4s4,1.6,4,4v64C132.2,266.8,130.6,268.4,128.2,268.4z"/>
<path d="M376.2,268.4c-2.4,0-4-1.6-4-4v-64c0-2.4,1.6-4,4-4s4,1.6,4,4v64C380.2,266.8,378.6,268.4,376.2,268.4z"/>
<path d="M128.2,184.4c-2.4,0-4-1.6-4-4v-16c0-2.4,1.6-4,4-4s4,1.6,4,4v16C132.2,182.8,130.6,184.4,128.2,184.4z"/>
<path d="M376.2,184.4c-2.4,0-4-1.6-4-4v-16c0-2.4,1.6-4,4-4s4,1.6,4,4v16C380.2,182.8,378.6,184.4,376.2,184.4z"/>
<path d="M153.4,439.6c-0.4,0-0.8,0-1.2,0l-17.6-4.8c-2-0.4-3.2-2.8-2.8-4.8s2.8-3.2,4.8-2.8l17.6,4.8c2,0.4,3.2,2.8,2.8,4.8  C157,438.4,155.4,439.6,153.4,439.6z"/>
<path d="M230.6,460c-0.4,0-0.8,0-1.2,0l-55.2-14.8c-2-0.4-3.6-2.8-2.8-4.8c0.4-2,2.8-3.6,4.8-2.8l55.2,14.8c2,0.4,3.6,2.8,2.8,4.8  C233.8,458.8,232.2,460,230.6,460z"/>
<path d="M322.2,449.6c-1.6,0-3.2-1.2-4-2.8c-0.4-2,0.8-4.4,2.8-4.8l55.6-14.8c2-0.4,4.4,0.8,4.8,2.8c0.4,2-0.8,4.4-2.8,4.8  L323,449.6C323,449.6,322.6,449.6,322.2,449.6z"/>
<path d="M283.4,460c-1.6,0-3.2-1.2-4-2.8c-0.4-2,0.8-4.4,2.8-4.8l17.2-4.8c2-0.4,4.4,0.8,4.8,2.8s-0.8,4.4-2.8,4.8l-17.2,4.8  C283.8,460,283.8,460,283.4,460z"/>
</svg>
  <rect x="50" y="335" width="120" height="120" stroke="black" fill="none"/>
  <g>
    <svg xmlns:xlink="http://www.w3.org/1999/xlink" t="1737635882929" class="icon" viewBox="0 0 1024 1024" version="1.1" p-id="1739" width="40" height="40" x="60.0" y="290">
      <path d="M804.266667 228.693333H219.093333s-102.4 91.733333-102.4 386.986667c0 150.613333 40.96 248.32 81.066667 307.84 33.493333 49.92 90.026667 79.146667 150.186667 79.146667H674.986667c60.16 0 116.693333-29.44 150.186666-79.146667 40.106667-59.52 81.066667-157.226667 81.066667-307.84 0.213333-295.253333-101.973333-386.986667-101.973333-386.986667z" fill="#FF740E" p-id="1740"/>
      <path d="M804.266667 228.693333h-153.6s102.4 91.733333 102.4 386.986667c0 150.613333-40.96 248.32-81.066667 307.84-33.493333 49.92-90.026667 79.146667-150.186667 79.146667H675.2c60.16 0 116.693333-29.44 150.186667-79.146667 40.106667-59.52 81.066667-157.226667 81.066666-307.84 0-295.253333-102.186667-386.986667-102.186666-386.986667z" fill="#FF8C3E" p-id="1741"/>
      <path d="M720.213333 363.733333c40.746667 0 48.853333 57.813333 153.6 57.813334 5.76 0 10.453333-0.426667 14.506667-1.28-6.186667-29.44-13.226667-55.04-20.906667-77.013334-29.013333-29.226667-63.146667-55.68-63.146666-55.68H219.093333s-33.706667 22.186667-60.8 48c-7.253333 19.626667-14.08 42.666667-20.053333 68.906667 0.64 0.426667 1.28 0.853333 2.133333 1.066667 59.093333 27.52 93.226667-37.973333 157.44-34.133334 64.213333 3.84 59.093333 47.146667 93.226667 49.92 34.133333 2.56 43.306667-55.04 107.52-55.04 64.213333 0 70.826667 55.253333 117.973333 55.253334 47.146667 0 62.933333-57.813333 103.68-57.813334z" fill="#1B1C20" opacity=".1" p-id="1742"/>
      <path d="M825.386667 152.533333H197.973333c-0.64 0-1.066667-0.426667-1.066666-1.066666V31.573333c0-5.546667 4.48-10.24 10.24-10.24h609.493333c5.546667 0 10.24 4.48 10.24 10.24V151.466667c-0.426667 0.64-0.853333 1.066667-1.493333 1.066666z" fill="#FED8B2" p-id="1743"/>
      <path d="M271.573333 21.333333c-41.386667 0-74.88 33.493333-74.88 74.88v47.786667c0 4.693333 3.84 8.533333 8.533334 8.533333h474.24V21.333333H271.573333z" fill="#F2C59E" p-id="1744"/>
      <path d="M219.093333 152.533333H804.266667v76.16H219.093333z" fill="#CCE8E3" p-id="1745"/>
      <path d="M219.093333 152.533333h460.586667v76.16H219.093333z" fill="#B6D3CD" p-id="1746"/>
      <path d="M873.813333 362.453333c-104.746667 0-112.853333-57.813333-153.6-57.813333-6.826667 0-13.013333 1.493333-18.773333 4.48-24.96 11.946667-41.813333 44.8-72.533333 52.053333-0.853333 0.213333-1.493333 0.213333-2.346667 0.426667-1.493333 0.213333-3.2 0.426667-4.48 0.64-1.92 0.213333-3.84 0.213333-5.546667 0.213333-47.146667 0-53.76-55.04-117.973333-55.04-64.213333 0-73.386667 57.6-107.52 55.04-34.133333-2.773333-28.8-45.866667-93.226667-49.92-64.213333-3.84-98.346667 61.653333-157.44 34.133334-59.093333-27.52 78.72-117.973333 78.72-117.973334H804.266667s174.293333 133.76 69.546666 133.76z" fill="#FED8B2" p-id="1747"/>
      <path d="M701.44 309.12c-24.96 11.946667-41.813333 44.8-72.533333 52.053333-0.853333 0.213333-1.493333 0.213333-2.346667 0.426667-1.493333 0.213333-3.2 0.426667-4.48 0.64-1.92 0.213333-3.84 0.213333-5.546667 0.213333-47.146667 0-53.76-55.04-117.973333-55.04-64.213333 0-73.386667 57.6-107.52 55.04-34.133333-2.773333-28.8-45.866667-93.226667-49.92-64.213333-3.84-98.346667 61.653333-157.44 34.133334-59.093333-27.52 78.72-117.973333 78.72-117.973334h460.586667l21.76 80.426667z" fill="#F2C59E" p-id="1748"/>
      <path d="M776.533333 216.746667h-17.066666c-0.64 0-1.28-0.64-1.28-1.28V167.04c0-0.64 0.64-1.28 1.28-1.28h17.066666c0.64 0 1.28 0.64 1.28 1.28V215.466667c0.213333 0.853333-0.426667 1.28-1.28 1.28zM747.093333 210.56h-17.066666c-0.64 0-1.28-0.64-1.28-1.28v-36.266667c0-0.64 0.64-1.28 1.28-1.28h17.066666c0.64 0 1.28 0.64 1.28 1.28v36.266667c0 0.853333-0.64 1.28-1.28 1.28zM717.653333 206.293333h-17.066666c-0.64 0-1.28-0.64-1.28-1.28V177.493333c0-0.64 0.64-1.28 1.28-1.28h17.066666c0.64 0 1.28 0.64 1.28 1.28V204.8c0 0.853333-0.64 1.493333-1.28 1.493333zM750.506667 897.493333c-9.386667-5.546667-12.373333-17.706667-6.826667-26.88l0.64-0.426666c19.84-16 33.493333-38.4 39.04-63.146667l1.28-5.76c5.546667-9.386667 17.706667-12.373333 26.88-6.826667 9.386667 5.546667 5.546667 33.28 5.546667 33.28-5.76 24.96-20.053333 47.36-39.893334 63.36 0-0.426667-17.28 11.946667-26.666666 6.4z" fill="#FFFFFF" p-id="1749"/>
    </svg>
    <text x="110.0" y="310.0" style="font-size: 15px;" dominant_baseline="middle">tiny glass jar</text>
  </g>
  <svg xmlns:xlink="http://www.w3.org/1999/xlink" height="30" width="30" version="1.1" id="Layer_1" viewBox="0 0 513.2 513.2" xml:space="preserve" x="70.0" y="355.0">
<g>
	<circle style="fill:#E65100;" cx="256.2" cy="252" r="8"/>
	<circle style="fill:#E65100;" cx="256.2" cy="179.6" r="8"/>
</g>
<path style="fill:#FFB74D;" d="M248.2,179.6c0,4.4,3.6,8,8,8s8-3.6,8-8s-3.6-8-8-8S248.2,175.2,248.2,179.6z M256.2,260  c4.4,0,8-3.6,8-8s-3.6-8-8-8s-8,3.6-8,8S251.8,260,256.2,260z M234.6,71.6c5.2,0,9.6-4.4,9.6-10s-4.4-10-9.6-10c-5.6,0-10,4.4-10,10  S229,71.6,234.6,71.6z M130.6,164.4h53.6V72c0-37.6,30.4-68,68-68s68,30.4,68,68v92.4h58.4h16c27.6,0,50,22.4,50,50s-22.4,50-50,50  h-16h-44.8l49.6,182.8c7.2,26.8-8.8,52.4-35.2,59.6c-26.8,7.2-54-8.8-61.2-35.6l-30-112.8l-30.4,112.8  c-7.2,26.8-34.4,42.8-61.2,35.6c-26.8-7.2-42.4-32.8-35.2-59.2l49.6-182.8h-49.2h-12.4c-27.6,0-50-22.4-50-50s22.4-50,50-50h12.4  V164.4z M256.2,223.6c4.4,0,8-3.6,8-8s-3.6-8-8-8s-8,3.6-8,8C248.2,220.4,251.8,223.6,256.2,223.6z M268.2,62c0,5.6,4.4,10,9.6,10  c5.6,0,9.6-4.4,9.6-10s-4.4-10-9.6-10S268.2,56.4,268.2,62z"/>
<g>
	<path style="fill:#E65100;" d="M287.8,62c0,5.6-4.4,10-9.6,10c-5.6,0-9.6-4.4-9.6-10s4.4-10,9.6-10S287.8,56.4,287.8,62z"/>
	<circle style="fill:#E65100;" cx="256.2" cy="216" r="8"/>
	<path style="fill:#E65100;" d="M244.2,62c0,5.6-4.4,10-9.6,10c-5.6,0-9.6-4.4-9.6-10s4.4-10,9.6-10S244.2,56.4,244.2,62z"/>
</g>
<path d="M178.2,513.2c-4.4,0-9.2-0.8-13.6-2c-14-3.6-25.6-12.4-32.8-24.4s-9.2-26.4-5.2-40.4l48.4-178h-56.4c-29.6,0-54-24.4-54-54  s24-54,54-54h62V72c0-39.6,32.4-72,72-72s72,32.4,72,72v88.4h70c29.6,0,54,24.4,54,54s-24,54-54,54h-55.2l48.4,178  c3.6,14,1.6,28-5.6,40c-7.2,11.6-18.8,20.4-32.8,24s-28.4,2-40.8-5.2s-21.2-18.8-25.2-32.8l-26.4-98l-26.4,98.4  c-3.6,14-12.8,25.6-25.2,33.2C197,510.4,187.4,513.2,178.2,513.2z M118.2,168.4c-25.2,0-46,20.8-46,46s20.4,46,46,46h61.6  c1.2,0,2.4,0.4,3.2,1.6c0.8,0.8,1.2,2.4,0.8,3.6l-49.6,182.8c-3.2,11.6-1.6,24,4.4,34.4s16,17.6,28,20.8c11.6,3.2,24,1.6,34.8-4.8  s18.4-16.4,21.6-28l30.4-113.2c0.4-1.6,2-2.8,4-2.8s3.2,1.2,4,2.8l30,112.4c3.2,12,10.8,21.6,21.6,28c10.8,6,23.2,7.6,34.8,4.4  c12-3.2,22-10.4,28-20.4s7.6-22,4.4-33.6l-49.6-182.8c-0.4-1.2,0-2.4,0.8-3.6c0.8-0.8,2-1.6,3.2-1.6H395c25.2,0,46-20.8,46-46  s-20.8-46-46-46h-74.8c-2.4,0-4-1.6-4-4V72c0-35.2-28.8-64-64-64s-64,28.8-64,64v92.4c0,2.4-1.6,4-4,4H118.2z"/>
<path d="M256.2,116.4c-16.4,0-31.6-8.4-40.8-22.4c-1.2-2-0.8-4.4,1.2-5.6s4.4-0.8,5.6,1.2c7.6,11.6,20,18.4,34,18.4  c13.6,0,26.4-6.8,34-18.4c1.2-2,3.6-2.4,5.6-1.2c2,1.2,2.4,3.6,1.2,5.6C288.2,108,273,116.4,256.2,116.4z"/>
<path d="M234.6,75.6c-7.6,0-13.6-6-13.6-14s6-14,13.6-14s13.6,6,13.6,14S242.2,75.6,234.6,75.6z M234.6,56c-3.2,0-5.6,2.8-5.6,6  s2.8,6,5.6,6s5.6-2.8,5.6-6S237.8,56,234.6,56z"/>
<path d="M278.2,75.6c-7.6,0-14-6-14-14s6-14,14-14s13.6,6,13.6,14S285.8,75.6,278.2,75.6z M278.2,56c-3.2,0-6,2.8-6,6s2.8,6,6,6  s5.6-2.8,5.6-6S281.4,56,278.2,56z"/>
<path d="M256.2,191.6c-6.4,0-12-5.2-12-12c0-6.4,5.2-12,12-12c6.4,0,12,5.2,12,12S263,191.6,256.2,191.6z M256.2,175.6  c-2,0-4,1.6-4,4s1.6,4,4,4s4-1.6,4-4S258.6,175.6,256.2,175.6z"/>
<path d="M256.2,227.6c-6.4,0-12-5.2-12-12s5.2-12,12-12c6.4,0,12,5.2,12,12S263,227.6,256.2,227.6z M256.2,212c-2,0-4,1.6-4,4  s1.6,4,4,4s4-1.6,4-4S258.6,212,256.2,212z"/>
<path d="M256.2,264c-6.4,0-12-5.2-12-12c0-6.4,5.2-12,12-12c6.4,0,12,5.2,12,12S263,264,256.2,264z M256.2,248c-2,0-4,1.6-4,4  s1.6,4,4,4s4-1.6,4-4S258.6,248,256.2,248z"/>
<path d="M128.2,268.4c-2.4,0-4-1.6-4-4v-64c0-2.4,1.6-4,4-4s4,1.6,4,4v64C132.2,266.8,130.6,268.4,128.2,268.4z"/>
<path d="M376.2,268.4c-2.4,0-4-1.6-4-4v-64c0-2.4,1.6-4,4-4s4,1.6,4,4v64C380.2,266.8,378.6,268.4,376.2,268.4z"/>
<path d="M128.2,184.4c-2.4,0-4-1.6-4-4v-16c0-2.4,1.6-4,4-4s4,1.6,4,4v16C132.2,182.8,130.6,184.4,128.2,184.4z"/>
<path d="M376.2,184.4c-2.4,0-4-1.6-4-4v-16c0-2.4,1.6-4,4-4s4,1.6,4,4v16C380.2,182.8,378.6,184.4,376.2,184.4z"/>
<path d="M153.4,439.6c-0.4,0-0.8,0-1.2,0l-17.6-4.8c-2-0.4-3.2-2.8-2.8-4.8s2.8-3.2,4.8-2.8l17.6,4.8c2,0.4,3.2,2.8,2.8,4.8  C157,438.4,155.4,439.6,153.4,439.6z"/>
<path d="M230.6,460c-0.4,0-0.8,0-1.2,0l-55.2-14.8c-2-0.4-3.6-2.8-2.8-4.8c0.4-2,2.8-3.6,4.8-2.8l55.2,14.8c2,0.4,3.6,2.8,2.8,4.8  C233.8,458.8,232.2,460,230.6,460z"/>
<path d="M322.2,449.6c-1.6,0-3.2-1.2-4-2.8c-0.4-2,0.8-4.4,2.8-4.8l55.6-14.8c2-0.4,4.4,0.8,4.8,2.8c0.4,2-0.8,4.4-2.8,4.8  L323,449.6C323,449.6,322.6,449.6,322.2,449.6z"/>
<path d="M283.4,460c-1.6,0-3.2-1.2-4-2.8c-0.4-2,0.8-4.4,2.8-4.8l17.2-4.8c2-0.4,4.4,0.8,4.8,2.8s-0.8,4.4-2.8,4.8l-17.2,4.8  C283.8,460,283.8,460,283.4,460z"/>
</svg>
  <svg xmlns:xlink="http://www.w3.org/1999/xlink" height="30" width="30" version="1.1" id="Layer_1" viewBox="0 0 513.2 513.2" xml:space="preserve" x="110.0" y="355.0">
<g>
	<circle style="fill:#E65100;" cx="256.2" cy="252" r="8"/>
	<circle style="fill:#E65100;" cx="256.2" cy="179.6" r="8"/>
</g>
<path style="fill:#FFB74D;" d="M248.2,179.6c0,4.4,3.6,8,8,8s8-3.6,8-8s-3.6-8-8-8S248.2,175.2,248.2,179.6z M256.2,260  c4.4,0,8-3.6,8-8s-3.6-8-8-8s-8,3.6-8,8S251.8,260,256.2,260z M234.6,71.6c5.2,0,9.6-4.4,9.6-10s-4.4-10-9.6-10c-5.6,0-10,4.4-10,10  S229,71.6,234.6,71.6z M130.6,164.4h53.6V72c0-37.6,30.4-68,68-68s68,30.4,68,68v92.4h58.4h16c27.6,0,50,22.4,50,50s-22.4,50-50,50  h-16h-44.8l49.6,182.8c7.2,26.8-8.8,52.4-35.2,59.6c-26.8,7.2-54-8.8-61.2-35.6l-30-112.8l-30.4,112.8  c-7.2,26.8-34.4,42.8-61.2,35.6c-26.8-7.2-42.4-32.8-35.2-59.2l49.6-182.8h-49.2h-12.4c-27.6,0-50-22.4-50-50s22.4-50,50-50h12.4  V164.4z M256.2,223.6c4.4,0,8-3.6,8-8s-3.6-8-8-8s-8,3.6-8,8C248.2,220.4,251.8,223.6,256.2,223.6z M268.2,62c0,5.6,4.4,10,9.6,10  c5.6,0,9.6-4.4,9.6-10s-4.4-10-9.6-10S268.2,56.4,268.2,62z"/>
<g>
	<path style="fill:#E65100;" d="M287.8,62c0,5.6-4.4,10-9.6,10c-5.6,0-9.6-4.4-9.6-10s4.4-10,9.6-10S287.8,56.4,287.8,62z"/>
	<circle style="fill:#E65100;" cx="256.2" cy="216" r="8"/>
	<path style="fill:#E65100;" d="M244.2,62c0,5.6-4.4,10-9.6,10c-5.6,0-9.6-4.4-9.6-10s4.4-10,9.6-10S244.2,56.4,244.2,62z"/>
</g>
<path d="M178.2,513.2c-4.4,0-9.2-0.8-13.6-2c-14-3.6-25.6-12.4-32.8-24.4s-9.2-26.4-5.2-40.4l48.4-178h-56.4c-29.6,0-54-24.4-54-54  s24-54,54-54h62V72c0-39.6,32.4-72,72-72s72,32.4,72,72v88.4h70c29.6,0,54,24.4,54,54s-24,54-54,54h-55.2l48.4,178  c3.6,14,1.6,28-5.6,40c-7.2,11.6-18.8,20.4-32.8,24s-28.4,2-40.8-5.2s-21.2-18.8-25.2-32.8l-26.4-98l-26.4,98.4  c-3.6,14-12.8,25.6-25.2,33.2C197,510.4,187.4,513.2,178.2,513.2z M118.2,168.4c-25.2,0-46,20.8-46,46s20.4,46,46,46h61.6  c1.2,0,2.4,0.4,3.2,1.6c0.8,0.8,1.2,2.4,0.8,3.6l-49.6,182.8c-3.2,11.6-1.6,24,4.4,34.4s16,17.6,28,20.8c11.6,3.2,24,1.6,34.8-4.8  s18.4-16.4,21.6-28l30.4-113.2c0.4-1.6,2-2.8,4-2.8s3.2,1.2,4,2.8l30,112.4c3.2,12,10.8,21.6,21.6,28c10.8,6,23.2,7.6,34.8,4.4  c12-3.2,22-10.4,28-20.4s7.6-22,4.4-33.6l-49.6-182.8c-0.4-1.2,0-2.4,0.8-3.6c0.8-0.8,2-1.6,3.2-1.6H395c25.2,0,46-20.8,46-46  s-20.8-46-46-46h-74.8c-2.4,0-4-1.6-4-4V72c0-35.2-28.8-64-64-64s-64,28.8-64,64v92.4c0,2.4-1.6,4-4,4H118.2z"/>
<path d="M256.2,116.4c-16.4,0-31.6-8.4-40.8-22.4c-1.2-2-0.8-4.4,1.2-5.6s4.4-0.8,5.6,1.2c7.6,11.6,20,18.4,34,18.4  c13.6,0,26.4-6.8,34-18.4c1.2-2,3.6-2.4,5.6-1.2c2,1.2,2.4,3.6,1.2,5.6C288.2,108,273,116.4,256.2,116.4z"/>
<path d="M234.6,75.6c-7.6,0-13.6-6-13.6-14s6-14,13.6-14s13.6,6,13.6,14S242.2,75.6,234.6,75.6z M234.6,56c-3.2,0-5.6,2.8-5.6,6  s2.8,6,5.6,6s5.6-2.8,5.6-6S237.8,56,234.6,56z"/>
<path d="M278.2,75.6c-7.6,0-14-6-14-14s6-14,14-14s13.6,6,13.6,14S285.8,75.6,278.2,75.6z M278.2,56c-3.2,0-6,2.8-6,6s2.8,6,6,6  s5.6-2.8,5.6-6S281.4,56,278.2,56z"/>
<path d="M256.2,191.6c-6.4,0-12-5.2-12-12c0-6.4,5.2-12,12-12c6.4,0,12,5.2,12,12S263,191.6,256.2,191.6z M256.2,175.6  c-2,0-4,1.6-4,4s1.6,4,4,4s4-1.6,4-4S258.6,175.6,256.2,175.6z"/>
<path d="M256.2,227.6c-6.4,0-12-5.2-12-12s5.2-12,12-12c6.4,0,12,5.2,12,12S263,227.6,256.2,227.6z M256.2,212c-2,0-4,1.6-4,4  s1.6,4,4,4s4-1.6,4-4S258.6,212,256.2,212z"/>
<path d="M256.2,264c-6.4,0-12-5.2-12-12c0-6.4,5.2-12,12-12c6.4,0,12,5.2,12,12S263,264,256.2,264z M256.2,248c-2,0-4,1.6-4,4  s1.6,4,4,4s4-1.6,4-4S258.6,248,256.2,248z"/>
<path d="M128.2,268.4c-2.4,0-4-1.6-4-4v-64c0-2.4,1.6-4,4-4s4,1.6,4,4v64C132.2,266.8,130.6,268.4,128.2,268.4z"/>
<path d="M376.2,268.4c-2.4,0-4-1.6-4-4v-64c0-2.4,1.6-4,4-4s4,1.6,4,4v64C380.2,266.8,378.6,268.4,376.2,268.4z"/>
<path d="M128.2,184.4c-2.4,0-4-1.6-4-4v-16c0-2.4,1.6-4,4-4s4,1.6,4,4v16C132.2,182.8,130.6,184.4,128.2,184.4z"/>
<path d="M376.2,184.4c-2.4,0-4-1.6-4-4v-16c0-2.4,1.6-4,4-4s4,1.6,4,4v16C380.2,182.8,378.6,184.4,376.2,184.4z"/>
<path d="M153.4,439.6c-0.4,0-0.8,0-1.2,0l-17.6-4.8c-2-0.4-3.2-2.8-2.8-4.8s2.8-3.2,4.8-2.8l17.6,4.8c2,0.4,3.2,2.8,2.8,4.8  C157,438.4,155.4,439.6,153.4,439.6z"/>
<path d="M230.6,460c-0.4,0-0.8,0-1.2,0l-55.2-14.8c-2-0.4-3.6-2.8-2.8-4.8c0.4-2,2.8-3.6,4.8-2.8l55.2,14.8c2,0.4,3.6,2.8,2.8,4.8  C233.8,458.8,232.2,460,230.6,460z"/>
<path d="M322.2,449.6c-1.6,0-3.2-1.2-4-2.8c-0.4-2,0.8-4.4,2.8-4.8l55.6-14.8c2-0.4,4.4,0.8,4.8,2.8c0.4,2-0.8,4.4-2.8,4.8  L323,449.6C323,449.6,322.6,449.6,322.2,449.6z"/>
<path d="M283.4,460c-1.6,0-3.2-1.2-4-2.8c-0.4-2,0.8-4.4,2.8-4.8l17.2-4.8c2-0.4,4.4,0.8,4.8,2.8s-0.8,4.4-2.8,4.8l-17.2,4.8  C283.8,460,283.8,460,283.4,460z"/>
</svg>
  <svg xmlns:xlink="http://www.w3.org/1999/xlink" height="30" width="30" version="1.1" id="Layer_1" viewBox="0 0 513.2 513.2" xml:space="preserve" x="70.0" y="395.0">
<g>
	<circle style="fill:#E65100;" cx="256.2" cy="252" r="8"/>
	<circle style="fill:#E65100;" cx="256.2" cy="179.6" r="8"/>
</g>
<path style="fill:#FFB74D;" d="M248.2,179.6c0,4.4,3.6,8,8,8s8-3.6,8-8s-3.6-8-8-8S248.2,175.2,248.2,179.6z M256.2,260  c4.4,0,8-3.6,8-8s-3.6-8-8-8s-8,3.6-8,8S251.8,260,256.2,260z M234.6,71.6c5.2,0,9.6-4.4,9.6-10s-4.4-10-9.6-10c-5.6,0-10,4.4-10,10  S229,71.6,234.6,71.6z M130.6,164.4h53.6V72c0-37.6,30.4-68,68-68s68,30.4,68,68v92.4h58.4h16c27.6,0,50,22.4,50,50s-22.4,50-50,50  h-16h-44.8l49.6,182.8c7.2,26.8-8.8,52.4-35.2,59.6c-26.8,7.2-54-8.8-61.2-35.6l-30-112.8l-30.4,112.8  c-7.2,26.8-34.4,42.8-61.2,35.6c-26.8-7.2-42.4-32.8-35.2-59.2l49.6-182.8h-49.2h-12.4c-27.6,0-50-22.4-50-50s22.4-50,50-50h12.4  V164.4z M256.2,223.6c4.4,0,8-3.6,8-8s-3.6-8-8-8s-8,3.6-8,8C248.2,220.4,251.8,223.6,256.2,223.6z M268.2,62c0,5.6,4.4,10,9.6,10  c5.6,0,9.6-4.4,9.6-10s-4.4-10-9.6-10S268.2,56.4,268.2,62z"/>
<g>
	<path style="fill:#E65100;" d="M287.8,62c0,5.6-4.4,10-9.6,10c-5.6,0-9.6-4.4-9.6-10s4.4-10,9.6-10S287.8,56.4,287.8,62z"/>
	<circle style="fill:#E65100;" cx="256.2" cy="216" r="8"/>
	<path style="fill:#E65100;" d="M244.2,62c0,5.6-4.4,10-9.6,10c-5.6,0-9.6-4.4-9.6-10s4.4-10,9.6-10S244.2,56.4,244.2,62z"/>
</g>
<path d="M178.2,513.2c-4.4,0-9.2-0.8-13.6-2c-14-3.6-25.6-12.4-32.8-24.4s-9.2-26.4-5.2-40.4l48.4-178h-56.4c-29.6,0-54-24.4-54-54  s24-54,54-54h62V72c0-39.6,32.4-72,72-72s72,32.4,72,72v88.4h70c29.6,0,54,24.4,54,54s-24,54-54,54h-55.2l48.4,178  c3.6,14,1.6,28-5.6,40c-7.2,11.6-18.8,20.4-32.8,24s-28.4,2-40.8-5.2s-21.2-18.8-25.2-32.8l-26.4-98l-26.4,98.4  c-3.6,14-12.8,25.6-25.2,33.2C197,510.4,187.4,513.2,178.2,513.2z M118.2,168.4c-25.2,0-46,20.8-46,46s20.4,46,46,46h61.6  c1.2,0,2.4,0.4,3.2,1.6c0.8,0.8,1.2,2.4,0.8,3.6l-49.6,182.8c-3.2,11.6-1.6,24,4.4,34.4s16,17.6,28,20.8c11.6,3.2,24,1.6,34.8-4.8  s18.4-16.4,21.6-28l30.4-113.2c0.4-1.6,2-2.8,4-2.8s3.2,1.2,4,2.8l30,112.4c3.2,12,10.8,21.6,21.6,28c10.8,6,23.2,7.6,34.8,4.4  c12-3.2,22-10.4,28-20.4s7.6-22,4.4-33.6l-49.6-182.8c-0.4-1.2,0-2.4,0.8-3.6c0.8-0.8,2-1.6,3.2-1.6H395c25.2,0,46-20.8,46-46  s-20.8-46-46-46h-74.8c-2.4,0-4-1.6-4-4V72c0-35.2-28.8-64-64-64s-64,28.8-64,64v92.4c0,2.4-1.6,4-4,4H118.2z"/>
<path d="M256.2,116.4c-16.4,0-31.6-8.4-40.8-22.4c-1.2-2-0.8-4.4,1.2-5.6s4.4-0.8,5.6,1.2c7.6,11.6,20,18.4,34,18.4  c13.6,0,26.4-6.8,34-18.4c1.2-2,3.6-2.4,5.6-1.2c2,1.2,2.4,3.6,1.2,5.6C288.2,108,273,116.4,256.2,116.4z"/>
<path d="M234.6,75.6c-7.6,0-13.6-6-13.6-14s6-14,13.6-14s13.6,6,13.6,14S242.2,75.6,234.6,75.6z M234.6,56c-3.2,0-5.6,2.8-5.6,6  s2.8,6,5.6,6s5.6-2.8,5.6-6S237.8,56,234.6,56z"/>
<path d="M278.2,75.6c-7.6,0-14-6-14-14s6-14,14-14s13.6,6,13.6,14S285.8,75.6,278.2,75.6z M278.2,56c-3.2,0-6,2.8-6,6s2.8,6,6,6  s5.6-2.8,5.6-6S281.4,56,278.2,56z"/>
<path d="M256.2,191.6c-6.4,0-12-5.2-12-12c0-6.4,5.2-12,12-12c6.4,0,12,5.2,12,12S263,191.6,256.2,191.6z M256.2,175.6  c-2,0-4,1.6-4,4s1.6,4,4,4s4-1.6,4-4S258.6,175.6,256.2,175.6z"/>
<path d="M256.2,227.6c-6.4,0-12-5.2-12-12s5.2-12,12-12c6.4,0,12,5.2,12,12S263,227.6,256.2,227.6z M256.2,212c-2,0-4,1.6-4,4  s1.6,4,4,4s4-1.6,4-4S258.6,212,256.2,212z"/>
<path d="M256.2,264c-6.4,0-12-5.2-12-12c0-6.4,5.2-12,12-12c6.4,0,12,5.2,12,12S263,264,256.2,264z M256.2,248c-2,0-4,1.6-4,4  s1.6,4,4,4s4-1.6,4-4S258.6,248,256.2,248z"/>
<path d="M128.2,268.4c-2.4,0-4-1.6-4-4v-64c0-2.4,1.6-4,4-4s4,1.6,4,4v64C132.2,266.8,130.6,268.4,128.2,268.4z"/>
<path d="M376.2,268.4c-2.4,0-4-1.6-4-4v-64c0-2.4,1.6-4,4-4s4,1.6,4,4v64C380.2,266.8,378.6,268.4,376.2,268.4z"/>
<path d="M128.2,184.4c-2.4,0-4-1.6-4-4v-16c0-2.4,1.6-4,4-4s4,1.6,4,4v16C132.2,182.8,130.6,184.4,128.2,184.4z"/>
<path d="M376.2,184.4c-2.4,0-4-1.6-4-4v-16c0-2.4,1.6-4,4-4s4,1.6,4,4v16C380.2,182.8,378.6,184.4,376.2,184.4z"/>
<path d="M153.4,439.6c-0.4,0-0.8,0-1.2,0l-17.6-4.8c-2-0.4-3.2-2.8-2.8-4.8s2.8-3.2,4.8-2.8l17.6,4.8c2,0.4,3.2,2.8,2.8,4.8  C157,438.4,155.4,439.6,153.4,439.6z"/>
<path d="M230.6,460c-0.4,0-0.8,0-1.2,0l-55.2-14.8c-2-0.4-3.6-2.8-2.8-4.8c0.4-2,2.8-3.6,4.8-2.8l55.2,14.8c2,0.4,3.6,2.8,2.8,4.8  C233.8,458.8,232.2,460,230.6,460z"/>
<path d="M322.2,449.6c-1.6,0-3.2-1.2-4-2.8c-0.4-2,0.8-4.4,2.8-4.8l55.6-14.8c2-0.4,4.4,0.8,4.8,2.8c0.4,2-0.8,4.4-2.8,4.8  L323,449.6C323,449.6,322.6,449.6,322.2,449.6z"/>
<path d="M283.4,460c-1.6,0-3.2-1.2-4-2.8c-0.4-2,0.8-4.4,2.8-4.8l17.2-4.8c2-0.4,4.4,0.8,4.8,2.8s-0.8,4.4-2.8,4.8l-17.2,4.8  C283.8,460,283.8,460,283.4,460z"/>
</svg>
  <rect x="190" y="335" width="120" height="120" stroke="black" fill="none"/>
  <g>
    <text x="225.0" y="310.0" style="font-size: 15px;" dominant_baseline="middle">Remainder</text>
  </g>
  <svg xmlns:xlink="http://www.w3.org/1999/xlink" height="30" width="30" version="1.1" id="Layer_1" viewBox="0 0 513.2 513.2" xml:space="preserve" x="210.0" y="355.0">
<g>
	<circle style="fill:#E65100;" cx="256.2" cy="252" r="8"/>
	<circle style="fill:#E65100;" cx="256.2" cy="179.6" r="8"/>
</g>
<path style="fill:#FFB74D;" d="M248.2,179.6c0,4.4,3.6,8,8,8s8-3.6,8-8s-3.6-8-8-8S248.2,175.2,248.2,179.6z M256.2,260  c4.4,0,8-3.6,8-8s-3.6-8-8-8s-8,3.6-8,8S251.8,260,256.2,260z M234.6,71.6c5.2,0,9.6-4.4,9.6-10s-4.4-10-9.6-10c-5.6,0-10,4.4-10,10  S229,71.6,234.6,71.6z M130.6,164.4h53.6V72c0-37.6,30.4-68,68-68s68,30.4,68,68v92.4h58.4h16c27.6,0,50,22.4,50,50s-22.4,50-50,50  h-16h-44.8l49.6,182.8c7.2,26.8-8.8,52.4-35.2,59.6c-26.8,7.2-54-8.8-61.2-35.6l-30-112.8l-30.4,112.8  c-7.2,26.8-34.4,42.8-61.2,35.6c-26.8-7.2-42.4-32.8-35.2-59.2l49.6-182.8h-49.2h-12.4c-27.6,0-50-22.4-50-50s22.4-50,50-50h12.4  V164.4z M256.2,223.6c4.4,0,8-3.6,8-8s-3.6-8-8-8s-8,3.6-8,8C248.2,220.4,251.8,223.6,256.2,223.6z M268.2,62c0,5.6,4.4,10,9.6,10  c5.6,0,9.6-4.4,9.6-10s-4.4-10-9.6-10S268.2,56.4,268.2,62z"/>
<g>
	<path style="fill:#E65100;" d="M287.8,62c0,5.6-4.4,10-9.6,10c-5.6,0-9.6-4.4-9.6-10s4.4-10,9.6-10S287.8,56.4,287.8,62z"/>
	<circle style="fill:#E65100;" cx="256.2" cy="216" r="8"/>
	<path style="fill:#E65100;" d="M244.2,62c0,5.6-4.4,10-9.6,10c-5.6,0-9.6-4.4-9.6-10s4.4-10,9.6-10S244.2,56.4,244.2,62z"/>
</g>
<path d="M178.2,513.2c-4.4,0-9.2-0.8-13.6-2c-14-3.6-25.6-12.4-32.8-24.4s-9.2-26.4-5.2-40.4l48.4-178h-56.4c-29.6,0-54-24.4-54-54  s24-54,54-54h62V72c0-39.6,32.4-72,72-72s72,32.4,72,72v88.4h70c29.6,0,54,24.4,54,54s-24,54-54,54h-55.2l48.4,178  c3.6,14,1.6,28-5.6,40c-7.2,11.6-18.8,20.4-32.8,24s-28.4,2-40.8-5.2s-21.2-18.8-25.2-32.8l-26.4-98l-26.4,98.4  c-3.6,14-12.8,25.6-25.2,33.2C197,510.4,187.4,513.2,178.2,513.2z M118.2,168.4c-25.2,0-46,20.8-46,46s20.4,46,46,46h61.6  c1.2,0,2.4,0.4,3.2,1.6c0.8,0.8,1.2,2.4,0.8,3.6l-49.6,182.8c-3.2,11.6-1.6,24,4.4,34.4s16,17.6,28,20.8c11.6,3.2,24,1.6,34.8-4.8  s18.4-16.4,21.6-28l30.4-113.2c0.4-1.6,2-2.8,4-2.8s3.2,1.2,4,2.8l30,112.4c3.2,12,10.8,21.6,21.6,28c10.8,6,23.2,7.6,34.8,4.4  c12-3.2,22-10.4,28-20.4s7.6-22,4.4-33.6l-49.6-182.8c-0.4-1.2,0-2.4,0.8-3.6c0.8-0.8,2-1.6,3.2-1.6H395c25.2,0,46-20.8,46-46  s-20.8-46-46-46h-74.8c-2.4,0-4-1.6-4-4V72c0-35.2-28.8-64-64-64s-64,28.8-64,64v92.4c0,2.4-1.6,4-4,4H118.2z"/>
<path d="M256.2,116.4c-16.4,0-31.6-8.4-40.8-22.4c-1.2-2-0.8-4.4,1.2-5.6s4.4-0.8,5.6,1.2c7.6,11.6,20,18.4,34,18.4  c13.6,0,26.4-6.8,34-18.4c1.2-2,3.6-2.4,5.6-1.2c2,1.2,2.4,3.6,1.2,5.6C288.2,108,273,116.4,256.2,116.4z"/>
<path d="M234.6,75.6c-7.6,0-13.6-6-13.6-14s6-14,13.6-14s13.6,6,13.6,14S242.2,75.6,234.6,75.6z M234.6,56c-3.2,0-5.6,2.8-5.6,6  s2.8,6,5.6,6s5.6-2.8,5.6-6S237.8,56,234.6,56z"/>
<path d="M278.2,75.6c-7.6,0-14-6-14-14s6-14,14-14s13.6,6,13.6,14S285.8,75.6,278.2,75.6z M278.2,56c-3.2,0-6,2.8-6,6s2.8,6,6,6  s5.6-2.8,5.6-6S281.4,56,278.2,56z"/>
<path d="M256.2,191.6c-6.4,0-12-5.2-12-12c0-6.4,5.2-12,12-12c6.4,0,12,5.2,12,12S263,191.6,256.2,191.6z M256.2,175.6  c-2,0-4,1.6-4,4s1.6,4,4,4s4-1.6,4-4S258.6,175.6,256.2,175.6z"/>
<path d="M256.2,227.6c-6.4,0-12-5.2-12-12s5.2-12,12-12c6.4,0,12,5.2,12,12S263,227.6,256.2,227.6z M256.2,212c-2,0-4,1.6-4,4  s1.6,4,4,4s4-1.6,4-4S258.6,212,256.2,212z"/>
<path d="M256.2,264c-6.4,0-12-5.2-12-12c0-6.4,5.2-12,12-12c6.4,0,12,5.2,12,12S263,264,256.2,264z M256.2,248c-2,0-4,1.6-4,4  s1.6,4,4,4s4-1.6,4-4S258.6,248,256.2,248z"/>
<path d="M128.2,268.4c-2.4,0-4-1.6-4-4v-64c0-2.4,1.6-4,4-4s4,1.6,4,4v64C132.2,266.8,130.6,268.4,128.2,268.4z"/>
<path d="M376.2,268.4c-2.4,0-4-1.6-4-4v-64c0-2.4,1.6-4,4-4s4,1.6,4,4v64C380.2,266.8,378.6,268.4,376.2,268.4z"/>
<path d="M128.2,184.4c-2.4,0-4-1.6-4-4v-16c0-2.4,1.6-4,4-4s4,1.6,4,4v16C132.2,182.8,130.6,184.4,128.2,184.4z"/>
<path d="M376.2,184.4c-2.4,0-4-1.6-4-4v-16c0-2.4,1.6-4,4-4s4,1.6,4,4v16C380.2,182.8,378.6,184.4,376.2,184.4z"/>
<path d="M153.4,439.6c-0.4,0-0.8,0-1.2,0l-17.6-4.8c-2-0.4-3.2-2.8-2.8-4.8s2.8-3.2,4.8-2.8l17.6,4.8c2,0.4,3.2,2.8,2.8,4.8  C157,438.4,155.4,439.6,153.4,439.6z"/>
<path d="M230.6,460c-0.4,0-0.8,0-1.2,0l-55.2-14.8c-2-0.4-3.6-2.8-2.8-4.8c0.4-2,2.8-3.6,4.8-2.8l55.2,14.8c2,0.4,3.6,2.8,2.8,4.8  C233.8,458.8,232.2,460,230.6,460z"/>
<path d="M322.2,449.6c-1.6,0-3.2-1.2-4-2.8c-0.4-2,0.8-4.4,2.8-4.8l55.6-14.8c2-0.4,4.4,0.8,4.8,2.8c0.4,2-0.8,4.4-2.8,4.8  L323,449.6C323,449.6,322.6,449.6,322.2,449.6z"/>
<path d="M283.4,460c-1.6,0-3.2-1.2-4-2.8c-0.4-2,0.8-4.4,2.8-4.8l17.2-4.8c2-0.4,4.4,0.8,4.8,2.8s-0.8,4.4-2.8,4.8l-17.2,4.8  C283.8,460,283.8,460,283.4,460z"/>
</svg>
  <g>
    <svg xmlns:xlink="http://www.w3.org/1999/xlink" version="1.1" id="Layer_1" x="135.0" y="35" viewBox="0 0 512 512" style="enable-background:new 0 0 512 512;" xml:space="preserve" width="40" height="40">
<circle style="fill:#C2D5D8;" cx="256" cy="256" r="256"/>
<rect x="328" y="120" style="fill:#CC584C;" width="40" height="72"/>
<polygon style="fill:#B34D43;" points="368,164.172 328,130.26 328,192 368,192 "/>
<rect x="324" y="112" style="fill:#BF5347;" width="48" height="8"/>
<polygon style="fill:#E6E6E6;" points="412,416 100,416 100,232 256,100 412,232 "/>
<polygon style="fill:#D9D9D9;" points="100,232 100,261.032 256,128.772 412,261.032 412,232 256,100 "/>
<path style="fill:#CCCCCC;" d="M120.892,416c1.916-2.128,3.108-4.916,3.108-8c6.628,0,12-5.372,12-12  c0-5.244-3.384-9.656-8.072-11.288c0.008-0.24,0.072-0.468,0.072-0.712c0-6.628-5.372-12-12-12c-0.028,0-0.056,0.008-0.084,0.008  C112.264,367.172,106.528,364,100,364v52H120.892z"/>
<g>
	<path style="fill:#805026;" d="M224,356c0-2.2-1.8-4-4-4h-80c-2.2,0-4,1.8-4,4l0,0c0,2.2,1.8,4,4,4h80C222.2,360,224,358.2,224,356   L224,356z"/>
	<path style="fill:#805026;" d="M224,268c0-2.2-1.8-4-4-4h-80c-2.2,0-4,1.8-4,4l0,0c0,2.2,1.8,4,4,4h80C222.2,272,224,270.2,224,268   L224,268z"/>
</g>
<rect x="148" y="272" style="fill:#99602E;" width="64" height="80"/>
<rect x="148" y="272" style="fill:#8C582A;" width="64" height="4"/>
<path style="fill:#805026;" d="M384,292c0-2.2-1.8-4-4-4h-80c-2.2,0-4,1.8-4,4l0,0c0,2.2,1.8,4,4,4h80C382.2,296,384,294.2,384,292  L384,292z"/>
<rect x="308" y="296" style="fill:#99602E;" width="64" height="120"/>
<rect x="308" y="296" style="fill:#8C582A;" width="64" height="4"/>
<rect x="156" y="280" style="fill:#91D2F2;" width="48" height="64"/>
<path style="opacity:0.3;fill:#F5F5F5;enable-background:new    ;" d="M164,300c-1.024,0-2.048-0.392-2.828-1.172  c-1.564-1.564-1.564-4.092,0-5.656l8-8c1.564-1.564,4.092-1.564,5.656,0s1.564,4.092,0,5.656l-8,8  C166.048,299.608,165.024,300,164,300z M166.828,314.828l24-24c1.564-1.564,1.564-4.092,0-5.656s-4.092-1.564-5.656,0l-24,24  c-1.564,1.564-1.564,4.092,0,5.656c0.78,0.78,1.804,1.172,2.828,1.172S166.048,315.608,166.828,314.828z"/>
<path style="fill:#805026;" d="M56.228,416c46.916,58.504,118.948,96,199.772,96s152.856-37.496,199.772-96H56.228z"/>
<path style="fill:#198058;" d="M123.928,384.712c0.008-0.24,0.072-0.468,0.072-0.712c0-6.628-5.372-12-12-12  c-0.028,0-0.056,0.008-0.084,0.008C108.264,367.172,102.528,364,96,364c-8.296,0-15.416,5.056-18.436,12.252  C72.1,377.38,68,382.212,68,388.004c0,3.088,1.2,5.872,3.108,8c-1.916,2.128-3.108,4.912-3.108,8c0,6.628,5.372,12,12,12  c0.972,0,1.908-0.148,2.812-0.364c2.2,2.64,5.476,4.364,9.188,4.364c3.084,0,5.876-1.2,8-3.112c2.124,1.916,4.916,3.112,8,3.112  c6.628,0,12-5.372,12-12c6.628,0,12-5.372,12-12C132,390.756,128.616,386.344,123.928,384.712z"/>
<g>
	<path style="fill:#16734F;" d="M78.812,415.636c-0.344,0.084-0.712,0.084-1.064,0.136c0.428,0.084,0.892,0.1,1.344,0.14   C79.008,415.812,78.9,415.736,78.812,415.636z"/>
	<path style="fill:#16734F;" d="M123.928,384.712c0.008-0.24,0.072-0.468,0.072-0.712c0-6.628-5.372-12-12-12   c-0.028,0-0.056,0.008-0.084,0.008C108.264,367.172,102.528,364,96,364c-0.6,0-1.188,0.084-1.772,0.136   c5.592,0.628,10.46,3.596,13.696,7.872c0.024,0,0.056-0.008,0.084-0.008c6.628,0,12,5.372,12,12c0,0.244-0.06,0.472-0.076,0.712   c4.688,1.632,8.076,6.048,8.076,11.288c0,6.628-5.372,12-12,12c0,5.956-4.352,10.864-10.044,11.804   C106.616,419.92,107.3,420,108,420c6.628,0,12-5.372,12-12c6.628,0,12-5.372,12-12C132,390.756,128.616,386.344,123.928,384.712z"/>
	<path style="fill:#16734F;" d="M96,416.892c-1.608,1.448-3.6,2.48-5.82,2.904c0.592,0.096,1.192,0.212,1.82,0.212   c2.2,0,4.236-0.632,6-1.672C97.288,417.908,96.608,417.436,96,416.892z"/>
</g>
<path style="fill:#99602D;" d="M66.4,428h379.212c3.524-3.88,6.888-7.908,10.164-12H56.228C59.508,420.092,62.872,424.12,66.4,428z"/>
<path style="fill:#CC584C;" d="M429.652,264L256,116.772L82.348,264l-20.696-24.408l184-156c5.968-5.064,14.732-5.064,20.696,0  l184,156L429.652,264z"/>
<circle style="fill:#263740;" cx="256" cy="200" r="40"/>
<path style="fill:#91D2F2;" d="M256,232c-17.644,0-32-14.356-32-32s14.356-32,32-32s32,14.356,32,32S273.644,232,256,232z"/>
<circle style="fill:#263740;" cx="364" cy="368" r="4"/>
<g>
</g>
<g>
</g>
<g>
</g>
<g>
</g>
<g>
</g>
<g>
</g>
<g>
</g>
<g>
</g>
<g>
</g>
<g>
</g>
<g>
</g>
<g>
</g>
<g>
</g>
<g>
</g>
<g>
</g>
</svg>
    <text x="185.0" y="55.0" style="font-size: 15px;" dominant_baseline="middle">home</text>
  </g>
  <rect x="20" y="80" width="330" height="465" stroke="black" fill="none" stroke_width="2"/>
  <circle cx="310" cy="455" r="30" fill="#BBA7F4"/>
  <text x="304" y="461" style="font-size: 30px;" text_anchor="middle" fill="red" dominant_baseline="central">?</text>
</svg>
