<?xml version="1.0" standalone="no"?><!DOCTYPE svg PUBLIC "-//W3C//DTD SVG 1.1//EN" "http://www.w3.org/Graphics/SVG/1.1/DTD/svg11.dtd"><svg t="1737726689810" class="icon" viewBox="0 0 1638 1024" version="1.1" xmlns="http://www.w3.org/2000/svg" p-id="9604" xmlns:xlink="http://www.w3.org/1999/xlink" width="319.921875" height="200"><path d="M0 0h1638.4v1022.6176H0z" fill="#FFFFFF" p-id="9605"></path><path d="M0 0h1638.4v78.0288H0z" fill="#D20037" p-id="9606"></path><path d="M0 157.6448h1638.4v78.0288H0z" fill="#D20037" p-id="9607"></path><path d="M0 314.2144h1638.4v78.0288H0z" fill="#D20037" p-id="9608"></path><path d="M0 471.9104h1638.4v78.0288H0z" fill="#D20037" p-id="9609"></path><path d="M0 630.6304h1638.4v78.0288H0z" fill="#D20037" p-id="9610"></path><path d="M0 787.2h1638.4v78.0288H0z" fill="#D20037" p-id="9611"></path><path d="M0 945.9712h1638.4V1024H0z" fill="#D20037" p-id="9612"></path><path d="M0 0h680.2432v546.0992H0z" fill="#00387F" p-id="9613"></path><path d="M71.936 47.7184h16.5376l-13.312 10.24 5.12 15.8208-13.2608-9.8816-13.2608 9.7792 5.1712-15.7184-13.4144-10.24h16.4864l5.12-15.36z" fill="#FFFFFF" p-id="9614"></path><path d="M181.76 47.7184h16.5888l-13.3632 10.24 5.12 15.8208-13.2608-9.7792-13.2608 9.7792 5.12-15.8208-13.4144-10.24h16.4864l5.12-15.36z" fill="#FFFFFF" p-id="9615"></path><path d="M291.6352 47.7184h16.5888l-13.312 10.24 5.12 15.8208-13.2608-9.7792-13.2608 9.7792 5.12-15.8208-13.4656-10.24h16.5376l5.12-15.36z" fill="#FFFFFF" p-id="9616"></path><path d="M401.7664 47.7184h16.5888l-13.312 10.24 5.12 15.8208-13.5168-9.8816-13.2608 9.7792 5.12-15.8208-13.4144-10.24h16.4352l5.12-15.36z" fill="#FFFFFF" p-id="9617"></path><path d="M511.3856 47.7184h16.5376l-13.312 10.24 5.12 15.8208-13.2096-9.7792-13.2608 9.7792 5.12-15.8208-13.3632-10.24h16.4864l5.12-15.36z" fill="#FFFFFF" p-id="9618"></path><path d="M621.2608 47.7184h16.5376l-13.312 10.24 5.12 15.8208-13.2608-9.7792-13.2608 9.7792 5.12-15.8208-13.4656-10.24h16.4864l5.12-15.36z" fill="#FFFFFF" p-id="9619"></path><path d="M566.3232 103.68h16.5376l-13.312 10.24 5.12 15.8208-13.2608-9.7792-13.2608 9.7792 5.12-15.8208-13.4656-10.24h16.5376l5.12-15.36z" fill="#FFFFFF" p-id="9620"></path><path d="M511.3856 159.488h16.5376l-13.312 10.24 5.12 15.8208-13.2096-9.7792-13.2608 9.7792 5.12-15.8208-13.4144-10.24h16.4864l5.12-15.36z" fill="#FFFFFF" p-id="9621"></path><path d="M456.448 216.8832h16.5888l-13.3632 10.24 5.12 15.8208-13.2608-9.7792-13.2608 9.5744 5.12-15.8208-13.4144-10.24h16.4864l5.12-15.36z" fill="#FFFFFF" p-id="9622"></path><path d="M401.7664 273.2032h16.5888l-13.312 10.24 5.12 15.8208-13.2608-9.7792-13.2608 9.7792 5.12-15.8208-13.4144-10.24h16.1792l5.12-15.36z" fill="#FFFFFF" p-id="9623"></path><path d="M346.5728 329.472h16.5376l-13.312 9.984 5.12 15.872-13.2608-9.7792-13.2608 9.7792 5.12-15.872-13.4656-9.984h16.4864l5.12-15.36z" fill="#FFFFFF" p-id="9624"></path><path d="M291.6352 385.792h16.5888l-13.312 9.984 5.12 15.872-13.2608-9.7792-13.2608 9.7792 5.12-15.872-13.4656-9.984h16.5376l5.12-15.36z" fill="#FFFFFF" p-id="9625"></path><path d="M236.6976 442.0608h16.5376l-13.312 9.984 5.12 15.872-13.2096-9.7792-13.2608 9.7792 5.12-15.872-13.4144-9.984h16.4864l5.12-15.36z" fill="#FFFFFF" p-id="9626"></path><path d="M181.76 498.3808h16.5888l-13.3632 9.984 5.12 15.872-13.2608-9.7792-13.2608 9.7792 5.12-15.872-13.4144-9.984h16.4864l5.12-15.36z" fill="#FFFFFF" p-id="9627"></path><path d="M291.6352 498.3808h16.5888l-13.312 9.984 5.12 15.872-13.2608-9.7792-13.2608 9.7792 5.12-15.872-13.4656-9.984h16.5376l5.12-15.36z" fill="#FFFFFF" p-id="9628"></path><path d="M401.7664 498.3808h16.5888l-13.312 9.984 5.12 15.872-13.2608-9.7792-13.2608 9.7792 5.12-15.872-13.4144-9.984h16.1792l5.12-15.36z" fill="#FFFFFF" p-id="9629"></path><path d="M511.3856 498.3808h16.5376l-13.312 9.984 5.12 15.872-13.2096-9.7792-13.2608 9.7792 5.12-15.872-13.4144-9.984h16.4864l5.12-15.36z" fill="#FFFFFF" p-id="9630"></path><path d="M621.2608 498.3808h16.5376l-13.312 9.984 5.12 15.872-13.2608-9.7792-13.2608 9.7792 5.12-15.872-13.4656-9.984h16.4864l5.12-15.36z" fill="#FFFFFF" p-id="9631"></path><path d="M346.5728 103.68h16.5376l-13.312 10.24 5.12 15.8208-13.2608-9.728-13.2608 9.728 5.12-15.8208-13.4656-10.24h16.4864l5.12-15.36z" fill="#FFFFFF" p-id="9632"></path><path d="M291.6352 159.488h16.5888l-13.312 10.24 5.12 15.8208-13.2608-9.7792-13.2608 9.7792 5.12-15.8208-13.4656-10.24h16.5376l5.12-15.36z" fill="#FFFFFF" p-id="9633"></path><path d="M236.6976 216.8832h16.5376l-13.312 10.24 5.12 15.8208-13.2608-9.7792-13.2608 9.7792 5.12-15.8208-13.4144-10.24h16.4864l5.12-15.36z" fill="#FFFFFF" p-id="9634"></path><path d="M181.76 273.2032h16.5888l-13.3632 10.24 5.12 15.8208-13.2608-9.7792-13.2608 9.7792 5.12-15.8208-13.4144-10.24h16.4864l5.12-15.36z" fill="#FFFFFF" p-id="9635"></path><path d="M126.8736 329.472h16.5376l-13.312 9.984 5.12 15.872-13.2608-9.7792-13.2608 9.7792 5.12-15.872-13.4144-9.984h16.4864l5.12-15.36z" fill="#FFFFFF" p-id="9636"></path><path d="M126.8224 103.68h16.5888l-13.312 10.24 5.12 15.8208-13.2608-9.7792-13.2608 9.7792 5.12-15.8208-13.4144-10.24h16.4864l5.12-15.36z" fill="#FFFFFF" p-id="9637"></path><path d="M236.6976 103.68h16.5376l-13.312 10.24 5.12 15.8208-13.2096-9.7792-13.2608 9.7792 5.12-15.8208-13.4144-10.24h16.4864l5.12-15.36z" fill="#FFFFFF" p-id="9638"></path><path d="M181.76 159.488h16.5888l-13.3632 10.24 5.12 15.8208-13.2608-9.7792-13.2608 9.7792 5.12-15.8208-13.4144-10.24h16.4864l5.12-15.36z" fill="#FFFFFF" p-id="9639"></path><path d="M126.8224 216.8832h16.5888l-13.312 10.24 5.12 15.8208-13.2608-9.7792-13.2608 9.7792 5.12-15.8208-13.4144-10.24h16.4864l5.12-15.36z" fill="#FFFFFF" p-id="9640"></path><path d="M71.936 159.488h16.5376l-13.312 10.24 5.12 15.8208-13.2608-9.7792-13.2608 9.7792 5.12-15.8208-13.4144-10.24h16.4864l5.12-15.36z" fill="#FFFFFF" p-id="9641"></path><path d="M71.936 273.2032h16.5376l-13.312 10.24 5.12 15.8208-13.2608-9.7792-13.2608 9.7792 5.12-15.8208-13.4144-10.24h16.4864l5.12-15.36z" fill="#FFFFFF" p-id="9642"></path><path d="M71.936 385.792h16.5376l-13.312 9.984 5.12 15.872-13.2608-9.7792-13.2608 9.7792 5.12-15.872-13.4144-9.984h16.4864l5.12-15.36z" fill="#FFFFFF" p-id="9643"></path><path d="M456.448 103.68h16.5888l-13.312 10.24 5.12 15.8208-13.2608-9.7792-13.312 9.5744 5.12-15.8208-13.4144-10.24h16.4864l5.12-15.36z" fill="#FFFFFF" p-id="9644"></path><path d="M401.7664 159.488h16.5888l-13.312 10.24 5.12 15.8208-13.2608-9.7792-13.2608 9.7792 5.12-15.8208-13.4144-10.24h16.1792l5.12-15.36z" fill="#FFFFFF" p-id="9645"></path><path d="M346.5728 216.8832h16.5376l-13.312 10.24 5.12 15.8208-13.2608-9.7792-13.2608 9.7792 5.12-15.8208-13.4656-10.24h16.4864l5.12-15.36z" fill="#FFFFFF" p-id="9646"></path><path d="M291.6352 273.2032h16.5888l-13.312 10.24 5.12 15.8208-13.2608-9.7792-13.2608 9.7792 5.12-15.8208-13.4656-10.24h16.5376l5.12-15.36z" fill="#FFFFFF" p-id="9647"></path><path d="M236.6976 329.472h16.5376l-13.312 9.984 5.12 15.872-13.2608-9.7792-13.2608 9.7792 5.12-15.872-13.4144-9.984h16.4864l5.12-15.36z" fill="#FFFFFF" p-id="9648"></path><path d="M181.76 385.792h16.5888l-13.3632 9.984 5.12 15.872-13.2608-9.7792-13.2608 9.7792 5.12-15.872-13.4144-9.984h16.4864l5.12-15.36z" fill="#FFFFFF" p-id="9649"></path><path d="M126.8224 442.0608h16.5888l-13.312 9.984 5.12 15.872-13.2608-9.7792-13.2608 9.7792 5.12-15.872-13.4144-9.984h16.4864l5.12-15.36z" fill="#FFFFFF" p-id="9650"></path><path d="M71.936 498.3808h16.5376l-13.312 9.984 5.12 15.872-13.2608-9.7792-13.2608 9.7792 5.12-15.872-13.4144-9.984h16.4864l5.12-15.36z" fill="#FFFFFF" p-id="9651"></path><path d="M346.5728 442.0608h16.5376l-13.312 9.984 5.12 15.872-13.2608-9.7792-13.2608 9.7792 5.12-15.872-13.4656-9.984h16.4864l5.12-15.36z" fill="#FFFFFF" p-id="9652"></path><path d="M401.7664 385.792h16.5888l-13.312 9.984 5.12 15.872-13.2608-9.7792-13.2608 9.7792 5.12-15.872-13.4144-9.984h16.1792l5.12-15.36z" fill="#FFFFFF" p-id="9653"></path><path d="M456.448 329.472h16.5888l-13.3632 9.984 5.12 15.872-13.2608-9.7792-13.2608 9.7792 5.12-15.872-13.4144-9.984h16.4864l5.12-15.36z" fill="#FFFFFF" p-id="9654"></path><path d="M511.3856 273.2032h16.5376l-13.312 10.24 5.12 15.8208-13.2096-9.7792-13.2608 9.7792 5.12-15.8208-13.4144-10.24h16.4864l5.12-15.36z" fill="#FFFFFF" p-id="9655"></path><path d="M566.3232 216.8832h16.5376l-13.312 10.24 5.12 15.8208-13.2608-9.7792-13.2608 9.7792 5.12-15.8208-13.4656-10.24h16.5376l5.12-15.36z" fill="#FFFFFF" p-id="9656"></path><path d="M456.448 442.0608h16.5888l-13.312 9.984 5.12 15.872-13.2608-9.7792-13.312 9.7792 5.12-15.872-13.4144-9.984h16.4864l5.12-15.36z" fill="#FFFFFF" p-id="9657"></path><path d="M511.3856 385.792h16.5376l-13.312 9.984 5.12 15.872-13.2096-9.7792-13.2608 9.7792 5.12-15.872-13.4144-9.984h16.4864l5.12-15.36z" fill="#FFFFFF" p-id="9658"></path><path d="M566.3232 329.472h16.5376l-13.312 9.984 5.12 15.872-13.2608-9.7792-13.2608 9.7792 5.12-15.872-13.4656-9.984h16.5376l5.12-15.36z" fill="#FFFFFF" p-id="9659"></path><path d="M566.3232 442.0608h16.5376l-13.312 9.984 5.12 15.872-13.2608-9.7792-13.2608 9.7792 5.12-15.872-13.4656-9.984h16.5376l5.12-15.36z" fill="#FFFFFF" p-id="9660"></path><path d="M621.2608 159.488h16.5376l-13.312 10.24 5.12 15.8208-13.2608-9.7792-13.2608 9.7792 5.12-15.8208-13.4656-10.24h16.4864l5.12-15.36z" fill="#FFFFFF" p-id="9661"></path><path d="M621.2608 273.2032h16.5376l-13.312 10.24 5.12 15.8208-13.2608-9.7792-13.2608 9.7792 5.12-15.8208-13.4656-10.24h16.4864l5.12-15.36z" fill="#FFFFFF" p-id="9662"></path><path d="M621.2608 385.792h16.5376l-13.312 9.984 5.12 15.872-13.2608-9.7792-13.2608 9.7792 5.12-15.872-13.4656-9.984h16.4864l5.12-15.36z" fill="#FFFFFF" p-id="9663"></path></svg>