<?xml version="1.0" encoding="iso-8859-1"?>
<!-- Uploaded to: SVG Repo, www.svgrepo.com, Generator: SVG Repo Mixer Tools -->
<svg height="800px" width="800px" version="1.1" id="Layer_1" xmlns="http://www.w3.org/2000/svg" xmlns:xlink="http://www.w3.org/1999/xlink" 
	 viewBox="0 0 393.309 393.309" xml:space="preserve">
<circle style="fill:#F0582F;" cx="196.655" cy="196.655" r="196.655"/>
<path style="fill:#333842;" d="M287.095,18.23H106.214c-12.606,0-22.82,10.214-22.82,22.82h108.671v249.6h9.115v-249.6h108.671
	C309.786,28.444,299.636,18.23,287.095,18.23z"/>
<path style="fill:#E6BD20;" d="M337.067,307.588h-61.22V185.277h61.22c18.554,0,33.681,15.127,33.681,33.681v54.949
	C370.747,292.525,355.62,307.588,337.067,307.588z M294.077,289.487h42.99c8.469,0,15.451-6.982,15.451-15.451v-54.95
	c0-8.469-6.982-15.451-15.451-15.451h-42.99V289.487z"/>
<g>
	<path style="fill:#F1F3F7;" d="M111.451,127.547h-4.073c-12.347,0-22.432,10.02-22.432,22.432v31.224h48.937V149.98
		C133.818,137.632,123.798,127.547,111.451,127.547z"/>
	<path style="fill:#F1F3F7;" d="M181.075,169.438h-30.319c-1.745,0-3.556-0.517-5.042-1.552l-31.612-20.945
		c-4.202-2.78-5.301-8.404-2.521-12.606c2.78-4.202,8.404-5.301,12.606-2.521l29.285,19.394h27.604c5.042,0,9.115,4.073,9.115,9.115
		S186.053,169.438,181.075,169.438z"/>
	<path style="fill:#F1F3F7;" d="M174.933,279.273c-5.43,0-10.537-3.232-12.671-8.598l-21.398-52.881h-22.691
		c-7.564,0-13.705-6.077-13.705-13.705s6.077-13.705,13.705-13.705h31.935c5.56,0,10.602,3.426,12.671,8.598l24.824,61.414
		c2.844,7.046-0.517,14.998-7.564,17.778C178.36,278.949,176.614,279.273,174.933,279.273z"/>
	<circle style="fill:#F1F3F7;" cx="128.582" cy="100.396" r="21.527"/>
	<path style="fill:#F1F3F7;" d="M281.859,127.547h4.073c12.347,0,22.432,10.02,22.432,22.432v31.224h-48.937V149.98
		C259.491,137.632,269.511,127.547,281.859,127.547z"/>
	<path style="fill:#F1F3F7;" d="M212.234,169.438h30.319c1.745,0,3.556-0.517,5.042-1.552l31.612-20.945
		c4.202-2.78,5.301-8.404,2.521-12.606c-2.78-4.202-8.404-5.301-12.606-2.521l-29.285,19.394h-27.604
		c-5.042,0-9.115,4.073-9.115,9.115S207.257,169.438,212.234,169.438z"/>
	<path style="fill:#F1F3F7;" d="M218.376,279.273c5.43,0,10.537-3.232,12.671-8.598l21.398-52.881h22.691
		c7.564,0,13.705-6.077,13.705-13.705s-6.077-13.705-13.705-13.705H243.2c-5.56,0-10.602,3.426-12.671,8.598l-24.824,61.414
		c-2.844,7.046,0.517,14.998,7.564,17.778C214.949,278.949,216.695,279.273,218.376,279.273z"/>
	<circle style="fill:#F1F3F7;" cx="264.727" cy="100.396" r="21.527"/>
</g>
<path style="fill:#FBD303;" d="M309.851,168.404v133.624c0,15.515-6.788,29.414-17.584,38.853H101.042
	c-10.796-9.503-17.584-23.402-17.584-38.853V168.404h63.871v61.22c0,10.02,8.081,18.166,18.166,18.166h62.19
	c10.02,0,18.166-8.081,18.166-18.166v-61.285h64V168.404z"/>
<path style="fill:#29B36F;" d="M364.865,340.945H28.444c-9.438,0-17.067,7.628-17.067,17.067s7.628,17.067,17.067,17.067h336.549
	c9.438,0,17.067-7.628,17.067-17.067C381.931,348.574,374.303,340.945,364.865,340.945z"/>
</svg>