<?xml version="1.0" encoding="iso-8859-1"?>
<!-- Uploaded to: SVG Repo, www.svgrepo.com, Generator: SVG Repo Mixer Tools -->
<svg height="800px" width="800px" version="1.1" id="Layer_1" xmlns="http://www.w3.org/2000/svg" xmlns:xlink="http://www.w3.org/1999/xlink" 
	 viewBox="0 0 512 512" xml:space="preserve">
<path style="fill:#8E9A9B;" d="M434.087,501.148H66.783c-24.588,0-44.522-19.933-44.522-44.522V67.061
	c0-24.588,19.933-44.522,44.522-44.522h367.304c24.588,0,44.522,19.933,44.522,44.522v389.565
	C478.609,481.214,458.675,501.148,434.087,501.148z"/>
<path style="fill:#9FBA41;" d="M512,489.739c0,12.295-9.966,22.261-22.261,22.261H44.522C19.933,512,0,492.066,0,467.478V322.783
	c0-12.295,9.966-22.261,22.261-22.261H512V489.739z"/>
<path style="fill:#7F932A;" d="M289.391,409.322h-89.043c-4.61,0-8.348-3.738-8.348-8.348c0-4.61,3.738-8.348,8.348-8.348h89.043
	c4.61,0,8.348,3.738,8.348,8.348C297.739,405.584,294.002,409.322,289.391,409.322z M308.87,448.278h-44.522
	c-4.61,0-8.348,3.738-8.348,8.348s3.738,8.348,8.348,8.348h44.522c4.61,0,8.348-3.738,8.348-8.348S313.48,448.278,308.87,448.278z
	 M470.261,348.104h-44.522c-4.61,0-8.348,3.738-8.348,8.348s3.738,8.348,8.348,8.348h44.522c4.61,0,8.348-3.738,8.348-8.348
	S474.871,348.104,470.261,348.104z"/>
<path style="fill:#FF7039;" d="M366.32,193.172c0,97.387-78.948,176.335-176.335,176.335S13.65,290.559,13.65,193.172
	S92.599,16.837,189.985,16.837S366.32,95.785,366.32,193.172z"/>
<path style="fill:#FF8950;" d="M333.913,193.172c0,78.946-63.998,142.944-142.944,142.944S48.024,272.118,48.024,193.172
	S112.023,50.228,190.969,50.228S333.913,114.226,333.913,193.172z"/>
<path style="fill:#A9B9BB;" d="M309.977,195.78c0,66.27-53.722,119.991-119.991,119.991S69.995,262.049,69.995,195.78
	S123.717,75.789,189.985,75.789S309.977,129.512,309.977,195.78z"/>
<path style="fill:#C7D7D8;" d="M287.716,195.78c0,53.975-43.755,97.73-97.73,97.73s-97.73-43.755-97.73-97.73
	s43.755-97.73,97.73-97.73S287.716,141.806,287.716,195.78z"/>
<path style="fill:#A03D07;" d="M293.4,408.588c-1.111,0.5-2.273,0.736-3.417,0.736c-3.187,0-6.229-1.833-7.619-4.929
	l-83.639-186.126h-17.481L97.607,404.395c-1.889,4.205-6.83,6.083-11.036,4.193c-4.205-1.89-6.082-6.831-4.193-11.036
	l85.851-191.052c1.347-2.997,4.328-4.926,7.614-4.926h28.282c3.287,0,6.268,1.928,7.614,4.926l85.851,191.052
	C299.482,401.757,297.604,406.698,293.4,408.588z"/>
<path style="fill:#FF7039;" d="M221.115,195.78c0,17.192-13.936,31.128-31.128,31.128s-31.128-13.936-31.128-31.128
	s13.936-31.128,31.128-31.128S221.115,178.589,221.115,195.78z"/>
<path style="fill:#FF8950;" d="M209.985,195.78c0,11.045-8.953,19.998-19.998,19.998c-11.045,0-19.998-8.953-19.998-19.998
	s8.953-19.998,19.998-19.998C201.031,175.782,209.985,184.735,209.985,195.78z"/>
<path style="fill:#FFF145;" d="M210.637,13.511v2.065c0,11.405-9.246,20.65-20.65,20.65l0,0c-11.405,0-20.65-9.245-20.65-20.65
	v-2.065c0-5.702,4.622-10.326,10.326-10.326h20.65C206.013,3.187,210.637,7.809,210.637,13.511z M64.017,61.008h-20.65
	c-5.702,0-10.326,4.622-10.326,10.325v2.065c0,11.405,9.246,20.65,20.65,20.65l0,0c11.405,0,20.65-9.246,20.65-20.65v-2.065
	C74.342,65.631,69.72,61.008,64.017,61.008z M326.28,94.049c11.405,0,20.65-9.246,20.65-20.65v-2.065
	c0-5.702-4.622-10.325-10.326-10.325h-20.65c-5.702,0-10.326,4.622-10.326,10.325v2.065
	C305.629,84.803,314.874,94.049,326.28,94.049z M64.017,292.295h-20.65c-5.702,0-10.326,4.622-10.326,10.326v2.065
	c0,11.405,9.246,20.65,20.65,20.65l0,0c11.405,0,20.65-9.246,20.65-20.65v-2.065C74.342,296.918,69.72,292.295,64.017,292.295z
	 M336.604,292.295h-20.65c-5.702,0-10.326,4.622-10.326,10.326v2.065c0,11.405,9.246,20.65,20.65,20.65
	c11.405,0,20.65-9.246,20.65-20.65v-2.065C346.93,296.918,342.308,292.295,336.604,292.295z M41.302,189.042v-2.065
	c0-5.702-4.622-10.326-10.326-10.326h-20.65C4.624,176.651,0,181.274,0,186.977v2.065c0,11.405,9.246,20.65,20.65,20.65
	C32.056,209.693,41.302,200.447,41.302,189.042z M369.646,176.651h-20.65c-5.702,0-10.326,4.622-10.326,10.326v2.065
	c0,11.405,9.246,20.65,20.65,20.65s20.65-9.246,20.65-20.65v-2.065C379.971,181.275,375.348,176.651,369.646,176.651z"/>
<path style="fill:#606D11;" d="M233.739,473.043L233.739,473.043c0,21.515-17.441,38.957-38.957,38.957H44.522
	C19.933,512,0,492.066,0,467.478v-44.522c0-30.736,24.917-55.652,55.652-55.652l0,0c19.784,0,37.146,10.333,47.014,25.887
	c6.145-2.336,12.804-3.626,19.769-3.626l0,0c26.923,0,49.38,19.12,54.537,44.522h17.811
	C216.298,434.087,233.739,451.528,233.739,473.043z"/>
<path style="fill:#7F932A;" d="M129.811,512H44.522C19.933,512,0,492.066,0,467.478v-44.522c0-6.122,4.638-11.13,22.261-11.13l0,0
	c26.923,0,49.38,19.12,54.537,44.522h17.811c21.515,0,38.957,17.441,38.957,38.957l0,0C133.565,501.28,132.216,506.939,129.811,512z
	"/>
<path style="fill:#A03D07;" d="M478.609,16.974V300.8h-33.391V16.974c0-9.22,7.475-16.696,16.696-16.696l0,0
	C471.133,0.278,478.609,7.753,478.609,16.974z"/>
<path style="fill:#FF7039;" d="M500.87,67.061h-77.913c-6.147,0-11.13-4.983-11.13-11.13l0,0c0-12.295,9.966-22.261,22.261-22.261
	h55.652C502.034,33.67,512,43.636,512,55.93l0,0C512,62.078,507.017,67.061,500.87,67.061z"/>
<path style="fill:#7F932A;" d="M512,300.8c0,4.61-3.738,8.348-8.348,8.348H381.217c-4.61,0-8.348-3.738-8.348-8.348
	s3.738-8.348,8.348-8.348h122.435C508.262,292.452,512,296.19,512,300.8z"/>
<path style="fill:#FF8950;" d="M370.905,389.287h81.842c17.129,0,34.146,2.761,50.396,8.178l8.857,2.953V500.87
	c0,6.147-4.983,11.13-11.13,11.13H322.783c-6.147,0-11.13-4.983-11.13-11.13V400.417l8.856-2.952
	C336.759,392.048,353.776,389.287,370.905,389.287z"/>
<path style="fill:#FF7039;" d="M411.826,400.696H512V500.87c0,6.147-4.983,11.13-11.13,11.13h-89.043V400.696z"/>
<path style="fill:#A03D07;" d="M411.826,434.087V512h-66.783L411.826,434.087z"/>
<path style="fill:#FF8950;" d="M425.246,337.972L425.246,337.972c24.173,26.859,53.733,48.326,86.754,63.002l0,0H311.652l0,0
	c33.021-14.675,62.58-36.143,86.754-63.002l0,0C405.579,330.003,418.074,330.003,425.246,337.972z"/>
<path style="fill:#FFA47B;" d="M411.826,400.974H311.652l0,0c33.021-14.675,62.58-36.143,86.754-63.002l0,0
	c3.586-3.985,8.504-5.977,13.42-5.977V400.974z"/>
<path style="fill:#FFED8F;" d="M16.696,8.348v1.113c0,4.61-3.738,8.348-8.348,8.348S0,14.071,0,9.461V8.348C0,3.738,3.738,0,8.348,0
	S16.696,3.738,16.696,8.348z M8.348,338.922c-4.61,0-8.348,3.738-8.348,8.348v1.113c0,4.61,3.738,8.348,8.348,8.348
	s8.348-3.738,8.348-8.348v-1.113C16.696,342.659,12.958,338.922,8.348,338.922z M86.261,16.139c-4.61,0-8.348,3.738-8.348,8.348
	V25.6c0,4.61,3.738,8.348,8.348,8.348s8.348-3.738,8.348-8.348v-1.113C94.609,19.877,90.871,16.139,86.261,16.139z M364.522,17.252
	c-4.61,0-8.348,3.738-8.348,8.348v1.113c0,4.61,3.738,8.348,8.348,8.348s8.348-3.738,8.348-8.348V25.6
	C372.87,20.99,369.132,17.252,364.522,17.252z M261.565,138.017v-1.113c0-4.61-3.738-8.348-8.348-8.348
	c-4.61,0-8.348,3.738-8.348,8.348v1.113c0,4.61,3.738,8.348,8.348,8.348C257.828,146.365,261.565,142.628,261.565,138.017z
	 M264.348,195.339c-4.61,0-8.348,3.738-8.348,8.348v1.113c0,4.61,3.738,8.348,8.348,8.348s8.348-3.738,8.348-8.348v-1.113
	C272.696,199.077,268.958,195.339,264.348,195.339z M119.652,173.078c-4.61,0-8.348,3.738-8.348,8.348v1.113
	c0,4.61,3.738,8.348,8.348,8.348s8.348-3.738,8.348-8.348v-1.113C128,176.816,124.262,173.078,119.652,173.078z M409.043,139.687
	c-4.61,0-8.348,3.738-8.348,8.348v1.113c0,4.61,3.738,8.348,8.348,8.348s8.348-3.738,8.348-8.348v-1.113
	C417.391,143.425,413.654,139.687,409.043,139.687z M397.913,238.748c-4.61,0-8.348,3.738-8.348,8.348v1.113
	c0,4.61,3.738,8.348,8.348,8.348s8.348-3.738,8.348-8.348v-1.113C406.261,242.485,402.523,238.748,397.913,238.748z
	 M503.652,184.209c-4.61,0-8.348,3.738-8.348,8.348v1.113c0,4.61,3.738,8.348,8.348,8.348S512,198.28,512,193.67v-1.113
	C512,187.946,508.262,184.209,503.652,184.209z"/>
</svg>