<!DOCTYPE svg PUBLIC "-//W3C//DTD SVG 1.1//EN" "http://www.w3.org/Graphics/SVG/1.1/DTD/svg11.dtd">
<!-- Uploaded to: SVG Repo, www.svgrepo.com, Transformed by: SVG Repo Mixer Tools -->
<svg fill="#ead02a" height="800px" width="800px" version="1.1" id="Capa_1" xmlns="http://www.w3.org/2000/svg" xmlns:xlink="http://www.w3.org/1999/xlink" viewBox="0 0 451.731 451.731" xml:space="preserve" stroke="#ead02a">
<g id="SVGRepo_bgCarrier" stroke-width="0"/>
<g id="SVGRepo_tracerCarrier" stroke-linecap="round" stroke-linejoin="round"/>
<g id="SVGRepo_iconCarrier"> <g id="XMLID_7_"> <path id="XMLID_16_" d="M439.231,312.733h-94.284v72.303h18.279v7.325c0,4.476,3.628,8.104,8.104,8.104h40.652 c4.476,0,8.104-3.628,8.104-8.104v-7.325h19.145c6.903,0,12.5-5.597,12.5-12.5v-47.303 C451.731,318.329,446.135,312.733,439.231,312.733z"/> <circle id="XMLID_818_" cx="155.67" cy="98.899" r="35.547"/> <path id="XMLID_819_" d="M308.514,273.321c-2.725-0.558-1.778-0.418-30.193-0.418c3.57,6.039,5.627,13.073,5.627,20.582v102.167 c0,12.325,9.786,20.582,20.418,20.582c11.367,0,20.582-9.215,20.582-20.582V293.484 C324.948,283.543,317.898,275.241,308.514,273.321z"/> <path id="XMLID_825_" d="M243.366,272.902c-2.896,0-64.859-0.002-66.59,0.005l64.458-15.514l-24.499-99.618l69.941-94.951 c5.618-7.626,3.989-18.364-3.638-23.981c-7.626-5.618-18.364-3.989-23.981,3.638l-70.695,95.976 c-1.001,0.2-43.103,10.432-45.597,11.398L56.102,61.631c-6.638-6.756-17.498-6.854-24.255-0.216 c-6.757,6.638-6.854,17.498-0.216,24.255l98.469,100.242c2.636,10.719,23.207,94.365,26.231,106.661 c-0.013,0.304,2.87,13.019,7.444,16.794c1.673,1.381,3.577,2.484,5.632,3.284c-12.598,0-20.586,0-33.207,0v0.082H12.5 c-6.903,0-12.5,5.597-12.5,12.5v47.303c0,6.903,5.597,12.5,12.5,12.5h21.786v7.325c0,4.476,3.628,8.104,8.104,8.104h40.652 c4.476,0,8.104-3.628,8.104-8.104v-7.325h111.638v-40.468h0.082v-30.501h19.918v81.584c0,11.367,9.215,20.582,20.582,20.582 s20.582-9.215,20.582-20.582V293.484C263.948,282.117,254.733,272.902,243.366,272.902z"/> </g> </g>
</svg>