<?xml version="1.0" encoding="iso-8859-1"?>
<!-- Uploaded to: SVG Repo, www.svgrepo.com, Generator: SVG Repo Mixer Tools -->
<svg height="800px" width="800px" version="1.1" id="Layer_1" xmlns="http://www.w3.org/2000/svg" xmlns:xlink="http://www.w3.org/1999/xlink" 
	 viewBox="0 0 512 512" xml:space="preserve">
<path style="fill:#97BAA8;" d="M451.352,174.278V512H60.641V174.278H451.352z"/>
<path style="fill:#B1D7C5;" d="M451.356,174.278V512H316.644V174.278H451.356z"/>
<path style="fill:#FF4328;" d="M506.157,188.117v13.716c0,14.437-11.51,26.457-25.946,26.6c-0.108,0.001-0.217,0.001-0.326,0.001
	c-16.145,0-29.502-11.79-31.77-27.148h-0.509c-2.273,15.358-15.625,27.148-31.775,27.148c-16.139,0-29.5-11.79-31.764-27.148h-0.287
	c-2.267,15.358-15.628,27.148-31.77,27.148c-16.145,0-29.502-11.79-31.772-27.148h-0.503c-2.27,15.358-15.628,27.148-31.772,27.148
	c-16.141,0-29.502-11.79-31.77-27.148h-0.39c-2.273,15.358-15.63,27.148-31.772,27.148s-29.506-11.79-31.777-27.148h-0.498
	c-2.269,15.358-15.633,27.148-31.775,27.148c-16.139,0-29.502-11.79-31.772-27.148h-0.276c-2.27,15.358-15.633,27.148-31.777,27.148
	c-16.141,0-29.5-11.79-31.77-27.148h-0.503c-2.273,15.358-15.63,27.148-31.772,27.148c-0.041,0-0.082,0-0.125,0
	c-14.381-0.055-26.145-12.079-26.145-26.46v-13.921c0-3.564,0.707-7.092,2.081-10.38l43.49-104.106h143.844h122.75h142.224
	l43.844,104.237C505.449,181.068,506.157,184.574,506.157,188.117z"/>
<path style="fill:#981700;" d="M256,73.567v127.72h-0.195c-2.273,15.358-15.63,27.148-31.772,27.148s-29.506-11.79-31.777-27.148
	h-0.498c-2.27,15.358-15.633,27.148-31.775,27.148c-16.139,0-29.502-11.79-31.772-27.148h-0.276
	c-2.27,15.358-15.633,27.148-31.777,27.148c-16.141,0-29.5-11.79-31.77-27.148h-0.503c-2.273,15.358-15.63,27.148-31.772,27.148
	c-0.109,0-0.217,0-0.325-0.001c-14.436-0.144-25.945-12.162-25.945-26.598v-13.848c0-3.519,0.699-7.004,2.056-10.252L51.415,73.567
	h143.844H256z"/>
<path style="fill:#415E5C;" d="M371.594,381.181v16.608c0,4.907-3.987,8.887-8.904,8.887s-8.904-3.978-8.904-8.887v-16.608
	c0-4.907,3.987-8.887,8.904-8.887S371.594,376.272,371.594,381.181z"/>
<path style="fill:#663310;" d="M506.435,503.114c0,4.907-3.987,8.887-8.904,8.887H14.47c-4.917,0-8.904-3.978-8.904-8.887
	s3.987-8.887,8.904-8.887h483.061C502.448,494.228,506.435,498.206,506.435,503.114z"/>
<path style="fill:#CF8F3D;" d="M251.322,387.128c-1.222,16.234-10.238,29.411-24.577,29.411h-46.927h-46.927
	c-14.339,0-23.355-13.177-24.577-29.411c-2.158-28.661,21.264-52.851,50.065-52.851h21.439h21.439
	C230.057,334.277,253.479,358.468,251.322,387.128z"/>
<path style="fill:#B76700;" d="M248.431,366.708c2.361,6.318,3.433,13.227,2.891,20.42c-1.222,16.234-10.238,29.411-24.577,29.411
	h-46.927h-46.927c-14.339,0-23.355-13.177-24.577-29.411c-0.542-7.192,0.53-14.102,2.891-20.42
	c3.907,9.771,11.434,16.508,21.687,16.508h46.927h46.927C236.996,383.216,244.525,376.48,248.431,366.708z"/>
<path style="fill:#FFBB5E;" d="M166.475,329.896c-3.601,11.265-5.427,18.016-1.114,25.77c2.387,4.291,0.836,9.7-3.464,12.082
	c-1.368,0.758-2.852,1.119-4.313,1.119c-3.131,0-6.167-1.651-7.794-4.576c-8.255-14.844-4.019-28.1-0.282-39.795
	c3.548-11.103,6.613-20.691,0.24-32.412c-2.345-4.314-0.742-9.708,3.58-12.049c4.324-2.34,9.728-0.741,12.073,3.573
	C175.395,301.987,170.448,317.461,166.475,329.896z M209.806,329.676c3.974-12.434,8.919-27.91-1.072-46.287
	c-2.344-4.314-7.749-5.912-12.073-3.573c-4.322,2.34-5.926,7.735-3.581,12.049c6.371,11.719,3.307,21.309-0.242,32.413
	c-3.736,11.696-7.974,24.953,0.283,39.796c1.626,2.925,4.663,4.575,7.794,4.575c1.461,0,2.945-0.361,4.313-1.119
	c4.3-2.382,5.851-7.791,3.464-12.082C204.379,347.694,206.206,340.942,209.806,329.676z"/>
<path style="fill:#CF8F3D;" d="M311.652,78.8c0,30.673-24.917,55.539-55.652,55.539s-55.652-24.865-55.652-55.539
	S225.265,23.262,256,23.262S311.652,48.127,311.652,78.8z"/>
<path style="fill:#B76700;" d="M289.391,78.8c0,18.404-14.949,33.323-33.391,33.323S222.609,97.205,222.609,78.8
	S237.558,45.477,256,45.477S289.391,60.397,289.391,78.8z"/>
<path style="fill:#FFBB5E;" d="M263.196,76.709c2.386,4.291,0.835,9.7-3.465,12.082c-1.368,0.758-2.852,1.117-4.313,1.117
	c-3.131,0-6.167-1.651-7.794-4.576c-8.253-14.842-4.018-28.098-0.28-39.794c3.548-11.104,6.611-20.693,0.239-32.413
	c-2.345-4.314-0.742-9.708,3.58-12.049c4.324-2.342,9.728-0.74,12.073,3.572c9.993,18.377,5.048,33.853,1.074,46.288
	C260.711,62.204,258.884,68.956,263.196,76.709z"/>
</svg>