<!DOCTYPE svg PUBLIC "-//W3C//DTD SVG 1.1//EN" "http://www.w3.org/Graphics/SVG/1.1/DTD/svg11.dtd">
<!-- Uploaded to: SVG Repo, www.svgrepo.com, Transformed by: SVG Repo Mixer Tools -->
<svg fill="#fbff00" height="800px" width="800px" version="1.1" id="Layer_1" xmlns="http://www.w3.org/2000/svg" xmlns:xlink="http://www.w3.org/1999/xlink" viewBox="0 0 100 100" enable-background="new 0 0 100 100" xml:space="preserve">
<g id="SVGRepo_bgCarrier" stroke-width="0"/>
<g id="SVGRepo_tracerCarrier" stroke-linecap="round" stroke-linejoin="round"/>
<g id="SVGRepo_iconCarrier"> <path d="M45,93.3c0,2.8,2.2,5,5,5s5-2.2,5-5V77.1H45V93.3z M50,1.7c-10.6,0-19.3,8.7-19.3,19.3v51.3h38.6V21 C69.3,10.4,60.6,1.7,50,1.7z M43.9,61.9c0,0.6-0.4,1-1,1s-1-0.4-1-1V19.5c0-0.6,0.4-1,1-1s1,0.4,1,1V61.9z M58.1,61.9 c0,0.6-0.4,1-1,1s-1-0.4-1-1V19.5c0-0.6,0.4-1,1-1s1,0.4,1,1V61.9z"/> </g>
</svg>