<svg id="Слой_1" data-name="Слой 1" xmlns="http://www.w3.org/2000/svg" viewBox="0 0 1368.88 1011.06"><defs><style>.cls-1,.cls-3{fill:#fff;}.cls-2{fill:#c1272d;}.cls-3{stroke:#fff;stroke-miterlimit:10;}</style></defs><path d="M593.32,590.45c79.23-81.87,60-262.31,208.64-356.54C966.3,129.75,1169.23,340.19,1146,401c0,0,102.3,86.45,165.68,102.3C1421,508,1361.77,668,1338,697c0,17-44.14,61.44-62,65-56.22,11.21-156.9-30.11-201,20l-21.55,72.15L593.32,590.45" transform="translate(-504.84 -45.08)"/><path d="M930.05,266.92c-73.45-20.77-99.5-156-140-221.84,0,0-137.34,171.66-34.34,322.2" transform="translate(-504.84 -45.08)"/><path class="cls-1" d="M1082,440.33c-4.63,20.63-22.79,23.31-43.43,18.69s-35.93-14.79-31.31-35.43,24.66-25.6,45.29-21S1086.64,419.69,1082,440.33Z" transform="translate(-504.84 -45.08)"/><path class="cls-2" d="M609.75,569.83s263.58,180.83,464.93,214.95c0,0-31.48,93.39-32.59,124.5C829.13,844.86,646.31,759,504.84,644.59,504.84,644.59,580,616.56,609.75,569.83Z" transform="translate(-504.84 -45.08)"/><path d="M880.82,134.11s50.23-64.19,89.85-80C961,113,972,201,1023.56,244.09c0,0-172.56,24.91-185.56-2.09S880.82,134.11,880.82,134.11Z" transform="translate(-504.84 -45.08)"/><path class="cls-1" d="M776.05,296.3a175.75,175.75,0,0,1-8.21-22.2c-2.24-7.58-4.17-15.27-5.65-23.06a217.6,217.6,0,0,1-3.93-47.5,182.8,182.8,0,0,1,2.24-23.89l.45-3,.58-3c.41-2,.74-3.95,1.2-5.9l1.46-5.85c.23-1,.51-1.94.81-2.9l.88-2.89c1.08-3.88,2.55-7.63,3.91-11.42l2.34-5.57,1.18-2.78,1.33-2.72c.89-1.8,1.75-3.62,2.66-5.42l3-5.26c.5-.88,1-1.76,1.5-2.63l1.63-2.54,3.27-5.09,4.84-7.53,2.27,8.78c1.54,6,3.27,12,5.09,18s3.72,11.92,5.76,17.82,4.14,11.79,6.39,17.6,4.61,11.6,7.18,17.28c1.27,2.84,2.61,5.65,4,8.44s2.77,5.57,4.27,8.3a154.16,154.16,0,0,0,9.82,15.79,75.66,75.66,0,0,0,12.42,13.71c4.73,3.92,10.32,7,16.61,7.92A27.78,27.78,0,0,1,856,237a39.48,39.48,0,0,1-8.49-4.5,72,72,0,0,1-14-13.1,133.94,133.94,0,0,1-11.18-15.56c-3.39-5.4-6.5-11-9.35-16.66s-5.55-11.44-8.08-17.26-4.85-11.74-7.08-17.68c-4.4-11.92-8.33-23.92-11.67-36.28l7.11,1.25-3.09,4.85-1.54,2.42c-.49.83-.94,1.67-1.42,2.51l-2.8,5-2.56,5.15-1.27,2.58-1.14,2.64-2.25,5.29c-1.28,3.61-2.77,7.15-3.85,10.85a175.76,175.76,0,0,0-5.61,22.36,190,190,0,0,0-2.82,23,204.68,204.68,0,0,0-.37,23.24c.28,7.77.85,15.54,1.84,23.28s2.22,15.46,3.84,23.12c.79,3.84,1.66,7.66,2.65,11.46S774.84,292.55,776.05,296.3Z" transform="translate(-504.84 -45.08)"/><path class="cls-3" d="M1324.5,514.5s1,16.92,18.94,20.64,13.31-5.41,6.66-12.52S1324.5,514.5,1324.5,514.5Z" transform="translate(-504.84 -45.08)"/><path class="cls-1" d="M1375.94,589.71,1343,622l-43-32-41,16-36-41-58,41,33,73,45-32,37,55,37-39,26,39S1373.88,685.41,1375.94,589.71Z" transform="translate(-504.84 -45.08)"/><path d="M1409,533q15.24-22.61,30.9-44.89l15.66-22.29,15.8-22.18q31.56-44.4,63.91-88.2l9.63-13.12,1,16.37,1.77,28.48,1.67,28.5,1.59,28.49,1.52,28.5-10.71-4.56q29.54-25.47,59.26-50.71t59.69-50.19q30-25,60.26-49.55c20.23-16.35,40.45-32.7,61-48.65-18.76,18.05-37.86,35.7-57,53.35s-38.39,35.09-57.74,52.45-38.78,34.65-58.31,51.81-39.09,34.27-58.74,51.29l-10,8.69-.68-13.25-1.48-28.5-1.41-28.51-1.33-28.5-1.23-28.52,10.65,3.25q-33.26,43.11-67.09,85.8l-17,21.32-17.1,21.21Q1426.46,512.07,1409,533Z" transform="translate(-504.84 -45.08)"/><path d="M1416.92,646.94q25.75-8.94,51.65-17.38l25.9-8.45,26-8.27c34.59-11.06,69.29-21.72,104-32.24l15.57-4.72-9,13.71-15.67,23.85-15.75,23.8L1583.79,661l-15.88,23.71-5.83-10.07q38.89-2.67,77.82-5t77.88-4.35c26-1.33,51.94-2.44,77.93-3.51s52-1.9,78-2.32c-25.83,3.2-51.71,5.86-77.58,8.52s-51.77,5-77.66,7.33-51.81,4.47-77.73,6.48-51.84,4-77.77,5.81l-13.23.94,7.39-11,15.92-23.69,16-23.65,16-23.61L1621.19,583l6.57,9c-35,9.69-70,19.25-105.15,28.41l-26.35,6.89-26.4,6.71Q1443.45,640.67,1416.92,646.94Z" transform="translate(-504.84 -45.08)"/><path d="M1383.46,734q24.88,11.13,49.53,22.73l24.65,11.59,24.57,11.76c32.77,15.65,65.35,31.67,97.86,47.81l14.58,7.24-16,3.81-27.76,6.64-27.78,6.54-27.8,6.46L1467.55,865l2.65-11.33q30.16,24.72,60.13,49.66t59.7,50.19q29.73,25.25,59.16,50.85c19.58,17.12,39.17,34.24,58.41,51.77-21-15.37-41.67-31.17-62.34-47s-41.16-31.79-61.59-47.88-40.8-32.24-61.05-48.53-40.48-32.63-60.62-49.07l-10.28-8.38,12.93-2.95,27.82-6.36,27.84-6.28,27.86-6.2,27.88-6.11-1.37,11.05q-48.2-25.37-96-51.36l-23.91-13-23.83-13.21Q1407.09,747.63,1383.46,734Z" transform="translate(-504.84 -45.08)"/></svg>