<svg version="1.1" id="Layer_1" xmlns="http://www.w3.org/2000/svg" xmlns:xlink="http://www.w3.org/1999/xlink" x="0px" y="0px"
	 width="100%" viewBox="0 0 608 480" enable-background="new 0 0 608 480" xml:space="preserve">
<path fill="#000000" opacity="1.000000" stroke="none" 
	d="
M169.163956,327.632874 
	C175.202438,329.673004 177.109558,331.268799 180.198456,336.651703 
	C179.399078,338.499451 177.700760,337.977753 176.313843,337.981995 
	C164.648117,338.017822 152.981522,337.916473 141.316650,338.019257 
	C136.921478,338.057953 135.803680,336.487976 137.082687,332.228180 
	C139.280869,324.907074 141.092117,317.466064 142.934525,310.042847 
	C144.956665,301.895447 149.595337,294.843353 154.676773,288.773865 
	C163.445450,278.300201 161.321548,267.239655 159.411606,255.767456 
	C159.000549,253.298416 157.121323,252.273972 155.051163,251.406494 
	C150.443069,249.475494 145.855728,247.494919 141.263428,245.526398 
	C139.870499,244.929306 138.131332,244.286194 138.101395,242.646469 
	C137.957382,234.762787 138.036636,226.875015 138.036636,218.055679 
	C144.569519,221.484802 149.144775,225.833481 154.154709,229.518600 
	C159.520782,233.465683 164.762100,237.589005 169.946213,241.773743 
	C172.163132,243.563324 174.138245,243.795364 176.770615,242.559799 
	C211.300888,226.352188 245.852798,210.190018 280.470978,194.171310 
	C283.851227,192.607193 285.142120,190.243027 285.597321,186.924576 
	C286.748291,178.533661 288.327789,170.176285 288.952911,161.747421 
	C289.365875,156.179153 288.740417,150.468933 288.010986,144.896729 
	C287.020813,137.332855 287.565826,130.370575 293.582581,124.033485 
	C296.257233,129.385071 297.853760,134.721344 299.307098,140.057785 
	C300.278625,143.625137 301.923492,144.798660 305.354431,143.193344 
	C306.248932,142.774811 307.242950,142.480347 308.221283,142.343079 
	C318.847809,140.851852 326.219513,135.901733 328.444122,124.608818 
	C329.328613,120.118721 333.923584,119.953720 337.887909,118.446144 
	C338.613312,123.560783 336.569672,127.895432 336.087158,132.392517 
	C335.723236,135.784317 333.240936,139.446121 335.267456,142.486816 
	C338.670044,147.592270 343.060394,152.024246 347.745331,156.047592 
	C349.384033,157.454849 351.256836,156.234024 352.966888,155.692551 
	C369.946655,150.315933 386.998535,145.149765 403.851959,139.401901 
	C409.028473,137.636475 413.315308,137.937531 418.154846,140.151245 
	C429.263306,145.232452 429.381042,145.064285 427.427856,157.098770 
	C425.431641,169.398590 423.232147,181.666931 421.388611,193.988998 
	C420.918915,197.128189 419.360321,197.727386 416.710876,197.751709 
	C396.883057,197.933731 377.055969,198.188934 357.228180,198.375900 
	C348.624359,198.457031 348.624512,198.408661 345.938690,206.658035 
	C342.810303,216.266846 339.680634,225.875259 336.253113,236.400116 
	C350.144501,236.941315 363.162170,237.448486 377.247467,237.997238 
	C374.439575,245.865341 371.620361,253.030518 368.049774,259.879181 
	C367.113647,261.674835 365.087402,260.707977 363.461578,260.616577 
	C349.337585,259.822296 335.210236,259.088470 321.085724,258.303528 
	C318.208771,258.143646 315.908478,258.454010 315.025116,261.922302 
	C310.088135,281.306122 299.796539,298.423553 291.763672,316.499115 
	C291.099457,317.993805 289.984161,319.349457 290.129150,321.193329 
	C291.667206,323.071350 294.003387,323.647705 296.051575,324.701874 
	C297.678833,325.539368 299.519470,326.125671 300.883972,327.275909 
	C303.631683,329.592072 304.644623,333.098083 303.913910,336.278442 
	C303.270355,339.079468 299.955048,338.017853 297.775238,338.028229 
	C281.610016,338.105164 265.444183,338.075653 249.278595,338.049072 
	C243.099686,338.038910 242.833038,337.609680 244.344330,331.838593 
	C247.497849,319.796478 250.585922,307.737213 253.813660,295.248627 
	C246.835388,294.541138 240.522949,296.105621 234.177429,296.536194 
	C226.561661,297.052917 218.996033,298.292694 211.403809,299.177490 
	C204.808456,299.946075 200.782913,304.296783 201.302048,311.074219 
	C201.943832,319.453094 201.987427,328.179596 209.203796,334.406860 
	C209.684555,334.821716 209.987488,335.478516 210.268066,336.072418 
	C210.385712,336.321442 210.229263,336.699951 210.114670,337.850616 
	C202.157913,337.850616 194.099091,337.969086 186.047455,337.780823 
	C183.521027,337.721771 183.588257,335.468231 183.865524,333.582031 
	C184.445129,329.639374 184.678558,325.577759 185.833908,321.803680 
	C187.577530,316.108093 185.553207,310.958130 184.432220,305.646484 
	C184.129333,304.211395 183.572250,302.861084 181.766327,302.387421 
	C176.597870,301.031921 163.832382,305.401978 161.092300,309.906128 
	C158.882156,313.539246 160.036240,317.739471 160.164932,321.654297 
	C160.345825,327.157379 165.783966,325.730011 169.163956,327.632874 
M320.512634,165.273849 
	C315.807678,164.177170 311.102753,163.080490 305.331390,161.735245 
	C309.166504,165.014832 314.930023,166.344681 309.329590,173.046188 
	C312.610565,171.452621 314.733032,170.811737 316.345093,169.529312 
	C317.964111,168.241318 321.218140,168.710281 320.512634,165.273849 
M267.275696,321.907776 
	C268.867065,323.061768 270.128113,323.577057 270.799164,320.912903 
	C272.390106,314.596985 274.146301,308.322662 275.835693,302.031525 
	C273.330444,305.480103 271.287079,309.064117 269.722961,312.846283 
	C268.571838,315.629791 265.869843,317.957428 267.275696,321.907776 
z"/>
<path fill="#000000" opacity="1.000000" stroke="none" 
	d="
M468.567230,243.599365 
	C472.132812,248.701340 467.506134,251.887085 466.935425,255.965240 
	C463.111450,255.703369 461.425659,253.157181 459.408600,251.342529 
	C456.842041,249.033493 454.569183,248.405121 451.459412,250.404160 
	C448.678864,252.191513 445.474792,253.305191 442.576447,254.928406 
	C439.917297,256.417664 438.364441,255.769897 437.063690,253.093857 
	C435.030304,248.910614 432.412964,244.985626 430.660309,240.698837 
	C428.981659,236.593002 426.692139,235.008942 422.332611,236.336731 
	C420.425079,236.917709 417.825958,238.084229 416.963684,234.887024 
	C416.151917,231.876999 418.875488,231.405975 420.742432,230.560059 
	C432.791565,225.100510 430.313080,224.768936 437.349091,235.073135 
	C443.220154,243.671356 443.127930,243.804672 452.460846,239.833237 
	C455.239105,238.651016 457.739899,238.299561 460.522064,239.891632 
	C462.960876,241.287247 465.650940,242.243744 468.567230,243.599365 
z"/>
<path fill="#000000" opacity="1.000000" stroke="none" 
	d="
M457.065918,194.998245 
	C461.130005,186.677124 468.981445,189.410324 475.292297,188.149918 
	C477.117218,187.785431 477.673645,189.794052 477.841248,191.253494 
	C478.175323,194.162689 478.256989,197.100876 478.438568,199.958344 
	C474.688599,201.308578 471.745392,199.446899 468.696411,199.121704 
	C465.972992,198.831207 464.341522,199.462463 462.876251,201.639191 
	C460.744965,204.805267 458.342529,207.787994 456.185669,210.937881 
	C454.532684,213.351990 452.814026,213.764053 450.406433,211.933014 
	C446.970551,209.319901 443.213287,207.103058 439.937317,204.313034 
	C436.353485,201.260849 433.387695,201.329849 430.071899,204.629425 
	C428.705170,205.989441 426.977875,208.354919 424.635254,206.037155 
	C422.333740,203.760071 424.559113,202.119263 425.900818,200.563812 
	C435.496674,189.439072 431.399780,189.976120 444.645813,197.174194 
	C451.756866,201.038467 451.699310,201.144409 457.065918,194.998245 
z"/>
<path fill="#000000" opacity="1.000000" stroke="none" 
	d="
M421.024048,296.816833 
	C416.825409,294.354919 414.051147,290.774628 410.992249,287.524994 
	C408.690643,285.079865 409.867920,281.799530 409.630280,278.887695 
	C408.966187,270.750702 409.014709,270.746735 401.438110,269.355408 
	C388.140076,266.913361 388.147705,266.913422 388.269012,253.083740 
	C388.282806,251.508408 388.284302,249.944122 390.326660,249.732971 
	C392.213104,249.537949 392.765625,250.850204 393.308289,252.403641 
	C396.060547,260.282104 396.101715,260.231598 404.466919,260.745239 
	C406.613342,260.877045 408.732666,261.406128 410.878052,261.607147 
	C418.173553,262.290833 418.175934,262.265991 418.125366,269.393219 
	C418.123016,269.725769 418.153778,270.063812 418.105530,270.389923 
	C416.978302,278.012695 418.351715,284.239319 426.973145,286.527802 
	C427.561005,286.683838 428.055542,287.274170 428.533234,287.726135 
	C428.755219,287.936157 428.832703,288.298889 429.093262,288.833679 
	C427.188263,292.031097 424.601013,294.725555 421.024048,296.816833 
z"/>
</svg>