<svg version="1.1" id="Layer_1" xmlns="http://www.w3.org/2000/svg" xmlns:xlink="http://www.w3.org/1999/xlink" x="0px" y="0px"
	 width="100%" viewBox="0 0 512 512" enable-background="new 0 0 512 512" xml:space="preserve">
<path fill="#000000" opacity="1.000000" stroke="none" 
	d="
M513.000000,222.000000 
	C513.000000,318.956085 513.000000,415.912140 513.000000,512.934082 
	C342.454529,512.934082 171.909058,512.934082 1.000000,512.934082 
	C1.000000,461.311890 1.000000,409.622925 1.293390,357.173828 
	C7.066728,364.017120 12.151561,371.948395 18.122391,379.144531 
	C26.376139,389.092041 35.297306,398.485779 44.070824,408.419434 
	C63.066944,428.265961 84.052856,445.116699 107.020477,459.661011 
	C130.866486,474.761536 156.201019,486.516815 182.903900,495.435577 
	C194.635437,499.353912 204.568634,496.590363 209.546646,487.706390 
	C211.559647,484.113922 212.693390,479.883545 213.523819,475.800415 
	C216.208633,462.599762 218.566864,449.332672 221.461884,436.050659 
	C228.343399,435.960449 230.318085,433.904663 231.054916,427.432251 
	C231.786957,421.001648 232.765244,414.584839 233.974747,408.226501 
	C235.491089,400.255035 233.166412,395.111847 227.045227,393.466492 
	C227.009918,392.033508 226.883469,391.016327 227.025528,390.038177 
	C228.991211,376.502258 231.093994,362.985504 232.958542,349.435913 
	C234.762360,336.327667 238.078644,323.646179 244.098785,311.865814 
	C250.045242,300.229645 258.602417,291.252045 271.482422,286.951599 
	C282.931183,283.128998 294.204407,283.999329 305.301666,287.776367 
	C318.918060,292.410797 332.270264,297.829376 345.920990,302.352722 
	C357.883698,306.316742 368.573364,304.235291 377.871704,294.824646 
	C386.062775,286.534607 392.161133,277.085785 397.095856,266.669525 
	C401.387451,257.610809 398.240540,250.281677 388.726959,248.037781 
	C372.956085,244.318085 357.167419,240.673935 341.392334,236.972046 
	C334.454773,235.344055 327.513397,233.725464 320.611664,231.954834 
	C317.711182,231.210709 315.052429,230.181808 314.926910,226.260849 
	C314.810608,222.627975 316.778656,221.368286 319.774353,220.593292 
	C322.748993,219.823730 325.675323,218.866943 328.621826,217.988907 
	C350.277679,211.535553 371.406433,203.865417 390.219849,190.953339 
	C399.958740,184.269302 407.290619,175.690018 409.908264,163.891937 
	C412.116455,153.939514 411.102509,143.995468 408.786072,133.763504 
	C408.511871,132.775726 408.265594,132.177765 408.033539,131.574356 
	C405.388458,124.696083 402.745514,117.816994 400.045715,110.589470 
	C396.218170,102.742737 383.311676,101.261940 377.562134,104.219437 
	C369.240845,108.499794 360.999146,112.934868 352.360321,117.222092 
	C341.042389,120.815521 330.056915,123.362488 318.228790,122.160797 
	C307.687683,121.089859 298.517700,117.534805 289.896881,111.568230 
	C284.609680,107.908882 279.022308,104.242142 273.022766,102.139168 
	C257.537292,96.711159 241.681168,98.444725 225.939453,101.502945 
	C218.719406,102.905617 211.794449,106.911812 203.931274,103.597130 
	C197.882874,100.824196 194.862961,96.057587 192.947800,90.229027 
	C185.998413,69.079384 178.948151,47.962898 171.936737,26.833641 
	C169.587189,19.753159 165.322937,16.795145 157.613800,17.096014 
	C156.591309,17.121103 155.874557,17.062494 155.313202,17.329981 
	C134.613800,27.193222 121.339294,43.864517 114.207565,65.035538 
	C107.097839,86.141251 107.665031,108.109581 111.160408,129.870239 
	C113.543098,144.703857 111.174744,158.653503 102.578377,170.524246 
	C94.210266,182.079788 83.492020,191.903564 74.597748,203.116028 
	C64.886139,215.358856 56.083778,228.322952 46.557446,240.834473 
	C43.071049,235.994400 38.158901,236.373276 35.086288,241.794708 
	C30.648287,249.625259 26.405888,257.567810 22.150455,265.500336 
	C18.445555,272.406647 18.056065,279.216736 22.746357,285.947876 
	C21.954588,287.354675 21.484343,288.563263 21.027798,289.777039 
	C14.994303,305.817627 8.975562,321.863800 2.874858,337.878784 
	C2.671337,338.413055 1.643562,338.633362 1.000001,339.000000 
	C1.000000,226.379501 1.000000,113.758987 1.000000,1.069243 
	C171.550552,1.069243 342.101135,1.069243 513.000000,1.069243 
	C513.000000,70.688293 513.000000,140.377167 512.696899,210.837646 
	C509.813843,210.406128 507.254059,208.215057 504.650452,208.161652 
	C488.833557,207.837234 473.006500,207.961975 457.183197,208.021545 
	C452.022369,208.040985 448.865021,211.357086 449.000214,216.291885 
	C449.127747,220.945007 452.318604,223.991119 457.131805,223.995819 
	C469.790649,224.008148 482.454346,224.206177 495.106262,223.909775 
	C501.082458,223.769745 507.036133,222.666702 513.000000,222.000000 
M499.129059,154.315445 
	C500.841705,150.523239 500.592834,146.891464 497.447968,144.065079 
	C494.513916,141.428162 490.959625,141.657593 487.512787,143.179504 
	C476.519958,148.033234 465.530548,152.895477 454.575867,157.834427 
	C451.240021,159.338425 447.831909,160.814453 444.794495,162.815674 
	C440.702637,165.511627 441.026337,169.676315 443.166870,173.224701 
	C445.243439,176.667038 448.644348,177.865387 452.779480,176.065552 
	C467.173340,169.800537 481.628235,163.675797 496.020325,157.406738 
	C497.044739,156.960495 497.748444,155.778061 499.129059,154.315445 
M442.270264,266.798553 
	C443.895416,271.273193 448.264130,271.795502 451.855774,273.368652 
	C463.862457,278.627533 475.846283,283.946533 487.958374,288.953308 
	C492.933655,291.009888 498.286469,289.157318 499.857483,285.549255 
	C501.616150,281.510254 499.211700,276.319397 494.121796,274.050049 
	C481.270050,268.320068 468.315582,262.820984 455.447968,257.126129 
	C447.034393,253.402557 440.921814,258.243317 442.270264,266.798553 
z"/>
<path fill="#DD8858" opacity="1.000000" stroke="none" 
	d="
M1.000001,339.467957 
	C1.643562,338.633362 2.671337,338.413055 2.874858,337.878784 
	C8.975562,321.863800 14.994303,305.817627 21.027798,289.777039 
	C21.484343,288.563263 21.954588,287.354675 23.039371,286.135834 
	C34.786839,301.370117 45.913391,316.612244 57.030109,332.266754 
	C56.634438,334.450226 56.402905,336.272095 55.839451,337.984772 
	C48.344524,360.766479 44.453724,384.153992 43.932655,408.116638 
	C35.297306,398.485779 26.376139,389.092041 18.122391,379.144531 
	C12.151561,371.948395 7.066728,364.017120 1.293390,356.706848 
	C1.000000,351.311951 1.000000,345.623932 1.000001,339.467957 
z"/>
<path fill="#DBEDFF" opacity="1.000000" stroke="none" 
	d="
M513.000000,221.541931 
	C507.036133,222.666702 501.082458,223.769745 495.106262,223.909775 
	C482.454346,224.206177 469.790649,224.008148 457.131805,223.995819 
	C452.318604,223.991119 449.127747,220.945007 449.000214,216.291885 
	C448.865021,211.357086 452.022369,208.040985 457.183197,208.021545 
	C473.006500,207.961975 488.833557,207.837234 504.650452,208.161652 
	C507.254059,208.215057 509.813843,210.406128 512.696899,211.304626 
	C513.000000,214.361282 513.000000,217.722580 513.000000,221.541931 
z"/>
<path fill="#E39B74" opacity="1.000000" stroke="none" 
	d="
M204.092163,103.904297 
	C211.794449,106.911812 218.719406,102.905617 225.939453,101.502945 
	C241.681168,98.444725 257.537292,96.711159 273.022766,102.139168 
	C279.022308,104.242142 284.609680,107.908882 289.896881,111.568230 
	C298.517700,117.534805 307.687683,121.089859 318.228790,122.160797 
	C330.056915,123.362488 341.042389,120.815521 352.392395,117.584564 
	C357.361298,130.877884 368.829071,144.783554 385.461182,143.107208 
	C394.484589,142.584457 401.634918,138.322281 408.820648,134.150787 
	C411.102509,143.995468 412.116455,153.939514 409.908264,163.891937 
	C407.290619,175.690018 399.958740,184.269302 390.219849,190.953339 
	C371.406433,203.865417 350.277679,211.535553 328.621826,217.988907 
	C325.675323,218.866943 322.748993,219.823730 319.774353,220.593292 
	C316.778656,221.368286 314.810608,222.627975 314.926910,226.260849 
	C315.052429,230.181808 317.711182,231.210709 320.611664,231.954834 
	C327.513397,233.725464 334.454773,235.344055 341.392334,236.972046 
	C357.167419,240.673935 372.956085,244.318085 388.726959,248.037781 
	C398.240540,250.281677 401.387451,257.610809 397.095856,266.669525 
	C392.161133,277.085785 386.062775,286.534607 377.871704,294.824646 
	C368.573364,304.235291 357.883698,306.316742 345.920990,302.352722 
	C332.270264,297.829376 318.918060,292.410797 305.301666,287.776367 
	C294.204407,283.999329 282.931183,283.128998 271.482422,286.951599 
	C258.602417,291.252045 250.045242,300.229645 244.098785,311.865814 
	C238.078644,323.646179 234.762360,336.327667 232.958542,349.435913 
	C231.093994,362.985504 228.991211,376.502258 227.025528,390.038177 
	C226.883469,391.016327 227.009918,392.033508 226.646347,393.489380 
	C181.840881,382.730774 143.827652,359.986877 111.189156,328.322205 
	C98.602310,316.110870 87.696930,302.166412 75.999893,288.757080 
	C75.962364,288.332581 75.950401,288.162506 76.217865,287.793182 
	C78.756004,283.531738 81.059074,279.493500 83.266266,275.403442 
	C98.064178,247.982025 116.559509,223.150330 136.271805,199.130844 
	C144.695999,188.865952 148.688354,176.707947 147.813980,163.488129 
	C147.249191,154.949081 145.089508,146.523972 143.825592,138.020889 
	C141.493195,122.329597 143.924286,106.993988 147.675217,91.801720 
	C147.934677,90.750824 149.189362,89.945663 149.994873,89.413834 
	C151.209213,93.588448 152.152771,97.480949 153.655731,101.143913 
	C159.685013,115.838043 172.806854,122.042549 187.566299,115.975449 
	C193.693573,113.456734 198.619781,108.016151 204.092163,103.904297 
M267.582764,155.242874 
	C259.482239,152.438629 250.821777,155.013901 246.331894,161.562073 
	C241.599136,168.464478 242.023865,177.558014 247.369324,183.773865 
	C252.860641,190.159332 261.199005,191.782974 269.652679,187.799042 
	C276.521454,183.831024 279.779846,177.870209 278.952240,169.991669 
	C278.238220,163.194733 274.642944,158.310226 267.582764,155.242874 
z"/>
<path fill="#E39B74" opacity="1.000000" stroke="none" 
	d="
M44.070831,408.419434 
	C44.453724,384.153992 48.344524,360.766479 55.839451,337.984772 
	C56.402905,336.272095 56.634438,334.450226 57.252159,332.298981 
	C57.484047,331.918823 57.932842,331.929810 58.077103,332.239166 
	C71.475578,348.125031 86.016632,362.383820 101.819435,375.373291 
	C130.075439,398.599030 161.404388,416.325653 196.044754,428.115967 
	C204.325638,430.934509 212.712692,433.441132 221.050934,436.091187 
	C218.566864,449.332672 216.208633,462.599762 213.523819,475.800415 
	C212.693390,479.883545 211.559647,484.113922 209.546646,487.706390 
	C204.568634,496.590363 194.635437,499.353912 182.903900,495.435577 
	C156.201019,486.516815 130.866486,474.761536 107.020477,459.661011 
	C84.052856,445.116699 63.066944,428.265961 44.070831,408.419434 
z"/>
<path fill="#DD8858" opacity="1.000000" stroke="none" 
	d="
M149.981232,89.026230 
	C149.189362,89.945663 147.934677,90.750824 147.675217,91.801720 
	C143.924286,106.993988 141.493195,122.329597 143.825592,138.020889 
	C145.089508,146.523972 147.249191,154.949081 147.813980,163.488129 
	C148.688354,176.707947 144.695999,188.865952 136.271805,199.130844 
	C116.559509,223.150330 98.064178,247.982025 83.266266,275.403442 
	C81.059074,279.493500 78.756004,283.531738 75.955399,287.597870 
	C70.285347,280.227875 64.801308,273.071381 60.127567,265.419922 
	C55.302975,257.521515 51.266403,249.141800 46.885086,240.972641 
	C56.083778,228.322952 64.886139,215.358856 74.597748,203.116028 
	C83.492020,191.903564 94.210266,182.079788 102.578377,170.524246 
	C111.174744,158.653503 113.543098,144.703857 111.160408,129.870239 
	C107.665031,108.109581 107.097839,86.141251 114.207565,65.035538 
	C121.339294,43.864517 134.613800,27.193222 155.313202,17.329981 
	C155.874557,17.062494 156.591309,17.121103 157.565735,17.445267 
	C146.426498,40.601818 142.601898,64.190987 149.981232,89.026230 
z"/>
<path fill="#FFE559" opacity="1.000000" stroke="none" 
	d="
M221.461884,436.050659 
	C212.712692,433.441132 204.325638,430.934509 196.044754,428.115967 
	C161.404388,416.325653 130.075439,398.599030 101.819435,375.373291 
	C86.016632,362.383820 71.475578,348.125031 58.137703,331.872009 
	C64.044518,317.134155 70.034988,303.072876 76.025459,289.011566 
	C87.696930,302.166412 98.602310,316.110870 111.189156,328.322205 
	C143.827652,359.986877 181.840881,382.730774 226.680054,393.923340 
	C233.166412,395.111847 235.491089,400.255035 233.974747,408.226501 
	C232.765244,414.584839 231.786957,421.001648 231.054916,427.432251 
	C230.318085,433.904663 228.343399,435.960449 221.461884,436.050659 
z"/>
<path fill="#DA7E4A" opacity="1.000000" stroke="none" 
	d="
M149.994873,89.413834 
	C142.601898,64.190987 146.426498,40.601818 157.943924,17.513632 
	C165.322937,16.795145 169.587189,19.753159 171.936737,26.833641 
	C178.948151,47.962898 185.998413,69.079384 192.947800,90.229027 
	C194.862961,96.057587 197.882874,100.824196 203.931274,103.597137 
	C198.619781,108.016151 193.693573,113.456734 187.566299,115.975449 
	C172.806854,122.042549 159.685013,115.838043 153.655731,101.143913 
	C152.152771,97.480949 151.209213,93.588448 149.994873,89.413834 
z"/>
<path fill="#FFD501" opacity="1.000000" stroke="none" 
	d="
M75.999893,288.757080 
	C70.034988,303.072876 64.044518,317.134155 57.993446,331.562622 
	C57.932842,331.929810 57.484047,331.918823 57.261997,331.886597 
	C45.913391,316.612244 34.786839,301.370117 23.367268,285.940063 
	C18.056065,279.216736 18.445555,272.406647 22.150455,265.500336 
	C26.405888,257.567810 30.648287,249.625259 35.086288,241.794708 
	C38.158901,236.373276 43.071049,235.994400 46.557442,240.834473 
	C51.266403,249.141800 55.302975,257.521515 60.127567,265.419922 
	C64.801308,273.071381 70.285347,280.227875 75.675964,287.797089 
	C75.950401,288.162506 75.962364,288.332581 75.999893,288.757080 
z"/>
<path fill="#675E68" opacity="1.000000" stroke="none" 
	d="
M385.046509,143.101929 
	C368.829071,144.783554 357.361298,130.877884 352.755585,117.666420 
	C360.999146,112.934868 369.240845,108.499794 377.562134,104.219437 
	C383.311676,101.261940 396.218170,102.742737 399.726715,110.738152 
	C395.128052,113.927124 390.668427,116.440918 386.483765,119.350204 
	C379.411438,124.267082 378.168182,132.781967 383.205444,139.719315 
	C383.953369,140.749390 384.439331,141.969650 385.046509,143.101929 
z"/>
<path fill="#DBEDFF" opacity="1.000000" stroke="none" 
	d="
M498.865173,154.626678 
	C497.748444,155.778061 497.044739,156.960495 496.020325,157.406738 
	C481.628235,163.675797 467.173340,169.800537 452.779480,176.065552 
	C448.644348,177.865387 445.243439,176.667038 443.166870,173.224701 
	C441.026337,169.676315 440.702637,165.511627 444.794495,162.815674 
	C447.831909,160.814453 451.240021,159.338425 454.575867,157.834427 
	C465.530548,152.895477 476.519958,148.033234 487.512787,143.179504 
	C490.959625,141.657593 494.513916,141.428162 497.447968,144.065079 
	C500.592834,146.891464 500.841705,150.523239 498.865173,154.626678 
z"/>
<path fill="#DBEDFF" opacity="1.000000" stroke="none" 
	d="
M442.146057,266.408813 
	C440.921814,258.243317 447.034393,253.402557 455.447968,257.126129 
	C468.315582,262.820984 481.270050,268.320068 494.121796,274.050049 
	C499.211700,276.319397 501.616150,281.510254 499.857483,285.549255 
	C498.286469,289.157318 492.933655,291.009888 487.958374,288.953308 
	C475.846283,283.946533 463.862457,278.627533 451.855774,273.368652 
	C448.264130,271.795502 443.895416,271.273193 442.146057,266.408813 
z"/>
<path fill="#7B6C79" opacity="1.000000" stroke="none" 
	d="
M385.461182,143.107208 
	C384.439331,141.969650 383.953369,140.749390 383.205444,139.719315 
	C378.168182,132.781967 379.411438,124.267082 386.483765,119.350204 
	C390.668427,116.440918 395.128052,113.927124 399.783020,111.086807 
	C402.745514,117.816994 405.388458,124.696083 408.033539,131.574356 
	C408.265594,132.177765 408.511871,132.775726 408.786072,133.763504 
	C401.634918,138.322281 394.484589,142.584457 385.461182,143.107208 
z"/>
<path fill="#685F68" opacity="1.000000" stroke="none" 
	d="
M268.998505,187.985504 
	C261.199005,191.782974 252.860641,190.159332 247.369324,183.773865 
	C242.023865,177.558014 241.599136,168.464478 246.331894,161.562073 
	C250.821777,155.013901 259.482239,152.438629 267.808777,155.845612 
	C267.114777,157.805252 266.218170,159.178772 265.270905,160.516388 
	C259.188293,169.105576 259.569519,176.967163 266.461426,184.945618 
	C267.324036,185.944275 268.153625,186.971512 268.998505,187.985504 
z"/>
<path fill="#7B6C79" opacity="1.000000" stroke="none" 
	d="
M269.325592,187.892273 
	C268.153625,186.971512 267.324036,185.944275 266.461426,184.945618 
	C259.569519,176.967163 259.188293,169.105576 265.270905,160.516388 
	C266.218170,159.178772 267.114777,157.805252 268.115295,156.074249 
	C274.642944,158.310226 278.238220,163.194733 278.952240,169.991669 
	C279.779846,177.870209 276.521454,183.831024 269.325592,187.892273 
z"/>
</svg>