<?xml version="1.0" encoding="iso-8859-1"?>
<!-- Generator: Adobe Illustrator 19.0.0, SVG Export Plug-In . SVG Version: 6.00 Build 0)  -->
<svg version="1.1" id="Layer_1" xmlns="http://www.w3.org/2000/svg" xmlns:xlink="http://www.w3.org/1999/xlink" x="0px" y="0px"
	 viewBox="0 0 496.246 496.246" style="enable-background:new 0 0 496.246 496.246;" xml:space="preserve">
<path style="fill:#7F1105;" d="M248.119,376.036c-48.837,0-93.405-33.138-116.791-85.63H42.287c-8.83,0-16.738-5.482-19.795-13.753
	c-3.096-8.263-0.725-17.581,5.939-23.355l88.954-77.154c11.737-63.898,58.951-100.328,130.733-100.328
	c71.775,0,118.989,36.431,130.733,100.328l88.946,77.154c6.672,5.774,9.035,15.1,5.947,23.355
	c-3.072,8.271-10.965,13.753-19.795,13.753H364.91C341.515,342.898,296.955,376.036,248.119,376.036z"/>
<g>
	<path style="fill:#AA2D15;" d="M248.119,376.036c-48.837,0-93.405-33.138-116.791-85.63H42.287c-8.83,0-16.738-5.482-19.795-13.753
		c-3.096-8.263-0.725-17.581,5.939-23.355l88.954-77.154c11.737-63.898,58.951-54.863,130.733-54.863
		c71.775,0,118.989-9.035,130.733,54.863l88.946,77.154c6.672,5.774,9.035,15.1,5.947,23.355
		c-3.072,8.271-10.965,13.753-19.795,13.753H364.91C341.515,342.898,296.955,376.036,248.119,376.036z"/>
</g>
<path style="fill:#931C0C;" d="M117.385,176.144c11.737-63.898,58.951-54.863,130.733-54.863c71.775,0,118.989-9.035,130.733,54.863
	l88.946,77.154c6.672,5.774,9.035,15.1,5.947,23.355c-3.072,8.271-10.965,13.753-19.795,13.753H364.91"/>
<path style="fill:#421210;" d="M248.119,96.957c56.155,0,102.55,25.805,111.057,90.104l94.775,82.204H350.566
	c-17.723,50.475-56.863,85.63-102.447,85.63s-84.732-35.155-102.447-85.63H42.287l94.775-82.204
	C145.577,122.762,191.972,96.957,248.119,96.957 M248.119,54.666c-79.139,0-134.081,40.826-149.984,110.175l-83.558,72.483
	C1.248,248.879-3.502,267.516,2.674,284.05c6.168,16.542,21.961,27.498,39.621,27.498h75.855
	c28.121,52.846,76.729,85.622,129.977,85.622s101.856-32.776,129.977-85.622h75.855c17.652,0,33.453-10.957,39.613-27.498
	c6.176-16.542,1.434-35.17-11.902-46.726l-83.558-72.483C382.199,95.5,327.266,54.666,248.119,54.666L248.119,54.666z"/>
<path style="fill:#260707;" d="M42.287,311.556h75.863c28.121,52.846,76.729,85.622,129.977,85.622s101.856-32.776,129.977-85.622
	h75.855c17.384,0,32.918-10.658,39.274-26.782c-2.45-6.215-6.309-11.886-11.571-16.447l-83.558-72.476
	C382.199,126.496,327.258,72.98,248.119,72.98S114.038,126.488,98.134,195.852l-83.558,72.476
	c-5.254,4.561-9.114,10.232-11.571,16.447C9.369,300.899,24.902,311.556,42.287,311.556z M42.287,269.265l94.775-82.204
	c8.515-64.299,54.902-90.104,111.057-90.104s102.55,25.805,111.065,90.104l94.775,82.204h-35.753l35.753,31.011H350.566
	c-17.723,50.46-56.863,85.63-102.447,85.63s-84.732-35.163-102.447-85.63H42.287l35.745-31.011L42.287,269.265L42.287,269.265z"/>
<rect x="42.822" y="268.367" style="fill:#BC3C1E;" width="410.624" height="166.518"/>
<polyline style="fill:#D14A2F;" points="453.423,434.893 42.822,434.893 42.822,268.391 "/>
<polygon style="fill:#421210;" points="217.462,235.441 213.24,231.211 213.24,169.897 217.462,165.66 278.775,165.66 
	282.998,169.897 282.998,231.211 278.775,235.441 "/>
<polyline style="fill:#260707;" points="278.775,165.66 282.998,169.897 282.998,231.211 278.775,235.441 217.462,235.441 
	213.24,231.211 "/>
<path style="fill:#D14A2F;" d="M278.775,169.897v61.314h-61.306v-61.314H278.775 M278.775,161.445h-61.306l-8.46,8.452v61.314
	l8.46,8.46h61.306l8.468-8.46v-61.314L278.775,161.445L278.775,161.445z"/>
<polyline style="fill:#2B0808;" points="144.529,434.893 144.529,286.893 351.716,286.893 351.716,434.893 "/>
<polygon style="fill:#421210;" points="144.529,309.642 144.529,434.893 351.716,434.893 351.716,393.641 "/>
<g>
	<polygon style="fill:#AA2D15;" points="355.946,434.893 347.486,434.893 347.486,291.115 148.751,291.115 148.751,434.893 
		140.299,434.893 140.299,286.893 144.529,282.663 351.716,282.663 355.946,286.893 	"/>
	<path style="fill:#AA2D15;" d="M117.653,385.898H69.218c-1.607,0-2.907-1.308-2.907-2.907v-48.443c0-1.599,1.3-2.907,2.907-2.907
		h48.435c1.615,0,2.899,1.308,2.899,2.907v48.443C120.552,384.591,119.268,385.898,117.653,385.898z M72.124,380.085h42.622v-42.63
		H72.124V380.085z"/>
	<path style="fill:#AA2D15;" d="M71.951,383.157c-0.74,0-1.481-0.284-2.048-0.843c-1.134-1.134-1.134-2.993,0-4.12l42.921-42.953
		c1.15-1.111,2.985-1.134,4.12,0c1.142,1.142,1.142,2.985,0,4.12l-42.921,42.953C73.44,382.866,72.692,383.157,71.951,383.157z"/>
	<path style="fill:#AA2D15;" d="M114.904,383.157c-0.74,0-1.497-0.291-2.08-0.843l-42.921-42.953c-1.134-1.134-1.134-2.977,0-4.12
		c1.134-1.134,2.97-1.134,4.12,0l42.921,42.953c1.142,1.126,1.142,2.985,0,4.12C116.385,382.874,115.637,383.157,114.904,383.157z"
		/>
	<path style="fill:#AA2D15;" d="M427.027,385.898H378.6c-1.615,0-2.914-1.308-2.914-2.907v-48.443c0-1.599,1.308-2.907,2.914-2.907
		h48.427c1.607,0,2.907,1.308,2.907,2.907v48.443C429.942,384.591,428.634,385.898,427.027,385.898z M381.491,380.085h42.63v-42.63
		h-42.63V380.085z"/>
	<path style="fill:#AA2D15;" d="M381.325,383.157c-0.725,0-1.481-0.284-2.032-0.843c-1.142-1.134-1.142-2.993,0-4.12l42.921-42.953
		c1.142-1.111,2.985-1.134,4.12,0c1.142,1.142,1.142,2.985,0,4.12l-42.929,42.953C382.838,382.866,382.081,383.157,381.325,383.157z
		"/>
	<path style="fill:#AA2D15;" d="M424.278,383.157c-0.733,0-1.481-0.291-2.064-0.843l-42.921-42.953c-1.142-1.134-1.142-2.977,0-4.12
		c1.126-1.134,2.954-1.134,4.112,0l42.929,42.953c1.142,1.126,1.142,2.985,0,4.12C425.759,382.874,425.018,383.157,424.278,383.157z
		"/>
</g>
<path style="fill:#931C0C;" d="M459.015,436.823c0,2.623-2.127,4.758-4.758,4.758H41.987c-2.623,0-4.758-2.127-4.758-4.758l0,0
	c0-2.623,2.127-4.758,4.758-4.758h412.278C456.888,432.065,459.015,434.2,459.015,436.823L459.015,436.823z"/>
<g>
</g>
<g>
</g>
<g>
</g>
<g>
</g>
<g>
</g>
<g>
</g>
<g>
</g>
<g>
</g>
<g>
</g>
<g>
</g>
<g>
</g>
<g>
</g>
<g>
</g>
<g>
</g>
<g>
</g>
</svg>
