<?xml version="1.0" encoding="iso-8859-1"?>
<!-- Generator: Adobe Illustrator 19.0.0, SVG Export Plug-In . SVG Version: 6.00 Build 0)  -->
<svg version="1.1" id="Layer_1" xmlns="http://www.w3.org/2000/svg" xmlns:xlink="http://www.w3.org/1999/xlink" x="0px" y="0px"
	 viewBox="0 0 512 512" style="enable-background:new 0 0 512 512;" xml:space="preserve">
<g>
	<path style="fill:#7A5236;" d="M158.817,343.3c-33.829,0-69.187-0.2-97.019-2.598c-38.16-3.28-45.657-9.425-47.108-11.915
		l-0.311-0.533l0.009-0.616c0.028-1.725,0.465-4.335,3.917-7.068c6.072-4.81,18.561-7.568,34.266-7.568
		c13.435,0,28.383,1.914,44.433,5.688c5.176,1.223,10.627,2.961,15.897,4.642l0.338,0.107c9.922,3.184,20.176,6.476,29.352,6.476
		c3.828,0,7.176-0.56,10.234-1.712l1.926-0.726l0.863,1.868c1.683,3.641,3.615,7.195,5.74,10.559l2.144,3.395h-4.679V343.3z"/>
	<path style="fill:#7A5236;" d="M159.481,341.086h-0.664c-33.778,0-69.072-0.199-96.829-2.59
		c-39.919-3.431-44.923-10.027-45.387-10.824c0.023-1.406,0.421-3.265,3.077-5.368c9.153-7.249,37.098-10.802,76.819-1.461
		c5.201,1.228,10.723,2.999,16.07,4.704c14.277,4.582,28.963,9.274,41.038,4.726C155.021,333.339,156.958,337.091,159.481,341.086z"
		/>
</g>
<g>
	<path style="fill:#C98559;" d="M283.835,343.3l6.528-4.089c4.224-2.646,8.113-5.559,11.559-8.657l1.389-1.248l1.464,1.159
		c3.024,2.394,6.028,5.512,8.932,9.269l2.758,3.567H283.835z"/>
	<path style="fill:#C98559;" d="M311.957,341.086h-20.419c4.504-2.822,8.467-5.833,11.864-8.887
		C306.644,334.767,309.544,337.965,311.957,341.086z"/>
	<path style="fill:#C98559;" d="M179.117,343.3l-0.661-0.743c-7.815-8.795-12.146-18.771-13.646-22.652l-0.396-1.026l0.578-0.936
		c4.752-7.686,7.062-19.205,7.062-35.214c0-16.051,6.425-47.986,49.45-81.53c26.82-20.924,55.209-32.497,64.578-32.497
		c22.988,0,45.942,11.706,75.002,26.526c20.697,10.564,44.154,22.537,73.058,33.151c21.19,7.79,57.539,25.459,62.908,56.261
		c2.013,11.521-1.441,18.911-2.548,20.901l-0.633,1.138h-5.076c-1.62,0-3.151,0.633-4.307,1.781l-6.902,6.902l-0.407,0.168
		c-1.088,0.45-2.242,0.66-3.635,0.66c-2.064,0-4.545-0.455-8.69-1.349c-4.489-0.972-10.075-2.18-16.641-2.18
		c-4.551,0-8.959,0.562-13.476,1.719c-4.535,1.153-8.732,1.738-12.476,1.739c-2.104,0-4.117-0.185-5.983-0.549l-0.26-0.048
		c-6.787-1.379-10.626-4.892-13.166-7.217c-1.157-1.058-2.619-1.627-4.144-1.627c-1.729,0-3.324,0.701-4.492,1.974
		c-1.098,1.195-1.663,2.75-1.593,4.376c0.071,1.627,0.77,3.129,1.968,4.228c4.006,3.673,9.716,8.139,18.366,10.074l0.155,0.034
		l0.149,0.056c6.255,2.378,9.996,5.202,12.128,9.153l1.143,2.117l-2.206,0.963c-1.712,0.747-3.826,1.584-5.952,2.354l-1.2,0.435
		l-0.978-0.821c-12.687-10.653-31.148-14.922-47.435-18.688c-7.591-1.743-15.362-3.527-21.996-5.854
		c-6.07-2.122-9.919-7.818-11.434-16.932c-1.42-8.533-0.191-17.868,1.551-22.931c1.103-3.171-0.583-6.643-3.758-7.747
		c-0.64-0.221-1.309-0.334-1.983-0.334c-2.599,0-4.912,1.648-5.755,4.099c-1.031,2.967-1.863,6.758-2.341,10.681l-4.377,0.114
		c-1.281-7.307-4.155-14.153-8.313-19.798c-5.306-7.226-17.795-19.344-41.855-19.344c-4.21,0-8.665,0.371-13.243,1.103
		c-3.317,0.527-5.586,3.656-5.058,6.974c0.479,2.967,2.999,5.124,5.991,5.124c0.324,0,0.653-0.027,0.977-0.079
		c3.81-0.609,7.524-0.919,11.038-0.919c14.261,0,25.446,4.959,32.347,14.342c7.905,10.772,8.928,25.926,2.61,38.611
		c-5.396,10.849-30.465,33.255-73.51,33.255h-50.534V343.3z M463.536,270.399c-4.095,0-7.426,3.331-7.426,7.426
		c0,4.088,3.331,7.415,7.426,7.415c4.088,0,7.415-3.326,7.415-7.415C470.951,273.73,467.624,270.399,463.536,270.399z
		 M421.347,235.018c-4.988,0-9.59,1.949-12.626,5.347c-6.92,7.739-2.595,18.415-0.414,22.645c1.05,2.023,3.114,3.283,5.383,3.283
		c0.994,0,1.962-0.234,2.834-0.677c2.966-1.538,4.139-5.222,2.601-8.201c-2.128-4.118-2.625-7.556-1.296-8.971
		c0.983-1.098,2.82-1.22,3.563-1.22c0.914,0,1.84,0.17,2.677,0.493c2.075,0.79,3.132,2.231,3.132,4.279
		c0,3.357,2.731,6.087,6.087,6.087s6.087-2.73,6.087-6.087c0-7.075-4.205-13.076-10.972-15.663
		C426.119,235.46,423.745,235.018,421.347,235.018z"/>
	<path style="fill:#C98559;" d="M494.868,285.019c1.66,9.496-0.609,16.402-2.301,19.445h-3.774c-2.202,0-4.306,0.874-5.867,2.424
		l-6.596,6.596c-2.246,0.93-5.068,0.476-11.011-0.808c-7.515-1.627-17.82-3.851-31.133-0.443c-7.527,1.915-13.17,2.003-17.488,1.162
		c-0.076-0.022-0.155-0.033-0.243-0.044c-6.209-1.262-9.661-4.438-12.141-6.707c-3.388-3.099-8.633-2.866-11.733,0.509
		c-3.099,3.376-2.866,8.633,0.509,11.731c4.672,4.283,10.714,8.666,19.38,10.603c6.375,2.424,9.307,5.058,10.967,8.135
		c-1.648,0.719-3.684,1.527-5.821,2.302c-13.115-11.012-31.786-15.317-48.442-19.169c-7.859-1.804-15.273-3.519-21.681-5.766
		c-5.257-1.837-8.61-6.95-9.984-15.207c-1.36-8.179-0.188-17.055,1.461-21.847c1.504-4.327-0.797-9.053-5.124-10.558
		c-4.327-1.494-9.064,0.797-10.558,5.135c-0.986,2.833-1.905,6.696-2.446,11.134c-1.307-7.459-4.195-14.598-8.71-20.729
		c-6.94-9.452-23.596-24.492-57.23-19.113c-4.527,0.719-7.614,4.98-6.895,9.507c0.73,4.527,4.98,7.614,9.507,6.884
		c18.483-2.955,33.126,1.505,41.248,12.55c7.415,10.105,8.367,24.359,2.413,36.312c-5.202,10.459-29.538,32.029-71.529,32.029
		h-49.538c-7.582-8.533-11.842-18.372-13.237-21.98c5.002-8.09,7.393-19.943,7.393-36.379c0-15.638,6.308-46.815,48.597-79.785
		c27.336-21.327,55.271-32.029,63.217-32.029c22.456,0,45.199,11.599,73.996,26.285c20.751,10.592,44.282,22.6,73.299,33.258
		C454.118,238.082,489.688,255.303,494.868,285.019z M473.164,277.825c0-5.323-4.316-9.64-9.629-9.64c-5.323,0-9.64,4.316-9.64,9.64
		c0,5.312,4.316,9.629,9.64,9.629C468.848,287.454,473.164,283.137,473.164,277.825z M433.289,260.294
		c4.582,0,8.301-3.708,8.301-8.301c0-8.013-4.748-14.808-12.395-17.73c-8.035-3.066-16.922-1.195-22.123,4.626
		c-7.848,8.776-3.121,20.497-0.73,25.134c1.483,2.855,4.383,4.493,7.382,4.482c1.284,0,2.59-0.299,3.806-0.919
		c4.074-2.114,5.667-7.116,3.565-11.189c-2.213-4.283-1.816-6.264-1.649-6.441c0.387-0.432,2.136-0.83,3.829-0.177
		c1.715,0.653,1.715,1.638,1.715,2.213C424.988,256.587,428.707,260.294,433.289,260.294z"/>
</g>
<g>
	<path style="fill:#3D484A;" d="M511.524,284.056c1.749,12.595-1.24,28.797-10.338,35.416c-1.415,1.04-3.131,1.594-4.88,1.594
		h-4.074l-5.08,5.08c-0.498,0.498-1.074,0.941-1.682,1.295c-8.212,4.792-16.06,3.099-23.651,1.461
		c-6.884-1.483-14-3.021-23.529-0.587c-0.31,0.077-0.61,0.144-0.908,0.221c1.904,3.21,3.055,6.552,3.929,9.883
		c2.346,8.909-7.935,13.104-13.458,15.35c-4.77,1.937-9.551,3.464-9.76,3.531c-0.819,0.266-1.672,0.387-2.513,0.387
		c-2.247,0-4.438-0.908-6.032-2.59c-9.661-10.215-27.17-14.255-44.104-18.162c-7.946-1.837-16.169-3.73-23.441-6.275
		c-11.091-3.885-18.506-13.879-20.873-28.167c-0.077-0.454-0.133-0.908-0.199-1.361c-0.853,5.246-2.458,10.437-4.892,15.328
		c-0.51,1.029-1.107,2.081-1.782,3.165c12.285,10.049,19.888,25.4,20.242,26.119c1.251,2.568,1.096,5.611-0.421,8.035
		c-1.516,2.435-4.174,3.907-7.039,3.907H158.816c-36.29,0-74.152-0.232-103.17-3.099C28.133,351.877,0,346.564,0,327.783
		c0-7.249,3.243-13.635,9.363-18.483c15.616-12.373,50.456-14.144,90.93-4.615c5.844,1.372,11.687,3.243,17.343,5.058
		c12.816,4.106,26.074,8.356,32.261,3.84c3.54-2.59,7.769-10.038,7.769-30.856c0-22.799,9.54-57.429,54.983-92.878
		c21.915-17.088,56.223-35.537,73.433-35.537c26.45,0,50.754,12.395,81.534,28.1c20.342,10.381,43.395,22.146,71.484,32.472
		C463.813,223.96,506.09,245.021,511.524,284.056z M492.567,304.464c1.692-3.044,3.961-9.95,2.301-19.445
		c-5.18-29.716-40.749-46.937-61.49-54.562c-29.019-10.658-52.548-22.666-73.299-33.258c-28.797-14.686-51.54-26.285-73.996-26.285
		c-7.946,0-35.881,10.702-63.217,32.029c-42.289,32.97-48.597,64.147-48.597,79.785c0,16.435-2.391,28.288-7.393,36.379
		c1.394,3.608,5.654,13.447,13.237,21.98h49.538c41.991,0,66.327-21.57,71.529-32.029c5.954-11.953,5.002-26.208-2.413-36.312
		c-8.123-11.045-22.766-15.505-41.248-12.55c-4.527,0.73-8.776-2.357-9.507-6.884c-0.718-4.527,2.37-8.788,6.895-9.507
		c33.634-5.379,50.289,9.662,57.229,19.113c4.516,6.131,7.403,13.27,8.71,20.729c0.541-4.438,1.46-8.301,2.446-11.134
		c1.494-4.338,6.231-6.629,10.558-5.135c4.327,1.505,6.628,6.231,5.124,10.558c-1.649,4.792-2.822,13.668-1.461,21.847
		c1.372,8.256,4.727,13.369,9.984,15.207c6.408,2.247,13.822,3.962,21.681,5.766c16.656,3.851,35.327,8.157,48.442,19.169
		c2.137-0.775,4.174-1.583,5.821-2.302c-1.66-3.077-4.592-5.711-10.967-8.135c-8.666-1.937-14.709-6.319-19.38-10.603
		c-3.376-3.099-3.608-8.356-0.509-11.731c3.1-3.376,8.345-3.608,11.733-0.509c2.479,2.269,5.931,5.445,12.141,6.707
		c0.089,0.011,0.166,0.022,0.243,0.044c4.316,0.841,9.961,0.753,17.488-1.162c13.313-3.409,23.618-1.184,31.133,0.443
		c5.943,1.284,8.765,1.738,11.011,0.808l6.596-6.596c1.561-1.549,3.664-2.424,5.867-2.424L492.567,304.464L492.567,304.464z
		 M291.537,341.086h20.419c-2.413-3.121-5.312-6.319-8.555-8.887C300.004,335.254,296.042,338.264,291.537,341.086z
		 M158.817,341.086h0.664c-2.522-3.995-4.459-7.747-5.876-10.813c-12.075,4.549-26.761-0.144-41.038-4.726
		c-5.346-1.704-10.868-3.475-16.07-4.704c-39.722-9.341-67.667-5.788-76.819,1.461c-2.656,2.103-3.055,3.962-3.077,5.368
		c0.465,0.797,5.468,7.393,45.387,10.824C89.746,340.887,125.039,341.086,158.817,341.086z"/>
	<path style="fill:#3D484A;" d="M463.536,268.185c5.312,0,9.629,4.316,9.629,9.64c0,5.312-4.316,9.629-9.629,9.629
		c-5.323,0-9.64-4.316-9.64-9.629C453.896,272.501,458.214,268.185,463.536,268.185z"/>
	<path style="fill:#3D484A;" d="M441.589,251.994c0,4.593-3.719,8.301-8.301,8.301s-8.301-3.708-8.301-8.301
		c0-0.576,0-1.561-1.715-2.213c-1.693-0.653-3.442-0.255-3.829,0.177c-0.166,0.177-0.564,2.158,1.649,6.441
		c2.102,4.073,0.509,9.075-3.565,11.189c-1.217,0.62-2.522,0.919-3.806,0.919c-2.999,0.011-5.899-1.627-7.382-4.482
		c-2.391-4.637-7.117-16.358,0.73-25.134c5.201-5.821,14.088-7.692,22.123-4.626C436.841,237.185,441.589,243.981,441.589,251.994z"
		/>
</g>
<g>
</g>
<g>
</g>
<g>
</g>
<g>
</g>
<g>
</g>
<g>
</g>
<g>
</g>
<g>
</g>
<g>
</g>
<g>
</g>
<g>
</g>
<g>
</g>
<g>
</g>
<g>
</g>
<g>
</g>
</svg>
