<?xml version="1.0" encoding="iso-8859-1"?>
<!-- Uploaded to: SVG Repo, www.svgrepo.com, Generator: SVG Repo Mixer Tools -->
<svg height="800px" width="800px" version="1.1" id="Layer_1" xmlns="http://www.w3.org/2000/svg" xmlns:xlink="http://www.w3.org/1999/xlink" 
	 viewBox="0 0 512 512" xml:space="preserve">
<path style="fill:#FFA81F;" d="M438.64,377.334c9.415-10.168,15.184-23.76,15.184-38.679c0-16.258-6.854-30.935-17.807-41.33
	c10.954-10.392,17.807-25.07,17.807-41.326s-6.854-30.935-17.807-41.328c10.954-10.392,17.807-25.07,17.807-41.326
	c0-14.92-5.77-28.511-15.185-38.682c19.332-13.33,32.034-35.617,32.034-60.822C470.673,33.125,437.548,0,396.829,0
	c-25.205,0-47.49,12.701-60.821,32.032c-10.169-9.414-23.76-15.183-38.679-15.183c-16.257,0-30.936,6.853-41.328,17.807
	c-10.393-10.955-25.071-17.807-41.328-17.807c-14.919,0-28.511,5.77-38.682,15.184C162.663,12.702,140.376,0,115.171,0
	C74.453,0,41.327,33.125,41.327,73.843c0,25.205,12.702,47.492,32.033,60.822c-9.415,10.17-15.183,23.761-15.183,38.682
	c0,16.256,6.853,30.933,17.807,41.326C65.029,225.065,58.177,239.744,58.177,256s6.853,30.934,17.807,41.326
	c-10.955,10.394-17.807,25.072-17.807,41.33c0,14.919,5.769,28.51,15.183,38.679c-19.331,13.331-32.033,35.617-32.033,60.823
	c0,40.718,33.126,73.843,73.844,73.843c25.205,0,47.492-12.702,60.821-32.033c10.17,9.416,23.761,15.184,38.68,15.184
	c16.257,0,30.936-6.854,41.329-17.807c10.392,10.955,25.07,17.807,41.327,17.807c14.919,0,28.511-5.771,38.681-15.184
	C349.339,499.298,371.624,512,396.829,512c40.719,0,73.844-33.125,73.844-73.843C470.673,412.951,457.971,390.666,438.64,377.334z"
	/>
<g>
	<circle style="fill:#715539;" cx="134.335" cy="134.335" r="19.504"/>
	<circle style="fill:#715539;" cx="134.335" cy="256.004" r="19.504"/>
	<circle style="fill:#715539;" cx="134.335" cy="377.663" r="19.504"/>
	<circle style="fill:#715539;" cx="256.004" cy="134.335" r="19.504"/>
	<circle style="fill:#715539;" cx="256.004" cy="256.004" r="19.504"/>
	<circle style="fill:#715539;" cx="256.004" cy="377.663" r="19.504"/>
	<circle style="fill:#715539;" cx="377.663" cy="134.335" r="19.504"/>
	<circle style="fill:#715539;" cx="377.663" cy="256.004" r="19.504"/>
	<circle style="fill:#715539;" cx="377.663" cy="377.663" r="19.504"/>
</g>
<path style="opacity:0.15;enable-background:new    ;" d="M438.64,377.334c9.415-10.168,15.184-23.76,15.184-38.679
	c0-16.258-6.854-30.935-17.807-41.33c10.954-10.392,17.807-25.07,17.807-41.326s-6.854-30.935-17.807-41.328
	c10.954-10.392,17.807-25.07,17.807-41.326c0-14.92-5.77-28.511-15.185-38.682c19.332-13.33,32.034-35.617,32.034-60.822
	C470.673,33.125,437.548,0,396.829,0c-25.205,0-47.49,12.701-60.821,32.032c-10.169-9.414-23.76-15.183-38.679-15.183
	c-16.257,0-30.936,6.853-41.328,17.807h-0.001v442.69c10.392,10.953,25.07,17.805,41.326,17.805
	c14.919,0,28.511-5.771,38.681-15.184C349.339,499.298,371.624,512,396.829,512c40.719,0,73.844-33.125,73.844-73.843
	C470.673,412.951,457.971,390.666,438.64,377.334z"/>
</svg>