<?xml version="1.0" encoding="iso-8859-1"?>
<!-- Uploaded to: SVG Repo, www.svgrepo.com, Generator: SVG Repo Mixer Tools -->
<svg version="1.1" id="Layer_1" xmlns="http://www.w3.org/2000/svg" xmlns:xlink="http://www.w3.org/1999/xlink" 
	 viewBox="0 0 512 512" xml:space="preserve">
<polygon style="fill:#7A3E25;" points="419.165,22.505 419.165,489.495 374.154,489.495 306.637,256 374.154,22.505 "/>
<polygon style="fill:#A65A3A;" points="374.154,22.505 374.154,67.516 362.901,113.467 374.154,159.418 374.154,226.934 
	362.901,272.885 374.154,318.835 374.154,386.352 362.901,437.923 374.154,489.495 92.835,489.495 92.835,22.505 "/>
<g>
	<rect x="340.396" y="226.934" style="fill:#008CCB;" width="33.758" height="103.154"/>
	<rect x="205.363" y="386.352" style="fill:#008CCB;" width="33.758" height="103.143"/>
</g>
<rect x="340.396" y="386.352" style="fill:#F37C4A;" width="33.758" height="103.143"/>
<g>
	<rect x="272.879" y="386.352" style="fill:#EA5A7D;" width="33.758" height="103.143"/>
	<rect x="137.846" y="67.516" style="fill:#EA5A7D;" width="33.758" height="103.154"/>
</g>
<g>
	<rect x="205.363" y="226.934" style="fill:#74C8EE;" width="33.758" height="103.154"/>
	<rect x="272.879" y="67.516" style="fill:#74C8EE;" width="33.758" height="103.154"/>
</g>
<g>
	<rect x="137.846" y="226.934" style="fill:#FEEB5C;" width="33.758" height="103.154"/>
	<rect x="272.879" y="226.934" style="fill:#FEEB5C;" width="33.758" height="103.154"/>
	<rect x="340.396" y="67.516" style="fill:#FEEB5C;" width="33.758" height="103.154"/>
</g>
<polygon style="fill:#FBCFA3;" points="419.165,478.242 407.912,512 70.33,512 70.33,0 407.912,0 419.165,33.758 104.088,33.758 
	104.088,159.418 419.165,159.418 419.165,193.176 104.088,193.176 104.088,318.835 419.165,318.835 419.165,352.594 
	104.088,352.594 104.088,478.242 "/>
<rect x="407.912" style="fill:#F7A676;" width="33.758" height="512"/>
</svg>