<?xml version="1.0" encoding="iso-8859-1"?>
<!-- Uploaded to: SVG Repo, www.svgrepo.com, Generator: SVG Repo Mixer Tools -->
<svg height="800px" width="800px" version="1.1" id="Layer_1" xmlns="http://www.w3.org/2000/svg" xmlns:xlink="http://www.w3.org/1999/xlink" 
	 viewBox="0 0 512 512" xml:space="preserve">
<g transform="translate(1)">
	<path style="fill:#FDCC00;" d="M398.253,471.893c-17.067,7.68-53.76,5.973-53.76,5.973c-53.76,0-105.813-16.213-147.627-49.493
		C172.973,409.6,122.626,384,122.626,384l17.067,110.933c0.853,0,231.253,29.867,259.413-23.893
		C399.106,471.04,399.106,471.04,398.253,471.893C399.106,471.04,399.106,471.04,398.253,471.893"/>
	<path style="fill:#FFE100;" d="M412.76,449.707c-1.707-12.8-11.947-23.04-25.6-23.04c-93.867,0-128-68.267-128-110.933V26.453
		c0-9.387-8.533-17.92-17.92-17.92h-50.347h-76.8c-9.387,0-17.067,7.68-17.067,17.067v0.853c0,66.56,17.067,133.12,40.107,195.413
		c10.24,27.307,15.36,57.173,5.973,80.213c-23.893,56.32-20.48,81.92-20.48,81.92s50.347,25.6,74.24,44.373
		c42.667,33.28,93.867,49.493,147.627,49.493c0,0,36.693,1.707,53.76-5.973C411.053,465.92,413.613,458.24,412.76,449.707"/>
	<g>
		<path style="fill:#FFFFFF;" d="M156.76,494.933L141.4,394.24c-11.093-5.973-18.773-10.24-18.773-10.24l17.067,110.933H156.76z"/>
		<path style="fill:#FFFFFF;" d="M139.693,384c0,0-3.413-25.6,20.48-81.92c10.24-23.04,4.267-52.907-5.973-80.213
			c-23.04-62.293-40.107-128.853-40.107-195.413V25.6c0-9.387,7.68-17.067,17.067-17.067h-17.067
			c-9.387,0-17.067,7.68-17.067,17.067v0.853c0,66.56,17.067,133.12,40.107,195.413c10.24,27.307,15.36,57.173,5.973,80.213
			c-23.893,56.32-20.48,81.92-20.48,81.92"/>
	</g>
	<path style="fill:#FFA800;" d="M414.466,449.707c-1.707-12.8-11.947-23.04-25.6-23.04c-93.867,0-128-68.267-128-110.933V26.453
		c0-9.387-8.533-17.92-18.773-17.92h-25.6c10.24,0,18.773,8.533,18.773,17.92v289.28c0,42.667,34.133,128,128,128
		c12.8,0,23.893,0.853,23.893,8.533c0.853,8.533-0.853,13.653-12.8,19.627c-7.68,3.413-18.773,5.12-28.16,5.973
		c2.56,0,5.973,0.853,8.533,0.853h8.533c11.947-0.853,27.307-1.707,36.693-5.973C411.906,465.92,415.32,458.24,414.466,449.707"/>
	<path d="M173.826,76.8c-1.707,0-4.267-0.853-5.973-2.56c-3.413-3.413-3.413-8.533,0-11.947l17.067-17.067
		c3.413-3.413,8.533-3.413,11.947,0s3.413,8.533,0,11.947L179.8,74.24C178.093,75.947,176.386,76.8,173.826,76.8z"/>
	<path d="M353.026,486.4c-5.12,0-9.387,0-9.387,0h-0.853c-56.32,0-108.373-17.92-151.893-51.2
		c-23.04-17.92-72.533-43.52-72.533-43.52c-2.56-0.853-4.267-3.413-4.267-5.973c0-1.707-3.413-29.013,21.333-87.04
		c7.68-17.92,5.973-42.667-5.973-74.24c-27.307-74.24-40.96-139.093-40.96-197.973V25.6c0-14.507,11.093-25.6,25.6-25.6h126.293
		c15.36,0,27.307,11.947,27.307,26.453v289.28c0,39.253,32.427,102.4,119.467,102.4c17.067,0,30.72,12.8,34.133,29.867
		c0.853,7.68,0,22.187-18.773,30.72C388.866,485.547,368.386,486.4,353.026,486.4z M344.493,469.333c0.853,0,3.413,0,8.533,0
		c18.773,0,34.133-1.707,41.813-5.973c10.24-5.12,9.387-10.24,9.387-12.8c-1.707-9.387-8.533-15.36-17.067-15.36
		c-99.84,0-136.533-73.387-136.533-119.467V26.453c0-5.12-4.267-9.387-9.387-9.387H114.093c-4.267,0-8.533,3.413-8.533,8.533v0.853
		c0,56.32,12.8,119.467,40.107,192c12.8,34.987,14.507,64.853,5.12,87.04c-17.067,40.107-19.627,64-19.627,73.387
		c12.8,6.827,50.347,27.307,70.827,42.667c40.107,31.573,88.747,47.787,140.8,47.787H344.493z"/>
	<path d="M269.4,512c-64.853,0-129.707-8.533-130.56-8.533c-3.413-0.853-6.827-3.413-6.827-6.827l-17.067-110.933
		c-0.853-3.413,0.853-5.973,3.413-8.533c2.56-2.56,5.973-2.56,8.533-0.853c1.707,0.853,51.2,26.453,75.093,45.227
		c40.107,31.573,88.747,47.787,140.8,47.787h1.707c0.853,0,3.413,0,8.533,0c18.773,0,34.133-1.707,41.813-5.973h0.853
		c1.707-0.853,4.267-0.853,5.973,0c2.56,0.853,4.267,2.56,5.12,5.12c0.853,2.56,0.853,5.12,0,6.827
		C393.986,500.053,348.76,512,269.4,512z M147.373,487.253c17.92,1.707,69.973,7.68,122.027,7.68
		c42.667,0,69.973-3.413,88.747-8.533c-7.68,0-13.653,0-13.653,0h-0.853c-56.32,0-108.373-17.92-151.893-51.2
		c-15.36-11.947-40.96-26.453-58.027-35.84L147.373,487.253z"/>
	<path d="M362.413,486.4h-8.533c-93.867,0-170.667-76.8-170.667-170.667V8.533c0-5.12,3.413-8.533,8.533-8.533h49.493
		c14.507,0,26.453,11.947,26.453,26.453v289.28c0,39.253,32.427,102.4,119.467,102.4c17.067,0,30.72,12.8,34.133,29.867
		c0.853,7.68,0,22.187-18.773,30.72C393.133,482.987,380.333,485.547,362.413,486.4L362.413,486.4z M199.426,17.067v298.667
		c0,84.48,69.12,153.6,153.6,153.6h8.533c14.507-0.853,26.453-2.56,33.28-5.12c10.24-5.12,10.24-10.24,9.387-12.8
		c-1.707-9.387-8.533-15.36-17.067-15.36c-99.84,0-136.533-73.387-136.533-119.467V26.453c0-5.12-4.267-9.387-9.387-9.387H199.426z"
		/>
</g>
</svg>