<?xml version="1.0" encoding="iso-8859-1"?>
<!-- Uploaded to: SVG Repo, www.svgrepo.com, Generator: SVG Repo Mixer Tools -->
<svg height="800px" width="800px" version="1.1" id="Layer_1" xmlns="http://www.w3.org/2000/svg" xmlns:xlink="http://www.w3.org/1999/xlink" 
	 viewBox="0 0 512 512" xml:space="preserve">
<path style="fill:#FBA026;" d="M300.343,140.777c-1.544,15-5.466,29.698-11.641,43.53l-2.723,6.123
	c-2.733,6.123-5.08,12.413-6.874,18.86c-1.346,4.851-2.524,9.732-3.536,14.645c-21.895,12.684-56.162,20.852-94.674,20.852
	c-46.586,0-86.965-11.944-106.743-29.385c-0.177-5.685-0.699-11.349-1.554-16.961c-1.095-7.135-2.723-14.197-4.882-21.113
	c-3.87-12.371-6.04-25.212-6.447-38.168c2.128,28.822,54.879,51.906,119.626,51.906C244.431,191.066,296.41,168.846,300.343,140.777
	z"/>
<g>
	<path style="fill:#747D8C;" d="M61.269,139.159c-0.052-1.513-0.073-3.036-0.073-4.548V57.368h239.919v68.627
		c0,4.214-0.188,8.408-0.563,12.591c-0.052,0.73-0.125,1.46-0.209,2.191c-3.933,28.07-55.911,50.289-119.448,50.289
		C116.148,191.066,63.397,167.981,61.269,139.159z"/>
	<path style="fill:#747D8C;" d="M450.803,440.112v19.736H61.196v-79.152c0-7.25,0.553-14.468,1.638-21.614
		c1.095-7.135,2.723-14.197,4.882-21.113c4.319-13.821,6.52-28.227,6.52-42.716v-75.199c0-1.554-0.021-3.098-0.083-4.652
		c19.778,17.441,60.157,29.385,106.743,29.385c38.512,0,72.779-8.168,94.674-20.852c-7.75,37.813-5.32,77.202,7.291,114.034h65.8
		C405.072,337.968,450.803,383.699,450.803,440.112z"/>
</g>
<path style="fill:#FBA026;" d="M84.839,10.431h-5.563c-9.986,0-18.08,8.095-18.08,18.08v28.86h41.725v-28.86
	C102.921,18.526,94.825,10.431,84.839,10.431z"/>
<g>
	<path style="fill:#EB4E49;" d="M230.859,501.569h207.86c6.673,0,12.083-5.41,12.083-12.083v-29.642H175.765l47.421,38.976
		C225.349,500.598,228.06,501.569,230.859,501.569z"/>
	<path style="fill:#EB4E49;" d="M73.278,501.569h90.404c6.673,0,12.083-5.41,12.083-12.083v-29.642H61.196v29.642
		C61.196,496.159,66.606,501.569,73.278,501.569z"/>
</g>
<g>
	<path style="fill:#231F20;" d="M348.66,327.538h-58.205c-9.94-32.828-11.571-67.717-4.691-101.389
		c0.017-0.077,0.032-0.155,0.047-0.233c0.957-4.626,2.081-9.282,3.343-13.831c1.558-5.599,3.695-11.455,6.357-17.419l2.715-6.107
		c6.603-14.788,10.797-30.442,12.473-46.529c0.003-0.023,0.006-0.045,0.008-0.068c0.002-0.021,0.003-0.041,0.006-0.062
		c0.002-0.019,0.004-0.038,0.006-0.056l-0.001,0.001c0-0.003,0-0.005,0.001-0.008c0.103-0.76,0.229-2.396,0.231-2.408
		c0.396-4.44,0.597-82.062,0.597-82.062c0-5.761-4.671-10.431-10.431-10.431H113.353V28.512C113.352,12.791,100.561,0,84.839,0
		h-5.563C63.554,0,50.765,12.791,50.765,28.512c0,0,0.032,110.428,0.089,111.186c0.453,13.827,2.774,27.533,6.905,40.739
		c1.986,6.359,3.509,12.949,4.527,19.575c0.793,5.201,1.277,10.489,1.44,15.715c0.001,0.02,0.004,0.039,0.005,0.058
		c0,0.013-0.002,0.025-0.001,0.038c0.051,1.271,0.075,2.615,0.075,4.232v75.199c0,13.443-2.034,26.769-6.045,39.607
		c-2.298,7.358-4.059,14.975-5.238,22.656c-1.165,7.674-1.757,15.473-1.757,23.179v108.791c0,12.414,10.1,22.514,22.514,22.514
		h90.404c12.414,0,22.514-10.1,22.514-22.514v-7.566l30.367,24.96c4.019,3.302,9.095,5.12,14.295,5.12h207.861
		c12.414,0,22.514-10.1,22.514-22.514v-49.374C461.234,378.038,410.733,327.538,348.66,327.538z M440.372,440.112v9.302H71.627
		v-68.718c0-6.66,0.511-13.406,1.518-20.031c1.018-6.633,2.542-13.224,4.527-19.585c4.087-13.082,6.395-26.602,6.889-40.268
		c27.253,21.997,59.388,36.969,94.114,43.683c0.669,0.129,1.334,0.192,1.991,0.192c4.896,0,9.266-3.466,10.23-8.453
		c1.093-5.656-2.606-11.128-8.262-12.221c-37.062-7.165-70.86-24.742-97.968-50.907v-38.121
		c24.087,12.724,58.88,20.235,96.228,20.235c30.096,0,58.615-4.814,81.29-13.49c-3.277,28.736-1.037,57.883,6.583,85.813h-11.203
		c-5.76,0-10.431,4.67-10.431,10.431c0,5.761,4.671,10.431,10.431,10.431h25.296c0.024,0,0.047-0.003,0.071-0.003h65.729
		C399.23,348.401,440.372,389.542,440.372,440.112z M279.116,180.188l-2.663,5.99c-3.074,6.889-5.564,13.723-7.4,20.322
		c-0.967,3.485-1.86,7.021-2.667,10.564c-21.122,10.874-52.623,17.291-85.492,17.291c-39.845,0-76.993-9.37-96.545-24.103
		c-0.283-4.472-0.766-8.957-1.442-13.394c-0.982-6.391-2.369-12.747-4.134-18.948l-0.01-0.015c4.415,2.715,9.309,5.257,14.676,7.592
		c23.732,10.324,54.792,16.011,87.456,16.011c32.004,0,62.596-5.484,86.139-15.442c4.328-1.831,8.359-3.797,12.094-5.88
		L279.116,180.188z M289.995,139.448c-2.951,19.914-47.41,41.187-109.1,41.187c-62.341,0-107.476-22.128-109.208-42.062
		c-0.041-1.234-0.059-70.77-0.059-70.77L290.683,67.8C290.683,67.8,290.054,138.914,289.995,139.448z M79.276,20.862h5.563
		c4.218,0,7.649,3.432,7.649,7.649v18.426H71.626V28.512C71.627,24.294,75.058,20.862,79.276,20.862z M163.683,491.138H73.278
		c-0.911,0-1.651-0.741-1.651-1.651v-19.208h93.707v19.208C165.334,490.397,164.594,491.138,163.683,491.138z M438.721,491.138
		H230.859c-0.382,0-0.754-0.134-1.048-0.376l-24.921-20.484h235.482v19.208C440.372,490.397,439.631,491.138,438.721,491.138z"/>
	<path style="fill:#231F20;" d="M219.494,327.541l-0.986-0.003c-5.774,0.01-10.459,4.609-10.493,10.37
		c-0.033,5.761,4.61,10.458,10.37,10.493l1.108,0.003c5.761,0,10.431-4.67,10.431-10.431
		C229.924,332.211,225.255,327.541,219.494,327.541z"/>
</g>
</svg>