<?xml version="1.0" encoding="iso-8859-1"?>
<!-- Generator: Adobe Illustrator 19.0.0, SVG Export Plug-In . SVG Version: 6.00 Build 0)  -->
<svg version="1.1" id="Layer_1" xmlns="http://www.w3.org/2000/svg" xmlns:xlink="http://www.w3.org/1999/xlink" x="0px" y="0px"
	 viewBox="0 0 512 512" style="enable-background:new 0 0 512 512;" xml:space="preserve">
<g>
	<rect x="288.098" y="466.356" style="fill:#515659;" width="183.281" height="36.652"/>
	<rect x="68.15" y="466.356" style="fill:#515659;" width="109.966" height="36.652"/>
</g>
<path style="fill:#FFD311;" d="M324.751,293.242c0,0,155.792,17.32,155.792,108.964l-9.164,64.151H288.094H178.123H68.15V63.127
	H31.493V8.14h329.914v54.986H324.75v229.107v1.009H324.751z"/>
<rect x="31.493" y="8.14" style="fill:#9DA1A4;" width="329.911" height="54.989"/>
<rect x="68.15" y="63.13" style="fill:#FABD1B;" width="82.483" height="403.226"/>
<path d="M405.846,305.844c-29.715-12.044-59.065-17.562-72.55-19.642V72.112h36.657V0H22.911v72.112h36.657V512h127.098v-36.657
	h92.845V512h200.413v-44.611l9.164-64.152v-0.609C489.089,361.383,460.304,327.916,405.846,305.844z M169.54,494.873H76.696v-19.53
	h92.844V494.873z M462.798,494.873H296.639v-19.53h166.159L462.798,494.873L462.798,494.873z M463.934,458.216H76.696V72.112
	h101.408V54.986H40.038V17.127h312.788v37.859h-36.657v229.107H187.268v17.127h128.904v0.103l7.611,0.853
	c0.38,0.042,38.513,4.439,75.93,19.664c47.663,19.391,71.966,46.373,72.246,80.198L463.934,458.216z"/>
<g>
	<rect x="196.435" y="54.989" style="fill:#FFFFFF;" width="18.326" height="17.127"/>
	<rect x="233.086" y="54.989" style="fill:#FFFFFF;" width="18.326" height="17.127"/>
</g>
<rect x="269.75" y="54.989" width="18.326" height="17.127"/>
<rect x="141.446" y="284.09" width="18.326" height="17.127"/>
<rect x="95.625" y="284.09" style="fill:#FFFFFF;" width="18.326" height="17.127"/>
<g>
</g>
<g>
</g>
<g>
</g>
<g>
</g>
<g>
</g>
<g>
</g>
<g>
</g>
<g>
</g>
<g>
</g>
<g>
</g>
<g>
</g>
<g>
</g>
<g>
</g>
<g>
</g>
<g>
</g>
</svg>
