<?xml version="1.0" encoding="iso-8859-1"?>

<!DOCTYPE svg PUBLIC "-//W3C//DTD SVG 1.1//EN" "http://www.w3.org/Graphics/SVG/1.1/DTD/svg11.dtd">
<!-- Uploaded to: SVG Repo, www.svgrepo.com, Generator: SVG Repo Mixer Tools -->
<svg height="800px" width="800px" version="1.1" id="_x35_" xmlns="http://www.w3.org/2000/svg" xmlns:xlink="http://www.w3.org/1999/xlink" 
	 viewBox="0 0 512 512"  xml:space="preserve">
<g>
	<g>
		<path style="fill:#EAEAEA;" d="M345.072,270.272c-0.145-3.5-3.024-6.263-6.527-6.263h-165.09c-3.503,0-6.383,2.763-6.527,6.263
			l-1.577,38.142c-0.153,3.711,2.813,6.803,6.527,6.803h168.243c3.714,0,6.681-3.092,6.527-6.803L345.072,270.272z"/>
		<path style="opacity:0.07;fill:#040000;" d="M345.564,280.156c-27.888,11.117-58.06,17.188-89.564,17.188
			s-61.676-6.071-89.564-17.188l0.491-11.746c0.149-3.51,3.03-6.273,6.529-6.273h165.089c3.499,0,6.38,2.763,6.53,6.273
			L345.564,280.156z"/>
		<g>
			<path style="fill:#FDFEFE;" d="M511.98,11.483c0,0-0.143,2.639-0.499,6.704c-0.214,2.782-0.57,6.276-0.999,10.128
				c-1.497,12.482-3.637,24.749-6.419,36.731c-1.712,7.489-3.709,14.907-5.991,22.182c-1.926,6.348-4.065,12.624-6.419,18.758
				c-2.282,6.134-4.779,12.125-7.418,17.974c-0.499,1.212-0.998,2.354-1.569,3.495c-2.924,6.419-6.134,12.624-9.486,18.758
				c-3.994,7.346-8.345,14.479-12.909,21.397c-29.385,44.435-69.398,78.955-115.687,98.569c-0.357,0.143-0.642,0.285-0.927,0.357
				c-27.388,11.483-56.845,17.759-87.657,17.759s-60.268-6.276-87.656-17.759c-0.285-0.071-0.571-0.214-0.927-0.357
				c-16.404-6.918-32.024-15.763-46.717-26.247c-23.109-16.618-43.793-37.302-61.196-61.196c-2.71-3.637-5.278-7.346-7.774-11.126
				c-4.565-6.918-8.916-14.051-12.91-21.397c-3.352-6.134-6.562-12.339-9.486-18.758c-0.571-1.141-1.07-2.282-1.569-3.495
				c-2.639-5.849-5.135-11.84-7.417-17.974c-2.354-6.134-4.493-12.41-6.419-18.758c-2.282-7.275-4.279-14.693-5.991-22.182
				c-2.782-11.982-4.921-24.25-6.419-36.731C0.448,18.972,0.02,11.483,0.02,11.483C-0.337,5.207,4.156,0,10.076,0h491.847
				C507.843,0,512.337,5.207,511.98,11.483z"/>
			<path style="fill:#A6D6BE;" d="M504.063,65.047c-1.712,7.489-3.709,14.907-5.991,22.182c-1.926,6.348-4.065,12.624-6.419,18.758
				c-2.282,6.134-4.779,12.125-7.418,17.974H27.764c-2.639-5.849-5.135-11.84-7.417-17.974c-2.354-6.134-4.493-12.41-6.419-18.758
				c-2.282-7.275-4.279-14.693-5.991-22.182H504.063z"/>
			<path style="fill:#A6D6BE;" d="M473.18,146.213c-3.994,7.346-8.345,14.479-12.909,21.397H51.729
				c-4.565-6.918-8.916-14.051-12.91-21.397H473.18z"/>
		</g>
	</g>
	<path style="opacity:0.05;fill:#040000;" d="M501.924,0H256v315.216h84.122c3.714,0,6.681-3.092,6.528-6.803l-1.167-28.226
		c0.027-0.011,0.055-0.02,0.082-0.031l-0.491-11.746c-0.034-0.789-0.246-1.523-0.532-2.214c0.016-0.007,0.026-0.01,0.042-0.016
		c46.289-19.614,86.301-54.134,115.687-98.569c4.565-6.918,8.915-14.051,12.909-21.397c3.353-6.134,6.562-12.339,9.486-18.758
		c0.571-1.141,1.07-2.282,1.569-3.495c2.639-5.849,5.135-11.84,7.418-17.974c2.353-6.134,4.493-12.41,6.419-18.758
		c2.282-7.275,4.28-14.693,5.991-22.182c2.782-11.982,4.921-24.25,6.419-36.731c0.428-3.852,0.785-7.347,0.999-10.128
		c0.357-4.065,0.499-6.704,0.499-6.704C512.337,5.207,507.843,0,501.924,0z"/>
</g>
</svg>