<?xml version="1.0" encoding="utf-8"?><!-- Uploaded to: SVG Repo, www.svgrepo.com, Generator: SVG Repo Mixer Tools -->
<svg width="800px" height="800px" viewBox="0 0 24 24" id="package-alt-2" xmlns="http://www.w3.org/2000/svg" class="icon multi-color"><title style="stroke-width: 2;">package alt 2</title><path id="tertiary-fill" d="M3,16H21a0,0,0,0,1,0,0v4a1,1,0,0,1-1,1H4a1,1,0,0,1-1-1V16A0,0,0,0,1,3,16Z" style="fill: #b7b7b7; stroke-width: 2;"></path><path id="secondary-fill" d="M3,8,7.71,3.29A1,1,0,0,1,8.41,3h7.18a1,1,0,0,1,.7.29L21,8" style="fill: rgb(44, 169, 188); stroke-width: 2;"></path><path id="primary-stroke" d="M3,8,7.71,3.29A1,1,0,0,1,8.41,3h7.18a1,1,0,0,1,.7.29L21,8m0,12V8H3V20a1,1,0,0,0,1,1H20A1,1,0,0,0,21,20ZM12,3V13" style="fill: none; stroke: rgb(0, 0, 0); stroke-linecap: round; stroke-linejoin: round; stroke-width: 2;"></path></svg>