<?xml version="1.0" encoding="iso-8859-1"?>
<!-- Uploaded to: SVG Repo, www.svgrepo.com, Generator: SVG Repo Mixer Tools -->
<svg height="800px" width="800px" version="1.1" id="Layer_1" xmlns="http://www.w3.org/2000/svg" xmlns:xlink="http://www.w3.org/1999/xlink" 
	 viewBox="0 0 512 512" xml:space="preserve">
<path style="fill:#C8FEFF;" d="M394.741,148.251v-36.744H117.259v36.744c-14.325,0-25.938,11.613-25.938,25.938v303.703
	c0,14.325,11.613,25.938,25.938,25.938h277.482c14.325,0,25.938-11.613,25.938-25.938V174.189
	C420.679,159.864,409.066,148.251,394.741,148.251z M256,430.712c-57.856,0-104.764-46.897-104.764-104.764
	c0-57.856,46.908-104.764,104.764-104.764s104.764,46.908,104.764,104.764C360.764,383.815,313.856,430.712,256,430.712z"/>
<path style="fill:#51C0C2;" d="M303.246,24.532v10.872c0,9.042-7.32,16.362-16.362,16.362h-58.64
	c-9.031,0-16.362-7.321-16.362-16.362V24.532c0-9.042,7.331-16.362,16.362-16.362h58.64C295.925,8.17,303.246,15.491,303.246,24.532
	z"/>
<path style="fill:#3C95AB;" d="M363.171,51.766H148.829c-17.441,0-31.57,14.14-31.57,31.57v28.171h277.482V83.336
	C394.741,65.906,380.612,51.766,363.171,51.766z"/>
<path style="fill:#FC9851;" d="M256,221.184c57.856,0,104.764,46.908,104.764,104.764c0,57.867-46.908,104.764-104.764,104.764
	s-104.764-46.897-104.764-104.764C151.236,268.092,198.144,221.184,256,221.184z"/>
<g>
	<circle style="fill:#700D00;" cx="256" cy="392.584" r="8.17"/>
	<circle style="fill:#700D00;" cx="303.115" cy="373.074" r="8.17"/>
	<circle style="fill:#700D00;" cx="322.636" cy="325.948" r="8.17"/>
	<circle style="fill:#700D00;" cx="303.115" cy="278.833" r="8.17"/>
	<circle style="fill:#700D00;" cx="256" cy="259.312" r="8.17"/>
	<circle style="fill:#700D00;" cx="208.885" cy="278.833" r="8.17"/>
	<circle style="fill:#700D00;" cx="189.364" cy="325.948" r="8.17"/>
	<circle style="fill:#700D00;" cx="208.885" cy="373.074" r="8.17"/>
	<path style="fill:#700D00;" d="M256,213.017c-62.272,0-112.934,50.663-112.934,112.935S193.728,438.886,256,438.886
		s112.934-50.662,112.934-112.934S318.272,213.017,256,213.017z M256,422.546c-53.262,0-96.594-43.332-96.594-96.594
		c0-53.263,43.332-96.595,96.594-96.595s96.594,43.332,96.594,96.595C352.594,379.213,309.262,422.546,256,422.546z"/>
	<circle style="fill:#700D00;" cx="256" cy="392.584" r="8.17"/>
	<circle style="fill:#700D00;" cx="303.115" cy="373.074" r="8.17"/>
	<circle style="fill:#700D00;" cx="322.636" cy="325.948" r="8.17"/>
	<circle style="fill:#700D00;" cx="303.115" cy="278.833" r="8.17"/>
	<circle style="fill:#700D00;" cx="256" cy="259.312" r="8.17"/>
	<circle style="fill:#700D00;" cx="208.885" cy="278.833" r="8.17"/>
	<circle style="fill:#700D00;" cx="189.364" cy="325.948" r="8.17"/>
	<circle style="fill:#700D00;" cx="208.885" cy="373.074" r="8.17"/>
	<path style="fill:#700D00;" d="M402.915,141.075v-21.393h4.214c4.512,0,8.17-3.657,8.17-8.17s-3.658-8.17-8.17-8.17h-4.214V83.341
		c0-21.915-17.828-39.743-39.743-39.743h-53.163c0.911-2.563,1.411-5.318,1.411-8.19V24.53C311.418,11.005,300.414,0,286.888,0
		h-58.645c-13.526,0-24.53,11.005-24.53,24.53v10.877c0,2.872,0.5,5.627,1.411,8.19h-56.295c-21.915,0-39.743,17.828-39.743,39.743
		v20.001h-4.214c-4.512,0-8.17,3.657-8.17,8.17s3.658,8.17,8.17,8.17h4.214v21.393C94.212,144.745,83.15,158.2,83.15,174.19v303.704
		C83.15,496.7,98.449,512,117.256,512h277.489c18.806,0,34.106-15.3,34.106-34.106V174.19
		C428.849,158.2,417.788,144.745,402.915,141.075z M220.054,35.408V24.53c0-4.516,3.674-8.19,8.19-8.19h58.645
		c4.515,0,8.19,3.673,8.19,8.19v10.877c0,4.516-3.674,8.19-8.19,8.19h-58.645C223.728,43.597,220.054,39.923,220.054,35.408z
		 M148.83,59.938h214.342c12.905,0,23.403,10.499,23.403,23.403v20.001H125.426V83.341C125.426,70.436,135.924,59.938,148.83,59.938
		z M412.509,477.894c0,9.796-7.969,17.765-17.765,17.765H117.256c-9.796,0-17.765-7.969-17.765-17.765V174.19
		c0-9.796,7.969-17.765,17.765-17.765c4.512,0,8.17-3.657,8.17-8.17v-28.573h261.148v28.573c0,4.513,3.658,8.17,8.17,8.17
		c9.796,0,17.765,7.969,17.765,17.765v303.704H412.509z"/>
</g>
<g>
	<path style="fill:#FFFFFF;" d="M387.998,479.319h-32.681c-4.512,0-8.17-3.657-8.17-8.17c0-4.513,3.658-8.17,8.17-8.17h32.681
		c4.512,0,8.17,3.657,8.17,8.17C396.168,475.662,392.511,479.319,387.998,479.319z"/>
	<path style="fill:#FFFFFF;" d="M322.636,479.319H124.002c-4.512,0-8.17-3.657-8.17-8.17c0-4.513,3.658-8.17,8.17-8.17h198.634
		c4.512,0,8.17,3.657,8.17,8.17C330.806,475.662,327.149,479.319,322.636,479.319z"/>
	<path style="fill:#FFFFFF;" d="M362.064,156.426H149.936c-4.512,0-8.17-3.657-8.17-8.17s3.658-8.17,8.17-8.17h212.127
		c4.512,0,8.17,3.657,8.17,8.17S366.576,156.426,362.064,156.426z"/>
</g>
</svg>