<?xml version="1.0" encoding="iso-8859-1"?>
<!-- Uploaded to: SVG Repo, www.svgrepo.com, Generator: SVG Repo Mixer Tools -->
<svg height="800px" width="800px" version="1.1" id="Layer_1" xmlns="http://www.w3.org/2000/svg" xmlns:xlink="http://www.w3.org/1999/xlink" 
	 viewBox="0 0 512.001 512.001" xml:space="preserve">
<polygon style="fill:#E0B76E;" points="347.68,257.851 255.999,503.827 83.726,406.693 83.726,212.404 "/>
<polygon style="fill:#F2CA7F;" points="255.999,115.27 83.726,212.404 255.999,309.549 255.999,503.827 428.273,406.693 
	428.273,212.404 "/>
<g>
	<polyline style="fill:#EDEBEB;" points="311.916,225.304 358.28,251.447 358.28,446.16 326.373,464.139 326.373,269.438 
		326.373,269.426 280.009,243.283 	"/>
	<polyline style="fill:#EDEBEB;" points="232.231,243.283 185.866,269.426 185.866,269.438 185.866,464.139 153.959,446.16 
		153.959,251.447 200.323,225.304 	"/>
</g>
<polygon style="fill:#79B1D6;" points="314.952,98.515 255.999,256.686 145.223,194.225 145.223,69.293 "/>
<polygon style="fill:#8CC1EA;" points="255.999,6.833 145.223,69.293 255.999,131.759 255.999,256.686 366.776,194.225 
	366.776,69.293 "/>
<polygon style="fill:#9CD2F4;" points="365.614,68.55 325.453,91.199 293.557,109.178 254.843,131.01 144.061,68.55 182.775,46.718 
	214.682,28.727 254.843,6.089 "/>
<path d="M437.412,211.181c0-3.16-1.702-6.074-4.455-7.627l-58.539-33.012V70.593c0-3.16-1.702-6.076-4.455-7.627l-48.462-27.327
	c-4.211-2.375-9.552-0.886-11.927,3.326c-2.376,4.212-0.886,9.552,3.326,11.927l34.936,19.7l-91.836,51.784l-91.836-51.784
	l91.836-51.784l28.323,15.97c4.212,2.376,9.552,0.887,11.927-3.326c2.376-4.212,0.886-9.552-3.326-11.928L260.3,1.129
	c-2.669-1.505-5.932-1.505-8.601,0L142.036,62.965c-2.753,1.553-4.455,4.468-4.455,7.627v99.957l-58.53,33.002
	c-2.724,1.535-4.413,4.406-4.449,7.527c-0.001,0.034-0.012,0.064-0.012,0.098v28.42c0,4.836,3.92,8.756,8.756,8.756
	c4.836,0,8.756-3.92,8.756-8.756v-13.431l53.102,29.944v174.604l-53.102-29.942V268.787c0-4.836-3.92-8.756-8.756-8.756
	c-4.836,0-8.756,3.92-8.756,8.756V405.89c0,3.16,1.702,6.076,4.455,7.627l172.654,97.355c1.334,0.753,2.818,1.129,4.301,1.129
	s2.967-0.376,4.301-1.129l172.653-97.355c2.753-1.552,4.455-4.467,4.455-7.627V211.231
	C437.408,211.215,437.412,211.197,437.412,211.181z M410.829,211.18L358.28,240.81l-28.669-16.165l40.352-22.753
	c2.753-1.553,4.455-4.468,4.455-7.627v-3.619L410.829,211.18z M214.404,242.699l-28.667,16.165l-14.068-7.933l28.668-16.165
	L214.404,242.699z M251.699,263.729c1.334,0.753,2.818,1.129,4.301,1.129s2.967-0.376,4.301-1.129l19.588-11.046l28.668,16.165
	l-52.559,29.636l-52.434-29.568l28.669-16.165L251.699,263.729z M247.243,313.653v174.6l-52.621-29.672V283.98L247.243,313.653z
	 M264.755,313.651l52.861-29.807v174.603l-52.861,29.807V313.651z M326.383,258.796l-28.667-16.165l14.069-7.933l28.669,16.165
	L326.383,258.796z M356.906,85.582v103.567l-92.15,51.961V137.543L356.906,85.582z M247.243,137.544v103.567l-92.152-51.961V85.583
	L247.243,137.544z M137.581,190.655v3.61c0,3.16,1.702,6.076,4.455,7.627l40.472,22.821l-28.667,16.165l-52.664-29.697
	L137.581,190.655z M162.715,265.987l14.395,8.118v174.603l-14.395-8.117V265.987z M367.036,430.581V309.063
	c0-4.836-3.92-8.756-8.756-8.756c-4.836,0-8.756,3.92-8.756,8.756v131.392l-14.395,8.117V273.969l14.395-8.117v14.024
	c0,4.836,3.92,8.756,8.756,8.756c4.836,0,8.756-3.92,8.756-8.756v-23.898l52.86-29.806v174.601L367.036,430.581z"/>
</svg>