<?xml version="1.0" encoding="iso-8859-1"?>
<!-- Generator: Adobe Illustrator 19.0.0, SVG Export Plug-In . SVG Version: 6.00 Build 0)  -->
<svg version="1.1" id="Layer_1" xmlns="http://www.w3.org/2000/svg" xmlns:xlink="http://www.w3.org/1999/xlink" x="0px" y="0px"
	 viewBox="0 0 512 512" style="enable-background:new 0 0 512 512;" xml:space="preserve">
<path style="fill:#355468;" d="M256.95,68.567c-41.691,0-80.911-16.229-110.431-45.698c-3.063-3.057-3.068-8.02-0.009-11.083
	c3.057-3.064,8.02-3.068,11.083-0.009c54.786,54.69,143.929,54.69,198.716,0c3.064-3.058,8.025-3.052,11.083,0.009
	c3.057,3.064,3.053,8.026-0.009,11.083C337.86,52.338,298.641,68.567,256.95,68.567z"/>
<g>
	<ellipse style="fill:#EFBA50;" cx="146.923" cy="15.059" rx="15.086" ry="15.059"/>
	<ellipse style="fill:#EFBA50;" cx="366.968" cy="15.059" rx="15.085" ry="15.059"/>
</g>
<path style="fill:#355468;" d="M255.899,470.317c-117.907,0-213.832-94.942-213.832-211.641S137.992,47.034,255.899,47.034
	c41.775,0,82.247,11.926,117.042,34.491c33.915,21.994,60.728,52.862,77.539,89.27c1.814,3.929,0.1,8.586-3.83,10.4
	c-3.931,1.815-8.586,0.1-10.4-3.83c-15.568-33.716-40.409-62.308-71.838-82.689c-32.249-20.914-69.773-31.968-108.515-31.968
	c-109.265,0-198.159,87.91-198.159,195.967s88.894,195.967,198.159,195.967s198.16-87.91,198.16-195.967
	c-0.001-18.859-2.703-37.503-8.032-55.413c-1.234-4.148,1.128-8.512,5.277-9.746c4.149-1.236,8.512,1.128,9.746,5.277
	c5.761,19.361,8.682,39.509,8.683,59.882C469.732,375.375,373.807,470.317,255.899,470.317z"/>
<g>
	<ellipse style="fill:#EFBA50;" cx="255.895" cy="458.501" rx="54.07" ry="53.499"/>
	<path style="fill:#EFBA50;" d="M222.363,75.763h69.175c5.929,0,10.779-4.85,10.779-10.779V52c0-5.929-4.85-10.779-10.779-10.779
		h-69.175c-5.929,0-10.779,4.85-10.779,10.779v12.985C211.583,70.913,216.434,75.763,222.363,75.763z"/>
	<path style="fill:#EFBA50;" d="M452.459,396.697c-10.039-14.608-10.291-17.406-2.979-33.266c1.994-4.33,0.829-9.521-2.834-12.626
		c-1.947-1.65-4.422-2.559-6.968-2.559c-2.131,0-4.186,0.626-5.948,1.81c-8.734,5.878-12.887,7.765-17.089,7.765
		c-4.148,0-9.327-2.032-16.336-5.31c-1.441-0.675-2.975-1.017-4.56-1.017c-3.129,0-6.08,1.359-8.095,3.727
		c-3.104,3.644-3.367,8.961-0.637,12.932c10.039,14.606,10.29,17.403,2.978,33.266c-1.994,4.33-0.828,9.522,2.834,12.623
		c1.948,1.651,4.423,2.56,6.969,2.56c2.129,0,4.185-0.626,5.949-1.811c8.733-5.878,12.886-7.764,17.087-7.764
		c4.149,0,9.328,2.032,16.341,5.313c1.44,0.673,2.973,1.014,4.556,1.014c3.129,0,6.081-1.359,8.099-3.729
		C454.925,405.984,455.186,400.667,452.459,396.697z"/>
	<path style="fill:#EFBA50;" d="M114.734,348.09c-1.585,0-3.119,0.342-4.559,1.016c-7.01,3.279-12.189,5.31-16.338,5.311h-0.001
		c-4.2,0-8.353-1.887-17.087-7.764c-1.761-1.185-3.817-1.811-5.948-1.811c-2.546,0-5.021,0.909-6.968,2.559
		c-3.663,3.105-4.828,8.296-2.834,12.628c7.311,15.859,7.06,18.658-2.979,33.265c-2.729,3.971-2.468,9.287,0.633,12.928
		c2.018,2.37,4.968,3.73,8.098,3.73l0,0c1.585,0,3.118-0.342,4.558-1.016c7.012-3.28,12.191-5.311,16.339-5.311
		c4.202,0,8.355,1.886,17.088,7.764c1.762,1.185,3.818,1.811,5.948,1.811c2.546,0,5.021-0.909,6.969-2.56
		c3.663-3.104,4.828-8.297,2.833-12.627c-7.312-15.862-7.061-18.66,2.981-33.266c2.726-3.97,2.465-9.287-0.638-12.932
		C120.812,349.448,117.861,348.09,114.734,348.09z"/>
</g>
<path style="opacity:0.1;enable-background:new    ;" d="M224.261,458.503c0-25.739,18.376-47.225,42.854-52.336
	c-3.62-0.755-7.371-1.16-11.217-1.16c-29.862,0-54.07,23.95-54.07,53.496c0,29.544,24.208,53.497,54.07,53.497
	c3.846,0,7.596-0.404,11.217-1.16C242.637,505.731,224.261,484.243,224.261,458.503z"/>
<ellipse style="fill:#BF953E;" cx="255.895" cy="458.501" rx="22.668" ry="22.428"/>
<g>
	<ellipse style="fill:#B9F5ED;" cx="356.456" cy="436.684" rx="29.818" ry="29.497"/>
	<ellipse style="fill:#B9F5ED;" cx="154.018" cy="436.684" rx="29.818" ry="29.497"/>
	<ellipse style="fill:#B9F5ED;" cx="55.276" cy="301.265" rx="29.817" ry="29.497"/>
	<ellipse style="fill:#B9F5ED;" cx="456.725" cy="301.265" rx="29.817" ry="29.497"/>
</g>
<path style="opacity:0.1;enable-background:new    ;" d="M348.364,436.687c0-12.499,7.861-23.176,18.954-27.472
	c-3.367-1.304-7.028-2.028-10.862-2.028c-16.469,0-29.818,13.21-29.818,29.501c0,16.294,13.35,29.502,29.818,29.502
	c3.834,0,7.495-0.723,10.862-2.027C356.223,459.865,348.364,449.188,348.364,436.687z"/>
<path style="opacity:0.1;enable-background:new    ;" d="M145.926,436.688c0-12.499,7.862-23.175,18.956-27.472
	c-3.367-1.304-7.028-2.028-10.862-2.028c-16.469,0-29.818,13.209-29.818,29.501c0,16.294,13.35,29.501,29.818,29.501
	c3.834,0,7.495-0.723,10.862-2.027C153.788,459.865,145.926,449.188,145.926,436.688z"/>
<path style="opacity:0.1;enable-background:new    ;" d="M48.095,301.263c0-12.328,7.644-22.884,18.499-27.296
	c-3.491-1.418-7.311-2.206-11.318-2.206c-16.468,0-29.817,13.209-29.817,29.501c0,16.294,13.35,29.502,29.817,29.502
	c4.007,0,7.827-0.788,11.318-2.206C55.74,324.148,48.095,313.592,48.095,301.263z"/>
<path style="opacity:0.1;enable-background:new    ;" d="M449.542,301.263c0-12.328,7.645-22.884,18.499-27.296
	c-3.49-1.418-7.31-2.206-11.318-2.206c-16.468,0-29.817,13.209-29.817,29.501c0,16.294,13.35,29.502,29.817,29.502
	c4.007,0,7.827-0.788,11.318-2.206C457.188,324.148,449.542,313.592,449.542,301.263z"/>
<path style="opacity:0.1;enable-background:new    ;" d="M234.123,64.984V52c0-5.929,4.85-10.779,10.779-10.779h-22.539
	c-5.929,0-10.779,4.85-10.779,10.779v12.985c0,5.929,4.85,10.779,10.779,10.779h22.539
	C238.973,75.763,234.123,70.913,234.123,64.984z"/>
<rect x="249.114" y="41.221" style="fill:#BF953E;" width="15.673" height="34.544"/>
<g>
</g>
<g>
</g>
<g>
</g>
<g>
</g>
<g>
</g>
<g>
</g>
<g>
</g>
<g>
</g>
<g>
</g>
<g>
</g>
<g>
</g>
<g>
</g>
<g>
</g>
<g>
</g>
<g>
</g>
</svg>
