<?xml version="1.0" encoding="iso-8859-1"?>
<!-- Generator: Adobe Illustrator 19.0.0, SVG Export Plug-In . SVG Version: 6.00 Build 0)  -->
<svg version="1.1" id="Layer_1" xmlns="http://www.w3.org/2000/svg" xmlns:xlink="http://www.w3.org/1999/xlink" x="0px" y="0px"
	 viewBox="0 0 491.945 491.945" style="enable-background:new 0 0 491.945 491.945;" xml:space="preserve">
<path style="fill:#76999B;" d="M408.11,174.419h-24.009V45.473c0-5.545-4.537-10.082-10.106-10.082H117.948
	c-5.577,0-10.106,4.537-10.106,10.082v128.945H83.833V45.473c0-18.794,15.305-34.107,34.115-34.107h256.047
	c18.81,0,34.115,15.313,34.115,34.107V174.419z"/>
<g>
	<path style="fill:#5D7C7C;" d="M117.948,35.391c-18.81,0-34.115,15.297-34.115,34.107v104.921h24.009V69.498V45.473
		C107.842,39.928,112.371,35.391,117.948,35.391z"/>
	<path style="fill:#5D7C7C;" d="M373.995,35.391c5.569,0,10.106,4.537,10.106,10.082v24.025v104.921h24.009V69.498
		C408.11,50.688,392.805,35.391,373.995,35.391z"/>
</g>
<path style="fill:#8CAFAF;" d="M364.606,461.856c0,16.612-13.462,30.082-30.082,30.082H167.439
	c-16.605,0-30.066-13.47-30.066-30.082l-60.156-284.05c0-16.62,13.462-30.058,30.082-30.058h277.346
	c16.62,0,30.074,13.438,30.074,30.058L364.606,461.856z"/>
<path style="fill:#76999B;" d="M77.216,177.814c0-16.62,13.462-30.058,30.082-30.058h277.346c16.62,0,30.074,13.438,30.074,30.058
	l-50.113,284.05c0,16.612-13.462,30.082-30.082,30.082"/>
<ellipse style="fill:#547272;" cx="245.972" cy="153.088" rx="148.488" ry="17.006"/>
<path style="fill:#3F5655;" d="M394.467,153.088c0,9.397-66.481,17.006-148.496,17.006s-148.488-7.609-148.488-17.006"/>
<circle style="fill:#9DC1C0;" cx="80.879" cy="166.432" r="20.015"/>
<path style="fill:#8CAFAF;" d="M95.034,152.277c7.814,7.814,7.814,20.488,0,28.302c-7.814,7.814-20.496,7.814-28.302,0.016"/>
<circle style="fill:#9DC1C0;" cx="411.072" cy="166.432" r="20.007"/>
<path style="fill:#8CAFAF;" d="M425.227,152.277c7.806,7.814,7.806,20.488,0,28.302c-7.822,7.814-20.512,7.814-28.318,0.016"/>
<path style="fill:#FF6D00;" d="M307.357,40.393c0,3.489-2.82,6.309-6.309,6.309H190.873c-3.474,0-6.294-2.812-6.294-6.309V6.309
	c0-3.505,2.812-6.309,6.294-6.309h110.175c3.482,0,6.309,2.796,6.309,6.309V40.393z"/>
<path style="fill:#FF8B00;" d="M301.055,0H190.873c-3.474,0-6.294,2.796-6.294,6.309v9.405c0,3.482,2.812,6.309,6.294,6.309h110.175
	c3.482,0,6.309-2.82,6.309-6.309V6.309C307.357,2.804,304.537,0,301.055,0z"/>
<g>
	<circle style="fill:#8CAFAF;" cx="163.894" cy="228.407" r="6.002"/>
	<circle style="fill:#8CAFAF;" cx="204.933" cy="228.407" r="6.002"/>
	<circle style="fill:#8CAFAF;" cx="245.972" cy="228.407" r="6.01"/>
	<circle style="fill:#8CAFAF;" cx="286.987" cy="228.407" r="6.002"/>
	<circle style="fill:#8CAFAF;" cx="328.018" cy="228.407" r="6.002"/>
</g>
<g>
</g>
<g>
</g>
<g>
</g>
<g>
</g>
<g>
</g>
<g>
</g>
<g>
</g>
<g>
</g>
<g>
</g>
<g>
</g>
<g>
</g>
<g>
</g>
<g>
</g>
<g>
</g>
<g>
</g>
</svg>
