<?xml version="1.0" encoding="iso-8859-1"?>
<!-- Uploaded to: SVG Repo, www.svgrepo.com, Generator: SVG Repo Mixer Tools -->
<svg fill="#000000" height="800px" width="800px" version="1.1" id="Layer_1" xmlns="http://www.w3.org/2000/svg" xmlns:xlink="http://www.w3.org/1999/xlink" 
	 viewBox="0 0 512 512" xml:space="preserve">
<g>
	<g>
		<path d="M504.533,464.904H486.4v-33.808v-17.067v-42.667v-17.067v-76.75c0-108.25-86.963-196.642-195.167-196.642h-26.7v-46.9
			c6.4-4.019,19.802-12.331,42.538-12.494c9.275,0.16,17.037,7.744,17.037,17.052c0,9.408-7.521,17.067-16.933,17.067
			s-17-7.658-17-17.067c0-4.717-3.788-8.533-8.5-8.533c-4.713,0-8.517,3.817-8.517,8.533c0,18.825,15.321,34.133,34.142,34.133
			c9.513,0,18.123-3.919,24.319-10.217c3.347,7.204,8.786,13.217,15.804,17.267c1.346,0.775,2.813,1.142,4.26,1.142
			c2.95,0,5.821-1.533,7.4-4.267c2.354-4.083,0.954-9.3-3.125-11.658c-5.067-2.925-8.692-7.642-10.204-13.292
			c-1.517-5.658-0.737-11.558,2.183-16.625c6.046-10.45,19.471-14.05,29.921-8.008c5.067,2.925,8.688,7.642,10.204,13.292
			c1.513,5.65,0.733,11.55-2.188,16.617c-2.358,4.083-0.963,9.3,3.121,11.658c4.067,2.342,9.296,0.958,11.654-3.125
			c5.208-9.008,6.592-19.508,3.896-29.567c-2.696-10.05-9.142-18.458-18.154-23.658c-16.749-9.671-37.769-5.41-49.637,9.129
			c-5.621-9.598-15.777-16.196-27.518-16.856c-0.323-0.037-0.639-0.098-0.971-0.098c-0.204,0-0.39,0.017-0.593,0.019
			c-0.123-0.002-0.242-0.019-0.366-0.019c-0.147,0-0.283,0.035-0.429,0.044c-24.919,0.321-41.575,9.004-49.813,14.698
			c-8.393-5.802-25.491-14.742-51.2-14.742c-12.917,0-24.179,7.213-29.975,17.823c-5.19-6.771-12.388-11.646-20.767-13.889
			c-10.058-2.692-20.558-1.317-29.567,3.892c-9.013,5.2-15.463,13.608-18.159,23.659c-2.696,10.058-1.312,20.558,3.896,29.566
			c2.346,4.083,7.571,5.475,11.654,3.125c4.083-2.358,5.479-7.575,3.121-11.658c-2.921-5.067-3.7-10.967-2.183-16.617
			c1.512-5.65,5.138-10.367,10.204-13.292c5.071-2.933,10.962-3.725,16.617-2.192c5.65,1.517,10.371,5.133,13.296,10.2
			c2.925,5.067,3.704,10.967,2.187,16.625c-1.512,5.65-5.138,10.367-10.204,13.292c-4.079,2.358-5.479,7.575-3.125,11.658
			c1.579,2.733,4.45,4.267,7.4,4.267c1.446,0,2.913-0.367,4.258-1.142c7.314-4.219,12.898-10.575,16.2-18.181
			c6.245,6.821,15.191,11.131,25.146,11.131c18.821,0,34.133-15.308,34.133-34.133c0-4.717-3.821-8.533-8.533-8.533
			s-8.533,3.817-8.533,8.533c0,9.408-7.654,17.067-17.067,17.067S188.8,47.971,188.8,38.562c0-9.408,7.121-17.067,16.533-17.067
			c23.167,0,37.867,8.475,42.133,12.508v46.9H222.9c-108.204,0-197.3,88.392-197.3,196.642v76.75v17.067v42.667v17.067v33.808h-16
			c-4.713,0-9.6,4.142-9.6,8.858v25.6c0,4.717,4.887,8.208,9.6,8.208h494.933c4.713,0,7.467-3.492,7.467-8.208v-25.6
			C512,469.046,509.246,464.904,504.533,464.904z M469.333,277.546v76.425H409.6V234.796c0-54.79-28.871-102.942-72.18-130.127
			C413.35,125.467,469.333,195.067,469.333,277.546z M409.6,413.704v-42.667h59.733v42.667H409.6z M469.333,430.771v34.133H409.6
			v-34.133H469.333z M392.533,234.796v119.175H332.8v-196c0-16.558-5.293-31.894-14.252-44.446
			C362.445,136.246,392.533,182.06,392.533,234.796z M332.8,413.704v-42.667h59.733v42.667H332.8z M392.533,430.771v34.133H332.8
			v-34.133H392.533z M196.267,157.971c0-31.879,25.679-57.994,57.195-59.596c1.025-0.025,2.308-0.079,3.338-0.079
			c1.03,0,1.648,0.054,2.672,0.079c31.516,1.602,56.262,27.716,56.262,59.596v196H196.267V157.971z M196.267,371.038h119.467v42.667
			H196.267V371.038z M196.267,430.771h119.467v34.133H196.267V430.771z M119.467,413.704v-42.667H179.2v42.667H119.467z
			 M179.2,430.771v34.133h-59.733v-34.133H179.2z M119.467,353.971V234.796c0-52.735,30.089-98.55,73.985-121.271
			c-8.959,12.552-14.252,27.888-14.252,44.446v196H119.467z M42.667,277.546c0-82.479,55.983-152.079,131.915-172.877
			c-43.311,27.185-72.181,75.338-72.181,130.127v119.175H42.667V277.546z M42.667,371.038H102.4v42.667H42.667V371.038z
			 M42.667,430.771H102.4v34.133H42.667V430.771z M494.933,490.504H17.067v-8.533H35.2H112h76.8h136.533h76.8h76.8h16V490.504z"/>
	</g>
</g>
</svg>