<?xml version="1.0" standalone="no"?><!DOCTYPE svg PUBLIC "-//W3C//DTD SVG 1.1//EN" "http://www.w3.org/Graphics/SVG/1.1/DTD/svg11.dtd"><svg t="1737726532108" class="icon" viewBox="0 0 1024 1024" version="1.1" xmlns="http://www.w3.org/2000/svg" p-id="5564" xmlns:xlink="http://www.w3.org/1999/xlink" width="200" height="200"><path d="M867.319759 883.501843L114.749811 758.470825V402.388732h752.569948z" fill="#EEF5F6" p-id="5565"></path><path d="M287.45761 694.465674H189.841771a10.301811 10.301811 0 0 1-10.301811-10.301811v-118.2174a10.301811 10.301811 0 0 1 10.301811-10.301811h97.613778a10.301811 10.301811 0 0 1 10.301811 10.301811v118.2174a10.29769 10.29769 0 0 1-10.29975 10.301811z" fill="#A4CCFF" p-id="5566"></path><path d="M308.061231 555.644652h-41.207243a10.301811 10.301811 0 0 1 10.301811 10.301811v118.2174a10.301811 10.301811 0 0 1-10.301811 10.301811h41.207243a10.301811 10.301811 0 0 0 10.301811-10.301811v-118.2174a10.301811 10.301811 0 0 0-10.301811-10.301811z" fill="#8BB3EA" p-id="5567"></path><path d="M844.46004 402.388732h64.790149v481.113111H844.46004z" fill="#DEECF1" p-id="5568"></path><path d="M844.46004 758.470825H114.749811v146.347525h762.105304zM877.621569 510.040596c-50.480934 0-91.405907-40.922913-91.405907-91.405908l-20.603622-94.782841 203.415437 20.603622v74.179219c0 50.482994-40.922913 91.405907-91.405908 91.405908z" fill="#F26C72" p-id="5569"></path><path d="M844.46004 758.470825h65.189859v146.347525h-65.189859z" fill="#E95059" p-id="5570"></path><path d="M694.811815 510.040596c-50.482994 0-91.405907-40.922913-91.405908-91.405908l-20.603621-94.782841 203.415436 20.603622v74.179219c-0.00206 50.482994-40.924974 91.405907-91.405907 91.405908z" fill="#FDE588" p-id="5571"></path><path d="M512 510.040596c-50.480934 0-91.405907-40.922913-91.405907-91.405908l-22.663984-94.782841 205.475798 20.603622v74.179219c0 50.482994-40.924974 91.405907-91.405907 91.405908z" fill="#F26C72" p-id="5572"></path><path d="M907.216612 338.196089v80.438599c0 39.633127-25.229135 73.363316-60.500475 86.036604a91.201932 91.201932 0 0 0 30.905432 5.369304c50.480934 0 91.405907-40.922913 91.405908-91.405908v-74.179219z" fill="#E95059" p-id="5573"></path><path d="M329.190245 510.040596c-50.482994 0-91.405907-40.922913-91.405907-91.405908l-20.603622-94.782841 203.415437 20.603622v74.179219c-0.00206 50.482994-40.924974 91.405907-91.405908 91.405908z" fill="#FDE588" p-id="5574"></path><path d="M146.378431 510.040596c-50.482994 0-91.405907-40.922913-91.405908-91.405908v-74.179219l182.811815-20.603622v94.782841c0 50.482994-40.924974 91.405907-91.405907 91.405908z" fill="#F26C72" p-id="5575"></path><path d="M864.587718 236.671742H134.687936a30.905433 30.905433 0 0 0-26.809433 15.531011l-52.903919 92.254776H944.305191l-52.903919-92.254776a30.911614 30.911614 0 0 0-26.813554-15.531011z" fill="#A4CCFF" p-id="5576"></path><path d="M916.123557 252.202753a30.909553 30.909553 0 0 0-26.809432-15.531011h-61.810865a30.905433 30.905433 0 0 1 26.809432 15.531011l52.90392 92.254776h61.810865z" fill="#8BB3EA" p-id="5577"></path><path d="M788.453215 275.140765H214.943163c-11.37938 0-20.603622-9.224241-20.603622-20.603622V78.293763c0-11.37938 9.224241-20.603622 20.603622-20.603622h573.510052c11.37938 0 20.603622 9.224241 20.603622 20.603622v176.24338c0 11.37938-9.224241 20.603622-20.603622 20.603622z" fill="#FDE588" p-id="5578"></path><path d="M809.056837 57.690141h-43.267606c11.37938 0 20.603622 9.224241 20.603622 20.603622v176.24338c0 11.37938-9.224241 20.603622-20.603622 20.603622h43.267606c11.37938 0 20.603622-9.224241 20.603622-20.603622V78.293763c0-11.37938-9.224241-20.603622-20.603622-20.603622z" fill="#FDD76F" p-id="5579"></path><path d="M475.459477 90.334519a15.452716 15.452716 0 0 0-15.452716 15.452716v43.706463h-53.878471V105.787235c0-8.53402-6.916636-15.452716-15.452717-15.452716s-15.452716 6.918696-15.452716 15.452716v122.519437c0 8.53402 6.916636 15.452716 15.452716 15.452716s15.452716-6.918696 15.452717-15.452716V180.399131h53.878471v47.909601c0 8.53402 6.916636 15.452716 15.452716 15.452717s15.452716-6.918696 15.452716-15.452717V105.787235a15.452716 15.452716 0 0 0-15.452716-15.452716zM322.522913 153.515525c-15.026221-5.542374-29.01608-11.577175-33.336659-13.468587-3.265674-2.637264-3.154414-6.304708-2.933956-7.835558 0.304934-2.136596 1.860507-7.357553 9.648676-9.704306 17.195783-5.171509 33.134744 7.404942 33.590084 7.769626a15.452716 15.452716 0 0 0 19.806262-23.72507c-1.159984-0.972491-28.760596-23.743614-62.309473-13.637537-16.965022 5.109698-28.968692 18.485569-31.325746 34.904595-2.212829 15.409449 4.466865 30.231694 17.428603 38.6833 0.68404 0.445038 1.401046 0.834447 2.144837 1.166165 0.708765 0.317296 17.585191 7.829376 36.592032 14.838728 5.340459 1.969706 17.583131 7.522382 15.976049 16.526165-1.211493 6.793014-9.49827 13.818849-21.267059 13.818849-12.139654 0-23.819847-4.8913-31.243332-13.08536a15.454777 15.454777 0 0 0-22.900925 20.751968c13.186318 14.552338 33.427316 23.238825 54.144257 23.238825 25.88639 0 47.627332-16.524105 51.692427-39.291107 3.059638-17.133972-4.714109-39.519807-35.706077-50.950696zM724.907525 90.334519h-34.115477c-8.422761 0-15.452716 7.032016-15.452716 15.452716v122.519437c0 8.53402 6.916636 15.452716 15.452716 15.452716s15.452716-6.918696 15.452717-15.452716v-37.848853c6.82598-0.035026 14.317457-0.065932 18.66276-0.065932 27.957054 0 50.703453-22.443525 50.703453-50.029714s-22.746398-50.027654-50.703453-50.027654z m0 69.151936c-4.314398 0-11.715219 0.030905-18.508233 0.065931-0.037087-7.029956-0.067992-14.756314-0.067992-19.190213 0-3.760161-0.018543-11.758487-0.039147-19.122221h18.615372c10.732427 0 19.79802 8.756539 19.79802 19.122221s-9.065594 19.124282-19.79802 19.124282zM582.262471 90.334519c-42.299235 0-76.713465 34.412169-76.713465 76.711405s34.414229 76.713465 76.713465 76.713464 76.711404-34.414229 76.711404-76.713464-34.412169-76.711404-76.711404-76.711405z m0 122.521497c-25.26004 0-45.808032-20.550052-45.808032-45.808032s20.550052-45.805972 45.808032-45.805972 45.805972 20.550052 45.805972 45.805972c0 25.25798-20.550052 45.808032-45.805972 45.808032zM617.834624 903.936515l-232.272869-20.603622V565.946463a10.301811 10.301811 0 0 1 10.30181-10.301811H496.547284l15.652571 20.603622 15.252861-20.603622h80.080097a10.301811 10.301811 0 0 1 10.301811 10.301811z" fill="#A4CCFF" p-id="5580"></path><path d="M628.136435 555.644652h-41.207244a10.301811 10.301811 0 0 1 10.301811 10.301811v337.990052l41.207243-20.603622V565.946463a10.301811 10.301811 0 0 0-10.30181-10.301811z" fill="#8BB3EA" p-id="5581"></path><path d="M496.547284 883.332893l30.905432 20.603622V555.644652h-30.905432z" fill="#EEF5F6" p-id="5582"></path><path d="M931.283702 883.501843H51.509054c-28.447421 0-51.509054 23.061634-51.509054 51.509054V956.008048a10.301811 10.301811 0 0 0 10.301811 10.301811h962.189135a10.301811 10.301811 0 0 0 10.301811-10.301811v-20.997151c0-28.447421-23.061634-51.509054-51.509055-51.509054z" fill="#7F8C93" p-id="5583"></path><path d="M972.490946 883.501843h-62.841047c28.447421 0 51.509054 23.061634 51.509055 51.509054V956.008048a10.301811 10.301811 0 0 1-10.301811 10.301811H1013.698189a10.301811 10.301811 0 0 0 10.301811-10.301811v-20.997151c0-28.447421-23.061634-51.509054-51.509054-51.509054z" fill="#455B6B" p-id="5584"></path><path d="M813.554608 694.465674h-97.613779a10.301811 10.301811 0 0 1-10.301811-10.301811v-118.2174a10.301811 10.301811 0 0 1 10.301811-10.301811h97.613779a10.301811 10.301811 0 0 1 10.301811 10.301811v118.2174a10.301811 10.301811 0 0 1-10.301811 10.301811z" fill="#A4CCFF" p-id="5585"></path><path d="M834.158229 555.644652h-41.207243a10.301811 10.301811 0 0 1 10.301811 10.301811v118.2174a10.301811 10.301811 0 0 1-10.301811 10.301811h41.207243a10.301811 10.301811 0 0 0 10.301811-10.301811v-118.2174a10.301811 10.301811 0 0 0-10.301811-10.301811z" fill="#8BB3EA" p-id="5586"></path></svg>