<?xml version="1.0" standalone="no"?><!DOCTYPE svg PUBLIC "-//W3C//DTD SVG 1.1//EN" "http://www.w3.org/Graphics/SVG/1.1/DTD/svg11.dtd"><svg t="1737726463160" class="icon" viewBox="0 0 1175 1024" version="1.1" xmlns="http://www.w3.org/2000/svg" p-id="4419" xmlns:xlink="http://www.w3.org/1999/xlink" width="229.4921875" height="200"><path d="M1172.993046 392.651343c-7.041208-28.706464-20.040361-55.246402-30.331358-82.689059-13.540785-35.747672-28.887007-71.134256-42.066705-107.062471-12.999153-35.747672-28.52592-70.412081-40.622354-106.52084-6.499577-19.318186-16.248942-37.372566-30.331358-52.718789-9.207734-9.929909-19.679274-18.234923-29.97027-26.901026-12.096434-10.290996-24.915044-14.985135-39.358547-15.70731-48.205194-2.166526-96.410387-0.541631-144.435038 0.902719-50.191175 1.44435-100.562895 1.624894-150.934613 3.79142-71.675887 3.069245-143.351774 1.44435-215.027662 0.722175-40.802898-0.361088-81.425252 0.722175-122.22815 0.361088C289.411706 6.468162 251.136421 1.954567 212.680592 5.565443 185.96011 7.912512 162.850504 16.578615 143.893406 36.257888 118.075643 62.797827 105.257033 96.017885 94.424406 130.140663c-8.666102 27.081569-17.512748 54.163139-27.803745 80.703077-9.929909 25.637219-19.49873 51.454982-29.248095 77.272745-4.333051 15.887854-12.457522 30.511902-16.248942 46.399755-6.860664 24.012325-20.762537 45.677581-21.123624 72.217519 0 10.832628 3.610876 20.401449 4.152507 30.692445 2.166526 37.914197 2.166526 75.828395 6.680121 113.742592 5.055226 41.886161 12.457522 83.23069 18.234923 124.936307 1.624894 12.096434 11.193715 18.776555 22.748519 14.804592 10.290996-3.430332 9.749365 2.166526 9.929908 8.305014 0.180544 12.638066-0.902719 25.456675 0.180544 38.094741 3.610876 42.78888 8.485558 85.57776 11.735347 128.547183 2.527613 34.844953 7.763383 68.96773 24.012325 100.382351 14.26296 27.623201 36.289303 46.038668 67.52338 47.844106 45.858124 2.708157 91.716249 2.347069 137.574373 3.971964 65.356854 2.347069 130.713709 2.166526 196.070563 3.610876 88.647004 1.805438 177.474552 0 266.3021 0 18.596011 0 37.192022-1.624894 55.426945-0.541632 18.05438 1.083263 36.289303 1.985982 54.163139 2.34707 41.525073 0.722175 83.591778 1.985982 124.57522-6.319033 25.095588-5.23577 50.732807-12.999153 61.204347-41.163986 9.02719-24.012325 18.234923-47.483018 20.220905-73.842412 2.347069-30.511902 8.485558-60.843259 13.540785-91.174618 5.777401-33.581146 7.402296-67.52338 8.12447-101.465613 0-7.221752 1.805438-10.47154 10.471541-9.388278 17.512748 1.985982 26.720482-6.138489 27.262113-23.470693 0.722175-21.484712 6.319033-42.066705 10.832628-62.648698 6.860664-31.956252 9.749365-64.273592 14.985135-96.229843 5.416314-33.76169 2.888701-68.065011 7.402295-101.826701 1.083263-7.582839 1.805438-14.804591 0-22.748519z m-540.909214-146.059932s1.263807-1.985982 2.8887-2.347069c1.985982-0.541631 4.152507 0.361088 5.596858 2.347069 5.777401 7.402296 13.360241 12.638066 19.318186 19.859818 23.109606 27.442657 50.913351 47.663562 88.466461 50.732807 12.096434 0.902719 29.789726 18.596011 30.331357 30.331358 0 1.44435 0 2.527613-0.722175 3.610876-1.624894 3.430332-5.596858 4.874683-7.221752 5.23577-65.356854 21.123624-77.453289 26.720482-77.453288 26.720482-5.055226 2.347069-10.652084 5.23577-16.61003 3.069244-9.02719-3.069245-12.276978-15.346223-13.360241-19.318186-5.23577-18.05438-19.318186-49.469-45.497036-99.118544a13.847709 13.847709 0 0 1 0-8.305015c2.347069-6.319033 9.02719-5.957945 13.901872-13.179697z m-100.562895 338.700163c-1.624894-25.817763-3.249788-51.635526-4.694139-77.272745q-2.527613-29.789726 27.262113-29.428639c19.318186 0.180544 38.816916 1.44435 58.135103-0.722175 5.23577-0.541631 5.596858 1.805438 5.596858 6.499576-1.083263 50.732807-4.152507 101.646157-0.902719 152.378965 0.180544 3.971964-0.180544 8.124471 0 12.096434 0 5.777401-2.708157 7.763383-8.124471 7.763383-21.845799-0.180544-43.691599-0.361088-65.537398-0.180544-2.527613 0-4.333051-0.361088-5.596858-1.44435-2.166526-1.805438-2.527613-4.874683-2.708157-6.319033-0.541631-5.777401-1.805438-30.150814-3.249788-63.370872z m81.425252-211.236242c1.083263 14.26296 1.263807 28.706464 2.888701 42.969423 0.541631 5.055226 0.722175 10.110453 1.083263 15.165679-4.874683 0.722175-9.929909 2.166526-14.804592 1.985982-20.040361-1.44435-39.900179-1.985982-59.94054 0-13.179697 1.263807-17.873836-4.874683-15.526767-17.332204 1.44435 0.541631 9.568821 3.249788 18.415468-1.083263s11.735347-12.638066 12.096434-14.082416c7.402296-35.025497 14.624048-69.870449 22.206887-104.895946 1.805438-7.943927 0.902719-16.068398 1.985982-23.831781 0.541631-3.069245 0-7.402296 4.694138-7.763384 1.624894 0 2.888701 0 3.79142 0.722176 2.527613 1.624894 3.249788 5.055226 3.430332 6.319033 2.888701 16.068398 7.221752 31.956252 10.110453 48.024649 1.985982 11.193715 2.527613 8.846646 4.874682 22.026344 2.527613 13.360241 3.79142 23.470694 4.333052 31.956252z m-30.872989-145.698844c-14.985135-0.361088-23.831781-8.485558-23.651237-21.845799 0-18.234923 9.929909-29.789726 25.095587-29.609183 13.179697 0 24.373413 14.624048 24.012325 31.414621-0.180544 12.276978-10.47154 20.401449-25.456675 20.220905zM111.214979 718.171808c0.902719-8.666102 3.249788-11.554803 11.554803-11.554803 23.29015 0 46.219212 4.333051 69.148274 4.694139 87.202654 1.263807 174.405307 0.541631 261.607961 0.541631 16.429485 0 18.05438 1.805438 18.234923 18.957099v10.110452c3.79142 69.509362 6.138489 139.199267 4.874683 208.889173-0.361088 16.429485 0 16.429485-16.248942 16.429485H182.890866c-19.859818 0-40.622354-21.665256-42.608336-42.247248-1.083263-11.735347-4.694139-23.470694-7.943927-34.844953-1.263807-4.152507-1.624894-8.305015-1.444351-12.457522 0.902719-26.17885-6.138489-51.274438-8.485558-76.911657-2.527613-27.442657-14.624048-53.26042-11.374259-81.605796z m987.032935-297.716721c-11.374259 3.249788-23.109606 4.333051-34.844953 4.694139-25.817763 0.722175-51.81607 0.541631-77.814376 0.180544-27.081569-0.361088-54.343683 1.624894-81.425252 1.985982-17.332204 0.180544-34.844953-1.083263-52.177157-1.444351-16.248942-0.361088-32.497883 2.347069-48.566282 1.083263-31.053533-2.347069-62.28761 2.888701-93.160599-1.624894-4.513595-0.722175-9.568821-2.347069-9.568821-7.763383 0-5.596858 4.513595-8.305015 9.749365-9.207734 25.817763-4.152507 51.274438-9.749365 76.731114-15.346223 12.81861-2.888701 24.553956-9.749365 37.733653-12.818609 6.138489-1.44435 8.124471-8.124471 8.666102-13.721329 1.44435-13.901872 1.985982-27.803745-11.193715-37.553109-3.249788-2.527613-5.777401-3.430332-7.943927-7.041208-3.430332-5.777401-2.527613-12.638066-1.263807-17.512749 7.041208-4.152507 10.290996-11.193715 13.901873-18.054379 2.888701-5.596858 7.402296-8.846646 13.540785-8.666103 38.455829 1.263807 76.731114-1.624894 115.186942 1.444351 20.762537 1.624894 42.066705-0.541631 63.009785-2.166526 13.360241-1.083263 26.539938 1.44435 39.900179 0.541632 1.44435 0 2.708157 0 3.791419 0.541631 3.610876 1.624894 5.23577 5.23577 5.957946 7.041208 1.985982 5.055226 10.652084 26.17885 13.901872 33.400602 1.624894 3.610876 3.069245 6.319033 3.971964 7.943927 4.333051 16.248942 12.276978 31.234077 17.332204 47.302475 0.722175 7.041208 3.069245 13.179697 6.319033 19.49873 6.68012 13.360241 2.527613 22.748518-11.915891 26.901026zM766.408416 141.153834c8.485558-1.805438 13.179697-1.263807 15.887854 0 20.762537 9.02719 18.415467 66.801205-0.902719 105.979209-7.943927 16.068398-15.346223 22.387431-23.290149 25.276131-9.207734 3.249788-20.040361 2.527613-30.511902-3.069244-35.567128-18.776555-61.204347-47.121931-79.800358-82.327971-3.971964-7.763383-0.902719-10.832628 5.957945-13.540785 23.29015-9.207734 47.483018-16.429485 71.495344-23.651238 13.721329-3.069245 27.442657-5.777401 41.163985-8.485558z m-225.499202 112.478785c3.069245 1.44435 5.416314 3.249788 7.221752 5.235771 0.902719 0.541631 1.985982 1.083263 2.888701 1.44435 1.44435 0.722175 1.985982 0.722175 3.069244 1.263807 0 0 1.805438 0.902719 3.79142 2.347069 3.430332 2.527613-9.929909 32.497883-15.526766 51.996613-3.971964 13.721329-9.02719 40.261267-15.707311 61.745979-0.722175 2.347069-2.527613 7.763383-7.221751 10.110452-5.596858 2.708157-12.096434-0.541631-15.707311-2.166525-21.123624-9.388277-45.497037-8.846646-68.065011-13.540785-2.888701-0.541631-9.207734-1.985982-12.276978-6.860664-1.985982-3.069245-2.347069-7.221752-1.083263-12.638066 2.888701-12.276978 7.943927-23.831781 12.999153-35.386584 2.166526-5.055226 6.860664-8.666102 12.096435-10.652084 29.067551-11.013172 30.692445-15.70731 45.316493-28.52592 11.374259-9.749365 12.638066-15.526766 27.442657-25.817763 5.416314-3.79142 10.290996-6.499577 13.540784-8.124471 1.805438 3.79142 4.152507 6.860664 7.041209 9.568821z m-67.52338 224.235396c1.985982 100.923982 2.527613 133.060778 2.527614 142.268511v1.805438s-0.361088 17.332204-8.846646 33.76169c-17.693292 34.664409-345.560827 1.624894-361.629225 0.902719-0.902719 0-3.610876 0-6.499577-1.805438-8.124471-4.874683-9.388277-17.873836-9.929908-22.026343C87.02211 613.998037 70.412081 502.060883 70.773168 484.187048c0-0.722175 0-2.527613 1.083263-3.79142 1.083263-1.44435 3.069245-2.166526 5.416314-2.166526h396.474177z m64.093048 252.03914c-0.180544-17.332204 0-17.873836 16.610029-18.05438 19.679274-0.180544 39.358548 0.902719 59.037822 0.902719 8.666102 0 7.221752 5.777401 7.402296 10.832628 0.902719 29.789726 1.624894 59.579453 2.708157 89.369179 0.180544 5.596858 1.263807 11.193715 1.805437 16.790573-1.263807 40.622354 3.79142 81.244708 4.874683 121.867063 0.180544 10.652084-2.166526 14.443504-13.901872 14.804591-24.553956 0.902719-48.927369-0.180544-73.481326-1.083263-1.263807-48.566281-2.708157-97.313106-3.791419-145.879387-0.722175-29.789726-1.083263-59.579453-1.444351-89.36918z m154.184402 224.596482c0.180544-24.553956 0-48.927369 0-73.481325 0.541631-50.913351-2.888701-101.826701-5.23577-152.740052-0.361088-7.943927-0.361088-12.096434 1.624894-14.082416 3.971964-3.971964 11.554803-2.166526 13.360241-1.805438 29.067551 5.777401 298.438896 5.596858 326.423185 1.805438 2.527613-0.361088 12.81861-1.985982 17.512748 3.430332 2.347069 2.708157 2.527613 5.957945 2.527613 7.221752 0.902719 14.804591-25.095588 147.323738-28.345376 163.933768-3.249788 23.831781-5.957945 42.247248-7.402296 53.079876-0.361088 2.166526-0.902719 6.68012-4.152507 11.013171-2.888701 4.152507-7.402296 7.041208-12.999153 8.846646-16.248942 5.23577-33.220059 6.860664-50.010632 7.041208-29.789726 0.180544-59.579453-1.624894-89.188636-0.722175-36.108759 1.083263-72.217519-2.527613-108.326277 0.541632-14.26296 1.263807-28.887007-1.624894-43.330512-1.263807-9.568821 0-12.81861-3.79142-12.818609-12.999153z m88.466461-296.091826h-0.180544c-19.679274 1.263807-34.483865 0.541631-43.149967 0-46.038668-2.527613-51.274438-3.971964-54.885315-9.207733-3.430332-5.055226-3.610876-10.47154-3.430332-14.26296 2.527613-47.663562-7.582839-94.785493-5.777401-142.449056 0.361088-11.013172 4.513595-13.721329 14.26296-13.721328 59.94054 0.361088 119.881081-2.166526 179.821621 0 48.385737 1.805438 102.548876 0.180544 105.07649 0 23.29015-0.722175 46.580299 0.902719 69.870449 0 30.511902-1.083263 56.329665-3.430332 61.384891 8.305014 1.44435 3.610876 0.722175 7.041208 0 9.02719-5.055226 20.581993-5.596858 42.066705-9.929909 62.829241-8.485558 41.163986-12.81861 61.745978-13.179697 72.578607 0 3.430332-0.361088 13.360241-6.680121 20.401449-4.694139 5.23577-10.832628 6.860664-13.179697 7.402295-44.413774 11.915891-229.290622-4.874683-280.384516-1.263806z m126.561201-425.722272c-14.804591 0.180544-29.789726-1.624894-44.594318-0.361088-6.499577 0.541631-9.929909-2.708157-9.02719-10.110452 0.722175-5.777401 1.083263-11.735347 1.263807-17.332205 0-5.23577 1.263807-8.666102 3.610876-10.832627 3.971964-3.430332 10.110453-2.708157 12.096434-2.34707 14.26296 1.805438 64.273592 0.541631 145.337757-1.624894 3.430332 0 9.929909-0.361088 15.526766 3.610876 6.860664 4.694139 4.874683 10.290996 12.999153 28.164832 0.722175 1.44435 2.166526 4.513595 0.722176 6.680121-0.902719 1.44435-3.069245 2.166526-6.499577 2.347069l-131.25534 1.624894zM562.935558 42.757465c3.610876 0.180544 7.221752 0.361088 10.832627 0.180544 20.581993-0.722175 20.581993-0.722175 20.581993 19.49873 0 21.845799 0 43.691599 0.361088 65.537398 0 7.402296-1.985982 10.832628-9.568822 9.749365-11.554803-1.624894-22.929062 3.430332-34.483865 2.166526-3.249788-17.693292 0-35.567128-2.347069-53.26042 0.541631-10.47154 1.624894-20.94308 1.263807-31.414621-0.361088-9.929909 4.333051-12.999153 13.179697-12.457522zM370.114783 141.514922c2.708157-9.749365 9.388277-12.81861 17.873836-11.374259 44.594318 7.402296 87.744285 19.859818 129.991533 35.567128 8.305015 3.069245 9.749365 8.666102 5.957945 16.971116-10.110453 21.484712-25.637219 38.99746-41.88616 55.788034-10.832628 11.193715-23.29015 19.859818-36.469847 28.345376-15.165679 9.749365-31.053533 10.47154-47.121931 6.138489-9.749365-2.527613-14.26296-12.457522-17.693292-21.665256-9.568821-25.637219-12.096434-52.357701-13.179697-80.522533 0.902719-8.846646 0-19.137642 2.527613-29.067551zM871.66545 41.674202c15.70731-1.083263 31.414621 1.263807 46.941387 0.722176 5.416314-0.180544 19.859818-0.902719 35.928215 6.138489 2.888701 1.263807 24.915044 10.832628 37.733654 33.76169 4.874683 8.846646 3.79142 11.374259 12.638065 30.872989 4.513595 10.290996 8.846646 18.415467 11.735347 23.651237 3.610876 13.901872-6.860664 13.179697-15.165679 14.26296-24.915044 3.069245-50.010632 0-74.925675 0.541631-25.095588 0.541631-50.010632 2.888701-75.10622 2.527614-12.096434 0-15.70731-5.055226-16.790573-15.707311-1.083263-10.832628-1.805438-21.484712-10.47154-30.511901-12.638066-13.721329-28.345376-14.804591-44.23323-12.638066-41.705617 5.777401-81.605796 17.512748-117.172924 40.802898-4.513595 2.888701-7.582839 3.971964-9.749365 2.888701-3.430332-1.624894-3.79142-7.402296-3.971964-9.568822-1.44435-18.596011-9.749365-60.662716-6.499576-78.717095 0.361088-1.805438 1.083263-4.874683 3.610876-6.860664a10.110453 10.110453 0 0 1 6.860664-1.44435c38.636372 0.541631 70.050993 0.541631 91.716249 0.361087 84.133409-0.541631 126.200114-0.902719 126.922289-0.902719z m-375.711641 4.694139c8.124471 9.749365 10.110453 19.137642 10.652084 23.470694 1.083263 8.124471-1.083263 15.526766-5.416314 30.150814-3.79142 12.81861-6.138489 15.165679-8.305015 16.429485-4.694139 2.708157-11.193715 2.347069-18.776554-1.44435-22.206887-11.193715-46.399756-16.790573-70.231537-22.929062-6.319033-1.624894-10.47154-2.527613-16.429486-2.888701-7.041208-0.541631-24.012325-1.624894-41.344529 7.943927-3.610876 1.985982-8.666102 5.23577-14.082416 10.47154a36.108759 36.108759 0 0 0-7.221752 11.193715c-2.527613 6.319033-1.985982 10.652084-3.610876 28.887008-0.722175 7.041208-0.902719 7.763383-1.44435 8.666102-5.23577 8.305015-24.012325 4.333051-38.094741 2.708157-5.055226-0.541631 11.554803 1.624894-119.700538 1.083263-3.249788 0-7.582839 0-10.652084-3.069245-8.666102-8.305015 7.221752-27.081569 26.720482-78.717095 2.527613-6.68012 6.860664-18.234923 17.873836-25.456675 3.069245-1.985982 8.846646-5.055226 17.873836-5.957946 19.318186-1.985982 130.172077-2.347069 281.828866-0.722175zM112.839873 237.383678c2.166526-9.388277 5.957945-13.540785 11.193715-23.651238 6.319033-11.735347 5.596858-14.26296 9.568821-16.610029 3.610876-2.166526 9.02719-1.44435 19.679274 0 22.748518 2.888701 45.497037 1.083263 68.426099 1.624894 29.248095 0.722175 58.49619 3.069245 87.563741 0.902719 7.763383-0.541631 6.68012 5.055226 9.207734 8.485559 0.902719 31.775708 0.902719 32.497883-30.511902 33.400602-33.581146 1.083263-66.981749 0-100.562894 0.541631-21.484712 0.361088-43.149967 1.805438-64.273592 6.13849-4.694139 0.902719-8.124471 0.541631-9.749365-1.444351-1.624894-1.805438-1.624894-4.694139-0.541631-9.568821z m-7.402296 42.78888c2.527613-0.902719 4.874683-1.083263 5.596858-0.902719 30.331358 3.79142 60.843259 1.263807 91.355161 1.624894 41.886161 0.541631 83.772322 0 125.477938 0 7.221752 0 13.540785 0.722175 17.512749 7.582839 2.347069 6.499577 5.23577 11.374259 7.582839 14.624048 4.333051 6.319033 9.749365 14.082416 19.137643 17.332204 3.610876 1.263807 4.874683 0.902719 8.846646 2.708157 12.096434 5.416314 14.624048 12.276978 5.957945 22.748518-7.763383 9.388277-10.47154 20.040361-11.554803 32.136796-1.083263 12.81861 5.055226 20.220905 15.526766 20.762537 14.082416 0.902719 27.081569 5.957945 40.802898 6.68012 22.929062 3.610876 39.539091 8.666102 40.441811 12.999154 0.541631 2.708157-0.180544 4.874683-0.180544 4.874682-0.722175 1.985982-1.805438 3.610876-3.069244 4.513595-4.333051 3.79142-12.096434 2.708157-12.999154 2.708157-14.985135-1.985982-358.740524-4.874683-387.0859-11.554803-3.971964-0.902719-5.777401-2.888701-6.319032-3.610876-3.430332-3.971964-2.527613-9.929909-2.166526-12.457522 4.694139-28.706464 23.29015-70.412081 30.331358-99.118544 1.44435-5.416314 4.513595-19.859818 14.804591-23.651237z" fill="#492A12" p-id="4420"></path><path d="M62.28761 415.399861s2.347069 2.527613 6.319033 3.610876c28.345376 6.68012 371.920221 9.568821 387.085899 11.554803 0.902719 0 8.485558 1.083263 12.999154-2.708157 1.263807-1.083263 2.347069-2.527613 3.069244-4.513595 0 0 0.722175-2.347069 0.180544-4.874682-0.722175-4.152507-17.332204-9.388277-40.44181-12.999154-13.901872-0.722175-26.901026-5.777401-40.802898-6.68012-10.290996-0.541631-16.610029-7.943927-15.526767-20.762537 1.083263-12.096434 3.79142-22.748518 11.554803-32.136796 8.666102-10.47154 6.138489-17.151661-5.957945-22.748518-3.971964-1.805438-5.23577-1.44435-8.846646-2.708157-9.388277-3.249788-14.804591-11.013172-19.137643-17.332204-2.347069-3.249788-5.23577-8.124471-7.582839-14.624048-3.971964-6.68012-10.290996-7.402296-17.512748-7.402295-41.886161 0-83.772322 0.541631-125.477939 0-30.511902-0.361088-60.843259 2.166526-91.355161-1.624895-0.902719 0-3.069245 0-5.596858 0.902719-10.290996 3.79142-13.360241 18.234923-14.804591 23.651238-7.041208 28.706464-25.817763 70.592624-30.331358 99.118544-0.361088 2.527613-1.263807 8.485558 2.166526 12.457522z" fill="#E34844" p-id="4421"></path><path d="M196.431651 52.867918c-11.193715 7.221752-15.346223 18.596011-17.873836 25.456675-19.679274 51.635526-35.386584 70.412081-26.720482 78.717095 3.069245 2.888701 7.402296 3.069245 10.652084 3.069245 131.25534 0.541631 114.645311-1.805438 119.700537-1.083263 14.082416 1.805438 32.678427 5.777401 38.094741-2.708157 0.541631-0.902719 0.722175-1.624894 1.44435-8.666102 1.624894-18.05438 1.083263-22.567975 3.610876-28.887008 1.083263-2.708157 3.069245-6.860664 7.221752-11.193715 5.23577-5.055226 10.290996-8.305015 14.082416-10.47154 17.332204-9.568821 34.303321-8.485558 41.34453-7.943927 5.957945 0.361088 10.110453 1.263807 16.429485 2.888701 24.012325 5.957945 48.02465 11.554803 70.231537 22.929062 7.582839 3.79142 14.082416 4.152507 18.776555 1.44435 2.166526-1.263807 4.513595-3.610876 8.305014-16.429485 4.333051-14.624048 6.499577-22.026343 5.416314-30.150814-0.541631-4.333051-2.527613-13.721329-10.652084-23.470694-151.476245-1.624894-262.330136-1.263807-281.828866 0.722175-9.02719 0.902719-14.804591 3.971964-17.873836 5.957946z" fill="#E34741" p-id="4422"></path><path d="M77.092201 477.868015c-2.347069 0-4.152507 0.722175-5.416314 2.166525-1.083263 1.44435-1.083263 3.069245-1.083263 3.79142-0.180544 17.873836 16.248942 129.81099 18.234924 148.587545 0.541631 4.152507 1.805438 17.151661 9.929909 22.026343 2.888701 1.805438 5.596858 1.805438 6.499576 1.805438 16.248942 0.722175 343.935932 33.76169 361.629225-0.902719 8.485558-16.429485 8.846646-33.76169 8.846646-33.76169v-1.805438c0-9.207734-0.361088-41.344529-2.527613-142.268512H76.731114z" fill="#E34943" p-id="4423"></path><path d="M132.519147 888.966239c3.249788 11.554803 6.68012 23.109606 7.943927 34.844953 1.985982 20.581993 22.748518 42.247248 42.608336 42.247248H460.567225c16.068398 0 15.887854 0 16.248942-16.429485 1.263807-69.689905-1.263807-139.199267-4.874683-208.889173-0.180544-3.430332 0-6.860664 0-10.110452 0-17.151661-1.624894-18.957099-18.234923-18.957099-87.202654 0-174.405307 0.722175-261.607962-0.541631-22.929062-0.361088-46.038668-4.513595-69.148274-4.694139-8.305015 0-10.47154 2.888701-11.554803 11.554803-3.249788 28.345376 8.846646 54.163139 11.37426 81.605796 2.347069 25.637219 9.388277 50.732807 8.485558 76.911657 0 4.152507 0.361088 8.305015 1.44435 12.457522z" fill="#E24944" p-id="4424"></path><path d="M1103.844772 373.874788c-5.055226-16.068398-12.999153-31.053533-17.332205-47.302475a158.517453 158.517453 0 0 1-3.971963-7.943927c-3.249788-7.221752-11.915891-28.345376-13.901872-33.400602-0.722175-1.805438-2.347069-5.416314-5.957946-7.041208-1.083263-0.541631-2.347069-0.722175-3.79142-0.541632-13.360241 0.902719-26.539938-1.624894-39.900179-0.541631-20.94308 1.624894-42.247248 3.79142-63.009785 2.166526-38.455829-3.069245-76.911657-0.180544-115.186942-1.444351-6.138489-0.180544-10.652084 3.069245-13.540784 8.666102-3.610876 6.860664-6.860664 13.901872-13.901873 18.05438-1.263807 4.874683-2.166526 11.735347 1.263807 17.512748 2.166526 3.610876 4.694139 4.694139 7.943927 7.041208 13.179697 9.749365 12.638066 23.651237 11.193715 37.55311-0.541631 5.416314-2.527613 12.276978-8.666102 13.721329-12.999153 3.069245-24.915044 9.929909-37.733653 12.818609-25.456675 5.596858-50.913351 11.193715-76.731114 15.346223-5.23577 0.902719-9.749365 3.430332-9.749365 9.207733 0 5.416314 5.055226 7.041208 9.568821 7.763384 30.872989 4.513595 62.107066-0.722175 93.160599 1.624894 16.068398 1.263807 32.31734-1.44435 48.566282-1.083263 17.332204 0.361088 34.844953 1.805438 52.177157 1.444351 27.081569-0.361088 54.163139-2.347069 81.425252-1.985982 25.998307 0.361088 51.81607 0.541631 77.814376-0.180544 11.735347-0.361088 23.470694-1.44435 34.844953-4.694139 14.26296-4.152507 18.596011-13.721329 11.915891-26.901025-3.249788-6.319033-5.596858-12.457522-6.319033-19.49873z" fill="#E14843" p-id="4425"></path><path d="M653.026912 42.396378a10.290996 10.290996 0 0 0-6.860664 1.44435c-2.527613 1.805438-3.249788 4.874683-3.610876 6.860664-3.249788 17.873836 5.055226 59.94054 6.499576 78.717095 0 2.166526 0.541631 7.943927 3.971964 9.568822 2.166526 1.083263 5.416314 0 9.749365-2.888701 35.747672-23.29015 75.467307-35.025497 117.172924-40.802898 15.887854-2.166526 31.595164-1.083263 44.23323 12.638066 8.485558 9.207734 9.388277 19.859818 10.47154 30.511901 1.083263 10.652084 4.694139 15.526766 16.790573 15.707311 25.095588 0.361088 50.010632-1.985982 75.10622-2.527614 25.095588-0.541631 50.010632 2.708157 74.925675-0.541631 8.305015-1.083263 18.596011-0.361088 15.165679-14.26296-2.888701-5.23577-7.221752-13.540785-11.735347-23.651237-8.666102-19.49873-7.582839-22.026343-12.638065-30.872989-12.81861-22.929062-34.844953-32.497883-37.733654-33.76169-16.068398-7.041208-30.511902-6.319033-35.928215-6.138489-15.70731 0.541631-31.414621-1.624894-46.941387-0.722176-0.902719 0-42.969424 0.361088-126.922289 0.902719-21.665256 0-53.26042 0.180544-91.716249-0.361087z" fill="#E24742" p-id="4426"></path><path d="M481.871393 238.466941c16.248942-16.971117 31.775708-34.303321 41.886161-55.788034 3.971964-8.305015 2.347069-13.901872-5.957946-16.971116-42.247248-15.887854-85.397216-28.164832-129.991533-35.567128-8.485558-1.44435-15.165679 1.624894-17.873836 11.374259-2.708157 10.110453-1.624894 20.220905-2.527613 29.067551 0.902719 28.164832 3.610876 55.065858 13.179697 80.522533 3.430332 9.207734 7.943927 19.137642 17.693292 21.665256 16.068398 4.333051 31.956252 3.610876 47.121931-6.138489 13.179697-8.305015 25.637219-17.151661 36.469847-28.345376zM782.29627 141.153834c-2.888701-1.263807-7.402296-1.805438-15.887854 0-13.721329 2.888701-27.442657 5.596858-41.163985 8.485559-24.012325 7.221752-48.02465 14.443504-71.495344 23.651237-6.860664 2.708157-9.929909 5.957945-5.957945 13.540785 18.596011 35.386584 44.23323 63.73196 79.800358 82.327971 10.652084 5.596858 21.304168 6.319033 30.511902 3.069245 7.943927-2.708157 15.346223-9.207734 23.290149-25.276132 19.318186-39.178004 21.484712-97.132563 0.902719-105.979209zM748.53458 317.184036c-37.372566-3.069245-65.356854-23.29015-88.46646-50.732807-5.957945-7.221752-13.721329-12.457522-19.318186-19.859818-1.624894-1.985982-3.79142-2.888701-5.596858-2.347069-1.624894 0.361088-2.347069 1.805438-2.888701 2.347069-4.874683 7.041208-11.554803 6.68012-13.901872 13.179698-0.541631 1.624894-1.263807 4.333051 0 8.305014 26.17885 49.649544 40.261267 81.064165 45.497037 99.118544 1.083263 3.971964 4.513595 16.248942 13.360241 19.318187 5.957945 1.985982 11.554803-0.902719 16.610029-3.069245 0 0 12.096434-5.777401 77.453289-26.720482 1.44435-0.541631 5.416314-1.805438 7.221752-5.23577 0.541631-0.902719 0.722175-2.166526 0.722175-3.610876-0.541631-11.915891-18.234923-29.428639-30.331358-30.331358zM1043.723688 221.856911c-8.124471-18.05438-6.138489-23.470694-12.999154-28.164832-5.596858-3.971964-12.096434-3.79142-15.526766-3.610876-81.244708 2.166526-131.074796 3.610876-145.337756 1.624894-1.985982-0.180544-8.124471-1.083263-12.096435 2.34707-2.347069 1.985982-3.430332 5.416314-3.610876 10.832627 0 5.777401-0.541631 11.554803-1.263806 17.332205-0.902719 7.221752 2.527613 10.652084 9.02719 10.110452 14.985135-1.263807 29.789726 0.541631 44.594317 0.361088 43.691599-0.541631 87.563741-1.263807 131.25534-1.624894 3.430332 0 5.596858-0.722175 6.499577-2.347069 1.263807-2.166526 0-5.23577-0.722175-6.680121zM550.839123 139.890028c11.554803 1.263807 22.748518-3.79142 34.483865-2.166526 7.582839 1.083263 9.568821-2.347069 9.568821-9.749365-0.541631-21.845799-0.361088-43.691599-0.361087-65.537398 0-20.220905 0-20.220905-20.581993-19.49873-3.610876 0-7.221752 0-10.832628-0.180544-8.846646-0.541631-13.540785 2.347069-13.179697 12.457522 0.361088 10.47154-0.902719 20.94308-1.263806 31.414621 2.347069 17.693292-0.722175 35.567128 2.347069 53.26042zM558.602506 206.510689c0 13.540785 8.666102 21.665256 23.651238 21.845799 14.985135 0.361088 25.276132-7.763383 25.456675-20.220905 0.361088-16.790573-10.652084-31.414621-24.012325-31.414621-15.165679 0-24.915044 11.554803-25.095588 29.609183zM542.534108 315.920229c5.596858-19.318186 18.776555-49.469 15.526767-51.996613-1.985982-1.44435-3.79142-2.347069-3.79142-2.347069-0.902719-0.361088-1.624894-0.541631-3.069244-1.263807-0.902719-0.541631-1.985982-0.902719-2.888701-1.44435-1.805438-1.985982-4.152507-3.79142-7.221752-5.235771-2.888701-2.708157-5.23577-5.777401-7.041208-9.568821-3.249788 1.805438-8.124471 4.333051-13.540785 8.124471-14.804591 10.290996-15.887854 16.068398-27.442657 25.817763-14.804591 12.81861-16.248942 17.512748-45.316493 28.52592-5.23577 1.985982-9.929909 5.416314-12.096434 10.652084-5.055226 11.554803-10.110453 23.109606-12.999153 35.386584-1.263807 5.416314-0.902719 9.568821 1.083262 12.638066 3.069245 5.055226 9.207734 6.319033 12.276979 6.860664 22.567975 4.694139 46.941387 4.152507 68.065011 13.540785 3.610876 1.624894 10.110453 4.874683 15.70731 2.166525 4.694139-2.347069 6.499577-7.763383 7.221752-10.110452 6.68012-21.484712 11.735347-48.02465 15.70731-61.745979zM309.271523 199.650024c-29.248095 2.166526-58.49619-0.361088-87.563741-0.902719-22.748518-0.541631-45.677581 1.263807-68.426099-1.624894-10.832628-1.44435-16.068398-2.166526-19.679274 0-3.971964 2.347069-3.249788 4.874683-9.568821 16.610029-5.416314 10.110453-9.02719 14.26296-11.193715 23.651238-1.263807 5.055226-1.083263 7.763383 0.541631 9.568821 1.805438 1.985982 5.055226 2.347069 9.749365 1.44435 21.123624-4.333051 42.78888-5.957945 64.273592-6.138489 33.581146-0.361088 67.162292 0.361088 100.562894-0.541631 31.414621-0.902719 31.414621-1.624894 30.511902-33.400602-2.347069-3.430332-1.44435-9.02719-9.207734-8.485559zM593.628003 272.048087c-0.180544-1.263807-0.902719-4.874683-3.430332-6.319033a6.517631 6.517631 0 0 0-3.79142-0.722175c-4.694139 0.361088-4.152507 4.694139-4.694139 7.763383-1.263807 7.943927-0.361088 15.887854-1.985981 23.831781-7.763383 34.844953-14.985135 69.870449-22.206887 104.895946-0.541631 1.44435-3.249788 9.749365-12.096435 14.082416-8.846646 4.333051-16.971117 1.624894-18.415467 1.083263-2.166526 12.457522 2.347069 18.596011 15.526766 17.332204 20.040361-1.985982 39.900179-1.44435 59.940541 0 4.874683 0.361088 9.929909-1.263807 14.804591-1.985982-0.361088-5.055226-0.361088-10.110453-1.083263-15.165678-1.624894-14.26296-1.985982-28.706464-2.8887-42.969424-0.541631-8.485558-1.805438-18.596011-4.333051-31.956252-2.527613-13.179697-2.888701-10.832628-4.874683-22.026343-2.888701-16.068398-7.221752-31.956252-10.110452-48.02465zM623.237186 812.776757c-0.902719-29.789726-1.624894-59.579453-2.708157-89.369179 0-4.874683 1.263807-10.832628-7.402296-10.832628-19.679274 0-39.358548-1.263807-59.037822-0.902719-16.790573 0.180544-16.971117 0.722175-16.610029 18.05438 0.361088 29.789726 0.722175 59.579453 1.444351 89.369179 1.083263 48.566281 2.527613 97.313106 3.791419 145.879388 24.553956 0.902719 48.927369 1.985982 73.481325 1.083262 11.735347-0.361088 14.082416-4.152507 13.901873-14.804591-1.083263-40.622354-6.138489-81.064165-4.874683-121.867062-0.722175-5.596858-1.624894-11.193715-1.805438-16.790574zM608.432594 656.606373c5.416314 0 8.305015-1.985982 8.124471-7.763383 0-3.971964 0.361088-8.124471 0-12.096434-3.069245-50.913351 0-101.646157 0.902719-152.378965 0-4.513595-0.361088-7.041208-5.596858-6.499576-19.318186 1.985982-38.816916 0.902719-58.135102 0.722175q-29.789726-0.361088-27.262113 29.428639c1.624894 25.817763 3.069245 51.635526 4.694138 77.272745 1.44435 33.220059 2.708157 57.412927 3.249789 63.370872 0 1.263807 0.361088 4.333051 2.708157 6.319033 1.263807 1.083263 2.888701 1.44435 5.596857 1.44435 21.845799 0 43.691599 0 65.537398 0.180544z" fill="#F7DC7E" p-id="4427"></path><path d="M747.812405 968.586054c36.108759-3.069245 72.217519 0.541631 108.326278-0.541632 29.609183-0.902719 59.398909 0.902719 89.188635 0.722175 16.790573 0 33.76169-1.805438 50.010632-7.041208 5.596858-1.805438 10.110453-4.694139 12.999153-8.846646 3.249788-4.333051 3.79142-8.846646 4.152508-11.013171 1.44435-10.832628 4.152507-29.248095 7.402295-53.079876 3.249788-16.610029 29.248095-149.129176 28.345377-163.933768 0-1.263807-0.180544-4.513595-2.527614-7.221752-4.874683-5.596858-14.985135-3.79142-17.512748-3.430332-27.984288 3.79142-297.355633 3.971964-326.423184-1.805438-1.805438-0.361088-9.388277-2.166526-13.360241 1.805438-1.985982 1.985982-1.985982 6.138489-1.624894 14.082416 2.347069 50.913351 5.596858 101.646157 5.23577 152.740052v73.481325c0 9.207734 3.249788 12.999153 12.81861 12.999154 14.443504-0.180544 29.067551 2.527613 43.330511 1.263806z" fill="#E24944" p-id="4428"></path><path d="M1080.554622 631.691329c0.361088-10.832628 4.694139-31.414621 13.179697-72.578606 4.333051-20.762537 4.874683-42.247248 9.929909-62.829241 0.541631-1.985982 1.263807-5.416314 0-9.02719-5.055226-11.735347-30.872989-9.388277-61.384891-8.305014-23.29015 0.902719-46.580299-0.902719-69.870449 0-2.527613 0-56.690752 1.805438-105.07649 0-59.94054-2.347069-119.881081 0-179.821621 0-9.749365 0-13.901872 2.708157-14.26296 13.721328-1.985982 47.663562 8.124471 94.604949 5.777402 142.449055-0.180544 3.971964 0 9.388277 3.430332 14.26296 3.610876 5.23577 8.846646 6.68012 54.885314 9.207734 8.666102 0.541631 23.651237 1.263807 43.149967 0h0.180544c51.093894-3.430332 235.970742 13.360241 280.384516 1.263807 2.347069-0.722175 8.485558-2.166526 13.179697-7.402296 6.499577-7.221752 6.68012-16.971117 6.680121-20.401449z" fill="#E24843" p-id="4429"></path></svg>