<?xml version="1.0" encoding="iso-8859-1"?>
<!-- Generator: Adobe Illustrator 19.0.0, SVG Export Plug-In . SVG Version: 6.00 Build 0)  -->
<svg version="1.1" id="Layer_1" xmlns="http://www.w3.org/2000/svg" xmlns:xlink="http://www.w3.org/1999/xlink" x="0px" y="0px"
	 viewBox="0 0 512 512" style="enable-background:new 0 0 512 512;" xml:space="preserve">
<path style="fill:#AB5034;" d="M416.742,294.096c2.338-73.275-54.3-132.982-126.421-133.018c-5.996-0.002-11.895,0.418-17.668,1.235
	c-11.216,1.588-22.626,1.588-33.841,0c-5.772-0.817-11.67-1.238-17.666-1.235c-72.122,0.036-128.758,59.743-126.421,133.018
	c0.594,18.625,3.685,36.207,8.963,52.606h304.092C413.057,330.303,416.149,312.722,416.742,294.096z"/>
<path style="fill:#8D472E;" d="M415.024,267.89c-10.046-60.786-61.409-106.78-124.704-106.811
	c-5.996-0.002-11.895,0.418-17.668,1.235c-4.087,0.579-8.199,0.942-12.317,1.096l0,0c0,6.885-2.659,13.505-7.422,18.477
	l-0.552,0.576c-4.729,4.937-12.057,5.95-18.206,2.964c-5.482-2.662-12.145-2.642-17.818,0.64
	c-9.074,5.251-12.174,16.865-6.923,25.941c9.543,16.49,27.291,26.733,46.319,26.733s36.775-10.243,46.319-26.733
	c0.029-0.049,0.057-0.099,0.085-0.148c3.332-5.876,11.323-7.026,15.9-2.057c14.252,15.474,24.119,34.879,27.954,58.088
	c1.401,8.477,2.003,17.239,1.718,26.206c-0.243,7.619-0.933,15.049-1.993,22.308l33.991,11.506l35.043-11.506
	c1.06-7.259,1.75-14.689,1.993-22.308C417.029,285.129,416.426,276.367,415.024,267.89z"/>
<ellipse transform="matrix(-0.7071 0.7071 -0.7071 -0.7071 457.1581 339.093)" style="fill:#BD7155;" cx="158.351" cy="264.227" rx="46.022" ry="34.517"/>
<ellipse style="fill:#C98A2E;" cx="255.737" cy="442.966" rx="115.056" ry="69.034"/>
<g>
	<path style="fill:#D5A150;" d="M255.463,480.929c-54.458,0-100.036-22.711-111.968-53.202c-0.812,2.165-1.461,4.366-1.926,6.604
		c7.078,34.053,55.49,60.404,114.163,60.404c14.257,0,27.902-1.561,40.501-4.407c3.08-0.696,5.253-3.453,5.253-6.611l0,0
		c0-4.311-3.964-7.509-8.184-6.625C281.452,479.574,268.725,480.929,255.463,480.929z"/>
	<path style="fill:#D5A150;" d="M417.426,267.907c-4.716-0.708-9.106,2.55-9.806,7.263c-2.507,16.825-13.034,32.499-22.048,41.558
		c-2.853,2.867-6.799,4.233-10.833,3.757c-4.025-0.48-7.534-2.735-9.596-6.13l-0.123-0.206
		c-3.688-6.147-10.163-10.038-17.322-10.407c-7.121-0.364-13.921,2.796-18.227,8.468c-3.262,4.296-8.596,6.664-13.953,6.035
		c-5.133-0.603-9.385-3.587-11.712-8.24l-5.57-11.141c-3.752-7.505-11.374-12.522-19.766-12.419
		c-8.084,0.099-15.329,4.632-18.952,11.88c-1.056,2.114-3.001,2.341-3.788,2.341c-8.194,0-15.559,4.552-19.224,11.88
		c-1.056,2.114-3.001,2.34-3.788,2.34c-0.787,0-2.731-0.227-3.788-2.34l-5.839-11.677c-5.052-10.105-14.786-16.744-26.037-17.759
		c-11.251-1.009-22.016,3.774-28.794,12.813c-1.177,1.569-2.761,1.737-3.606,1.689c-0.841-0.044-2.402-0.367-3.413-2.049
		c-7.384-12.306-18.742-20.174-31.154-21.576c-0.305-0.035-0.613-0.048-0.92-0.048h-11.374c-7.897-0.25-10.096-2.076-15.403-7.711
		c-3.243-3.445-8.736-3.965-12.273-0.822c-3.65,3.242-3.882,8.832-0.564,12.364l0.053,0.056c3.238,3.446,5.021,7.993,5.046,12.722
		c0.007,1.18,0.029,2.364,0.067,3.552c2.583,80.896,52.17,142.17,124.156,171.879c22.712,9.372,50.999,9.372,73.711,0
		c63.932-26.385,110.189-77.67,121.548-145.484c1.655-9.881,3.976-19.657,7.209-29.139c1.462-4.289,2.629-8.85,3.342-13.64
		C425.392,272.998,422.141,268.609,417.426,267.907z"/>
</g>
<path style="fill:#C98A2E;" d="M397.805,328.901c-5.753,5.78-13.414,8.939-21.445,8.939c-1.215,0-2.438-0.072-3.665-0.217
	c-9.33-1.114-17.472-6.351-22.339-14.369c-0.002-0.005-0.078-0.13-0.081-0.135c-1.063-1.772-2.626-2.096-3.467-2.139h-0.014
	c-1.016-0.041-1.901,0.674-2.085,1.674c-0.125,0.682-0.254,1.362-0.384,2.042c-0.155,0.817-0.299,1.64-0.466,2.451
	c-0.079,0.385-0.169,0.766-0.253,1.151c-0.177,0.812-0.353,1.625-0.536,2.433c-0.208,0.925-0.407,1.855-0.628,2.773
	c-0.267,1.108-0.559,2.203-0.846,3.301c-0.257,0.983-0.505,1.967-0.777,2.942c-0.291,1.047-0.605,2.081-0.914,3.119
	c-0.299,1.006-0.595,2.013-0.91,3.01c-0.087,0.275-0.162,0.556-0.251,0.83h-0.024c-12.587,39.112-37.627,71.484-71.064,95.13
	c-4.647,3.286-11.544,7.26-18.609,11.064c-18.048,9.718-39.877,9.623-57.718-0.469c-0.305-0.173-0.599-0.342-0.88-0.506
	c-15.854-9.267-30.187-20.296-42.654-32.913c-1.675,2.716-3.074,5.512-4.177,8.377c11.72,30.666,57.448,53.548,112.114,53.548
	s100.395-22.882,112.114-53.549c-1.103-2.87-2.505-5.671-4.185-8.391c-0.048,0.048-0.099,0.095-0.146,0.144
	c20.059-20.271,35.297-44.649,44.239-72.436h0.024c0.089-0.274,0.163-0.555,0.251-0.83c0.315-0.998,0.611-2.004,0.91-3.01
	c0.308-1.038,0.622-2.072,0.914-3.119c0.272-0.975,0.521-1.961,0.777-2.942c0.286-1.099,0.579-2.193,0.846-3.301
	c0.222-0.918,0.42-1.848,0.628-2.773c0.182-0.81,0.359-1.622,0.536-2.433c0.084-0.383,0.174-0.764,0.253-1.151
	c0.166-0.812,0.31-1.634,0.466-2.451c0.254-1.331,0.514-2.66,0.741-4.005c0.953-5.641,1.641-11.407,2.101-17.271
	C409.548,316.387,401.184,325.505,397.805,328.901z"/>
<path style="fill:#E1B872;" d="M232.719,344.41c-0.049-6.249-3.862-11.714-9.477-14.457c-4.141-2.024-7.586-5.372-9.744-9.689
	l-5.839-11.678c-2.393-4.786-6.823-7.808-12.152-8.289c-5.325-0.477-10.227,1.701-13.437,5.979
	c-4.301,5.734-11.149,8.947-18.302,8.569c-7.159-0.369-13.634-4.259-17.322-10.407c-4.425-7.375-11.058-12.296-17.818-13.246
	h-10.963c-0.084,0-0.168-0.001-0.253-0.003c-3.776-0.11-6.987-0.558-9.798-1.291c-4.621-1.206-9.528,0.062-12.905,3.439l0,0
	c-0.002,0.007-0.006,0.013-0.008,0.02c1.398,49.364,20.277,91.452,51.069,123.57c13.892,14.491,36.704,16.034,52.066,3.113
	c21.329-17.938,34.885-44.821,34.885-74.873C232.723,344.915,232.721,344.662,232.719,344.41z"/>
<circle style="fill:#D5A150;" cx="198.209" cy="356.674" r="17.258"/>
<circle style="fill:#C98A2E;" cx="313.265" cy="356.674" r="17.258"/>
<path style="fill:#B69362;" d="M255.734,0c-9.531,0-17.258,7.727-17.258,17.258v196.716c5.076,2.942,10.968,4.632,17.258,4.632
	s12.182-1.69,17.258-4.632V17.258C272.992,7.727,265.265,0,255.734,0z"/>
<path style="fill:#C9AD80;" d="M238.475,17.258v196.716c0.051,0.03,0.101,0.059,0.153,0.087c7.618,4.363,17.105-1.324,17.105-10.103
	V16.948c0-10.941-16.481-11.788-17.218-0.871C238.488,16.467,238.475,16.861,238.475,17.258z"/>
<g>
</g>
<g>
</g>
<g>
</g>
<g>
</g>
<g>
</g>
<g>
</g>
<g>
</g>
<g>
</g>
<g>
</g>
<g>
</g>
<g>
</g>
<g>
</g>
<g>
</g>
<g>
</g>
<g>
</g>
</svg>
