<?xml version="1.0" ?>
<!-- Uploaded to: SVG Repo, www.svgrepo.com, Generator: SVG Repo Mixer Tools -->
<svg width="800px" height="800px" viewBox="0 0 32 32" xmlns="http://www.w3.org/2000/svg">
<title/>
<g data-name="filled line" id="filled_line">
<path d="M21.1768,12.5283c-.2588-3.1655-1.3457-5.8335-2.9063-7.1357a.9833.9833,0,0,0-.7637-.2246.9982.9982,0,0,0-.686.4048,1.0309,1.0309,0,0,1-1.6416,0,.9993.9993,0,0,0-.6855-.4048.98.98,0,0,0-.7642.2246c-1.56,1.3012-2.646,3.9726-2.9063,7.146a.9989.9989,0,0,0,.1285.5776A38.9865,38.9865,0,0,1,14.46,22.6523c.375,1.501.5532,2.51.5551,2.52a1,1,0,0,0,1.97,0c.0019-.01.18-1.0191.5571-2.5293a38.9735,38.9735,0,0,1,3.5059-9.5269A.9942.9942,0,0,0,21.18,12.62v-.01C21.18,12.5825,21.1787,12.5557,21.1768,12.5283Z" style="fill:#f6ae2d"/>
<path d="M16,2a3.0033,3.0033,0,0,0-3,3,2.9487,2.9487,0,0,0,.561,1.7476,3.0013,3.0013,0,0,0,4.8775.0009A2.95,2.95,0,0,0,19,5,3.0033,3.0033,0,0,0,16,2Z" style="fill:#eeeced"/>
<path d="M16.98,24.83a.9478.9478,0,0,1-.21.81A.9925.9925,0,0,1,16,26H7a1.0029,1.0029,0,0,1-1-1c0-.34-.01-.67-.02-1A42.2311,42.2311,0,0,0,3.4,11.24a1.007,1.007,0,0,1,1.26-1.3,1.0022,1.0022,0,0,0,1.23-1.4,1.013,1.013,0,0,1,.07-1.06,1,1,0,0,1,.99-.39c2.13.38,4.06,2.08,5.74,5.04A37.8764,37.8764,0,0,1,16,20.61c.16.59.29,1.12.4,1.57.19.74.33,1.37.43,1.82C16.93,24.5,16.98,24.8,16.98,24.83Z" style="fill:#d32344"/>
<path d="M28.6,11.24A42.3089,42.3089,0,0,0,26.02,24c-.01.33-.02.66-.02,1a1.0029,1.0029,0,0,1-1,1H16a.9925.9925,0,0,1-.77-.36.9478.9478,0,0,1-.21-.81c0-.03.05-.33.15-.83.1-.45.24-1.08.43-1.83.11-.45.24-.97.4-1.56a38.2131,38.2131,0,0,1,3.27-8.41.3552.3552,0,0,1,.04-.09C21,9.16,22.93,7.47,25.05,7.09a1,1,0,0,1,.99.39,1.013,1.013,0,0,1,.07,1.06,1.0022,1.0022,0,0,0,1.23,1.4,1.007,1.007,0,0,1,1.26,1.3Z" style="fill:#d32344"/>
<path d="M27,6a2.9987,2.9987,0,0,0-2.65,1.5972A2.9265,2.9265,0,0,0,24,9a3.0033,3.0033,0,0,0,3,3,3.1182,3.1182,0,0,0,.998-.1689A3.0012,3.0012,0,0,0,27,6Z" style="fill:#eeeced"/>
<path d="M7.6533,7.6006a3,3,0,1,0-3.6289,4.2383A3.0842,3.0842,0,0,0,5,12,3.0033,3.0033,0,0,0,8,9,2.9414,2.9414,0,0,0,7.6533,7.6006Z" style="fill:#eeeced"/>
<path d="M25,24H5.98c.01.33.02.66.02,1v4a1,1,0,0,0,1,1H25a1,1,0,0,0,1-1V25c0-.34.01-.67.02-1Z" style="fill:#eeeced"/>
<path d="M30,9a2.9961,2.9961,0,0,0-5.3963-1.7971,7.6326,7.6326,0,0,0-3.8469,2.774,9.6993,9.6993,0,0,0-1.9132-4.02,3,3,0,1,0-5.687,0A9.7121,9.7121,0,0,0,11.2441,9.981,7.6155,7.6155,0,0,0,7.3965,7.2029a2.9956,2.9956,0,1,0-3.8557,4.41A41.63,41.63,0,0,1,6,25v4a1,1,0,0,0,1,1H25a1,1,0,0,0,1-1V25a41.6656,41.6656,0,0,1,2.4574-13.3814A3.0159,3.0159,0,0,0,30,9ZM27,8a1.0011,1.0011,0,1,1-1,1,.9442.9442,0,0,1,.1133-.4609A1.0053,1.0053,0,0,1,27,8ZM16,4a1.0013,1.0013,0,0,1,1,1,.9529.9529,0,0,1-.1792.5728,1.0339,1.0339,0,0,1-1.2741.3054.9735.9735,0,0,1-.368-.3064A.9507.9507,0,0,1,15,5,1.0013,1.0013,0,0,1,16,4ZM14.4307,7.5532c.0286.0176.063.023.0922.04a3.0059,3.0059,0,0,0,.6.2573c.0265.0079.05.0217.0769.0287a2.7063,2.7063,0,0,0,1.6023,0c.0271-.0072.0511-.0211.0779-.0291a3.0047,3.0047,0,0,0,.6-.2583c.0283-.0161.0618-.0214.0895-.0385A10.1234,10.1234,0,0,1,19.1563,12.4c-.1943.3518-.38.7128-.5589,1.0788-.0411.084-.0783.17-.1186.2542q-.2344.492-.4519.9914c-.0627.1448-.1224.2886-.183.434-.1188.2852-.2333.5691-.3436.8538-.0554.1429-.1107.284-.1639.4263q-.1847.4938-.3517.9776c-.0286.0827-.06.1666-.0877.2487q-.204.6-.38,1.1717c-.0373.12-.07.232-.1058.3494q-.1222.4035-.2319.785c-.0357.125-.0695.2444-.1031.3652-.0244.088-.0524.1829-.0757.2685-.0231-.0849-.0508-.179-.075-.2662-.0353-.1269-.0706-.2519-.1082-.3834q-.11-.3855-.2349-.794c-.0348-.1148-.0669-.2243-.1033-.3414q-.1788-.5744-.3833-1.1775c-.0315-.0927-.0665-.187-.099-.28-.11-.3164-.2245-.6346-.3454-.9568-.0535-.1426-.1087-.284-.1643-.4271-.1136-.2924-.2318-.5838-.3545-.8764-.0577-.1378-.1139-.2745-.1736-.4118-.1718-.3951-.35-.7875-.5389-1.1743-.0122-.025-.023-.0508-.0353-.0758-.173-.352-.3529-.699-.54-1.0379A10.1455,10.1455,0,0,1,14.4307,7.5532ZM5,8a1.0059,1.0059,0,0,1,.8882.5415A.948.948,0,0,1,6,9a.9851.9851,0,0,1-.0714.3526c-.0073.0191-.0132.0388-.0216.0574a1.0021,1.0021,0,0,1-.1859.2754c-.0147.0154-.0312.0288-.0468.0432a1,1,0,0,1-.2721.1836l-.03.0125a.9975.9975,0,0,1-.3175.0643c-.0331.0018-.0658.0053-.1.0039a1.0493,1.0493,0,0,1-.21-.0332c-.0254-.0061-.05-.0074-.0758-.0155A1.0156,1.0156,0,0,1,4,9,1.0013,1.0013,0,0,1,5,8Zm.76,3.9023a2.9688,2.9688,0,0,0,.4027-.1372l.0255-.0128a2.9825,2.9825,0,0,0,.43-.2339c.0428-.0276.0834-.0568.1246-.0864a3.005,3.005,0,0,0,.31-.256c.03-.028.0611-.0533.09-.0825a3.0068,3.0068,0,0,0,.3229-.3912c.0228-.0329.0414-.0682.0629-.102a3.005,3.005,0,0,0,.1945-.3579c.0212-.0463.042-.0919.0609-.1394a2.9439,2.9439,0,0,0,.1462-.47c.0026-.0119.0072-.0227.01-.0346l.0014-.005a9.6968,9.6968,0,0,1,3.0108,3.5229A38.9865,38.9865,0,0,1,14.46,22.6523c.0592.2369.1121.458.1615.6683l.0333.1433c.0411.1775.08.3471.1136.5007L14.7762,24H7.9854A43.2361,43.2361,0,0,0,5.76,11.9023ZM24,28H8V26H24Zm.0146-4H17.2238l.0073-.033c.0342-.1558.0733-.3282.1152-.5086l.0328-.141c.05-.212.1034-.4351.1629-.6743a38.9735,38.9735,0,0,1,3.5059-9.5269.8732.8732,0,0,0,.0429-.0854,9.6064,9.6064,0,0,1,2.9678-3.4366l.0023.0083.0023.0084a2.9654,2.9654,0,0,0,.1548.4973c.0175.0438.0368.0858.0562.1285a2.999,2.999,0,0,0,.2014.3708c.02.0307.0364.0627.0571.0926a3.0225,3.0225,0,0,0,.3266.3956c.0263.0268.0553.05.0825.076a3.0142,3.0142,0,0,0,.3183.2627c.04.0283.0784.0564.1193.0828a2.9822,2.9822,0,0,0,.4385.2382l.0185.0094a2.9663,2.9663,0,0,0,.4038.1375A43.28,43.28,0,0,0,24.0146,24Z"/>
</g>
</svg>