<?xml version="1.0" encoding="UTF-8"?> <svg xmlns="http://www.w3.org/2000/svg" id="Слой_1" data-name="Слой 1" viewBox="0 0 711 379"><defs><style>.cls-1{fill:none;stroke:#000;stroke-linecap:round;stroke-miterlimit:10;stroke-width:40px;}.cls-2{fill:#fff;}</style></defs><line class="cls-1" x1="20" y1="359" x2="691" y2="359"></line><path d="M303,47H408A283,283,0,0,1,691,330v0a0,0,0,0,1,0,0H20a0,0,0,0,1,0,0v0A283,283,0,0,1,303,47Z"></path><circle cx="358.5" cy="23.5" r="23.5"></circle><path class="cls-2" d="M683.6,403.69c3.12-6.89,7.35-13,11.72-19.1a166.89,166.89,0,0,1,14.6-16.94,190.84,190.84,0,0,1,35-27.95c3.23-1.9,6.42-3.87,9.74-5.63s6.66-3.45,10.05-5.06,6.83-3.11,10.37-4.38c1.76-.65,3.49-1.37,5.27-2l5.35-1.75c1.76-.62,3.6-1.05,5.4-1.56s3.6-1,5.44-1.39c3.67-.8,7.31-1.61,11-2.11a117.76,117.76,0,0,1,22.35-1.34l.2,1c-7.07,1.59-14.11,3.28-21,5.52-3.48,1-6.88,2.24-10.3,3.41-1.71.58-3.39,1.27-5.08,1.9s-3.39,1.27-5,2C782,331,775.45,334.16,769,337.43s-12.69,6.94-18.83,10.76a288.38,288.38,0,0,0-35,25.54q-8.26,7-16,14.69a205,205,0,0,0-14.76,15.89Z" transform="translate(-569 -235)"></path></svg> 