<?xml version="1.0" encoding="iso-8859-1"?>
<!-- Generator: Adobe Illustrator 19.0.0, SVG Export Plug-In . SVG Version: 6.00 Build 0)  -->
<svg version="1.1" id="Layer_1" xmlns="http://www.w3.org/2000/svg" xmlns:xlink="http://www.w3.org/1999/xlink" x="0px" y="0px"
	 viewBox="0 0 512 512" style="enable-background:new 0 0 512 512;" xml:space="preserve">
<g>
	<path style="fill:#734F42;" d="M199.417,313.625c0-4.537-3.713-8.249-8.25-8.249H180.69c-4.537,0-8.248,3.712-8.248,8.249V495.34
		c0,4.539,3.711,8.251,8.248,8.251h10.478c4.536,0,8.25-3.712,8.25-8.251V313.625z"/>
	<path style="fill:#734F42;" d="M312.586,313.625c0-4.537,3.713-8.249,8.25-8.249h10.478c4.537,0,8.248,3.712,8.248,8.249V495.34
		c0,4.539-3.711,8.251-8.248,8.251h-10.478c-4.536,0-8.25-3.712-8.25-8.251V313.625z"/>
</g>
<path style="fill:#9A6B58;" d="M362.873,292.788l9.672-263.274c0.478-11.606-8.635-21.103-20.251-21.103H159.709
	c-11.615,0-20.728,9.497-20.25,21.103l9.669,263.274H362.873z"/>
<path style="fill:#E4E4E4;" d="M200.776,255.073c-12.446,0-23.036-10.176-23.532-22.612L170.91,58.177
	c-0.496-12.437,9.28-22.612,21.727-22.612h126.729c12.446,0,22.222,10.175,21.726,22.612l-6.334,174.284
	c-0.496,12.435-11.085,22.612-23.532,22.612H200.776z"/>
<g>
	<path style="fill:#9A6B58;" d="M165.493,310.365c0-5.273-4.317-9.59-9.59-9.59h-12.178c-5.274,0-9.59,4.317-9.59,9.59V494
		c0,5.275,4.315,9.59,9.59,9.59h12.178c5.274,0,9.59-4.314,9.59-9.59V310.365z"/>
	<path style="fill:#9A6B58;" d="M346.511,310.365c0-5.273,4.317-9.59,9.59-9.59h12.178c5.274,0,9.59,4.317,9.59,9.59V494
		c0,5.275-4.315,9.59-9.59,9.59H356.1c-5.274,0-9.59-4.314-9.59-9.59V310.365z"/>
</g>
<path style="fill:#B28978;" d="M387.458,318.023c0,5.274-4.316,9.59-9.59,9.59H134.134c-5.273,0-9.59-4.315-9.59-9.59v-17.049
	c0-5.274,4.317-9.59,9.59-9.59h243.734c5.273,0,9.59,4.315,9.59,9.59V318.023z"/>
<path style="fill:#1E252B;" d="M377.868,282.974h-6.217l9.298-253.115c0.325-7.923-2.489-15.408-7.927-21.073
	C367.585,3.12,360.223,0,352.293,0H159.709c-7.93,0-15.291,3.12-20.728,8.786c-5.438,5.666-8.252,13.15-7.928,21.036l9.298,253.152
	h-6.217c-9.926,0-18.001,8.075-18.001,18.001v17.049c0,6.888,3.893,12.878,9.59,15.902v160.074c0,9.926,8.076,18.001,18.001,18.001
	h12.178c4.945,0,9.429-2.006,12.686-5.245c3.039,3.221,7.334,5.245,12.101,5.245h10.478c9.186,0,16.661-7.475,16.661-16.662V336.023
	h96.347v159.316c0,9.187,7.475,16.662,16.661,16.662h10.478c4.767,0,9.061-2.024,12.101-5.245c3.257,3.239,7.74,5.245,12.685,5.245
	h12.178c9.926,0,18.001-8.076,18.001-18.001V333.926c5.697-3.025,9.59-9.014,9.59-15.902v-17.049
	C395.869,291.049,387.794,282.974,377.868,282.974z M151.119,20.433c2.235-2.329,5.285-3.611,8.592-3.611h192.584
	c3.305,0,6.356,1.283,8.592,3.611c2.235,2.329,3.391,5.431,3.253,8.771l-9.323,253.77H157.185l-9.323-253.807
	C147.727,25.864,148.884,22.762,151.119,20.433z M157.082,493.999c0,0.628-0.551,1.179-1.179,1.179h-12.178
	c-0.628,0-1.179-0.551-1.179-1.179V336.024h14.535L157.082,493.999L157.082,493.999z M191.006,495.178h-10.155V336.024h10.155
	L191.006,495.178L191.006,495.178z M331.151,495.178h-10.155V336.024h10.155V495.178z M369.457,493.999
	c0,0.628-0.551,1.179-1.179,1.179H356.1c-0.628,0-1.179-0.551-1.179-1.179V336.024h14.535V493.999z M379.047,318.023
	c0,0.628-0.551,1.179-1.179,1.179H134.134c-0.628,0-1.179-0.551-1.179-1.179v-17.049c0-0.628,0.551-1.179,1.179-1.179h243.734
	c0.628,0,1.179,0.551,1.179,1.179V318.023z M168.84,232.796c0.675,16.921,15.002,30.688,31.936,30.688h110.45
	c16.934,0,31.261-13.766,31.937-30.717l6.333-174.253c0.332-8.324-2.633-16.184-8.35-22.133c-5.716-5.948-13.451-9.225-21.78-9.225
	H192.638c-8.329,0-16.065,3.276-21.781,9.225s-8.681,13.81-8.35,22.103L168.84,232.796z M182.985,48.036
	c2.515-2.616,5.943-4.059,9.651-4.059h126.729c3.709,0,7.136,1.441,9.65,4.059c2.515,2.618,3.819,6.1,3.669,9.836l-6.333,174.253
	c-0.314,7.879-7.241,14.535-15.127,14.535h-110.45c-7.885,0-14.812-6.657-15.126-14.506l-6.335-174.313
	C179.167,54.135,180.471,50.653,182.985,48.036z"/>
<g>
</g>
<g>
</g>
<g>
</g>
<g>
</g>
<g>
</g>
<g>
</g>
<g>
</g>
<g>
</g>
<g>
</g>
<g>
</g>
<g>
</g>
<g>
</g>
<g>
</g>
<g>
</g>
<g>
</g>
</svg>
