<?xml version="1.0" standalone="no"?><!DOCTYPE svg PUBLIC "-//W3C//DTD SVG 1.1//EN" "http://www.w3.org/Graphics/SVG/1.1/DTD/svg11.dtd"><svg t="1737032481053" class="icon" viewBox="0 0 1024 1024" version="1.1" xmlns="http://www.w3.org/2000/svg" p-id="4657" xmlns:xlink="http://www.w3.org/1999/xlink" width="200" height="200"><path d="M339.96564465 135.29339043c-8.83738127 3.97682157-129.61492526 51.84597011-162.60781532 186.17416536-32.99289006 134.32819526-84.83886017 245.09004048-11.78317502 343.92142099s108.40521023 134.32819526 200.31397542 188.53080038c91.90876518 54.2026051 379.27094607-4.71327001 452.32663119-21.20971505s131.97156027-42.41943008 98.97867019-117.83175022-146.11137027-188.53080036-150.8246403-238.02013548c-4.71327001-49.48933509 35.34952507-143.75473529-77.76895515-270.86573584s-226.08967076-124.90165524-348.63469101-70.69905014z" fill="#BF935E" p-id="4658"></path><path d="M347.03554967 130.58012041c-8.83738127 3.97682157-129.61492526 51.84597011-162.60781532 186.17416537-32.99289006 134.32819526-84.83886017 245.09004048-11.78317502 343.92142099s108.40521023 134.32819526 200.3139754 188.53080038 379.27094607-4.71327001 452.3266312-21.20971504c73.05568514-16.49644503 131.97156027-42.41943008 98.9786702-117.83175023-32.99289006-75.41232014-146.11137027-188.53080036-150.82464031-238.02013547-4.71327001-49.48933509 35.34952507-143.75473529-77.76895515-270.86573586S469.58056992 76.37751531 347.03554967 130.58012041z" fill="#F9DAAB" p-id="4659"></path><path d="M618.93231333 852.1523009c-5.0078494-4.71327001-10.01569877-9.27925033-15.17083785-13.69794096-84.83886017-73.64484389-189.26724881-127.11100055-255.98947737-217.39957918-56.26466073-76.0014789-80.42016954-172.18164502-84.10241172-266.74162459-2.20934532-59.2104545 2.94579374-118.12632962 11.34130595-176.74762535-29.75251694 29.01606849-58.62129573 69.9626017-72.31923669 125.78539336-32.99289006 134.32819526-84.83886017 245.09004048-11.78317502 343.92142101s108.40521023 134.32819526 200.31397538 188.53080037c44.92335477 26.36485411 136.97940963 25.77569536 227.70985732 16.34915534z" fill="#F1C382" p-id="4660"></path><path d="M688.30575629 313.21933328c22.68261193 58.32671636 38.88447758 124.01791712 80.27287984 168.64669251 0-0.44186907-0.1472897-0.88373813-0.14728968-1.17831749-4.71327001-49.48933509 35.34952507-143.75473529-77.76895515-270.86573585-42.12485071-47.42727948-84.39699111-76.88521703-126.96371088-92.35063425 53.61344636 56.26466073 96.32745582 123.13417899 124.60707587 195.74799508z" fill="#F3CB7F" p-id="4661"></path><path d="M495.50355497 128.51806478c10.16298847 35.34952507 20.32597692 70.69905013 30.48896537 105.90128552 11.34130596 39.32634663 22.8299016 79.09456234 44.18690634 114.00221835 21.35700474 34.907656 54.05531542 64.80746262 93.97082082 73.49755423 7.65906378-100.89343614-25.62840566-204.43808666-90.87773738-281.91246245-4.8605597-5.74429781-10.01569877-11.63588534-16.49644502-15.61270692-14.13981003-8.69009158-31.81457257-7.65906378-48.3110176-6.33345656-6.92261532 0.58915875-15.61270692 2.50392469-17.23289348 9.27925034" fill="#F7E3C9" p-id="4662"></path></svg>