<?xml version="1.0" encoding="iso-8859-1"?>
<!-- Uploaded to: SVG Repo, www.svgrepo.com, Generator: SVG Repo Mixer Tools -->
<svg xmlns="http://www.w3.org/2000/svg" xmlns:xlink="http://www.w3.org/1999/xlink" version="1.1" id="Capa_1"  viewBox="0 0 455 455" xml:space="preserve" width="512" height="512">
<g>
	<polygon style="fill:#FF6761;" points="260.499,2.519 277.089,32.989 247.189,78.399 247.189,2.519  "/>
	<polygon style="fill:#FF9387;" points="247.189,2.519 262.529,48.399 225.469,87.629 173.449,32.989 190.029,2.519  "/>
	<path style="fill:#BE2A45;" d="M277.089,32.989c-3.73,0.39-7.39,1.02-10.96,1.88l-15.96,112.75c20.56-8.68,35.96-28.1,35.96-54.06   c0-35.76,0-61.04,0-61.04C283.069,32.519,280.059,32.679,277.089,32.989z"/>
	<path style="fill:#E43349;" d="M266.129,34.869c0,7.05,0,29.34,0,58.69c0,25.96-6.83,45.38-15.96,54.06l-24.9-89.79l0.2-0.2   C236.479,46.619,250.459,38.599,266.129,34.869z"/>
	<path style="fill:#FF3B3B;" d="M173.449,32.986c20.19,2.11,38.28,11.21,51.82,24.84c15.4,15.5,24.9,36.86,24.9,60.45v29.34   c-7.75,3.29-16.23,5.04-24.9,5.04c-31.64,0-60.86-23.35-60.86-59.1c0-35.76,0-61.04,0-61.04   C167.469,32.516,170.479,32.676,173.449,32.986z"/>
	<path style="fill:#864941;" d="M313.83,152.661h-30l40,90h30v-50C353.83,170.661,335.83,152.661,313.83,152.661z"/>
	<path style="fill:#B26156;" d="M323.83,192.661v50H101.17v-50c0-22,18-40,40-40h142.66   C305.83,152.661,323.83,170.661,323.83,192.661z"/>
	<polygon style="fill:#CB2E3E;" points="414.83,292.661 414.83,404.481 384.83,404.481 334.83,248.281  "/>
	<path style="fill:#FF3B3B;" d="M384.83,288.281v116.2H40.17l-0.02-111.82c12.37,0,187.34-34.79,187.34-34.79   S331.28,278.931,384.83,288.281z"/>
	<path style="fill:#5DC09A;" d="M405.39,408.211l-39.68,44.27h30c11,0,23.65-8.23,28.12-18.28l11.88-26.72L405.39,408.211z"/>
	<path style="fill:#6CDFB4;" d="M405.39,408.211l-11.56,25.99c-4.47,10.05-17.12,18.28-28.12,18.28H59.29   c-11,0-23.65-8.23-28.12-18.28l-11.88-26.72L405.39,408.211z"/>
	<path style="fill:#7BFFCD;" d="M440,387.481l-425-0.003c-8.28,0-15,6.72-15,15c0,8.29,6.72,15,15,15h425c8.28,0,15-6.71,15-15   C455,394.198,448.28,387.481,440,387.481z"/>
	<path style="fill:#972041;" d="M374.83,222.661h-30l40,82.12c7.42-6.21,15.2-12.12,30-12.12v-30   C414.83,240.661,396.83,222.661,374.83,222.661z"/>
	<path style="fill:#864941;" d="M384.83,262.661v42.12c-8.24,6.9-16.02,14.17-32.45,14.17c-31.22,0-31.22-26.29-62.45-26.29   c-31.22,0-31.22,26.29-62.44,26.29s-31.22-26.29-62.44-26.29c-31.23,0-31.23,26.29-62.45,26.29c-31.23,0-31.23-26.29-62.45-26.29   v-30c0-22,18-40,40-40h264.68C366.83,222.661,384.83,240.661,384.83,262.661z"/>
</g>















</svg>