<?xml version="1.0" encoding="iso-8859-1"?>
<!-- Uploaded to: SVG Repo, www.svgrepo.com, Generator: SVG Repo Mixer Tools -->
<svg height="800px" width="800px" version="1.1" id="Layer_1" xmlns="http://www.w3.org/2000/svg" xmlns:xlink="http://www.w3.org/1999/xlink" 
	 viewBox="0 0 512 512" xml:space="preserve">
<path style="fill:#FFB655;" d="M434.327,54.492C386.408,19.352,323.077,0,256,0c-5.148,0-10.271,0.127-15.371,0.354
	c-0.006,0-0.012,0-0.019,0.002c-61.327,2.726-118.7,21.698-162.937,54.137C27.584,91.224,0,140.747,0,193.939v124.121
	c0,53.192,27.584,102.715,77.674,139.447c14.974,10.982,31.454,20.421,49.082,28.21c3.525,1.558,7.097,3.05,10.712,4.475
	c1.808,0.712,3.626,1.409,5.454,2.087c3.657,1.358,7.356,2.648,11.093,3.871c9.345,3.055,18.932,5.685,28.717,7.874
	c3.914,0.875,7.86,1.682,11.835,2.416C214.443,510.11,235.039,512,256,512c67.077,0,130.408-19.352,178.327-54.492
	C484.416,420.776,512,371.253,512,318.061V193.939C512,140.747,484.416,91.224,434.327,54.492z"/>
<path style="fill:#806749;" d="M434.325,54.492C386.408,19.352,323.077,0,256,0c-5.148,0-10.271,0.129-15.371,0.354
	c-0.006,0-0.012,0-0.019,0.002c-61.327,2.726-118.7,21.698-162.937,54.137C27.584,91.224,0,140.747,0,193.939
	c0,28.678,8.032,56.286,23.273,81.402c6.474,10.668,14.254,20.883,23.273,30.542c9.131,9.778,19.517,18.987,31.128,27.504
	c47.919,35.14,111.25,54.492,178.326,54.492s130.408-19.352,178.325-54.492c11.612-8.516,21.999-17.726,31.13-27.504
	c9.021-9.658,16.798-19.873,23.273-30.542C503.968,250.225,512,222.619,512,193.939C512,140.747,484.416,91.224,434.325,54.492z
	 M462.801,217.212c-6.703,29.314-26,56.638-56.002,78.64c-39.993,29.328-93.549,45.481-150.8,45.481S145.194,325.181,105.2,295.852
	c-30.002-22.002-49.299-49.326-56.002-78.64c-1.749-7.643-2.653-15.419-2.653-23.273c0-7.854,0.905-15.63,2.653-23.273
	c6.703-29.314,26-56.638,56.002-78.64c36.537-26.795,84.392-42.581,136.043-45.113c73.616,4.704,131.146,55.946,131.146,117.029
	c0,2.264-0.138,4.501-0.343,6.723c-0.74,8.104-2.794,15.911-6.015,23.273c-3.679,8.408-8.844,16.24-15.258,23.273
	c-19.915,21.833-51.731,35.997-87.516,35.997c-31.843,0-59.522-14.631-73.32-35.997c-4.591-7.109-7.646-14.96-8.8-23.273
	c-0.343-2.461-0.535-4.957-0.535-7.489c0-5.523,1.181-10.83,3.326-15.784c8.291-19.155,31.215-32.967,58.145-32.967
	c12.853,0,23.273-10.42,23.273-23.273s-10.42-23.273-23.273-23.273c-53.464,0-97.953,34.454-106.505,79.512
	c-0.976,5.139-1.51,10.404-1.51,15.784c0,2.52,0.129,5.01,0.313,7.489c0.6,8.014,2.157,15.796,4.565,23.273
	c15.329,47.569,65.238,82.542,124.321,82.542c64.178,0,119.408-34.057,143.196-82.542c3.651-7.441,6.56-15.222,8.648-23.273
	c1.956-7.542,3.195-15.318,3.643-23.273c0.124-2.228,0.191-4.468,0.191-6.723c0-28.348-8.279-55.696-23.797-79.856
	c4.001,2.527,7.893,5.174,11.663,7.939c30,22.004,49.298,49.327,56,78.642c1.749,7.643,2.653,15.419,2.653,23.273
	C465.455,201.793,464.55,209.569,462.801,217.212z"/>
<path style="fill:#EE8700;" d="M77.674,333.386c-11.612-8.516-21.999-17.726-31.128-27.504
	c-9.019-9.658-16.798-19.873-23.273-30.542C8.032,250.225,0,222.618,0,193.939v124.121c0,53.192,27.584,102.715,77.674,139.447
	C125.592,492.648,188.923,512,256,512V387.879C188.923,387.879,125.592,368.527,77.674,333.386z"/>
</svg>