<?xml version="1.0" encoding="iso-8859-1"?>
<!-- Uploaded to: SVG Repo, www.svgrepo.com, Generator: SVG Repo Mixer Tools -->
<svg height="800px" width="800px" version="1.1" id="Layer_1" xmlns="http://www.w3.org/2000/svg" xmlns:xlink="http://www.w3.org/1999/xlink" 
	 viewBox="0 0 511.999 511.999" xml:space="preserve">
<g>
	<polygon style="fill:#62B3CD;" points="301.414,8.169 255.999,207.032 210.583,8.169 	"/>
	<path style="fill:#62B3CD;" d="M365.251,141.071l5.437,158.4l-9.531,39.159l12.219,39.159l3.814,111.126
		c0,0-12.114,3.835-33.727,7.626l-43.574-377.257L365.251,141.071z"/>
</g>
<path style="fill:#82C8DB;" d="M229.854,223.373l26.145,280.456c36.515,0,66.473-3.617,87.465-7.288v-355.47h21.787l45.034,47.453
	l21.787-63.978l-68.619-73.314l-62.312-27.909L229.854,223.373z"/>
<polygon style="fill:#419EBE;" points="410.285,89.632 399.392,102.758 410.285,124.546 437.116,295.608 469.797,295.608 
	469.797,153.207 "/>
<path style="fill:#62B3CD;" d="M410.285,89.632v34.914l-68.619-73.314c-1.994-2.124-4.761-4.249-7.843-6.122l-9.792-7.553
	l12.734-1.184l15.371,2.865c7.212,1.253,17.201,6.656,22.212,11.994L410.285,89.632z"/>
<polygon style="fill:#C4F5FF;" points="301.414,8.169 255.999,139.546 245.105,173.289 255.999,207.032 322.94,109.088 
	306.654,75.317 323.376,75.317 336.764,36.373 "/>
<path style="fill:#A3DDE9;" d="M210.856,23.322l-35.622,13.051l-15.371,2.865c-7.212,1.253-17.201,6.656-22.212,11.994l-35.938,38.4
	l-21.787,34.914l21.787,63.978l45.034-47.453l-5.437,158.407l9.507,39.158l-12.195,39.158l-3.814,111.12
	c0,0,12.114,3.835,33.727,7.626c20.992,3.671,50.949,7.288,87.465,7.288V207.032L210.856,23.322z"/>
<polygon style="fill:#E2FAFF;" points="175.321,36.362 210.583,8.169 255.999,139.546 255.999,207.032 189.058,109.088 
	205.344,75.317 188.622,75.317 "/>
<polygon style="fill:#82C8DB;" points="101.713,89.632 42.201,153.207 42.201,295.608 101.713,295.608 "/>
<polygon style="fill:#62B3CD;" points="437.116,153.207 437.116,295.608 410.285,295.608 410.285,188.524 410.285,124.546 "/>
<path style="fill:#E2FAFF;" d="M141.31,299.477l-2.69,78.318h24.727c11.983,0,21.787-9.804,21.787-21.787v-56.53H141.31z"/>
<path style="fill:#C4F5FF;" d="M370.691,299.477h-43.825v56.53c0,11.983,9.804,21.787,21.787,21.787h24.727L370.691,299.477z"/>
<path d="M222.776,414.52c-4.805,0-8.715,3.91-8.715,8.715s3.91,8.715,8.715,8.715c4.805,0,8.715-3.91,8.715-8.715
	S227.581,414.52,222.776,414.52z"/>
<path d="M222.776,329.921c-4.805,0-8.715,3.91-8.715,8.715c0,4.805,3.91,8.715,8.715,8.715c4.805,0,8.715-3.91,8.715-8.715
	C231.49,333.831,227.581,329.921,222.776,329.921z"/>
<path d="M222.776,245.323c-4.805,0-8.715,3.91-8.715,8.715s3.91,8.715,8.715,8.715c4.805,0,8.715-3.91,8.715-8.715
	S227.581,245.323,222.776,245.323z"/>
<path d="M475.761,147.627L380.308,45.651c-6.251-6.68-17.762-12.897-26.676-14.446L340.184,28.7L306.515,1.788
	c-0.02-0.015-0.041-0.025-0.061-0.04c-0.322-0.254-0.666-0.485-1.031-0.69c-0.052-0.029-0.106-0.054-0.158-0.083
	c-0.356-0.191-0.727-0.362-1.118-0.501c-0.014-0.004-0.027-0.011-0.04-0.016c-0.009-0.003-0.016-0.007-0.024-0.01
	c-0.389-0.134-0.781-0.227-1.173-0.301c-0.071-0.013-0.142-0.027-0.212-0.039c-0.405-0.064-0.81-0.099-1.212-0.102
	c-0.024,0-0.047-0.005-0.07-0.005h-90.827c-0.02,0-0.038,0.004-0.058,0.004c-0.41,0.003-0.822,0.038-1.234,0.105
	c-0.064,0.011-0.127,0.024-0.192,0.035c-0.397,0.074-0.792,0.168-1.185,0.303c-0.009,0.003-0.016,0.007-0.025,0.01
	c-0.012,0.004-0.024,0.01-0.036,0.014c-0.394,0.139-0.766,0.313-1.124,0.503c-0.051,0.027-0.103,0.052-0.155,0.082
	c-0.365,0.205-0.709,0.437-1.032,0.691c-0.02,0.015-0.041,0.025-0.061,0.04l-33.672,26.913l-13.351,2.486
	c-9.012,1.567-20.522,7.783-26.773,14.463L36.238,147.625c-1.417,1.514-2.205,3.51-2.205,5.583V295.61c0,4.513,3.658,8.17,8.17,8.17
	h59.51c4.512,0,8.17-3.657,8.17-8.17V191.781l27.962-29.461L126.64,488.629c-0.125,3.664,2.204,6.963,5.697,8.069
	c1.972,0.627,49.144,15.301,123.661,15.301S377.688,497.324,379.66,496.7c3.494-1.107,5.824-4.405,5.696-8.069l-11.204-326.31
	l27.963,29.46v103.831c0,4.513,3.657,8.17,8.17,8.17h59.511c4.513,0,8.17-3.657,8.17-8.17V153.21
	C477.967,151.136,477.179,149.14,475.761,147.627z M299.296,78.869l14.235,29.515l-49.36,72.215v-39.677l41.183-119.143
	l21.847,17.462l-9.646,27.908h-10.9c-2.811,0-5.424,1.444-6.92,3.826C298.24,73.357,298.074,76.338,299.296,78.869z M212.263,70.975
	c-1.495-2.38-4.108-3.826-6.92-3.826h-10.901l-9.646-27.908l21.852-17.465l41.183,119.143v39.684l-49.364-72.22l14.236-29.515
	C213.923,76.338,213.758,73.357,212.263,70.975z M256.001,114.541l-33.945-98.202h67.889L256.001,114.541z M149.204,307.648h27.76
	v48.36c0,7.509-6.108,13.617-13.617,13.617h-16.271L149.204,307.648z M364.922,369.625h-16.267c-7.509,0-13.617-6.108-13.617-13.617
	v-48.36h27.757L364.922,369.625z M461.627,287.441h-43.17V153.21c0-4.513-3.658-8.17-8.17-8.17c-4.513,0-8.17,3.657-8.17,8.17
	v14.837l-30.941-32.598c-2.337-2.463-5.954-3.221-9.083-1.911c-3.131,1.312-5.124,4.424-5.008,7.816l5.148,149.954h-35.366
	c-4.513,0-8.17,3.657-8.17,8.17v56.53c0,16.518,13.439,29.957,29.957,29.957h16.828l3.324,96.8
	c-14.69,3.803-55.757,12.893-112.807,12.893c-57.053,0-98.123-9.091-112.808-12.894l3.324-96.8h16.832
	c16.519,0,29.957-13.439,29.957-29.957v-56.53c0-4.513-3.658-8.17-8.17-8.17h-35.369l5.149-149.954
	c0.117-3.392-1.877-6.505-5.008-7.816c-3.131-1.311-6.746-0.552-9.083,1.911l-30.941,32.598v-14.837c0-4.513-3.658-8.17-8.17-8.17
	s-8.17,3.657-8.17,8.17v134.232h-43.17V156.437l93.248-99.621c3.781-4.04,12.19-8.583,17.738-9.548l8.384-1.561L180.9,77.988
	c1.137,3.292,4.239,5.501,7.721,5.501h3.709l-10.637,22.053c-1.27,2.633-1.036,5.745,0.614,8.159l65.522,95.859l-0.002,261.586
	c0,4.513,3.658,8.17,8.17,8.17s8.17-3.657,8.17-8.17l0.001-261.592l65.517-95.853c1.65-2.414,1.885-5.526,0.614-8.159
	l-10.637-22.053h3.709c3.483,0,6.584-2.208,7.722-5.501l11.158-32.282l8.481,1.58c5.451,0.947,13.86,5.489,17.641,9.53
	l93.248,99.621v131.003H461.627z"/>
</svg>