<?xml version="1.0" standalone="no"?><!DOCTYPE svg PUBLIC "-//W3C//DTD SVG 1.1//EN" "http://www.w3.org/Graphics/SVG/1.1/DTD/svg11.dtd"><svg t="1737642459475" class="icon" viewBox="0 0 1024 1024" version="1.1" xmlns="http://www.w3.org/2000/svg" p-id="9023" xmlns:xlink="http://www.w3.org/1999/xlink" width="200" height="200"><path d="M256 640h42.671158v64h426.657684V640H768v106.671158H256V640z m165.322105-117.598316l7.154527 44.463158c-5.524211 2.640842-13.002105 4.810105-22.447158 6.50779a185.397895 185.397895 0 0 1-31.703579 2.627368c-31.258947-0.350316-55.713684-9.296842-73.350737-26.812632-17.637053-17.542737-26.597053-41.579789-26.906947-72.124631 0.053895-28.806737 9.229474-52.466526 27.526736-70.979369 18.297263-18.499368 45.325474-28.065684 81.084632-28.698947l24.293053 1.886316 21.90821 5.470316-9.566316 41.862736c-6.898526-3.543579-18.189474-5.524211-33.845894-5.914947-16.128 0.282947-28.860632 5.335579-38.170948 15.184842-9.310316 9.835789-13.985684 22.770526-13.999158 38.831158 0.390737 17.596632 5.591579 30.989474 15.629474 40.151579 10.037895 9.175579 22.622316 13.797053 37.726316 13.850947 14.147368-0.134737 25.694316-2.236632 34.654316-6.305684z m40.057263 49.623579v-129.832421l-1.589894-60.82021h51.375158l2.384842 26.00421h1.185684c4.096-6.629053 10.967579-13.163789 20.62821-19.60421 9.660632-6.440421 22.905263-9.903158 39.747369-10.374737 12.934737 0.107789 24.010105 3.045053 33.239579 8.784842a50.822737 50.822737 0 0 1 20.277895 23.498105h0.808421c7.477895-9.997474 15.764211-17.690947 24.858947-23.066947 10.132211-5.955368 21.962105-9.027368 35.530105-9.229474 18.997895-0.134737 29.210947 6.467368 41.32379 19.806316 12.126316 13.338947 18.378105 34.196211 18.782315 62.571789v112.262737h-58.933894v-103.693474c0.026947-13.931789-2.223158-24.656842-6.736842-32.202105-4.513684-7.545263-6.103579-11.358316-15.440842-11.452631-6.885053 0.148211-12.597895 2.182737-17.152 6.090105a34.223158 34.223158 0 0 0-9.970527 14.565053l-1.913263 15.198315v111.494737h-58.947368v-107.196631c0.053895-12.085895-2.290526-21.746526-7.006316-28.995369s-12.045474-10.967579-22.029474-11.15621c-7.949474 0.296421-14.322526 2.627368-19.119158 7.006315-4.783158 4.392421-8.084211 9.067789-9.916631 14.039579a38.359579 38.359579 0 0 0-2.452211 15.198316v111.090526h-58.933895z" p-id="9024"></path></svg>