<?xml version="1.0" encoding="iso-8859-1"?>
<!-- Uploaded to: SVG Repo, www.svgrepo.com, Generator: SVG Repo Mixer Tools -->
<svg height="800px" width="800px" version="1.1" id="Layer_1" xmlns="http://www.w3.org/2000/svg" xmlns:xlink="http://www.w3.org/1999/xlink" 
	 viewBox="0 0 511.999 511.999" xml:space="preserve">
<path style="fill:#EAFFFF;" d="M482.358,72.757v366.484c0,23.812-19.304,43.116-43.116,43.116H72.758
	c-23.812,0-43.116-19.304-43.116-43.116V72.757c0-23.812,19.304-43.116,43.116-43.116h366.484
	C463.054,29.642,482.358,48.946,482.358,72.757z"/>
<path style="fill:#A9D5BB;" d="M8.085,353.01h474.274c11.906,0,21.558,9.651,21.558,21.558v107.789
	c0,11.906-9.651,21.558-21.558,21.558H29.643c-11.906,0-21.558-9.651-21.558-21.558V353.01z"/>
<path style="fill:#FFFF81;" d="M412.295,8.084c50.601,0,91.621,41.02,91.621,91.621s-41.02,91.621-91.621,91.621
	s-91.621-41.02-91.621-91.621S361.694,8.084,412.295,8.084z"/>
<path style="fill:#FFF145;" d="M412.295,51.199c26.789,0,48.505,21.716,48.505,48.505s-21.716,48.505-48.505,48.505
	c-26.789,0-48.505-21.716-48.505-48.505S385.506,51.199,412.295,51.199z"/>
<path style="fill:#9FBA41;" d="M105.095,29.642h43.656c2.496-12.3,13.37-21.558,26.407-21.558h150.905
	c14.883,0,26.947,12.065,26.947,26.947l0,0c0,14.882-12.065,26.947-26.947,26.947h-53.895c0,17.86-14.477,32.337-32.337,32.337
	H105.095c-17.86,0-32.337-14.477-32.337-32.337l0,0C72.758,44.119,87.236,29.642,105.095,29.642z"/>
<path style="fill:#7F932A;" d="M239.293,94.315H105.095c-17.86,0-32.337-14.477-32.337-32.337l0,0
	c0-17.86,14.477-32.337,32.337-32.337h134.198c17.86,0,32.337,14.477,32.337,32.337l0,0
	C271.63,79.838,257.153,94.315,239.293,94.315z"/>
<path style="fill:#BCAE8A;" d="M256,355.664v18.904c0,11.906-9.651,21.558-21.558,21.558h-204.8
	c-11.906,0-21.558-9.651-21.558-21.558V266.778v-21.558v-43.116c0-11.906,9.651-21.558,21.558-21.558h123.294
	c9.892,0,18.515,6.733,20.914,16.329l2.088,8.35c2.709,10.835,12.444,18.436,23.613,18.436h7.28c9.892,0,18.515,6.733,20.914,16.329
	l27.611,110.443C255.784,352.146,256,353.901,256,355.664z"/>
<path style="fill:#DBCB9C;" d="M328.839,353.332l6.697,26.787c3.402,13.606-6.889,26.787-20.914,26.787H158.99
	c-11.906,0-21.558-9.651-21.558-21.558V363.79c0-23.812,19.304-43.116,43.116-43.116H287.01
	C306.795,320.673,324.04,334.138,328.839,353.332z"/>
<path style="fill:#BCAE8A;" d="M76.225,467.351l4.734,23.672c1.334,6.67-3.767,12.893-10.57,12.893H18.864
	c-5.953,0-10.779-4.826-10.779-10.779v-21.558c0-11.906,9.651-21.558,21.558-21.558h25.443
	C65.362,450.021,74.209,457.274,76.225,467.351z"/>
<path d="M493.135,414.99h-43.116c-4.465,0-8.084-3.62-8.084-8.084c0-4.465,3.62-8.084,8.084-8.084h43.116
	c4.465,0,8.084,3.62,8.084,8.084C501.219,411.37,497.6,414.99,493.135,414.99z M511.998,353.012c0-4.465-3.62-8.084-8.084-8.084
	H363.788c-4.465,0-8.084,3.62-8.084,8.084s3.62,8.084,8.084,8.084h140.125C508.379,361.096,511.998,357.477,511.998,353.012z
	 M145.515,299.117v-43.116c0-4.465-3.62-8.084-8.084-8.084c-4.465,0-8.084,3.62-8.084,8.084v43.116c0,4.465,3.62,8.084,8.084,8.084
	S145.515,303.582,145.515,299.117z M393.43,282.949c0,4.465,3.62,8.084,8.084,8.084s8.084-3.62,8.084-8.084
	c0-10.401,8.463-18.863,18.863-18.863c4.465,0,8.084-3.62,8.084-8.084c0-4.465-3.62-8.084-8.084-8.084
	c-10.823,0-20.517,4.935-26.947,12.671c-6.431-7.736-16.124-12.671-26.947-12.671c-4.465,0-8.084,3.62-8.084,8.084
	c0,4.465,3.62,8.084,8.084,8.084C384.968,264.087,393.43,272.548,393.43,282.949z M115.873,447.327c-4.465,0-8.084,3.62-8.084,8.084
	c0,4.465,3.62,8.084,8.084,8.084h215.578c4.465,0,8.084-3.62,8.084-8.084c0-4.465-3.62-8.084-8.084-8.084H115.873z M374.567,463.495
	h75.453c4.465,0,8.084-3.62,8.084-8.084c0-4.465-3.62-8.084-8.084-8.084h-75.453c-4.465,0-8.084,3.62-8.084,8.084
	C366.482,459.876,370.102,463.495,374.567,463.495z M414.988,406.906c0-4.465-3.62-8.084-8.084-8.084h-65.871
	c3.244-6.322,4.109-13.602,2.343-20.662l-6.697-26.787c-5.709-22.834-26.134-38.782-49.67-38.782H180.546
	c-28.231,0-51.2,22.968-51.2,51.199v21.558c0,16.344,13.297,29.642,29.642,29.642h21.558c4.465,0,8.084-3.62,8.084-8.084
	c0-4.465-3.62-8.084-8.084-8.084h-21.558c-7.43,0-13.474-6.044-13.474-13.474V363.79c0-19.316,15.716-35.032,35.032-35.032h106.463
	c16.104,0,30.08,10.912,33.986,26.535l6.697,26.787c1.013,4.053,0.12,8.266-2.452,11.559c-2.571,3.293-6.442,5.181-10.619,5.181
	H212.345c-4.465,0-8.084,3.62-8.084,8.084c0,4.465,3.62,8.084,8.084,8.084h194.559C411.368,414.99,414.988,411.37,414.988,406.906z
	 M199.41,503.915c0,4.465-3.62,8.084-8.084,8.084H18.864C8.463,511.999,0,503.538,0,493.136v-21.558
	c0-16.344,13.297-29.642,29.642-29.642h25.443c14.081,0,26.305,10.021,29.067,23.828l4.734,23.672
	c0.427,2.137,0.48,4.296,0.179,6.394h102.261C195.79,495.831,199.41,499.451,199.41,503.915z M73.031,492.607l-4.734-23.672
	c-1.256-6.275-6.812-10.831-13.212-10.831H29.643c-7.43,0-13.474,6.044-13.474,13.474v21.558c0,1.485,1.209,2.695,2.695,2.695
	h51.526c1.109,0,1.782-0.618,2.084-0.986C72.774,494.476,73.249,493.696,73.031,492.607z M382.653,21.584
	c11.111-4.224,22.814-5.992,34.783-5.253c45.974,2.836,81.071,42.547,78.235,88.521c-2.836,45.974-42.552,81.079-88.521,78.235
	c-45.975-2.836-81.071-42.547-78.235-88.521c0.275-4.456-3.115-8.292-7.571-8.567c-4.45-0.267-8.292,3.115-8.567,7.571
	c-3.385,54.872,38.505,102.268,93.377,105.654c2.08,0.128,4.148,0.192,6.203,0.192c52.198-0.001,96.195-40.776,99.451-93.568
	C515.192,50.976,473.304,3.58,418.431,0.195c-14.279-0.881-28.251,1.231-41.524,6.277c-4.174,1.587-6.27,6.256-4.685,10.43
	C373.81,21.073,378.479,23.169,382.653,21.584z M503.554,495.831H299.115c-4.465,0-8.084,3.62-8.084,8.084
	c0,4.465,3.62,8.084,8.084,8.084h204.44c4.465,0,8.084-3.62,8.084-8.084C511.638,499.451,508.019,495.831,503.554,495.831z
	 M245.22,495.831h-21.558c-4.465,0-8.084,3.62-8.084,8.084c0,4.465,3.62,8.084,8.084,8.084h21.558c4.465,0,8.084-3.62,8.084-8.084
	C253.305,499.451,249.685,495.831,245.22,495.831z M0,374.569V202.108c0-16.344,13.297-29.642,29.642-29.642h47.267l6.014-30.066
	c2.762-13.807,14.986-23.829,29.067-23.829h42.242c5.809,0,10.945-3.703,12.782-9.213l2.319-6.956h-64.236
	c-22.289,0-40.421-18.132-40.421-40.421s18.132-40.421,40.421-40.421h37.721c5.351-12.809,18.046-21.558,32.341-21.558h150.904
	c19.316,0,35.032,15.715,35.032,35.032s-15.716,35.032-35.032,35.032h-46.622c-3.756,18.427-20.089,32.337-39.608,32.337h-53.457
	l-4.023,12.068c-4.041,12.123-15.342,20.268-28.121,20.268h-42.242c-6.399,0-11.957,4.555-13.212,10.831l-5.38,26.895h59.539
	c13.627,0,25.452,9.233,28.757,22.453l2.088,8.349c1.813,7.25,8.298,12.313,15.77,12.313h7.28c13.627,0,25.452,9.233,28.757,22.453
	l12.086,48.344c1.083,4.331-1.55,8.72-5.882,9.803c-4.333,1.082-8.72-1.55-9.803-5.882l-12.086-48.344
	c-1.503-6.009-6.877-10.206-13.072-10.206h-7.28c-14.905,0-27.84-10.1-31.455-24.56l-2.088-8.349
	c-1.503-6.009-6.877-10.207-13.072-10.207H83.702c-0.103,0.001-0.208,0.001-0.314,0H29.643c-7.43,0-13.474,6.044-13.474,13.474
	v172.461c0,7.43,6.044,13.474,13.474,13.474h24.253v-99.704c0-4.465,3.62-8.084,8.084-8.084s8.084,3.62,8.084,8.084v99.704h35.031
	c4.465,0,8.084,3.62,8.084,8.084s-3.62,8.084-8.084,8.084H29.643C13.297,404.211,0,390.914,0,374.569z M180.358,86.235
	c0.125-0.003,0.25-0.003,0.376,0h59.097c13.373,0,24.253-10.879,24.253-24.253c0-4.465,3.62-8.084,8.084-8.084h53.895
	c10.401,0,18.863-8.461,18.863-18.863s-8.463-18.863-18.863-18.863H175.157c-8.937,0-16.711,6.342-18.485,15.082
	c-0.764,3.768-4.078,6.476-7.923,6.476h-43.655c-13.373,0-24.253,10.879-24.253,24.253s10.879,24.253,24.253,24.253H180.358z
	 M412.293,156.299c-31.204,0-56.589-25.385-56.589-56.588s25.385-56.588,56.589-56.588s56.589,25.386,56.589,56.588
	S443.497,156.299,412.293,156.299z M412.293,140.13c22.289,0,40.421-18.132,40.421-40.421s-18.132-40.421-40.421-40.421
	c-22.289,0-40.421,18.132-40.421,40.421S390.004,140.13,412.293,140.13z"/>
</svg>