<?xml version="1.0" encoding="iso-8859-1"?>
<!-- Uploaded to: SVG Repo, www.svgrepo.com, Generator: SVG Repo Mixer Tools -->
<svg version="1.1" id="Layer_1" xmlns="http://www.w3.org/2000/svg" xmlns:xlink="http://www.w3.org/1999/xlink" 
	 viewBox="0 0 512 512" xml:space="preserve">
<rect x="128.915" y="169.446" style="fill:#A5001E;" width="254.17" height="334.709"/>
<g>
	<rect x="256" y="169.446" style="fill:#830018;" width="127.085" height="334.709"/>
	
		<rect x="236.707" y="208.758" transform="matrix(-0.9063 -0.4226 0.4226 -0.9063 409.8284 571.473)" style="fill:#830018;" width="63.102" height="63.102"/>
	
		<rect x="201.52" y="311.278" transform="matrix(-0.9063 0.4226 -0.4226 -0.9063 589.1885 555.0423)" style="fill:#830018;" width="63.102" height="63.102"/>
	<rect x="248.124" y="402.352" style="fill:#830018;" width="63.103" height="63.103"/>
</g>
<polygon points="136.76,496.311 136.76,177.291 375.24,177.291 375.24,481.144 390.93,481.144 390.93,177.291 410.803,177.291 
	410.803,161.602 390.93,161.602 390.93,92.568 195.334,92.568 195.334,108.257 375.24,108.257 375.24,161.602 136.76,161.602 
	136.76,108.257 165.001,108.257 165.001,146.435 180.691,146.435 180.691,0 127.346,0 127.346,15.689 165.001,15.689 
	165.001,92.568 121.07,92.568 121.07,161.602 105.381,161.602 105.381,177.291 121.07,177.291 121.07,496.311 94.921,496.311 
	94.921,512 417.079,512 417.079,496.311 "/>
<g>
	<path style="fill:#C70024;" d="M287.311,292.672l-71.408-33.297l33.297-71.407l71.408,33.298L287.311,292.672z M236.753,251.785
		l42.968,20.037l20.037-42.968l-42.968-20.037L236.753,251.785z"/>
	<path style="fill:#C70024;" d="M214.022,395.176l-33.297-71.406l71.407-33.298l33.297,71.407L214.022,395.176z M201.575,331.358
		l20.037,42.968l42.967-20.037l-20.037-42.968L201.575,331.358z"/>
	<path style="fill:#C70024;" d="M319.074,473.299h-78.788v-78.788h78.788V473.299z M255.975,457.61h47.409V410.2h-47.409V457.61z"/>
</g>
<g>
	<rect x="155.587" y="311.311" style="fill:#830018;" width="15.689" height="15.689"/>
	<rect x="184.874" y="380.208" style="fill:#830018;" width="15.689" height="15.689"/>
</g>
<rect x="336.56" y="276.898" style="fill:#A5001E;" width="15.689" height="15.689"/>
<rect x="216.253" y="202.394" style="fill:#830018;" width="15.689" height="15.689"/>
<rect x="263.322" y="415.771" style="fill:#A5001E;" width="15.689" height="15.689"/>
</svg>