<?xml version="1.0" encoding="utf-8"?>
<!-- Uploaded to: SVG Repo, www.svgrepo.com, Generator: SVG Repo Mixer Tools -->
<svg width="800px" height="800px" viewBox="0 0 1024 1024" class="icon"  version="1.1" xmlns="http://www.w3.org/2000/svg"><path d="M896 576c0-211.2-172.8-384-384-384S128 364.8 128 576v170.666667h768v-170.666667z" fill="#E1BEE7" /><path d="M832 576c0-177.066667-142.933333-320-320-320S192 398.933333 192 576v106.666667h640v-106.666667z" fill="#CE93D8" /><path d="M768 576c0-140.8-115.2-256-256-256s-256 115.2-256 256v106.666667h512v-106.666667z" fill="#E1BEE7" /><path d="M704 576c0-106.666667-85.333333-192-192-192s-192 85.333333-192 192v106.666667h384v-106.666667z" fill="#CE93D8" /><path d="M640 569.6c0-70.4-57.6-128-128-128s-128 57.6-128 128V682.666667h256v-113.066667z" fill="#E1BEE7" /><path d="M576 576c0-36.266667-27.733333-64-64-64s-64 27.733333-64 64v100.266667h128V576z" fill="#CE93D8" /><path d="M85.333333 704h853.333334v42.666667H85.333333z" fill="#BF360C" /><path d="M938.666667 704H85.333333l42.666667-42.666667h768z" fill="#FF5722" /><path d="M42.666667 789.333333h938.666666v42.666667H42.666667z" fill="#BF360C" /><path d="M981.333333 789.333333H42.666667l42.666666-42.666666h853.333334z" fill="#FF5722" /></svg>