<?xml version="1.0" encoding="utf-8"?>
<!-- Generator: Adobe Illustrator 27.5.0, SVG Export Plug-In . SVG Version: 6.00 Build 0)  -->
<svg version="1.1" xmlns="http://www.w3.org/2000/svg" xmlns:xlink="http://www.w3.org/1999/xlink" x="0px" y="0px"
	 viewBox="0 0 500 500" style="enable-background:new 0 0 500 500;" xml:space="preserve">
<g id="BACKGROUND">
</g>
<g id="OBJECTS">
	<g>
		<path style="fill:#476268;stroke:#FFFFFF;stroke-width:0.5;stroke-miterlimit:10;" d="M115.362,327.157
			c0.746-0.68,1.968,0.677,3.052,0.815c1.085,0.135,2.239-0.608,2.239-0.608s-0.204-0.139-1.968-0.272
			c-1.761-0.138-1.899-2.242-3.46-1.494c-1.554,0.743-2.64,0.947-4.592,0.75c-0.028,0.596-0.366,1.393-0.471,2.185
			c0.501-0.126,0.883-0.212,1.062-0.222C112.311,328.243,114.615,327.834,115.362,327.157z"/>
		<path style="fill:#476268;stroke:#FFFFFF;stroke-width:0.5;stroke-miterlimit:10;" d="M116.208,335.556
			c0.806-0.561,2.415-2.013,2.978-1.769c0.562,0.242,1.287-0.244,1.287-0.564c0-0.322-1.126-1.368-0.242-1.688
			c0.608-0.219,0.756-0.928,0.795-1.354c-0.319-0.151-0.652-0.268-0.917-0.244c-0.745,0.067-5.29,0.406-5.29,0.406
			s-1.36,0.885-2.037,0.817c-0.57-0.061-0.003-0.969-1.839-0.503c0.92,1.145,1.039,1.719,2.907,2.243
			c2.091,0.59-0.161,1.665,1.554,2.735c0.16,0.103,0.286,0.205,0.414,0.307C115.979,335.765,116.119,335.623,116.208,335.556z"/>
		<path style="fill:#476268;stroke:#FFFFFF;stroke-miterlimit:10;" d="M267.766,282.378c0.564,1.494,1.127,6.729-0.184,8.79
			c-1.307,2.054-0.744,2.617,0.563,3.36c1.311,0.751,1.87,2.621,1.87,4.116c0,1.494,0.936,1.314,1.123,4.49
			c0.184,3.177,0.935,5.418,2.058,6.729c0.877,1.024,0.716,2.597,0.254,3.778c1.569,1.158,3.33,2.277,4.875,2.828
			c3.9,1.396,5.297,2.508,5.566,3.9c0.286,1.393,3.627,3.904,4.464,1.952c0.833-1.944,3.06-0.833,4.733-0.833
			c1.675,0,1.952,1.948,2.222,3.06c0.282,1.114,4.179,0.564,5.579,1.393c1.389,0.837,1.944,3.9,3.896,5.015
			c1.952,1.111,3.614-1.392,5.015-0.556c1.39,0.834,5.016,1.667,7.242,0.834c2.222-0.834,3.618,0.833,6.403,0.559
			c2.777-0.282,6.404,0.829,7.237,1.666c0.442,0.439,2.797,0.876,4.94,1.197c0.556-1.143-0.523-4.667-0.352-5.535
			c0.184-0.932,6.729-6.729,7.852-8.04c1.123-1.306,2.809-1.306,3.74-2.988c0.939-1.686-2.617-7.108-3.365-8.23
			c-0.747-1.119-1.118-5.606-0.559-7.48c0.559-1.87-2.806-2.992-2.806-4.3c0-1.31,3.177-3.556,4.863-4.299
			c1.682-0.751,1.122-5.989-0.376-7.296c-1.498-1.311-2.241-3.736-1.311-6.357c0.936-2.613-5.605-4.671-6.545-4.671
			c-0.152,0-0.246-0.168-0.309-0.391c-5.841,1.083-20.793-0.474-21.923-0.924c-0.739-0.297-2.634-0.978-4.261-1.557
			c-0.743,1.236-2.288,2.371-4.612,2.371c-3.61,0-3.865-3.615-3.986-5.234c-0.117-1.62-14.584,1.373-18.452,5.234
			c-3.862,3.864-12.84,2.366-13.083,4.482c-0.188,1.542-1.533,2.34-2.409,1.909C267.668,281.728,267.656,282.08,267.766,282.378z"/>
		<path style="fill:#476268;stroke:#FFFFFF;stroke-miterlimit:10;" d="M300.803,402.685c-0.333-1.679,5.031-9.385,6.369-9.385
			c1.114,0,1.533-7.41,1.06-11.26c-4.154-2.871-7.608-3.849-7.608-3.849s-11.165-0.552-13.027-1.299
			c-1.862-0.744-3.725,2.422-5.398,1.119c-1.675-1.299-4.1,0.367-3.725,2.233c0.372,1.858,3.908,2.98,3.908,5.77
			c0,2.79,7.077,6.89,6.889,8.376c-0.129,1.045,4.245,3.885,6.854,7.711c1.389,0.876,2.867,2.018,4.33,3.196
			C300.744,404.069,300.889,403.11,300.803,402.685z"/>
		<path style="fill:#476268;stroke:#FFFFFF;stroke-miterlimit:10;" d="M289.27,394.391c0.189-1.486-6.889-5.586-6.889-8.376
			c0-2.789-3.536-3.911-3.908-5.77c-0.375-1.866,2.05-3.532,3.725-2.233c1.674,1.303,3.536-1.863,5.398-1.119
			c1.862,0.747,13.027,1.299,13.027,1.299s3.454,0.978,7.608,3.849c-0.09-0.774-0.219-1.42-0.391-1.807
			c-1.002-2.352,0-5.027-2.681-6.032c-1.381-0.517-1.955-2.903-2.198-5.102c-1.264,0.384-2.331,0.7-2.914,0.849
			c-2.227,0.556-6.96,0.274-8.634-1.952c-1.244-1.658-5.113-4.092-7.011-5.227c-0.778,0.681-3.748,3.224-5.043,3.377
			c-1.498,0.191-0.559,4.119-2.058,4.119c-1.494,0-2.617,2.613-2.992,3.739c-0.372,1.119-3.732-0.751-5.234-0.191
			c-1.068,0.407-4.221,0.896-5.942,1.146c0.263,1.705,0.16,3.591,1.522,3.591c2.246,0,6.361-0.242,6.482,2.746
			c0.117,2.989,5.484,9.601,7.472,11.846c1.995,2.246,6.486,1.745,6.733,3.615c0.254,1.87,3.493,3.614,7.236,3.865
			c1.014,0.067,2.234,0.653,3.545,1.479C293.515,398.275,289.141,395.435,289.27,394.391z"/>
		<path style="fill:#476268;stroke:#FFFFFF;stroke-miterlimit:10;" d="M316.947,430.283c1.87-0.367,0.747-1.865,2.058-3.176
			c1.308-1.307,2.802-3.924,2.993-4.859c0.02-0.101,0.09-0.172,0.18-0.234c-2.539-1.905-4.314-3.274-4.878-5.234
			c-0.567-1.995,0.02-5.899,0.915-8.747c-1.451-1.033-5.907-4.111-7.308-4.111c-1.385,0-3.517,3.078-4.045,6.036
			c3.271,1.744,4.558,2.988,2.292,5.25c-2.362,2.37-2.863,10.347-0.25,12.464c2.492,2.019,3.208,6.024,5.617,7.166
			C315.203,432.826,315.715,430.542,316.947,430.283z"/>
		<path style="fill:#476268;stroke:#FFFFFF;stroke-miterlimit:10;" d="M281.388,338.202c-2.227-2.512-7.793-2.512-7.793-2.512
			s-0.56,2.512-1.397,3.9c-0.7,1.166-4.746,1.15-7.339,0.45c-0.736,0.962-4.104,1.714-4.569,3.107
			c-0.563,1.687-4.675,0.751-3.364,5.234c1.307,4.49-2.055,2.996-3.364,2.433c-1.311-0.559-7.108,0.188-8.603,1.683
			c-1.498,1.498-3.556,1.118-4.867,0.375c-1.307-0.743-3.921-1.122-5.044,0.743c-1.123,1.874-3.179-1.486-4.867-1.306
			c-1.678,0.188-0.933,3.739-0.933,4.491c0,0.742,2.621,2.988,4.3,2.245c1.684-0.751,3.743,0.184,5.238,1.118
			c1.496,0.939,4.301-0.747,5.234-1.682c0.939-0.939,6.173-0.939,6.733-0.939c0.563,0,0.747,2.997,1.686,3.56
			c0.931,0.56,4.487,0.935,7.668,1.119c3.176,0.188,7.851,1.682,9.349,1.682c1.495,0,3.924-2.621,7.284-2.621
			c3.368,0,5.238-2.054,5.802-1.866c0,0,0.023,0.021,0.032,0.027c0.242-1.04,0.633-1.881,1.365-1.987
			c1.364-0.188,0.387-2.534,1.364-3.704c0.979-1.166-0.782-3.51,0.979-3.317c1.752,0.199,3.701,0.395,3.701-2.141
			c0-0.856,0.461-1.611,1.13-2.241c-1.929-2.703-3.313-7.022-3.313-7.022S283.621,340.706,281.388,338.202z"/>
		<path style="fill:#476268;stroke:#FFFFFF;stroke-miterlimit:10;" d="M335.455,345.205c-0.645-0.211-1.353-0.657-1.976-1.205
			c-2.347-0.524-4.612-1.213-5.305-1.901c-1.389-1.393-6.955-2.229-7.796-2.508c-0.83-0.285-6.127,5.012-7.801,5.012
			c-1.671,0-8.912,0.837-8.912,2.781c0,1.952-8.903,2.238-11.415,0c-0.396-0.352-0.774-0.821-1.139-1.33
			c-0.669,0.63-1.13,1.385-1.13,2.241c0,2.535-1.949,2.34-3.701,2.141c-1.761-0.192,0,2.151-0.979,3.317
			c-0.978,1.17,0,3.517-1.364,3.704c-0.732,0.107-1.123,0.947-1.365,1.987c0.586,0.282,2.022,3.153,2.022,3.153
			s-0.074,0.07-0.191,0.172c1.897,1.135,5.767,3.568,7.011,5.227c1.674,2.227,6.407,2.508,8.634,1.952
			c2.229-0.552,11.701-3.618,11.701-3.618s2.229,0.833,3.618,1.106c0.328,0.071,1.217,0.216,2.371,0.388
			c0.681-0.704,2.773-1.307,5.007-3.545c2.617-2.616,6.545-11.97,7.664-12.714c1.122-0.751,4.119-2.433,5.613-3.552
			C337.513,346.887,337.145,345.769,335.455,345.205z"/>
		<path style="fill:#476268;stroke:#FFFFFF;stroke-miterlimit:10;" d="M300.889,325.942c-1.4-0.829-5.297-0.278-5.579-1.393
			c-0.27-1.111-0.547-3.06-2.222-3.06c-1.674,0-3.9-1.111-4.733,0.833c-0.837,1.952-4.178-0.559-4.464-1.952
			c-0.27-1.393-1.666-2.504-5.566-3.9c-1.545-0.551-3.306-1.67-4.875-2.828c-0.129,0.337-0.281,0.649-0.445,0.893
			c-0.747,1.126-3.364-0.932-4.487,0.191c-1.123,1.122-4.862,1.307-6.916,3.181c-2.059,1.87-6.361,2.801-8.791,3.364
			c-2.433,0.563-0.371,2.805,0.56,4.49c0.939,1.675,0.939,5.794,2.809,7.105c1.87,1.307,8.039,5.234,8.787,6.545
			c0.129,0.223,0.051,0.435-0.105,0.63c2.593,0.7,6.639,0.716,7.339-0.45c0.837-1.389,1.397-3.9,1.397-3.9s5.566,0,7.793,2.512
			c2.233,2.504,6.411,0.829,6.411,0.829s0.232,0.712,0.607,1.702c0.602-1.377,1.389-2.586,2.344-2.727
			c2.351-0.333,5.695-0.669,8.043-4.021c1.217-1.726,3.22-3.099,4.886-4.022C302.552,328.587,301.969,326.596,300.889,325.942z"/>
		<path style="fill:#476268;stroke:#FFFFFF;stroke-width:0.5;stroke-miterlimit:10;" d="M323.445,331.795
			c-2.785,0.273-4.182-1.393-6.403-0.559c-2.227,0.833-5.853,0-7.242-0.834c-1.4-0.837-3.063,1.667-5.015,0.556
			c-0.431-0.246-0.79-0.598-1.108-0.993c-1.666,0.923-3.669,2.296-4.886,4.022c-2.348,3.352-5.692,3.688-8.043,4.021
			c-0.955,0.141-1.741,1.35-2.344,2.727c0.767,1.976,2.171,5.164,3.846,6.65c2.512,2.238,11.415,1.952,11.415,0
			c0-1.944,7.241-2.781,8.912-2.781c1.674,0,6.971-5.297,7.801-5.012c0.841,0.278,6.407,1.115,7.796,2.508
			c0.692,0.689,2.958,1.377,5.305,1.901c-0.985-0.868-1.765-1.987-1.765-2.91c0-1.491,2.814-5.419,3.74-6.166
			c0.079-0.063,0.117-0.172,0.168-0.266c-2.143-0.321-4.498-0.759-4.94-1.197C329.85,332.624,326.223,331.513,323.445,331.795z"/>
		<path style="fill:#476268;stroke:#FFFFFF;stroke-miterlimit:10;" d="M87.382,451.357c3.332-0.605-0.914-3.337-1.827-4.244
			c-0.91-0.912,0.303-4.554,2.126-4.554c1.817,0,0-2.12-2.43-4.554c-2.425-2.425,0-3.333,2.13-3.333
			c2.116,0-0.611-3.642,1.506-5.766c2.126-2.129-0.606-6.064-0.606-7.888c0-1.814,3.036-2.425,5.465-4.851
			c2.424-2.43-2.122-1.518-2.122-3.333c0-1.822-3.04-2.434-5.157-0.911c-2.13,1.521-1.52,0-3.338,0c-1.823,0-5.16,0.607-5.16-1.217
			c0-1.827-1.516-2.12-3.032-0.306c-0.446,0.54-1.211,0.826-2.244,0.955c-0.221,2.378-0.467,4.597,0.229,5.719
			c1.618,2.618-1.999,16.455-5.238,20.194c-3.243,3.74-0.117,4.741,3.239,7.358c3.368,2.617,1.127,12.092,1.127,14.334
			c0,2.245,2.991,1.623,6.48,1.623c2.079,0,4.426-0.923,6.732-1.33c-0.683-1.04-1.225-2.065-1.225-2.742
			C84.039,454.69,84.039,451.964,87.382,451.357z"/>
		<path style="fill:#476268;stroke:#FFFFFF;stroke-miterlimit:10;" d="M185.333,309.406c1.524-1.523,4.19-0.763,5.718,0.763
			c1.524,1.525,3.811,1.901,6.099,4.186c0.587,0.595,1.221,1.127,1.839,1.601c0.217-1.608,0.258-4.809,0.966-6.463
			c0.745-1.741-0.749-3.99,0.501-3.99c1.24,0,4.734,0,4.734-2.242c0-2.241,0.999-1.494,1.748-2.746
			c0.751-1.244-2.244-3.739-2.748-4.49c-0.491-0.744,2.245-0.994,4.244-3.979c0.72-1.091,0.421-3.313-0.246-5.715
			c-0.331,0.884-0.999,1.525-2.126,0.849c-1.872-1.123-4.73-0.496-8.474,0.251c-3.74,0.747-4.861,4.361-3.498,5.855
			c1.375,1.503-3.609,2.246-3.98,0.255c-0.378-2.003-4.113-0.626-3.871,1.991c0.254,2.617-4.115,3.614-3.863,6.853
			c0.254,3.247-3.989,6.235-6.733,7.855c-0.426,0.259-0.868,0.517-1.318,0.774c1.379,0.634,2.482,1.057,3.006,1.057
			C179.62,312.07,183.81,310.935,185.333,309.406z"/>
		<path style="fill:#476268;stroke:#FFFFFF;stroke-width:0.5;stroke-miterlimit:10;" d="M199.513,323.9
			c-1.663,0.931-3.179,2.926-2.948,7.158c1.622-0.046,3.906,0.141,5.561,0.626c-0.401-4.608-2.203-6.036-2.666-6.986
			C199.325,324.44,199.37,324.17,199.513,323.9z"/>
		<path style="fill:#476268;stroke:#FFFFFF;stroke-miterlimit:10;" d="M169.787,314.535c0.184,1.313,2.243,4.49,2.989,3.184
			c0.749-1.311,2.621,1.683,4.301,2.617c1.682,0.936,5.046,2.058,5.234,3.181c0.188,1.119,0.749,3.552,2.434,2.805
			c1.682-0.751,3.738-3.368,3.738-1.873c0,1.494,0.561,4.303,2.429,3.928c1.872-0.376,2.434,3.18,4.305,2.801
			c0.341-0.06,0.806-0.102,1.348-0.118c-0.23-4.232,1.285-6.228,2.948-7.158c0.385-0.744,1.508-1.526,1.688-2.441
			c0.251-1.244-2.49-3.74-2.246-5.234c0.014-0.078,0.025-0.184,0.033-0.27c-0.618-0.474-1.252-1.006-1.839-1.601
			c-2.288-2.284-4.575-2.66-6.099-4.186c-1.528-1.525-4.194-2.285-5.718-0.763c-1.523,1.529-5.713,2.664-8.002,2.664
			c-0.524,0-1.627-0.423-3.006-1.057c-1.801,1.037-3.718,2.026-5.627,2.41C169.077,313.944,169.664,313.67,169.787,314.535z"/>
		<path style="fill:#476268;stroke:#FFFFFF;stroke-miterlimit:10;" d="M385.701,376.06c-1.744-0.247-3.994-0.99-3.243-1.992
			c0.047-0.063,0.148-0.188,0.224-0.285c-2.336-1.89-2.95-8.004-1.46-9.498c1.901-1.905-3.055-9.147-5.336-11.811
			c-1.071-1.256-3.392-5.422-5.559-9.507c-1.979,0.643-3.731,1.362-4.072,1.934c-0.747,1.239-3.247,2.495-4.737,2.495
			c-1.495,0-2.993-0.751-4.241,0.493c-1.248,1.244-2.988,1.745-3.739,1.001c-0.747-0.751-3.243-1.494-4.992-1.494
			c-1.737,0-7.222-1.502-8.469-1.502c-0.74,0-1.941,0.102-3.248,0.281c0.282,0.54,0.063,1.186-0.806,1.839
			c-1.494,1.119-4.491,2.801-5.613,3.552c-1.119,0.744-5.047,10.098-7.664,12.714c-2.617,2.618-5.051,2.993-5.238,3.924
			c-0.188,0.936,2.993,3.369,2.993,4.863c0,1.502,0.743,2.993,2.805,2.993c2.058,0-0.188,4.862,1.118,5.237
			c1.315,0.372,9.35,0.932,9.35,2.806c0,1.455,0.888,2.68,0.5,3.688c2.262,0.376,3.92,3.45,4.805,3.232
			c0.998-0.25,7.729,1.244,8.974,0.997c1.244-0.25,6.983,0,8.978,0.247c1.991,0.251,4.232-0.747,5.978-2.492
			c1.749-1.748,7.988-1.995,9.979-1.748c1.987,0.254,5.982,0.751,6.732,2.003c0.392,0.649,2.738,1.627,5.113,2.425
			c0.281-1.235-0.082-2.848-0.008-4.428c0.125-2.617,1.619-6.604,4.237-6.854c2.616-0.25,4.737-0.25,4.365-4.608
			c-0.008-0.152-0.008-0.266-0.02-0.402c-1.326-1.135-2.566-2.094-2.974-2.094C389.441,374.067,386.444,376.164,385.701,376.06z"/>
		<path style="fill:#476268;stroke:#FFFFFF;stroke-miterlimit:10;" d="M389.191,349.634c-1.002-3.239-4.233-4.491-5.985-4.491
			c-1.745,0-4.738-3.982-6.733-3.74c-1.083,0.137-3.779,0.79-6.146,1.564c2.167,4.085,4.487,8.251,5.559,9.507
			c2.281,2.664,7.237,9.905,5.336,11.811c-1.49,1.494-0.876,7.608,1.46,9.498c1.083-1.412,4.761-6.044,4.761-7.444
			c0-1.494,0.254-4.491,3.239-3.74c2.996,0.747,5.734,1.995,5.734,0.998c0-0.998-0.747-4.237-1.991-5.489
			C393.182,356.867,390.192,352.877,389.191,349.634z"/>
		<path style="fill:#476268;stroke:#FFFFFF;stroke-miterlimit:10;" d="M372.987,388.026c-1.991-0.247-8.23,0-9.979,1.748
			c-1.745,1.745-3.986,2.743-5.978,2.492c-1.995-0.247-7.734-0.497-8.978-0.247c-1.244,0.247-7.976-1.247-8.974-0.997
			c-0.885,0.219-2.543-2.855-4.805-3.232c-0.113,0.282-0.309,0.548-0.684,0.798c-1.682,1.127-1.874,4.108,0,5.798
			c1.866,1.683,4.3,5.422,2.617,5.422c-1.678,0-2.992,2.242-2.805,3.364c0.188,1.127-0.564,3.553,0,4.116
			c0.563,0.559,4.487,4.303,4.671,5.422c0.168,0.986,1.776,1.498,1.655,2.362c3.141-0.234,9.804-0.618,11.314,0.134
			c1.995,1.001,8.982,1.494,8.982,1.494c1.987,0,3.736-0.747,3.239-1.991c-0.422-1.053,2.176-1.749,4.05-1.944
			c-0.325-1.15-0.548-2.097-0.063-2.301c0.931-0.371,6.36-1.118,8.598,0c1.139,0.575,2.422,0.032,3.407-0.634
			c-0.297-1.048-0.587-1.877-1.161-1.983c-1.377-0.246-3.485-5.98-1.745-6.356c1.745-0.372,3.99-6.361,6.732-7.23
			c1.092-0.344,1.558-1.002,1.753-1.808c-2.375-0.798-4.722-1.775-5.113-2.425C378.969,388.777,374.975,388.28,372.987,388.026z"/>
		<path style="fill:#476268;stroke:#FFFFFF;stroke-miterlimit:10;" d="M322.178,422.014L322.178,422.014
			c0.078-0.059,0.189-0.102,0.321-0.141c0.023-0.004,0.039-0.016,0.07-0.023c0.133-0.031,0.298-0.052,0.469-0.066
			c0.024-0.008,0.052-0.008,0.071-0.008c0.728-0.063,1.701-0.02,2.703-0.051c0.059-0.004,0.133-0.004,0.203-0.004
			c0.224-0.012,0.442-0.027,0.669-0.043c0.086-0.016,0.172-0.016,0.262-0.024c0.29-0.039,0.575-0.086,0.845-0.156
			c2.242-0.556,2.806-2.988,3.924-2.429c1.123,0.56,7.109-2.492,7.857-3.611c0.098-0.133,0.141-0.258,0.156-0.384
			c0.121-0.864-1.487-1.376-1.655-2.362c-0.184-1.119-4.108-4.863-4.671-5.422c-0.117-0.117-0.164-0.329-0.188-0.579
			c0-0.023-0.012-0.047-0.012-0.07c-0.016-0.267,0-0.575,0.035-0.912c-5.849,0.849-14.525,2.656-14.525,2.656
			s-0.211-0.156-0.497-0.352c-0.896,2.848-1.482,6.752-0.915,8.747C317.863,418.739,319.639,420.108,322.178,422.014z"/>
		<path style="fill:#476268;stroke:#FFFFFF;stroke-miterlimit:10;" d="M479.445,335.292c0-0.743,2.617-2.054,2.43-3.548
			c-0.189-1.495-2.43-1.687-4.859-2.993c-2.433-1.315-4.866-0.751-7.111-1.87c-2.238-1.119-6.917-0.375-6.917-1.119
			c0-0.747-2.988-3.18-3.739-4.49c-0.747-1.307-3.177-0.564-4.672,0.371c-1.502,0.939-2.813,1.31-4.303,0.38
			c-1.494-0.939-2.806-2.434-4.111-1.874c-1.314,0.56-3.744,0.188-3.181-1.686c0.56-1.87-2.43-5.977-3.74-6.536
			c-1.31-0.567-5.238,0.367-6.169-1.499c-0.94-1.874-2.621-3.368-1.87-4.675c0.743-1.311-0.188-4.866-1.123-6.36
			c-0.938-1.494-5.609-1.308-6.916-0.748c-1.311,0.56-4.307-0.56-5.614,0.188c-1.311,0.751-2.054,2.054-3.928,2.054
			c-1.04,0-1.736-0.137-2.304-0.963c-2.022,0.912-5.418,1.096-5.418,1.096s-4.996,3.986-4.996,5.48c0,1.495-0.238,3.99-1.494,2.747
			c-1.244-1.249-6.478-1.252-7.723-0.501c-1.252,0.747-3.242-2.993-5.488-1.745c-2.241,1.244-5.234-1.744-5.488-0.501
			c-0.247,1.252-3.486,0.251-5.735-0.747c-2.237-0.997-6.231,0.501-7.726-1.248c-1.495-1.744-11.221-1.744-14.459-1.744
			c-3.239,0-3.991,1.744-5.489,3.243c-1.35,1.358-2.918,1.075-4.511,1.005c0.141,1.26,0.388,2.379,0.708,2.856
			c0.748,1.122,4.304,6.544,3.365,8.23c-0.932,1.683-2.617,1.683-3.74,2.988c-1.123,1.311-7.668,7.108-7.852,8.04
			c-0.187,0.935,1.123,5.05,0.184,5.801c-0.927,0.747-3.74,4.675-3.74,6.166c0,1.498,2.059,3.556,3.74,4.115
			c0.708,0.242,1.166,0.575,1.373,0.97c1.308-0.18,2.508-0.281,3.247-0.281c1.248,0,6.732,1.502,8.47,1.502
			c1.749,0,4.245,0.743,4.992,1.494c0.751,0.744,2.491,0.243,3.739-1.001c1.248-1.244,2.746-0.493,4.241-0.493
			c1.49,0,3.99-1.256,4.737-2.495c0.747-1.245,8.23-3.248,10.218-3.498c1.995-0.242,4.988,3.74,6.733,3.74
			c1.752,0,4.983,1.252,5.985,4.491c1.001,3.243,3.99,7.233,5.233,8.473c1.244,1.252,1.991,4.491,1.991,5.489
			c0,0.997-2.738-0.251-5.734-0.998c-2.985-0.751-3.239,2.246-3.239,3.74c0,1.494-4.236,6.729-4.984,7.73
			c-0.751,1.002,1.499,1.745,3.243,1.991c0.743,0.105,3.74-1.991,4.733-1.991c0.407,0,1.647,0.959,2.974,2.094
			c-0.286-3.9,0.524-3.682,4.006-6.326c3.618-2.742,3.99-7.855,7.229-8.482c3.247-0.626,4.612-2.124,9.354-1.377
			c4.737,0.751-2.366,3.74,0.864,5.485c2.135,1.15,7.155,0.582,10.501,0.758c4.271-0.724,8.724-0.643,13.124,0.177
			c2.186-1.967,6.404-4.654,9.166-4.918c3.869-0.375,6.983-1.502,10.723-3.239c1.507-0.703,4.154-1.416,6.857-1.932
			c-0.406-1.761-0.931-3.834,0.189-3.998c1.307-0.181,5.234-4.487,6.545-4.487c1.31,0,6.916,1.122,6.916,0.191
			c0-0.939,1.874-4.115,1.494-5.055c-0.371-0.931-2.241-2.237-1.865-3.176c0.371-0.932,2.988-0.932,2.988-2.059
			C481.499,336.606,479.445,336.043,479.445,335.292z"/>
		<path style="fill:#476268;stroke:#FFFFFF;stroke-miterlimit:10;" d="M341.202,251.097c2.284,0,7.629,1.143,10.676,0
			c3.044-1.142,3.044,2.293,4.953,1.901c1.901-0.379,5.715,2.293,8.004,4.202c1.216,1.013,2.664,1.823,4.267,2.754
			c0.364-0.622,0.857-1.236,1.64-1.823c1.995-1.494,3.986-0.751,5.73-0.751c1.749,0,1.995-1.991,3.247-2.989
			c0.7-0.563,1.792-0.884,2.621-1.056c-0.669-1.377-0.704-4.068-1.815-5.18c-1.31-1.307-3.18-3.556-2.617-4.863
			c0.56-1.311,0.56-3.18-0.938-4.675c-0.653-0.653-1.154-1.42-1.424-2.151c-3.04-0.392-7.132-0.829-8.047-0.524
			c-1.499,0.501-7.477-4.241-8.478-4.992c-0.653-0.485-5.09-0.231-9.084,0.141c-2.3,2.55-0.642,4.424-0.763,8.34
			c-0.125,3.99-4.491,3.243-6.853,3.243c-2.375,0-6.24-7.108-7.48-8.732c-1.252-1.616-5.246,1.999-8.109,3.74
			c-2.867,1.749-1.369,5.113-3.364,6.733c-1.991,1.62-3.239,4.366-1.252,7.981c0.082,0.148,0.137,0.301,0.216,0.445
			c2.491-0.195,5.147-0.657,6.678-1.745C331.677,249.188,338.922,251.097,341.202,251.097z"/>
		<path style="fill:#476268;stroke:#FFFFFF;stroke-miterlimit:10;" d="M327.044,264.797c0.936,1.314,3.929,2.434,5.051,1.874
			c1.119-0.56,4.671,1.307,4.671,2.802c0,1.498-0.931,5.988,0,5.988c0.85,0,6.236,1.671,6.603,3.924
			c2.414,0.059,5.156,0.181,6.182,0.438c1.999,0.497,3.239-0.747,4.232-1.995c1.001-1.248,4.487-1.745,5.484-1.745
			c1.002,0,1.002-2.742,1.248-3.994c0.251-1.24,2.746-3.485,4.241-3.982c1.498-0.497,1.243-2.245,2.742-2.245
			c1.498,0,1.244-1.999,0.997-3.247c-0.148-0.755,0.027-1.702,0.606-2.66c-1.603-0.931-3.052-1.741-4.267-2.754
			c-2.289-1.909-6.103-4.581-8.004-4.202c-1.909,0.392-1.909-3.043-4.953-1.901c-3.047,1.143-8.392,0-10.676,0
			c-2.28,0-9.525-1.909-12.193,0c-1.53,1.088-4.186,1.55-6.678,1.745c1.701,3.481,1.079,7.003-0.834,9.154
			c-1.358,1.533-0.567,1.736,0.427,2.339C323.974,264.144,326.293,263.748,327.044,264.797z"/>
		<path style="fill:#476268;stroke:#FFFFFF;stroke-width:0.5;stroke-miterlimit:10;" d="M233.547,359.046
			c-1.679,0.743-4.3-1.503-4.3-2.245c0-0.521-0.344-2.383,0.008-3.545c-1.393-0.712-3.384-1.682-4.87-2.124
			c-2.494-0.747-3.738-0.747-5.729,0.246c-1.274,0.634-4.785,0.458-7.155,0.25c-0.21,0.744-0.544,1.244-1.138,1.244
			c-1.685,0-3.928,1.683-4.301,3.557c-0.372,1.866-4.3,3.36-5.426,6.728c-1.119,3.368-0.558,4.862,1.126,2.805
			c1.682-2.058,3.74-1.307,3.74,0.376c0,1.682,2.244,1.865,1.495,4.115c-0.012,0.051-0.012,0.078-0.021,0.133
			c2.557-0.227,6.111-0.509,7.192-0.509c1.745,0,3.489-5.484,4.234-5.985c0.746-0.496,2.748,3.991,4.744,5.743
			c1.991,1.745,2.244-1.502,2.244-2.997c0-1.498,1.745-1.994,2.99-1.744c1.245,0.246,3.988,0.747,3.988-1.002
			c0-1.736,1.501-0.993,2.49-0.993c0.999,0,1.254-1.995,1.254-1.995l1.631-1.518C236.415,358.913,234.868,358.459,233.547,359.046z"
			/>
		<path style="fill:#476268;stroke:#FFFFFF;stroke-miterlimit:10;" d="M208.434,292.044c-1.999,2.985-4.735,3.235-4.244,3.979
			c0.504,0.751,3.499,3.246,2.748,4.49c-0.749,1.252-1.748,0.505-1.748,2.746c0,2.242-3.494,2.242-4.734,2.242
			c-1.25,0,0.245,2.249-0.501,3.99c-0.749,1.744-0.749,5.234-0.999,6.732c-0.245,1.494,2.496,3.99,2.246,5.234
			c-0.247,1.252-2.246,2.245-1.741,3.239c0.463,0.95,2.265,2.378,2.666,6.986c0.861,0.251,1.565,0.575,1.876,0.994
			c1.126,1.494,2.995,2.613,5.422,2.613c2.434,0,3.368,1.689,4.489,1.498c1.123-0.184,4.117,0.755,1.688,2.809
			c-2.433,2.054-2.809,4.487-3.366,6.917c-0.364,1.576-0.344,3.76-0.733,5.112c2.371,0.208,5.881,0.384,7.155-0.25
			c1.991-0.993,3.235-0.993,5.729-0.246c1.486,0.442,3.478,1.412,4.87,2.124c0.153-0.501,0.419-0.884,0.925-0.946
			c1.688-0.181,3.744,3.18,4.867,1.306c1.123-1.865,3.738-1.486,5.044-0.743c1.31,0.743,3.368,1.123,4.867-0.375
			c1.495-1.494,7.292-2.241,8.603-1.683c1.31,0.563,4.671,2.058,3.364-2.433c-1.311-4.483,2.801-3.548,3.364-5.234
			c0.559-1.683,5.422-2.426,4.675-3.736c-0.748-1.311-6.917-5.238-8.787-6.545c-1.869-1.311-1.869-5.43-2.809-7.105
			c-0.931-1.685-2.992-3.928-0.56-4.49c2.43-0.564,6.732-1.494,8.791-3.364c2.054-1.874,5.793-2.059,6.916-3.181
			c1.123-1.123,3.74,0.935,4.487-0.191c0.751-1.119,1.307-3.365,0.191-4.671c-1.122-1.312-1.874-3.553-2.058-6.729
			c-0.188-3.177-1.123-2.996-1.123-4.49c0-1.495-0.56-3.365-1.87-4.116c-1.307-0.743-1.869-1.307-0.563-3.36
			c1.311-2.062,0.747-7.296,0.184-8.79c-0.109-0.298-0.098-0.649-0.035-1.025c-0.337-0.156-0.603-0.484-0.708-1.032
			c-0.376-1.995-1.741-2.742-4.984-2.742s1.991-3.243,0.743-4.863c-1.239-1.615-4.486,2.989-7.472,1.991
			c-2.997-0.989-6.857,3.497-9.475,5.488c-2.621,1.999-6.361-0.371-4.366-3.243c1.991-2.863,0-2.616-2.994-1.49
			c-2.993,1.119-6.606-0.25-6.234-2.996c0.096-0.688-0.125-1.334-0.491-1.94c-1.461,0.203-2.584,0.25-3.12,0.07
			c-1.339-0.442-4.379-0.685-7.696-0.751c0.991,1.451,2.065,2.871,1.459,3.994c-1.119,2.124,0.629,4.119,2.244,7.23
			c1.622,3.122-3.486,1.373-3.613,3.368c-0.127,1.995-4.733-0.125-6.233-0.876c-1.491-0.744-6.482-0.247-6.355,1.001
			c0.049,0.497-0.029,1.182-0.246,1.769C208.854,288.731,209.153,290.953,208.434,292.044z"/>
		<path style="fill:#476268;stroke:#FFFFFF;stroke-miterlimit:10;" d="M397.168,183.587c1.998-4.487,10.961-7.954,12.471-11.967
			c0.743-2.003,0.994-2.997-2.245-6.736c-3.243-3.74-10.469-6.232-10.723-8.224c-0.255-2.003,5.488-2.245,5.234-4.741
			c-0.251-2.496-3.235-2.488-4.491-4.483c-1.244-1.996,1.502-3.251,1.252-4.241c-0.251-0.994-3.99-1.495-4.241-2.747
			c-0.25-1.244,2.5-0.994,1.991-2.488c-0.496-1.495-2.984-4.245-1.24-6.486c1.749-2.242,5.489,0,2.739-4.983
			c-2.739-4.988-6.98-11.22-7.977-12.722c-1.002-1.495,0.997-3.99,2.496-4.976c1.498-1.002,5.233-4.742,5.233-6.24
			c0-1.495-4.737-5.488-5.982-6.232c-1.252-0.751-3.99-0.497-5.234-2.997c-1.256-2.488-2.495-3.235-1.256-4.734
			c1.256-1.494,1.256-2.989,1.256-4.491c0-1.494,2.739-0.251,3.232-2.492c0.227-1.021,0.947-2.14,1.866-3.071
			c0.008-1.702,0.191-3.533,0-4.694c-0.402-2.41-7.21-3.208-8.81-6.013c-1.608-2.797-5.609-1.602-6.814,0
			c-1.197,1.602-8.411-0.397-8.411,2.007c0,2.402-5.203,2.805-5.203,5.606c0,2.805,2.401,7.609-1.604,7.214
			c-4.006-0.403-1.204,1.6-3.606,4.804c-2.406,3.204-2.406-2.007-4.808-1.205c-2.398,0.802-5.203-2.406-6.408-0.403
			c-1.201,2.011-5.207,0.403-9.213-0.399c-4.01-0.798-6.005-6.4-9.213-6.807c-2.128-0.262-4.401,1.432-5.59,4.112
			c3.102,2.007,5.137,4.855,9.193,6.705c4.404,2.003,12.417,4.401,12.025,7.21c-0.407,2.801-1.611,6.807,0.392,8.012
			c2.006,1.197-0.392,6.408,2.006,7.613c2.402,1.205,1.604,7.206-0.402,7.206c-1.995,0,0.402,3.204,1.607,4.397
			c0.544,0.556,0.986,2.183,1.186,4.163c2.461,0.595,4.647,1.838,6.783,2.793c3.368,1.495,2.864,3.857,2.993,6.479
			c0.121,2.613,0.242,4.107-1.494,2.989c-1.745-1.119-3.619,0-4.616,3.744c-1.002,3.736-5.735,8.227-8.603,8.477
			c-2.872,0.247-2.617,3.239-4.988,3.861c-2.363,0.622-4.608,1.996-4.483,4.612c0.121,2.617-3.489,2.868-5.863,2.868
			c-2.367,0-1.866,4.237-3.74,5.355c-1.866,1.127-1.498,2.621,0.25,4.867c1.745,2.246,0.251,4.241,0.869,5.86
			c0.629,1.62,3.372,5.359,1.498,9.471c-1.866,4.116-3.861,9.229-2.242,8.732c1.616-0.497,5.359,3.368,7.855,3.118
			c2.492-0.258,2.746,3.482,5.109,2.738c2.367-0.743,2.367,2.238,9.228,2c6.857-0.251,20.69-5.982,26.179-5.982
			c3.11,0,5.599-0.376,7.559-0.861c1.178-1.772,2.605-3.697,4.033-5.124C387.696,190.563,395.176,188.074,397.168,183.587z"/>
		<path style="fill:#476268;stroke:#FFFFFF;stroke-miterlimit:10;" d="M213.913,336.79c-1.121,0.191-2.056-1.498-4.489-1.498
			c-2.427,0-4.295-1.119-5.422-2.613c-1.123-1.502-6.913-1.87-8.785-1.502c-1.872,0.379-2.433-3.177-4.305-2.801
			c-1.868,0.375-2.429-2.434-2.429-3.928c0-1.495-2.056,1.122-3.738,1.873c-1.684,0.747-2.246-1.686-2.434-2.805
			c-0.188-1.123-3.552-2.245-5.234-3.181c-1.68-0.935-3.552-3.928-4.301-2.617c-0.746,1.307-2.805-1.87-2.989-3.184
			c-0.124-0.865-0.71-0.591-1.09-1.111c-0.64,0.133-1.273,0.211-1.905,0.18c-2.993-0.125-5.61,2.245-5.107,7.237
			c0.495,4.98-3.621,5.48-8.731,5.853c-5.111,0.375-3.362,4.365-5.481,5.985c-2.12,1.627-9.6-0.868-10.6-3.606
			c-1-2.743-7.725,0-4.861,3.23c2.872,3.247,2.741,7.734,1.123,8.979c-1.62,1.248-5.117-1.991-7.36-0.376
			c-2.242,1.624-2.367-1.494-5.104-2.483c-2.744-1.006-3.871,1.236-8.229,0.868c-4.37-0.38-6.86,2.112-5.238,3.986
			c1.618,1.866-0.25,3.61,0.996,5.238c1.249,1.619,6.982,1.365,11.217,3.614c4.243,2.238,5.234,0.368,7.357,1.995
			c2.12,1.62,2.621,0.618,2.744,3.74c0.127,3.114,2.494,6.103,6.61,7.23c4.111,1.122,0.996,3.865,2.246,6.607
			c1.24,2.742-1.872,6.728-1.25,10.097c0.626,3.364-1.995,14.209-3.988,15.206c-0.128,0.066-0.333,0.066-0.497,0.098
			c1.868,0.932,3.834,1.745,4.792,2.379c1.823,1.221,5.759,2.425,8.192,3.943c2.424,1.522,6.672,1.221,6.672-0.61
			c0-1.811,2.423-0.595,3.943,0.915c1.516,1.519,7.282,1.823,10.011,2.426c2.3,0.509,5.659,0.188,8.661,0.25
			c-0.117-0.681-0.27-1.389-0.507-2.163c-1.496-4.866,2.862-7.733,6.973-8.36c4.114-0.618,13.092,1.87,15.467,3.365
			c2.362,1.498,5.607,1.126,9.723-3.239c2.071-2.207,3.775-3.005,5.279-3.438c0.109-0.979,0.618-1.977,0.946-2.853
			c0.565-1.502-2.056-1.127-3.924-1.314c-1.872-0.188-3.178-2.058-1.872-4.115c1.311-2.058-1.119-2.246-2.429-4.3
			c-1.311-2.054,0.561-1.494,1.68-2.054c1.121-0.563,2.621-2.809,1.683-3.364c-0.933-0.563-1.683-1.87-0.933-4.115
			c0.749-2.25-1.495-2.434-1.495-4.115c0-1.683-2.058-2.434-3.74-0.376c-1.684,2.058-2.245,0.563-1.126-2.805
			c1.126-3.368,5.054-4.862,5.426-6.728c0.373-1.874,2.617-3.557,4.301-3.557c1.684,0,1.307-3.928,1.872-6.357
			c0.557-2.43,0.933-4.863,3.366-6.917C218.03,337.545,215.035,336.606,213.913,336.79z M227.257,400.247
			c-1.376-0.125-1.749,2.363-5.235,4.491c-3.489,2.12,0.026,11.688,3.486,11.216C229.124,415.457,228.626,400.372,227.257,400.247z"
			/>
		<path style="fill:#476268;stroke:#FFFFFF;stroke-miterlimit:10;" d="M174.91,406.404c-3.003-0.063-6.361,0.259-8.661-0.25
			c-2.728-0.603-8.495-0.907-10.011-2.426c-1.52-1.51-3.943-2.726-3.943-0.915c0,1.831-4.248,2.132-6.672,0.61
			c-2.433-1.518-6.369-2.723-8.192-3.943c-0.958-0.634-2.924-1.447-4.792-2.379c-2.531,0.493-9.796-2.179-14.588-1.592
			c-5.111,0.622-21.446-0.751-27.803-0.247c-6.355,0.493-6.733-2.616-10.222-2.616c-3.489,0-1.991,4.228-6.979,4.357
			s-5.479,3.243-1.872,6.115c2.059,1.635,1.811,5.077,1.52,8.238c1.033-0.129,1.797-0.415,2.244-0.955
			c1.516-1.814,3.032-1.521,3.032,0.306c0,1.823,3.337,1.217,5.16,1.217c1.819,0,1.209,1.521,3.338,0
			c2.117-1.522,5.157-0.911,5.157,0.911c0,1.815,4.545,0.903,2.122,3.333c-2.429,2.426-5.465,3.036-5.465,4.851
			c0,1.823,2.732,5.759,0.606,7.888c-2.117,2.124,0.61,5.766-1.506,5.766c-2.13,0-4.556,0.908-2.13,3.333
			c2.43,2.434,4.246,4.554,2.43,4.554c-1.823,0-3.036,3.642-2.126,4.554c0.913,0.907,5.16,3.639,1.827,4.244
			c-3.343,0.607-3.343,3.333-3.343,5.156c0,0.677,0.542,1.702,1.225,2.742c1.549-0.273,3.077-0.32,4.485,0.337
			c3.489,1.615,5.512,10.304,10.222,9.718c1.999-0.251,1-1.745,1.999-2.747c1-0.993,2.863-0.242,4.862-0.242
			c1.989,0,2.993-2.871,7.725-2.993c4.737-0.121,7.732-0.504,10.721-0.375c2.995,0.121,5.361-0.877,6.106-2.993
			c0.747-2.12,3.245-3.986,6.611-4.486c3.367-0.497,2.868-3.995,3.112-5.982c0.254-1.994,5.866-4.991,6.233-6.485
			c0.378-1.498-3.243-7.229,0.124-12.343c3.366-5.109,6.987-5.355,6.987-8.227c0-2.629,3.486-3.611,7.728-4.12
			c4.241-0.488,5.612-3.36,9.229-4.854C174.438,412.202,175.52,409.965,174.91,406.404z"/>
		<path style="fill:#476268;stroke:#FFFFFF;stroke-width:0.8852;stroke-miterlimit:10;" d="M168.115,435.912
			c0.634,4.03,7.504-1.439,5.963-2.565C170.935,431.064,167.482,431.881,168.115,435.912z"/>
		<path style="fill:#476268;stroke:#FFFFFF;stroke-miterlimit:10;" d="M256.284,373.137c2.011-0.81,4.275-1.135,5.383-0.688
			c0.974,0.392,1.291,1.416,1.467,2.512c1.722-0.25,4.874-0.739,5.942-1.146c1.502-0.56,4.862,1.31,5.234,0.191
			c0.375-1.126,1.498-3.739,2.992-3.739c1.499,0,0.56-3.928,2.058-4.119c1.495-0.185,5.234-3.549,5.234-3.549
			s-1.494-2.988-2.054-3.181c-0.564-0.188-2.434,1.866-5.802,1.866c-3.36,0-5.789,2.621-7.284,2.621
			c-1.498,0-6.173-1.494-9.349-1.682c-1.123-0.063-2.293-0.157-3.381-0.271C256.417,364.78,256.076,369.139,256.284,373.137z"/>
		<path style="fill:#476268;stroke:#FFFFFF;stroke-miterlimit:10;" d="M367.311,412.766c-1.874,0.195-4.472,0.892-4.05,1.944
			c0.497,1.244-1.252,1.991-3.239,1.991c0,0-6.986-0.493-8.982-1.494c-1.51-0.752-8.173-0.368-11.314-0.134
			c-0.016,0.126-0.059,0.251-0.156,0.384c-0.747,1.119-6.733,4.171-7.857,3.611c-1.118-0.56-1.682,1.873-3.924,2.429
			c-2.245,0.563-5.609-0.188-5.793,0.751c-0.191,0.936-1.685,3.553-2.993,4.859c-1.311,1.311-0.188,2.809-2.058,3.176
			c-1.233,0.259-1.744,2.543-2.426,4.554c0.122,0.063,0.235,0.148,0.368,0.192c2.738,0.868,4.858,4.115,4.487,7.226
			c-0.372,3.121,3.99,4.248,5.985,1.995c1.991-2.238,7.605,1.251,7.605,2.746c0,1.494-5.734-1.62-8.981,0.751
			c-3.235,2.362,2.496,4.608,1.753,7.104c-0.755,2.496,1.494,5.978,4.361,5.859c2.871-0.121,6.107,4.613,7.852,3.736
			c1.749-0.868-2.116-7.476-1.494-8.474c0.626-0.997,4.111,1.745,5.856-0.254c1.748-1.991-1.244-3.485-3.861-3.364
			c-2.617,0.125-0.125-3.489,2.992-1.619c3.114,1.865,4.612-0.497,6.104-0.752c1.494-0.25,1.87-5.605-2.743-6.854
			c-4.604-1.244-3.986,3.372-6.982,0.242c-2.988-3.105,2.746-1.865,2.746-4.483c0-2.617-4.612-6.356-6.858-9.475
			c-2.242-3.11,3.121-4.608,4.361-2.362c1.252,2.241,4.612,1.869,6.732,0.993c2.129-0.868-2.241-4.862,1.62-6.356
			c3.869-1.499,3.869,1.122,5.117,1.623c1.243,0.493,2.366-3.122,6.353-3.122c2.077,0,3.916,1.377,5.696,2.707
			c1.084-1.192,1.972-1.882,1.972-2.895c0-1.307,2.434-1.87,2.434-3.928C367.996,415.089,367.608,413.846,367.311,412.766z
			 M360.27,475.671c-1.999-1.119-10.974,0.747-13.336-1.494c-2.371-2.245-7.206,1.768-5.117,2.116
			c2.988,0.497,7.48,3.118,12.343,3.239c4.862,0.129,11.466-2.241,11.349-3.489C365.379,474.795,362.265,476.79,360.27,475.671z"/>
		<path style="fill:#476268;stroke:#FFFFFF;stroke-miterlimit:10;" d="M92.722,279.522c-1.048-0.782-2.031-1.635-2.79-2.534
			c-3.202-3.768-4.526-0.752-4.894,1.51c-0.385,2.261-3.392-0.755-5.279-1.127c-1.879-0.383,0.565-3.959,1.888-4.905
			c0.88-0.626,1.752-2.371,2.294-4.804c-0.352,0-0.704-0.047-1.045-0.181c-3.489-1.369-8.355-1.369-8.477,1.745
			c-0.127,3.117,3.861,1.995,3.988,3.986c0.124,1.999-3.988,1.494-6.86,3.493c-2.863,1.995-5.983-1.369-8.974,0.126
			c-2.995,1.494,3.239,3.246,0.996,6.36c-2.245,3.118,0.124,2.989,3.865,5.982c3.74,2.993-2.244,3.74-2.244,7.108
			c0,3.36-4.612,3.239-5.612,5.484c-0.989,2.245,3.99,6.729,8.356,6.729c3.116,0,10.345-1.995,14.588-5.981
			c4.234-3.99,6.48-0.129,10.341-2.116c3.871-1.995,1.497-16.579,0-19.575C92.602,280.289,92.609,279.882,92.722,279.522z"/>
		<g>
			<g>
				<path style="fill:#476268;stroke:#FFFFFF;stroke-miterlimit:10;" d="M94.492,265.986c-3.155-3.043-7.218,1.729-10.551,1.675
					c-0.542,2.433-1.414,4.178-2.294,4.804c-1.322,0.946-3.767,4.522-1.888,4.905c1.888,0.372,4.894,3.388,5.279,1.127
					c0.368-2.262,1.692-5.277,4.894-1.51c0.759,0.899,1.741,1.752,2.79,2.534c0.516-1.709,4.456-2.003,6.5-4.061
					C101.716,272.965,97.982,269.351,94.492,265.986z M162.677,296.899c0.254-3.74-7.975-6.354-8.851-4.366
					c-0.872,1.995-2.74,1.753-4.117-0.489c-1.367-2.249,1.254-4.369-0.117-4.615c-1.377-0.251-3.118-3.368-2.741-4.613
					c0.374-1.243-2.122-9.224-6.361-10.222c-4.239-0.998-4.861-6.983-5.606-10.222c-0.751-3.239-3.499-1.503-5.612-4.241
					c-2.123-2.742-5.739-1.369-7.609-1.244c-1.868,0.125,0-3.497,2.989-5.484c2.995-1.995,6.488-12.597,6.488-14.709
					c0-2.124-13.089-2.003-15.583-0.751c-2.496,1.244-4.986-1.87-2.871-2.746c2.121-0.869,6.609-5.234,6.361-6.979
					c-0.247-1.745,3.12-3.364,1.248-4.988c-1.868-1.616-2.12,2.124-3.74,3.368c-1.618,1.248-5.238,0.876-9.104,0.126
					c-3.863-0.751-5.358,4.733-5.234,7.104c0.127,2.371-4.489,3.74-3.744,5.735c0.749,1.995-0.869,3.489-2.112,2.363
					c-1.247-1.119-2.617-3.861-5.113-1.866c-2.498,1.999,2.867,4.616,6.103,4.996c3.245,0.368-2.486,2.738-3.112,6.22
					c-0.622,3.497,4.235,2.003,4.489,4.491c0.254,2.495-6.983,2.871-6.983,5.233c0,2.379,4.116-1.118,5.984-2.112
					c1.872-1.001-0.992,5.853,3.497,5.109c4.485-0.751,3.235-6.854,4.856-6.607c1.624,0.247-0.745,3.239,0.628,5.856
					c1.363,2.617-3.245,6.611-2.995,8.482c0.246,1.869,9.225,1.869,12.09-1.123c2.872-2.992,4.235,0.251,2.246,2.496
					c-1.991,2.241-1.123,4.361,1.375,5.238c2.49,0.868,3.368,1.118,2.246,3.105c-1.123,2.003-0.131,5.735-0.755,7.605
					c-0.622,1.87-8.35,1.623-8.601,0.38c-0.248-1.248-3.494-0.38-2.613,1.365c0.868,1.752-2.748,3.618-2.498,5.242
					c0.254,1.627,4.863,1.243,4.984,3.242c0.123,1.991-3.367,4.358-8.096,5.732c-4.743,1.369,0.992,5.113,3.235,3.489
					c2.243-1.619,1.749,1.119,4.988,1.119c3.241,0,5.244,2.621,8.851,1.252c3.617-1.373,3.493,0,0.749,2.116
					c-2.745,2.124-6.856-0.121-9.35,1.248c-2.494,1.369-12.636,10.88-10.719,13.219c1.123,1.365,2.613-1.995,6.226-3.493
					c3.621-1.495,4.239,0.993,6.242,1.243c1.991,0.255,2.115-4.111,3.736-3.739c1.622,0.376,3.116-1.369,6.106-0.869
					c2.993,0.497,5.115-0.625,6.61-1.869c1.496-1.244,5.48,2.487,6.734,1.619c1.24-0.876,6.728-1.874,9.473-1.753
					c2.734,0.134,9.847-3.113,11.712-4.858c1.872-1.744-1.121-2.112-3.611-1.744c-2.496,0.379-1.999-2.492,0.622-4.984
					C158.315,302.513,162.43,300.639,162.677,296.899z M87.757,234.319c3.368-0.122,7.229-5.857,5.612-7.484
					C91.748,225.219,85.252,234.408,87.757,234.319z M136.005,207.267c2.118-2.112,4.608-10.218,1.372-9.346
					C134.133,198.797,135.08,208.194,136.005,207.267z"/>
			</g>
			<g>
				<path style="fill:#476268;stroke:#FFFFFF;stroke-miterlimit:10;" d="M94.492,265.986c-3.155-3.043-7.218,1.729-10.551,1.675
					c-0.542,2.433-1.414,4.178-2.294,4.804c-1.322,0.946-3.767,4.522-1.888,4.905c1.888,0.372,4.894,3.388,5.279,1.127
					c0.368-2.262,1.692-5.277,4.894-1.51c0.759,0.899,1.741,1.752,2.79,2.534c0.516-1.709,4.456-2.003,6.5-4.061
					C101.716,272.965,97.982,269.351,94.492,265.986z M162.677,296.899c0.254-3.74-7.975-6.354-8.851-4.366
					c-0.872,1.995-2.74,1.753-4.117-0.489c-1.367-2.249,1.254-4.369-0.117-4.615c-1.377-0.251-3.118-3.368-2.741-4.613
					c0.374-1.243-2.122-9.224-6.361-10.222c-4.239-0.998-4.861-6.983-5.606-10.222c-0.751-3.239-3.499-1.503-5.612-4.241
					c-2.123-2.742-5.739-1.369-7.609-1.244c-1.868,0.125,0-3.497,2.989-5.484c2.995-1.995,6.488-12.597,6.488-14.709
					c0-2.124-13.089-2.003-15.583-0.751c-2.496,1.244-4.986-1.87-2.871-2.746c2.121-0.869,6.609-5.234,6.361-6.979
					c-0.247-1.745,3.12-3.364,1.248-4.988c-1.868-1.616-2.12,2.124-3.74,3.368c-1.618,1.248-5.238,0.876-9.104,0.126
					c-3.863-0.751-5.358,4.733-5.234,7.104c0.127,2.371-4.489,3.74-3.744,5.735c0.749,1.995-0.869,3.489-2.112,2.363
					c-1.247-1.119-2.617-3.861-5.113-1.866c-2.498,1.999,2.867,4.616,6.103,4.996c3.245,0.368-2.486,2.738-3.112,6.22
					c-0.622,3.497,4.235,2.003,4.489,4.491c0.254,2.495-6.983,2.871-6.983,5.233c0,2.379,4.116-1.118,5.984-2.112
					c1.872-1.001-0.992,5.853,3.497,5.109c4.485-0.751,3.235-6.854,4.856-6.607c1.624,0.247-0.745,3.239,0.628,5.856
					c1.363,2.617-3.245,6.611-2.995,8.482c0.246,1.869,9.225,1.869,12.09-1.123c2.872-2.992,4.235,0.251,2.246,2.496
					c-1.991,2.241-1.123,4.361,1.375,5.238c2.49,0.868,3.368,1.118,2.246,3.105c-1.123,2.003-0.131,5.735-0.755,7.605
					c-0.622,1.87-8.35,1.623-8.601,0.38c-0.248-1.248-3.494-0.38-2.613,1.365c0.868,1.752-2.748,3.618-2.498,5.242
					c0.254,1.627,4.863,1.243,4.984,3.242c0.123,1.991-3.367,4.358-8.096,5.732c-4.743,1.369,0.992,5.113,3.235,3.489
					c2.243-1.619,1.749,1.119,4.988,1.119c3.241,0,5.244,2.621,8.851,1.252c3.617-1.373,3.493,0,0.749,2.116
					c-2.745,2.124-6.856-0.121-9.35,1.248c-2.494,1.369-12.636,10.88-10.719,13.219c1.123,1.365,2.613-1.995,6.226-3.493
					c3.621-1.495,4.239,0.993,6.242,1.243c1.991,0.255,2.115-4.111,3.736-3.739c1.622,0.376,3.116-1.369,6.106-0.869
					c2.993,0.497,5.115-0.625,6.61-1.869c1.496-1.244,5.48,2.487,6.734,1.619c1.24-0.876,6.728-1.874,9.473-1.753
					c2.734,0.134,9.847-3.113,11.712-4.858c1.872-1.744-1.121-2.112-3.611-1.744c-2.496,0.379-1.999-2.492,0.622-4.984
					C158.315,302.513,162.43,300.639,162.677,296.899z M87.757,234.319c3.368-0.122,7.229-5.857,5.612-7.484
					C91.748,225.219,85.252,234.408,87.757,234.319z M136.005,207.267c2.118-2.112,4.608-10.218,1.372-9.346
					C134.133,198.797,135.08,208.194,136.005,207.267z"/>
			</g>
		</g>
		<path style="fill:#476268;stroke:#FFFFFF;stroke-miterlimit:10;" d="M235.608,248.907c-1.249-0.618-1.748-4.617-0.254-5.852
			c1.494-1.248,2.126-5.994,0.876-7.237c-1.24-1.248-5.739,0-6.11,3.364c-0.374,3.364-3.986,1.87-4.984,2.617
			c-0.999,0.747,1.989,2.242,0.372,3.74c-1.618,1.495-2.243-2.246-4.86-2.484c-2.618-0.258-2.868,3.979-4.235,6.103
			c-1.377,2.12-0.504,6.607,0,9.6c0.495,2.988,4.112,4.858,3.236,7.354c-0.401,1.158,0.417,2.461,1.285,3.733
			c3.317,0.066,6.357,0.309,7.696,0.751c0.536,0.18,1.659,0.133,3.12-0.07c-1.097-1.784-3.558-3.235-3.371-4.538
			c0.251-1.737,2.618-0.63,4.366,0.868c1.737,1.495,5.612,1.749,5.98-0.121c0.229-1.153-0.622-6.482-2.989-5.234
			c-2.372,1.248-2.991,0.747-3.867-0.501c-0.872-1.247,1.745-3.238,2.371-5.233c0.618-1.999,4.732-1.256,5.357-2.872
			C240.225,251.277,236.849,249.532,235.608,248.907z M254.437,256.512c-1.002-0.626-1.749,1.744-2.872,1.995
			c-1.122,0.25-2.366-4.741-2.867-1.995c-0.5,2.742-2.993-1.123-5.484,2.362c-2.494,3.498,1.494,6.611,3.239,7.738
			c1.745,1.119-0.126,2.738-2.367,2.242c-2.243-0.498-0.872,3.234,2.242,3.739c3.114,0.497,6.482-5.484,6.111-6.983
			C252.059,264.116,255.615,257.247,254.437,256.512z"/>
		<path style="fill:#476268;stroke:#FFFFFF;stroke-miterlimit:10;" d="M346.69,123.901c-1.205-1.193-3.603-4.397-1.607-4.397
			c2.007,0,2.805-6.001,0.402-7.206c-2.397-1.204,0-6.416-2.006-7.613c-2.003-1.205-0.799-5.211-0.392-8.012
			c0.392-2.809-7.621-5.207-12.025-7.21c-4.405-2.003-6.404-5.207-10.012-7.21c-3.603-2.003-4.808,3.2-4.808,6.412
			c0,3.204-3.204,3.603-5.605,1.596c-2.406-2.003-5.211,0-8.815-1.596c-3.606-1.608-1.999,3.603-1.999,6.005
			c0,2.398-4.01,2.398-6.411,2.398c-2.406,0-6.408,2.007-6.408,4.808c0,2.802-3.603,4.405-2.406,6.013
			c1.201,1.6-0.398,3.204-2.003,4.409c-1.6,1.197-3.199,5.2-4.404,6.404c-1.201,1.201,0.802,3.204-1.601,4.808
			c-2.397,1.596-5.207,0.391-6.407,1.596c-1.201,1.205,0,4.014-0.396,7.621c-0.407,3.595-3.212,7.605-5.613,10.805
			c-2.398,3.208,0.802,4.014,2.007,4.405c1.196,0.407,1.196,2.41,0,4.808c-1.205,2.414-4.01,0.802-5.61,0.411
			c-1.6-0.411-6.009,1.596-8.411,5.602c-2.405,4.006-1.607,6.408-0.806,8.411c0.798,2.003-1.999,4.409,0,8.415
			c2.003,4.006-0.802,4.808-0.395,8.012c0.395,3.204,5.203,2.801,5.606,6.005c0.399,3.2-1.604,4.405-3.208,4.405
			c-1.6,0-1.197,3.204,0.407,4.006c1.596,0.806,1.197,6.408,0.4,8.016c-0.807,1.6-6.009,0-5.61,1.995
			c0.399,2.007-1.205,5.206-1.205,6.815c0,1.6-0.399,6.807-2.003,5.602c-0.629-0.469-1.641-0.505-2.631-0.372
			c0.004,0.251,0.008,0.501,0,0.791c-0.123,3.114,1,6.236,3.738,8.473c2.742,2.249,0.622,5.61,2.989,8.728
			c2.371,3.122,1.619,5.363,4.237,7.609c2.621,2.241,2.871,3.49,1.748,6.357c-1.118,2.871,2.246,2.116,2.367,3.861
			c0.133,1.753-0.739,5.359,0.133,7.108c0.868,1.744,2.617,0,6.604-0.122c3.986-0.125,2.993-2.621,3.114-4.991
			c0.121-2.367,2.124-1.244,2.617-2.738c0.5-1.499,4.115-1.87,6.982-0.634c2.863,1.256,4.358-0.865,4.862-3.857
			c0.493-2.993,2.113,0.626,2.989,1.244c0.872,0.626,3.493-4.608,4.733-7.973c1.248-3.372-0.121-2.742-2.988,0.493
			c-2.867,3.243-1.244-3.235-0.121-5.856c1.114-2.617,0.997-10.23,1.369-11.967c0.379-1.745,1.122-4.366,4.737-5.113
			c3.614-0.747,8.352-5.235,7.608-7.101c-0.751-1.874,4.984-4.984,4.984-6.858c0-1.874-5.985-7.609-7.977-8.853
			c-1.999-1.244-6.357-0.251-5.985-1.619c0.371-1.369-0.505-6.733-0.998-9.475c-0.5-2.746,3.11-5.61,3.11-8.231
			c0-2.617-0.121-5.61,2.245-6.482c2.367-0.869,0.877-3.11,3.994-3.861c3.11-0.747,2.492-5.234,5.86-6.607
			c3.364-1.369,3.608-2.5,7.977-4.608c4.362-2.125,11.717-7.108,12.969-9.729c1.24-2.614-4.495-5.364-0.876-8.107
			c3.614-2.738,0.621-5.859,3.238-6.854c2.618-1.001,3.615-2.367,5.489-4.362c1.866-1.995,4.358-0.121,8.845-0.872
			c1.644-0.274,3.146-0.141,4.566,0.203C347.677,126.085,347.234,124.457,346.69,123.901z M304.542,233.571
			c-4.733,0.129-6.951,9.447-5.734,10.977C299.809,245.792,309.276,233.446,304.542,233.571z"/>
		<path style="fill:#476268;stroke:#FFFFFF;stroke-miterlimit:10;" d="M378.468,217.673c1.033-2.226,3.736-2.605,1.718-5.535
			c-0.38,0.317-0.928,0.61-1.839,0.864c-3.618,1.001-11.474-2.488-15.961-1.62c-4.491,0.869-13.587,0.869-15.707,3.114
			c-2.12,2.246-7.479,2.868-5.113,4.863c2.375,1.999,0,2.993,1.745,5.364c1.749,2.371,2.621,3.368,4.992,2.863
			c2.37-0.493,4.236,0.743,1.737,3.364c-0.036,0.055-0.06,0.098-0.103,0.141c3.994-0.372,8.431-0.626,9.084-0.141
			c1.001,0.751,6.979,5.492,8.478,4.992c0.915-0.305,5.007,0.133,8.047,0.524c-0.352-0.931-0.325-1.808,0.301-2.335
			c1.123-0.935,3.557-0.935,2.246-2.805c-1.307-1.87-1.683-2.242-1.866-4.491c-0.191-2.238-0.751-3.361-0.564-4.859
			C375.847,220.482,377.346,220.106,378.468,217.673z M334.333,223.725c-4.483,1.248-5.148,7.453-3.36,7.358
			c2.241-0.133,7.354-4.37,8.728-5.742C341.069,223.971,338.824,222.477,334.333,223.725z M338.072,220.106
			c1.006-1.87-7.198-1.048-5.355,0.626C334.09,221.984,337.083,221.976,338.072,220.106z"/>
		<path style="fill:#476268;stroke:#FFFFFF;stroke-miterlimit:10;" d="M400.411,70.639c-0.501,1.874-3.861,1.499-3.74-0.372
			c0.121-1.868-5.234-3.366-5.488-4.245c-0.251-0.867,2.245-0.745,4.244,0.374c1.987,1.127,3.364,0.377,5.605-1.741
			c2.25-2.118,5.359-0.372,5.735-2.241c0.375-1.87-3.618-3.122-4.362-4.243c-0.751-1.123-3.614-2.619-6.356-2.117
			c-2.742,0.497-2.867-0.624-4.495-2.12c-1.615-1.497-6.596,0.997-6.596,4.487c0,3.494-3.126,2.617-2.003,0.747
			c1.127-1.87-1.494-4.113,1.002-4.737c2.495-0.618,1.119-4.36-3.494-4.733c-4.616-0.372-6.357,3.488-5.234,4.733
			c1.123,1.25-3.121,6.608-4.991,6.608c-1.866,0,0.254-4.608,0.129-7.104c-0.129-2.49-1.87-1.121-5.363,2.868
			c-3.485,3.986-6.103,7.603-8.098,7.977c-1.999,0.377-1.749-3.617,1.494-5.358c3.239-1.748,3.368-6.486,5.48-6.486
			c2.12,0,2.12-2.49-0.993-3.237c-3.118-0.749-3.619,2.74-4.616,3.74c-1.002,0.994-6.102-1.749-5.981-0.749
			c0.125,1.001-2.738,1.367-1.498,3.237c1.243,1.87-0.618,3.495-1.867,1.251c-1.247-2.245-4.361-0.502-5.855,1.991
			c-1.503,2.498-3.497,2.369-1.999,3.246c1.494,0.87,1.373,4.236-0.869,4.859c-2.249,0.628-1.376-6.111-3.117-5.485
			c-1.749,0.626-0.626-3.243,1.741-3.243c2.366,0,4.737-3.489,4.486-4.359c-0.414-1.459-2.988-1.121-2.988,0.747
			c0,1.87-3.74,1.498-6.855,1.369c-3.113-0.122-2.996,3.619,0.497,5.608c3.485,2.001-0.622,3.247-2.37,1.749
			c-1.745-1.496-4.483-0.749-6.357,0.122c-1.87,0.876,4.491,3.122,4.741,4.243c0.242,1.122-3.247-1.372-3.994-0.499
			c-0.747,0.877-4.236-0.622-4.487-2.744c-0.254-2.121-5.864,0.872-2.738,1.617c3.118,0.75,1.991,2.748,1.991,5.491
			c0,2.738-3.618,0.626-2.867-1.747c0.743-2.367-2.25-1.872-4.733-0.378c-2.496,1.499,0.375-2.74-0.626-4.86
			c-0.998-2.115-3.247,0-5.864,0.503c-2.617,0.497-3.982,0.618-2.363,2.369c1.62,1.745,1.373,4.235-0.755,3.863
			c-2.116-0.375-2.985,0-2.742,1.996c0.254,1.995-2.738,2.112-2.988,0.375c-0.247-1.745-4.487-1.252-5.735,0.751
			c-1.244,1.987-4.737,3.489-4.362,5.731c0.368,2.242,3.118-1.126,5.363-0.379c2.242,0.751-0.129,1.874,1.123,2.993
			c1.244,1.127,0.994,3.869-0.751,2.25c-1.745-1.62-3.99-2.128-4.366,0.493c-0.375,2.621-2.241-0.372-3.739-2.246
			c-1.495-1.87-2.989,3.498-4.608,2.246c-1.616-1.244,3.239-5.105,1.99-6.979c-1.243-1.866-2.12,1.126-4.983,3.99
			c-2.867,2.864-6.725,2.746-5.355,4.115c1.369,1.37-2.871,2.121-3.615,4.483c-0.751,2.374-6.61,3.247-10.354,5.743
			c-3.74,2.484,0.751,2.613,2.871,0.242c2.125-2.371,2.872-0.993,6.236-3.114c3.367-2.12,6.979-3.865,8.227-2.997
			c1.24,0.876,3.368,1.502,4.984-0.743c1.619-2.246,3.618-1.753,5.233-0.376c1.624,1.374-2.738,2.496-0.751,4.491
			c1.996,1.999-2.362,3.106-2.362,1.369c0-1.745-2.492-3.239-3.368-1.623c-0.877,1.623-2.367,3.36-3.987,3.494
			c-1.615,0.126-3.363,3.118-3.363,6.11c0,2.989-2.872,0-3.114,2.617c-0.251,2.617-4.244,7.226-7.734,10.59
			c-3.485,3.368-0.25,4.116-1.373,6.24c-1.119,2.117-5.238,0.247-6.6,1.119c-1.377,0.88,0.743,6.11-1.123,7.734
			c-1.874,1.616,0,3.857,0,5.731c0,1.866-4.862-1.122-5.234,0.747c-0.375,1.87-4.62,1.377-5.866,1.87
			c-1.244,0.5,2.5,3.486,4.744,5.234c2.241,1.749-2.12,3.118-2.621,1.123c-0.499-1.996-3.617,1.248-7.478,2.992
			c-3.867,1.745-2.246,5.235-5.234,5.36c-2.995,0.125-2.123,4.858-4.117,6.353c-1.999,1.502-1.495-3.482-4.617-3.611
			c-3.111-0.122-2.865,2.116-0.997,4.737c1.87,2.614-2.864,0.626-4.612,2.872c-1.745,2.242-6.735,1.119-8.102,2.989
			c-1.367,1.87,3.736,1.87,4.485,3.364c0.749,1.502-4.485,0.747-7.229,0.126c-2.74-0.618-1.989,3.489-4.489,2.993
			c-2.494-0.501-5.606,2.116-3.857,3.869c1.745,1.745-1.376,1.992-3.121,0.869c-1.745-1.119-3.239,1.62-3.865,3.74
			c-0.625,2.121,3.366,3.247,3.243,4.233c-0.124,1.001-3.243,2.621-1,3.13c2.245,0.489,0.625,2.484-0.869,3.106
			c-1.499,0.634-1.499,2.128,0,3.994c1.494,1.874-2.621,2.242-0.626,5.113c1.995,2.863,3.485-0.755,4.362,1.365
			c0.876,2.124,3.239,0.254,5.987-2.242c2.741-2.488,3.74,2.742,1.495,2.621c-2.244-0.125-4.861,1.236-4.366,3.49
			c0.501,2.238-3.485,1.866-3.362-0.876c0.119-2.739-4.612,0.497-2.872,2.496c1.748,1.991-0.618,3.114-0.618,4.984
			c0,1.87,3.366,1.495,4.735-0.626c1.367-2.112,3.613-1.62,4.485,0.505c0.876,2.116-2.119,0.497-2.119,3.36
			c0,2.868-1.868,0.376-3.494,2.621c-1.617,2.246,6.361,6.357,8.855,6.979c2.494,0.626,4.86,3.364,9.846,2.621
			c4.992-0.751,14.461-9.972,15.707-11.595c1.252-1.624,3.992,0.25,5.86-1.248c1.872-1.495,0.749-5.355,2.122-6.099
			c1.371-0.759,2.116,4.107,3.366,4.604c1.127,0.446,1.944,1.335,1.995,3.822c0.99-0.133,2.002-0.098,2.631,0.372
			c1.604,1.205,2.003-4.002,2.003-5.602c0-1.608,1.604-4.808,1.205-6.815c-0.399-1.995,4.804-0.395,5.61-1.995
			c0.798-1.608,1.196-7.21-0.4-8.016c-1.604-0.802-2.007-4.006-0.407-4.006c1.604,0,3.607-1.205,3.208-4.405
			c-0.403-3.204-5.211-2.801-5.606-6.005c-0.407-3.204,2.398-4.006,0.395-8.012c-1.999-4.006,0.798-6.412,0-8.415
			c-0.802-2.003-1.6-4.405,0.806-8.411c2.402-4.006,6.811-6.013,8.411-5.602c1.601,0.391,4.405,2.003,5.61-0.411
			c1.196-2.398,1.196-4.401,0-4.808c-1.205-0.391-4.405-1.197-2.007-4.405c2.401-3.2,5.206-7.21,5.613-10.805
			c0.396-3.607-0.806-6.416,0.396-7.621c1.2-1.205,4.01,0,6.407-1.596c2.402-1.604,0.399-3.607,1.601-4.808
			c1.205-1.204,2.805-5.207,4.404-6.404c1.604-1.204,3.204-2.809,2.003-4.409c-1.196-1.608,2.406-3.211,2.406-6.013
			c0-2.801,4.002-4.808,6.408-4.808c2.401,0,6.411,0,6.411-2.398c0-2.402-1.607-7.613,1.999-6.005
			c3.604,1.596,6.408-0.407,8.815,1.596c2.401,2.007,5.605,1.608,5.605-1.596c0-3.212,1.205-8.415,4.808-6.412
			c0.282,0.157,0.544,0.333,0.818,0.505c1.189-2.68,3.462-4.373,5.59-4.112c3.208,0.407,5.203,6.009,9.213,6.807
			c4.006,0.802,8.012,2.41,9.213,0.399c1.205-2.003,4.01,1.205,6.408,0.403c2.401-0.802,2.401,4.409,4.808,1.205
			c2.402-3.204-0.399-5.207,3.606-4.804c4.006,0.395,1.604-4.409,1.604-7.214c0-2.801,5.203-3.204,5.203-5.606
			c0-2.404,7.214-0.405,8.411-2.007c1.205-1.602,5.206-2.797,6.814,0c1.6,2.805,8.407,3.603,8.81,6.013
			c0.191,1.162,0.008,2.993,0,4.694c1.107-1.095,2.52-1.916,3.877-1.916c2.488,0,4.729-3.736,6.978-3.239
			c1.866,0.415,3.713,0.102,4.288-3.02C404.683,69.104,400.868,68.939,400.411,70.639z"/>
		<path style="fill:#476268;stroke:#FFFFFF;stroke-miterlimit:10;" d="M270.762,449.241c-5.116,1.119-7.229,1.495-10.218,0
			c-2.996-1.494-7.84,1.361-7.108,3.36c0.497,1.377,2.496,3.118,8.725,4.746c6.235,1.615,6.982,5.852,9.6,5.98
			c2.617,0.122,2.867-2.374,2.245-5.738c-0.626-3.364,3.114-7.229,3.486-7.855C277.862,449.116,275.867,448.119,270.762,449.241z
			 M222.515,420.941c-2.736,2.371-4.997-0.414-6.103,1.495c-1.377,2.37,4.235,5.982,3.112,10.844
			c-1.123,4.858,0.622,10.97,3.49,8.105c2.867-2.863,4.243-1.494,5.86-3.618c1.617-2.113,0.25-9.968,1.373-13.708
			C231.368,420.319,225.257,418.571,222.515,420.941z M283.602,416.951c-3.239-1.987-1.123-5.234-6.233-4.991
			c-5.112,0.258-11.219-6.103-13.089-13.462c-1.87-7.346-9.843-7.725-11.842-12.092c-1.995-4.366,1.87-4.858,0.129-8.474
			c-0.974-2.011,1.178-3.79,3.717-4.796c-0.208-3.998,0.133-8.356,0.441-11.185c-1.979-0.203-3.681-0.489-4.287-0.849
			c-0.939-0.563-1.123-3.56-1.686-3.56c-0.559,0-5.794,0-6.733,0.939c-0.933,0.935-3.738,2.621-5.234,1.682
			c-0.323-0.195-0.679-0.398-1.042-0.578l-1.631,1.518c0,0-0.254,1.995-1.254,1.995c-0.989,0-2.49-0.743-2.49,0.993
			c0,1.749-2.744,1.248-3.988,1.002c-1.246-0.25-2.99,0.246-2.99,1.744c0,1.495-0.253,4.742-2.244,2.997
			c-1.995-1.752-3.998-6.239-4.744-5.743c-0.745,0.501-2.49,5.985-4.234,5.985c-1.082,0-4.636,0.282-7.192,0.509
			c-0.671,2.148,0.045,3.427,0.955,3.982c0.939,0.556-0.561,2.801-1.683,3.364c-1.119,0.56-2.99,0-1.68,2.054
			c1.311,2.054,3.74,2.242,2.429,4.3c-1.307,2.058,0,3.928,1.872,4.115c1.868,0.188,4.489-0.188,3.924,1.314
			c-0.328,0.876-0.837,1.874-0.946,2.853c1.471-0.427,2.771-0.498,4.066-1.178c2.621-1.361,1.499-3.736,5.856-4.984
			c4.366-1.244,10.101,2.371,11.846,4.984c1.745,2.621,2.243,2.871,2.617,4.995c0.377,2.112,1.995,6.357,7.977,10.219
			c5.986,3.869,8.36,8.227,11.471,9.847c3.117,1.627,6.235,1.252,8.106,3.493c1.87,2.241,4.361,3.489,7.354,4.862
			c2.989,1.377,3.114,4.608,5.981,4.988c2.863,0.371,0.998,2.867,2.742,4.983c1.741,2.116,2.245,6.607,0.376,9.104
			c-1.87,2.496-0.877,6.729,0.375,6.729c1.244,0,3.861-4.487,4.237-6.979c0.367-2.496,2.867-2.363,4.858-4.988
			c1.995-2.617-2.988-3.243-3.857-6.607c-0.876-3.368,3.74-6.361,8.098-3.618c4.358,2.742,6.111,4.615,6.354,0.379
			C300.556,424.56,286.841,418.946,283.602,416.951z"/>
		<path style="fill:#476268;stroke:#FFFFFF;stroke-miterlimit:10;" d="M304.03,396.429c-1.729,2.332-3.419,5.289-3.228,6.256
			c0.086,0.426-0.059,1.385-0.349,2.613c2.223,1.795,4.374,3.602,5.958,4.424c0.161,0.087,0.298,0.157,0.45,0.235
			c0.493-2.77,2.402-5.63,3.787-5.962C308.713,401.62,305.864,398.268,304.03,396.429z"/>
		<path style="fill:#476268;stroke:#FFFFFF;stroke-miterlimit:10;" d="M333.589,394.387c-1.874-1.689-1.682-4.671,0-5.798
			c1.683-1.126,0.184-2.621,0.184-4.486c0-1.874-8.035-2.434-9.35-2.806c-1.306-0.375,0.939-5.237-1.118-5.237
			c-2.061,0-2.805-1.491-2.805-2.993c0-1.494-3.181-3.928-2.993-4.863c0.027-0.129,0.117-0.254,0.232-0.379
			c-1.154-0.172-2.043-0.316-2.371-0.388c-1.389-0.273-3.618-1.106-3.618-1.106s-5.189,1.674-8.787,2.77
			c0.243,2.198,0.817,4.585,2.198,5.102c2.681,1.005,1.679,3.681,2.681,6.032c1.005,2.347,0.669,13.066-0.669,13.066
			c-0.567,0-1.866,1.392-3.142,3.129c1.834,1.839,4.683,5.191,6.619,7.566c0.086-0.024,0.176-0.074,0.258-0.074
			c1.671,0,7.805,4.463,7.805,4.463s8.677-1.808,14.525-2.656c0.086-0.896,0.27-1.924,0.164-2.555
			c-0.188-1.122,1.127-3.364,2.805-3.364C337.889,399.809,335.455,396.069,333.589,394.387z"/>
		<text transform="matrix(1 0 0 1 291.1128 301.9673)" style="fill:#FFFFFF; font-family:'Rubik-Light'; font-size:9.2975px;">POLAND</text>
		<text transform="matrix(1 0 0 1 393.4697 334.6582)" style="fill:#FFFFFF; font-family:'Rubik-Light'; font-size:9.2975px;">UKRAINE</text>
		
			<text transform="matrix(0.5806 0.8142 -0.8142 0.5806 376.2032 345.8534)" style="fill:#FFFFFF; font-family:'Rubik-Light'; font-size:4px;">MOLDOVA</text>
		<text transform="matrix(1 0 0 1 265.894 326.1851)"><tspan x="0" y="0" style="fill:#FFFFFF; font-family:'Rubik-Light'; font-size:5px;">CZECH</tspan><tspan x="-3.702" y="6" style="fill:#FFFFFF; font-family:'Rubik-Light'; font-size:5px;">REPUBLIC</tspan></text>
		<text transform="matrix(1 0 0 1 121.9937 294.5249)"><tspan x="0" y="0" style="fill:#FFFFFF; font-family:'Rubik-Light'; font-size:6px;">UNITED</tspan><tspan x="0" y="7.2" style="fill:#FFFFFF; font-family:'Rubik-Light'; font-size:6px;"> KINGDOM</tspan></text>
		<text transform="matrix(1 0 0 1 260.8481 353.0547)" style="fill:#FFFFFF; font-family:'Rubik-Light'; font-size:5px;">AUSTRIA</text>
		<text transform="matrix(1 0 0 1 149.0688 363.9058)" style="fill:#FFFFFF; font-family:'Rubik-Light'; font-size:9.2975px;">FRANCE</text>
		<text transform="matrix(1 0 0 1 332.4458 373.7817)" style="fill:#FFFFFF; font-family:'Rubik-Light'; font-size:9.2975px;">ROMANIA</text>
		<text transform="matrix(1 0 0 1 341.3047 404.7163)" style="fill:#FFFFFF; font-family:'Rubik-Light'; font-size:5px;">BULGARIA</text>
		<text transform="matrix(1 0 0 1 319.7002 437.5752)" style="fill:#FFFFFF; font-family:'Rubik-Light'; font-size:4px;">GREECE</text>
		<text transform="matrix(1 0 0 1 100.0332 432.0767)" style="fill:#FFFFFF; font-family:'Rubik-Light'; font-size:9.2975px;">SPAIN</text>
		
			<text transform="matrix(0.2163 -0.9763 0.9763 0.2163 78.0744 446.8726)" style="fill:#FFFFFF; font-family:'Rubik-Light'; font-size:6px;">PORTUGAL</text>
		<text transform="matrix(1 0 0 1 220.0044 309.5825)" style="fill:#FFFFFF; font-family:'Rubik-Light'; font-size:9.2975px;">GERMANY</text>
		<text transform="matrix(1 0 0 1 260.0981 211.2437)" style="fill:#FFFFFF; font-family:'Rubik-Light'; font-size:9.2975px;">SWEDEN</text>
		<text transform="matrix(1 0 0 1 205.8628 194.5854)" style="fill:#FFFFFF; font-family:'Rubik-Light'; font-size:9.2975px;">NORWAY</text>
		<text transform="matrix(1 0 0 1 345.7251 174.8193)" style="fill:#FFFFFF; font-family:'Rubik-Light'; font-size:9.2975px;">FINLAND</text>
		<text transform="matrix(1 0 0 1 224.4331 380.3237)" style="fill:#FFFFFF; font-family:'Rubik-Light'; font-size:9.2975px;">ITALY</text>
		<text transform="matrix(1 0 0 1 308.5908 398.7427)" style="fill:#FFFFFF; font-family:'Rubik-Light'; font-size:7px;">SERBIA</text>
		<text transform="matrix(1 0 0 1 290.1787 359.5718)" style="fill:#FFFFFF; font-family:'Rubik-Light'; font-size:7px;">HUNGARY</text>
		<text transform="matrix(1 0 0 1 302.3535 338.252)" style="fill:#FFFFFF; font-family:'Rubik-Light'; font-size:5px;">SLOVAKIA</text>
		<g>
			<text transform="matrix(1 0 0 1 295.291 228.9033)" style="fill:#476268; font-family:'Rubik-Light'; font-size:6px;">BALTIC SEA</text>
		</g>
		<text transform="matrix(1 0 0 1 138.9326 217.0366)" style="fill:#476268; font-family:'Rubik-Light'; font-size:7px;">NORTH SEA</text>
		
			<text transform="matrix(0.804 -0.5946 0.5946 0.804 184.2374 307.9705)" style="fill:#FFFFFF; font-family:'Rubik-Light'; font-size:4px;">NETHERLANDS</text>
		
			<text transform="matrix(0.9689 0.2475 -0.2475 0.9689 175.9204 317.0424)" style="fill:#FFFFFF; font-family:'Rubik-Light'; font-size:5px;">BELGIUM</text>
		<text transform="matrix(1 0 0 1 333.7148 263.7646)" style="fill:#FFFFFF; font-family:'Rubik-Light'; font-size:5px;">LITHUANIA</text>
		<text transform="matrix(1 0 0 1 351.7256 246.9854)" style="fill:#FFFFFF; font-family:'Rubik-Light'; font-size:6px;">LATVIA</text>
		<text transform="matrix(1 0 0 1 349.876 223.1875)" style="fill:#FFFFFF; font-family:'Rubik-Light'; font-size:5px;">ESTONIA</text>
		<text transform="matrix(1 0 0 1 71.0762 290.7041)" style="fill:#FFFFFF; font-family:'Rubik-Light'; font-size:5px;">IRELAND</text>
		<text transform="matrix(1 0 0 1 319.4502 414.9956)" style="fill:#FFFFFF; font-family:'Rubik-Light'; font-size:3px;">MACEDONIA</text>
		<text transform="matrix(1 0 0 1 308.2314 423.3374)" style="fill:#FFFFFF; font-family:'Rubik-Light'; font-size:3px;">ALBANIA</text>
		<text transform="matrix(1 0 0 1 285.6831 383.9541)"><tspan x="0" y="0" style="fill:#FFFFFF; font-family:'Rubik-Light'; font-size:3px;">BOSNIA AND</tspan><tspan x="0" y="3.6" style="fill:#FFFFFF; font-family:'Rubik-Light'; font-size:3px;">HERZEGOVINA</tspan></text>
		<text transform="matrix(1 0 0 1 279.1021 374.96)" style="fill:#FFFFFF; font-family:'Rubik-Light'; font-size:4px;">CROATIA</text>
		<text transform="matrix(1 0 0 1 258.1646 368.5854)" style="fill:#FFFFFF; font-family:'Rubik-Light'; font-size:4px;">SLOVENIA</text>
		<text transform="matrix(1 0 0 1 207.4355 361.3706)" style="fill:#FFFFFF; font-family:'Rubik-Light'; font-size:3px;">SWITZERLAND</text>
		<text transform="matrix(1 0 0 1 218.7544 254.1494)" style="fill:#FFFFFF; font-family:'Rubik-Light'; font-size:3px;">DENMARK</text>
		<text transform="matrix(1 0 0 1 386.6021 436.6606)" style="fill:#476268; font-family:'Rubik-Light'; font-size:8px;">BLACK SEA</text>
		<path style="fill:#476268;stroke:#FFFFFF;stroke-miterlimit:10;" d="M116.083,181.148c4.14-0.206,4.038-4.777,5.735-4.563
			c1.707,0.217,4.463-3.187,5.527-5.31c1.062-2.123-1.168-5.946-3.716-5.946c-2.554,0-4.464-2.02-3.929-3.507
			c0.53-1.487-1.387-3.4-1.278-4.46c0.105-1.063-3.185-0.113-4.889,0.32c-1.696,0.42-5.308-4.147-6.9-3.3
			c-1.592,0.854-0.428,3.08-0.852,4.357c-0.425,1.277-4.247-1.17-4.247,0.32c0,1.487-1.595,1.697-2.868,0.104
			c-1.275-1.593-4.255-0.637-4.144,0.637c0.105,1.273-1.276,0.217-3.72-1.273c-2.442-1.483-4.994,1.703-4.78,3.297
			c0.215,1.597-0.852,2.013-2.87-1.487c-2.017-3.507-4.355,0.313-3.29,2.233c1.065,1.907,0.639,4.24-0.953,3.287
			c-1.595-0.953-3.72,0.637-4.677,2.127c-0.955,1.487-4.355-4.36-1.912-5.737c2.443-1.376-7.755-7.226-10.94-7.226
			c-3.187,0-1.065,2.343,1.063,4.04c2.122,1.697-1.494,1.277-2.659-0.216c-1.169-1.48-3.4-0.317-4.676,1.807
			c-1.271,2.126-3.4,3.296-3.608,4.783c-0.213,1.487,3.608,3.083,6.903,1.7c3.294-1.38,7.01-1.597,8.713,0
			c1.7,1.59-3.082,2.23-1.385,3.503c1.703,1.273,0.32,2.34-3.714,2.02c-4.038-0.316-8.923,0.847-8.18,2.23
			c0.74,1.376,10.302-1.164,10.411,0.213c0.105,1.383,0,3.716,2.55,2.657c2.548-1.061,0.845,1.913,2.118,2.439
			c1.275,0.534,0.96,3.081-2.438,3.297c-3.4,0.211-5.057,0.894-3.615,2.334c1.807,1.81,5.527,0.53,9.135-0.316
			c3.608-0.854,8.82,3.503,13.067,5.203c4.25,1.704,11.579-0.637,12.43-2.87c0.852-2.233,6.585-1.38,8.92-2.974
			C108.754,183.275,111.937,181.365,116.083,181.148z"/>
		<text transform="matrix(1 0 0 1 77.21 176.835)" style="fill:#FFFFFF; font-family:'Rubik-Light'; font-size:8px;">ICELAND</text>
		<path style="fill:#476268;stroke:#FFFFFF;stroke-miterlimit:10;" d="M236.3,358.999c0,0,0.105-2.44-2.52-2.92
			c-2.625-0.479-2.46-1.388-2.708-2.229c-0.126-0.428-0.892-1.541-0.892-1.541s-1.438,0.142-1.079,2.561
			c0.116,0.787,0.178,1.314,0.209,1.665c0.05,0.577,0.309,1.107,0.733,1.5c0.651,0.602,1.643,1.303,2.612,1.152
			C234.301,358.934,234.947,358.746,236.3,358.999z"/>
		<path style="fill:#476268;stroke:#FFFFFF;stroke-miterlimit:10;" d="M148.343,404.392c0,0-0.77,3.053,3.917,2.865
			c0,0,3.094-1.563,5.906-0.563c2.812,1,1.781-1.531,1.781-1.531s-2.781-0.531-3.906-1.563c-1.125-1.031-1.938-1.813-3.031-1.688
			c-1.094,0.125-0.688,1.125-0.688,1.125S152.489,404.371,148.343,404.392z"/>
		<path style="fill:#476268;stroke:#FFFFFF;stroke-miterlimit:10;" d="M210.603,393.038c0,0-2.107-0.337-4.312,0.656
			c-1.022,0.46-3.257,0.028-3.594,1.969c-1.063,6.125,3.063,1.063,3.063,1.063l3.938-3.313l0.938-0.375H210.603z"/>
		<path style="fill:#476268;stroke:#FFFFFF;stroke-miterlimit:10;" d="M414.373,281.255c-1.499-0.376-2.434-3.736-4.867-4.675
			c-2.43-0.935-1.865-3.928-3.924-5.234c-2.054-1.314-0.751-3.928-0.938-5.989c-0.185-2.054,0.379-5.234-0.743-5.794
			c-1.127-0.564-5.802-3.18-7.852-2.241c-2.062,0.935-3.557,1.678-4.495,0c-0.931-1.686-2.237-2.621-4.295-2.061
			c-2.063,0.563-3.372-0.372-4.491-1.311c-0.168-0.145-0.31-0.364-0.427-0.614c-0.829,0.172-1.921,0.493-2.621,1.056
			c-1.252,0.998-1.498,2.989-3.247,2.989c-1.744,0-3.735-0.743-5.73,0.751c-1.999,1.494-2.496,3.247-2.246,4.483
			c0.247,1.248,0.501,3.247-0.997,3.247c-1.499,0-1.244,1.748-2.742,2.245c-1.495,0.497-3.99,2.742-4.241,3.982
			c-0.246,1.252-0.246,3.994-1.248,3.994c-0.997,0-4.483,0.497-5.484,1.745c-0.993,1.248-2.233,2.492-4.232,1.995
			c-1.025-0.258-3.768-0.38-6.182-0.438c0.035,0.247,0.035,0.489-0.059,0.747c-0.931,2.621-0.188,5.047,1.311,6.357
			c1.498,1.307,2.058,6.545,0.376,7.296c-1.687,0.743-4.863,2.989-4.863,4.299c0,1.308,3.364,2.43,2.806,4.3
			c-0.317,1.072-0.329,2.974-0.149,4.624c1.593,0.07,3.161,0.353,4.511-1.005c1.498-1.499,2.25-3.243,5.489-3.243
			c3.238,0,12.964,0,14.459,1.744c1.494,1.749,5.488,0.251,7.726,1.248c2.249,0.998,5.488,1.999,5.735,0.747
			c0.254-1.243,3.247,1.745,5.488,0.501c2.246-1.248,4.236,2.492,5.488,1.745c1.244-0.751,6.479-0.748,7.723,0.501
			c1.256,1.243,1.494-1.252,1.494-2.747c0-1.494,4.996-5.48,4.996-5.48s3.396-0.184,5.418-1.096
			c-0.45-0.646-0.833-1.709-1.252-3.521c-0.927-4.119-2.425-6.545-1.303-7.855c1.119-1.311,4.3,1.683,5.977,0.935
			c1.687-0.748,4.679-2.246,4.303-3.928C418.672,283.872,415.867,281.627,414.373,281.255z"/>
		<text transform="matrix(1 0 0 1 360.9443 286.3296)" style="fill:#FFFFFF; font-family:'Rubik-Light'; font-size:9.2975px;">BELARUS</text>
		<g>
			<ellipse style="fill:#40A798;" cx="159.442" cy="98.159" rx="59.037" ry="46.685"/>
			<text transform="matrix(1 0 0 1 114.7827 95.188)" style="fill:#FFFFFF; font-family:'Rubik-Light'; font-size:24px;">EUROPE</text>
			<g>
				<text transform="matrix(1 0 0 1 129.5728 123.4546)" style="fill:#FFFFFF; font-family:'Rubik-Light'; font-size:30px;">MAP</text>
				<g>
					<circle style="fill:#FFFFFF;" cx="120.13" cy="114.08" r="1.875"/>
					<circle style="fill:#FFFFFF;" cx="198.755" cy="114.08" r="1.875"/>
				</g>
			</g>
		</g>
		<g>
			<g>
				
					<text transform="matrix(1 -0.003 0.003 1 268.1885 405.5405)" style="fill:#476268; font-family:'Rubik-Light'; font-size:4px;">LIECHENSTEIN</text>
			</g>
			<g>
				<g>
					
						<line style="fill:none;stroke:#40A798;stroke-linecap:round;stroke-linejoin:round;" x1="231.458" y1="357.242" x2="276.514" y2="398.563"/>
					<g>
						<path style="fill:#40A798;" d="M275.334,399.727c0.674,0.617,1.721,0.571,2.338-0.102c0.617-0.674,0.572-1.72-0.102-2.337
							c-0.673-0.618-1.72-0.572-2.337,0.101C274.616,398.063,274.661,399.108,275.334,399.727z"/>
					</g>
				</g>
			</g>
		</g>
		<g>
			<g>
				<text transform="matrix(1 0 0 1 282.7725 414.7246)" style="fill:#476268; font-family:'Rubik-Light'; font-size:4px;">MONTENEGRO</text>
			</g>
			<g>
				<g>
					
						<line style="fill:none;stroke:#40A798;stroke-linecap:round;stroke-linejoin:round;" x1="305.333" y1="402.409" x2="297.848" y2="409.19"/>
					<g>
						<path style="fill:#40A798;" d="M297.084,408.258c-0.492,0.445-0.53,1.207-0.084,1.699c0.446,0.492,1.207,0.53,1.699,0.084
							c0.492-0.446,0.53-1.207,0.084-1.699C298.338,407.849,297.576,407.811,297.084,408.258z"/>
					</g>
				</g>
			</g>
		</g>
		<g>
			<path style="fill:#476268;stroke:#FFFFFF;stroke-miterlimit:10;" d="M219.08,475.06c-0.622-4.241-9.191,1.267-7.357,2.496
				C215.467,480.048,219.702,479.301,219.08,475.06z"/>
			<g>
				<text transform="matrix(1 0 0 1 230.541 478.7422)" style="fill:#476268; font-family:'Rubik-Light'; font-size:5px;">MALTA</text>
			</g>
			<g>
				<path style="fill:#476268;stroke:#40A798;stroke-miterlimit:10;" d="M227.761,476.142c0.332,0,0.601,0.27,0.601,0.601
					c0,0.332-0.269,0.601-0.601,0.601c-0.332,0-0.601-0.269-0.601-0.601C227.16,476.411,227.429,476.142,227.761,476.142z"/>
				
					<line style="fill:none;stroke:#40A798;stroke-linecap:round;stroke-linejoin:round;stroke-miterlimit:10;" x1="217" y1="476.742" x2="227.569" y2="476.742"/>
			</g>
		</g>
		<g>
			<g>
				
					<text transform="matrix(1 -0.003 0.003 1 105.1944 390.1448)" style="fill:#476268; font-family:'Rubik-Light'; font-size:5px;">ANDORRA</text>
			</g>
			<g>
				<path style="fill:#E57373;stroke:#40A798;stroke-miterlimit:10;" d="M132.221,390.555c-0.264-0.2-0.316-0.577-0.116-0.842
					c0.2-0.265,0.577-0.316,0.841-0.116c0.265,0.2,0.316,0.576,0.117,0.841C132.863,390.702,132.486,390.754,132.221,390.555z"/>
				
					<line style="fill:none;stroke:#40A798;stroke-linecap:round;stroke-linejoin:round;stroke-miterlimit:10;" x1="153.416" y1="404.242" x2="132.736" y2="390.19"/>
			</g>
		</g>
		<g>
			<g>
				
					<text transform="matrix(1 -0.003 0.003 1 158.9385 273.5804)" style="fill:#476268; font-family:'Rubik-Light'; font-size:6px;">LUXEMBURG</text>
			</g>
			<path style="fill:#476268;stroke:#40A798;stroke-miterlimit:10;" d="M196.855,271.842c0.064-0.325,0.38-0.537,0.706-0.473
				c0.326,0.064,0.537,0.38,0.473,0.705c-0.064,0.326-0.38,0.537-0.706,0.474C197.003,272.483,196.791,272.168,196.855,271.842z"/>
			<polyline style="fill:none;stroke:#40A798;stroke-linecap:round;stroke-linejoin:round;stroke-miterlimit:10;" points="
				198.992,329.345 217.833,291.86 197.5,272 			"/>
		</g>
		<g>
			<g>
				
					<text transform="matrix(0.9999 0.0135 -0.0135 0.9999 193.2611 411.0724)" style="fill:#476268; font-family:'Rubik-Light'; font-size:5px;">MONACO</text>
			</g>
			<g>
				<g>
					
						<line style="fill:none;stroke:#40A798;stroke-linecap:round;stroke-linejoin:round;" x1="204.375" y1="395.5" x2="204.375" y2="404.107"/>
					<g>
						<path style="fill:#40A798;" d="M202.909,404.033c0,0.811,0.657,1.467,1.466,1.467c0.81,0,1.466-0.656,1.466-1.467
							c0-0.81-0.657-1.466-1.466-1.466C203.565,402.567,202.909,403.224,202.909,404.033z"/>
					</g>
				</g>
			</g>
		</g>
		<g>
			<text transform="matrix(1 0 0 1 280.0225 472.1592)"><tspan x="0" y="0" style="fill:#476268; font-family:'Roboto-Medium'; font-size:5px;">MEDITERRANEAN</tspan><tspan x="15.697" y="6" style="fill:#476268; font-family:'Roboto-Medium'; font-size:5px;">SEA</tspan></text>
		</g>
	</g>
</g>
<g id="DESIGNED_BY_FREEPIK">
	<g style="opacity:0.5;">
		<g>
			<g>
				<path style="fill:#476268;" d="M190.041,19.935v-0.138c-0.187,0.214-0.372,0.389-0.554,0.523
					c-0.182,0.135-0.379,0.237-0.592,0.307c-0.213,0.071-0.445,0.105-0.697,0.105c-0.334,0-0.643-0.07-0.928-0.212
					c-0.284-0.142-0.53-0.344-0.737-0.605c-0.208-0.262-0.365-0.57-0.473-0.924c-0.107-0.354-0.161-0.737-0.161-1.149
					c0-0.872,0.213-1.552,0.638-2.039c0.426-0.486,0.986-0.73,1.681-0.73c0.401,0,0.74,0.069,1.016,0.207
					c0.276,0.138,0.545,0.351,0.807,0.636v-2.058c0-0.286,0.057-0.502,0.171-0.648c0.114-0.146,0.276-0.22,0.487-0.22
					c0.211,0,0.373,0.067,0.488,0.202c0.114,0.135,0.171,0.332,0.171,0.595v6.149c0,0.266-0.061,0.464-0.184,0.598
					c-0.123,0.132-0.281,0.199-0.475,0.199c-0.19,0-0.348-0.069-0.473-0.207C190.103,20.386,190.041,20.19,190.041,19.935z
					 M187.299,17.887c0,0.378,0.059,0.699,0.176,0.965c0.118,0.266,0.278,0.466,0.483,0.6c0.204,0.135,0.427,0.203,0.669,0.203
					c0.245,0,0.469-0.064,0.672-0.192c0.202-0.127,0.364-0.324,0.485-0.587c0.121-0.264,0.181-0.594,0.181-0.988
					c0-0.372-0.06-0.691-0.181-0.958c-0.121-0.267-0.284-0.471-0.49-0.613c-0.206-0.141-0.432-0.211-0.677-0.211
					c-0.255,0-0.483,0.072-0.684,0.217c-0.201,0.144-0.357,0.352-0.467,0.622C187.354,17.215,187.299,17.529,187.299,17.887z"/>
				<path style="fill:#476268;" d="M196.189,18.239h-2.727c0.003,0.316,0.067,0.596,0.191,0.837
					c0.124,0.242,0.289,0.424,0.495,0.547c0.206,0.123,0.434,0.183,0.682,0.183c0.167,0,0.319-0.019,0.457-0.058
					c0.138-0.04,0.271-0.1,0.401-0.185c0.13-0.083,0.249-0.172,0.357-0.268c0.109-0.096,0.25-0.225,0.424-0.389
					c0.071-0.061,0.174-0.092,0.307-0.092c0.143,0,0.258,0.04,0.347,0.118c0.088,0.079,0.133,0.189,0.133,0.332
					c0,0.126-0.05,0.272-0.148,0.441c-0.099,0.168-0.248,0.33-0.447,0.485c-0.2,0.155-0.449,0.283-0.752,0.385
					c-0.301,0.103-0.647,0.153-1.039,0.153c-0.895,0-1.592-0.256-2.088-0.766c-0.497-0.51-0.746-1.204-0.746-2.078
					c0-0.413,0.061-0.795,0.184-1.146c0.123-0.353,0.302-0.655,0.536-0.907c0.235-0.252,0.524-0.445,0.869-0.58
					c0.344-0.134,0.725-0.201,1.144-0.201c0.544,0,1.012,0.114,1.401,0.344c0.391,0.229,0.683,0.527,0.877,0.891
					c0.193,0.364,0.291,0.736,0.291,1.113c0,0.351-0.101,0.578-0.301,0.683C196.837,18.187,196.554,18.239,196.189,18.239z
					 M193.463,17.447h2.528c-0.034-0.477-0.163-0.833-0.386-1.07c-0.223-0.237-0.516-0.355-0.881-0.355
					c-0.347,0-0.632,0.12-0.855,0.36C193.646,16.622,193.511,16.978,193.463,17.447z"/>
				<path style="fill:#476268;" d="M202.542,18.907c0,0.385-0.093,0.715-0.281,0.989c-0.187,0.274-0.464,0.482-0.83,0.624
					c-0.366,0.141-0.811,0.212-1.335,0.212c-0.501,0-0.929-0.077-1.287-0.23c-0.357-0.153-0.621-0.345-0.791-0.574
					c-0.17-0.23-0.255-0.461-0.255-0.692c0-0.153,0.054-0.284,0.164-0.393c0.108-0.109,0.247-0.164,0.414-0.164
					c0.146,0,0.258,0.036,0.336,0.107c0.079,0.072,0.154,0.172,0.225,0.301c0.143,0.25,0.314,0.434,0.514,0.557
					c0.199,0.122,0.47,0.184,0.814,0.184c0.279,0,0.508-0.063,0.687-0.186c0.178-0.125,0.268-0.267,0.268-0.427
					c0-0.245-0.092-0.423-0.278-0.536c-0.186-0.112-0.491-0.22-0.917-0.322c-0.48-0.119-0.871-0.244-1.172-0.376
					c-0.301-0.13-0.542-0.304-0.723-0.518c-0.18-0.215-0.271-0.479-0.271-0.792c0-0.279,0.084-0.543,0.25-0.792
					c0.167-0.248,0.413-0.446,0.739-0.594c0.325-0.149,0.717-0.223,1.177-0.223c0.361,0,0.685,0.037,0.973,0.113
					c0.288,0.074,0.528,0.175,0.72,0.301c0.192,0.125,0.339,0.265,0.439,0.418c0.101,0.153,0.15,0.303,0.15,0.45
					c0,0.16-0.053,0.291-0.16,0.394c-0.107,0.101-0.26,0.153-0.458,0.153c-0.143,0-0.265-0.041-0.365-0.124
					c-0.101-0.082-0.215-0.204-0.345-0.367c-0.106-0.136-0.229-0.245-0.372-0.327c-0.143-0.082-0.337-0.122-0.583-0.122
					c-0.253,0-0.462,0.053-0.628,0.161c-0.167,0.106-0.25,0.24-0.25,0.4c0,0.147,0.061,0.267,0.184,0.36
					c0.123,0.094,0.288,0.171,0.496,0.232c0.208,0.061,0.493,0.136,0.858,0.224c0.432,0.106,0.785,0.232,1.059,0.378
					c0.274,0.146,0.482,0.319,0.624,0.519C202.472,18.425,202.542,18.652,202.542,18.907z"/>
				<path style="fill:#476268;" d="M203.967,14.414c-0.194,0-0.36-0.06-0.498-0.179c-0.138-0.119-0.207-0.287-0.207-0.506
					c0-0.198,0.071-0.359,0.212-0.488c0.141-0.128,0.306-0.191,0.493-0.191c0.181,0,0.341,0.058,0.48,0.174
					c0.14,0.116,0.21,0.284,0.21,0.505c0,0.215-0.069,0.382-0.205,0.503C204.316,14.353,204.154,14.414,203.967,14.414z
					 M204.657,15.854v4.029c0,0.279-0.066,0.491-0.199,0.634c-0.133,0.143-0.301,0.214-0.506,0.214s-0.371-0.073-0.498-0.219
					c-0.128-0.146-0.191-0.356-0.191-0.629v-3.988c0-0.275,0.063-0.483,0.191-0.623c0.127-0.14,0.293-0.209,0.498-0.209
					s0.372,0.07,0.506,0.209C204.59,15.411,204.657,15.606,204.657,15.854z"/>
				<path style="fill:#476268;" d="M210.765,16.084v4.049c0,0.463-0.05,0.862-0.149,1.196c-0.098,0.333-0.256,0.609-0.475,0.827
					c-0.218,0.217-0.503,0.379-0.855,0.484c-0.352,0.106-0.79,0.159-1.315,0.159c-0.48,0-0.909-0.067-1.287-0.202
					c-0.377-0.135-0.669-0.308-0.873-0.521c-0.204-0.212-0.307-0.432-0.307-0.656c0-0.17,0.058-0.309,0.174-0.416
					c0.116-0.107,0.256-0.161,0.419-0.161c0.205,0,0.383,0.09,0.537,0.271c0.075,0.092,0.152,0.185,0.232,0.279
					c0.08,0.094,0.169,0.174,0.266,0.241c0.098,0.065,0.214,0.115,0.35,0.147c0.136,0.031,0.293,0.048,0.47,0.048
					c0.361,0,0.641-0.05,0.84-0.151c0.199-0.1,0.339-0.241,0.419-0.421c0.08-0.18,0.127-0.373,0.141-0.58
					c0.014-0.206,0.023-0.537,0.03-0.994c-0.215,0.3-0.462,0.529-0.743,0.685c-0.281,0.156-0.616,0.235-1.003,0.235
					c-0.466,0-0.874-0.119-1.223-0.358c-0.349-0.238-0.617-0.572-0.804-1c-0.188-0.43-0.281-0.924-0.281-1.486
					c0-0.419,0.057-0.797,0.171-1.134c0.114-0.337,0.277-0.622,0.488-0.853c0.211-0.232,0.455-0.406,0.73-0.524
					c0.276-0.117,0.579-0.176,0.909-0.176c0.395,0,0.737,0.076,1.027,0.227c0.289,0.152,0.558,0.39,0.807,0.713v-0.189
					c0-0.242,0.06-0.428,0.179-0.562c0.119-0.132,0.272-0.199,0.46-0.199c0.269,0,0.447,0.088,0.536,0.263
					C210.72,15.5,210.765,15.753,210.765,16.084z M206.725,17.851c0,0.565,0.123,0.993,0.37,1.282
					c0.247,0.29,0.566,0.434,0.958,0.434c0.232,0,0.45-0.063,0.656-0.187c0.207-0.125,0.374-0.312,0.503-0.562
					c0.129-0.25,0.194-0.554,0.194-0.911c0-0.568-0.125-1.012-0.376-1.328c-0.251-0.317-0.58-0.475-0.989-0.475
					c-0.398,0-0.717,0.151-0.957,0.455C206.844,16.861,206.725,17.292,206.725,17.851z"/>
				<path style="fill:#476268;" d="M212.98,15.833v0.169c0.245-0.324,0.513-0.561,0.804-0.713c0.291-0.151,0.625-0.227,1.003-0.227
					c0.368,0,0.696,0.08,0.986,0.241c0.289,0.16,0.506,0.386,0.648,0.678c0.092,0.17,0.152,0.355,0.179,0.552
					c0.027,0.198,0.042,0.45,0.042,0.756v2.594c0,0.279-0.064,0.491-0.192,0.634c-0.127,0.143-0.294,0.214-0.498,0.214
					c-0.208,0-0.376-0.073-0.505-0.219c-0.13-0.146-0.194-0.356-0.194-0.629V17.56c0-0.46-0.064-0.812-0.192-1.055
					c-0.128-0.243-0.382-0.366-0.764-0.366c-0.248,0-0.475,0.074-0.679,0.223c-0.204,0.149-0.354,0.352-0.449,0.61
					c-0.068,0.208-0.102,0.596-0.102,1.164v1.747c0,0.283-0.066,0.495-0.197,0.637c-0.131,0.141-0.3,0.212-0.508,0.212
					c-0.201,0-0.366-0.073-0.496-0.219c-0.129-0.146-0.194-0.356-0.194-0.629v-4.029c0-0.266,0.058-0.464,0.174-0.596
					c0.116-0.131,0.274-0.196,0.475-0.196c0.123,0,0.233,0.029,0.333,0.087c0.098,0.058,0.178,0.144,0.237,0.26
					C212.95,15.525,212.98,15.667,212.98,15.833z"/>
				<path style="fill:#476268;" d="M221.462,18.239h-2.727c0.004,0.316,0.067,0.596,0.192,0.837
					c0.124,0.242,0.289,0.424,0.496,0.547c0.205,0.123,0.433,0.183,0.681,0.183c0.167,0,0.319-0.019,0.458-0.058
					c0.137-0.04,0.271-0.1,0.401-0.185c0.129-0.083,0.248-0.172,0.358-0.268c0.108-0.096,0.249-0.225,0.423-0.389
					c0.071-0.061,0.173-0.092,0.307-0.092c0.143,0,0.259,0.04,0.347,0.118c0.088,0.079,0.133,0.189,0.133,0.332
					c0,0.126-0.049,0.272-0.148,0.441c-0.099,0.168-0.247,0.33-0.447,0.485c-0.2,0.155-0.449,0.283-0.75,0.385
					c-0.301,0.103-0.648,0.153-1.04,0.153c-0.895,0-1.591-0.256-2.089-0.766c-0.496-0.51-0.745-1.204-0.745-2.078
					c0-0.413,0.062-0.795,0.184-1.146c0.122-0.353,0.302-0.655,0.537-0.907c0.235-0.252,0.524-0.445,0.868-0.58
					c0.344-0.134,0.726-0.201,1.144-0.201c0.545,0,1.012,0.114,1.401,0.344c0.39,0.229,0.682,0.527,0.877,0.891
					c0.194,0.364,0.291,0.736,0.291,1.113c0,0.351-0.1,0.578-0.301,0.683C222.109,18.187,221.827,18.239,221.462,18.239z
					 M218.735,17.447h2.528c-0.034-0.477-0.163-0.833-0.386-1.07c-0.223-0.237-0.517-0.355-0.881-0.355
					c-0.348,0-0.633,0.12-0.856,0.36C218.917,16.622,218.783,16.978,218.735,17.447z"/>
				<path style="fill:#476268;" d="M227.145,19.935v-0.138c-0.187,0.214-0.372,0.389-0.554,0.523
					c-0.182,0.135-0.379,0.237-0.592,0.307c-0.212,0.071-0.445,0.105-0.697,0.105c-0.334,0-0.643-0.07-0.927-0.212
					c-0.285-0.142-0.531-0.344-0.738-0.605c-0.208-0.262-0.365-0.57-0.472-0.924c-0.107-0.354-0.161-0.737-0.161-1.149
					c0-0.872,0.213-1.552,0.638-2.039c0.426-0.486,0.986-0.73,1.681-0.73c0.401,0,0.74,0.069,1.016,0.207
					c0.276,0.138,0.545,0.351,0.807,0.636v-2.058c0-0.286,0.057-0.502,0.171-0.648c0.114-0.146,0.277-0.22,0.488-0.22
					c0.211,0,0.374,0.067,0.488,0.202c0.114,0.135,0.171,0.332,0.171,0.595v6.149c0,0.266-0.061,0.464-0.184,0.598
					c-0.123,0.132-0.281,0.199-0.475,0.199c-0.19,0-0.348-0.069-0.473-0.207C227.207,20.386,227.145,20.19,227.145,19.935z
					 M224.403,17.887c0,0.378,0.058,0.699,0.176,0.965c0.118,0.266,0.278,0.466,0.483,0.6c0.204,0.135,0.427,0.203,0.669,0.203
					c0.245,0,0.469-0.064,0.671-0.192c0.203-0.127,0.365-0.324,0.485-0.587c0.121-0.264,0.182-0.594,0.182-0.988
					c0-0.372-0.061-0.691-0.182-0.958c-0.121-0.267-0.284-0.471-0.49-0.613c-0.207-0.141-0.432-0.211-0.677-0.211
					c-0.255,0-0.483,0.072-0.685,0.217c-0.2,0.144-0.356,0.352-0.467,0.622C224.458,17.215,224.403,17.529,224.403,17.887z"/>
				<path style="fill:#476268;" d="M232.844,13.785v2.129c0.262-0.272,0.529-0.481,0.802-0.626c0.272-0.144,0.609-0.217,1.011-0.217
					c0.463,0,0.869,0.11,1.218,0.329c0.348,0.22,0.619,0.539,0.812,0.955c0.192,0.417,0.289,0.912,0.289,1.484
					c0,0.422-0.054,0.809-0.161,1.162c-0.107,0.352-0.264,0.658-0.468,0.917c-0.205,0.259-0.452,0.459-0.743,0.601
					c-0.292,0.141-0.612,0.212-0.963,0.212c-0.215,0-0.417-0.025-0.605-0.077c-0.189-0.051-0.351-0.118-0.483-0.202
					c-0.132-0.083-0.246-0.169-0.339-0.258c-0.094-0.088-0.218-0.222-0.371-0.398v0.138c0,0.262-0.063,0.46-0.189,0.595
					c-0.126,0.134-0.286,0.201-0.48,0.201c-0.198,0-0.355-0.067-0.473-0.201c-0.118-0.135-0.176-0.333-0.176-0.595v-6.088
					c0-0.282,0.057-0.496,0.17-0.641c0.114-0.144,0.274-0.217,0.478-0.217c0.214,0,0.379,0.069,0.495,0.207
					C232.786,13.334,232.844,13.53,232.844,13.785z M232.911,17.927c0,0.555,0.127,0.981,0.38,1.279
					c0.253,0.298,0.586,0.448,0.999,0.448c0.35,0,0.653-0.152,0.906-0.457c0.253-0.305,0.38-0.742,0.38-1.31
					c0-0.368-0.052-0.685-0.158-0.95c-0.106-0.266-0.255-0.471-0.449-0.615c-0.194-0.145-0.421-0.217-0.68-0.217
					c-0.266,0-0.503,0.072-0.71,0.217c-0.208,0.144-0.371,0.354-0.491,0.628C232.97,17.223,232.911,17.549,232.911,17.927z"/>
				<path style="fill:#476268;" d="M238.784,20.905l0.127-0.312l-1.716-4.32c-0.106-0.248-0.159-0.429-0.159-0.541
					c0-0.119,0.031-0.229,0.092-0.332c0.061-0.102,0.145-0.184,0.252-0.245c0.107-0.062,0.219-0.092,0.335-0.092
					c0.201,0,0.352,0.064,0.455,0.191c0.103,0.128,0.192,0.311,0.271,0.549l1.18,3.432l1.119-3.192
					c0.088-0.258,0.168-0.461,0.24-0.608c0.071-0.146,0.147-0.245,0.227-0.295c0.08-0.051,0.193-0.077,0.34-0.077
					c0.106,0,0.207,0.028,0.304,0.084c0.097,0.056,0.171,0.132,0.224,0.227c0.053,0.095,0.08,0.195,0.08,0.301
					c-0.014,0.064-0.036,0.156-0.066,0.276c-0.031,0.119-0.068,0.24-0.112,0.362l-1.818,4.76c-0.157,0.418-0.311,0.747-0.46,0.985
					c-0.15,0.238-0.348,0.422-0.595,0.549c-0.247,0.128-0.58,0.191-0.998,0.191c-0.408,0-0.715-0.044-0.919-0.132
					c-0.205-0.089-0.307-0.251-0.307-0.486c0-0.16,0.048-0.284,0.145-0.37c0.097-0.086,0.241-0.131,0.431-0.131
					c0.075,0,0.149,0.011,0.22,0.032c0.088,0.02,0.165,0.03,0.229,0.03c0.16,0,0.286-0.023,0.378-0.072
					c0.092-0.047,0.174-0.13,0.248-0.248C238.603,21.306,238.688,21.133,238.784,20.905z"/>
			</g>
			<g>
				<path style="fill:#476268;" d="M258.981,15.183h0.332v-0.418c0-0.438,0.054-0.783,0.165-1.042
					c0.109-0.257,0.299-0.444,0.563-0.562c0.264-0.117,0.626-0.175,1.085-0.175c0.817,0,1.222,0.197,1.222,0.599
					c0,0.128-0.043,0.239-0.129,0.33c-0.083,0.091-0.185,0.138-0.3,0.138c-0.054,0-0.149-0.01-0.284-0.032
					c-0.127-0.018-0.243-0.03-0.335-0.03c-0.251,0-0.412,0.076-0.486,0.223c-0.068,0.148-0.105,0.36-0.105,0.637v0.332h0.341
					c0.533,0,0.796,0.16,0.796,0.481c0,0.226-0.067,0.372-0.211,0.433c-0.141,0.061-0.335,0.092-0.585,0.092h-0.341v3.694
					c0,0.275-0.064,0.484-0.198,0.628c-0.13,0.146-0.298,0.218-0.507,0.218c-0.197,0-0.36-0.072-0.493-0.218
					c-0.132-0.144-0.196-0.354-0.196-0.628v-3.694h-0.384c-0.209,0-0.367-0.045-0.48-0.141c-0.112-0.092-0.169-0.214-0.169-0.364
					C258.28,15.348,258.514,15.183,258.981,15.183"/>
				<path style="fill:#476268;" d="M263.546,18.718v1.166c0,0.282-0.071,0.494-0.201,0.634c-0.133,0.143-0.3,0.212-0.504,0.212
					c-0.205,0-0.37-0.07-0.498-0.215c-0.127-0.142-0.194-0.353-0.194-0.631V16c0-0.627,0.226-0.94,0.678-0.94
					c0.233,0,0.4,0.072,0.502,0.219c0.103,0.147,0.159,0.362,0.171,0.649c0.166-0.287,0.336-0.502,0.51-0.649
					c0.179-0.147,0.41-0.219,0.704-0.219c0.296,0,0.577,0.072,0.853,0.219c0.277,0.147,0.415,0.342,0.415,0.583
					c0,0.169-0.06,0.312-0.176,0.42c-0.118,0.112-0.244,0.167-0.379,0.167c-0.054,0-0.179-0.034-0.373-0.097
					c-0.196-0.061-0.37-0.093-0.518-0.093c-0.204,0-0.372,0.055-0.501,0.16c-0.13,0.11-0.231,0.267-0.304,0.477
					c-0.069,0.212-0.117,0.465-0.146,0.755C263.558,17.944,263.546,18.299,263.546,18.718"/>
				<path style="fill:#476268;" d="M269.956,18.238h-2.729c0.005,0.316,0.066,0.597,0.191,0.838c0.127,0.24,0.291,0.423,0.497,0.547
					c0.207,0.122,0.433,0.183,0.683,0.183c0.167,0,0.318-0.018,0.457-0.06c0.136-0.038,0.272-0.1,0.4-0.184
					c0.13-0.082,0.247-0.171,0.357-0.268c0.108-0.094,0.251-0.224,0.425-0.387c0.072-0.061,0.174-0.093,0.306-0.093
					c0.143,0,0.259,0.04,0.349,0.119c0.089,0.079,0.131,0.188,0.131,0.332c0,0.127-0.048,0.273-0.144,0.441
					c-0.102,0.17-0.249,0.331-0.45,0.487c-0.2,0.153-0.45,0.283-0.751,0.384c-0.301,0.102-0.648,0.154-1.039,0.154
					c-0.898,0-1.594-0.254-2.09-0.765c-0.496-0.512-0.748-1.205-0.748-2.08c0-0.412,0.064-0.795,0.187-1.147
					c0.121-0.354,0.3-0.654,0.538-0.908c0.233-0.253,0.521-0.445,0.866-0.58c0.343-0.134,0.725-0.201,1.145-0.201
					c0.544,0,1.012,0.115,1.401,0.347c0.39,0.227,0.685,0.525,0.876,0.89c0.194,0.366,0.291,0.735,0.291,1.115
					c0,0.349-0.101,0.575-0.302,0.681C270.602,18.185,270.32,18.238,269.956,18.238 M267.227,17.445h2.528
					c-0.034-0.476-0.161-0.833-0.385-1.068c-0.225-0.238-0.516-0.355-0.882-0.355c-0.347,0-0.633,0.118-0.855,0.359
					C267.411,16.622,267.274,16.976,267.227,17.445"/>
				<path style="fill:#476268;" d="M275.756,18.238h-2.728c0.003,0.316,0.067,0.597,0.19,0.838c0.125,0.24,0.29,0.423,0.495,0.547
					c0.206,0.122,0.434,0.183,0.684,0.183c0.166,0,0.319-0.018,0.454-0.06c0.14-0.038,0.272-0.1,0.403-0.184
					c0.131-0.082,0.248-0.171,0.357-0.268c0.107-0.094,0.249-0.224,0.424-0.387c0.072-0.061,0.176-0.093,0.306-0.093
					c0.145,0,0.26,0.04,0.35,0.119c0.089,0.079,0.129,0.188,0.129,0.332c0,0.127-0.047,0.273-0.146,0.441
					c-0.096,0.17-0.245,0.331-0.446,0.487c-0.199,0.153-0.452,0.283-0.751,0.384c-0.3,0.102-0.65,0.154-1.04,0.154
					c-0.896,0-1.591-0.254-2.09-0.765c-0.497-0.512-0.747-1.205-0.747-2.08c0-0.412,0.063-0.795,0.188-1.147
					c0.122-0.354,0.301-0.654,0.535-0.908c0.234-0.253,0.523-0.445,0.868-0.58c0.343-0.134,0.727-0.201,1.145-0.201
					c0.543,0,1.01,0.115,1.405,0.347c0.388,0.227,0.681,0.525,0.872,0.89c0.193,0.366,0.293,0.735,0.293,1.115
					c0,0.349-0.104,0.575-0.302,0.681C276.401,18.185,276.119,18.238,275.756,18.238 M273.028,17.445h2.528
					c-0.034-0.476-0.164-0.833-0.385-1.068c-0.227-0.238-0.518-0.355-0.883-0.355c-0.348,0-0.633,0.118-0.858,0.359
					C273.21,16.622,273.073,16.976,273.028,17.445"/>
				<path style="fill:#476268;" d="M278.81,15.844v0.167c0.261-0.323,0.534-0.56,0.819-0.712c0.279-0.153,0.602-0.23,0.958-0.23
					c0.428,0,0.826,0.112,1.188,0.332c0.36,0.223,0.643,0.546,0.853,0.971c0.21,0.428,0.315,0.93,0.315,1.513
					c0,0.428-0.06,0.824-0.181,1.184c-0.12,0.359-0.289,0.66-0.499,0.903c-0.212,0.242-0.46,0.431-0.747,0.563
					c-0.292,0.129-0.598,0.195-0.93,0.195c-0.397,0-0.733-0.08-1.003-0.241c-0.271-0.157-0.528-0.394-0.775-0.702v2.093
					c0,0.611-0.224,0.919-0.669,0.919c-0.264,0-0.436-0.079-0.523-0.236c-0.082-0.161-0.126-0.389-0.126-0.694v-6.019
					c0-0.266,0.058-0.462,0.172-0.595c0.116-0.129,0.275-0.196,0.477-0.196c0.198,0,0.357,0.067,0.481,0.201
					C278.749,15.397,278.81,15.588,278.81,15.844 M281.544,17.87c0-0.368-0.058-0.684-0.169-0.948
					c-0.112-0.265-0.269-0.466-0.466-0.607c-0.197-0.141-0.421-0.213-0.663-0.213c-0.384,0-0.709,0.153-0.973,0.454
					c-0.265,0.305-0.397,0.75-0.397,1.341c0,0.552,0.132,0.986,0.395,1.294c0.263,0.308,0.584,0.462,0.975,0.462
					c0.23,0,0.446-0.068,0.645-0.2c0.199-0.136,0.357-0.337,0.475-0.606C281.484,18.576,281.544,18.25,281.544,17.87"/>
				<path style="fill:#476268;" d="M284.349,14.41c-0.195,0-0.359-0.061-0.496-0.18c-0.14-0.12-0.209-0.286-0.209-0.503
					c0-0.198,0.07-0.36,0.214-0.489c0.141-0.126,0.304-0.191,0.491-0.191c0.183,0,0.342,0.058,0.48,0.172
					c0.14,0.118,0.21,0.287,0.21,0.509c0,0.215-0.068,0.382-0.203,0.503C284.699,14.349,284.537,14.41,284.349,14.41
					 M285.039,15.851v4.034c0,0.277-0.066,0.489-0.199,0.63c-0.134,0.145-0.301,0.215-0.506,0.215c-0.205,0-0.368-0.072-0.499-0.218
					c-0.126-0.149-0.191-0.358-0.191-0.627v-3.994c0-0.274,0.065-0.481,0.191-0.621c0.131-0.143,0.294-0.21,0.499-0.21
					c0.205,0,0.372,0.068,0.506,0.21C284.973,15.41,285.039,15.604,285.039,15.851"/>
				<path style="fill:#476268;" d="M289.534,20.093l-1.228-2.024l-0.757,0.714v1.111c0,0.268-0.071,0.474-0.214,0.618
					c-0.138,0.146-0.305,0.218-0.487,0.218c-0.214,0-0.384-0.07-0.506-0.215c-0.121-0.142-0.185-0.353-0.185-0.631v-5.949
					c0-0.308,0.062-0.543,0.179-0.706c0.119-0.164,0.293-0.243,0.512-0.243c0.215,0,0.384,0.073,0.511,0.221
					c0.126,0.145,0.19,0.362,0.19,0.646v3.384l1.567-1.646c0.195-0.202,0.341-0.345,0.445-0.418c0.102-0.075,0.225-0.112,0.37-0.112
					c0.176,0,0.319,0.056,0.439,0.165c0.113,0.111,0.173,0.251,0.173,0.416c0,0.204-0.191,0.478-0.567,0.818l-0.74,0.679l1.43,2.249
					c0.104,0.169,0.183,0.293,0.228,0.38c0.046,0.085,0.07,0.171,0.07,0.248c0,0.222-0.061,0.395-0.184,0.525
					c-0.121,0.127-0.281,0.19-0.477,0.19c-0.17,0-0.303-0.043-0.394-0.138C289.817,20.5,289.689,20.333,289.534,20.093"/>
				<path style="fill:#476268;" d="M292.564,20.73c-0.211,0-0.392-0.068-0.545-0.205c-0.153-0.134-0.23-0.325-0.23-0.572
					c0-0.207,0.073-0.386,0.22-0.535c0.148-0.15,0.327-0.225,0.542-0.225c0.214,0,0.396,0.075,0.55,0.222
					c0.15,0.148,0.228,0.329,0.228,0.538c0,0.243-0.077,0.435-0.228,0.57C292.946,20.662,292.768,20.73,292.564,20.73"/>
				<path style="fill:#476268;" d="M299.5,19.004c0,0.172-0.052,0.359-0.156,0.556c-0.104,0.199-0.263,0.386-0.477,0.564
					c-0.212,0.179-0.479,0.324-0.804,0.432c-0.323,0.109-0.688,0.165-1.092,0.165c-0.864,0-1.537-0.253-2.02-0.754
					c-0.482-0.503-0.724-1.177-0.724-2.021c0-0.574,0.109-1.079,0.333-1.519c0.219-0.438,0.539-0.778,0.957-1.018
					c0.42-0.241,0.923-0.36,1.503-0.36c0.362,0,0.692,0.053,0.996,0.159c0.301,0.105,0.555,0.243,0.766,0.408
					c0.208,0.17,0.369,0.346,0.478,0.534c0.111,0.189,0.166,0.366,0.166,0.531c0,0.165-0.062,0.307-0.185,0.423
					c-0.127,0.116-0.277,0.174-0.451,0.174c-0.118,0-0.214-0.03-0.291-0.089c-0.077-0.06-0.164-0.156-0.258-0.292
					c-0.17-0.257-0.347-0.453-0.535-0.58c-0.185-0.131-0.42-0.195-0.706-0.195c-0.41,0-0.744,0.16-0.997,0.482
					c-0.251,0.32-0.378,0.764-0.378,1.32c0,0.263,0.034,0.505,0.099,0.725c0.063,0.219,0.156,0.406,0.279,0.562
					c0.124,0.154,0.272,0.271,0.444,0.352c0.175,0.083,0.366,0.122,0.572,0.122c0.28,0,0.52-0.065,0.719-0.194
					c0.202-0.13,0.378-0.327,0.53-0.593c0.085-0.157,0.176-0.278,0.273-0.368c0.099-0.088,0.22-0.134,0.363-0.134
					c0.17,0,0.313,0.066,0.423,0.195C299.442,18.719,299.5,18.858,299.5,19.004"/>
				<path style="fill:#476268;" d="M305.517,17.896c0,0.414-0.065,0.798-0.19,1.15c-0.133,0.351-0.318,0.652-0.565,0.903
					c-0.245,0.252-0.539,0.445-0.878,0.581c-0.344,0.133-0.726,0.202-1.149,0.202c-0.423,0-0.804-0.069-1.141-0.206
					c-0.335-0.134-0.63-0.33-0.875-0.582c-0.247-0.256-0.435-0.556-0.565-0.902c-0.123-0.346-0.189-0.728-0.189-1.146
					c0-0.423,0.066-0.81,0.193-1.161c0.13-0.352,0.316-0.651,0.559-0.899c0.242-0.248,0.533-0.439,0.877-0.575
					c0.346-0.134,0.725-0.201,1.141-0.201c0.421,0,0.805,0.067,1.149,0.205c0.343,0.135,0.636,0.331,0.884,0.58
					c0.246,0.255,0.432,0.554,0.56,0.899C305.452,17.094,305.517,17.475,305.517,17.896 M304.117,17.896
					c0-0.569-0.126-1.011-0.376-1.328c-0.249-0.32-0.586-0.477-1.007-0.477c-0.273,0-0.514,0.071-0.723,0.211
					c-0.208,0.141-0.366,0.349-0.478,0.626c-0.112,0.276-0.169,0.599-0.169,0.967c0,0.365,0.055,0.682,0.166,0.954
					c0.112,0.274,0.271,0.482,0.477,0.627c0.207,0.143,0.449,0.217,0.728,0.217c0.421,0,0.758-0.159,1.007-0.479
					C303.991,18.897,304.117,18.456,304.117,17.896"/>
				<path style="fill:#476268;" d="M310.836,17.998v1.854c0,0.294-0.064,0.511-0.199,0.66c-0.134,0.146-0.307,0.219-0.525,0.219
					c-0.211,0-0.384-0.073-0.511-0.219c-0.134-0.149-0.2-0.366-0.2-0.66V17.63c0-0.352-0.012-0.625-0.034-0.82
					c-0.025-0.19-0.091-0.352-0.195-0.475c-0.105-0.126-0.273-0.189-0.5-0.189c-0.458,0-0.757,0.156-0.901,0.474
					c-0.145,0.31-0.219,0.76-0.219,1.348v1.883c0,0.289-0.065,0.509-0.194,0.658c-0.134,0.147-0.305,0.222-0.518,0.222
					c-0.213,0-0.386-0.075-0.521-0.222c-0.135-0.149-0.202-0.369-0.202-0.658v-3.989c0-0.263,0.061-0.463,0.181-0.598
					c0.123-0.138,0.283-0.205,0.478-0.205c0.191,0,0.35,0.066,0.479,0.191c0.127,0.128,0.19,0.305,0.19,0.529v0.132
					c0.243-0.288,0.502-0.501,0.776-0.635c0.277-0.14,0.582-0.208,0.921-0.208c0.351,0,0.651,0.07,0.902,0.21
					c0.253,0.14,0.459,0.352,0.624,0.633c0.236-0.284,0.488-0.496,0.758-0.635c0.268-0.138,0.566-0.208,0.893-0.208
					c0.38,0,0.711,0.077,0.986,0.225c0.274,0.15,0.48,0.366,0.617,0.643c0.118,0.254,0.178,0.65,0.178,1.192v2.722
					c0,0.294-0.065,0.511-0.197,0.66c-0.133,0.146-0.31,0.219-0.527,0.219c-0.212,0-0.384-0.075-0.519-0.222
					c-0.135-0.149-0.202-0.369-0.202-0.658v-2.345c0-0.3-0.013-0.539-0.037-0.719c-0.025-0.182-0.096-0.333-0.206-0.456
					c-0.114-0.122-0.285-0.184-0.513-0.184c-0.184,0-0.358,0.057-0.523,0.165c-0.165,0.107-0.294,0.256-0.388,0.437
					C310.889,16.985,310.836,17.401,310.836,17.998"/>
			</g>
			<g>
				<path style="fill:#476268;" d="M245.932,17.558c-0.001-0.002-0.001-0.005-0.001-0.009
					C245.931,17.553,245.931,17.556,245.932,17.558z"/>
				<path style="fill:#476268;" d="M246.002,18.004c0.001,0,0.001,0,0.001,0c-0.026-0.127-0.047-0.253-0.064-0.377
					C245.956,17.752,245.977,17.878,246.002,18.004z"/>
				<path style="fill:#476268;" d="M246.464,19.298c-0.003-0.005-0.006-0.011-0.009-0.018
					C246.458,19.287,246.461,19.292,246.464,19.298z"/>
				<path style="fill:#476268;" d="M246.42,19.212c-0.012-0.024-0.023-0.048-0.035-0.072
					C246.396,19.165,246.408,19.188,246.42,19.212z"/>
				<path style="fill:#476268;" d="M246.132,18.502c0.068,0.215,0.15,0.424,0.246,0.623c-0.097-0.203-0.177-0.412-0.244-0.623
					H246.132z"/>
				<path style="fill:#476268;" d="M251.329,12.215c0.27,0,0.469,0.022,0.696,0.06l0.065-0.41c0,0-0.63-0.194-1.458-0.126
					l-0.065-0.223c0.257-0.054,0.451-0.283,0.451-0.556c0-0.313-0.255-0.567-0.568-0.567c-0.314,0-0.568,0.254-0.568,0.567
					c0,0.273,0.193,0.502,0.45,0.556l0.072,0.248c-0.879,0.121-1.578,0.464-1.578,0.464l0.124,0.379
					c0.532-0.177,0.993-0.284,1.411-0.33C250.77,12.234,251.078,12.215,251.329,12.215z"/>
				<path style="fill:#476268;" d="M246.454,14.29l0.003-0.004c0.02-0.027,0.041-0.052,0.061-0.077l-0.168-0.121l-0.262-0.191
					c-0.015,0.02-0.428,0.4-0.754,1.101c-0.014-0.023-0.03-0.044-0.048-0.064c-0.098-0.106-0.234-0.161-0.408-0.158
					c-0.002,0-0.005,0-0.008,0c-0.107,0-0.181-0.036-0.229-0.08c0.048-0.061,0.077-0.137,0.077-0.222c0-0.198-0.161-0.36-0.36-0.36
					c-0.198,0-0.359,0.162-0.359,0.36c0,0.199,0.161,0.359,0.359,0.359c0.031,0,0.061-0.005,0.09-0.011
					c0.088,0.099,0.229,0.184,0.434,0.18c0.106-0.001,0.183,0.026,0.235,0.083c0.06,0.066,0.08,0.159,0.085,0.23
					c0,0.002,0,0.003-0.001,0.003c-0.234,0.64-0.167,1.436-0.167,1.436l0.568,0.022c0.011-0.29,0.053-0.797,0.2-1.199
					C246.085,14.798,246.439,14.311,246.454,14.29z"/>
				<path style="fill:#476268;" d="M256.276,12.69c-0.198,0-0.36,0.161-0.36,0.36c0,0.031,0.005,0.061,0.013,0.089
					c-0.099,0.089-0.185,0.23-0.181,0.436c0.001,0.106-0.026,0.183-0.083,0.235c-0.046,0.04-0.104,0.062-0.159,0.076
					c-0.424-0.593-0.944-0.955-0.944-0.955l-0.408,0.438c0.309,0.28,0.623,0.631,0.93,1.07c0.212,0.303,0.43,0.694,0.61,1.083
					l0.551-0.262c0,0-0.251-0.621-0.605-1.178c0.062-0.021,0.124-0.055,0.179-0.104c0.107-0.097,0.16-0.235,0.157-0.407
					c-0.001-0.112,0.036-0.188,0.08-0.237c0.061,0.046,0.138,0.077,0.222,0.077c0.199,0,0.359-0.161,0.359-0.36
					C256.636,12.851,256.476,12.69,256.276,12.69z"/>
				<path style="fill:#476268;" d="M254.848,17.639c-0.758,0.369-2.005,0.857-3.646,1.086c-0.645,0.089-1.269,0.122-1.844,0.122
					c-0.747,0-1.409-0.056-1.915-0.12c-0.579-0.073-1.031-0.162-1.308-0.225c0.066,0.211,0.147,0.42,0.244,0.623
					c0.002,0.005,0.004,0.011,0.007,0.015c0.012,0.024,0.023,0.048,0.035,0.072c0.012,0.023,0.023,0.047,0.035,0.068
					c0.003,0.006,0.006,0.012,0.009,0.018c0.163,0.307,0.358,0.589,0.581,0.833c0.774,0.847,1.563,0.981,1.57,0.982l0.012,0.001
					l0.012,0.004c0.007,0.002,0.707,0.228,1.77,0.228c1.045,0,2.073-0.211,3.05-0.628c0.725-0.371,1.41-0.934,1.75-1.435
					c0.263-0.389,0.452-0.803,0.564-1.233c0.06-0.229,0.107-0.596,0.079-0.982C255.641,17.212,255.304,17.417,254.848,17.639z"/>
				<path style="fill:#476268;" d="M246.697,14.47c-0.023,0.032-0.351,0.497-0.611,1.212c-0.194,0.535-0.186,1.314-0.186,1.323
					v0.001c0,0.183,0.01,0.364,0.03,0.543c0,0.004,0,0.007,0.001,0.009c0.003,0.023,0.006,0.045,0.008,0.068
					c0.016,0.125,0.037,0.251,0.064,0.377c0.376,0.096,2.623,0.62,5.134,0.27c1.573-0.219,2.769-0.684,3.494-1.036
					c0.603-0.293,0.99-0.557,1.14-0.666c-0.148-0.553-0.56-1.42-0.937-1.961c-1.078-1.541-2.241-1.936-2.838-2.034
					c-0.228-0.037-0.41-0.058-0.669-0.058c-0.24,0-0.539,0.019-0.937,0.061c-0.399,0.042-0.845,0.146-1.361,0.32
					c-0.725,0.243-1.381,0.623-1.896,1.102l-0.018,0.016C247.04,14.088,246.88,14.236,246.697,14.47z M253.295,14.111
					c0.517,0,0.936,0.42,0.936,0.938c0,0.517-0.42,0.938-0.936,0.938c-0.518,0-0.938-0.421-0.938-0.938
					C252.357,14.531,252.777,14.111,253.295,14.111z M248.863,14.074c0.837,0,1.515,0.678,1.515,1.515
					c0,0.837-0.678,1.514-1.515,1.514c-0.836,0-1.514-0.677-1.514-1.514C247.349,14.752,248.027,14.074,248.863,14.074z"/>
			</g>
		</g>
	</g>
</g>
</svg>
