<?xml version="1.0" encoding="iso-8859-1"?>
<!-- Uploaded to: SVG Repo, www.svgrepo.com, Generator: SVG Repo Mixer Tools -->
<svg height="800px" width="800px" version="1.1" id="Layer_1" xmlns="http://www.w3.org/2000/svg" xmlns:xlink="http://www.w3.org/1999/xlink" 
	 viewBox="0 0 511.984 511.984" xml:space="preserve">
<g>
	<path style="fill:#F6BB42;" d="M151.527,216.984l-0.031-54.608h-36.14l0.125,54.608c0,0-18.015,188.456-18.015,252.393
		c0,21.312,9,42.607,36.03,42.607s36.046-21.296,36.046-42.607C169.542,405.44,151.527,216.984,151.527,216.984z"/>
	<path style="fill:#F6BB42;" d="M286.68,216.984l-0.031-54.608h-36.14l0.125,54.608c0,0-18.015,188.456-18.015,252.393
		c0,21.312,9,42.607,36.031,42.607c27.03,0,36.045-21.296,36.045-42.607C304.694,405.44,286.68,216.984,286.68,216.984z"/>
	<path style="fill:#F6BB42;" d="M407.723,238.296h-31.608c0,0-15.671,167.145-15.671,231.081c0,21.312,10.733,42.607,31.529,42.607
		c20.812,0,31.547-21.296,31.547-42.607C423.52,405.44,407.723,238.296,407.723,238.296z"/>
</g>
<g>
	<path style="fill:#FFCE54;" d="M103.84,7.005c-3.531-4.156-9.218-4.156-12.75,0c-1.766,2.078-2.625,4.812-2.625,7.531l0,0v95.888
		h18V14.536l0,0C106.465,11.817,105.59,9.083,103.84,7.005z"/>
	<path style="fill:#FFCE54;" d="M139.871,7.005c-3.516-4.156-9.219-4.156-12.734,0c-1.766,2.078-2.641,4.812-2.641,7.531l0,0v95.888
		h18.015V14.536l0,0C142.511,11.817,141.636,9.083,139.871,7.005z"/>
	<path style="fill:#FFCE54;" d="M178.557,14.536c0-2.719-0.891-5.453-2.641-7.531c-3.516-4.156-9.234-4.156-12.734,0
		c-1.766,2.078-2.656,4.812-2.656,7.531l0,0v95.888h18.031V14.536L178.557,14.536z"/>
	<path style="fill:#FFCE54;" d="M178.557,174.36c0,0-22.531,21.312-45.062,21.312c-22.515,0-45.03-21.312-45.03-21.312v-63.936
		h90.092V174.36z"/>
	<path style="fill:#FFCE54;" d="M322.725,118.955c0,52.968-24.218,76.717-54.076,76.717c-29.843,0-54.046-23.749-54.046-76.717
		c0-52.967,24.203-115.075,54.046-115.075C298.508,3.88,322.725,65.988,322.725,118.955z"/>
	<path style="fill:#FFCE54;" d="M355.944,238.296l17.89,21.297h36.14l0.031-253.838C410.005,5.755,355.944-57.915,355.944,238.296z"
		/>
</g>
<g style="opacity:0.2;">
	<path style="fill:#FFFFFF;" d="M407.458,3.427c-10.703-8.188-51.514-22.468-51.514,234.869l17.89,21.297h18.03l-17.905-21.297
		C373.959,66.378,392.161,15.692,407.458,3.427z"/>
</g>
<path style="fill:#FFCE54;" d="M410.005,259.593c-0.016,0-0.016,0-0.016,0l0,0h-36.015l0,0c0,0,0,0-0.016,0
	c-4.984,0-9.016,4.781-9.016,10.655c0,5.898,4.031,10.664,9.016,10.664c0.016,0,0.016,0,0.016,0l0,0h36.015l0,0c0,0,0,0,0.016,0
	c4.969,0,9.016-4.766,9.016-10.664C419.02,264.374,414.973,259.593,410.005,259.593z"/>
</svg>