<?xml version="1.0" encoding="utf-8"?><!-- Uploaded to: SVG Repo, www.svgrepo.com, Generator: SVG Repo Mixer Tools -->
<svg fill="#000000" width="800px" height="800px" viewBox="0 0 24 24" id="desk" data-name="Flat Color" xmlns="http://www.w3.org/2000/svg" class="icon flat-color"><path id="secondary" d="M20,19a1,1,0,0,1-1-1V16a1,1,0,0,1,2,0v2A1,1,0,0,1,20,19Zm-7-1V16a1,1,0,0,0-2,0v2a1,1,0,0,0,2,0Z" style="fill: rgb(44, 169, 188);"></path><path id="primary" d="M20,5H12a1,1,0,0,0-1,1V17H21V6A1,1,0,0,0,20,5Z" style="fill: rgb(0, 0, 0);"></path><path id="secondary-2" data-name="secondary" d="M22,6a1,1,0,0,1-1,1H5V18a1,1,0,0,1-2,0V7A1,1,0,0,1,3,5H21A1,1,0,0,1,22,6ZM11,13H21V11H11Z" style="fill: rgb(44, 169, 188);"></path></svg>