<?xml version="1.0" encoding="iso-8859-1"?>
<!-- Uploaded to: SVG Repo, www.svgrepo.com, Generator: SVG Repo Mixer Tools -->
<svg height="800px" width="800px" version="1.1" id="Layer_1" xmlns="http://www.w3.org/2000/svg" xmlns:xlink="http://www.w3.org/1999/xlink" 
	 viewBox="0 0 496.2 496.2" xml:space="preserve">
<path style="fill:#E04F5F;" d="M0,248.1c0,137,111.1,248.1,248.1,248.1s248.1-111.1,248.1-248.1S385.1,0,248.1,0S0,111.1,0,248.1z"
	/>
<path style="fill:#4FA4A8;" d="M269.9,78.5H227c-1.4,0-2.5,1.1-2.5,2.5v64.4c0,1.4,1.1,2.5,2.5,2.5h42.9c1.4,0,2.5-1.1,2.5-2.5V81.1
	C272.4,79.7,271.3,78.5,269.9,78.5z"/>
<path style="fill:#419199;" d="M278.1,113.3h-59.4c-1.4,0-2.5,1.1-2.5,2.5v29.7c0,1.4,1.1,2.5,2.5,2.5h59.4c1.4,0,2.5-1.1,2.5-2.5
	v-29.7C280.6,114.4,279.5,113.3,278.1,113.3z"/>
<path style="fill:#A3D5E0;" d="M311,295.1c-7.6-18.9-2.5-41.7-1.3-65.7c1.3-24-8.8-69.5-29-84.6h-27.2h-10.7h-27.2
	c-20.2,15.2-30.3,60.6-29,84.6s6.3,46.7-1.3,65.7c-18.7,46.8-3.8,122.5-3.8,122.5h61.3h10.7h61.3C314.7,417.7,329.7,342,311,295.1z"
	/>
<path style="fill:#48A1AF;" d="M243.3,236.4c0-42.3,32.8-72.5,32.8-72.5s-9.6-6.4-23.9-6.9c-13.9-0.4-25.5,3.5-29.8,6.9
	c-18.6,14.6-24,52.2-23,72.8s5,40.2-1,56.5c-14.8,40.3-3,105.4-3,105.4h48.1h9.2h48.1c0,0,6.6-36.6,3.7-71.9
	C303.5,314.9,243.3,291.4,243.3,236.4z"/>
<path style="fill:#EA4949;" d="M287.6,181.5c3.9,0,8.1,19.7,9.1,42.6c1.2,24.7-4.7,52.8-9.1,52.8c-7.9,0-27.2-9.5-27.2-42.9
	C260.4,200.4,283.6,181.5,287.6,181.5z"/>
<g>
	<path style="fill:#D3EFEF;" d="M220.3,366.8c0,3.4-2.4,4.5-5.3,4.5s-5.3-1.1-5.3-4.5s4.1-7.9,5.3-7.9S220.3,363.3,220.3,366.8z"/>
	<path style="fill:#D3EFEF;" d="M209.7,384.9c0-3.4,2.4-4.5,5.3-4.5s5.3,1.1,5.3,4.5s-4.1,7.9-5.3,7.9S209.7,388.4,209.7,384.9z"/>
	<path style="fill:#D3EFEF;" d="M225.5,375.7c-2.9,1.8-5.1,0.3-6.6-2.2s-1.8-5.1,1.2-6.9c2.9-1.8,8.9-0.6,9.5,0.4
		S228.5,373.9,225.5,375.7z"/>
	<path style="fill:#D3EFEF;" d="M204.5,376c2.9-1.8,5.1-0.3,6.6,2.2s1.8,5.1-1.2,6.9c-2.9,1.8-8.9,0.6-9.5-0.4
		C199.8,383.6,201.6,377.8,204.5,376z"/>
	<path style="fill:#D3EFEF;" d="M220.5,384.8c-3-1.6-2.9-4.2-1.5-6.8c1.4-2.6,3.5-4.1,6.5-2.5s5,7.3,4.4,8.4
		C229.4,385,223.5,386.4,220.5,384.8z"/>
	<path style="fill:#D3EFEF;" d="M209.5,366.9c3,1.6,2.9,4.2,1.5,6.8c-1.4,2.6-3.5,4.1-6.5,2.5s-5-7.3-4.4-8.4
		C200.6,366.7,206.5,365.3,209.5,366.9z"/>
</g>
<circle style="fill:#DDC137;" cx="215" cy="376.1" r="6"/>
<g>
	<path style="fill:#D3EFEF;" d="M215.5,334.9c0,2.6-1.8,3.5-4,3.5s-4-0.8-4-3.5c0-2.6,3.1-6,4-6
		C212.4,328.9,215.5,332.3,215.5,334.9z"/>
	<path style="fill:#D3EFEF;" d="M207.4,348.8c0-2.6,1.8-3.5,4-3.5s4,0.8,4,3.5c0,2.6-3.1,6-4,6C210.6,354.8,207.4,351.4,207.4,348.8
		z"/>
	<path style="fill:#D3EFEF;" d="M219.5,341.7c-2.3,1.4-3.9,0.2-5.1-1.7c-1.1-1.9-1.3-3.9,0.9-5.2c2.3-1.4,6.8-0.4,7.2,0.3
		C223.1,335.9,221.8,340.4,219.5,341.7z"/>
	<path style="fill:#D3EFEF;" d="M203.4,342c2.2-1.4,3.9-0.2,5.1,1.7c1.1,1.9,1.3,3.9-0.9,5.2c-2.3,1.4-6.8,0.4-7.2-0.3
		C199.9,347.8,201.2,343.3,203.4,342z"/>
	<path style="fill:#D3EFEF;" d="M215.7,348.7c-2.3-1.2-2.2-3.2-1.1-5.2c1.1-2,2.7-3.1,5-1.9s3.8,5.6,3.4,6.4
		C222.5,348.8,218,349.9,215.7,348.7z"/>
	<path style="fill:#D3EFEF;" d="M207.3,335c2.3,1.2,2.2,3.2,1.1,5.2c-1.1,2-2.7,3.1-5,1.9s-3.8-5.6-3.4-6.4
		C200.5,334.9,205,333.8,207.3,335z"/>
</g>
<circle style="fill:#DDC137;" cx="211.5" cy="342" r="4.6"/>
<g>
	<path style="fill:#D3EFEF;" d="M253.4,372.4c0,2.6-1.8,3.5-4,3.5s-4-0.8-4-3.5c0-2.6,3.1-6,4-6
		C250.2,366.3,253.4,369.7,253.4,372.4z"/>
	<path style="fill:#D3EFEF;" d="M245.3,386.3c0-2.6,1.8-3.5,4-3.5s4,0.8,4,3.5c0,2.6-3.1,6-4,6C248.4,392.3,245.3,388.9,245.3,386.3
		z"/>
	<path style="fill:#D3EFEF;" d="M257.4,379.2c-2.3,1.4-3.9,0.2-5.1-1.7c-1.1-1.9-1.3-3.9,0.9-5.2c2.3-1.4,6.8-0.4,7.2,0.3
		C260.9,373.4,259.6,377.8,257.4,379.2z"/>
	<path style="fill:#D3EFEF;" d="M241.3,379.5c2.2-1.4,3.9-0.2,5.1,1.7c1.1,1.9,1.3,3.9-0.9,5.2c-2.3,1.4-6.8,0.4-7.2-0.3
		C237.7,385.2,239.1,380.8,241.3,379.5z"/>
	<path style="fill:#D3EFEF;" d="M253.5,386.2c-2.3-1.2-2.2-3.2-1.1-5.2s2.7-3.1,5-1.9s3.8,5.6,3.4,6.4
		C260.3,386.3,255.8,387.4,253.5,386.2z"/>
	<path style="fill:#D3EFEF;" d="M245.1,372.5c2.3,1.2,2.2,3.2,1.1,5.2c-1.1,2-2.7,3.1-5,1.9s-3.8-5.6-3.4-6.4
		C238.3,372.3,242.8,371.2,245.1,372.5z"/>
</g>
<circle style="fill:#DDC137;" cx="249.3" cy="379.5" r="4.6"/>
</svg>