<?xml version="1.0" encoding="utf-8"?><!-- Uploaded to: SVG Repo, www.svgrepo.com, Generator: SVG Repo Mixer Tools -->
<svg fill="#000000" width="800px" height="800px" viewBox="0 0 24 24" id="mp3-player" data-name="Flat Line" xmlns="http://www.w3.org/2000/svg" class="icon flat-line"><path id="secondary" d="M15,17a2,2,0,1,0,2,2A2,2,0,0,0,15,17Zm-2-7a3,3,0,1,1-3-3A3,3,0,0,1,13,10Z" style="fill: rgb(44, 169, 188); stroke-width: 2;"></path><path id="primary" d="M9,21H4a1,1,0,0,1-1-1V4A1,1,0,0,1,4,3H16a1,1,0,0,1,1,1V7" style="fill: none; stroke: rgb(0, 0, 0); stroke-linecap: round; stroke-linejoin: round; stroke-width: 2;"></path><path id="primary-2" data-name="primary" d="M17,13l4,1V12l-4-1v8m-2-2a2,2,0,1,0,2,2A2,2,0,0,0,15,17Zm-2-7a3,3,0,1,1-3-3A3,3,0,0,1,13,10Z" style="fill: none; stroke: rgb(0, 0, 0); stroke-linecap: round; stroke-linejoin: round; stroke-width: 2;"></path></svg>