<?xml version="1.0" encoding="iso-8859-1"?>
<!-- Uploaded to: SVG Repo, www.svgrepo.com, Generator: SVG Repo Mixer Tools -->
<svg version="1.1" id="Capa_1" xmlns="http://www.w3.org/2000/svg" xmlns:xlink="http://www.w3.org/1999/xlink" 
	 viewBox="0 0 465 465" xml:space="preserve">
<g>
	<path style="fill:#FF9926;" d="M330.81,267.789c0.984-7.167,1.945-14.166,2.876-20.694v-8.909l-73.062,7.69v54.159
		c0,4.143-3.357,7.5-7.5,7.5s-7.5-3.357-7.5-7.5v-60.911c0-3.838,2.897-7.057,6.715-7.459l81.347-8.563v-22.736
		c-18.34,1.742-63.684,5.65-101.313,5.65s-82.973-3.908-101.313-5.65v22.736l81.347,8.563c4.119,0.434,7.107,4.125,6.674,8.244
		c-0.405,3.853-3.66,6.716-7.45,6.716c-0.263,0-0.527-0.014-0.794-0.042l-79.776-8.397v8.907c0.931,6.533,1.893,13.537,2.878,20.708
		c3.267,23.809,6.971,50.794,10.442,65.848c9.866,42.778,45.229,71.521,87.993,71.521c42.766,0,78.127-28.742,87.993-71.521
		C323.839,318.593,327.542,291.603,330.81,267.789z M256.832,351.593h-48.92c-4.143,0-7.5-3.357-7.5-7.5s3.357-7.5,7.5-7.5h7.396
		c-0.932-2.639-0.35-5.692,1.76-7.804c2.93-2.928,7.678-2.928,10.607,0l4.696,4.697l4.696-4.697c2.93-2.928,7.678-2.928,10.607,0
		c2.111,2.111,2.692,5.165,1.76,7.804h7.396c4.143,0,7.5,3.357,7.5,7.5S260.975,351.593,256.832,351.593z"/>
	<path style="fill:#4C4C4C;" d="M124.352,184.63c0.601,0.063,60.649,6.387,108.021,6.387c47.372,0,107.42-6.323,108.021-6.387
		c2.113-0.223,4.227,0.458,5.809,1.882c1.581,1.422,2.484,3.449,2.484,5.576v37.735c0,0.01,0,0.019,0,0.029V410h56.937V207.76
		c0-17.063-2.572-33.706-7.358-49.512H260.128l-0.156,2.956c-0.211,3.982-3.501,7.104-7.489,7.104h-39.965
		c-3.988,0-7.278-3.121-7.489-7.104l-0.156-2.956H66.481c-4.787,15.804-7.359,32.447-7.359,49.512V410h56.937V229.852
		c0-0.01,0-0.019,0-0.029v-37.735c0-2.127,0.903-4.154,2.484-5.576C120.125,185.09,122.238,184.407,124.352,184.63z"/>
	<rect x="59.122" y="425" style="fill:#FECC33;" width="56.937" height="25"/>
	<rect x="348.686" y="425" style="fill:#FF9926;" width="56.937" height="25"/>
	<path style="fill:#4C4C4C;" d="M199.861,63.66l-11.248-23.527c-34.436,8.979-64.435,28.369-86.863,54.268h77.694
		c4.142,0,7.499,3.357,7.5,7.499h14.943L199.861,63.66z"/>
	<path style="fill:#4C4C4C;" d="M263.113,101.9h14.944c0.001-4.142,3.358-7.499,7.5-7.499h77.459
		c-22.377-25.865-52.296-45.247-86.635-54.257L265.139,63.66L263.113,101.9z"/>
	<path style="fill:#FF9926;" d="M260.923,143.248h132.043c-4.857-11.955-11.025-23.303-18.328-33.847h-89.081
		c-4.143,0-7.5-3.357-7.5-7.5V101.9h-14.944L260.923,143.248z"/>
	<path style="fill:#FECC33;" d="M204.077,143.248l-2.19-41.348h-14.943v0.001c0,4.143-3.357,7.5-7.5,7.5H90.119
		c-7.307,10.543-13.478,21.89-18.338,33.847H204.077z"/>
	<path style="fill:#FECC33;" d="M232.372,54.272c4.143,0,7.5,3.357,7.5,7.5s-3.357,7.5-7.5,7.5h-17.193l4.452,84.035h25.738
		l4.87-91.932c0.052-0.984,0.298-1.949,0.723-2.839l13.741-28.741c-0.359-8.435-3.547-10.954-6.976-12.381
		C251.928,15,242.509,15,232.537,15h-0.112c-24.672,0-31.636,1.494-32.132,14.787l11.706,24.485H232.372z"/>
	<path d="M256.832,336.593h-7.396c0.932-2.639,0.35-5.692-1.76-7.804c-2.93-2.928-7.678-2.928-10.607,0l-4.696,4.697l-4.696-4.697
		c-2.93-2.928-7.678-2.928-10.607,0c-2.111,2.111-2.692,5.165-1.76,7.804h-7.396c-4.143,0-7.5,3.357-7.5,7.5s3.357,7.5,7.5,7.5
		h48.92c4.143,0,7.5-3.357,7.5-7.5S260.975,336.593,256.832,336.593z"/>
	<path d="M421.26,150.748c0-4.143-3.357-7.5-7.5-7.5h-4.571c-4.431-12.156-10.103-23.857-16.948-34.884
		c2.216-1.303,3.708-3.706,3.708-6.463c0-4.143-3.357-7.5-7.5-7.5h-5.782c-1.269-1.682-2.559-3.35-3.886-4.991
		c-25.423-31.417-60.567-53.987-99.433-63.993c-1.398-10.695-6.704-18.04-15.855-21.85C254.925,0,243.995,0,232.481,0
		C220.98,0,210.06,0,201.49,3.573c-9.138,3.811-14.437,11.15-15.836,21.833c-38.932,9.962-74.139,32.511-99.611,63.933
		c-1.349,1.664-2.659,3.356-3.947,5.063h-5.801c-4.143,0-7.5,3.357-7.5,7.5c0,2.761,1.495,5.166,3.716,6.468
		c-6.847,11.024-12.521,22.723-16.953,34.878H51.24c-4.143,0-7.5,3.357-7.5,7.5c0,3.991,3.119,7.244,7.052,7.477
		c-4.385,16.057-6.67,32.721-6.67,49.534v209.702c0,0.013-0.002,0.025-0.002,0.039s0.002,0.026,0.002,0.039V457.5
		c0,4.143,3.357,7.5,7.5,7.5h81.937c4.143,0,7.5-3.357,7.5-7.5s-3.357-7.5-7.5-7.5h-2.5v-32.481c0-0.007,0.001-0.013,0.001-0.019
		s-0.001-0.013-0.001-0.019v-75.405c6.078,21.835,18.238,40.673,35.399,54.715c18.691,15.294,41.484,23.378,65.914,23.378
		s47.223-8.084,65.914-23.378c17.163-14.043,29.323-32.883,35.399-54.717V450h-2.5c-4.143,0-7.5,3.357-7.5,7.5s3.357,7.5,7.5,7.5
		h81.937c4.143,0,7.5-3.357,7.5-7.5V207.76c0-16.807-2.283-33.467-6.665-49.522C418.008,158.132,421.26,154.824,421.26,150.748z
		 M276.382,40.145c34.339,9.01,64.258,28.392,86.635,54.257h-77.459c-4.142,0-7.499,3.357-7.5,7.499v0.001
		c0,4.143,3.357,7.5,7.5,7.5h89.081c7.302,10.544,13.47,21.892,18.328,33.847H260.923l2.19-41.348l2.026-38.24L276.382,40.145z
		 M232.425,15h0.112c9.972,0,19.391,0,25.19,2.415c3.429,1.427,6.616,3.946,6.976,12.381l-13.741,28.741
		c-0.425,0.89-0.671,1.854-0.723,2.839l-4.87,91.932h-25.738l-4.452-84.035h17.193c4.143,0,7.5-3.357,7.5-7.5s-3.357-7.5-7.5-7.5
		h-20.373l-11.706-24.485C200.789,16.494,207.753,15,232.425,15z M90.119,109.401h89.326c4.143,0,7.5-3.357,7.5-7.5V101.9
		c-0.001-4.142-3.358-7.499-7.5-7.499H101.75c22.427-25.899,52.427-45.289,86.863-54.268l11.248,23.527l2.026,38.24l2.19,41.348
		H71.781C76.641,131.292,82.812,119.944,90.119,109.401z M116.059,450H59.122v-25h56.937V450z M333.686,223.102l-81.347,8.563
		c-3.817,0.402-6.715,3.621-6.715,7.459v60.911c0,4.143,3.357,7.5,7.5,7.5s7.5-3.357,7.5-7.5v-54.159l73.062-7.69v8.909
		c-0.931,6.529-1.892,13.528-2.876,20.694c-3.268,23.813-6.971,50.804-10.444,65.859c-9.866,42.778-45.228,71.521-87.993,71.521
		c-42.765,0-78.127-28.742-87.993-71.521c-3.472-15.054-7.176-42.039-10.442-65.848c-0.985-7.171-1.947-14.175-2.878-20.708v-8.907
		l79.776,8.397c0.267,0.028,0.531,0.042,0.794,0.042c3.79,0,7.045-2.863,7.45-6.716c0.434-4.119-2.555-7.811-6.674-8.244
		l-81.347-8.563v-22.736c18.341,1.742,63.684,5.65,101.313,5.65s82.974-3.908,101.313-5.65V223.102z M405.622,450h-56.937v-25
		h56.937V450z M405.622,410h-56.937V229.852c0-0.01,0-0.019,0-0.029v-37.735c0-2.127-0.903-4.154-2.484-5.576
		c-1.582-1.424-3.695-2.104-5.809-1.882c-0.601,0.063-60.648,6.387-108.021,6.387c-47.371,0-107.42-6.323-108.021-6.387
		c-2.113-0.223-4.227,0.46-5.809,1.882c-1.581,1.422-2.484,3.449-2.484,5.576v37.735c0,0.01,0,0.019,0,0.029V410H59.122V207.76
		c0-17.065,2.572-33.708,7.359-49.512h138.391l0.156,2.956c0.211,3.982,3.501,7.104,7.489,7.104h39.965
		c3.988,0,7.278-3.121,7.489-7.104l0.156-2.956h138.135c4.787,15.806,7.358,32.449,7.358,49.512V410z"/>
</g>
</svg>