<?xml version="1.0" encoding="iso-8859-1"?>
<!-- Uploaded to: SVG Repo, www.svgrepo.com, Generator: SVG Repo Mixer Tools -->
<svg version="1.1" id="Layer_1" xmlns="http://www.w3.org/2000/svg" xmlns:xlink="http://www.w3.org/1999/xlink" 
	 viewBox="0 0 512 512" xml:space="preserve">
<rect y="0.231" style="fill:#FEC986;" width="511.999" height="504"/>
<g>
	<rect x="399.999" y="416.236" style="fill:#9B4573;" width="112" height="87.963"/>
	<rect y="416.236" style="fill:#9B4573;" width="112" height="87.963"/>
</g>
<rect x="144.005" y="256.235" style="fill:#C8546F;" width="224" height="247.996"/>
<g>
	<rect x="168" y="280.23" style="fill:#FFFFFF;" width="88.266" height="224"/>
	<rect x="255.743" y="280.23" style="fill:#FFFFFF;" width="88.266" height="224"/>
</g>
<path style="fill:#FEB860;" d="M136,200.23c0,13.255-10.744,24.001-24,24.001c-13.255,0-24-10.745-24-24.001v-16H136V200.23z"/>
<path style="fill:#C8546F;" d="M184,200.23c0,13.255-10.745,24.001-24,24.001c-13.256,0-24.001-10.745-24.001-24.001v-16h48V200.23z
	"/>
<path style="fill:#FEB860;" d="M232.001,200.23c0,13.255-10.744,24.001-24,24.001s-24-10.745-24-24.001v-16h47.999L232.001,200.23
	L232.001,200.23z"/>
<path style="fill:#C8546F;" d="M280,200.23c0,13.255-10.744,24.001-24,24.001c-13.255,0-24-10.745-24-24.001v-16H280V200.23z"/>
<path style="fill:#FEB860;" d="M328.001,200.23c0,13.255-10.745,24.001-24.001,24.001c-13.255,0-24-10.745-24-24.001v-16h48V200.23z
	"/>
<path style="fill:#C8546F;" d="M376,200.23c0,13.255-10.745,24.001-24,24.001c-13.256,0-24-10.745-24-24.001v-16H376L376,200.23
	L376,200.23z"/>
<g>
	<path style="fill:#FEB860;" d="M424,200.23c0,13.255-10.744,24.001-24,24.001c-13.255,0-24-10.745-24-24.001v-16H424L424,200.23
		L424,200.23z"/>
	<polygon style="fill:#FEB860;" points="136,184.231 184,184.231 184,24.231 136,56.231 	"/>
</g>
<polygon style="fill:#C8546F;" points="184,184.231 232.001,184.231 232.001,8.232 184,24.231 "/>
<rect x="231.999" y="8.232" style="fill:#FEB860;" width="47.999" height="175.999"/>
<polygon style="fill:#C8546F;" points="280,184.231 328.001,184.231 328.001,24.231 280,8.232 "/>
<polygon style="fill:#FEB860;" points="328.001,184.231 376,184.231 376,56.231 328.001,24.231 "/>
<g>
	<polygon style="fill:#C8546F;" points="376,64.232 416,137.726 416,184.231 376,184.231 	"/>
	<polygon style="fill:#C8546F;" points="136,184.231 96,184.231 96,132.232 136,64.232 	"/>
</g>
<g>
	<path style="fill:#1D1D1B;" d="M423.842,168.231h-15.683c0-83.901-68.258-152.158-152.158-152.158S103.842,84.33,103.842,168.231
		H88.158c0-92.549,75.294-167.841,167.841-167.841S423.842,75.683,423.842,168.231z"/>
	<rect x="80.006" y="176.386" style="fill:#1D1D1B;" width="351.997" height="15.683"/>
	<path style="fill:#1D1D1B;" d="M416.158,200.23c0,8.909-7.249,16.159-16.158,16.159c-8.909,0-16.158-7.249-16.158-16.159h-15.683
		c0,8.909-7.249,16.159-16.158,16.159c-8.909,0-16.158-7.249-16.158-16.159h-15.683c0,8.909-7.249,16.159-16.158,16.159
		s-16.159-7.249-16.159-16.159h-15.683c0,8.909-7.249,16.159-16.158,16.159c-8.909,0-16.158-7.249-16.158-16.159h-15.683
		c0,8.909-7.249,16.159-16.158,16.159c-8.909,0-16.158-7.249-16.158-16.159H176.16c0,8.909-7.249,16.159-16.158,16.159
		c-8.909,0-16.159-7.249-16.159-16.159h-15.683c0,8.909-7.249,16.159-16.158,16.159s-16.158-7.249-16.158-16.159H80.16
		c0,17.557,14.284,31.842,31.841,31.842c9.568,0,18.158-4.248,24-10.952c5.843,6.703,14.432,10.952,24.001,10.952
		c9.568,0,18.158-4.248,24-10.952c5.843,6.703,14.432,10.952,24,10.952c9.568,0,18.158-4.248,24-10.952
		c5.842,6.703,14.432,10.952,24,10.952c9.568,0,18.158-4.248,24-10.952c5.843,6.703,14.433,10.952,24.001,10.952
		s18.157-4.248,24-10.952c5.843,6.703,14.432,10.952,24,10.952c9.568,0,18.158-4.248,24-10.952c5.843,6.703,14.432,10.952,24,10.952
		c17.557,0,31.841-14.284,31.841-31.842H416.158z"/>
	<rect x="128.154" y="96.233" style="fill:#1D1D1B;" width="15.683" height="72"/>
	<rect x="176.155" y="48.232" style="fill:#1D1D1B;" width="15.683" height="119.999"/>
	<rect x="224.157" y="32.231" style="fill:#1D1D1B;" width="15.683" height="135.996"/>
	<rect x="272.159" y="32.231" style="fill:#1D1D1B;" width="15.683" height="135.996"/>
	<rect x="320.16" y="48.232" style="fill:#1D1D1B;" width="15.683" height="119.999"/>
	<rect x="368.162" y="96.233" style="fill:#1D1D1B;" width="15.683" height="72"/>
	<path style="fill:#1D1D1B;" d="M512,424.073v-15.683h-88.158V240.231h-15.683v168.158h-16v87.696h-16.316V248.389H136.159v247.697
		h-16.317v-87.696h-16V240.231H88.158v168.158H0.001v15.683h104.157v72.013H0.001v15.683H512v-15.683H407.842v-72.013H512z
		 M336.159,496.086H175.843V288.073h160.316V496.086z M360.159,496.086h-8.316V272.39H160.16v223.696h-8.317V264.072h208.317
		V496.086z"/>
	<rect x="248.163" y="296.227" style="fill:#1D1D1B;" width="15.683" height="191.996"/>
	
		<rect x="200.143" y="329.6" transform="matrix(-0.7071 -0.7071 0.7071 -0.7071 105.9915 748.3542)" style="fill:#1D1D1B;" width="15.683" height="45.251"/>
	
		<rect x="214.182" y="365.748" transform="matrix(-0.7071 -0.7071 0.7071 -0.7071 114.3941 795.8506)" style="fill:#1D1D1B;" width="15.682" height="16.97"/>
	
		<rect x="288.137" y="329.599" transform="matrix(-0.7071 -0.7071 0.7071 -0.7071 256.2064 810.5743)" style="fill:#1D1D1B;" width="15.683" height="45.251"/>
	
		<rect x="302.134" y="365.738" transform="matrix(-0.7071 -0.7071 0.7071 -0.7071 264.5453 858.024)" style="fill:#1D1D1B;" width="15.683" height="16.97"/>
</g>
</svg>