<?xml version="1.0" encoding="iso-8859-1"?>
<!-- Uploaded to: SVG Repo, www.svgrepo.com, Generator: SVG Repo Mixer Tools -->
<svg fill="#000000" height="800px" width="800px" version="1.1" id="Capa_1" xmlns="http://www.w3.org/2000/svg" xmlns:xlink="http://www.w3.org/1999/xlink" 
	 viewBox="0 0 423.388 423.388" xml:space="preserve">
<path id="XMLID_743_" d="M423.236,323.598l-36.213-205.37c-0.46-2.612-1.94-4.934-4.112-6.455l-58.068-40.66l-6.959-39.466h66.521
	c5.523,0,10-4.478,10-10s-4.477-10-10-10H117.175c-0.016,0-0.033,0-0.049,0H38.983c-5.523,0-10,4.478-10,10s4.477,10,10,10h66.521
	l-6.959,39.466l-58.068,40.66c-2.172,1.521-3.652,3.843-4.112,6.455L0.152,323.598c-0.46,2.611,0.135,5.3,1.657,7.472l43.035,61.461
	c1.945,2.778,5.048,4.266,8.2,4.266c1.98,0,3.981-0.587,5.727-1.81l61.461-43.035c4.524-3.168,5.624-9.403,2.456-13.927
	c-3.167-4.523-9.403-5.625-13.927-2.456l-53.27,37.299l-34.923-49.876l4.544-25.77l38.293-26.812l-5.277,29.929
	c-0.959,5.438,2.673,10.625,8.112,11.584c0.587,0.104,1.171,0.154,1.748,0.154c4.761,0,8.981-3.414,9.836-8.266l5.277-29.929
	l4.997,7.136c3.168,4.525,9.403,5.626,13.927,2.456c4.524-3.167,5.624-9.402,2.457-13.927l-16.469-23.521l10.074-57.133l5.409,7.725
	c3.167,4.523,9.403,5.625,13.927,2.456c4.524-3.168,5.624-9.403,2.456-13.927l-16.881-24.109l10.333-58.599l5.181,7.399
	c3.167,4.523,9.404,5.624,13.927,2.455c4.524-3.168,5.624-9.403,2.456-13.928l-16.652-23.781l7.571-42.939h75.88V82.95
	l-50.126,50.126c-1.875,1.876-2.929,4.419-2.929,7.071v208.539c0,2.652,1.054,5.195,2.929,7.071l53.054,53.054
	c1.953,1.952,4.512,2.929,7.071,2.929c2.559,0,5.119-0.977,7.071-2.929l53.054-53.054c1.875-1.876,2.929-4.419,2.929-7.071v-34.434
	c0-0.014,0-0.027,0-0.041v-86.257c0-0.014,0-0.027,0-0.041v-87.767c0-2.652-1.054-5.195-2.929-7.071l-50.124-50.123V31.647h75.882
	l7.571,42.939l-16.652,23.781c-3.168,4.524-2.068,10.76,2.456,13.928c4.523,3.169,10.76,2.068,13.927-2.455l5.181-7.399
	l10.333,58.599l-16.881,24.109c-3.168,4.523-2.068,10.759,2.456,13.927c4.524,3.169,10.759,2.068,13.927-2.456l5.409-7.725
	l10.074,57.133l-16.469,23.521c-3.167,4.524-2.068,10.76,2.457,13.927c4.525,3.17,10.759,2.067,13.927-2.456l4.997-7.136
	l5.277,29.929c0.855,4.852,5.075,8.266,9.836,8.266c0.576,0,1.161-0.051,1.748-0.154c5.439-0.959,9.071-6.146,8.112-11.584
	l-5.277-29.929l38.293,26.812l4.544,25.77l-34.923,49.876l-53.27-37.299c-4.524-3.169-10.759-2.068-13.927,2.456
	c-3.168,4.523-2.068,10.759,2.456,13.927l61.461,43.035c1.746,1.223,3.746,1.81,5.727,1.81c3.152,0,6.255-1.487,8.2-4.266
	l43.035-61.461C423.101,328.898,423.696,326.21,423.236,323.598z M93.634,98.967L83.301,157.57l-38.292,26.812l10.333-58.602
	L93.634,98.967z M30.023,269.368l10.074-57.132l38.292-26.812l-10.074,57.132L30.023,269.368z M254.746,290.089l-33.053-33.053
	v-58.013l33.053,33.054V290.089z M168.638,232.08l33.055-33.054v58.014l-33.055,33.054V232.08z M201.693,111.236v59.507
	l-33.055,33.054v-59.505L201.693,111.236z M211.691,387.598l-43.054-43.054v-26.167l33.055-33.054v30.39c0,5.522,4.477,10,10,10
	s10-4.478,10-10V285.32l33.053,33.054v26.17L211.691,387.598z M254.746,144.291v59.501l-33.053-33.053v-59.5L254.746,144.291z
	 M368.046,125.78l10.333,58.602l-38.292-26.812l-10.333-58.603L368.046,125.78z M355.072,242.556l-10.074-57.132l38.293,26.812
	l10.074,57.132L355.072,242.556z"/>
</svg>