<?xml version="1.0" encoding="iso-8859-1"?>
<!-- Generator: Adobe Illustrator 18.0.0, SVG Export Plug-In . SVG Version: 6.00 Build 0)  -->
<!DOCTYPE svg PUBLIC "-//W3C//DTD SVG 1.1//EN" "http://www.w3.org/Graphics/SVG/1.1/DTD/svg11.dtd">
<svg version="1.1" id="Capa_1" xmlns="http://www.w3.org/2000/svg" xmlns:xlink="http://www.w3.org/1999/xlink" x="0px" y="0px"
	 viewBox="0 0 297.5 297.5" style="enable-background:new 0 0 297.5 297.5;" xml:space="preserve">
<g>
	<g id="XMLID_35_">
		<g>
			<path style="fill:#C7A488;" d="M69.27,75.43v175.02h-48.1V75.43l24.05-24.05L69.27,75.43z M55.68,105.61
				c0-2.75-1.12-5.45-3.07-7.39c-1.94-1.95-4.63-3.07-7.39-3.07c-2.75,0-5.45,1.12-7.4,3.07c-1.94,1.94-3.06,4.64-3.06,7.39
				s1.12,5.45,3.06,7.39c1.95,1.95,4.65,3.07,7.4,3.07c2.76,0,5.45-1.12,7.39-3.07C54.56,111.06,55.68,108.36,55.68,105.61z
				 M55.68,191.89c0-2.75-1.12-5.45-3.07-7.4c-1.94-1.94-4.63-3.06-7.39-3.06c-2.75,0-5.45,1.12-7.4,3.06
				c-1.94,1.95-3.06,4.65-3.06,7.4s1.12,5.45,3.06,7.39c1.95,1.95,4.65,3.07,7.4,3.07c2.76,0,5.46-1.12,7.39-3.07
				C54.56,197.34,55.68,194.64,55.68,191.89z"/>
			<path style="fill:#C7A488;" d="M276.34,75.43v175.02h-48.11V75.43l24.05-24.05L276.34,75.43z M262.74,105.61
				c0-2.75-1.11-5.45-3.07-7.39c-1.94-1.95-4.63-3.07-7.39-3.07c-2.75,0-5.45,1.12-7.39,3.07c-1.95,1.94-3.07,4.64-3.07,7.39
				s1.12,5.45,3.07,7.39c1.94,1.95,4.64,3.07,7.39,3.07c2.76,0,5.45-1.12,7.39-3.07C261.63,111.06,262.74,108.36,262.74,105.61z
				 M262.74,191.89c0-2.75-1.11-5.45-3.07-7.4c-1.94-1.94-4.64-3.06-7.39-3.06s-5.45,1.12-7.39,3.06c-1.95,1.95-3.07,4.65-3.07,7.4
				s1.12,5.45,3.07,7.39c1.94,1.95,4.64,3.07,7.39,3.07c2.76,0,5.45-1.12,7.39-3.07C261.63,197.34,262.74,194.64,262.74,191.89z"/>
			<path style="fill:#E98547;" d="M172.81,75.43v175.02H124.7V75.43l24.05-24.05L172.81,75.43z M159.21,105.61
				c0-2.75-1.12-5.45-3.07-7.39c-1.94-1.95-4.63-3.07-7.39-3.07c-2.75,0-5.45,1.12-7.39,3.07c-1.95,1.94-3.07,4.64-3.07,7.39
				s1.12,5.45,3.07,7.39c1.94,1.95,4.64,3.07,7.39,3.07c2.76,0,5.45-1.12,7.39-3.07C158.09,111.06,159.21,108.36,159.21,105.61z
				 M159.21,191.89c0-2.75-1.11-5.45-3.07-7.4c-1.94-1.94-4.64-3.06-7.39-3.06s-5.45,1.12-7.39,3.06c-1.95,1.95-3.07,4.65-3.07,7.4
				s1.12,5.45,3.07,7.39c1.94,1.95,4.64,3.07,7.39,3.07c2.76,0,5.45-1.12,7.39-3.07C158.1,197.34,159.21,194.64,159.21,191.89z"/>
			<path d="M297.25,71.1v189.81c0,5.78-4.68,10.46-10.45,10.46h-69.03c-5.77,0-10.45-4.68-10.45-10.46v-58.56h-13.6v58.56
				c0,5.78-4.68,10.46-10.46,10.46h-69.02c-5.77,0-10.46-4.68-10.46-10.46v-58.56H90.19v58.56c0,5.78-4.68,10.46-10.46,10.46H10.71
				c-5.77,0-10.46-4.68-10.46-10.46V71.1c0-2.77,1.1-5.43,3.07-7.39l34.51-34.52c1.96-1.96,4.62-3.06,7.39-3.06
				c2.78,0,5.43,1.1,7.4,3.06l34.51,34.52c1.96,1.96,3.06,4.62,3.06,7.39v41.31h13.59V71.1c0-2.77,1.11-5.43,3.07-7.39l34.51-34.52
				c1.96-1.96,4.62-3.06,7.39-3.06c2.78,0,5.44,1.1,7.4,3.06l34.51,34.52c1.96,1.96,3.06,4.62,3.06,7.39v41.31h13.6V71.1
				c0-2.77,1.1-5.43,3.06-7.39l34.51-34.52c1.96-1.96,4.62-3.06,7.39-3.06c2.78,0,5.44,1.1,7.4,3.06l34.51,34.52
				C296.15,65.67,297.25,68.33,297.25,71.1z M276.34,250.45V75.43l-24.06-24.05l-24.05,24.05v175.02H276.34z M207.32,181.43v-48.11
				h-13.6v48.11H207.32z M172.81,250.45V75.43l-24.06-24.05L124.7,75.43v175.02H172.81z M103.78,181.43v-48.11H90.19v48.11H103.78z
				 M69.27,250.45V75.43L45.22,51.38L21.17,75.43v175.02H69.27z"/>
			<path d="M259.67,98.22c1.96,1.94,3.07,4.64,3.07,7.39s-1.11,5.45-3.07,7.39c-1.94,1.95-4.63,3.07-7.39,3.07
				c-2.75,0-5.45-1.12-7.39-3.07c-1.95-1.94-3.07-4.64-3.07-7.39s1.12-5.45,3.07-7.39c1.94-1.95,4.64-3.07,7.39-3.07
				C255.04,95.15,257.73,96.27,259.67,98.22z"/>
			<path d="M259.67,184.49c1.96,1.95,3.07,4.65,3.07,7.4s-1.11,5.45-3.07,7.39c-1.94,1.95-4.63,3.07-7.39,3.07
				c-2.75,0-5.45-1.12-7.39-3.07c-1.95-1.94-3.07-4.64-3.07-7.39s1.12-5.45,3.07-7.4c1.94-1.94,4.64-3.06,7.39-3.06
				S257.73,182.55,259.67,184.49z"/>
			<path d="M156.14,98.22c1.95,1.94,3.07,4.64,3.07,7.39s-1.12,5.45-3.07,7.39c-1.94,1.95-4.63,3.07-7.39,3.07
				c-2.75,0-5.45-1.12-7.39-3.07c-1.95-1.94-3.07-4.64-3.07-7.39s1.12-5.45,3.07-7.39c1.94-1.95,4.64-3.07,7.39-3.07
				C151.51,95.15,154.2,96.27,156.14,98.22z"/>
			<path d="M156.14,184.49c1.96,1.95,3.07,4.65,3.07,7.4s-1.11,5.45-3.07,7.39c-1.94,1.95-4.63,3.07-7.39,3.07
				c-2.75,0-5.45-1.12-7.39-3.07c-1.95-1.94-3.07-4.64-3.07-7.39s1.12-5.45,3.07-7.4c1.94-1.94,4.64-3.06,7.39-3.06
				S154.2,182.55,156.14,184.49z"/>
			<path d="M52.61,98.22c1.95,1.94,3.07,4.64,3.07,7.39s-1.12,5.45-3.07,7.39c-1.94,1.95-4.63,3.07-7.39,3.07
				c-2.75,0-5.45-1.12-7.4-3.07c-1.94-1.94-3.06-4.64-3.06-7.39s1.12-5.45,3.06-7.39c1.95-1.95,4.65-3.07,7.4-3.07
				C47.98,95.15,50.67,96.27,52.61,98.22z"/>
			<path d="M52.61,184.49c1.95,1.95,3.07,4.65,3.07,7.4s-1.12,5.45-3.07,7.39c-1.93,1.95-4.63,3.07-7.39,3.07
				c-2.75,0-5.45-1.12-7.4-3.07c-1.94-1.94-3.06-4.64-3.06-7.39s1.12-5.45,3.06-7.4c1.95-1.94,4.65-3.06,7.4-3.06
				C47.98,181.43,50.67,182.55,52.61,184.49z"/>
		</g>
		<g>
		</g>
	</g>
</g>
<g>
</g>
<g>
</g>
<g>
</g>
<g>
</g>
<g>
</g>
<g>
</g>
<g>
</g>
<g>
</g>
<g>
</g>
<g>
</g>
<g>
</g>
<g>
</g>
<g>
</g>
<g>
</g>
<g>
</g>
</svg>
