<?xml version="1.0" encoding="iso-8859-1"?>
<!-- Uploaded to: SVG Repo, www.svgrepo.com, Generator: SVG Repo Mixer Tools -->
<svg fill="#000000" height="800px" width="800px" version="1.1" id="Layer_1" xmlns="http://www.w3.org/2000/svg" xmlns:xlink="http://www.w3.org/1999/xlink" 
	 viewBox="0 0 300 300" xml:space="preserve">
<g>
	<g>
		<path d="M246.775,280.645h-0.001h-9.677v9.677h-9.677v-9.677h-9.677v9.677h-9.677v-10.669L194.284,247.5
			c12.634-5.255,24.208-12.653,34.215-21.837l7.597,7.597c-7.81,2.492-13.515,9.731-13.515,18.353
			c0,10.674,8.681,19.355,19.355,19.355h9.677c10.674,0,19.355-8.681,19.355-19.355s-8.681-19.355-19.355-19.355h-2.835
			l-13.427-13.427c12.165-13.171,21.358-29.173,26.39-47.081c2.753,1.505,5.869,2.444,9.227,2.444h9.677
			c10.674,0,19.355-8.681,19.355-19.355s-8.681-19.355-19.355-19.355h-4.839h-4.839h-5.003
			c-0.702-16.916-5.032-33.416-12.765-48.387h3.252c10.674,0,19.355-8.681,19.355-19.355s-8.681-19.355-19.355-19.355h-7.674
			l1.418-1.418l-6.842-6.842L228.61,54.871c-15.653-14.39-35.003-24.16-55.839-28.316c0.9-2.231,1.423-4.655,1.423-7.2
			C174.194,8.681,165.513,0,154.839,0h-9.677c-10.674,0-19.355,8.681-19.355,19.355c0,2.545,0.523,4.969,1.423,7.195
			c-20.835,4.156-40.185,13.926-55.839,28.316L56.647,40.123l-6.842,6.842l1.418,1.423h-7.674c-10.674,0-19.355,8.681-19.355,19.355
			s8.681,19.355,19.355,19.355H46.8c-7.732,14.971-12.063,31.471-12.765,48.387h-5.003h-4.839h-4.839
			C8.681,135.484,0,144.165,0,154.839s8.681,19.355,19.355,19.355h9.677c3.358,0,6.474-0.939,9.227-2.448
			c5.032,17.908,14.226,33.915,26.39,47.081l-13.427,13.432h-2.835c-10.674,0-19.355,8.681-19.355,19.355
			c0,10.674,8.681,19.355,19.355,19.355h9.677c10.674,0,19.355-8.681,19.355-19.355c0-8.623-5.705-15.861-13.51-18.353l7.597-7.597
			c10.006,9.179,21.581,16.582,34.215,21.837l-13.785,32.153v10.669h-9.677v-9.677h-9.677v9.677h-9.677v-9.677h-9.677v9.677H4.839
			V300h290.323v-9.677h-48.387V280.645z M251.613,241.936c5.337-0.001,9.677,4.34,9.677,9.677c0,5.337-4.34,9.677-9.677,9.677
			h-9.677c-5.337,0-9.677-4.34-9.677-9.677c0-5.337,4.34-9.677,9.677-9.677H251.613z M67.742,251.613
			c0,5.337-4.34,9.677-9.677,9.677h-9.677c-5.337,0-9.677-4.34-9.677-9.677c0-5.337,4.34-9.677,9.677-9.677h9.677
			C63.402,241.935,67.742,246.276,67.742,251.613z M154.839,246.561v-14.545c21.697-1.137,41.385-9.794,56.555-23.453l10.258,10.258
			C203.671,235.195,180.218,245.395,154.839,246.561z M193.815,270.968h-19.621c0-6.498-3.242-12.227-8.173-15.74
			c6.561-0.924,12.963-2.395,19.166-4.384L193.815,270.968z M161.681,135.484l49.718-49.718
			c11.923,13.403,19.5,30.682,20.618,49.718H161.681z M232.012,145.161c-1.113,19.031-8.695,36.315-20.618,49.718l-49.713-49.718
			H232.012z M154.839,128.642V58.311c19.031,1.113,36.315,8.695,49.718,20.618L154.839,128.642z M204.556,201.721
			c-13.403,11.923-30.682,19.5-49.718,20.618v-70.335L204.556,201.721z M253.824,163.63c-4.137,18.503-13.065,35.013-25.306,48.368
			l-10.283-10.282c13.665-15.169,22.316-34.858,23.453-56.555h12.615c-1.665,2.86-2.69,6.135-2.69,9.677
			C251.613,158.017,252.46,160.978,253.824,163.63z M270.968,145.161h4.838h4.839c5.337,0,9.677,4.34,9.677,9.677
			c0,5.337-4.34,9.677-9.677,9.677h-9.677c-5.337,0-9.677-4.34-9.677-9.677C261.291,149.501,265.631,145.161,270.968,145.161z
			 M246.775,58.065h9.677c5.337,0,9.677,4.34,9.677,9.677c0,5.337-4.34,9.677-9.677,9.677h-9.677c-5.337,0-9.677-4.34-9.677-9.677
			C237.098,62.405,241.438,58.065,246.775,58.065z M241.689,86.332c8.816,14.937,13.81,31.79,14.598,49.152h-14.598v0
			c-1.137-21.697-9.794-41.385-23.453-56.555l9.368-9.368C228.373,77.642,234.064,84.242,241.689,86.332z M221.749,61.732
			l-10.355,10.355c-15.169-13.665-34.858-22.316-56.555-23.453V38.71c4.137,0,7.955-1.331,11.1-3.547
			C186.774,38.298,206.216,47.565,221.749,61.732z M145.161,9.677h9.677c5.337,0,9.677,4.34,9.677,9.677s-4.34,9.677-9.677,9.677
			h-9.677c-5.337,0-9.677-4.34-9.677-9.677S139.824,9.677,145.161,9.677z M138.319,145.161l-49.718,49.718
			c-11.923-13.403-19.5-30.682-20.618-49.718C67.984,145.161,138.319,145.161,138.319,145.161z M67.989,135.484
			c1.113-19.031,8.695-36.315,20.618-49.718l49.712,49.718H67.989z M145.161,152.003v70.331
			c-19.031-1.113-36.315-8.695-49.718-20.618L145.161,152.003z M95.444,78.924c13.403-11.923,30.682-19.5,49.718-20.618v70.336
			h-0.001L95.444,78.924z M134.061,35.163c3.145,2.216,6.963,3.547,11.1,3.547v9.924c-21.697,1.137-41.385,9.794-56.555,23.453
			L78.252,61.732C93.779,47.565,113.221,38.298,134.061,35.163z M43.548,77.419c-5.337,0-9.677-4.34-9.677-9.677
			c0-5.337,4.34-9.677,9.677-9.677h9.677c5.337,0,9.677,4.34,9.677,9.677c0,5.337-4.34,9.677-9.677,9.677H43.548z M29.032,164.516
			h-9.677c-5.337,0-9.677-4.34-9.677-9.677c0-5.337,4.34-9.677,9.677-9.677h4.839h4.839c5.337,0,9.677,4.34,9.677,9.677
			C38.71,160.176,34.369,164.516,29.032,164.516z M58.311,86.332c7.626-2.09,13.316-8.69,14.085-16.771l9.368,9.368
			C68.1,94.098,59.448,113.787,58.311,135.484H43.718C44.502,118.123,49.495,101.269,58.311,86.332z M71.483,211.999
			c-12.243-13.355-21.17-29.865-25.307-48.368c1.365-2.652,2.211-5.613,2.211-8.792c0-3.542-1.026-6.818-2.69-9.677h12.615
			c1.137,21.697,9.794,41.385,23.453,56.555L71.483,211.999z M78.348,218.816l10.258-10.258
			c15.169,13.665,34.858,22.316,56.555,23.453v14.545C119.782,245.39,96.329,235.19,78.348,218.816z M133.979,255.227
			c-4.931,3.513-8.173,9.242-8.173,15.74h-19.621l8.627-20.129C121.016,252.832,127.418,254.303,133.979,255.227z M101.613,290.323
			v-8.685l0.426-0.992h26.458c3.358,5.758,9.532,9.677,16.665,9.677H101.613z M145.161,280.644c-5.337,0-9.677-4.34-9.677-9.677
			c0-5.337,4.34-9.677,9.677-9.677h9.677c5.337,0,9.677,4.34,9.677,9.677c0,5.337-4.34,9.677-9.677,9.677H145.161z M198.387,290.322
			h-43.548c7.132,0.001,13.306-3.919,16.664-9.677h26.458l0.426,0.992V290.322z"/>
	</g>
</g>
</svg>