<?xml version="1.0" encoding="iso-8859-1"?>
<!-- Uploaded to: SVG Repo, www.svgrepo.com, Generator: SVG Repo Mixer Tools -->
<svg fill="#000000" height="800px" width="800px" version="1.1" id="Layer_1" xmlns="http://www.w3.org/2000/svg" xmlns:xlink="http://www.w3.org/1999/xlink" 
	 viewBox="0 0 512 512" xml:space="preserve">
<g>
	<g>
		<path d="M500.364,209.455h-25.6c-4.655-26.764-13.964-52.364-26.764-74.473c10.473-5.818,17.455-17.455,17.455-30.255V81.455
			c0-6.982-4.655-11.636-11.636-11.636h-62.836c-25.6-19.782-55.855-33.745-88.436-40.727V11.636C302.545,4.655,297.891,0,290.909,0
			h-69.818c-6.982,0-11.636,4.655-11.636,11.636v17.455c-32.582,6.982-62.836,20.945-88.436,40.727H58.182
			c-6.982,0-11.636,4.655-11.636,11.636v23.273c0,12.8,6.982,24.436,17.455,30.255c-12.8,22.109-22.109,47.709-26.764,74.473h-25.6
			C4.655,209.455,0,214.109,0,221.091v23.273c0,19.782,15.127,34.909,34.909,34.909H38.4c3.491,20.945,9.309,40.727,17.455,58.182
			c-4.655,1.164-9.309,5.818-9.309,11.636v23.273c0,19.782,15.127,34.909,34.909,34.909h23.273c1.164,0,1.164,0,2.327,0
			c16.291,15.127,34.909,27.927,55.855,37.236l-9.309,23.273c-5.818,12.8-18.618,20.945-32.582,20.945h-16.291
			c-6.982,0-11.636,4.655-11.636,11.636S97.745,512,104.727,512h15.127c23.273,0,44.218-13.964,53.527-36.073l9.309-23.273
			c8.145,3.491,17.455,5.818,26.764,6.982c3.491,16.291,17.455,29.091,33.745,29.091h23.273c17.455,0,31.418-11.636,33.745-27.927
			c8.145-2.327,17.455-3.491,25.6-6.982c0,0,1.164,0,1.164-1.164l9.309,23.273C345.6,498.036,366.545,512,389.818,512h17.455
			c6.982,0,11.636-4.655,11.636-11.636s-4.655-11.636-11.636-11.636h-15.127c-13.964,0-26.764-8.145-32.582-20.945L281.6,283.927
			c12.8-8.145,20.945-22.109,20.945-38.4c0-25.6-20.945-46.545-46.545-46.545c-25.6,0-46.545,20.945-46.545,46.545
			c0,16.291,8.146,30.255,20.945,38.4l-59.345,139.636c-15.127-6.982-29.091-16.291-41.891-26.764
			c4.655-4.655,8.145-11.636,9.309-19.782l1.164-1.164l66.327-66.327c4.655-4.655,4.655-11.636,0-16.291s-11.636-4.655-16.291,0
			l-51.2,51.2c-1.164-3.491-5.818-6.982-10.473-6.982H81.455c-9.309-18.618-16.291-37.236-20.945-58.182
			C74.473,278.109,84.945,268.8,89.6,256h84.945c6.982,0,11.636-4.655,11.636-11.636s-4.655-11.636-11.636-11.636H93.091v-11.636
			c0-6.982-4.655-11.636-11.636-11.636H61.673c4.655-25.6,13.964-48.873,26.764-69.818h16.291c8.145,0,16.291-3.491,22.109-8.145
			l62.836,62.836c2.327,3.491,5.818,3.491,8.145,3.491s5.818-1.164,8.145-3.491c4.655-4.655,4.655-11.636,0-16.291l-66.327-66.327
			c0,0-1.164-1.164-2.327-1.164c2.327-1.164,2.327-3.491,2.327-5.818V84.945c22.109-16.291,46.545-27.927,74.473-33.745
			c5.818,11.636,17.455,18.618,30.255,18.618v93.091c0,6.982,4.655,11.636,11.636,11.636s11.636-4.655,11.636-11.636V69.818
			c12.8,0,24.436-6.982,30.255-18.618c27.927,5.818,52.364,17.455,74.473,33.745v19.782c0,2.327,0,4.655,1.164,6.982
			c-1.164,0-1.164,1.164-2.327,1.164L304.873,179.2c-4.655,4.655-4.655,11.636,0,16.291c2.327,2.327,5.818,2.327,9.309,2.327
			s5.818-1.164,8.145-3.491l62.836-62.836c5.818,4.655,13.964,8.145,22.109,8.145h16.291c12.8,20.945,22.109,44.218,26.764,69.818
			h-19.782c-6.982,0-11.636,4.655-11.636,11.636v11.636h-81.455c-6.982,0-11.636,4.655-11.636,11.636S330.473,256,337.455,256
			h83.782c4.655,12.8,16.291,22.109,29.091,23.273c-3.491,20.945-10.473,40.727-19.782,58.182H384
			c-4.655,0-9.309,3.491-10.473,8.146l-51.2-51.2c-4.655-4.655-11.636-4.655-16.291,0s-4.655,11.636,0,16.291l66.327,66.327
			l1.164,1.164c1.164,6.982,4.655,13.964,9.309,19.782c-2.327,1.164-3.491,3.491-4.655,4.655c-3.491,2.327-6.982,5.818-10.473,8.145
			c-5.818,3.491-6.982,10.473-3.491,16.291s10.473,6.982,16.291,3.491c4.655-2.327,8.145-5.818,12.8-9.309
			c4.655-3.491,9.309-8.146,13.964-12.8h1.164h23.273c19.782,0,34.909-15.127,34.909-34.909v-23.273
			c0-5.818-3.491-10.473-9.309-11.636c8.146-18.618,15.127-38.4,17.455-58.182h2.327c19.782,0,34.909-15.127,34.909-34.909v-23.273
			C512,214.109,507.345,209.455,500.364,209.455z M279.273,453.818c0,6.982-4.655,11.636-11.636,11.636h-23.273
			c-6.982,0-11.636-4.655-11.636-11.636v-11.636h46.545V453.818z M256,221.091c12.8,0,23.273,10.473,23.273,23.273
			S268.8,267.636,256,267.636s-23.273-10.473-23.273-23.273S243.2,221.091,256,221.091z M252.509,290.909c1.164,0,2.327,0,3.491,0
			s2.327,0,3.491,0l59.345,140.8c-5.818,2.327-11.636,3.491-16.291,4.655v-5.818c0-6.982-4.655-11.636-11.636-11.636h-23.273
			v-93.091c0-6.982-4.655-11.636-11.636-11.636s-11.636,4.655-11.636,11.636v93.091h-23.273c-6.982,0-11.636,4.655-11.636,11.636
			v5.818c-5.818-1.164-11.636-3.491-16.291-4.655L252.509,290.909z M69.818,360.727h46.545v11.636
			c0,6.982-4.655,11.636-11.636,11.636H81.455c-6.982,0-11.636-4.655-11.636-11.636V360.727z M69.818,232.727v11.636
			c0,6.982-4.655,11.636-11.636,11.636H34.909c-6.982,0-11.636-4.655-11.636-11.636v-11.636H69.818z M116.364,104.727
			c0,6.982-4.655,11.636-11.636,11.636H81.455c-6.982,0-11.636-4.655-11.636-11.636V93.091h46.545V104.727z M279.273,34.909
			c0,6.982-4.655,11.636-11.636,11.636h-23.273c-6.982,0-11.636-4.655-11.636-11.636V23.273h46.545V34.909z M442.182,104.727
			c0,6.982-4.655,11.636-11.636,11.636h-23.273c-6.982,0-11.636-4.655-11.636-11.636V93.091h46.545V104.727z M442.182,372.364
			c0,6.982-4.655,11.636-11.636,11.636h-23.273c-6.982,0-11.636-4.655-11.636-11.636v-11.636h46.545V372.364z M488.727,244.364
			c0,6.982-4.655,11.636-11.636,11.636h-23.273c-6.982,0-11.636-4.655-11.636-11.636v-11.636h46.545V244.364z"/>
	</g>
</g>
</svg>