<?xml version="1.0" encoding="iso-8859-1"?>
<!-- Uploaded to: SVG Repo, www.svgrepo.com, Generator: SVG Repo Mixer Tools -->
<svg version="1.1" id="Layer_1" xmlns="http://www.w3.org/2000/svg" xmlns:xlink="http://www.w3.org/1999/xlink" 
	 viewBox="0 0 512 512" xml:space="preserve">
<path style="fill:#2D8B99;" d="M512,486.4c0,14.136-11.464,25.6-25.6,25.6H25.6C11.464,512,0,500.536,0,486.4V40.96
	c0-14.136,11.464-25.6,25.6-25.6h460.8c14.136,0,25.6,11.464,25.6,25.6V486.4z"/>
<path style="fill:#39AEC0;" d="M512,471.04c0,14.136-11.464,25.6-25.6,25.6H25.6c-14.136,0-25.6-11.464-25.6-25.6V25.6
	C0,11.464,11.464,0,25.6,0h460.8C500.536,0,512,11.464,512,25.6V471.04z"/>
<g>
	<path style="fill:#339EAE;" d="M512,143.892L433.971,62.93l0,0l0,0l-161.787,40.238l28.129,28.129L183.706,247.905l26.138,26.138
		l2.028,2.027l-35.584,35.584l-0.113-0.026c-0.476-1.352-24.484-25.359-25.836-25.836c-0.65-1.848-2.365-3.185-4.439-3.185
		c-2.627,0-4.751,2.125-4.751,4.751v33.761c0,1.311,0.532,2.504,1.393,3.359c0.497,0.497,9.733,9.452,10.409,9.687l0.251,0.573
		l-8.156,8.156l-0.225-0.225l-34.447-34.447l0,0l-5.74-5.74c-1.859-1.859-4.864-1.859-6.723,0c-1.859,1.859-1.859,4.864,0,6.723
		L285.343,496.64H486.4c14.136,0,25.6-11.464,25.6-25.6V143.892z"/>
	<path style="fill:#339EAE;" d="M120.98,348.908c-0.65-1.848-2.365-3.185-4.439-3.185H82.78c-2.627,0-4.751,2.125-4.751,4.751
		c0,1.311,0.532,2.499,1.393,3.359c0.497,0.497,28.027,27.73,28.298,28.099l-9.81,9.81c-1.859,1.853-1.859,4.864,0,6.723
		c0.517,0.527,98.217,97.992,98.529,98.176h72.827C268.861,496.184,122.327,349.389,120.98,348.908z"/>
</g>
<g>
	<polygon style="fill:#EC600B;" points="393.738,224.717 272.184,103.168 433.971,62.93 	"/>
	
		<rect x="228.502" y="139.786" transform="matrix(-0.7071 -0.7071 0.7071 -0.7071 311.7658 573.6241)" style="fill:#EC600B;" width="92.364" height="164.914"/>
</g>
<rect x="174.747" y="265.943" transform="matrix(-0.7071 -0.7071 0.7071 -0.7071 85.8178 667.1856)" style="fill:#BD221F;" width="12.682" height="99.752"/>
<g>
	<path style="fill:#FBD800;" d="M121.779,333.076l-23.875-23.875c-1.859-1.859-1.859-4.864,0-6.723c1.859-1.859,4.864-1.859,6.723,0
		l23.875,23.875c1.859,1.859,1.859,4.864,0,6.723C126.643,334.935,123.638,334.935,121.779,333.076z"/>
	<path style="fill:#FBD800;" d="M79.416,353.838c-0.86-0.86-1.393-2.048-1.393-3.359c0-2.627,2.125-4.751,4.751-4.751h33.761
		c2.627,0,4.751,2.125,4.751,4.751s-2.125,4.751-4.751,4.751H82.775C81.464,355.231,80.276,354.698,79.416,353.838z"/>
	<path style="fill:#FBD800;" d="M97.905,398.469c-1.859-1.859-1.859-4.864,0-6.723l23.875-23.875c1.859-1.859,4.864-1.859,6.723,0
		c1.859,1.859,1.859,4.864,0,6.723l-23.875,23.875C102.774,400.328,99.763,400.328,97.905,398.469z"/>
	<path style="fill:#FBD800;" d="M142.541,416.957c-0.86-0.86-1.393-2.048-1.393-3.359v-33.761c0-2.627,2.125-4.751,4.751-4.751
		s4.751,2.125,4.751,4.751v33.761c0,2.627-2.125,4.751-4.751,4.751C144.589,418.35,143.401,417.818,142.541,416.957z"/>
	<path style="fill:#FBD800;" d="M187.172,398.469l-23.875-23.875c-1.859-1.859-1.859-4.864,0-6.723c1.859-1.859,4.864-1.859,6.723,0
		l23.875,23.875c1.859,1.859,1.859,4.864,0,6.723C192.036,400.328,189.03,400.328,187.172,398.469z"/>
	<path style="fill:#FBD800;" d="M171.899,353.838c-0.86-0.86-1.393-2.048-1.393-3.359c0-2.627,2.125-4.751,4.751-4.751h33.761
		c2.627,0,4.751,2.125,4.751,4.751s-2.125,4.751-4.751,4.751h-33.761C173.947,355.231,172.759,354.698,171.899,353.838z"/>
	<path style="fill:#FBD800;" d="M142.541,324.48c-0.86-0.86-1.393-2.048-1.393-3.359V287.36c0-2.627,2.125-4.751,4.751-4.751
		s4.751,2.125,4.751,4.751v33.761c0,2.627-2.125,4.751-4.751,4.751C144.589,325.873,143.401,325.34,142.541,324.48z"/>
</g>
<polygon style="fill:#DD3800;" points="332.698,163.676 300.314,131.297 279.404,152.207 311.788,184.591 216.09,280.284 
	249.001,313.196 344.694,217.503 365.609,196.588 "/>
<path style="fill:#FBD800;" d="M249.001,313.196l14.828-14.828l-36.055-6.4L249.001,313.196z M246.164,185.446l-16.548,16.548
	l110.904,19.681l16.548-16.548L246.164,185.446z M333.343,164.326l-56.1-9.958l-16.548,16.548l96.343,17.101L333.343,164.326z
	 M198.533,233.078l110.904,19.681l16.548-16.548l-110.904-19.686L198.533,233.078z M183.706,247.905l23.265,23.265l71.383,12.672
	l16.548-16.548l-110.904-19.681L183.706,247.905z"/>
<polygon style="fill:#DD3800;" points="433.971,62.93 332.964,163.942 393.738,224.717 "/>
<g>
	<polygon style="fill:#EFB300;" points="305.408,178.852 357.038,188.017 333.343,164.326 281.718,155.162 	"/>
	<polygon style="fill:#EFB300;" points="222.904,273.997 278.359,283.837 294.907,267.29 239.457,257.449 	"/>
	<polygon style="fill:#EFB300;" points="249.001,313.196 263.828,298.368 227.773,291.973 	"/>
	<polygon style="fill:#EFB300;" points="301.614,195.287 285.066,211.84 340.516,221.681 357.069,205.133 	"/>
	<polygon style="fill:#EFB300;" points="253.988,242.918 309.437,252.759 325.985,236.211 270.536,226.371 	"/>
</g>
</svg>