<?xml version="1.0" encoding="iso-8859-1"?>
<!-- Uploaded to: SVG Repo, www.svgrepo.com, Generator: SVG Repo Mixer Tools -->
<svg height="800px" width="800px" version="1.1" id="Layer_1" xmlns="http://www.w3.org/2000/svg" xmlns:xlink="http://www.w3.org/1999/xlink" 
	 viewBox="0 0 512 512" xml:space="preserve">
<path style="fill:#C9E7F8;" d="M439.428,69.992c25.957-3.914,41.215-8.695,41.215-13.857c0-13.254-100.577-23.998-224.644-23.998
	S31.356,42.881,31.356,56.135c0,5.162,15.258,9.943,41.215,13.857C27.67,116.111,0,179.091,0,248.543
	c0,72.134,29.838,137.295,77.842,183.823c31.604,30.632,74.064,47.495,118.078,47.495H316.08c44.014,0,86.473-16.863,118.078-47.495
	C482.162,385.837,512,320.677,512,248.543C512,179.091,484.33,116.111,439.428,69.992z"/>
<path style="fill:#A2D8F4;" d="M316.08,479.861c44.014,0,86.473-16.863,118.078-47.495C482.163,385.837,512,320.677,512,248.543
	c0-69.452-27.67-132.432-72.572-178.551C398.737,76.128,331.748,80.133,256,80.133S113.263,76.128,72.572,69.992
	C27.67,116.111,0,179.091,0,248.543c0,72.134,29.838,137.295,77.842,183.823c31.604,30.632,74.064,47.495,118.078,47.495
	L316.08,479.861L316.08,479.861z"/>
<path style="fill:#88C7E2;" d="M439.428,69.992c-6.604,0.996-13.912,1.934-21.825,2.81c43.318,45.853,69.899,107.684,69.899,175.742
	c0,72.134-29.838,137.295-77.842,183.823c-31.604,30.632-74.064,47.495-118.078,47.495h24.498
	c44.014,0,86.473-16.863,118.078-47.495C482.162,385.838,512,320.678,512,248.544C512,179.091,484.33,116.111,439.428,69.992z"/>
<path style="fill:#FDBF00;" d="M375.869,282.248l-40.563,33.305c-11.884-13.708-33.188-24.175-58.963-28.522l-3.154-19.236
	c-0.486-2.961-3.772-4.532-6.381-3.051l-39.015,22.143l0.066,0.024c-42.523,8.128-74.217,38.045-74.217,53.762
	c0,14.631,31.752,45.381,74.333,53.72l-0.182,0.067l39.015,22.143c2.609,1.481,5.895-0.091,6.381-3.051l3.154-19.236
	c25.773-4.347,47.079-14.815,58.963-28.522l40.572,33.312c3.251,2.669,8.009-0.421,6.89-4.477l-14.893-54.024l14.884-53.879
	C383.879,282.671,379.121,279.577,375.869,282.248z"/>
<path style="fill:#FEDA2E;" d="M367.875,340.606l14.884-53.879c1.121-4.056-3.638-7.149-6.89-4.48l-40.563,33.305
	c-11.884-13.708-33.188-24.175-58.963-28.522l-3.154-19.236c-0.486-2.96-3.772-4.532-6.381-3.051l-39.015,22.143l0.066,0.024
	c-42.523,8.128-74.217,38.045-74.217,53.762h214.251L367.875,340.606z"/>
<path style="fill:#FED9A8;" d="M153.643,340.74c0,12.914,24.739,38.38,59.824,49.916c11.734-13.252,18.871-30.741,18.871-49.916
	c0-19.238-7.183-36.78-18.987-50.048C178.327,301.946,153.643,326.869,153.643,340.74z"/>
<circle style="fill:#4D4D4D;" cx="201.345" cy="313.865" r="5.519"/>
<g>
	<circle style="fill:#FFFFFF;" cx="114.299" cy="298.024" r="15.625"/>
	<circle style="fill:#FFFFFF;" cx="95.613" cy="220.04" r="21.659"/>
	<circle style="fill:#FFFFFF;" cx="204.772" cy="198.37" r="21.659"/>
</g>
</svg>