<?xml version="1.0" encoding="iso-8859-1"?>
<!-- Uploaded to: SVG Repo, www.svgrepo.com, Generator: SVG Repo Mixer Tools -->
<svg fill="#000000" height="800px" width="800px" version="1.1" id="Capa_1" xmlns="http://www.w3.org/2000/svg" xmlns:xlink="http://www.w3.org/1999/xlink" 
	 viewBox="0 0 463 463" xml:space="preserve">
<g>
	<path d="M215.5,65.58c1.97,0,3.91-0.8,5.3-2.2c1.4-1.39,2.2-3.32,2.2-5.3c0-1.98-0.8-3.91-2.2-5.3c-1.39-1.4-3.32-2.2-5.3-2.2
		s-3.91,0.8-5.3,2.2c-1.4,1.39-2.2,3.329-2.2,5.3c0,1.979,0.8,3.91,2.2,5.3C211.59,64.78,213.53,65.58,215.5,65.58z"/>
	<path d="M264.428,373.725C274.533,347.269,319,226.613,319,152.016c0-53.22-18.1-91.212-33.283-113.712
		c-16.579-24.567-33.193-36.439-33.893-36.933c-2.299-1.622-5.311-1.82-7.803-0.517c-2.492,1.305-4.044,3.894-4.021,6.707
		c0.045,5.464,0.087,12.306,0.101,17.894c-13.304-7.29-17.227-19.492-17.405-20.069c-0.682-2.322-2.442-4.173-4.728-4.969
		c-2.285-0.796-4.815-0.441-6.792,0.954c-0.699,0.493-17.314,12.365-33.893,36.933C162.1,60.804,144,98.797,144,152.016
		c0,74.597,44.467,195.253,54.572,221.709C187.558,383.602,160,412.603,160,455.5c0,2.6,1.346,5.014,3.557,6.38
		c2.211,1.366,4.971,1.491,7.297,0.328l60.646-30.322l60.646,30.322c1.059,0.529,2.208,0.792,3.354,0.792
		c1.372,0,2.739-0.376,3.943-1.12c2.211-1.366,3.557-3.78,3.557-6.38C303,412.603,275.442,383.602,264.428,373.725z M189.33,47.27
		c8.804-13.162,17.689-22.399,23.579-27.822c5.031,8.274,14.856,19.473,32.671,24.205c2.261,0.6,4.674,0.107,6.521-1.326
		c2.967-2.304,2.976-4.532,3-10.488c0.008-2.113,0.005-4.761-0.003-7.527c5.383,5.497,11.999,13.134,18.571,22.959
		c4.016,6.005,8.255,13.221,12.251,21.628C271.679,81.045,251.95,88,231.5,88s-40.179-6.955-54.42-19.101
		C181.075,60.491,185.314,53.275,189.33,47.27z M234.854,416.792c-2.111-1.057-4.597-1.057-6.708,0l-52.17,26.085
		c5.821-37.48,35.715-60.625,36.039-60.871c2.691-2.028,3.699-5.604,2.463-8.739C213.923,371.859,159,231.563,159,152.016
		c0-27.294,5.101-50.214,12.005-68.747c13.924,10.672,31.055,17.283,49.544,19.157c0.279,0.428,0.605,0.834,0.981,1.21
		l52.667,52.667c1.464,1.464,3.384,2.196,5.303,2.196c1.919,0,3.839-0.732,5.303-2.196c2.929-2.93,2.929-7.678,0-10.607
		l-43.18-43.181c18.806-1.758,36.239-8.415,50.372-19.246C298.899,101.803,304,124.723,304,152.016
		c0,79.515-54.923,219.843-55.478,221.251c-1.231,3.125-0.223,6.697,2.452,8.729c0.334,0.254,30.23,23.399,36.051,60.88
		L234.854,416.792z"/>
	<path d="M267.558,213.665c1.464,1.464,3.384,2.196,5.303,2.196c1.919,0,3.839-0.732,5.303-2.196c2.929-2.93,2.929-7.678,0-10.607
		l-86.866-86.866c-2.929-2.927-7.678-2.929-10.606,0c-2.929,2.93-2.929,7.678,0,10.607L267.558,213.665z"/>
	<path d="M260.385,267.385c1.919,0,3.839-0.732,5.303-2.196c2.929-2.93,2.929-7.678,0-10.607l-74.39-74.39
		c-2.929-2.928-7.678-2.928-10.606,0c-2.929,2.93-2.929,7.678,0,10.607l74.39,74.39
		C256.546,266.652,258.466,267.385,260.385,267.385z"/>
	<path d="M250.72,303.613l-41.085-41.085c-2.929-2.928-7.678-2.928-10.606,0c-2.929,2.93-2.929,7.678,0,10.607l41.085,41.085
		c1.464,1.464,3.384,2.196,5.303,2.196s3.839-0.732,5.303-2.196C253.649,311.291,253.649,306.543,250.72,303.613z"/>
</g>
</svg>