<?xml version="1.0" encoding="iso-8859-1"?>
<!-- Uploaded to: SVG Repo, www.svgrepo.com, Generator: SVG Repo Mixer Tools -->
<svg height="800px" width="800px" version="1.1" id="Layer_1" xmlns="http://www.w3.org/2000/svg" xmlns:xlink="http://www.w3.org/1999/xlink" 
	 viewBox="0 0 512 512" xml:space="preserve">
<g transform="translate(-1)">
	<path style="fill:#D13834;" d="M257,0C115.617,0,1,114.617,1,256s114.617,256,256,256s256-114.617,256-256S398.383,0,257,0"/>
	<g>
		<path style="fill:#ED7161;" d="M291.576,277.5c3.505,3.39,3.602,8.978,0.221,12.482c-3.39,3.505-8.978,3.602-12.482,0.221
			c-3.513-3.39-16.305-21.239-12.924-24.744C269.781,261.946,288.071,274.111,291.576,277.5"/>
		<path style="fill:#ED7161;" d="M235.5,290.576c-3.39,3.505-8.978,3.602-12.482,0.221c-3.505-3.39-3.602-8.978-0.221-12.482
			c3.39-3.513,21.239-16.305,24.744-12.924C251.054,268.781,238.889,287.071,235.5,290.576"/>
		<path style="fill:#ED7161;" d="M222.424,234.5c-3.505-3.39-3.602-8.978-0.221-12.482c3.39-3.505,8.978-3.602,12.482-0.221
			c3.513,3.39,16.305,21.239,12.924,24.744C244.219,250.054,225.929,237.889,222.424,234.5"/>
		<path style="fill:#ED7161;" d="M278.5,221.424c3.39-3.505,8.978-3.602,12.482-0.221c3.505,3.39,3.602,8.978,0.221,12.482
			c-3.39,3.513-21.239,16.305-24.744,12.924C262.946,243.219,275.111,224.929,278.5,221.424"/>
		<path style="fill:#ED7161;" d="M447.892,238.345H342.244c-15.722,0-23.605-19.015-12.482-30.137l74.664-74.664
			c7.68-7.68,20.612-6.815,26.792,2.11c16.79,24.223,28.646,52.092,34.136,82.167C467.313,228.537,458.785,238.345,447.892,238.345"
			/>
		<path style="fill:#ED7161;" d="M274.655,170.753V65.104c0-10.884,9.807-19.412,20.524-17.461
			c30.076,5.5,57.944,17.355,82.167,34.136c8.925,6.188,9.79,19.112,2.11,26.792l-74.664,74.664
			C293.67,194.358,274.655,186.484,274.655,170.753"/>
		<path style="fill:#ED7161;" d="M209.206,183.238l-74.664-74.664c-7.68-7.68-6.815-20.612,2.11-26.792
			c24.223-16.781,52.1-28.637,82.167-34.136c10.717-1.951,20.524,6.568,20.524,17.461v105.649
			C239.343,186.486,220.328,194.361,209.206,183.238"/>
		<path style="fill:#ED7161;" d="M239.345,341.247v105.649c0,10.884-9.807,19.412-20.524,17.452
			c-30.076-5.491-57.944-17.346-82.167-34.127c-8.925-6.188-9.825-19.085-2.145-26.765c18.361-18.353,50.776-50.776,74.726-74.717
			C220.348,317.616,239.345,325.516,239.345,341.247"/>
		<path style="fill:#ED7161;" d="M304.794,328.762l74.664,74.664c7.68,7.68,6.815,20.612-2.11,26.792
			c-24.223,16.781-52.1,28.637-82.167,34.136c-10.717,1.951-20.524-6.568-20.524-17.461V341.244
			C274.657,325.514,293.672,317.64,304.794,328.762"/>
		<path style="fill:#ED7161;" d="M109.543,133.512c18.353,18.353,50.776,50.776,74.717,74.717
			c11.123,11.123,3.222,30.12-12.509,30.12H66.111c-10.893,0-19.421-9.816-17.461-20.524c5.491-30.076,17.346-57.944,34.127-82.176
			C88.966,126.724,101.863,125.832,109.543,133.512"/>
		<path style="fill:#ED7161;" d="M66.108,273.655h105.649c15.722,0,23.605,19.015,12.482,30.137l-74.664,74.664
			c-7.68,7.68-20.612,6.815-26.792-2.11c-16.79-24.223-28.646-52.092-34.136-82.167C46.687,283.463,55.215,273.655,66.108,273.655"
			/>
		<path style="fill:#ED7161;" d="M404.457,378.488c-18.353-18.353-50.776-50.776-74.717-74.717
			c-11.123-11.123-3.222-30.12,12.509-30.12h105.64c10.893,0,19.421,9.816,17.461,20.524c-5.491,30.076-17.346,57.944-34.127,82.167
			C425.034,385.276,412.137,386.168,404.457,378.488"/>
	</g>
</g>
</svg>