<?xml version="1.0" encoding="iso-8859-1"?>
<!-- Uploaded to: SVG Repo, www.svgrepo.com, Generator: SVG Repo Mixer Tools -->
<svg height="800px" width="800px" version="1.1" id="Layer_1" xmlns="http://www.w3.org/2000/svg" xmlns:xlink="http://www.w3.org/1999/xlink" 
	 viewBox="0 0 512.007 512.007" xml:space="preserve">
<g transform="translate(0 -1)">
	<g>
		<path style="fill:#472914;" d="M127.992,513.007c-1.677,0-3.381-0.477-4.89-1.483c-4.052-2.701-5.146-8.183-2.445-12.244
			l35.31-52.966c0.856-1.28,2.022-2.304,3.399-3.001l35.31-17.655c4.37-2.18,9.657-0.406,11.847,3.955
			c2.18,4.361,0.406,9.657-3.955,11.847l-33.209,16.605l-34.013,51.015C133.642,511.63,130.844,513.007,127.992,513.007"/>
		<path style="fill:#472914;" d="M375.182,513.007c-2.851,0-5.65-1.377-7.353-3.928l-34.013-51.015l-33.209-16.605
			c-4.361-2.189-6.135-7.486-3.955-11.847c2.189-4.361,7.486-6.135,11.847-3.955l35.31,17.655c1.377,0.697,2.542,1.721,3.399,3.001
			l35.31,52.966c2.701,4.061,1.607,9.543-2.445,12.244C378.563,512.53,376.86,513.007,375.182,513.007"/>
		<path style="fill:#472914;" d="M410.484,221.696c-0.715,0-1.43-0.088-2.136-0.265l-70.63-17.655
			c-4.723-1.183-7.601-5.976-6.418-10.708c1.192-4.723,6.003-7.609,10.708-6.418l66.825,16.702l76.2-50.794
			c4.061-2.719,9.543-1.607,12.244,2.445c2.71,4.061,1.615,9.543-2.445,12.244l-79.448,52.966
			C413.918,221.184,412.205,221.696,410.484,221.696"/>
		<path style="fill:#472914;" d="M498.769,424.731c-0.415,0-0.839-0.026-1.262-0.088l-61.793-8.828
			c-1.368-0.194-2.675-0.715-3.805-1.51l-88.276-61.793c-3.999-2.798-4.97-8.298-2.172-12.288c2.798-3.99,8.298-4.961,12.288-2.172
			l86.554,60.584l59.71,8.527c4.82,0.689,8.174,5.164,7.486,9.993C506.872,421.553,503.094,424.731,498.769,424.731"/>
		<path style="fill:#472914;" d="M489.932,336.459c-0.918,0-1.863-0.15-2.79-0.459l-26.483-8.828
			c-0.618-0.203-1.201-0.468-1.757-0.803l-42.823-25.697l-42.637-8.527c-0.768-0.15-1.518-0.406-2.216-0.759l-17.655-8.828
			c-4.361-2.18-6.135-7.486-3.955-11.847c2.18-4.361,7.477-6.135,11.847-3.946l16.605,8.298l42.973,8.598
			c0.997,0.203,1.942,0.565,2.816,1.086l43.299,25.98l25.565,8.527c4.626,1.545,7.124,6.541,5.579,11.167
			C497.074,334.12,493.631,336.459,489.932,336.459"/>
		<path style="fill:#472914;" d="M101.518,221.696c-1.73,0-3.434-0.512-4.899-1.483l-79.448-52.966
			c-4.052-2.701-5.146-8.183-2.445-12.244c2.71-4.052,8.183-5.164,12.244-2.445l76.2,50.794l66.825-16.702
			c4.723-1.192,9.525,1.695,10.708,6.418c1.183,4.732-1.695,9.525-6.418,10.708l-70.621,17.655
			C102.957,221.608,102.233,221.696,101.518,221.696"/>
		<path style="fill:#472914;" d="M13.229,424.731c-4.317,0-8.095-3.178-8.722-7.574c-0.689-4.829,2.657-9.304,7.486-9.993
			l59.71-8.527l86.546-60.584c3.999-2.789,9.498-1.818,12.297,2.172c2.79,3.99,1.818,9.49-2.172,12.288l-88.276,61.793
			c-1.139,0.794-2.445,1.315-3.814,1.51l-61.793,8.828C14.068,424.704,13.644,424.731,13.229,424.731"/>
		<path style="fill:#472914;" d="M22.07,336.459c-3.699,0-7.142-2.339-8.377-6.038c-1.545-4.626,0.962-9.622,5.588-11.167
			l25.565-8.527l43.299-25.98c0.874-0.521,1.818-0.883,2.816-1.086l42.973-8.598l16.605-8.298c4.37-2.189,9.666-0.415,11.847,3.946
			c2.18,4.361,0.406,9.666-3.955,11.847l-17.655,8.828c-0.697,0.353-1.448,0.609-2.216,0.759l-42.637,8.527l-42.823,25.697
			c-0.556,0.335-1.148,0.6-1.757,0.803L24.86,336C23.933,336.309,22.988,336.459,22.07,336.459"/>
		<path style="fill:#472914;" d="M295.717,80.455c-4.122,0-7.812-2.904-8.642-7.097c-0.962-4.776,2.136-9.428,6.921-10.381
			l40.554-8.113l33.28-49.929c2.701-4.052,8.174-5.164,12.244-2.445c4.052,2.701,5.146,8.183,2.445,12.244l-35.31,52.966
			c-1.298,1.942-3.319,3.302-5.614,3.752l-44.138,8.828C296.873,80.402,296.29,80.455,295.717,80.455"/>
		<path style="fill:#472914;" d="M207.458,80.455c-0.574,0-1.156-0.053-1.739-0.177l-44.138-8.828
			c-2.295-0.45-4.317-1.81-5.614-3.752l-35.31-52.966c-2.701-4.061-1.607-9.543,2.445-12.244c4.052-2.719,9.534-1.607,12.244,2.445
			l33.28,49.929l40.554,8.113c4.785,0.953,7.883,5.606,6.921,10.381C215.271,77.551,211.581,80.455,207.458,80.455"/>
	</g>
	<path style="fill:#805333;" d="M251.587,142.248c0,0,43.193-3.134,79.625,26.483l8.651,8.828v-52.966
		c0-34.94-44.138-52.966-44.138-52.966c0-36.785-44.138-35.31-44.138-35.31s-44.138-1.474-44.138,35.31
		c0,0-44.138,18.026-44.138,52.966v52.966l8.651-8.828C208.394,139.114,251.587,142.248,251.587,142.248"/>
	<path style="fill:#633C21;" d="M250.173,195.266c0.468,0,0.945-0.053,1.412-0.053c0.468,0,0.945,0.053,1.412,0.053
		c7.874-0.256,50.723-0.318,88.903,24.038c1.148-1.677,2.101-3.716,2.904-5.994c7.892-22.457-2.578-46.892-22.431-60.01
		c-34.225-22.616-70.788-19.88-70.788-19.88s-36.564-2.737-70.788,19.88c-19.844,13.118-30.314,37.553-22.431,60.01
		c0.803,2.278,1.766,4.317,2.913,5.994C199.45,194.948,242.299,195.01,250.173,195.266"/>
	<path style="fill:#805333;" d="M145.031,290.028l0.009-0.009c1.818-2.692,3.875-5.217,6.356-7.406
		c42.072-37.191,100.193-34.436,100.193-34.436s58.112-3.672,100.14,34.428c2.366,2.145,4.352,4.608,6.118,7.203
		c0.097,0.088,0.185,0.159,0.282,0.247c1.818-2.348,3.249-5.597,4.361-9.322c7.795-26.006-5.244-53.698-29.14-66.578
		c-39.883-21.495-81.761-18.838-81.761-18.838s-41.878-2.657-81.761,18.838c-23.879,12.871-36.926,40.554-29.158,66.542
		C141.792,284.431,143.213,287.671,145.031,290.028"/>
	<g>
		<path style="fill:#633C21;" d="M351.725,282.601c-42.019-38.1-100.14-34.419-100.14-34.419s-58.112-2.763-100.193,34.428
			c-11.802,10.434-7.009,29.316-5.738,45.021l8.828,35.31c42.081-37.191,97.103-52.877,97.103-52.877s48.207-2.313,90.236,35.787
			c2.701,2.436,4.943,5.244,6.868,8.263c4.767-6.338,8.007-16.446,8.828-26.483C358.805,311.9,363.413,293.203,351.725,282.601"/>
		<path style="fill:#633C21;" d="M339.863,407.076c0,24.373-39.521,44.138-88.276,44.138s-88.276-19.765-88.276-44.138
			c0-24.373,39.521-44.138,88.276-44.138S339.863,382.703,339.863,407.076"/>
	</g>
	<path style="fill:#805333;" d="M336.342,335.662c-35.566-38.1-84.754-34.419-84.754-34.419s-49.187-2.763-84.807,34.428
		c-9.984,10.434-13.356,27.339-12.279,43.043c0.742,10.814,2.71,22.422,7.424,28.504c0,0,0.583-0.327,1.457-0.803
		c0.706-24.064,39.901-43.476,88.205-43.476s87.499,19.412,88.205,43.476c0.874,0.477,1.448,0.803,1.448,0.803
		c4.714-6.073,6.682-17.664,7.424-28.451C349.751,363.037,346.238,346.264,336.342,335.662"/>
</g>
</svg>