<?xml version="1.0" encoding="iso-8859-1"?>
<!-- Generator: Adobe Illustrator 19.0.0, SVG Export Plug-In . SVG Version: 6.00 Build 0)  -->
<svg version="1.1" id="Layer_1" xmlns="http://www.w3.org/2000/svg" xmlns:xlink="http://www.w3.org/1999/xlink" x="0px" y="0px"
	 viewBox="0 0 512 512" style="enable-background:new 0 0 512 512;" xml:space="preserve">
<path style="fill:#628C5F;" d="M239.255,465.959c84.193,40.37,130.803-41.784,145.116-63.165
	C358.969,398.7,267.083,376.829,239.255,465.959"/>
<path style="fill:#84BF7E;" d="M272.744,396.925c-27.827-89.129-119.714-67.259-145.116-63.165
	C141.941,355.141,188.551,437.295,272.744,396.925"/>
<rect x="239.304" y="247.641" style="fill:#A4D95E;" width="33.391" height="264.359"/>
<path style="fill:#CA3486;" d="M400.716,144.717c0-20.575-10.855-38.61-27.148-48.703c4.381-18.656-0.691-39.081-15.238-53.628
	c-14.546-14.545-34.971-19.619-53.626-15.238C294.611,10.856,276.574,0,255.999,0s-38.611,10.856-48.705,27.149
	c-18.655-4.382-39.079,0.691-53.625,15.238c-14.546,14.546-19.618,34.972-15.238,53.628c-16.294,10.092-27.148,28.129-27.148,48.703
	s10.856,38.611,27.148,48.703c-4.381,18.656,0.691,39.081,15.238,53.628c11.179,11.179,25.831,16.768,40.482,16.768
	c4.413,0,8.825-0.516,13.143-1.53c10.093,16.294,28.13,27.148,48.705,27.148s38.611-10.855,48.703-27.148
	c4.319,1.014,8.73,1.53,13.143,1.53c14.651,0,29.305-5.591,40.484-16.768c14.546-14.546,19.618-34.972,15.238-53.628
	C389.861,183.328,400.716,165.291,400.716,144.717z"/>
<path style="fill:#952967;" d="M400.716,144.717c0-20.575-10.854-38.611-27.148-48.703c4.381-18.656-0.691-39.081-15.238-53.628
	c-14.546-14.545-34.971-19.619-53.626-15.238C294.611,10.856,276.574,0,255.999,0v289.434c20.575,0,38.611-10.856,48.703-27.148
	c4.319,1.014,8.73,1.53,13.143,1.53c14.65,0,29.305-5.591,40.484-16.768c14.546-14.546,19.618-34.972,15.238-53.628
	C389.861,183.328,400.716,165.291,400.716,144.717z"/>
<circle style="fill:#F1D849;" cx="255.999" cy="144.718" r="57.355"/>
<path style="fill:#E8BA44;" d="M255.999,87.365c31.674,0,57.352,25.678,57.352,57.352c0,31.675-25.678,57.352-57.352,57.352
	C255.999,166.957,255.999,122.435,255.999,87.365z"/>
<g>
</g>
<g>
</g>
<g>
</g>
<g>
</g>
<g>
</g>
<g>
</g>
<g>
</g>
<g>
</g>
<g>
</g>
<g>
</g>
<g>
</g>
<g>
</g>
<g>
</g>
<g>
</g>
<g>
</g>
</svg>
