<?xml version="1.0" encoding="iso-8859-1"?>
<!-- Uploaded to: SVG Repo, www.svgrepo.com, Generator: SVG Repo Mixer Tools -->
<svg height="800px" width="800px" version="1.1" id="Layer_1" xmlns="http://www.w3.org/2000/svg" xmlns:xlink="http://www.w3.org/1999/xlink" 
	 viewBox="0 0 511.999 511.999" xml:space="preserve">
<g>
	<path style="fill:#EB87BF;" d="M356.966,161.198v14.952c0,55.762-45.204,100.965-100.965,100.965
		c-55.762,0-100.966-45.203-100.966-100.965V67.974L356.966,161.198z"/>
	<polygon style="fill:#EB87BF;" points="256,114.585 356.966,161.198 356.966,67.974 	"/>
	<polygon style="fill:#EB87BF;" points="324.558,82.936 311.181,13.569 209.232,92.994 256,114.585 	"/>
	<path style="fill:#EB87BF;" d="M209.232,92.994l42.014-32.732l-59.935-46.693l-10.788,55.944c-0.634,3.286-0.935,6.558-0.955,9.788
		l31.698,14.635L209.232,92.994z"/>
</g>
<path d="M256,332.738c-0.882,0-1.779-0.081-2.646-0.258c-0.868-0.176-1.723-0.434-2.551-0.773c-0.815-0.339-1.601-0.76-2.334-1.248
	c-0.748-0.502-1.44-1.058-2.064-1.682c-0.624-0.638-1.194-1.33-1.682-2.062c-0.487-0.746-0.909-1.533-1.248-2.347
	c-0.339-0.814-0.611-1.669-0.772-2.537c-0.178-0.882-0.271-1.764-0.271-2.646c0-0.896,0.094-1.777,0.271-2.659
	c0.161-0.868,0.433-1.723,0.772-2.537c0.339-0.814,0.761-1.601,1.248-2.347c0.488-0.733,1.058-1.425,1.682-2.062
	c0.624-0.624,1.316-1.194,2.064-1.682c0.733-0.488,1.518-0.909,2.334-1.248c0.828-0.339,1.682-0.597,2.551-0.773
	c1.737-0.353,3.541-0.353,5.292,0c0.868,0.176,1.723,0.434,2.536,0.773c0.828,0.339,1.615,0.76,2.347,1.248
	c0.746,0.488,1.438,1.058,2.062,1.682c0.625,0.638,1.195,1.33,1.682,2.062c0.488,0.746,0.909,1.533,1.248,2.347
	s0.611,1.669,0.773,2.537c0.176,0.882,0.271,1.764,0.271,2.659c0,0.882-0.095,1.764-0.271,2.646
	c-0.163,0.868-0.434,1.723-0.773,2.537c-0.339,0.814-0.76,1.601-1.248,2.347c-0.487,0.733-1.057,1.425-1.682,2.062
	c-0.624,0.624-1.316,1.18-2.062,1.682c-0.733,0.488-1.52,0.909-2.347,1.248c-0.814,0.339-1.668,0.597-2.536,0.773
	C257.777,332.657,256.882,332.738,256,332.738z"/>
<path style="fill:#7BD36A;" d="M364.109,476.952c-38.861,38.861-99.621,12.962-99.621,12.962s-25.899-60.76,12.962-99.621
	s127.768-41.108,127.768-41.108S402.972,438.091,364.109,476.952z"/>
<path d="M340.585,427.391c-0.882,0-1.777-0.095-2.646-0.271s-1.723-0.434-2.537-0.773c-0.826-0.339-1.613-0.76-2.346-1.248
	c-0.746-0.488-1.44-1.058-2.064-1.682c-0.624-0.638-1.194-1.33-1.681-2.062c-0.488-0.746-0.91-1.533-1.25-2.347
	c-0.339-0.814-0.609-1.669-0.772-2.537c-0.176-0.882-0.271-1.764-0.271-2.646c0-0.896,0.095-1.777,0.271-2.659
	c0.163-0.868,0.433-1.723,0.772-2.537c0.339-0.814,0.761-1.601,1.25-2.347c0.487-0.733,1.057-1.425,1.681-2.062
	c0.624-0.624,1.317-1.18,2.064-1.682c0.733-0.488,1.52-0.909,2.346-1.248c0.815-0.339,1.669-0.597,2.537-0.773
	c1.75-0.353,3.555-0.353,5.292,0c0.868,0.176,1.723,0.434,2.551,0.773c0.814,0.339,1.601,0.76,2.334,1.248
	c0.746,0.502,1.44,1.058,2.064,1.682c0.624,0.638,1.194,1.33,1.681,2.062c0.488,0.746,0.909,1.533,1.248,2.347
	c0.339,0.814,0.611,1.669,0.773,2.537c0.176,0.882,0.271,1.764,0.271,2.659c0,0.882-0.095,1.764-0.271,2.646
	c-0.163,0.868-0.434,1.723-0.773,2.537s-0.76,1.601-1.248,2.347c-0.487,0.733-1.057,1.425-1.681,2.062
	c-0.624,0.624-1.318,1.194-2.064,1.682c-0.733,0.488-1.52,0.909-2.334,1.248c-0.828,0.339-1.682,0.597-2.551,0.773
	S341.468,427.391,340.585,427.391z"/>
<path style="fill:#00D7DF;" d="M147.89,476.952c38.861,38.861,99.621,12.962,99.621,12.962s25.899-60.76-12.962-99.621
	s-127.768-41.108-127.768-41.108S109.029,438.091,147.89,476.952z"/>
<path d="M256,290.683c63.154,0,114.533-51.379,114.533-114.533v-14.952l0,0l0,0V67.974c0-4.628-2.358-8.936-6.256-11.43
	c-3.894-2.491-8.794-2.829-12.998-0.889l-16.678,7.7l-10.096-52.355c-0.894-4.636-4.134-8.473-8.553-10.133
	c-4.421-1.657-9.384-0.902-13.108,1.999l-51.596,40.196L199.65,2.865c-3.725-2.902-8.688-3.658-13.108-1.999
	c-4.419,1.659-7.659,5.498-8.553,10.133l-9.319,48.324l-7.947-3.669c-4.202-1.939-9.102-1.604-12.998,0.889
	c-3.898,2.494-6.256,6.802-6.256,11.43V176.15C141.467,239.304,192.846,290.683,256,290.683z M343.396,139.989l-55.025-25.404
	l41.873-19.332l0,0l13.152-6.072V139.989z M309.223,75.07l-45.88,21.182L256,99.641l-20.86-9.631l24.445-19.045l0.001-0.001
	l42.466-33.082L309.223,75.07z M200.441,37.882l28.727,22.381l-21.754,16.948l-13.368-6.171L200.441,37.882z M168.603,89.183
	l29.713,13.718l5.168,2.387c0.02,0.01,0.039,0.019,0.06,0.028l0.961,0.442l1.075,0.497l0,0c0.001,0,0.003,0.001,0.003,0.001
	l137.815,63.625v6.273c0,48.191-39.207,87.396-87.396,87.396s-87.396-39.206-87.396-87.396v-86.97H168.603z"/>
<path d="M414.812,339.59c-2.63-2.628-6.208-4.083-9.937-3.969c-3.799,0.095-92.403,2.799-135.306,43.419v-19.159
	c0-7.494-6.076-13.568-13.568-13.568c-7.492,0-13.568,6.075-13.568,13.568v19.159c-42.903-40.621-131.506-43.325-135.306-43.42
	c-3.753-0.107-7.311,1.341-9.937,3.969c-2.63,2.63-4.064,6.221-3.97,9.937c0.098,3.852,2.868,94.81,45.078,137.019
	c19.833,19.834,43.978,25.456,64.987,25.454c26.477-0.001,47.972-8.933,49.549-9.605c1.149-0.49,2.21-1.137,3.168-1.906
	c0.958,0.769,2.019,1.417,3.168,1.906c1.575,0.672,23.068,9.605,49.549,9.605c21.008,0,45.157-5.624,64.987-25.454
	c42.208-42.208,44.979-133.168,45.078-137.019C418.875,345.812,417.441,342.219,414.812,339.59z M157.485,467.358L157.485,467.358
	c-25.582-25.58-33.631-77.852-36.095-103.564c25.715,2.463,77.984,10.513,103.563,36.093c19.137,19.135,18.952,45.751,15.734,64.014
	l-30.896-30.896c-5.3-5.298-13.889-5.298-19.19,0c-5.298,5.298-5.298,13.89,0,19.19l30.966,30.966
	C203.35,486.424,176.765,486.637,157.485,467.358z M354.515,467.357L354.515,467.357c-19.134,19.135-45.75,18.951-64.014,15.733
	l30.896-30.896c5.298-5.298,5.298-13.89,0-19.19c-5.3-5.298-13.889-5.298-19.19,0l-30.966,30.966
	c-0.901-5.026-1.566-10.685-1.657-16.656c0.014-0.95,0.012-1.909,0.001-2.872c0.252-14.946,4.343-31.442,17.458-44.556
	c25.605-25.605,77.956-33.645,103.639-36.1C387.859,393.31,378.435,443.438,354.515,467.357z"/>
<path d="M171.415,427.391c-0.882,0-1.779-0.095-2.659-0.271c-0.856-0.176-1.711-0.434-2.537-0.773
	c-0.815-0.339-1.602-0.76-2.335-1.248c-0.746-0.488-1.438-1.058-2.062-1.682c-0.624-0.624-1.194-1.33-1.696-2.062
	c-0.488-0.746-0.896-1.533-1.235-2.347c-0.339-0.814-0.611-1.669-0.773-2.537c-0.176-0.882-0.27-1.764-0.27-2.659
	c0-0.882,0.094-1.764,0.27-2.646c0.163-0.868,0.434-1.723,0.773-2.537c0.339-0.814,0.746-1.601,1.235-2.347
	c0.502-0.733,1.072-1.438,1.696-2.062c0.624-0.624,1.316-1.194,2.062-1.682c0.733-0.488,1.52-0.909,2.335-1.248
	c0.826-0.339,1.681-0.597,2.537-0.773c1.75-0.353,3.554-0.353,5.304,0c0.87,0.176,1.725,0.434,2.537,0.773
	c0.828,0.339,1.615,0.76,2.347,1.248c0.746,0.488,1.438,1.058,2.062,1.682c0.624,0.624,1.194,1.33,1.682,2.062
	c0.488,0.746,0.909,1.533,1.248,2.347c0.339,0.814,0.611,1.669,0.773,2.537c0.176,0.882,0.271,1.764,0.271,2.646
	c0,0.896-0.095,1.777-0.271,2.659c-0.163,0.868-0.434,1.723-0.773,2.537c-0.339,0.814-0.76,1.601-1.248,2.347
	c-0.488,0.733-1.058,1.438-1.682,2.062c-0.624,0.624-1.316,1.194-2.062,1.682c-0.733,0.488-1.52,0.909-2.347,1.248
	c-0.814,0.339-1.668,0.597-2.537,0.773C173.192,427.296,172.297,427.391,171.415,427.391z"/>
</svg>