<?xml version="1.0" encoding="iso-8859-1"?>
<!-- Uploaded to: SVG Repo, www.svgrepo.com, Generator: SVG Repo Mixer Tools -->
<svg fill="#000000" height="800px" width="800px" version="1.1" id="Layer_1" xmlns="http://www.w3.org/2000/svg" xmlns:xlink="http://www.w3.org/1999/xlink" 
	 viewBox="0 0 511.997 511.997" xml:space="preserve">
<g>
	<g>
		<path d="M317.276,116.749c-60.041-37.086-139.059-18.406-176.145,41.643L13.344,365.291
			c-25.958,42.035-12.885,97.348,29.15,123.307c42.035,25.958,97.348,12.885,123.307-29.15l33.63-54.443
			c15.693-25.412,39.62-34.799,67.319-45.67c31.642-12.425,67.507-26.496,92.169-66.424
			C395.996,232.854,377.317,153.835,317.276,116.749z M337.133,279.446c-40.354,65.34-119.142,46.763-159.488,112.102
			c-13.449,21.777-17.357,28.109-33.63,54.443c-18.569,30.071-58.001,39.39-88.073,20.821
			c-30.071-18.569-39.39-58.001-20.821-88.073C46.087,360.982,149.349,193.788,162.9,171.841
			c29.713-48.111,92.8-63.027,140.919-33.314C351.939,168.24,366.846,231.335,337.133,279.446z"/>
	</g>
</g>
<g>
	<g>
		<path d="M484.683,132.895c-8.841-5.461-18.594-7.979-28.305-8.294c3.703-17.92-3.703-37.052-20.156-47.206
			c-9.233-5.7-19.729-7.441-29.722-6.025c-1.434-11.076-7.492-21.47-17.715-27.785c-10.214-6.306-22.212-7.074-32.759-3.405
			c-3.029-6.784-8.047-12.766-14.839-16.964c-13.577-8.38-30.37-7.253-42.59,1.519c-2.697-3.43-5.922-6.536-9.847-8.96
			c-18.014-11.128-41.719-5.521-52.847,12.493c-11.128,18.014-5.521,41.719,12.493,52.847c13.577,8.38,30.37,7.245,42.59-1.519
			c2.705,3.43,5.922,6.536,9.847,8.96c10.214,6.306,22.212,7.074,32.76,3.405c3.029,6.784,8.047,12.766,14.839,16.964
			c6.135,3.789,12.928,5.495,19.661,5.572c-0.324,15.352,7.066,30.49,21.052,39.125c4.062,2.509,8.397,4.07,12.8,5.154
			c-11.392,25.865-2.5,56.858,22.212,72.124c27.025,16.691,62.575,8.286,79.266-18.739
			C520.105,185.144,511.7,149.586,484.683,132.895z M279.465,55.164c-3.712,6.007-11.597,7.885-17.613,4.164
			c-6.016-3.712-7.876-11.605-4.164-17.613c3.712-6.016,11.605-7.876,17.613-4.164C281.317,41.264,283.177,49.157,279.465,55.164z
			 M331.902,62.605c-3.712,6.016-11.597,7.885-17.613,4.164c-6.016-3.712-7.876-11.605-4.164-17.613
			c3.712-6.016,11.605-7.876,17.613-4.164C333.754,48.705,335.614,56.598,331.902,62.605z M379.501,82.975
			c-3.712,6.016-11.605,7.885-17.613,4.164c-6.016-3.712-7.876-11.605-4.164-17.613c3.712-6.016,11.605-7.876,17.613-4.164
			C381.344,69.074,383.213,76.967,379.501,82.975z M402.601,131.836c-9.02-5.564-11.819-17.399-6.246-26.419
			c5.572-9.02,17.408-11.819,26.419-6.246c9.02,5.572,11.819,17.399,6.246,26.419C423.448,134.61,411.621,137.409,402.601,131.836z
			 M481.645,198.712c-9.284,15.036-29.005,19.695-44.041,10.411c-15.027-9.284-19.695-29.005-10.411-44.041
			s29.005-19.695,44.041-10.411C486.27,163.956,490.929,183.676,481.645,198.712z"/>
	</g>
</g>
</svg>