<?xml version="1.0" encoding="iso-8859-1"?>
<!-- Uploaded to: SVG Repo, www.svgrepo.com, Generator: SVG Repo Mixer Tools -->
<!DOCTYPE svg PUBLIC "-//W3C//DTD SVG 1.1//EN" "http://www.w3.org/Graphics/SVG/1.1/DTD/svg11.dtd">
<svg fill="#000000" version="1.1" id="Capa_1" xmlns="http://www.w3.org/2000/svg" xmlns:xlink="http://www.w3.org/1999/xlink" 
	 width="800px" height="800px" viewBox="0 0 479.967 479.967"
	 xml:space="preserve">
<g>
	<g>
		<path d="M165.384,42.781C160.006,18.893,138.998,0,113.851,0C88.678,0,67.645,18.939,62.299,42.869
			c-0.793-0.276-1.657-0.441-2.565-0.441c-3.564,0-6.456,2.338-6.456,5.23v14.12c0,2.891,2.892,5.235,6.456,5.235
			c0.024,0,0.046-0.014,0.076-0.014l11.205,36.71l1.771,0.689c0.731,0.284,18.15,6.989,42.613,6.989
			c14.391,0,28.241-2.342,41.168-6.943l2.166-0.777l5.701-33.855c0.375-1.008,0.713-2.05,0.996-3.152
			c0.691,0.201,1.402,0.347,2.174,0.347c3.641,0,6.6-2.338,6.6-5.237V47.658c0-2.892-2.952-5.23-6.6-5.23
			C166.811,42.428,166.083,42.579,165.384,42.781z M81.535,69.875h64.629v10.157c-29.535,10.449-56.607,2.637-64.629-0.203V69.875z
			 M81.535,61.357c0-5.646,4.576-10.223,10.219-10.223h44.192c5.643,0,10.219,4.576,10.219,10.223v0.667H81.535V61.357z
			 M151.753,97.799c-11.453,3.807-23.676,5.739-36.361,5.739c-18.637,0-33.151-4.224-38.012-5.835l-4.168-13.661
			c0.323,0.2,0.691,0.323,1.028,0.507c0.403,0.643,0.936,1.207,1.683,1.537c0.98,0.433,16.805,7.205,38.818,7.205
			c11.319,0,24.279-1.789,37.688-7.159c0.607-0.243,1.078-0.645,1.469-1.096L151.753,97.799z"/>
		<path d="M17.308,187.788c8.338,6.366,25.021,10.676,25.021,10.676s31.08,46.609,31.08,70.043h41.693h41.693
			c0-23.435,31.08-70.043,31.08-70.043s16.675-4.31,25.021-10.676c8.335-6.368,10.613-18.652,10.613-42.683
			c0-24.03-72.772-55.565-72.772-26.15c0,29.409-35.626,26.15-35.626,26.15s-35.626,3.258-35.626-26.15
			c0-29.415-72.773,2.12-72.773,26.15C6.71,169.135,8.973,181.42,17.308,187.788z"/>
		<path d="M301.526,67.008l11.193,36.71l1.779,0.689c0.737,0.285,18.142,6.989,42.61,6.989c14.398,0,28.244-2.339,41.169-6.943
			l2.163-0.773l5.703-33.867c0.369-1.008,0.705-2.043,0.981-3.144c0.689,0.2,1.411,0.344,2.177,0.344c3.643,0,6.6-2.336,6.6-5.235
			v-14.12c0-2.892-2.957-5.23-6.6-5.23c-0.782,0-1.52,0.159-2.217,0.353C401.712,18.893,380.705,0,355.562,0
			c-25.179,0-46.213,18.939-51.56,42.869c-0.789-0.282-1.655-0.449-2.568-0.449c-3.555,0-6.452,2.338-6.452,5.229v14.121
			c0,2.891,2.897,5.237,6.452,5.237C301.482,67.014,301.498,67.008,301.526,67.008z M387.883,80.032
			c-29.522,10.449-56.609,2.637-64.628-0.203v-9.948h64.628V80.032z M393.477,97.799c-11.453,3.807-23.68,5.739-36.351,5.739
			c-18.646,0-33.158-4.224-38.019-5.835l-4.164-13.661c0.324,0.2,0.678,0.323,1.014,0.507c0.405,0.643,0.934,1.207,1.688,1.537
			c0.981,0.433,16.803,7.205,38.82,7.205c11.316,0,24.272-1.789,37.689-7.159c0.597-0.243,1.074-0.637,1.463-1.096L393.477,97.799z
			 M323.255,61.357c0-5.646,4.576-10.223,10.219-10.223h44.198c5.643,0,10.211,4.576,10.211,10.223v0.667h-64.628V61.357z"/>
		<path d="M392.451,118.946c0,29.408-35.634,26.15-35.634,26.15s-35.618,3.258-35.618-26.15c0-29.415-72.775,2.12-72.775,26.15
			c0,24.03,2.276,36.323,10.616,42.683c8.335,6.366,25.019,10.676,25.019,10.676s31.077,46.608,31.077,70.036h41.697h41.689
			c0-23.428,31.081-70.036,31.081-70.036s16.676-4.31,25.022-10.676c8.34-6.368,10.612-18.653,10.612-42.683
			C465.238,121.066,392.451,89.54,392.451,118.946z"/>
		<path d="M184.352,278.474l11.201,36.704l1.775,0.693c0.727,0.272,18.149,6.981,42.609,6.981c14.391,0,28.244-2.337,41.168-6.938
			l2.164-0.781l5.703-33.854c0.385-0.998,0.721-2.04,0.997-3.142c0.689,0.195,1.411,0.344,2.177,0.344c3.643,0,6.6-2.34,6.6-5.237
			v-14.122c0-2.89-2.957-5.233-6.6-5.233c-0.782,0-1.52,0.16-2.217,0.353c-5.374-23.891-26.381-42.784-51.529-42.784
			c-25.177,0-46.209,18.939-51.553,42.868c-0.793-0.276-1.655-0.445-2.575-0.445c-3.565,0-6.452,2.337-6.452,5.234v14.122
			c0,2.89,2.887,5.237,6.452,5.237C184.293,278.481,184.317,278.474,184.352,278.474z M270.709,291.498
			c-29.53,10.447-56.608,2.629-64.631-0.208v-9.943h64.631V291.498z M276.308,309.263c-11.457,3.808-23.684,5.738-36.371,5.738
			c-18.637,0-33.149-4.224-38.011-5.83l-4.169-13.661c0.323,0.196,0.693,0.32,1.032,0.505c0.397,0.629,0.93,1.21,1.679,1.53
			c0.98,0.433,16.807,7.21,38.818,7.21c11.323,0,24.279-1.796,37.696-7.162c0.597-0.244,1.073-0.645,1.462-1.105L276.308,309.263z
			 M206.078,272.823c0-5.65,4.577-10.219,10.223-10.219h44.189c5.65,0,10.219,4.568,10.219,10.219v0.665h-64.631V272.823z"/>
		<path d="M131.243,356.57c0,24.032,2.276,36.323,10.613,42.68c8.338,6.371,25.021,10.68,25.021,10.68s31.078,46.603,31.078,70.037
			h41.695h41.691c0-13.545,10.392-34.812,19.144-50.373c-5.71-12.343-8.992-26.021-8.992-40.495c0-24.469,9.209-46.795,24.24-63.854
			c-19.447-8.776-40.463-10.647-40.463,5.17c0,29.415-35.62,26.148-35.62,26.148s-35.626,3.258-35.626-26.148
			C204.024,301.004,131.243,332.538,131.243,356.57z"/>
		<path d="M388.268,304.109c-24.397,0-46.322,10.327-61.822,26.785c-14.339,15.213-23.176,35.65-23.176,58.204
			c0,9.738,1.716,19.06,4.729,27.768c11.514,33.286,43.064,57.238,80.27,57.238c46.938,0,84.989-38.062,84.989-85.006
			C473.257,342.164,435.198,304.109,388.268,304.109z M440.244,400.953h-40.279v40.29h-23.704v-40.29h-40.286v-0.737v-22.963h11.076
			h29.21v-40.287h23.704v40.287h40.279V400.953z"/>
	</g>
</g>
</svg>