<?xml version="1.0" encoding="iso-8859-1"?>
<!-- Generator: Adobe Illustrator 19.0.0, SVG Export Plug-In . SVG Version: 6.00 Build 0)  -->
<svg version="1.1" id="Layer_1" xmlns="http://www.w3.org/2000/svg" xmlns:xlink="http://www.w3.org/1999/xlink" x="0px" y="0px"
	 viewBox="0 0 512 512" style="enable-background:new 0 0 512 512;" xml:space="preserve">
<g>
	<path style="fill:#F0C419;" d="M256,93.867c0,23.561-19.106,42.667-42.667,42.667s-42.667-19.106-42.667-42.667
		S189.773,51.2,213.333,51.2S256,70.306,256,93.867"/>
	<g>
		<path style="fill:#E57E25;" d="M213.333,34.133c-4.719,0-8.533-3.823-8.533-8.533V8.533c0-4.71,3.814-8.533,8.533-8.533
			s8.533,3.823,8.533,8.533V25.6C221.867,30.31,218.052,34.133,213.333,34.133"/>
		<path style="fill:#E57E25;" d="M213.333,187.733c-4.719,0-8.533-3.823-8.533-8.533v-17.067c0-4.71,3.814-8.533,8.533-8.533
			s8.533,3.823,8.533,8.533V179.2C221.867,183.91,218.052,187.733,213.333,187.733"/>
		<path style="fill:#E57E25;" d="M298.667,102.4H281.6c-4.719,0-8.533-3.823-8.533-8.533c0-4.71,3.814-8.533,8.533-8.533h17.067
			c4.719,0,8.533,3.823,8.533,8.533C307.2,98.577,303.386,102.4,298.667,102.4"/>
		<path style="fill:#E57E25;" d="M145.067,102.4H128c-4.719,0-8.533-3.823-8.533-8.533c0-4.71,3.814-8.533,8.533-8.533h17.067
			c4.719,0,8.533,3.823,8.533,8.533C153.6,98.577,149.786,102.4,145.067,102.4"/>
		<path style="fill:#E57E25;" d="M261.608,54.129c-2.185,0-4.369-0.836-6.033-2.5c-3.337-3.328-3.337-8.73,0-12.066l12.066-12.075
			c3.337-3.328,8.73-3.328,12.066,0c3.337,3.337,3.337,8.738,0,12.066l-12.066,12.075C265.977,53.293,263.793,54.129,261.608,54.129
			"/>
		<path style="fill:#E57E25;" d="M152.992,162.742c-2.185,0-4.369-0.836-6.033-2.5c-3.337-3.328-3.337-8.73,0-12.066l12.066-12.075
			c3.337-3.328,8.73-3.328,12.066,0c3.337,3.337,3.337,8.738,0,12.066l-12.066,12.075
			C157.361,161.906,155.176,162.742,152.992,162.742"/>
		<path style="fill:#E57E25;" d="M273.675,162.742c-2.185,0-4.369-0.836-6.033-2.5l-12.066-12.075c-3.337-3.328-3.337-8.73,0-12.066
			c3.337-3.328,8.73-3.328,12.066,0l12.066,12.075c3.337,3.337,3.337,8.738,0,12.066
			C278.044,161.906,275.86,162.742,273.675,162.742"/>
		<path style="fill:#E57E25;" d="M165.059,54.129c-2.185,0-4.369-0.836-6.033-2.5l-12.066-12.075c-3.337-3.328-3.337-8.73,0-12.066
			c3.337-3.328,8.73-3.328,12.066,0l12.066,12.075c3.337,3.337,3.337,8.738,0,12.066C169.428,53.293,167.243,54.129,165.059,54.129"
			/>
	</g>
	<polygon style="fill:#42A557;" points="256,247.467 281.6,290.133 230.4,290.133 	"/>
	<polygon style="fill:#266D35;" points="264.533,290.133 247.467,290.133 213.333,332.8 298.667,332.8 	"/>
	<g>
		<polygon style="fill:#805333;" points="85.333,503.467 136.533,503.467 136.533,384 85.333,384 		"/>
		<polygon style="fill:#805333;" points="230.4,512 281.6,512 281.6,409.6 230.4,409.6 		"/>
	</g>
	<polygon style="fill:#42A557;" points="110.933,136.533 162.133,204.8 59.733,204.8 	"/>
	<polygon style="fill:#266D35;" points="131.879,204.8 89.989,204.8 42.663,264.533 179.197,264.533 	"/>
	<polygon style="fill:#42A557;" points="147.035,264.533 74.835,264.533 25.597,324.267 196.264,324.267 	"/>
	<polygon style="fill:#266D35;" points="153.6,324.267 68.267,324.267 8.533,384 213.333,384 	"/>
	<polygon style="fill:#805333;" points="375.467,503.467 426.667,503.467 426.667,384 375.467,384 	"/>
	<polygon style="fill:#42A557;" points="401.067,136.533 452.267,204.8 349.867,204.8 	"/>
	<polygon style="fill:#266D35;" points="422.013,204.8 380.122,204.8 332.797,264.533 469.33,264.533 	"/>
	<polygon style="fill:#42A557;" points="437.169,264.533 364.968,264.533 315.731,324.267 486.397,324.267 	"/>
	<polygon style="fill:#266D35;" points="443.733,324.267 358.4,324.267 298.667,384 503.467,384 	"/>
	<g>
		<polygon style="fill:#603B22;" points="136.533,469.333 230.4,469.333 230.4,435.2 136.533,435.2 		"/>
		<polygon style="fill:#603B22;" points="281.6,469.333 375.467,469.333 375.467,435.2 281.6,435.2 		"/>
	</g>
	<g>
		<path style="fill:#3B455E;" d="M411.742,97.846c-2.039,0-4.087-0.725-5.726-2.21c-3.499-3.157-3.763-8.559-0.597-12.049
			l22.639-25.011l-29.363-16.589c-4.105-2.321-5.555-7.526-3.226-11.631c2.313-4.113,7.535-5.555,11.622-3.234l38.647,21.845
			c2.261,1.28,3.814,3.516,4.224,6.067c0.418,2.56-0.358,5.171-2.099,7.091l-29.798,32.913
			C416.384,96.899,414.063,97.846,411.742,97.846"/>
		<path style="fill:#3B455E;" d="M375.509,110.933c-1.596,0-3.217-0.444-4.651-1.391c-3.951-2.569-5.069-7.851-2.492-11.802
			l18.423-28.254l-31.599-11.767c-4.412-1.647-6.665-6.562-5.026-10.974c1.655-4.42,6.605-6.656,10.974-5.018l41.6,15.488
			c2.441,0.905,4.318,2.867,5.137,5.325c0.811,2.466,0.461,5.163-0.956,7.33l-24.252,37.188
			C381.021,109.568,378.299,110.933,375.509,110.933"/>
		<path style="fill:#3B455E;" d="M451.742,93.942c-2.509,0-4.983-1.092-6.673-3.2c-2.944-3.686-2.347-9.054,1.331-11.998
			l26.342-21.069L446.4,36.606c-3.678-2.944-4.275-8.311-1.331-11.998c2.952-3.678,8.303-4.275,11.998-1.331l34.671,27.733
			c2.022,1.621,3.2,4.07,3.2,6.665c0,2.594-1.178,5.043-3.2,6.665l-34.671,27.733C455.488,93.327,453.611,93.942,451.742,93.942"/>
	</g>
	<polygon style="fill:#266D35;" points="281.6,375.467 230.4,375.467 196.267,409.6 315.733,409.6 	"/>
	<polygon style="fill:#42A557;" points="273.067,332.8 238.933,332.8 200.533,371.2 204.8,375.467 307.2,375.467 311.467,371.2 	"/>
</g>
<g>
</g>
<g>
</g>
<g>
</g>
<g>
</g>
<g>
</g>
<g>
</g>
<g>
</g>
<g>
</g>
<g>
</g>
<g>
</g>
<g>
</g>
<g>
</g>
<g>
</g>
<g>
</g>
<g>
</g>
</svg>
