<?xml version="1.0" encoding="iso-8859-1"?>
<!-- Generator: Adobe Illustrator 19.0.0, SVG Export Plug-In . SVG Version: 6.00 Build 0)  -->
<svg version="1.1" id="Layer_1" xmlns="http://www.w3.org/2000/svg" xmlns:xlink="http://www.w3.org/1999/xlink" x="0px" y="0px"
	 viewBox="0 0 512 512" style="enable-background:new 0 0 512 512;" xml:space="preserve">
<path style="fill:#BDCED4;" d="M345.852,72.589l-42.681,42.681c-13.767,13.767-20.192,32.089-19.283,50.113
	c1.28,25.383-8.654,50.053-26.625,68.024L114.39,376.278l21.341,21.341l142.873-142.874c17.971-17.971,42.641-27.905,68.024-26.625
	c18.023,0.909,36.345-5.516,50.113-19.283l42.681-42.681L345.852,72.589z"/>
<path style="fill:#8C4F39;" d="M18.359,493.651L18.359,493.651c-10.879-10.879-10.879-28.518,0-39.397l87.003-87.003l39.397,39.397
	l-87.003,87.003C46.877,504.53,29.238,504.53,18.359,493.651z"/>
<path d="M509.014,96.567c-3.984-3.983-10.441-3.983-14.424-0.001l-3.283,3.283c-3.984,3.982-3.984,10.44-0.001,14.424
	c1.992,1.992,4.602,2.988,7.213,2.988c2.61,0,5.22-0.996,7.211-2.987l3.283-3.283C512.995,107.009,512.996,100.551,509.014,96.567z"
	/>
<path d="M295.958,108.057c-15.23,15.231-23.343,36.312-22.257,57.839c1.119,22.171-7.502,44.149-23.651,60.298l-135.66,135.661
	l-1.816-1.816c-1.912-1.912-4.507-2.987-7.212-2.987c-2.705,0-5.299,1.075-7.212,2.987l-87.003,87.004
	C3.958,454.23,0,463.786,0,473.952s3.958,19.723,11.147,26.912c7.42,7.419,17.165,11.128,26.911,11.128
	c9.746,0,19.492-3.709,26.912-11.128l87.003-87.003c3.983-3.983,3.983-10.441,0-14.425l-1.816-1.816l135.661-135.662
	c16.148-16.148,38.121-24.777,60.298-23.65c21.532,1.1,42.608-7.027,57.839-22.257l76.333-76.333c3.983-3.983,3.983-10.441,0-14.425
	c-3.983-3.982-10.441-3.982-14.424,0l-26.439,26.44l-32.36-32.361l55.168-55.167c3.983-3.983,3.983-10.441,0-14.425
	c-3.983-3.982-10.441-3.982-14.425,0l-55.167,55.167l-32.361-32.361l55.168-55.167c3.983-3.983,3.984-10.441,0-14.425
	c-3.984-3.981-10.441-3.982-14.424,0L295.958,108.057z M130.336,406.648l-79.791,79.79c-6.884,6.887-18.089,6.887-24.974,0
	c-3.335-3.335-5.172-7.77-5.172-12.487s1.837-9.152,5.172-12.486l79.791-79.791L130.336,406.648z M424.998,166.158l-35.469,35.468
	c-11.16,11.16-26.61,17.108-42.387,16.309c-27.915-1.41-55.531,9.381-75.749,29.599L135.731,383.195l-6.916-6.916l135.661-135.66
	c20.219-20.219,31.008-47.829,29.599-75.751c-0.796-15.777,5.148-31.227,16.309-42.387l35.469-35.469L424.998,166.158z"/>
<g>
</g>
<g>
</g>
<g>
</g>
<g>
</g>
<g>
</g>
<g>
</g>
<g>
</g>
<g>
</g>
<g>
</g>
<g>
</g>
<g>
</g>
<g>
</g>
<g>
</g>
<g>
</g>
<g>
</g>
</svg>
