<?xml version="1.0" encoding="iso-8859-1"?>
<!-- Uploaded to: SVG Repo, www.svgrepo.com, Generator: SVG Repo Mixer Tools -->
<svg height="800px" width="800px" version="1.1" id="Layer_1" xmlns="http://www.w3.org/2000/svg" xmlns:xlink="http://www.w3.org/1999/xlink" 
	 viewBox="0 0 512 512" xml:space="preserve">
<g transform="translate(1)">
	<g>
		<polygon style="fill:#25B99A;" points="7.533,324.267 195.267,324.267 195.267,204.8 7.533,204.8 		"/>
		<path style="fill:#25B99A;" d="M195.267,332.8H7.533c-5.12,0-8.533-3.413-8.533-8.533V204.8c0-5.12,3.413-8.533,8.533-8.533
			h187.733c5.12,0,8.533,3.413,8.533,8.533v119.467C203.8,329.387,200.387,332.8,195.267,332.8z M16.067,315.733h170.667v-102.4
			H16.067V315.733z"/>
		<polygon style="fill:#25B99A;" points="314.733,324.267 502.467,324.267 502.467,204.8 314.733,204.8 		"/>
		<path style="fill:#25B99A;" d="M502.467,332.8H314.733c-5.12,0-8.533-3.413-8.533-8.533V204.8c0-5.12,3.413-8.533,8.533-8.533
			h187.733c5.12,0,8.533,3.413,8.533,8.533v119.467C511,329.387,507.587,332.8,502.467,332.8z M323.267,315.733h170.667v-102.4
			H323.267V315.733z"/>
	</g>
	<polygon style="fill:#7383BF;" points="314.733,384 314.733,145.067 391.533,145.067 255,8.533 118.467,145.067 195.267,145.067 
		195.267,384 7.533,384 7.533,503.467 195.267,503.467 314.733,503.467 502.467,503.467 502.467,384 	"/>
	<path d="M502.467,512H7.533C2.413,512-1,508.587-1,503.467V384c0-5.12,3.413-8.533,8.533-8.533h179.2V153.6h-68.267
		c-3.413,0-6.827-1.707-7.68-5.12c-1.707-3.413-0.853-6.827,1.707-9.387L249.027,2.56c3.413-3.413,8.533-3.413,11.947,0
		l136.533,136.533c2.56,2.56,3.413,5.973,1.707,9.387c-0.853,3.413-4.267,5.12-7.68,5.12h-68.267v221.867h179.2
		c5.12,0,8.533,3.413,8.533,8.533v119.467C511,508.587,507.587,512,502.467,512z M16.067,494.933h477.867v-102.4h-179.2
		c-5.12,0-8.533-3.413-8.533-8.533V145.067c0-5.12,3.413-8.533,8.533-8.533h56.32L255,20.48L138.947,136.533h56.32
		c5.12,0,8.533,3.413,8.533,8.533V384c0,5.12-3.413,8.533-8.533,8.533h-179.2V494.933z"/>
	<path d="M195.267,332.8H7.533c-5.12,0-8.533-3.413-8.533-8.533V204.8c0-5.12,3.413-8.533,8.533-8.533h187.733
		c5.12,0,8.533,3.413,8.533,8.533v119.467C203.8,329.387,200.387,332.8,195.267,332.8z M16.067,315.733h170.667v-102.4H16.067
		V315.733z"/>
	<path d="M502.467,332.8H314.733c-5.12,0-8.533-3.413-8.533-8.533V204.8c0-5.12,3.413-8.533,8.533-8.533h187.733
		c5.12,0,8.533,3.413,8.533,8.533v119.467C511,329.387,507.587,332.8,502.467,332.8z M323.267,315.733h170.667v-102.4H323.267
		V315.733z"/>
</g>
</svg>