<?xml version="1.0" encoding="utf-8"?>
<!-- Uploaded to: SVG Repo, www.svgrepo.com, Generator: SVG Repo Mixer Tools -->
<svg width="800px" height="800px" viewBox="0 0 1024 1024" class="icon"  version="1.1" xmlns="http://www.w3.org/2000/svg"><path d="M761.981952 150.919168c0-44.51328-87.98208-6.875136-122.002432 26.79808-34.020352 33.67424-131.298304 50.935808-197.996544 18.610176C259.257344 107.767808 91.136 19.356672 91.136 213.880832V603.04384c0 95.45728 77.769728 172.674048 173.703168 172.674048h325.403648c95.865856 0 171.565056-77.308928 171.565056-172.674048V257.0752l0.17408 0.011264V150.919168z" fill="#FFF200" /><path d="M741.327872 603.04384c0 40.818688-15.594496 79.067136-43.913216 107.696128-28.383232 28.694528-66.444288 44.496896-107.17184 44.496896H264.839168C180.352 755.236864 111.616 686.963712 111.616 603.04384V213.88288c0-45.922304 9.969664-75.446272 29.632512-87.753728 47.808512-29.923328 162.56512 25.837568 273.54112 79.763456 6.068224 2.94912 12.156928 5.906432 18.262016 8.865792 34.307072 16.626688 77.873152 22.787072 122.65472 17.34656 41.71264-5.0688 78.603264-19.95776 98.680832-39.830528 11.431936-11.3152 31.285248-23.963648 50.579456-32.224256 19.140608-8.192 31.612928-9.516032 36.53632-8.861696v85.296128h-0.17408V603.04384z m41.13408-452.124672c0-17.36192-8.547328-30.88384-23.4496-37.102592-21.147648-8.822784-50.169856-0.058368-70.793216 8.848384-24.138752 10.42432-47.558656 25.562112-62.646272 40.497152-13.426688 13.289472-42.790912 24.39168-74.807296 28.279808-36.53632 4.440064-72.92928-0.497664-99.849216-13.543424-6.0928-2.953216-12.169216-5.905408-18.224128-8.84736-132.072448-64.1792-246.134784-119.601152-313.174016-77.642752C86.638592 111.986688 70.656 152.047616 70.656 213.880832V603.04384c0 51.651584 20.214784 100.185088 56.920064 136.660992 36.661248 36.430848 85.408768 56.49408 137.263104 56.49408H590.24384c51.753984 0 100.15744-20.120576 136.2944-56.653824 35.950592-36.347904 55.750656-84.825088 55.750656-136.501248V257.086464h0.17408V150.919168z m29.083648 490.86464v-40.96c32.687104 0 58.505216 0 74.20928-13.863936 18.266112-16.126976 27.14624-54.587392 27.14624-117.5808 0-62.992384-8.880128-101.453824-27.14624-117.5808-15.704064-13.863936-41.522176-13.863936-74.20928-13.863936v-40.96c38.054912 0 73.99936 0 101.317632 24.118272 28.35456 25.03168 40.997888 70.765568 40.997888 148.286464 0 77.520896-12.644352 123.254784-40.997888 148.287488-27.318272 24.117248-63.26272 24.117248-101.317632 24.117248zM614.98368 947.268608H236.990464c-20.41344 0-39.815168-6.368256-54.6304-17.93024-16.073728-12.544-25.290752-30.368768-25.290752-48.904192v-62.16704h40.96v62.16704c0 13.78304 18.20672 25.874432 38.961152 25.874432H614.98368c20.75648 0 38.961152-12.091392 38.961152-25.874432v-62.16704h40.96v62.16704c0 18.552832-9.23648 36.388864-25.342976 48.933888-14.819328 11.543552-34.2016 17.900544-54.578176 17.900544z" fill="#000000" /></svg>