<svg version="1.1" id="Layer_1" xmlns="http://www.w3.org/2000/svg" xmlns:xlink="http://www.w3.org/1999/xlink" x="0px" y="0px"
	 width="100%" viewBox="0 0 431 613" enable-background="new 0 0 431 613" xml:space="preserve">
<path fill="#FFFFFF" opacity="1.000000" stroke="none" 
	d="
M432.000000,158.000000 
	C432.000000,310.333344 432.000000,462.166656 432.000000,614.000000 
	C288.333344,614.000000 144.666672,614.000000 1.000000,614.000000 
	C1.000000,409.666656 1.000000,205.333328 1.000000,1.000000 
	C144.666672,1.000000 288.333344,1.000000 432.000000,1.000000 
	C432.000000,53.166668 432.000000,105.333336 432.000000,158.000000 
M13.129582,7.025738 
	C8.106587,6.520010 10.074559,10.365533 10.073725,12.426784 
	C9.994534,208.062698 9.999995,403.698639 10.000003,599.334595 
	C10.000004,601.107605 10.000002,602.880676 10.000002,604.687256 
	C148.947845,604.687256 287.322754,604.687256 425.735840,604.687256 
	C425.735840,405.313507 425.735840,206.252563 425.735840,7.166663 
	C424.314270,7.166663 423.156860,7.166663 421.079315,7.023887 
	C286.381653,7.016004 151.684006,7.007762 16.986343,7.007123 
	C15.991099,7.007119 14.995855,7.111188 13.129582,7.025738 
z"/>
<path fill="#00A2E8" opacity="1.000000" stroke="none" 
	d="
M14.000611,7.166663 
	C14.995855,7.111188 15.991099,7.007119 16.986343,7.007123 
	C151.684006,7.007762 286.381653,7.016004 421.539673,7.552879 
	C422.000000,203.393158 422.000061,398.704468 421.999664,594.015747 
	C421.999664,600.997620 421.997589,600.999634 415.020325,600.999695 
	C283.701782,601.000061 152.383240,601.000061 21.064701,600.999695 
	C14.002838,600.999695 14.000370,600.997925 14.000361,594.100586 
	C14.000113,398.455933 14.000408,202.811310 14.000611,7.166663 
M383.978333,45.255432 
	C384.182190,40.545406 380.596069,42.053276 378.326294,42.052036 
	C269.382416,41.992455 160.438538,41.999802 51.494637,42.000443 
	C44.004608,42.000484 44.000622,42.003410 44.000587,49.325787 
	C43.999828,218.905121 44.000000,388.484436 44.000134,558.063782 
	C44.000134,559.063232 44.042450,560.064636 43.995438,561.061829 
	C43.868076,563.763184 45.054073,565.149048 48.020649,565.854614 
	C49.973095,566.236389 51.925377,566.951294 53.878010,566.952271 
	C161.917816,567.005981 269.957672,567.000122 377.997498,566.998840 
	C379.495575,566.998840 381.034882,567.180969 382.473389,566.883606 
	C383.139069,566.745972 383.608307,565.657776 384.957825,564.978882 
	C389.458435,564.326111 387.942627,560.763977 387.943542,558.274414 
	C388.005859,390.413452 388.000122,222.552505 387.997742,54.691551 
	C387.997711,53.359924 388.416412,51.769569 387.838257,50.758038 
	C386.997101,49.286392 385.426300,48.231789 384.018524,46.567661 
	C384.018524,46.567661 383.958252,46.115269 383.978333,45.255432 
z"/>
<path fill="#00A2E8" opacity="1.000000" stroke="none" 
	d="
M13.565097,7.096200 
	C14.000408,202.811310 14.000113,398.455933 14.000361,594.100586 
	C14.000370,600.997925 14.002838,600.999695 21.064701,600.999695 
	C152.383240,601.000061 283.701782,601.000061 415.020325,600.999695 
	C421.997589,600.999634 421.999664,600.997620 421.999664,594.015747 
	C422.000061,398.704468 422.000000,203.393158 421.999725,7.624267 
	C423.156860,7.166663 424.314270,7.166663 425.735840,7.166663 
	C425.735840,206.252563 425.735840,405.313507 425.735840,604.687256 
	C287.322754,604.687256 148.947845,604.687256 10.000002,604.687256 
	C10.000002,602.880676 10.000004,601.107605 10.000003,599.334595 
	C9.999995,403.698639 9.994534,208.062698 10.073725,12.426784 
	C10.074559,10.365533 8.106587,6.520010 13.565097,7.096200 
z"/>
<path fill="#E0C042" opacity="1.000000" stroke="none" 
	d="
M384.166626,565.000549 
	C383.608307,565.657776 383.139069,566.745972 382.473389,566.883606 
	C381.034882,567.180969 379.495575,566.998840 377.997498,566.998840 
	C269.957672,567.000122 161.917816,567.005981 53.878010,566.952271 
	C51.925377,566.951294 49.973095,566.236389 47.998260,564.963623 
	C47.975872,391.487427 47.975872,218.902191 47.975872,46.000057 
	C49.903839,46.000057 51.209270,46.000053 52.514698,46.000053 
	C161.997818,46.000103 271.480927,45.999851 380.964050,46.004967 
	C381.962128,46.005016 382.960175,46.076916 383.958252,46.115265 
	C383.958252,46.115269 384.018524,46.567661 384.021332,47.247467 
	C384.016205,219.289551 384.007996,390.651825 384.007263,562.014099 
	C384.007233,563.009583 384.111206,564.005066 384.166626,565.000549 
z"/>
<path fill="#00A2E8" opacity="1.000000" stroke="none" 
	d="
M383.968292,45.685349 
	C382.960175,46.076916 381.962128,46.005016 380.964050,46.004967 
	C271.480927,45.999851 161.997818,46.000103 52.514698,46.000053 
	C51.209270,46.000053 49.903839,46.000057 47.975872,46.000057 
	C47.975872,218.902191 47.975872,391.487427 47.904606,564.536621 
	C45.054073,565.149048 43.868076,563.763184 43.995438,561.061829 
	C44.042450,560.064636 44.000134,559.063232 44.000134,558.063782 
	C44.000000,388.484436 43.999828,218.905121 44.000587,49.325787 
	C44.000622,42.003410 44.004608,42.000484 51.494637,42.000443 
	C160.438538,41.999802 269.382416,41.992455 378.326294,42.052036 
	C380.596069,42.053276 384.182190,40.545406 383.968292,45.685349 
z"/>
<path fill="#00A2E8" opacity="1.000000" stroke="none" 
	d="
M384.562256,564.989746 
	C384.111206,564.005066 384.007233,563.009583 384.007263,562.014099 
	C384.007996,390.651825 384.016205,219.289551 384.095398,47.463310 
	C385.426300,48.231789 386.997101,49.286392 387.838257,50.758038 
	C388.416412,51.769569 387.997711,53.359924 387.997742,54.691551 
	C388.000122,222.552505 388.005859,390.413452 387.943542,558.274414 
	C387.942627,560.763977 389.458435,564.326111 384.562256,564.989746 
z"/>
</svg>