<?xml version="1.0" encoding="iso-8859-1"?>
<!-- Generator: Adobe Illustrator 19.0.0, SVG Export Plug-In . SVG Version: 6.00 Build 0)  -->
<svg version="1.1" id="Layer_1" xmlns="http://www.w3.org/2000/svg" xmlns:xlink="http://www.w3.org/1999/xlink" x="0px" y="0px"
	 viewBox="0 0 504.123 504.123" style="enable-background:new 0 0 504.123 504.123;" xml:space="preserve">
<path style="fill:#CE1800;" d="M287.626,109.812h-41.842v-55.43c0-6.924-5.632-12.548-12.54-12.548H132.829
	c-6.924,0-12.556,5.624-12.556,12.548v55.43H78.438v-55.43C78.438,24.395,102.833,0,132.821,0h100.415
	c29.98,0,54.374,24.403,54.374,54.382v55.43H287.626z"/>
<path style="fill:#AD0C00;" d="M233.244,38.699H132.829c-29.995,0-54.382,24.403-54.382,54.382v16.731h41.834V93.082V54.382
	c0-6.924,5.632-12.548,12.556-12.548h100.415c6.908,0,12.54,5.624,12.54,12.548v38.699v16.731h41.842V93.082
	C287.626,63.102,263.223,38.699,233.244,38.699z"/>
<path style="fill:#82100D;" d="M412.081,112.955c0,18.487-14.982,33.477-33.469,33.477H347.23c-18.479,0-33.461-14.99-33.461-33.477
	V79.494c0-18.487,6.617-33.477,25.096-33.477h48.12c18.479,0,25.104,14.99,25.104,33.477v33.461H412.081z"/>
<path style="fill:#AD0C00;" d="M437.185,470.654c0,18.487-14.982,33.469-33.469,33.469H100.407
	c-18.487,0-33.469-14.982-33.469-33.469V119.233c0-18.479,14.982-33.469,33.469-33.469h303.309c18.487,0,33.469,14.99,33.469,33.469
	V470.654z"/>
<g>
	<path style="fill:#CE1800;" d="M66.938,119.233c0-18.479,14.982-33.469,33.469-33.469h303.309c18.487,0,33.469,14.99,33.469,33.469
		"/>
</g>
<g>
	<path style="fill:#82100D;" d="M315.865,325.278c0,18.479-14.982,33.469-33.469,33.469h-60.66
		c-18.487,0-33.469-14.99-33.469-33.469v-60.66c0-18.479,14.982-33.469,33.469-33.469h60.66c18.487,0,33.469,14.99,33.469,33.469
		V325.278z"/>
	<path style="fill:#82100D;" d="M357.085,383.709c4.482,4.49,4.482,11.768,0,16.258l0,0c-4.49,4.498-11.768,4.49-16.266,0
		L147.054,206.21c-4.49-4.498-4.498-11.776,0-16.266l0,0c4.49-4.49,11.768-4.49,16.266,0L357.085,383.709z"/>
	<path style="fill:#82100D;" d="M340.811,189.92c4.482-4.49,11.768-4.49,16.258,0l0,0c4.498,4.49,4.498,11.76,0,16.258
		L163.32,399.951c-4.513,4.49-11.8,4.506-16.289,0l0,0c-4.482-4.498-4.482-11.768,0-16.258L340.811,189.92z"/>
</g>
<path style="fill:#069360;" d="M415.626,47.159c0,5.144-4.175,9.318-9.326,9.318h-86.749c-5.151,0-9.326-4.167-9.326-9.318V9.318
	c0-5.144,4.167-9.318,9.326-9.318H406.3c5.144,0,9.326,4.167,9.326,9.318V47.159z"/>
<path style="fill:#5BC914;" d="M406.3,0h-86.749c-5.151,0-9.326,4.167-9.326,9.318v2.985c0,5.144,4.167,9.318,9.326,9.318H406.3
	c5.144,0,9.326-4.167,9.326-9.318V9.318C415.626,4.167,411.443,0,406.3,0z"/>
<g>
</g>
<g>
</g>
<g>
</g>
<g>
</g>
<g>
</g>
<g>
</g>
<g>
</g>
<g>
</g>
<g>
</g>
<g>
</g>
<g>
</g>
<g>
</g>
<g>
</g>
<g>
</g>
<g>
</g>
</svg>
