<?xml version="1.0" encoding="iso-8859-1"?>
<!-- Uploaded to: SVG Repo, www.svgrepo.com, Generator: SVG Repo Mixer Tools -->
<svg height="800px" width="800px" version="1.1" id="Layer_1" xmlns="http://www.w3.org/2000/svg" xmlns:xlink="http://www.w3.org/1999/xlink" 
	 viewBox="0 0 512 512" xml:space="preserve">
<polyline style="fill:#D8D9DD;" points="255.999,512 185.342,488.481 185.342,428.11 216.637,428.11 295.363,428.11 326.657,428.11 
	326.657,488.481 255.999,512 "/>
<path style="fill:#EFC589;" d="M175.936,51.908C166.371,20.86,138.103,0,105.593,0C65.011,0,31.995,33.015,31.995,73.598
	c0,18.518,6.904,36.216,19.44,49.833c12.457,13.53,29.375,21.867,47.639,23.475L175.936,51.908z"/>
<path style="fill:#B17E15;" d="M146.028,61.122c-5.495-17.84-21.745-29.826-40.435-29.826c-23.325,0-42.303,18.976-42.303,42.303
	c0,21.723,16.923,40.23,38.528,42.132L146.028,61.122z"/>
<path style="fill:#B19267;" d="M336.063,51.908C345.628,20.86,373.897,0,406.407,0c40.583,0,73.598,33.015,73.598,73.597
	c0,18.518-6.904,36.216-19.44,49.832c-12.457,13.53-29.375,21.867-47.639,23.475L336.063,51.908"/>
<path style="fill:#835E10;" d="M365.971,61.122c5.496-17.84,21.746-29.826,40.436-29.826c23.325,0,42.303,18.976,42.303,42.303
	c0,21.723-16.923,40.23-38.528,42.133L365.971,61.122"/>
<path style="fill:#EFC589;" d="M255.999,435.376c-38.247,0-94.473-2.169-141-20.921c-25.242-10.174-45.068-24.327-58.928-42.064
	c-16.161-20.681-24.355-46.279-24.355-76.083c0-43.408,12.103-69.972,27.427-103.605c5.104-11.203,10.383-22.787,15.849-36.332
	c14.132-35.014,31.184-71.086,60.02-97.725c30.382-28.068,69.958-41.711,120.986-41.711s90.602,13.644,120.986,41.711
	c28.837,26.639,45.888,62.711,60.02,97.725c5.467,13.545,10.745,25.129,15.849,36.332c15.324,33.633,27.428,60.197,27.428,103.605
	c0,29.804-8.194,55.402-24.356,76.083c-13.86,17.737-33.686,31.89-58.928,42.064C350.474,433.207,294.245,435.376,255.999,435.376"
	/>
<g>
	<path style="fill:#333333;" d="M203.923,213.796c-11.322,0-20.536-9.317-20.536-20.808c0-11.494,9.213-20.801,20.536-20.801
		c11.336,0,20.548,9.308,20.548,20.801C224.471,204.479,215.259,213.796,203.923,213.796"/>
	<path style="fill:#333333;" d="M307.923,213.951c11.418,0,20.689-9.385,20.689-20.964s-9.273-20.963-20.689-20.963
		c-11.431,0-20.704,9.385-20.704,20.963C287.218,204.565,296.491,213.951,307.923,213.951"/>
</g>
<g>
	<path style="fill:#D37B93;" d="M240.352,435.235c5.475,0.103,10.713,0.141,15.648,0.141c4.934,0,10.173-0.038,15.648-0.141v-71.342
		h-31.295L240.352,435.235"/>
	<path style="fill:#D37B93;" d="M255.999,375.482c-21.461,0-47.838-26.496-47.838-48.051c0-12.105,6.035-21.31,16.993-25.92
		c7.101-2.989,16.037-4.206,30.846-4.206c14.808,0,23.744,1.218,30.845,4.206c10.959,4.61,16.993,13.815,16.993,25.92
		C303.837,348.986,277.46,375.482,255.999,375.482"/>
</g>
<path style="fill:#B19267;" d="M393.86,415.689l-0.007,0.003C393.856,415.691,393.858,415.69,393.86,415.689 M394.133,415.585
	c-0.008,0.003-0.015,0.005-0.023,0.009C394.117,415.591,394.124,415.588,394.133,415.585 M394.406,415.479
	c-0.015,0.005-0.027,0.01-0.041,0.016C394.379,415.49,394.393,415.484,394.406,415.479 M394.676,415.374
	c-0.017,0.006-0.034,0.014-0.051,0.02C394.643,415.387,394.659,415.381,394.676,415.374 M394.949,415.267
	c-0.02,0.007-0.043,0.017-0.063,0.024C394.907,415.284,394.929,415.276,394.949,415.267 M395.21,415.165
	c-0.02,0.008-0.038,0.015-0.057,0.023C395.172,415.181,395.191,415.173,395.21,415.165 M395.494,415.054
	c-0.028,0.011-0.053,0.021-0.082,0.032C395.44,415.075,395.467,415.065,395.494,415.054 M395.767,414.946
	c-0.031,0.013-0.062,0.024-0.093,0.037C395.706,414.971,395.736,414.959,395.767,414.946 M396.046,414.837
	c-0.034,0.014-0.073,0.029-0.107,0.043C395.974,414.865,396.01,414.85,396.046,414.837 M396.321,414.726
	c-0.04,0.016-0.078,0.031-0.118,0.047C396.243,414.757,396.282,414.742,396.321,414.726 M396.623,414.606
	c-0.051,0.021-0.104,0.042-0.155,0.063C396.519,414.648,396.572,414.627,396.623,414.606 M396.998,414.455
	c-0.088,0.035-0.177,0.072-0.266,0.107C396.821,414.527,396.911,414.49,396.998,414.455 M436.78,155.814
	c0.031,0.077,0.063,0.154,0.094,0.232C436.842,155.968,436.811,155.891,436.78,155.814 M436.591,155.347
	c0.049,0.12,0.096,0.236,0.144,0.356C436.687,155.584,436.639,155.466,436.591,155.347 M435.927,153.713
	c0.222,0.546,0.442,1.087,0.663,1.633C436.37,154.801,436.15,154.258,435.927,153.713 M435.768,153.323
	c0.023,0.057,0.047,0.115,0.071,0.173C435.815,153.438,435.792,153.38,435.768,153.323 M435.618,152.952
	c0.01,0.026,0.021,0.051,0.031,0.077C435.639,153.005,435.628,152.979,435.618,152.952 M459.626,124.431
	c-0.013,0.013-0.024,0.025-0.036,0.038C459.602,124.456,459.614,124.444,459.626,124.431 M459.808,124.24
	c-0.031,0.033-0.064,0.067-0.095,0.1C459.745,124.306,459.777,124.274,459.808,124.24 M459.947,124.094
	c-0.028,0.029-0.055,0.058-0.083,0.088C459.89,124.153,459.918,124.123,459.947,124.094 M460.108,123.922
	c-0.041,0.044-0.079,0.085-0.121,0.128C460.028,124.008,460.069,123.964,460.108,123.922 M460.26,123.759
	c-0.038,0.041-0.076,0.082-0.114,0.122C460.183,123.842,460.222,123.8,460.26,123.759 M460.404,123.604
	c-0.043,0.046-0.086,0.092-0.128,0.138C460.319,123.697,460.362,123.651,460.404,123.604 M460.565,123.43
	c-0.044,0.047-0.087,0.094-0.13,0.141C460.479,123.523,460.522,123.477,460.565,123.43 M259.172,16.954c0.003,0,0.002,0,0.005,0
	H259.172 M258.766,16.95c0.013,0,0.021,0,0.033,0C258.789,16.95,258.776,16.95,258.766,16.95 M257.941,16.943
	c0.025,0,0.049,0,0.074,0C257.989,16.943,257.965,16.943,257.941,16.943 M257.56,16.94c0.028,0,0.053,0,0.081,0
	C257.615,16.941,257.587,16.941,257.56,16.94 M256.735,16.937c0.031,0,0.067,0,0.098,0C256.8,16.937,256.767,16.937,256.735,16.937
	 M256.359,16.937c0.034,0,0.07,0,0.104,0C256.428,16.937,256.395,16.937,256.359,16.937 M399.54,0.313
	c-0.005,0-0.008,0.001-0.013,0.001C399.532,0.314,399.536,0.313,399.54,0.313 M399.688,0.299h-0.003H399.688 M400.301,0.247
	c-0.008,0.001-0.017,0.001-0.024,0.002C400.284,0.248,400.293,0.248,400.301,0.247 M400.469,0.234
	c-0.016,0.001-0.029,0.002-0.045,0.003C400.441,0.236,400.454,0.235,400.469,0.234 M400.612,0.222
	c-0.008,0.001-0.014,0.001-0.022,0.002C400.597,0.223,400.607,0.223,400.612,0.222 M401.064,0.189
	c-0.015,0.001-0.03,0.002-0.044,0.003C401.032,0.191,401.049,0.19,401.064,0.189 M401.227,0.177
	c-0.018,0.001-0.031,0.002-0.048,0.003C401.195,0.18,401.212,0.178,401.227,0.177 M401.386,0.167
	c-0.015,0.001-0.028,0.002-0.043,0.003C401.359,0.169,401.37,0.168,401.386,0.167 M401.826,0.139
	c-0.021,0.001-0.045,0.003-0.066,0.004C401.782,0.142,401.804,0.14,401.826,0.139 M401.994,0.129
	c-0.024,0.001-0.047,0.003-0.071,0.004C401.947,0.131,401.971,0.13,401.994,0.129 M402.162,0.119
	c-0.022,0.001-0.044,0.002-0.066,0.004C402.119,0.122,402.138,0.121,402.162,0.119 M402.342,0.11
	c-0.027,0.001-0.053,0.003-0.08,0.004C402.287,0.113,402.316,0.111,402.342,0.11 M402.588,0.097
	c-0.027,0.001-0.058,0.003-0.086,0.004C402.53,0.099,402.56,0.098,402.588,0.097 M402.759,0.088
	c-0.027,0.001-0.055,0.003-0.082,0.004C402.703,0.091,402.731,0.09,402.759,0.088 M402.937,0.079
	c-0.032,0.001-0.061,0.003-0.093,0.004C402.874,0.082,402.908,0.081,402.937,0.079 M403.128,0.071
	c-0.039,0.002-0.073,0.003-0.112,0.005C403.054,0.074,403.09,0.073,403.128,0.071 M403.349,0.062
	c-0.037,0.001-0.074,0.003-0.111,0.004C403.274,0.065,403.314,0.064,403.349,0.062 M403.522,0.055
	c-0.032,0.001-0.067,0.002-0.099,0.004C403.458,0.057,403.489,0.056,403.522,0.055 M403.698,0.049
	c-0.031,0.001-0.064,0.002-0.096,0.003C403.634,0.051,403.666,0.05,403.698,0.049 M403.879,0.043
	c-0.035,0.001-0.069,0.002-0.104,0.003C403.81,0.045,403.844,0.044,403.879,0.043 M404.111,0.034
	c-0.045,0.001-0.093,0.003-0.137,0.004C404.019,0.038,404.066,0.037,404.111,0.034 M404.285,0.03
	c-0.035,0.001-0.07,0.002-0.104,0.003C404.214,0.032,404.251,0.031,404.285,0.03 M404.463,0.025
	c-0.035,0.001-0.069,0.002-0.103,0.003C404.394,0.027,404.428,0.026,404.463,0.025 M404.649,0.021
	c-0.04,0.001-0.075,0.002-0.116,0.003C404.571,0.022,404.611,0.022,404.649,0.021 M404.876,0.016
	c-0.056,0.001-0.114,0.002-0.17,0.003C404.762,0.018,404.821,0.017,404.876,0.016 M405.048,0.013
	c-0.042,0.001-0.079,0.001-0.121,0.002C404.966,0.014,405.009,0.014,405.048,0.013 M405.226,0.009
	c-0.035,0.001-0.07,0.001-0.105,0.002C405.154,0.01,405.191,0.009,405.226,0.009 M405.414,0.006c-0.04,0.001-0.079,0.001-0.12,0.002
	C405.333,0.007,405.374,0.007,405.414,0.006 M405.644,0.004c-0.059,0.001-0.117,0.001-0.176,0.002
	C405.527,0.005,405.585,0.004,405.644,0.004 M405.815,0.002c-0.053,0-0.106,0.001-0.16,0.001
	C405.71,0.003,405.762,0.003,405.815,0.002 M405.995,0.001c-0.041,0-0.08,0-0.12,0.001C405.915,0.002,405.953,0.001,405.995,0.001
	 M406.174,0.001c-0.041,0-0.078,0-0.118,0C406.095,0.001,406.134,0.001,406.174,0.001"/>
<path style="fill:#A0A1A5;" d="M326.657,431.552c-25.828,3.233-50.692,3.823-70.657,3.823V512l70.657-23.519V431.552"/>
<path style="fill:#B19267;" d="M307.923,213.951c-11.431,0-20.704-9.385-20.704-20.964s9.273-20.963,20.704-20.963
	c11.418,0,20.689,9.385,20.689,20.963C328.612,204.565,319.339,213.951,307.923,213.951 M255.999,16.936v280.369
	c14.808,0,23.744,1.218,30.845,4.206c10.959,4.61,16.993,13.815,16.993,25.92c0,16.454-15.37,35.787-32.19,44.016v63.787
	c-5.474,0.103-10.713,0.141-15.648,0.141l0,0c19.965,0,44.829-0.59,70.657-3.823l0,0v-0.005c22.539-2.821,45.81-7.649,67.196-15.854
	l0.007-0.003c0.082-0.031,0.166-0.064,0.248-0.096c0.008-0.003,0.015-0.005,0.023-0.009c0.078-0.03,0.155-0.059,0.234-0.09
	c0.015-0.005,0.027-0.01,0.041-0.016c0.073-0.028,0.146-0.056,0.219-0.085c0.017-0.006,0.034-0.014,0.051-0.02
	c0.07-0.027,0.14-0.054,0.21-0.081c0.02-0.007,0.043-0.017,0.063-0.024c0.068-0.027,0.136-0.053,0.203-0.079
	c0.02-0.008,0.038-0.015,0.057-0.023c0.067-0.026,0.135-0.053,0.201-0.079c0.028-0.011,0.053-0.021,0.082-0.032
	c0.061-0.024,0.12-0.047,0.18-0.071c0.031-0.013,0.062-0.024,0.093-0.036c0.057-0.023,0.115-0.045,0.171-0.068
	c0.034-0.014,0.073-0.029,0.107-0.043c0.053-0.021,0.105-0.042,0.159-0.063c0.04-0.016,0.078-0.031,0.118-0.047
	c0.049-0.02,0.097-0.039,0.146-0.058c0.051-0.021,0.104-0.042,0.155-0.063c0.037-0.015,0.073-0.029,0.11-0.044
	c0.088-0.035,0.178-0.072,0.266-0.107l0,0c25.242-10.174,45.068-24.327,58.928-42.064c16.162-20.681,24.356-46.279,24.356-76.083
	c0-43.408-12.104-69.972-27.428-103.605c-5.103-11.203-10.382-22.787-15.849-36.332l0,0c-0.044-0.109-0.088-0.218-0.131-0.327
	c-0.031-0.077-0.063-0.154-0.094-0.232c-0.015-0.038-0.03-0.074-0.045-0.112c-0.048-0.12-0.095-0.236-0.144-0.356
	c0,0,0-0.001-0.001-0.002c-0.221-0.546-0.441-1.087-0.663-1.633c-0.029-0.072-0.058-0.145-0.089-0.217
	c-0.023-0.057-0.047-0.115-0.071-0.173c-0.04-0.097-0.079-0.195-0.119-0.293c-0.01-0.026-0.021-0.051-0.031-0.077
	c-1.379-3.374-2.787-6.754-4.233-10.13l0,0c-4.11-9.603-8.526-19.189-13.426-28.534c-10.709-20.425-23.734-39.717-40.972-55.641
	c-2.351-2.172-4.759-4.259-7.222-6.259c-8.141-6.612-16.896-12.282-26.302-17.026c-0.001,0.003-0.004,0.007-0.006,0.009
	c-23.744-11.975-51.629-18.05-84.28-18.418c-0.003,0-0.002,0-0.005,0c-0.125-0.001-0.246-0.003-0.371-0.004
	c-0.013,0-0.021,0-0.033,0c-0.251-0.002-0.5-0.004-0.752-0.006c-0.025,0-0.049,0-0.074,0c-0.099-0.001-0.199-0.001-0.298-0.002
	c-0.028,0-0.053,0-0.081,0c-0.242-0.001-0.486-0.002-0.728-0.003c-0.031,0-0.067,0-0.098,0c-0.089,0-0.182,0-0.27-0.001
	c-0.034,0-0.07,0-0.104,0C256.239,16.936,256.121,16.936,255.999,16.936L255.999,16.936"/>
<path style="fill:#9D5B6E;" d="M286.844,301.512c-7.101-2.989-16.037-4.206-30.845-4.206v78.177v59.893
	c4.934,0,10.173-0.038,15.648-0.141v-63.787c16.821-8.229,32.19-27.562,32.19-44.016
	C303.837,315.327,297.803,306.122,286.844,301.512z"/>
</svg>