<?xml version="1.0" encoding="iso-8859-1"?>
<!-- Uploaded to: SVG Repo, www.svgrepo.com, Generator: SVG Repo Mixer Tools -->
<svg height="800px" width="800px" version="1.1" id="Layer_1" xmlns="http://www.w3.org/2000/svg" xmlns:xlink="http://www.w3.org/1999/xlink" 
	 viewBox="0 0 513.2 513.2" xml:space="preserve">
<g>
	<circle style="fill:#E65100;" cx="256.2" cy="252" r="8"/>
	<circle style="fill:#E65100;" cx="256.2" cy="179.6" r="8"/>
</g>
<path style="fill:#FFB74D;" d="M248.2,179.6c0,4.4,3.6,8,8,8s8-3.6,8-8s-3.6-8-8-8S248.2,175.2,248.2,179.6z M256.2,260
	c4.4,0,8-3.6,8-8s-3.6-8-8-8s-8,3.6-8,8S251.8,260,256.2,260z M234.6,71.6c5.2,0,9.6-4.4,9.6-10s-4.4-10-9.6-10c-5.6,0-10,4.4-10,10
	S229,71.6,234.6,71.6z M130.6,164.4h53.6V72c0-37.6,30.4-68,68-68s68,30.4,68,68v92.4h58.4h16c27.6,0,50,22.4,50,50s-22.4,50-50,50
	h-16h-44.8l49.6,182.8c7.2,26.8-8.8,52.4-35.2,59.6c-26.8,7.2-54-8.8-61.2-35.6l-30-112.8l-30.4,112.8
	c-7.2,26.8-34.4,42.8-61.2,35.6c-26.8-7.2-42.4-32.8-35.2-59.2l49.6-182.8h-49.2h-12.4c-27.6,0-50-22.4-50-50s22.4-50,50-50h12.4
	V164.4z M256.2,223.6c4.4,0,8-3.6,8-8s-3.6-8-8-8s-8,3.6-8,8C248.2,220.4,251.8,223.6,256.2,223.6z M268.2,62c0,5.6,4.4,10,9.6,10
	c5.6,0,9.6-4.4,9.6-10s-4.4-10-9.6-10S268.2,56.4,268.2,62z"/>
<g>
	<path style="fill:#E65100;" d="M287.8,62c0,5.6-4.4,10-9.6,10c-5.6,0-9.6-4.4-9.6-10s4.4-10,9.6-10S287.8,56.4,287.8,62z"/>
	<circle style="fill:#E65100;" cx="256.2" cy="216" r="8"/>
	<path style="fill:#E65100;" d="M244.2,62c0,5.6-4.4,10-9.6,10c-5.6,0-9.6-4.4-9.6-10s4.4-10,9.6-10S244.2,56.4,244.2,62z"/>
</g>
<path d="M178.2,513.2c-4.4,0-9.2-0.8-13.6-2c-14-3.6-25.6-12.4-32.8-24.4s-9.2-26.4-5.2-40.4l48.4-178h-56.4c-29.6,0-54-24.4-54-54
	s24-54,54-54h62V72c0-39.6,32.4-72,72-72s72,32.4,72,72v88.4h70c29.6,0,54,24.4,54,54s-24,54-54,54h-55.2l48.4,178
	c3.6,14,1.6,28-5.6,40c-7.2,11.6-18.8,20.4-32.8,24s-28.4,2-40.8-5.2s-21.2-18.8-25.2-32.8l-26.4-98l-26.4,98.4
	c-3.6,14-12.8,25.6-25.2,33.2C197,510.4,187.4,513.2,178.2,513.2z M118.2,168.4c-25.2,0-46,20.8-46,46s20.4,46,46,46h61.6
	c1.2,0,2.4,0.4,3.2,1.6c0.8,0.8,1.2,2.4,0.8,3.6l-49.6,182.8c-3.2,11.6-1.6,24,4.4,34.4s16,17.6,28,20.8c11.6,3.2,24,1.6,34.8-4.8
	s18.4-16.4,21.6-28l30.4-113.2c0.4-1.6,2-2.8,4-2.8s3.2,1.2,4,2.8l30,112.4c3.2,12,10.8,21.6,21.6,28c10.8,6,23.2,7.6,34.8,4.4
	c12-3.2,22-10.4,28-20.4s7.6-22,4.4-33.6l-49.6-182.8c-0.4-1.2,0-2.4,0.8-3.6c0.8-0.8,2-1.6,3.2-1.6H395c25.2,0,46-20.8,46-46
	s-20.8-46-46-46h-74.8c-2.4,0-4-1.6-4-4V72c0-35.2-28.8-64-64-64s-64,28.8-64,64v92.4c0,2.4-1.6,4-4,4H118.2z"/>
<path d="M256.2,116.4c-16.4,0-31.6-8.4-40.8-22.4c-1.2-2-0.8-4.4,1.2-5.6s4.4-0.8,5.6,1.2c7.6,11.6,20,18.4,34,18.4
	c13.6,0,26.4-6.8,34-18.4c1.2-2,3.6-2.4,5.6-1.2c2,1.2,2.4,3.6,1.2,5.6C288.2,108,273,116.4,256.2,116.4z"/>
<path d="M234.6,75.6c-7.6,0-13.6-6-13.6-14s6-14,13.6-14s13.6,6,13.6,14S242.2,75.6,234.6,75.6z M234.6,56c-3.2,0-5.6,2.8-5.6,6
	s2.8,6,5.6,6s5.6-2.8,5.6-6S237.8,56,234.6,56z"/>
<path d="M278.2,75.6c-7.6,0-14-6-14-14s6-14,14-14s13.6,6,13.6,14S285.8,75.6,278.2,75.6z M278.2,56c-3.2,0-6,2.8-6,6s2.8,6,6,6
	s5.6-2.8,5.6-6S281.4,56,278.2,56z"/>
<path d="M256.2,191.6c-6.4,0-12-5.2-12-12c0-6.4,5.2-12,12-12c6.4,0,12,5.2,12,12S263,191.6,256.2,191.6z M256.2,175.6
	c-2,0-4,1.6-4,4s1.6,4,4,4s4-1.6,4-4S258.6,175.6,256.2,175.6z"/>
<path d="M256.2,227.6c-6.4,0-12-5.2-12-12s5.2-12,12-12c6.4,0,12,5.2,12,12S263,227.6,256.2,227.6z M256.2,212c-2,0-4,1.6-4,4
	s1.6,4,4,4s4-1.6,4-4S258.6,212,256.2,212z"/>
<path d="M256.2,264c-6.4,0-12-5.2-12-12c0-6.4,5.2-12,12-12c6.4,0,12,5.2,12,12S263,264,256.2,264z M256.2,248c-2,0-4,1.6-4,4
	s1.6,4,4,4s4-1.6,4-4S258.6,248,256.2,248z"/>
<path d="M128.2,268.4c-2.4,0-4-1.6-4-4v-64c0-2.4,1.6-4,4-4s4,1.6,4,4v64C132.2,266.8,130.6,268.4,128.2,268.4z"/>
<path d="M376.2,268.4c-2.4,0-4-1.6-4-4v-64c0-2.4,1.6-4,4-4s4,1.6,4,4v64C380.2,266.8,378.6,268.4,376.2,268.4z"/>
<path d="M128.2,184.4c-2.4,0-4-1.6-4-4v-16c0-2.4,1.6-4,4-4s4,1.6,4,4v16C132.2,182.8,130.6,184.4,128.2,184.4z"/>
<path d="M376.2,184.4c-2.4,0-4-1.6-4-4v-16c0-2.4,1.6-4,4-4s4,1.6,4,4v16C380.2,182.8,378.6,184.4,376.2,184.4z"/>
<path d="M153.4,439.6c-0.4,0-0.8,0-1.2,0l-17.6-4.8c-2-0.4-3.2-2.8-2.8-4.8s2.8-3.2,4.8-2.8l17.6,4.8c2,0.4,3.2,2.8,2.8,4.8
	C157,438.4,155.4,439.6,153.4,439.6z"/>
<path d="M230.6,460c-0.4,0-0.8,0-1.2,0l-55.2-14.8c-2-0.4-3.6-2.8-2.8-4.8c0.4-2,2.8-3.6,4.8-2.8l55.2,14.8c2,0.4,3.6,2.8,2.8,4.8
	C233.8,458.8,232.2,460,230.6,460z"/>
<path d="M322.2,449.6c-1.6,0-3.2-1.2-4-2.8c-0.4-2,0.8-4.4,2.8-4.8l55.6-14.8c2-0.4,4.4,0.8,4.8,2.8c0.4,2-0.8,4.4-2.8,4.8
	L323,449.6C323,449.6,322.6,449.6,322.2,449.6z"/>
<path d="M283.4,460c-1.6,0-3.2-1.2-4-2.8c-0.4-2,0.8-4.4,2.8-4.8l17.2-4.8c2-0.4,4.4,0.8,4.8,2.8s-0.8,4.4-2.8,4.8l-17.2,4.8
	C283.8,460,283.8,460,283.4,460z"/>
</svg>