<?xml version="1.0" encoding="utf-8"?>
<!-- Uploaded to: SVG Repo, www.svgrepo.com, Generator: SVG Repo Mixer Tools -->
<svg width="800px" height="800px" viewBox="-137.99 0 382.712 382.712" xmlns="http://www.w3.org/2000/svg"><defs><style>.a{fill:#c6c6c6;}.b{fill:#ffffff;}.c{fill:#7a7473;}.d{fill:#211715;}.e{fill:#3d8dcc;}.f{fill:#febe69;}</style></defs><path class="a" d="M9.969,278.512c-1.562-.286-3.181-.577-4.873-.87a2.492,2.492,0,0,1-2.058-2.679c3.315-32.819,8.879-66.216,13.111-83.879,0,0,.106-.445.265-1.148,6.191.405,17.927.453,20.884.374a16.206,16.206,0,0,0,9.621-3.24c2.479-2.085,3.526-5.295,4.471-8.318.565-1.8,1.182-4.459,1.595-6.5a63.689,63.689,0,0,0,1.593,6.5c.946,3.023,1.993,6.233,4.472,8.318a16.2,16.2,0,0,0,9.621,3.24c2.933.078,15.214-.119,21.669-.562L90.9,192.6c4.937,19.257,9.568,54.484,12.663,87.175-9.288,2.135-39.684,3.782-53.684,3.688C33.541,283.354,24.124,281.112,9.969,278.512Z"/><path class="b" d="M29.728,306.4c-.559-8.39-1.222-16.673-1.986-24.686a145.774,145.774,0,0,0,22.132,1.748c6.812.046,17.507-.321,27.763-.955-1.14,10.061-1.766,19.579-2.154,28.792l-.086.006a184.588,184.588,0,0,1-22.916,0h.487a157.572,157.572,0,0,1-22.792,0l-.135-.013Q29.89,308.845,29.728,306.4Z"/><path class="b" d="M30.476,316.874c.567,11.067.969,22.18,1.2,33.014a.16.16,0,0,1,.043.011c4.822,1.743,7.92,2.284,10.545,1.465A33.116,33.116,0,0,0,47.907,349a4.276,4.276,0,0,1,2.605-.625c1.6.331,2.685.742,2.687,2.375,0-1.633.628-2.044,2.226-2.375A4.276,4.276,0,0,1,58.03,349a33.116,33.116,0,0,0,5.643,2.368c2.625.819,5.723.278,10.545-1.465a2.355,2.355,0,0,1,.277-.081c.353-12.713.422-25.337.9-38.51-7.657.015-16.484.5-22.667.023-6.151.474-14.921,0-22.554-.022Q30.334,314.087,30.476,316.874Z"/><path class="c" d="M41.229,368.354c.559-.246,1.147-.436,1.72-.649a23.123,23.123,0,0,0,6.422-3.9c1.328-1.041,3.674-3.605,3.761-5.126.159-2.779.07-5.708.067-7.937,0-1.633-1.089-2.044-2.687-2.375a4.276,4.276,0,0,0-2.605.625,33.116,33.116,0,0,1-5.643,2.368c-2.625.819-5.723.278-10.545-1.465-2.483-.9-5.523,2.623-7.588,4.58a120.241,120.241,0,0,0-11.1,10.579,9.141,9.141,0,0,0-1.686,3.112,12.093,12.093,0,0,0-.537,3.376c-.032,2.419.284,5.066,2.007,6.765a7.94,7.94,0,0,0,3.6,1.844,16.817,16.817,0,0,0,8.66-.015c5.4-1.458,9.7-5.494,13.463-9.634a9.914,9.914,0,0,1,1.747-1.643A6.112,6.112,0,0,1,41.229,368.354Z"/><path class="c" d="M64.707,368.354c-.558-.246-1.146-.436-1.719-.649a23.123,23.123,0,0,1-6.422-3.9c-1.328-1.041-3.434-3.6-3.434-5.126,0-2.541.067-6.135.067-7.937,0-1.633.628-2.044,2.226-2.375A4.276,4.276,0,0,1,58.03,349a33.116,33.116,0,0,0,5.643,2.368c2.625.819,5.723.278,10.545-1.465,2.483-.9,5.523,2.623,7.588,4.58a120.241,120.241,0,0,1,11.1,10.579,9.141,9.141,0,0,1,1.686,3.112,12.093,12.093,0,0,1,.537,3.376c.032,2.419-.284,5.066-2.007,6.765a7.94,7.94,0,0,1-3.6,1.844,16.817,16.817,0,0,1-8.66-.015c-5.4-1.458-9.7-5.494-13.463-9.634a9.914,9.914,0,0,0-1.747-1.643A6.077,6.077,0,0,0,64.707,368.354Z"/><path class="d" d="M41.761,370.282a32.657,32.657,0,0,0,6.41-3.1,23.756,23.756,0,0,0,4.509-3.806,8.458,8.458,0,0,0,2.476-5.161c.13-2.359.077-4.734.044-7.095a4.251,4.251,0,0,0-2.925-4.352,6.572,6.572,0,0,0-5.651.65,23.464,23.464,0,0,1-5.406,2.155,9.8,9.8,0,0,1-4.43-.212c-1.077-.249-2.137-.572-3.185-.923a7.8,7.8,0,0,0-2.978-.675c-2.047.131-3.775,1.444-5.254,2.753-1.545,1.367-2.988,2.844-4.535,4.212-1.847,1.634-3.694,3.269-5.467,4.985a30.1,30.1,0,0,0-4.729,5.241,14.47,14.47,0,0,0-.549,13.01,8.7,8.7,0,0,0,5.4,4,19.38,19.38,0,0,0,15.419-2.191,33.973,33.973,0,0,0,6.037-4.742c1.67-1.608,3.169-3.964,5.3-4.958a2.018,2.018,0,0,0,.717-2.737,2.045,2.045,0,0,0-2.736-.717c-1.751.818-2.916,2.3-4.216,3.671a46.858,46.858,0,0,1-4.039,3.845,18.117,18.117,0,0,1-10.07,4.53,13.829,13.829,0,0,1-6.124-.819,4.547,4.547,0,0,1-2.809-3.75,11.574,11.574,0,0,1,.254-5.195c.55-1.895,1.9-3.233,3.235-4.617,2.874-2.977,6.066-5.589,9.094-8.4a40.581,40.581,0,0,1,3.518-3.259,3.958,3.958,0,0,1,1.671-.866,5.592,5.592,0,0,1,2.021.6c3.027,1,6.348,1.825,9.526,1.063a28.324,28.324,0,0,0,5.191-1.979c1.1-.509,2.066-1.331,3.31-.963.633.187.415.128.42.827.006,1.063.023,2.126.024,3.189,0,1.236,0,2.477-.07,3.711a3.149,3.149,0,0,1-.751,1.644c-2.369,3.289-6.086,5.065-9.707,6.562a2.065,2.065,0,0,0-1.4,2.46A2.013,2.013,0,0,0,41.761,370.282Z"/><path class="d" d="M65.239,366.425c-3.319-1.372-6.773-2.907-9.041-5.846-1.064-1.377-1.071-2.1-1.057-3.758.014-1.749.043-3.5.055-5.245a5.921,5.921,0,0,0-.042-1.123c-.125.2-.018,0,.176,0a3.006,3.006,0,0,1,.873-.057,6.466,6.466,0,0,1,1.551.72c.781.393,1.585.738,2.392,1.074a15.275,15.275,0,0,0,9.531,1.151c.829-.17,1.647-.39,2.458-.635a13.366,13.366,0,0,1,2.891-.951c1.173-.025,2.471,1.359,3.258,2.094,2.857,2.669,5.8,5.242,8.647,7.927,2.775,2.621,5.97,5.262,6.182,9.344a9.186,9.186,0,0,1-.809,5c-.939,1.615-2.942,2.114-4.662,2.412-4.519.781-8.835-.806-12.458-3.435a36.375,36.375,0,0,1-4.68-4.2c-1.491-1.538-2.8-3.34-4.787-4.268a2.056,2.056,0,0,0-2.736.717,2.017,2.017,0,0,0,.717,2.737c1.914.894,3.23,2.912,4.705,4.379a38.923,38.923,0,0,0,5.261,4.44,19.974,19.974,0,0,0,13.369,3.716,13.159,13.159,0,0,0,6.881-2.365,8.648,8.648,0,0,0,3.008-5.658,15.731,15.731,0,0,0-.4-6.954,14.685,14.685,0,0,0-3.736-5.685c-3.3-3.492-7.086-6.444-10.5-9.806a18.714,18.714,0,0,0-4.536-3.671,6.032,6.032,0,0,0-2.71-.722,11.826,11.826,0,0,0-3.341.9,17.7,17.7,0,0,1-5.583,1.085,13.692,13.692,0,0,1-5.134-1.513c-1.706-.754-3.309-1.92-5.253-1.888a4.494,4.494,0,0,0-4.291,2.751,9.149,9.149,0,0,0-.239,2.8c-.01,1.181-.026,2.361-.039,3.541-.025,2.318-.2,4.38,1.077,6.425a17.4,17.4,0,0,0,4.691,4.727,32.346,32.346,0,0,0,7.254,3.7,2.011,2.011,0,0,0,2.46-1.4A2.05,2.05,0,0,0,65.239,366.425Z"/><path class="d" d="M88.966,193.134c2.4,9.387,4.038,18.969,5.535,28.534,1.892,12.092,3.437,24.237,4.809,36.4q1.222,10.845,2.248,21.71l1.468-1.928a87.461,87.461,0,0,1-11.044,1.543c-5.354.528-10.722.908-16.093,1.223a311.661,311.661,0,0,1-32.5.683,152.694,152.694,0,0,1-18.9-2.13c-3.033-.522-6.056-1.1-9.081-1.669q-2.455-.462-4.913-.917-1.3-.238-2.6-.472a8.276,8.276,0,0,1-2.6-.48c-.374-.244-.244-.671-.2-1.149.082-.967.2-1.932.3-2.9q.332-3.14.687-6.275.654-5.754,1.387-11.5,1.434-11.248,3.17-22.455c2.06-13.308,4.316-26.636,7.446-39.74.6-2.5-3.258-3.57-3.857-1.063C11.4,202.374,9.307,214.38,7.39,226.378q-3.751,23.474-6.2,47.137c-.186,1.8-.214,3.469,1.165,4.846,1.306,1.3,3.2,1.377,4.913,1.685,3.4.61,6.789,1.26,10.183,1.9,6.324,1.185,12.669,2.271,19.079,2.876,11.521,1.088,23.146.633,34.684.052,10.215-.514,20.6-1,30.692-2.734.733-.126,1.463-.266,2.187-.43a2.008,2.008,0,0,0,1.469-1.929c-2.312-24.375-5.038-48.823-9.539-72.9-.927-4.962-1.947-9.911-3.2-14.8-.637-2.493-4.5-1.436-3.858,1.063Z"/><path class="d" d="M30.176,313.309a134.89,134.89,0,0,0,22.792,0c2.549-.2,2.571-4.207,0-4a134.89,134.89,0,0,1-22.792,0,2.015,2.015,0,0,0-2,2,2.043,2.043,0,0,0,2,2Z"/><path class="d" d="M75.4,309.308a155.671,155.671,0,0,1-22.916,0c-2.566-.206-2.553,3.8,0,4a155.671,155.671,0,0,0,22.916,0c2.554-.175,2.573-4.176,0-4Z"/><path class="d" d="M50.481,286.512c.448,8.229.424,16.493.463,24.731.044,9.146.024,18.293-.012,27.439-.012,2.841-.032,5.681-.033,8.522,0,2.574,4,2.578,4,0,0-16.12.172-32.239-.068-48.359-.061-4.111-.127-8.227-.35-12.333-.14-2.56-4.14-2.577-4,0Z"/><path class="d" d="M25.907,283.465c1.576,16.987,2.638,34.023,3.291,51.07q.277,7.26.451,14.523c.061,2.57,4.062,2.58,4,0q-.617-25.725-2.545-51.4-.54-7.1-1.2-14.194a2.054,2.054,0,0,0-2-2,2.015,2.015,0,0,0-2,2Z"/><path class="d" d="M75.532,283.423c-1.863,17-2.351,34.084-2.684,51.173-.089,4.579-.177,9.159-.3,13.737-.068,2.575,3.932,2.574,4,0,.44-16.587.488-33.188,1.633-49.749q.523-7.594,1.35-15.161a2.012,2.012,0,0,0-2-2,2.047,2.047,0,0,0-2,2Z"/><path class="c" d="M95.929,251.308c-.314-3.649-.677-7.144-3.558-9.406a10.741,10.741,0,0,0-4.358-1.76,71.944,71.944,0,0,0-9.456-1.148c-.263-11.128-.478-20.051-.521-21.4-.231-7.287-1.917-9.833-9.084-13.167-3.335-1.551-9.927-2.471-15.277-2.444-5.761.028-13.447,1.619-17.389,4.012-4.556,2.766-6.767,6.355-7.1,13.519-.054,1.239-.416,9.306-.872,19.525a69.044,69.044,0,0,0-8.9,1.1,10.741,10.741,0,0,0-4.358,1.76c-2.881,2.262-3.243,5.757-3.558,9.406-.8,9.243-.785,26.641-.035,32.847a7.692,7.692,0,0,0,1.5,3.574,5.354,5.354,0,0,0,3.557,1.348c4.822.222,21.006.343,37.188.349,7.318,0,14.632-.029,20.9-.078l5.112.078,0-.125c5.157-.056,9.163-.131,11.178-.224a5.354,5.354,0,0,0,3.557-1.348,7.681,7.681,0,0,0,1.5-3.574C96.714,277.949,96.727,260.551,95.929,251.308ZM53.718,238.222c-5.758.012-11.468.122-16.619.327.147-9.877.271-17.406.327-18.463.232-4.417,3.021-10.326,16.021-10.326,13.667,0,15.939,6.055,16.226,8.833.116,1.123.176,9.328.2,19.937C64.847,238.337,59.3,238.234,53.718,238.222Z"/><path class="d" d="M53.718,236.222c-10.172.027-20.49.06-30.6,1.316-3.972.494-8.329,1.095-10.941,4.476-2.634,3.408-2.64,8.175-2.886,12.293A239.6,239.6,0,0,0,9.1,278.958c.134,3.068.035,6.643,1.778,9.313,2.015,3.086,5.891,2.84,9.13,2.912,20.679.459,41.4.361,62.079.09,3.03-.039,6.105.03,9.128-.217a6.726,6.726,0,0,0,5.43-2.919,10.992,10.992,0,0,0,1.414-4.841,183.963,183.963,0,0,0,.339-23.221,107.262,107.262,0,0,0-.822-11.99,12.656,12.656,0,0,0-2.472-6.274A10.785,10.785,0,0,0,88.93,238.3a66.671,66.671,0,0,0-10.757-1.335c-5.213-.369-10.44-.546-15.664-.65q-4.395-.087-8.791-.095c-2.574-.007-2.578,3.993,0,4a281.326,281.326,0,0,1,29.264,1.162c2.982.32,7.157.512,9.127,3.057a10.412,10.412,0,0,1,1.676,5.316c.189,1.769.307,3.547.4,5.323.422,7.746.481,15.545.173,23.3-.057,1.429-.129,2.859-.248,4.284q-.036.418-.077.837c-.016.159-.029.319-.052.477.014-.089.085-.423-.008-.008a5.723,5.723,0,0,1-.788,2.152c-.745,1-2.078.956-3.2,1-1.3.046-2.612.073-3.918.1-19.692.371-39.408.31-59.1.082-3.205-.037-6.411-.068-9.614-.183-1.151-.041-2.5-.023-3.191-1.126a6.413,6.413,0,0,1-.7-2.018c-.02-.087-.072-.428-.008.008-.018-.124-.03-.253-.041-.378-.032-.349-.068-.7-.1-1.046a199.677,199.677,0,0,1-.294-21.773c.1-3.675.24-7.363.632-11.02a10.267,10.267,0,0,1,1.74-5.4c1.265-1.575,3.27-2.039,5.16-2.413A77.141,77.141,0,0,1,30.6,240.877c4.928-.315,9.866-.476,14.8-.569q4.157-.078,8.312-.086C56.291,240.215,56.3,236.215,53.718,236.222Z"/><path class="d" d="M69.673,253.737c-10.817.116-21.634.127-32.452.127-2.574,0-2.578,4,0,4,10.818,0,21.635-.011,32.452-.127,2.572-.028,2.579-4.028,0-4Z"/><path class="d" d="M28.145,288.61c.37-11.643,1-23.283,1.521-34.92.513-11.528.884-23.073,1.546-34.595a16.439,16.439,0,0,1,1.737-7.106,11.776,11.776,0,0,1,4.346-4.268,24.908,24.908,0,0,1,7.343-2.648,42.111,42.111,0,0,1,8.682-1.087c5.7-.094,11.773.533,16.847,3.274a11.653,11.653,0,0,1,4.329,3.468,11.081,11.081,0,0,1,1.454,5.192c.3,4.021.25,8.093.346,12.122q.264,10.951.519,21.9.449,19.121.888,38.241c.009.413.019.827.027,1.24.054,2.571,4.054,2.58,4,0-.242-11.581-.533-23.161-.8-34.742-.287-12.259-.518-24.521-.881-36.778-.116-3.919-.617-7.912-3.418-10.883-3.5-3.711-8.929-5.533-13.826-6.308a50.421,50.421,0,0,0-19.226.5c-5.076,1.158-10.18,3.21-13.322,7.568-3.45,4.787-3.084,11.229-3.337,16.884q-.466,10.461-.934,20.922c-.6,13.551-1.237,27.1-1.785,40.653-.018.456-.037.911-.052,1.367-.082,2.575,3.918,2.572,4,0Z"/><path class="d" d="M38.286,289.426c.366-10.965.361-21.954.526-32.924.178-11.911.236-23.834.59-35.743,0-.182.009-.365.018-.547,0-.094.009-.187.015-.281.01-.157.026-.313.041-.47.03-.329-.08.29.044-.271a7.07,7.07,0,0,1,1.348-3.264,4.66,4.66,0,0,1,.438-.516,8.822,8.822,0,0,1,.923-.87,12.93,12.93,0,0,1,2.026-1.21,19.254,19.254,0,0,1,7.027-1.512c4.542-.252,9.72-.032,13.629,2.556a6.346,6.346,0,0,1,2.2,2.484c.062.117.348.834.145.281.08.22.16.439.225.663.06.205.1.412.153.619.025.1.034.211.056.315.075.348-.032-.506-.02-.143.335,10.728.219,21.478.225,32.21q.012,18.664-.031,37.329,0,.647,0,1.294c0,2.574,4,2.578,4,0,0-11.375.036-22.751.035-34.126q0-11.459-.041-22.916c-.02-4.424.075-8.878-.155-13.3-.323-6.2-5.833-9.677-11.464-10.734-8.169-1.534-21.322-1.051-24.3,8.629a17.8,17.8,0,0,0-.568,4.881c-.049,2.13-.085,4.26-.121,6.39q-.183,10.565-.334,21.131c-.2,12.908-.338,25.818-.6,38.725-.008.439-.016.878-.031,1.317-.086,2.575,3.914,2.572,4,0Z"/><path class="b" d="M38.257,193.135c-4.181,2.156-9.225,4.584-13.61,6.681.438.591.821,1.132,1.1,1.489.449.592.623,2.246.735,4.074.082,1.409.163,2.41.194,3.227a5.925,5.925,0,0,0,.766,3.2c.817,1.154,2.828,3.482,4.054,4.911.418.5.745.889.888,1.072a3.477,3.477,0,0,0,1.869,1.226,4.287,4.287,0,0,0,2.154.041,3.4,3.4,0,0,0,.643-.194,3.082,3.082,0,0,0,.582-.286,2.89,2.89,0,0,0,.736-.552,2.245,2.245,0,0,0,.49-.684,1.151,1.151,0,0,0,.071-.163l.415-1.037c.9.984,1.645,1.836,3.143,1.9a3.262,3.262,0,0,0,2.422-.614,3.964,3.964,0,0,0,1.228-3.123,3.241,3.241,0,0,0,3.526.224,3.127,3.127,0,0,0,.713-4.282l.7-.811c.514-.595.156-2.217.145-2.435a21.632,21.632,0,0,0-1.257-4.771,6.262,6.262,0,0,0-2.089-3.332c-1.311-.784-2.093-1.051-3.769-2.072a16.582,16.582,0,0,1-4.492-4.391Q38.954,192.776,38.257,193.135Z"/><path class="b" d="M67.818,192.678c-2.641,2.51-6.536,4.865-8.184,7.564-1.591,2.113-2.782,6.977-3.8,10.96-.334,1.306-.084,2.843,1.083,3.454a4.022,4.022,0,0,0,4.25-.37l1.026-.753c-.13.284-.261.568-.261.568-.3.645-.58,2.608.457,3.185a4.343,4.343,0,0,0,4.195-.278,12.122,12.122,0,0,0,2.186-2.624c.241,2.683,1.291,3.675,3.853,3.659a3.014,3.014,0,0,0,1.16-.376,15.315,15.315,0,0,0,4.071-3.708,1.479,1.479,0,0,0,2.292.271,16.535,16.535,0,0,0,1.96-3.181c1.045-2.169.992-7.794,1.631-10.49,0-.017.01-.034.014-.051C78.756,198.118,72.621,195.184,67.818,192.678Z"/><path class="d" d="M67.864,189.669c-1.9,2.426-4.575,4.1-6.873,6.108a17.007,17.007,0,0,0-4.934,7.322c-.583,1.622-1.04,3.287-1.478,4.952a13.215,13.215,0,0,0-.816,4.96c.531,4.071,5.354,5.041,8.414,3,2.132-1.422.131-4.888-2.019-3.454-.519.346-1.862.985-2.374.241-.5-.726.363-2.575.552-3.3a32.6,32.6,0,0,1,2.4-7.234c2.252-4.195,7.086-6.087,9.961-9.764a2.067,2.067,0,0,0,0-2.829,2.015,2.015,0,0,0-2.829,0Z"/><path class="d" d="M64.207,205.142c-.881,1.654-1.758,3.31-2.588,4.989-.855,1.728-2,3.532-1.959,5.524a4.053,4.053,0,0,0,1.126,2.912,4.96,4.96,0,0,0,3.15,1.12,6.43,6.43,0,0,0,3.1-.608,7,7,0,0,0,2.219-1.98,34.441,34.441,0,0,0,3.79-6.611,2,2,0,1,0-3.454-2.019,51.836,51.836,0,0,1-2.642,5.056c-.113.174-.229.345-.35.513-.051.073-.1.144-.156.216.047-.065.229-.279-.016.017-.271.325-.552.641-.853.939-.088.087-.18.17-.268.257-.046.045-.292.244-.025.039.336-.257-.2.125-.2.092-.014-.052.394-.094.17-.077a1.11,1.11,0,0,0-.2.063,3.069,3.069,0,0,0-.573.124c.026-.041.485-.031.076-.023-.077,0-.154.008-.232.009-.049,0-.542-.006-.541-.019s.388.077.155.022c-.073-.017-.148-.027-.221-.044-.2-.047-.589-.235-.2-.032-.157-.081-.2-.176.094.117-.066-.067-.126-.18,0,.034.161.267.05.064.026.014.022.047.133.463.063.148a.8.8,0,0,0-.046-.179c-.095-.157.053.17.019.22a2.259,2.259,0,0,0-.018-.513c0-.1.031-.577.01-.23s.027-.094.049-.18a1.41,1.41,0,0,0,.083-.274c0,.361-.2.441-.051.132.062-.131.122-.263.183-.394q.6-1.275,1.222-2.536c.805-1.621,1.653-3.221,2.5-4.819a2,2,0,0,0-3.454-2.019Z"/><path class="d" d="M66.961,215.79a5.161,5.161,0,0,0,2.193,3.429,4.836,4.836,0,0,0,1.74.667,5.825,5.825,0,0,0,2.784-.016,10.012,10.012,0,0,0,3.454-2.21,16.288,16.288,0,0,0,2.45-2.691,2.01,2.01,0,0,0-.717-2.737,2.053,2.053,0,0,0-2.737.718c-.047.068-.262.355-.025.043s-.017.013-.07.075c-.134.159-.272.313-.413.466-.349.377-.715.741-1.091,1.091-.178.165-.359.328-.543.486-.1.09-.208.177-.314.264-.13.106-.494.3.013,0a10.9,10.9,0,0,1-.98.6l-.21.1c.217-.087.257-.105.119-.056a1.641,1.641,0,0,1-.22.066c.275-.03.307-.042.1-.035a3.7,3.7,0,0,0-.735-.04c.344.05.41.059.2.026l-.106-.02c-.118-.023-.235-.051-.35-.084s-.214-.084-.322-.11c.149.036.451.215.146.043a1.467,1.467,0,0,0-.226-.143c.3.015.339.318.134.089-.056-.062-.312-.371-.08-.061s-.009-.03-.05-.1-.08-.179-.134-.254c.254.355.13.332.049.1a5.734,5.734,0,0,1-.2-.765,2.014,2.014,0,0,0-2.461-1.4,2.052,2.052,0,0,0-1.4,2.461Z"/><path class="d" d="M84.071,194.5a22.623,22.623,0,0,0-2.342,5.9,50.058,50.058,0,0,0-.6,5.08,20.471,20.471,0,0,1-.67,4.312c-.045.144-.092.288-.146.429.179-.461-.117.2-.158.282q-.387.75-.836,1.467c-.133.212-.307.416-.423.639-.107.208-.2.14-.1.171.049.015.235-.121.328-.119a.56.56,0,0,1,.458.294,2.061,2.061,0,0,0-2.736-.718,2.016,2.016,0,0,0-.718,2.737,3.634,3.634,0,0,0,3.2,1.675,3.915,3.915,0,0,0,3.022-2.021,13.219,13.219,0,0,0,2.389-5.8c.314-2.122.428-4.263.694-6.39a15.411,15.411,0,0,1,.541-2.407,22.874,22.874,0,0,1,1.555-3.508c1.191-2.279-2.26-4.3-3.454-2.019Z"/><path class="d" d="M36.791,191.907a27.538,27.538,0,0,0,4.217,5.076,29.9,29.9,0,0,0,5.389,3.363c1.467.824,1.858,2.925,2.308,4.435a18.027,18.027,0,0,1,.52,2.246c.029.224.062.447.091.671.046.36,0-.291.015.158.008.22.017.434.019.653,0-.115.22-.412,0-.09a2,2,0,0,0,3.454,2.019,4.339,4.339,0,0,0,.484-2.97c-.033-.268-.1-.559-.115-.834.056.824.025.088.008-.059a13.761,13.761,0,0,0-.319-1.77,17.35,17.35,0,0,0-2.431-6.146c-1.452-1.923-3.889-2.574-5.82-3.895a18.415,18.415,0,0,1-4.366-4.876,2.051,2.051,0,0,0-2.736-.717,2.017,2.017,0,0,0-.718,2.736Z"/><path class="d" d="M37.2,216.163a1.97,1.97,0,0,1-2.24.962c-1.007-.184-1.6-1.3-2.224-2.026-.774-.907-1.553-1.809-2.314-2.726a7.069,7.069,0,0,1-1.578-2.271,12.333,12.333,0,0,1-.239-2.745c-.088-1.388-.146-2.782-.32-4.162a6.451,6.451,0,0,0-.972-3.108c-.872-1.2-1.738-2.414-2.686-3.556a2.015,2.015,0,0,0-2.829,0,2.045,2.045,0,0,0,0,2.829c.522.628,1,1.293,1.481,1.954.192.264.388.527.58.792a2.635,2.635,0,0,1,.251.351q-.079-.21-.006.012a14.656,14.656,0,0,1,.463,4.3,34.042,34.042,0,0,0,.29,3.792,7.931,7.931,0,0,0,1.887,3.6c.841,1.058,1.722,2.085,2.6,3.111a15.55,15.55,0,0,0,2.755,2.936c2.6,1.776,7.212,1.043,8.554-2.025a2.064,2.064,0,0,0-.717-2.736,2.016,2.016,0,0,0-2.737.717Z"/><path class="d" d="M34.513,213.65c1.057,1.341,2.218,2.592,3.371,3.85a6.733,6.733,0,0,0,3.59,2.413,5.614,5.614,0,0,0,5.013-1.223,6.345,6.345,0,0,0,1.649-4.393,2.012,2.012,0,0,0-2-2,2.045,2.045,0,0,0-2,2,1.86,1.86,0,0,1-.037.514l.031-.213q-.017.112-.039.225a5.559,5.559,0,0,1-.2.741c-.02-.006.213-.42,0-.022-.045.085-.11.165-.151.252-.1.206.309-.325.072-.092-.011.011-.235.23-.235.234q.323-.234.127-.1a1.88,1.88,0,0,1-.2.123c-.3.2.216-.037.01,0-.051.009-.3.125-.346.088q.4-.045.171-.024c-.074.007-.149.012-.224.014-.13,0-.26,0-.39,0-.061,0-.6-.032-.3,0s-.12-.031-.183-.049a2.031,2.031,0,0,1-.205-.064q-.214-.076.156.071a1.722,1.722,0,0,1-.576-.351c.226.176.256.2.09.055l-.1-.092c-.1-.1-.2-.194-.3-.294-.418-.428-.814-.879-1.219-1.319-.947-1.032-1.882-2.075-2.75-3.175a2,2,0,0,0-2.828,0,2.059,2.059,0,0,0,0,2.828Z"/><path class="d" d="M39.131,209.718a38.418,38.418,0,0,0,3.29,3.926c1.517,1.6,3.151,3.048,5.44,3.275a4.7,4.7,0,0,0,4.887-3.534,6.224,6.224,0,0,0-1.45-5.326c-1.315-1.752-2.742-3.417-4.166-5.079a2.009,2.009,0,0,0-2.829,0,2.051,2.051,0,0,0,0,2.828c1.048,1.222,2.1,2.446,3.1,3.7.11.137.218.275.326.413.225.285-.011-.024-.05-.065a2.666,2.666,0,0,1,.166.218c.183.245.364.492.535.745.092.135.523.668.467.811-.006.015-.157-.487-.055-.106.017.064.04.126.058.19a2.155,2.155,0,0,0,.062.255c.083.2-.014-.477-.007-.081,0,.147-.014.308,0,.452.02.213,0-.2.031-.212,0,0-.05.221-.059.253a1.686,1.686,0,0,1-.083.249c-.039,0,.256-.455.029-.113a1.984,1.984,0,0,0-.109.176c-.093.182.267-.247,0-.008-.074.067-.146.145-.217.214-.165.162-.094.007-.026.03l.095-.075a1.33,1.33,0,0,1-.14.084c-.211.061.264-.082.227-.085a2.463,2.463,0,0,0-.446.12c.051-.04.5-.016.169-.035-.082,0-.171,0-.253,0-.39.014.152-.008.139.031,0,.007-.292-.058-.269-.053-.164-.039-.319-.1-.48-.144-.23-.064.146.051.132.06a1.644,1.644,0,0,1-.276-.138c-.094-.05-.186-.1-.275-.159-.043-.026-.42-.274-.2-.125.188.131-.038-.031-.063-.053-.079-.07-.157-.139-.234-.209-.125-.115-.247-.231-.369-.349-.3-.284-.582-.576-.865-.873-.6-.633-1.187-1.287-1.752-1.955-.244-.289-.485-.58-.72-.876l-.146-.184c-.171-.215.083.1.115.149-.076-.126-.184-.244-.27-.364a2.047,2.047,0,0,0-2.736-.718,2.023,2.023,0,0,0-.718,2.737Z"/><path class="b" d="M80.672,47.158A4.367,4.367,0,0,1,83.825,46a4.049,4.049,0,0,1,3.636,2.02c1.235,2.142,1.183,6.09.353,8.533a13.173,13.173,0,0,1-3.868,6.273,4.806,4.806,0,0,1-3.707,1.07l-.255-.043c-.439,1.281-.988,2.42-1.173,2.982-.956,2.593-6.336,11.838-13.079,15.116,0,.586,0,1,0,1-.5.406-10.736,8.475-11.512,9.025h-1.8c-.776-.55-11.01-8.619-11.512-9.025v-.831a27.6,27.6,0,0,1-8.342-6.957,32.783,32.783,0,0,1-6.1-11.3,4.745,4.745,0,0,1-3.915-1.029,13.173,13.173,0,0,1-3.868-6.273c-.829-2.443-.882-6.391.354-8.533A4.045,4.045,0,0,1,22.672,46a4.367,4.367,0,0,1,3.153,1.154s-1.554-25.3,27.424-25.3C83.725,21.857,80.672,47.158,80.672,47.158Z"/><path class="b" d="M52.144,140.486c-3.218-7.553-4.768-10.886-7.549-18.676-3.457-9.687-7.746-20.348-10.489-30.419l2.211-.564a3.659,3.659,0,0,1,.794-3.278c1.155-1.339,2.612-3.275,3.793-4.6.5.406,10.736,8.475,11.512,9.025h1.8c.776-.55,11.01-8.619,11.512-9.025,1.181,1.322,2.638,3.258,3.793,4.6a3.659,3.659,0,0,1,.794,3.278l1.069.36c-2.741,10.131-7.064,20.871-10.545,30.623-2.78,7.79-4.331,11.123-7.549,18.676Z"/><path class="e" d="M103.44,127.263c-.775-4.876-2.489-15.2-5.689-20.063-4.735-7.193-12.355-11.006-21.34-15.347a28.142,28.142,0,0,0-4.391-3.116C69.351,99.573,64.6,111.269,60.841,121.81c-2.94,8.238-4.505,11.492-8.124,20.023C49.1,133.3,47.536,130.048,44.6,121.81c-2.26-6.332-4.875-13.081-7.183-19.81-1.533-4.473-2.93-8.936-4-13.263a31.5,31.5,0,0,0-6.167,4.724C19.7,97.2,13.348,100.9,9.2,107.2c-3.2,4.863-5,13.4-5.774,18.275-1.22,7.667-1.764,18.1-1.135,24.26.688,6.732,1.259,11.448,3.385,18.333a109.01,109.01,0,0,0,7.112,17c.206.4.4.766.587,1.121.032.06.064.122.1.181.176.333.345.648.508.948l.1.177c.164.3.323.591.475.864l.017.028c.151.271.3.528.439.776l.07.123c.113.2.224.389.334.575h0c1.734,2.951,3.091,4.785,6.814,11.113,5.316-2.545,12.244-5.839,17.418-8.561l-.988-1.81-.2-.366a15.715,15.715,0,0,0,8.456-3.167c2.479-2.085,3.526-5.295,4.471-8.318.565-1.8,1.182-4.459,1.595-6.5a63.689,63.689,0,0,0,1.593,6.5c.945,3.023,1.993,6.233,4.472,8.318a16.117,16.117,0,0,0,9.409,3.227l-.164.306-.988,1.81c5.174,2.722,12.1,6.016,17.418,8.561,3.811-6.478,5.144-8.249,6.94-11.328h0c.032-.056.067-.119.1-.176.1-.172.2-.353.307-.535.072-.127.145-.254.219-.387.11-.195.224-.4.34-.611l.226-.412c.129-.237.267-.494.405-.753.072-.133.14-.258.214-.4.216-.408.443-.839.685-1.3a96.964,96.964,0,0,0,7.111-17,73.467,73.467,0,0,0,3.385-18.333A98.359,98.359,0,0,0,103.44,127.263Z"/><path class="f" d="M22.717,22.752A33.142,33.142,0,0,1,33.59,9.378,32.465,32.465,0,0,1,53.17,3.205,32.283,32.283,0,0,1,68.616,6.776c7.171-8.711,18.116-4.153,19.468,2.893.883,4.6,1.151,7.447,3.258,11.607,2.169,4.281,3.983,4.817,7.756,6.589-2.886,4.263-6.634,7.922-12.767,6.942a35.164,35.164,0,0,1-1.473,11.327A5.535,5.535,0,0,0,83.825,46a4.369,4.369,0,0,0-3.078,1.088c-4.569-.943-9.344-5.525-12.085-9.023-2.619-3.344-4.258-7.36-5.641-11.9-4.2,4.727-11.311,8.6-19.232,12.94a108.592,108.592,0,0,1-13.34,5.22l-4.624,2.824A4.367,4.367,0,0,0,22.672,46a5.575,5.575,0,0,0-1.139.153,35.7,35.7,0,0,1-1.524-11.35,34.718,34.718,0,0,1,1.3-8.141A31.851,31.851,0,0,1,22.717,22.752Z"/><path class="d" d="M47.849,70.591a11.819,11.819,0,0,0,5.69,1.329,9.387,9.387,0,0,0,5.86-1.779,1.991,1.991,0,0,0,.586-1.414,2.032,2.032,0,0,0-.586-1.414,2.06,2.06,0,0,0-2.828,0c.693-.54-.008-.024-.226.091-.169.088-.615.229.021.01-.154.053-.3.117-.459.167-.419.135-.872.161-1.286.293.211-.067.34-.04.038-.011-.126.013-.253.023-.379.032q-.456.029-.914.025-.409,0-.818-.029c-.125-.009-.25-.019-.375-.031-.071-.007-.143-.015-.214-.024q-.236-.029.193.025c-.007-.035-1.079-.23-1.2-.266-.168-.05-.332-.111-.5-.168-.443-.152.429.2.026.015-.206-.1-.409-.2-.61-.3a2,2,0,0,0-2.019,3.454Z"/><path class="d" d="M52.248,57.543a25.088,25.088,0,0,1,.6,2.721l-.071-.531a1.622,1.622,0,0,1,.01.375l.072-.531a.908.908,0,0,1-.042.169l.2-.478a.771.771,0,0,1-.06.109l.313-.405a.563.563,0,0,1-.089.087l.405-.312a1.781,1.781,0,0,1-.216.114l.478-.2a1.542,1.542,0,0,1-.363.106l.531-.071a1.5,1.5,0,0,1-.341,0l.532.072c-.129-.018-.255-.05-.383-.067a1.526,1.526,0,0,0-.8-.036,1.484,1.484,0,0,0-.744.238,2,2,0,0,0-.717,2.736l.313.4a1.99,1.99,0,0,0,.882.514c.346.047.683.133,1.035.149a3.414,3.414,0,0,0,1.594-.389A2.434,2.434,0,0,0,56.7,60.727a3.73,3.73,0,0,0-.013-1.642c-.148-.877-.351-1.746-.576-2.606a2,2,0,0,0-2.461-1.4,2.022,2.022,0,0,0-1.2.92,2.1,2.1,0,0,0-.2,1.541Z"/><path class="d" d="M38.44,49.674c-.454,1.477-.158,4.875,2.64,5.164,3.7-.022,3.9-4.13,2.65-6.061C42.711,47.2,39.714,46.537,38.44,49.674Z"/><path class="d" d="M68.057,49.674c.455,1.477.158,4.875-2.64,5.164-3.7-.022-3.9-4.13-2.65-6.062C63.786,47.2,66.783,46.537,68.057,49.674Z"/><path class="d" d="M78.617,61.033a17.543,17.543,0,0,1-1.349,4.3q-.24.576-.459,1.16c-.106.284.21-.434-.04.081-.063.13-.123.261-.186.391a36.488,36.488,0,0,1-3.1,5.119c-2.655,3.734-6.287,7.788-10.9,8.871-2.505.589-1.445,4.447,1.063,3.858,5.523-1.3,9.776-5.883,12.992-10.294A37.269,37.269,0,0,0,80,69.057,24.2,24.2,0,0,0,82.474,62.1a2.068,2.068,0,0,0-1.4-2.46,2.014,2.014,0,0,0-2.46,1.4Z"/><path class="d" d="M23.89,61.987a35.327,35.327,0,0,0,7.639,15.039c3.727,4.317,8.7,7.977,14.453,8.855a2.065,2.065,0,0,0,2.46-1.4,2.014,2.014,0,0,0-1.4-2.46c-10.119-1.544-17.115-11.763-19.3-21.1-.585-2.506-4.443-1.445-3.857,1.063Z"/><path class="d" d="M27.239,45.744a6.757,6.757,0,0,0-7.363-1.1,6.426,6.426,0,0,0-3.359,4.321,16.057,16.057,0,0,0,2.33,12.675C20.5,64.1,23.1,66.31,26.258,65.9a2.066,2.066,0,0,0,2-2,2.012,2.012,0,0,0-2-2c-2.189.284-3.614-1.528-4.564-3.279a12.953,12.953,0,0,1-1.558-4.842,8.317,8.317,0,0,1,.829-5.063c-.325.521.512-.438.206-.214a1.849,1.849,0,0,1,.924-.422,2.528,2.528,0,0,1,2.316.493c1.915,1.709,4.754-1.111,2.828-2.829Z"/><path class="d" d="M82.086,48.573a2.5,2.5,0,0,1,2.189-.521,1.952,1.952,0,0,1,1.051.45c-.3-.22.522.721.206.214a8.294,8.294,0,0,1,.829,5.063A12.984,12.984,0,0,1,84.8,58.621c-.949,1.751-2.374,3.563-4.564,3.279a2.01,2.01,0,0,0-2,2,2.052,2.052,0,0,0,2,2c5.134.666,8.29-4.874,9.573-9.025,1.152-3.727,1.095-9.5-2.549-11.881a6.72,6.72,0,0,0-8.005.75c-1.925,1.718.912,4.539,2.828,2.829Z"/><path class="d" d="M87.067,45.573c2.194-8.91,1.519-18.44-2.884-26.608a29.264,29.264,0,0,0-6.571-8.244,41.382,41.382,0,0,0-9.455-6.4A36.842,36.842,0,0,0,41.169,3.167,35.443,35.443,0,0,0,23.787,16.678c-5.746,8.461-7.009,19.1-4.494,28.9.64,2.492,4.5,1.436,3.857-1.063a31.775,31.775,0,0,1,2.785-23.718A31.511,31.511,0,0,1,39.651,8.084,33.01,33.01,0,0,1,63.988,6.921a32.444,32.444,0,0,1,9.138,5.29,27.6,27.6,0,0,1,6.227,6.483c5.06,7.6,6.006,17.089,3.857,25.816-.616,2.5,3.24,3.566,3.857,1.063Z"/><path class="d" d="M70.342,7.819A10.279,10.279,0,0,1,77.827,4a8.911,8.911,0,0,1,6.438,2.632c2.016,2.058,2.105,4.881,2.635,7.576a27.525,27.525,0,0,0,3.72,9.834c1.865,2.838,4.484,4.154,7.469,5.549l-.718-2.736c-2.436,3.562-5.517,6.381-10.083,6.069-2.569-.176-2.558,3.825,0,4,6.013.411,10.338-3.374,13.537-8.05a2.009,2.009,0,0,0-.717-2.737c-2.573-1.2-4.894-2.163-6.4-4.7-1.946-3.282-2.7-6.9-3.382-10.6-.567-3.1-1.612-5.8-4.136-7.851A13.122,13.122,0,0,0,77.827,0,14.163,14.163,0,0,0,67.513,4.99C65.8,6.9,68.619,9.74,70.342,7.819Z"/><path class="d" d="M37.589,33c1.614,2.86,3.53,6.129,5.243,8.641a2.013,2.013,0,0,0,2.475.7c.414-.182.86-.382,1.285-.575a2.018,2.018,0,0,0,.986-2.707c-1.157-2.423-3.155-6.485-4.372-8.848a2.092,2.092,0,0,0-2.724-.948c-.635.287-1.345.613-1.989.914A2.02,2.02,0,0,0,37.589,33Z"/><path class="d" d="M61.606,24.76C57.018,29.848,50.594,33.1,44.672,36.35a88.4,88.4,0,0,1-14.755,6.055c-2.428.814-1.387,4.678,1.064,3.857A95.237,95.237,0,0,0,46.691,39.8c6.212-3.414,12.931-6.88,17.744-12.216,1.72-1.907-1.1-4.744-2.829-2.828Z"/><path class="d" d="M61.092,26.706c1.524,4.957,3.52,9.667,6.88,13.669,3.051,3.634,6.993,7.157,11.639,8.5,2.477.716,3.535-3.143,1.063-3.858C76.7,43.869,73.4,40.636,70.8,37.547c-2.9-3.447-4.543-7.648-5.852-11.9-.754-2.454-4.617-1.407-3.857,1.063Z"/><path class="d" d="M39.49,81.538c-1,1.132-1.925,2.328-2.879,3.5A9.467,9.467,0,0,0,34.35,88.7c-.493,2.013.36,3.431,1.386,5.024Q37.492,96.45,39.5,99a19.791,19.791,0,0,0,4.462,4.427,2.048,2.048,0,0,0,2.736-.717c2.371-3.167,4.549-6.4,7.128-9.32a2.04,2.04,0,0,0-.405-3.142c-.233-.167-.459-.346-.687-.521.561.43-.225-.175-.355-.277l-.7-.546q-1.9-1.482-3.787-2.97c-1.861-1.463-3.733-2.913-5.576-4.4a2.06,2.06,0,0,0-2.828,0,2.014,2.014,0,0,0,0,2.828c3.916,3.156,7.83,6.406,11.916,9.338L51,90.563c-2.81,3.186-5.21,6.733-7.753,10.13l2.737-.718c-.05-.033-.511-.364-.34-.232s-.241-.208-.289-.251c-.329-.288-.642-.594-.946-.908-.628-.65-1.216-1.339-1.784-2.042-1.059-1.314-2.153-2.877-3.141-4.384-.355-.542-.7-1.089-1.04-1.644-.1-.164-.2-.33-.293-.5a.781.781,0,0,1-.088-.16c.141.54.128-.073.135-.087a6.669,6.669,0,0,1,.5-1.012c.354-.47.754-.91,1.123-1.368.82-1.018,1.629-2.044,2.494-3.024C44.018,82.444,41.2,79.605,39.49,81.538Z"/><path class="d" d="M64.316,84.366c.865.98,1.674,2.007,2.494,3.024a8.728,8.728,0,0,1,1.617,2.37c-.019-.051.078.524.089.192,0-.145.048-.084-.017.035-.1.179-.2.353-.31.527-.335.555-.685,1.1-1.04,1.644-.961,1.466-2.046,3.018-3.068,4.292-.59.736-1.2,1.456-1.857,2.134-.282.291-.572.575-.874.845-.139.124-.279.247-.425.363.336-.268-.21.14-.276.183l2.737.718c-2.543-3.4-4.943-6.944-7.753-10.13L55.228,93.7c4.086-2.932,8-6.182,11.916-9.338a2.012,2.012,0,0,0,0-2.828,2.047,2.047,0,0,0-2.828,0c-1.843,1.485-3.715,2.935-5.576,4.4q-1.892,1.487-3.787,2.97l-.7.546c-.14.11-.916.707-.355.277-.228.175-.454.354-.687.521a2.04,2.04,0,0,0-.405,3.142c2.578,2.923,4.758,6.153,7.128,9.32a2.038,2.038,0,0,0,2.736.717A19.791,19.791,0,0,0,67.13,99q2.01-2.549,3.769-5.281c1.026-1.594,1.879-3.01,1.385-5.024a9.518,9.518,0,0,0-2.261-3.66c-.953-1.171-1.878-2.367-2.879-3.5C65.436,79.605,62.616,82.443,64.316,84.366Z"/><path class="d" d="M45.516,108.978q.393.293.78.591c-.168-.13.015.012.08.063l.413.321c.614.478,1.228.957,1.852,1.423.546.407,1.1.8,1.669,1.175a4.649,4.649,0,0,0,2.335,1.058,4.841,4.841,0,0,0,2.245-1c.572-.368,1.125-.762,1.67-1.167.626-.465,1.241-.945,1.857-1.423s.7-.553,1.355-1.04a2.05,2.05,0,0,0,.718-2.736,2.021,2.021,0,0,0-2.736-.717,48.222,48.222,0,0,1-6.119,4.357h2.019a48.037,48.037,0,0,1-6.119-4.357,2.005,2.005,0,0,0-2.736.717,2.059,2.059,0,0,0,.717,2.736Z"/><path class="d" d="M17.136,127.582c.911,8.157,2.923,16.276,4.741,24.267a93.237,93.237,0,0,0,2.446,9.33c1.665,4.9,3.706,9.685,5.743,14.443,2.552,5.961,5.214,11.876,7.853,17.8l.718-2.736c-5.729,3.006-11.582,5.773-17.42,8.56l2.736.717c-3.522-5.983-7.391-11.713-10.468-17.952a85.783,85.783,0,0,1-8.617-27.131A104.776,104.776,0,0,1,5,128.516a79.969,79.969,0,0,1,2.184-11.1,29.667,29.667,0,0,1,4.844-10.738c5.9-7.506,15.576-11.136,23.889-15.208,2.311-1.133.286-4.584-2.019-3.454-7.925,3.882-16.616,7.358-22.89,13.79-5.878,6.025-8.046,14.365-9.394,22.451A100.574,100.574,0,0,0,.436,151.083,95.028,95.028,0,0,0,2.791,165.25a94.99,94.99,0,0,0,5.414,14.906A108.167,108.167,0,0,0,14.368,192c2.031,3.337,4.149,6.616,6.131,9.983a2.053,2.053,0,0,0,2.737.718c5.837-2.787,11.69-5.554,17.42-8.56a2.051,2.051,0,0,0,.717-2.737c-4.407-9.89-9.072-19.741-12.724-29.944-2.535-7.084-3.858-14.654-5.365-22.006-.474-2.31-.934-4.624-1.357-6.944-.175-.96-.345-1.922-.5-2.886q-.1-.609-.188-1.221c-.008-.058-.089-.677-.027-.186q-.041-.317-.076-.633a2.059,2.059,0,0,0-2-2,2.013,2.013,0,0,0-2,2Z"/><path class="d" d="M85.816,127.582a213.565,213.565,0,0,1-4.258,23.931c-1.818,7.972-4.864,15.409-8.2,22.856-2.55,5.7-5.189,11.355-7.781,17.033a2.041,2.041,0,0,0,.718,2.737c5.729,3.006,11.582,5.773,17.42,8.56a2.048,2.048,0,0,0,2.736-.718c3.577-6.074,7.474-11.888,10.613-18.214a90.742,90.742,0,0,0,8.859-26.853c1.344-9.077.78-18.207-.153-27.295a94.791,94.791,0,0,0-1.9-13.552,32.3,32.3,0,0,0-6.4-12.567C91.255,95.967,81.588,92.2,73.056,88.015c-2.3-1.129-4.333,2.32-2.019,3.454,7.394,3.622,15.6,6.823,21.585,12.669a27.269,27.269,0,0,1,6.7,10.665c1.395,4.107,1.758,8.469,2.228,12.756.958,8.732,1.716,17.584.76,26.348a81.788,81.788,0,0,1-7.81,26.011c-3.341,7-7.577,13.376-11.5,20.044l2.737-.717c-5.838-2.787-11.691-5.554-17.42-8.56l.717,2.736c4.324-9.474,8.912-18.87,12.676-28.587,3.02-7.794,4.638-15.99,6.112-24.195.778-4.33,1.512-8.682,2-13.057a2.012,2.012,0,0,0-2-2,2.046,2.046,0,0,0-2,2Z"/><path class="d" d="M55.019,141.5c1.636-3.835,3.318-7.652,4.872-11.521,1.685-4.194,3.162-8.464,4.723-12.7,3.4-9.229,6.958-18.441,9.335-28l-2.938,1.195a28.057,28.057,0,0,1,5.452,4.111A17.141,17.141,0,0,1,80.6,99.663l-.273-1.009.012.235.273-1.01-.159.219.717-.718c-1.707,1.079-3.417,2.163-5.136,3.222a2.028,2.028,0,0,0,0,3.454c.938.658,1.905,1.273,2.848,1.924.418.289.83.581,1.222.905q.319.265.623.548.548.376.214.274v-1.064a7.238,7.238,0,0,1-1.076,2.126q-.535.934-1.077,1.867-1.224,2.1-2.477,4.187-2.65,4.412-5.4,8.763c-3.6,5.725-7.3,11.392-11.015,17.046-1.417,2.158,2.045,4.164,3.454,2.019,4.811-7.322,9.593-14.665,14.179-22.131,2.2-3.578,4.353-7.184,6.419-10.84a4.336,4.336,0,0,0,.85-3.037,4.269,4.269,0,0,0-1.552-2.319,56.891,56.891,0,0,0-5.193-3.722v3.454c1-.618,1.986-1.264,2.979-1.9a11.937,11.937,0,0,0,2.718-1.84c1.558-1.794-.451-4.073-1.59-5.5a32,32,0,0,0-9.126-7.809,2.021,2.021,0,0,0-2.938,1.2c-2.339,9.411-5.828,18.487-9.177,27.572-1.532,4.157-2.978,8.346-4.613,12.465-1.5,3.777-3.142,7.5-4.736,11.234a2.068,2.068,0,0,0,.718,2.736,2.013,2.013,0,0,0,2.736-.718Z"/><path class="d" d="M53.871,139.477c-1.594-3.738-3.236-7.457-4.735-11.234-1.636-4.119-3.082-8.308-4.614-12.465-3.349-9.085-6.837-18.161-9.177-27.572a2.021,2.021,0,0,0-2.938-1.2,31.993,31.993,0,0,0-9.126,7.809c-1.117,1.4-2.967,3.469-1.746,5.3a8.481,8.481,0,0,0,2.7,1.928c1.055.668,2.1,1.356,3.159,2.011V100.6a57.379,57.379,0,0,0-5.194,3.722,4.259,4.259,0,0,0-1.551,2.319,4.347,4.347,0,0,0,.849,3.037c2.067,3.656,4.221,7.262,6.419,10.84,4.587,7.466,9.368,14.809,14.179,22.131,1.408,2.143,4.873.141,3.454-2.019-3.715-5.654-7.41-11.321-11.015-17.046q-2.682-4.26-5.284-8.571-1.256-2.087-2.483-4.191-.6-1.024-1.186-2.055a7.25,7.25,0,0,1-1.076-2.126v1.064q-.335.1.213-.274c.2-.188.41-.371.623-.548.392-.324.8-.616,1.223-.905.943-.651,1.909-1.266,2.847-1.924a2.027,2.027,0,0,0,0-3.454c-1.719-1.059-3.429-2.143-5.136-3.222l.718.718-.159-.219.273,1.01.011-.235-.273,1.009a17.132,17.132,0,0,1,4.133-5.088,28.027,28.027,0,0,1,5.452-4.111l-2.938-1.195c2.376,9.56,5.937,18.772,9.335,28,1.561,4.24,3.038,8.51,4.722,12.7,1.555,3.869,3.237,7.686,4.872,11.521a2.013,2.013,0,0,0,2.737.718,2.052,2.052,0,0,0,.717-2.736Z"/><path class="d" d="M38.657,192.217c4.765-.522,9.463-2.374,12.072-6.61,2.327-3.78,3.313-8.533,4.187-12.829H51.059a60.353,60.353,0,0,0,1.7,6.864,24.291,24.291,0,0,0,2.783,6.444c2.853,4.183,7.853,5.914,12.731,6.2,2.572.151,2.563-3.85,0-4-3.893-.229-7.889-1.634-9.874-5.191-1.9-3.4-2.765-7.593-3.487-11.381-.366-1.921-3.471-1.9-3.857,0-.739,3.634-1.533,7.545-3.226,10.874-1.8,3.546-5.323,5.206-9.176,5.628a2.059,2.059,0,0,0-2,2,2.014,2.014,0,0,0,2,2Z"/></svg>