<?xml version="1.0" encoding="iso-8859-1"?>
<!-- Uploaded to: SVG Repo, www.svgrepo.com, Generator: SVG Repo Mixer Tools -->
<svg fill="#000000" height="800px" width="800px" version="1.1" id="Capa_1" xmlns="http://www.w3.org/2000/svg" xmlns:xlink="http://www.w3.org/1999/xlink" 
	 viewBox="0 0 463 463" xml:space="preserve">
<path d="M358.123,227.982c-10.146-19.099-26.782-25.313-34.077-27.183l-11.261-16.893c-2.885-4.326-7.189-7.613-12.121-9.258
	l-12.648-4.216c-2.361-14.575-5.292-28.15-8.746-40.437l6.268,2.089c2.525,0.842,4.535,2.852,5.377,5.376l5.47,16.411
	c0.733,2.199,2.446,3.938,4.635,4.706c7.747,2.719,29.399,11.862,36.454,21.386c1.471,1.986,3.736,3.036,6.032,3.036
	c1.552,0,3.116-0.479,4.458-1.474c3.329-2.465,4.028-7.162,1.563-10.49c-9.246-12.482-31.191-21.898-40.048-25.318l-4.333-13
	c-2.327-6.979-7.884-12.536-14.863-14.863l-16.41-5.47c-0.086-0.029-0.172-0.047-0.258-0.072c-0.318-0.873-0.642-1.728-0.967-2.582
	c2.4-2.382,3.912-5.436,4.375-8.685c11.091-6.322,18.813-16.986,21.338-29.609l3.794-18.969
	c10.313-5.956,17.792-15.832,20.699-27.463l3.922-15.687c1.004-4.019-1.438-8.091-5.457-9.096c-4.021-0.999-8.09,1.439-9.096,5.457
	l-3.922,15.688c-2.06,8.24-7.598,15.145-15.198,18.944l-0.96,0.48c-2.069,1.035-3.544,2.968-3.998,5.236l-4.493,22.467
	c-1.279,6.395-4.588,12.021-9.366,16.179c-2.882-10.125-6.969-18.905-11.929-25.942L277.74,35.66c2.298-3.446,1.366-8.103-2.08-10.4
	c-3.445-2.298-8.103-1.367-10.4,2.08l-13.416,20.125C245.655,42.645,238.75,40,231.5,40s-14.155,2.644-20.343,7.464L197.74,27.34
	c-2.297-3.446-6.954-4.377-10.4-2.08c-3.446,2.298-4.378,6.954-2.08,10.4l15.382,23.073c-4.96,7.037-9.047,15.817-11.929,25.941
	c-4.777-4.158-8.086-9.784-9.366-16.179l-4.493-22.467c-0.454-2.269-1.929-4.201-3.998-5.236l-0.963-0.481
	c-7.598-3.799-13.136-10.703-15.195-18.944l-3.922-15.687c-1.005-4.019-5.08-6.456-9.096-5.457
	c-4.019,1.005-6.461,5.077-5.457,9.096l3.922,15.686c2.907,11.633,10.387,21.51,20.699,27.464l3.794,18.969
	c2.525,12.623,10.247,23.287,21.338,29.609c0.463,3.25,1.975,6.303,4.375,8.685c-0.325,0.854-0.649,1.709-0.967,2.583
	c-0.085,0.025-0.172,0.043-0.257,0.071l-16.41,5.47c-6.979,2.327-12.536,7.884-14.863,14.863l-4.333,13
	c-8.856,3.42-30.802,12.836-40.048,25.318c-2.466,3.328-1.767,8.025,1.563,10.49c1.342,0.995,2.906,1.474,4.458,1.474
	c2.295,0,4.562-1.05,6.032-3.036c7.055-9.523,28.707-18.667,36.451-21.385c2.191-0.767,3.903-2.505,4.638-4.707l5.47-16.41
	c0.842-2.525,2.852-4.535,5.376-5.377l6.269-2.089c-3.453,12.287-6.385,25.862-8.746,40.437l-12.648,4.216
	c-4.932,1.645-9.236,4.932-12.121,9.259l-11.261,16.892c-7.295,1.869-23.932,8.084-34.077,27.183
	c-1.943,3.658-0.554,8.198,3.104,10.142c1.121,0.596,2.325,0.879,3.512,0.879c2.686,0,5.282-1.446,6.63-3.983
	c9.265-17.438,25.694-19.987,26.337-20.08c2.151-0.277,4.077-1.474,5.28-3.278l12.955-19.432c1.044-1.565,2.601-2.755,4.385-3.35
	l5.517-1.839c-3.003,23.73-4.597,49.585-4.597,76.46c0,2.41,0.017,4.812,0.042,7.208c-0.027,0.26-0.042,0.524-0.042,0.792
	c0,0.309,0.024,0.612,0.061,0.911c0.638,48.64,6.489,94.144,16.641,128.953C196.463,441.687,212.646,463,231.5,463
	s35.037-21.313,46.798-61.636c10.153-34.809,16.003-80.313,16.641-128.953c0.036-0.299,0.061-0.602,0.061-0.911
	c0-0.268-0.015-0.531-0.042-0.792c0.025-2.396,0.042-4.798,0.042-7.208c0-26.875-1.593-52.729-4.597-76.46l5.516,1.839
	c1.784,0.595,3.341,1.784,4.385,3.349l12.955,19.433c1.203,1.805,3.076,2.993,5.228,3.271c0.695,0.1,17.125,2.648,26.39,20.087
	c1.348,2.537,3.944,3.983,6.63,3.983c1.187,0,2.391-0.283,3.512-0.879C358.677,236.18,360.067,231.64,358.123,227.982z M278.185,312
	h-93.369c-0.821-10.729-1.369-21.762-1.632-33h96.633C279.554,290.239,279.005,301.271,278.185,312z M272.324,360.048
	c-0.271-0.03-0.545-0.047-0.824-0.047h-80c-0.279,0-0.553,0.018-0.824,0.047c-1.82-10.499-3.332-21.559-4.519-33.047h90.685
	C275.656,338.489,274.144,349.549,272.324,360.048z M263.898,397.165c-0.281,0.964-0.565,1.902-0.849,2.835h-63.098
	c-0.284-0.933-0.567-1.871-0.849-2.835c-2.029-6.955-3.876-14.369-5.541-22.165h75.877
	C267.774,382.796,265.926,390.21,263.898,397.165z M183.002,264c0-0.167-0.002-0.333-0.002-0.5c0-10.986,0.288-21.854,0.839-32.5
	h95.322c0.551,10.646,0.839,21.514,0.839,32.5c0,0.167-0.002,0.333-0.002,0.5H183.002z M184.805,216
	c0.876-11.378,2.058-22.427,3.531-33h86.328c1.474,10.572,2.656,21.622,3.531,33H184.805z M204.832,113.848
	c17.317-3.776,36.016-3.776,53.335,0c1.71,4.414,3.333,9.144,4.865,14.153h-63.065C201.499,122.992,203.122,118.261,204.832,113.848
	z M195.861,143h71.277c1.929,7.86,3.665,16.219,5.188,25h-81.652C192.196,159.219,193.932,150.86,195.861,143z M231.5,55
	c13.262,0,26.162,18.445,30.674,43.86c0.013,0.071,0.022,0.122-0.093,0.232c-0.216,0.207-0.438,0.157-0.508,0.143
	C251.803,97.089,241.685,96,231.5,96s-20.303,1.089-30.072,3.235c-0.073,0.016-0.293,0.063-0.509-0.143
	c-0.115-0.11-0.105-0.161-0.093-0.233C205.338,73.446,218.238,55,231.5,55z M231.5,448c-6.976,0-16.971-9.02-26.376-33h52.753
	C248.471,438.98,238.476,448,231.5,448z"/>
</svg>