<?xml version="1.0" encoding="iso-8859-1"?>
<!-- Uploaded to: SVG Repo, www.svgrepo.com, Generator: SVG Repo Mixer Tools -->
<svg xmlns="http://www.w3.org/2000/svg" xmlns:xlink="http://www.w3.org/1999/xlink" version="1.1" id="Capa_1"  viewBox="0 0 454.997 454.997" xml:space="preserve" width="512" height="512">
<g>
	<polygon style="fill:#185F8D;" points="148.492,320.647 63.64,391.358 31.82,359.538 102.53,274.685  "/>
	<polygon style="fill:#274B6D;" points="109.602,281.756 31.82,359.538 0,327.718 70.711,257.007  "/>
	<path style="fill:#FFCC75;" d="M445.552,66.014L388.983,9.445c-11.667-11.667-29.762-12.664-40.211-2.216   c-10.449,10.449-24.532,24.532-24.532,24.532l98.995,98.995c0,0,14.083-14.083,24.532-24.532S457.22,77.681,445.552,66.014z"/>
	
		<rect x="286.921" y="33.076" transform="matrix(0.7071 -0.7071 0.7071 0.7071 20.1896 274.8941)" style="fill:#F2EBD9;" width="110" height="160"/>
	<polygon style="fill:#185F8D;" points="197.99,384.287 127.279,454.997 95.459,423.178 166.17,338.325  "/>
	
		<rect x="63.44" y="345.877" transform="matrix(0.7071 -0.7071 0.7071 0.7071 -225.7913 191.6451)" style="fill:#274B6D;" width="110" height="45"/>
	
		<rect x="97.951" y="142.772" transform="matrix(0.7071 -0.7071 0.7071 0.7071 -99.506 225.3146)" style="fill:#F2484B;" width="248.55" height="180"/>
</g>















</svg>