<?xml version="1.0" encoding="iso-8859-1"?>
<!-- Uploaded to: SVG Repo, www.svgrepo.com, Generator: SVG Repo Mixer Tools -->
<svg height="800px" width="800px" version="1.1" id="Layer_1" xmlns="http://www.w3.org/2000/svg" xmlns:xlink="http://www.w3.org/1999/xlink" 
	 viewBox="0 0 512 512" xml:space="preserve">
<path style="fill:#D8D7DA;" d="M412.166,276.636h-1.673V154.492C410.492,69.305,341.187,0,256,0S101.508,69.305,101.508,154.492
	v122.144h-1.673c-24.911,0-45.176,20.266-45.176,45.176s20.266,45.176,45.176,45.176c7.811,0,15.489-2.026,22.256-5.865
	c2.798,16.118,17.063,28.174,33.518,28.174h200.784c16.455,0,30.721-12.055,33.518-28.173c6.768,3.838,14.444,5.864,22.256,5.864
	c24.911,0,45.176-20.266,45.176-45.176S437.076,276.636,412.166,276.636z"/>
<path style="fill:#EFCA83;" d="M391.255,445.834c-1.594-9.551-4.829-18.683-9.616-27.146l0,0c-2.571-4.544-5.582-8.827-8.988-12.784
	l-2.452-2.848c-5.945-6.396-12.814-11.78-20.418-16.005l-55.352-30.75l-0.631-0.571c-1.148-1.039-1.801-2.513-1.801-4.06
	l0.308-61.527h-68.351v61.606c0,1.828-0.912,3.537-2.434,4.552l-55.352,30.75c-6.107,3.393-11.784,7.572-16.875,12.42l-2.814,2.906
	c-3.595,3.711-6.818,7.766-9.624,12.105l0,0c-6.196,9.583-10.288,20.131-12.161,31.351l0,0c-0.754,6.18-1.133,12.4-1.133,18.625
	v44.573c0,1.64,1.33,2.969,2.969,2.969h30.321h28.205h156.863h17.18h30.902c1.319,0,2.388-1.069,2.388-2.388v-45.155
	C392.388,458.232,392.01,452.013,391.255,445.834L391.255,445.834z"/>
<path style="fill:#DDB200;" d="M348.381,456.227l43.723-1.109c-0.007-0.112-0.019-0.224-0.026-0.336
	c-0.189-2.989-0.46-5.974-0.823-8.948c-1.594-9.551-4.829-18.683-9.616-27.146c-0.666-1.177-1.362-2.336-2.088-3.475
	c-0.006-0.009-0.012-0.018-0.018-0.027c-0.721-1.131-1.469-2.245-2.244-3.34l0,0c-75.688,34.519-154.354,32.118-235.727-3.88
	c-0.832,1.038-1.64,2.098-2.421,3.177c-0.006,0.008-0.011,0.014-0.017,0.022c-0.785,1.085-1.543,2.191-2.27,3.317
	c-6.196,9.583-10.288,20.131-12.161,31.351c-0.366,3.001-0.64,6.011-0.829,9.026c-0.006,0.084-0.015,0.167-0.019,0.251h43.807
	c-2.173,2.992-9.353,16.226-10.473,47.647L156.85,512h28.205h156.863h17.18l-0.329-9.242
	C357.65,471.337,350.553,459.218,348.381,456.227z"/>
<path style="fill:#C6C5CB;" d="M81.155,321.813c0-24.911,20.266-45.176,45.176-45.176h1.673V154.492
	c0-80.724,62.236-147.175,141.244-153.918C264.88,0.201,260.463,0,256,0c-85.187,0-154.492,69.305-154.492,154.492v122.144h-1.673
	c-24.911,0-45.176,20.266-45.176,45.176s20.266,45.176,45.176,45.176c4.499,0,8.947-0.694,13.209-1.997
	C94.597,359.305,81.155,342.1,81.155,321.813z"/>
<g>
	<path style="fill:#EDC272;" d="M378.855,164.822l-10.193-1.465h-24.052v59.238h24.052l10.193-1.465
		c13.902-1.997,24.386-14.101,24.386-28.154S392.758,166.818,378.855,164.822z"/>
	<path style="fill:#EDC272;" d="M146.684,163.357l-10.193,1.465c-13.902,1.997-24.386,14.101-24.386,28.154
		s10.484,26.158,24.386,28.154l10.193,1.465h28.818v-59.238H146.684z"/>
</g>
<path style="fill:#EFCA83;" d="M257.018,321.81c-61.859-0.355-111.45-51.476-111.45-113.336v-43.385
	c0-9.219,1.129-18.394,3.354-27.269l1.254-4.998c0.259-1.031,1.186-1.755,2.249-1.755h103.708c0.775,0,1.499-0.387,1.929-1.032
	l19.99-29.986c0.918-1.376,2.94-1.376,3.858,0l19.99,29.986c0.429,0.645,1.153,1.032,1.929,1.032h63.629
	c1.281,0,2.318,1.037,2.318,2.318v76.323C369.778,271.74,319.132,322.167,257.018,321.81z"/>
<path style="fill:#EABB71;" d="M171.974,208.474v-43.385c0-9.219,1.129-18.394,3.354-27.269l1.254-4.998
	c0.259-1.031,1.186-1.755,2.249-1.755h-26.405c-1.063,0-1.99,0.723-2.249,1.755l-1.254,4.998c-2.226,8.876-3.354,18.05-3.354,27.269
	v43.385c0,61.861,49.59,112.981,111.45,113.336c4.705,0.027,9.343-0.242,13.9-0.781
	C215.015,314.405,171.974,266.105,171.974,208.474z"/>
<g>
	<circle style="fill:#765C43;" cx="200.227" cy="199.111" r="11.155"/>
	<circle style="fill:#765C43;" cx="311.773" cy="199.111" r="11.155"/>
</g>
<g>
	<path style="fill:#C6C5CB;" d="M189.072,176.802h22.309c6.161,0,11.155-4.994,11.155-11.155c0-6.161-4.994-11.155-11.155-11.155
		h-22.309c-6.161,0-11.155,4.994-11.155,11.155C177.917,171.808,182.911,176.802,189.072,176.802z"/>
	<path style="fill:#C6C5CB;" d="M300.619,176.802h22.309c6.161,0,11.155-4.994,11.155-11.155c0-6.161-4.994-11.155-11.155-11.155
		h-22.309c-6.161,0-11.155,4.994-11.155,11.155C289.464,171.808,294.458,176.802,300.619,176.802z"/>
</g>
<path style="fill:#E0A06B;" d="M298.837,258.798c-3.997-2.313-9.118-0.946-11.43,3.053c-6.47,11.184-18.505,18.132-31.407,18.132
	c-12.903,0-24.937-6.948-31.407-18.132c-2.313-4-7.433-5.367-11.43-3.053c-4,2.314-5.368,7.431-3.053,11.431
	c9.449,16.337,27.034,26.486,45.89,26.486c18.856,0,36.44-10.15,45.891-26.487C304.205,266.229,302.837,261.111,298.837,258.798z"/>
<path style="fill:#CB7A49;" d="M248.92,232.575h14.16c2.251,0,4.075-1.824,4.075-4.075v-7.08c0-6.161-4.994-11.155-11.155-11.155
	c-6.161,0-11.155,4.994-11.155,11.155v7.08C244.845,230.751,246.669,232.575,248.92,232.575z"/>
<g>
	<path style="fill:#DDA64E;" d="M206.935,231.465c-3.013-0.621-5.957,1.285-6.577,4.302c-0.244,1.027-2.784,10.008-16.498,9.115
		c-3.062-0.2-5.729,2.126-5.93,5.2c-0.201,3.074,2.126,5.729,5.2,5.93c0.905,0.059,1.779,0.088,2.633,0.088
		c17.161,0,24.184-11.585,25.504-18.011C211.887,235.073,209.952,232.087,206.935,231.465z"/>
	<path style="fill:#DDA64E;" d="M334.071,250.084c-0.202-3.073-2.838-5.406-5.93-5.2c-13.663,0.893-16.237-8.021-16.494-9.103
		c-0.648-2.979-3.567-4.891-6.573-4.276c-3.017,0.62-4.959,3.568-4.34,6.586c1.322,6.427,8.34,18.011,25.504,18.011
		c0.853,0,1.73-0.028,2.633-0.088C331.944,255.813,334.272,253.158,334.071,250.084z"/>
</g>
</svg>