<?xml version="1.0" encoding="iso-8859-1"?>
<!-- Generator: Adobe Illustrator 19.0.0, SVG Export Plug-In . SVG Version: 6.00 Build 0)  -->
<svg version="1.1" id="Layer_1" xmlns="http://www.w3.org/2000/svg" xmlns:xlink="http://www.w3.org/1999/xlink" x="0px" y="0px"
	 viewBox="0 0 505.173 505.173" style="enable-background:new 0 0 505.173 505.173;" xml:space="preserve">
<g transform="translate(1 1)">
	<path style="fill:#FFD0A1;" d="M378.78,191c0,34.133-25.6,102.4-34.133,119.467c-3.413,6.827-13.653,20.48-26.453,33.28
		c-6.827,5.973-13.653,11.947-21.333,17.92c-14.507,10.24-29.867,17.067-46.08,17.067c-17.067,0-34.133-8.533-49.493-19.627
		c-6.827-5.12-12.8-10.24-17.92-15.36c-12.8-12.8-23.04-26.453-26.453-33.28C148.38,293.4,122.78,225.134,122.78,191v-34.133
		c0,0,153.6,0,221.867-51.2C344.647,173.933,378.78,191,378.78,191z M353.18,421.4l3.413,1.707
		c-11.947,22.187-46.08,75.093-105.813,75.093c-60.587,0-93.867-52.053-105.813-75.093l3.413-1.707c0,0,42.667-17.067,51.2-59.733
		l1.707-2.56c15.36,11.093,32.427,19.627,49.493,19.627c16.213,0,32.427-6.827,46.08-17.067h5.12
		C310.513,404.333,353.18,421.4,353.18,421.4z"/>
	<path style="fill:#ECF4F7;" d="M173.98,404.333c5.12,0,8.533-3.413,8.533-8.533s-3.413-8.533-8.533-8.533s-8.533,3.413-8.533,8.533
		S168.86,404.333,173.98,404.333z M208.113,438.467c5.12,0,8.533-3.413,8.533-8.533s-3.413-8.533-8.533-8.533
		c-5.12,0-8.533,3.413-8.533,8.533S202.993,438.467,208.113,438.467z M250.78,455.533c5.12,0,8.533-3.413,8.533-8.533
		s-3.413-8.533-8.533-8.533s-8.533,3.413-8.533,8.533S245.66,455.533,250.78,455.533z M293.447,438.467
		c5.12,0,8.533-3.413,8.533-8.533s-3.413-8.533-8.533-8.533s-8.533,3.413-8.533,8.533S288.326,438.467,293.447,438.467z
		 M327.58,404.333c5.12,0,8.533-3.413,8.533-8.533s-3.413-8.533-8.533-8.533s-8.533,3.413-8.533,8.533
		S322.46,404.333,327.58,404.333z"/>
	<path style="fill:#FF7474;" d="M489.713,472.6l8.533,25.6H250.78c60.587,0,94.72-52.053,105.813-75.093
		c3.413-5.973,5.12-10.24,5.12-10.24C429.98,412.867,482.033,448.707,489.713,472.6z M250.78,498.2H3.313l8.533-25.6
		c8.533-25.6,42.667-59.733,128-59.733c0,0,1.707,4.267,5.12,10.24C156.913,446.147,190.193,498.2,250.78,498.2z"/>
	<path style="fill:#ECF4F7;" d="M464.113,225.133c0,18.773-7.68,35.84-20.48,48.64c1.707,5.973,3.413,12.8,3.413,19.627
		c0,37.547-30.72,68.267-68.267,68.267c-5.973,0-42.667,0-59.733-17.067l-0.853-0.853c12.8-12.8,23.04-26.453,26.453-33.28
		C353.18,293.4,378.78,225.133,378.78,191c0,0-34.133-17.067-34.133-85.333c-68.267,51.2-221.867,51.2-221.867,51.2V191
		c0,34.133,25.6,102.4,34.133,119.467c3.413,6.827,13.653,20.48,26.453,33.28l-0.853,0.853
		c-17.067,17.067-53.76,17.067-59.733,17.067c-37.547,0-68.267-30.72-68.267-68.267c0-6.827,0.853-13.653,3.413-19.627
		c-12.8-12.8-20.48-29.867-20.48-48.64c0-23.04,11.093-43.52,29.013-55.467c-7.68-11.093-11.947-23.893-11.947-38.4
		c0-33.28,23.893-61.44,56.32-67.413c20.48-34.987,46.08-60.587,141.653-60.587c75.947,0,135.68,25.6,150.187,64
		c26.453,9.387,45.227,34.987,45.227,64c0,14.507-4.267,27.307-11.947,38.4C453.02,181.613,464.113,202.093,464.113,225.133"/>
</g>
<path style="fill:#51565F;" d="M499.247,503.467c-1.707,0-3.413-0.853-4.267-2.56l-8.533-25.6
	c-6.827-19.627-52.907-55.467-121.173-56.32c-6.827,14.507-42.667,85.333-113.493,85.333s-106.667-70.827-113.493-85.333
	C62.34,419.84,26.5,448.853,17.113,476.16l-8.533,25.6c-0.853,2.56-3.413,3.413-5.12,2.56c-2.56-0.853-3.413-3.413-2.56-5.12
	l8.533-25.6c5.12-14.507,29.013-62.293,132.267-62.293c1.707,0,3.413,0.853,4.267,2.56c0,0.853,34.133,82.773,106.667,82.773
	c73.387,0,106.667-81.067,106.667-81.92c0.853-1.707,2.56-2.56,4.267-2.56c71.68,0,123.733,36.693,132.267,62.293l8.533,25.6
	c0.853,2.56-0.853,4.267-2.56,5.12C500.1,503.467,500.1,503.467,499.247,503.467z M251.78,460.8c-6.827,0-12.8-5.973-12.8-12.8
	s5.973-12.8,12.8-12.8c6.827,0,12.8,5.973,12.8,12.8S258.607,460.8,251.78,460.8z M251.78,443.733c-2.56,0-4.267,1.707-4.267,4.267
	c0,2.56,1.707,4.267,4.267,4.267s4.267-1.707,4.267-4.267C256.047,445.44,254.34,443.733,251.78,443.733z M294.447,443.733
	c-6.827,0-12.8-5.973-12.8-12.8s5.973-12.8,12.8-12.8s12.8,5.973,12.8,12.8S301.273,443.733,294.447,443.733z M294.447,426.667
	c-2.56,0-4.267,1.707-4.267,4.267c0,2.56,1.707,4.267,4.267,4.267s4.267-1.707,4.267-4.267
	C298.713,428.373,297.007,426.667,294.447,426.667z M209.113,443.733c-6.827,0-12.8-5.973-12.8-12.8s5.973-12.8,12.8-12.8
	s12.8,5.973,12.8,12.8S215.94,443.733,209.113,443.733z M209.113,426.667c-2.56,0-4.267,1.707-4.267,4.267
	c0,2.56,1.707,4.267,4.267,4.267s4.267-1.707,4.267-4.267C213.38,428.373,211.673,426.667,209.113,426.667z M328.58,409.6
	c-6.827,0-12.8-5.973-12.8-12.8s5.973-12.8,12.8-12.8s12.8,5.973,12.8,12.8S335.407,409.6,328.58,409.6z M328.58,392.533
	c-2.56,0-4.267,1.707-4.267,4.267s1.707,4.267,4.267,4.267s4.267-1.707,4.267-4.267S331.14,392.533,328.58,392.533z M174.98,409.6
	c-6.827,0-12.8-5.973-12.8-12.8s5.973-12.8,12.8-12.8s12.8,5.973,12.8,12.8S181.807,409.6,174.98,409.6z M174.98,392.533
	c-2.56,0-4.267,1.707-4.267,4.267s1.707,4.267,4.267,4.267s4.267-1.707,4.267-4.267S177.54,392.533,174.98,392.533z M251.78,384
	c-46.933,0-90.453-55.467-97.28-70.827C146.82,296.96,119.513,227.84,119.513,192v-34.133c0-2.56,1.707-4.267,4.267-4.267
	c1.707,0,152.747-0.853,219.307-50.347c1.707-0.853,3.413-0.853,4.267,0c0.853,0.853,2.56,2.56,2.56,3.413V140.8
	c0,23.04,32.427,47.787,32.427,47.787c0.853,0.853,1.707,1.707,1.707,3.413c0,35.84-26.453,104.96-34.987,121.173
	C342.233,328.533,298.713,384,251.78,384z M128.047,162.133V192c0,33.28,24.747,99.84,33.28,117.76
	c9.387,17.92,50.347,65.707,90.453,65.707s81.067-47.787,90.453-65.707c8.533-17.067,32.427-81.92,33.28-115.2
	c-6.827-5.973-34.133-29.013-34.133-52.907v-25.6C276.526,157.867,152.793,162.133,128.047,162.133z M379.78,366.933
	c-5.973,0-11.947-0.853-17.92-2.56c-2.56-0.853-3.413-2.56-3.413-5.12c0.853-2.56,2.56-3.413,5.12-3.413
	c5.12,1.707,10.24,1.707,16.213,1.707c34.987,0,64-29.013,64-64c0-5.973-0.853-12.8-2.56-18.773c-0.853-1.707,0-3.413,0.853-4.267
	c11.947-11.947,18.773-28.16,18.773-45.227c0-20.48-10.24-40.107-27.307-52.053c-1.707-1.707-2.56-4.267-0.853-5.973
	c6.827-10.24,11.093-23.04,11.093-35.84c0-26.453-17.067-51.2-41.813-59.733c-0.853,0-1.707-1.707-2.56-2.56
	C384.9,32.427,326.873,7.68,252.633,7.68c-95.573,0-117.76,25.6-137.387,58.88c-0.853,0.853-1.707,1.707-2.56,1.707
	c-30.72,5.12-52.053,32.427-52.053,63.147c0,12.8,3.413,25.6,11.093,35.84c1.707,1.707,0.853,4.267-0.853,5.973
	C53.806,185.173,43.566,204.8,43.566,225.28c0,17.067,6.827,33.28,18.773,45.227c0.853,0.853,1.707,2.56,0.853,4.267
	c-1.707,5.973-2.56,11.947-2.56,18.773c0,34.987,29.013,64,64,64c5.12,0,11.093-0.853,16.213-1.707
	c2.56-0.853,4.267,0.853,5.12,3.413c0.853,2.56-0.853,4.267-3.413,5.12c-5.973,1.707-11.947,2.56-17.92,2.56
	c-40.107,0-72.533-32.427-72.533-72.533c0-5.973,0.853-12.8,2.56-18.773c-12.8-13.653-19.627-30.72-19.627-49.493
	c0-22.187,10.24-42.667,27.307-56.32C55.513,158.72,52.1,145.92,52.1,132.267c0-34.133,23.893-64,57.173-70.827
	C129.753,27.307,155.353,0,253.487,0c76.8,0,136.533,25.6,153.6,64.853c27.307,11.093,46.08,37.547,46.08,67.413
	c0,12.8-3.413,25.6-10.24,37.547c17.067,13.653,27.307,34.987,27.307,56.32c0,18.773-6.827,35.84-19.627,49.493
	c1.707,5.973,2.56,12.8,2.56,18.773C452.313,334.507,419.887,366.933,379.78,366.933z M251.78,324.267
	c-18.773,0-28.16-9.387-29.013-9.387c-1.707-1.707-1.707-4.267,0-5.973c1.707-1.707,4.267-1.707,5.973,0l0,0
	c0,0,7.68,7.68,22.187,7.68c14.507,0,22.187-6.827,22.187-7.68c1.707-1.707,4.267-1.707,5.973,0c1.707,1.707,1.707,4.267,0,5.973
	C279.94,314.88,270.553,324.267,251.78,324.267z M379.78,298.667c-2.56,0-4.267-1.707-4.267-4.267v-17.067
	c0-2.56,1.707-4.267,4.267-4.267s4.267,1.707,4.267,4.267V294.4C384.047,296.96,382.34,298.667,379.78,298.667z M123.78,298.667
	c-2.56,0-4.267-1.707-4.267-4.267v-17.067c0-2.56,1.707-4.267,4.267-4.267c2.56,0,4.267,1.707,4.267,4.267V294.4
	C128.047,296.96,126.34,298.667,123.78,298.667z M294.447,230.4c-2.56,0-4.267-1.707-4.267-4.267v-11.947
	c-6.827,1.707-8.533,5.973-9.387,5.973c-0.853,1.707-3.413,2.56-5.973,1.707c-1.707-0.853-2.56-3.413-1.707-5.973
	c0-0.853,5.973-11.093,20.48-11.093c15.36,0,20.48,10.24,20.48,11.093c0.853,1.707,0,4.267-1.707,5.973
	c-1.707,0.853-4.267,0-5.973-1.707c0,0-2.56-4.267-9.387-5.973v11.947C298.713,228.693,297.007,230.4,294.447,230.4z M209.113,230.4
	c-2.56,0-4.267-1.707-4.267-4.267v-11.947c-6.827,1.707-8.533,5.973-9.387,5.973c-0.853,1.707-3.413,2.56-5.973,1.707
	c-1.707-0.853-2.56-3.413-1.707-5.973c0-0.853,5.973-11.093,20.48-11.093c15.36,0,20.48,10.24,20.48,11.093
	c0.853,1.707,0,4.267-1.707,5.973c-1.707,0.853-4.267,0-5.973-1.707c0,0-2.56-4.267-9.387-5.973v11.947
	C213.38,228.693,211.673,230.4,209.113,230.4z"/>
<g>
</g>
<g>
</g>
<g>
</g>
<g>
</g>
<g>
</g>
<g>
</g>
<g>
</g>
<g>
</g>
<g>
</g>
<g>
</g>
<g>
</g>
<g>
</g>
<g>
</g>
<g>
</g>
<g>
</g>
</svg>
