<?xml version="1.0" encoding="iso-8859-1"?>
<!-- Uploaded to: SVG Repo, www.svgrepo.com, Generator: SVG Repo Mixer Tools -->
<svg version="1.1" id="Layer_1" xmlns="http://www.w3.org/2000/svg" xmlns:xlink="http://www.w3.org/1999/xlink" 
	 viewBox="0 0 512 512" xml:space="preserve">
<path style="fill:#FF5023;" d="M499.191,421.425c-16.671,28.914-46.41,46.18-79.565,46.18h-43.757v20.891
	c0,12.963-10.54,23.503-23.503,23.503s-23.503-10.54-23.503-23.503v-20.891H202.47v19.847c0,12.963-10.54,23.503-23.503,23.503
	s-23.503-10.54-23.503-23.503v-19.847h-10.446v19.847c0,12.963-10.54,23.503-23.503,23.503s-23.503-10.54-23.503-23.503v-19.847
	h-5.63c-33.144,0-62.883-17.267-79.544-46.191c-16.797-29.143-16.807-63.802-0.042-92.726L176.419,45.965
	C193.1,17.177,222.902,0.004,256.151,0.004c33.134,0,62.831,17.1,79.429,45.752l163.632,283.037
	C515.956,357.696,515.956,392.334,499.191,421.425z"/>
<path style="fill:#891C00;" d="M155.464,487.453c0,12.963,10.54,23.503,23.503,23.503s23.503-10.54,23.503-23.503v-19.847h-47.006
	V487.453z"/>
<polygon style="fill:#FF9811;" points="491.294,315.099 20.663,315.099 116.784,149.012 395.277,149.012 "/>
<path style="fill:#FF5023;" d="M228.584,226.31c0,12.963-10.54,23.503-23.503,23.503s-23.503-10.54-23.503-23.503V119.764h31.337
	v-15.669h15.669V226.31z"/>
<path d="M499.21,328.797L335.585,45.758C318.978,17.106,289.285,0,256.155,0c-33.25,0-63.058,17.182-79.739,45.965L12.795,328.688
	c-16.763,28.925-16.749,63.587,0.04,92.722c16.669,28.926,46.405,46.195,79.544,46.195h5.634v19.847
	c0,12.96,10.544,23.503,23.503,23.503s23.503-10.543,23.503-23.503v-19.847h10.446v19.847c0,12.96,10.544,23.503,23.503,23.503
	s23.503-10.543,23.503-23.503v-19.847h126.393v20.891c0,12.96,10.544,23.503,23.503,23.503c12.959,0,23.503-10.543,23.503-23.503
	v-20.891h43.754c33.158,0,62.901-17.263,79.564-46.178C515.954,392.33,515.961,357.699,499.21,328.797z M186.802,487.453
	c0,4.32-3.514,7.834-7.834,7.834s-7.834-3.514-7.834-7.834v-19.847h15.669V487.453z M485.61,413.605
	c-13.831,24.003-38.5,38.333-65.988,38.333h-43.754v-13.579H360.2v50.139c0,4.32-3.514,7.834-7.834,7.834
	c-4.32,0-7.834-3.514-7.834-7.834v-69.986h-15.669v33.426H145.019v-34.471H129.35v69.986c0,4.32-3.514,7.834-7.834,7.834
	s-7.834-3.514-7.834-7.834v-50.139H98.013v14.624h-5.634c-27.47,0-52.13-14.337-65.968-38.349
	c-13.958-24.223-13.981-53.022-0.057-77.046l99.36-171.688h55.865v11.316h15.669v-56.407h-15.669v29.422h-46.797l55.192-95.368
	c13.844-23.887,38.585-38.149,66.181-38.149c27.477,0,52.103,14.185,65.87,37.939l142.614,246.694h-97.647v15.669h106.706
	l11.954,20.677C499.561,360.65,499.547,389.42,485.61,413.605z"/>
<rect x="129.349" y="358.966" width="15.669" height="47.006"/>
<rect x="98.012" y="343.298" width="15.669" height="83.566"/>
<rect x="328.862" y="339.12" width="15.669" height="67.897"/>
<rect x="360.199" y="323.451" width="15.669" height="104.457"/>
<path d="M205.082,249.813c12.959,0,23.503-10.543,23.503-23.503v-18.802h-15.669v18.802c0,4.32-3.514,7.834-7.834,7.834
	s-7.834-3.514-7.834-7.834v-38.649h-15.669v38.649C181.579,239.27,192.123,249.813,205.082,249.813z"/>
<polygon points="369.079,149.185 228.584,149.185 228.584,104.096 212.916,104.096 212.916,197.062 228.584,197.062 
	228.584,164.854 369.079,164.854 "/>
<rect x="309.537" y="300.303" width="26.114" height="15.669"/>
<rect x="54.662" y="300.303" width="244.429" height="15.669"/>
</svg>