<?xml version="1.0" encoding="iso-8859-1"?>
<!-- Uploaded to: SVG Repo, www.svgrepo.com, Generator: SVG Repo Mixer Tools -->
<!DOCTYPE svg PUBLIC "-//W3C//DTD SVG 1.1//EN" "http://www.w3.org/Graphics/SVG/1.1/DTD/svg11.dtd">
<svg fill="#000000" version="1.1" id="Capa_1" xmlns="http://www.w3.org/2000/svg" xmlns:xlink="http://www.w3.org/1999/xlink" 
	 width="800px" height="800px" viewBox="0 0 710.987 710.986"
	 xml:space="preserve">
<g>
	<g>
		<path d="M567.074,675.88l13.107-2.973V519.762c19.046,4.556,34.484,5.378,35.366,5.425l45.942,2.271l-33.63-31.386
			c-23.415-21.853-38.74-54.895-47.679-79.726V262.433c0-32.935-6.708-65.169-19.4-93.207
			c-13.575-29.996-33.33-53.251-57.239-67.447c-6.714-8.845-5.077-38.086,0.889-60.226l2.164-8.037l-10.568-13.802l-9.059,0.662
			c-52.136,3.794-98.659,11.277-141.421,22.768c0.635-5.298,1.269-8.952,1.283-9.026L352.888,0l-30.563,16.334
			c-28.954,15.472-49.998,41.339-59.758,55.021c-39.108,18.672-69.918,42.328-91.617,70.359
			c-26.241,33.897-39.549,74.509-39.549,120.711v152.216c-8.985,25.387-24.458,59.184-48.287,81.423l-33.617,31.386l45.929-2.265
			c0.902-0.047,16.655-0.882,35.975-5.565v153.286l13.114,2.973c0.508,0.113,12.673,2.832,28.199,2.832
			c7.836,0,15.165-0.654,21.953-1.95c-3.367,5.251-3.541,11.017-2.165,15.472c4.783,15.546,24.758,15.546,32.28,15.546
			c25.78,0,62.076-8.364,85.484-29.475c9.754,17.737,24.304,28.773,42.489,32.12l3.046,0.562l3.047-0.562
			c18.185-3.34,32.728-14.383,42.488-32.12c23.408,21.11,59.704,29.475,85.484,29.475c7.522,0,27.497,0,32.28-15.546
			c1.37-4.455,1.203-10.228-2.164-15.479c6.787,1.296,14.116,1.951,21.952,1.951C554.407,678.712,566.566,675.993,567.074,675.88z
			 M197.571,162.325c19.126-24.705,47.151-45.695,83.293-62.37l4.262-1.971l2.632-3.895c3.948-5.839,11.918-16.742,22.968-27.491
			l0.781,21.946l21.064-6.587c40.618-12.713,84.897-21.311,134.781-26.148c-0.548,3.808-1.029,7.896-1.363,12.125
			c-0.781,9.894-0.628,18.806,0.468,26.702l-57.613-7.522l75.838,42.635c18.686,10.502,34.398,28.954,45.441,53.358
			c4.97,10.983,8.878,23.028,11.638,35.594c-17.17-5.251-41.3-10.262-70.861-10.262c-33.73,0-52.229,11.224-68.543,21.131
			c-14.062,8.531-25.165,15.271-46.557,15.271c-21.391,0-32.501-6.741-46.563-15.271c-16.314-9.914-34.806-21.138-68.542-21.138
			c-29.294,0-53.25,4.917-70.393,10.121C175.525,197.852,184.631,179.04,197.571,162.325z M456.664,246.807
			c2.225-0.882,4.569-1.343,6.781-1.343c3.728,0,6.975,1.37,7.716,3.26c0.621,1.577-0.381,3.641-0.842,4.456
			c-1.63,2.879-4.703,5.371-8.438,6.848c-2.225,0.882-4.569,1.343-6.781,1.343l0,0c-3.728,0-6.975-1.37-7.723-3.26
			C446.342,255.485,449.515,249.633,456.664,246.807z M326.072,328.23c0.547-0.976,1.115-1.998,1.683-3.053
			c5.806,1.537,17.457,2.312,16.602-16.615c0,0-4.008-0.227-8.417,1.042c3.287-6.193,6.821-12.52,10.495-17.944
			c4.816-7.108,7.943-9.787,9.367-10.749c1.422,0.962,4.549,3.634,9.365,10.749c3.734,5.512,7.322,11.958,10.655,18.245
			c-4.776-1.603-9.393-1.343-9.393-1.343c-0.889,19.728,11.805,18.051,17.31,16.421c0.595,1.103,1.183,2.171,1.757,3.193
			l4.476,7.943l9.1,0.588c10.161,0.655,25.453,1.436,40.558,1.436c1.249,0,2.472-0.006,3.674-0.013
			c-10.114,6.808-22.206,12.673-33.089,13.288l-15.018,0.849l-0.835,15.018c-1.189,21.385-7.382,71.242-38.56,102.867
			c-31.192-31.646-37.378-81.529-38.561-102.927l-0.815-14.758l-14.744-1.096c-10.695-0.795-22.52-6.567-32.454-13.241
			c1.183,0.007,2.378,0.013,3.601,0.013c14.771,0,29.722-0.748,39.656-1.383l9.112-0.574L326.072,328.23z M240.427,248.724
			c0.748-1.89,3.995-3.26,7.716-3.26c2.211,0,4.556,0.461,6.781,1.343c3.734,1.476,6.808,3.968,8.438,6.848
			c0.461,0.815,1.47,2.879,0.849,4.456c-0.748,1.891-3.995,3.26-7.723,3.26c-2.211,0-4.556-0.468-6.781-1.343
			c-3.734-1.477-6.808-3.968-8.438-6.848C240.814,252.365,239.806,250.301,240.427,248.724z M498.484,628.153l-29-52.629
			l-2.552,60.038c-0.121,2.919-0.562,20.59,5.905,37.505c-9.714-1.343-21.124-4.075-31.553-8.765
			c-16.334-7.349-25.96-17.223-28.605-29.368l-24.284-111.525l-8.932,113.724c-0.033,0.341-3.094,32.755-23.663,39.422
			c-20.562-6.661-23.629-39.075-23.656-39.349l-8.932-113.724l-24.291,111.452c-2.646,12.146-12.272,22.02-28.606,29.368
			c-10.428,4.689-21.839,7.415-31.552,8.765c6.467-16.915,6.033-34.586,5.906-37.505l-2.552-60.038l-29,52.629
			c-7.696,13.963-26.215,16.896-40.391,16.896c-2.712,0-5.291-0.106-7.649-0.273v-172.74l-23.008,9.086
			c-1.971,0.775-3.955,1.496-5.939,2.165c12.827-20.684,21.925-42.589,28.031-60.299l0.916-2.666V262.433
			c0-2.158,0.04-4.289,0.107-6.413c8.19-3.42,22.453-8.391,41.773-11.377c-1.169,8.377,0.541,17.183,5.037,25.119
			c5.431,9.6,14.443,17.263,25.366,21.579c6.213,2.452,12.653,3.694,19.14,3.694c17.817,0,33.136-9.64,39.028-24.558
			c1.096-2.766,1.817-5.638,2.205-8.564c6.32,3.721,13.161,7.402,21.178,10.348c-6.273,9.152-11.691,19.561-16.628,29.067
			c-0.415,0.802-0.829,1.59-1.236,2.372c-8.357,0.421-18.358,0.782-28.218,0.782c-17.664,0-27.25-1.156-32.181-2.125
			c-2.151-0.421-4.128-0.628-6.052-0.628c-11.511,0-20.162,7.957-20.57,18.913c-0.26,7.062,2.979,14.296,10.201,22.761
			c4.984,5.839,11.558,11.918,19.026,17.576c8.544,6.48,23.843,16.582,41.459,21.398c1.563,14.443,4.743,32.454,11.097,51.013
			c10.695,31.218,27.464,55.622,49.83,72.524l10.148,7.669l10.147-7.669c22.354-16.896,39.114-41.279,49.816-72.471
			c6.341-18.472,9.521-36.416,11.097-50.826c17.737-4.656,33.216-14.777,41.881-21.298c7.556-5.686,14.229-11.804,19.293-17.71
			c7.289-8.491,10.589-15.733,10.389-22.794c-0.314-11.063-8.966-19.093-20.569-19.093c-1.924,0-3.901,0.207-6.053,0.628
			c-4.931,0.969-14.517,2.125-32.181,2.125c-10.168,0-20.496-0.381-29.087-0.828c-0.4-0.762-0.802-1.537-1.209-2.325
			c-4.943-9.5-10.355-19.915-16.628-29.067c8.01-2.946,14.857-6.627,21.171-10.348c0.387,2.926,1.115,5.799,2.204,8.564
			c5.893,14.917,21.211,24.558,39.028,24.558l0,0c6.493,0,12.934-1.243,19.14-3.694c10.93-4.315,19.935-11.978,25.373-21.571
			c4.482-7.923,6.199-16.708,5.037-25.072c19.18,3.006,33.51,7.97,41.76,11.384c0.067,2.118,0.113,4.242,0.113,6.36v159.678
			l0.949,2.699c7.776,22.193,16.889,41.714,27.257,58.422c-1.764-0.595-3.527-1.229-5.271-1.911l-22.935-8.918v172.372
			c-2.357,0.167-4.937,0.273-7.648,0.273C524.699,645.049,506.18,642.116,498.484,628.153z"/>
	</g>
</g>
</svg>