<?xml version="1.0" standalone="no"?><!DOCTYPE svg PUBLIC "-//W3C//DTD SVG 1.1//EN" "http://www.w3.org/Graphics/SVG/1.1/DTD/svg11.dtd"><svg t="1735877704863" class="icon" viewBox="0 0 1024 1024" version="1.1" xmlns="http://www.w3.org/2000/svg" p-id="7920" xmlns:xlink="http://www.w3.org/1999/xlink" width="200" height="200"><path d="M512 1023.23205a511.60855 511.60855 0 1 1 511.557353-511.60855A511.966927 511.966927 0 0 1 512 1023.23205z" fill="#CE0E2D" p-id="7921"></path><path d="M512 999.579178a487.955678 487.955678 0 1 1 487.955678-487.955678A488.467645 488.467645 0 0 1 512 999.579178z" fill="#FFFFFF" p-id="7922"></path><path d="M512 975.977502a464.354003 464.354003 0 1 1 464.354003-464.354002 464.86597 464.86597 0 0 1-464.354003 464.354002z" fill="#CE0E2D" p-id="7923"></path><path d="M346.225109 119.20085l8.857028 19.96671-25.08638-12.747976-13.9255 6.1948 29.079722 65.531766 13.9255-6.1948-18.482006-41.622911 25.598346 13.925501 9.113012 20.529873 13.9255-6.194799-29.079722-65.531767-13.9255 6.143603zM650.128677 108.244758l-10.700109 33.636227-16.946105-5.375653 10.700109-33.636227-14.539861-4.607702-10.700109 33.636227-4.966079-1.587098 2.303851 10.085749-8.345061 26.16151 14.488664 4.658899 6.911554-21.707398 16.946105 5.375653-6.860357 21.707398 14.488664 4.607702 21.707398-68.347585-14.488664-4.607702zM888.142101 308.014253l-8.242667-12.85037a159.784878 159.784878 0 0 1-33.12426 13.720713l-6.1948-9.676174 29.796475-19.04517-8.191471-12.799173-29.745278 18.993973-2.815819-4.402916-4.710095 9.215405-23.140905 14.795844 8.19147 12.85037 19.19876-12.287206 7.167537 11.212075a150.1599 150.1599 0 0 1-16.792515 16.075762l8.242668 12.799173c4.607702-3.737359 19.04517-16.331745 21.809791-23.652872a148.470409 148.470409 0 0 0 38.602306-14.949434zM907.084878 350.302721a75.156745 75.156745 0 0 0-30.718016 7.42352l-4.249326 37.373586a87.853525 87.853525 0 0 1-9.113011 2.303851l-6.143603-15.717385 5.119669-2.047867-5.529243-14.232681-17.970039 7.013947 16.075762 40.957354a85.191297 85.191297 0 0 0 32.407506-8.140274l3.583769-37.117602c2.559835-0.76795 5.119669-1.433507 7.935487-1.996671l6.1948 15.870975-5.119669 2.047867 5.529243 14.181484 17.970039-7.013947-16.024565-40.957354zM135.857899 309.29417l11.672846 7.065144L156.131789 302.126633l49.711989 30.103655 7.88429-13.00396-49.711988-30.103655 8.652241-14.23268-11.672846-7.065144-25.137576 41.469321zM399.060096 99.797303l3.020605 13.259944 16.229351-3.686162 12.952764 56.623542 14.847041-3.378982-12.952764-56.674738 16.229352-3.686162-3.020605-13.259944-47.305744 10.802502zM195.911619 225.382791l-10.239338 11.263272 53.039773 48.227285 24.830396-27.287838-10.085748-9.164208-14.591058 15.973369-42.954025-39.01188zM122.905136 373.290036l3.583768-10.239339a86.624804 86.624804 0 0 1 21.758594 4.095736L142.257485 384.041341A85.805657 85.805657 0 0 1 122.905136 373.290036z m64.610226-7.884291l-32.714687-11.826436a89.901392 89.901392 0 0 0-37.680766-4.351719c0 0.358377-9.983355 27.595017-10.239338 28.874935a89.901392 89.901392 0 0 0 30.359638 20.478677l-1.791884 5.119669 10.239339-1.894277 25.598346 9.317798 5.119669-14.335074-21.297824-7.679504 6.04121-16.741319 21.297824 7.679504 5.119669-14.283877zM714.32933 151.915537l9.164208 5.119669a88.723868 88.723868 0 0 1-7.884291 20.478677l-15.359008-8.908225a85.088903 85.088903 0 0 1 14.079091-17.099695z m-3.788556 65.019799l17.458072-30.103655a89.952589 89.952589 0 0 0 11.058486-36.298455c-0.358377 0-25.598346-14.744647-26.571083-15.359008a90.822933 90.822933 0 0 0-25.342363 26.3151l-4.607703-2.713425v10.239339l-13.77191 23.601675 13.208747 7.679504 11.365666-19.608333 15.359007 8.959421-11.365665 19.557137 13.15755 7.679504zM259.805092 184.37424l8.396257-6.399587a87.597541 87.597541 0 0 1 16.126959 15.359008l-14.079091 10.802502a85.088903 85.088903 0 0 1-10.239338-19.557136z m58.620213 28.311771l-21.144234-27.646214a89.594212 89.594212 0 0 0-29.335705-24.011249l-24.420822 18.686793a90.362163 90.362163 0 0 0 14.642254 33.43144l-4.249326 3.225392 9.624978 3.890948 16.587729 21.707398 12.082419-9.215405L278.491885 215.092255l14.130287-10.802502 13.720713 18.021236 12.08242-9.266601zM513.945474 120.531964h-17.714055a83.553002 83.553002 0 0 1 3.327785-21.860988h10.597715a85.959247 85.959247 0 0 1 3.788555 21.758595zM496.640992 156.984009v-22.628938h17.816449v22.628938h15.359008l-0.30718-27.287837 5.119669-9.010618h-5.119669a91.02772 91.02772 0 0 0-9.113011-35.376915l-30.718016 0.358377A89.850196 89.850196 0 0 0 481.281984 122.375045l0.358377 34.813751h15.359008zM825.374956 222.413382l-23.140905 23.704069a84.013773 84.013773 0 0 1-19.96671 15.359008l-4.556506-4.454112a87.034378 87.034378 0 0 1 13.720714-20.478677l23.550478-24.164839-10.904895-10.648912L780.782637 225.331594a87.648738 87.648738 0 0 1-20.478677 14.488664l-4.556506-4.454112a84.167363 84.167363 0 0 1 14.847041-20.478677l22.987315-23.499282-10.904896-10.648912-24.113642 24.779199a88.109508 88.109508 0 0 0-19.608333 32.612293l18.482006 17.918843q3.174195-1.075131 6.143603-2.303852c-0.76795 1.996671-1.535901 4.044539-2.150261 6.143604l18.533203 18.123629a88.979852 88.979852 0 0 0 32.151523-20.478677l24.164839-24.728003-10.904896-10.648912zM212.550544 703.662294a76.795039 76.795039 0 0 0-27.54382 15.359008l6.04121 37.168799c-2.662228 1.638294-5.375653 3.225392-8.191471 4.658899l-10.239339-13.515927 4.505309-3.378982-9.164208-12.184813-15.359008 11.570453s25.598346 33.789817 26.519887 35.274521a85.088903 85.088903 0 0 0 29.079722-16.587729l-6.604374-36.708028c2.303851-1.433507 4.658899-2.815818 7.11634-4.044539l10.239339 13.61832-4.505309 3.378982 9.164208 12.184813 15.359008-11.570453-26.519887-35.274521zM375.867994 840.203873l-4.454112 12.85037 15.717385 5.42685-18.942777 54.934051 14.437468 4.966079 18.891579-54.934051 15.768582 5.426849 4.402915-12.901566-45.82104-15.768582zM106.4198 588.264948l15.103025-3.174194 2.867015 13.46473a124.817537 124.817537 0 0 1-14.591058 5.631636l-3.378982-16.024565z m43.517189-9.164208l3.481375 16.485336a80.071627 80.071627 0 0 1-15.614991 0.76795l-2.969408-14.079091 15.359008-3.174195z m20.017907 28.926132l-9.829765-46.640187-28.414164 5.990013-1.126328-5.119669-7.986684 7.321127-32.612293 6.860356s9.164208 43.414795 9.778568 46.435401a125.841471 125.841471 0 0 0 33.892211-12.133616 91.437293 91.437293 0 0 0 36.298455-2.457442zM350.013664 843.122085l6.757964-11.77524-41.366928-23.755265-14.437467 25.188773-4.914883-2.815818 0.102394 11.212075-16.434139 28.618952 41.366928 23.704068 6.80916-11.775239-28.158181-16.178155 7.679504-13.362337 17.406876 9.983355 6.757963-11.826436-17.406876-9.983355 7.679504-13.362336 28.158181 16.126958zM797.011988 802.523107l3.788555 4.146933-12.645583 11.570452-29.950065-32.919473 11.519256-10.239339 4.556506 4.146932 11.263272-10.239338a141.149282 141.149282 0 0 0-15.359008-12.85037l-32.5099 29.591688 48.278482 53.039774 35.172127-32.04913-12.952763-14.23268-11.263272 10.239338zM609.734486 852.337489l-14.69345 3.993342 18.840382 69.217929 35.581702-9.676175-3.583769-13.15755-20.88825 5.682833-15.256615-56.060379zM173.794648 657.1245l4.402916 9.624978a84.67933 84.67933 0 0 1-18.328416 12.338403l-7.423521-16.075761a85.959247 85.959247 0 0 1 21.349021-5.88762zM133.144474 708.116406l31.588359-14.591057A89.543016 89.543016 0 0 0 194.580505 670.230853c0-0.358377-12.23601-26.724674-12.85037-27.953394a89.952589 89.952589 0 0 0-35.837684 6.96275l-2.252655-5.119669-5.938816 8.498651-24.830396 11.416863 6.399586 13.823107 20.478677-9.471388 7.423521 16.178154-20.478677 9.471389L133.144474 708.116406zM449.744822 919.302763l2.047867-15.359007 13.669517 1.843081A133.111401 133.111401 0 0 1 465.922977 921.606615l-16.229352-2.150261z m5.938816-44.080352l16.690122 2.252655a79.713251 79.713251 0 0 1-4.505309 14.898237l-14.232681-1.894278 2.047868-15.359007z m33.943407-9.215405l-47.254547-6.297193-3.839752 28.772541-5.426849-0.76795 4.198128 10.239339-4.454112 33.073063 47.049761 5.938816a124.76634 124.76634 0 0 0 0-35.837684 90.003786 90.003786 0 0 0 9.880961-35.069735zM913.894038 605.774217l-15.051828-3.327785 2.969408-13.46473a142.992363 142.992363 0 0 1 15.614991 0.819147l-3.532571 15.973368z m-43.517189-9.573781l3.634965-16.485335a78.279743 78.279743 0 0 1 14.539861 5.785226l-3.122998 14.027894-15.051828-3.327785z m-6.297193-34.660161c-0.665557 3.122998-10.239339 46.58899-10.239339 46.58899l28.362968 6.245997-1.177524 5.375652 10.239338-3.378981 32.561097 7.218733 10.239339-46.333006a126.148651 126.148651 0 0 0-35.837685-2.918212 91.078916 91.078916 0 0 0-34.096998-12.799173zM536.983986 878.95977l10.495322-1.023934a83.911379 83.911379 0 0 1 5.682833 21.400217l-17.611662 1.740688a85.396083 85.396083 0 0 1 1.433507-22.116971z m34.916144 54.985248l-3.430178-34.660161a90.259769 90.259769 0 0 0-12.23601-35.837685l-30.718015 3.020605a90.259769 90.259769 0 0 0-5.119669 36.093668l-5.11967 0.563164 6.143603 8.34506 2.611032 27.185444 15.359008-1.433507-2.201458-22.577742 17.714055-1.68949 2.201458 22.526544 15.359008-1.484704zM797.831135 722.195497l-9.113011 12.236009 57.442689 42.902829 22.065775-29.540492-10.904896-8.191471-12.952763 17.355679-46.537794-34.762554zM668.713076 829.503764l-13.669517 6.655571 31.485966 64.456636 33.124261-16.178155-5.990013-12.23601-19.454744 9.471388-25.495953-52.16943zM837.969342 652.516798l30.154852 13.669517a82.580265 82.580265 0 0 1 21.246628 13.46473l-4.607702 10.239338a83.041036 83.041036 0 0 1-24.164839-7.013946l-30.206049-13.618321-6.092407 13.874304 31.485966 14.232681a88.723868 88.723868 0 0 0 37.373586 7.26993c0-0.30718 12.287206-27.08305 12.901567-28.516558a88.314295 88.314295 0 0 0-30.154852-23.243298l-31.537163-14.232681-6.245997 13.874304zM294.311663 792.488556l-11.314469-10.239339a162.907876 162.907876 0 0 1-28.311771 22.014578l-8.549848-7.679504 23.601675-26.263903-11.314469-10.239339-23.601675 26.263904-3.890949-3.532572-2.047868 10.239338-18.430809 20.478677 11.314469 10.239339 15.359008-16.894909 9.880962 8.857028a152.361357 152.361357 0 0 1-11.877633 19.96671l11.314469 10.239339c3.430178-4.863686 14.027894-20.837054 14.693451-28.670148a145.091427 145.091427 0 0 0 33.27785-24.625609z" fill="#FFFFFF" p-id="7924"></path><path d="M829.419495 511.6235A317.419495 317.419495 0 1 1 512 194.613578a317.419495 317.419495 0 0 1 317.163511 317.419495z" fill="#FFFFFF" p-id="7925"></path><path d="M512 743.851698a229.770757 229.770757 0 0 1-164.750957-69.269126c119.441884-61.436031 193.830679-45.718647 193.830678-33.73862s-18.379613 40.957354-18.379612 40.957354c97.273716-13.77191 168.334726-72.44332 168.334725-151.439817s-73.979221-117.34282-92.8708-129.066862c-20.171497-12.594386-10.700109-29.591688-76.795039-54.626871-40.342994-15.359008-96.966536-30.154852-119.134704-35.837685A230.385117 230.385117 0 1 1 512 743.851698z m0-526.353198a295.404917 295.404917 0 0 0-237.091884 119.083507l40.957354 11.77524c28.977328 8.549848 125.175914 36.759225 143.35074 42.493254 52.527807 16.843712 66.555701 23.448085 81.095561 39.267864a399.334203 399.334203 0 0 0 59.13218 49.507202c21.963381 15.359008 32.66349 32.100326 32.66349 58.671409s-20.478677 48.892842-33.175457 56.316362c0 0 4.607702-12.747976-1.535901-18.328416s-25.598346-16.331745-74.951958-12.747976-115.909312 27.851001-160.757615 51.811053c0 0 21.400218-33.687424 53.551741-48.995235 0 0-26.519887 0-174.580722 64.559029a295.81449 295.81449 0 1 0 271.342471-413.413293z" fill="#CE0E2D" p-id="7926"></path><path d="M509.593755 436.313165a70.344256 70.344256 0 0 1-34.19939-7.116341c-17.304482-8.703438-43.824369-28.055788-66.555701-6.65557 0 0 19.403547-2.508638 17.867646 2.559835s-3.532572 34.660161 22.936118 46.077023 57.135509 3.071802 60.207311-34.660161z" fill="#CE0E2D" p-id="7927"></path></svg>