<?xml version="1.0" encoding="iso-8859-1"?>
<!-- Uploaded to: SVG Repo, www.svgrepo.com, Generator: SVG Repo Mixer Tools -->
<svg xmlns="http://www.w3.org/2000/svg" xmlns:xlink="http://www.w3.org/1999/xlink" version="1.1" id="Layer_1"  viewBox="0 0 432 432" xml:space="preserve" width="512" height="512">
<g>
	<g>
		<g>
			<g>
				<path style="fill:#7DA045;" d="M144.494,218.745c0,23.752-19.255,43.008-43.008,43.008s-43.008-19.255-43.008-43.008      s19.255-130.18,43.008-130.18S144.494,194.993,144.494,218.745z"/>
			</g>
			<path style="fill:#8DB44E;" d="M259.008,218.745c0,23.752-19.255,43.008-43.008,43.008s-43.008-19.255-43.008-43.008     S192.248,88.565,216,88.565S259.008,194.993,259.008,218.745z"/>
			<g>
				<path style="fill:#7DA045;" d="M216,261.753c-23.752,0-43.008-19.255-43.008-43.008S192.248,88.565,216,88.565V261.753z"/>
			</g>
			<path style="fill:#8DB44E;" d="M373.521,218.745c0,23.752-19.255,43.008-43.008,43.008c-23.752,0-43.008-19.255-43.008-43.008     s19.255-130.18,43.008-130.18C354.266,88.565,373.521,194.993,373.521,218.745z"/>
		</g>
	</g>
	<path style="fill:#F79F4B;" d="M388,245.075H44c-4.418,0-8,3.582-8,8v75.36h360v-75.36C396,248.657,392.418,245.075,388,245.075z"/>
	<path style="fill:#CA8540;" d="M216,245.075H44c-4.418,0-8,3.582-8,8v75.36h180V245.075z"/>
	<path style="fill:#387F9E;" d="M417,313.435H15c-8.284,0-15,6.716-15,15s6.716,15,15,15h402c8.284,0,15-6.716,15-15   S425.284,313.435,417,313.435z"/>
	<path style="fill:#29556E;" d="M216,313.435H15c-8.284,0-15,6.716-15,15s6.716,15,15,15h201V313.435z"/>
</g>















</svg>