<?xml version="1.0" encoding="iso-8859-1"?>
<!-- Uploaded to: SVG Repo, www.svgrepo.com, Generator: SVG Repo Mixer Tools -->
<svg height="800px" width="800px" version="1.1" id="Layer_1" xmlns="http://www.w3.org/2000/svg" xmlns:xlink="http://www.w3.org/1999/xlink" 
	 viewBox="0 0 511.999 511.999" xml:space="preserve">
<path style="fill:#C1BDAB;" d="M308.627,391.138h-52.628l-43.482,56.355l43.482,56.355c24.144,0,47.486-3.431,69.571-9.82
	c9.018-2.609,17.827-5.715,26.395-9.28c10.366-4.314,20.383-9.301,29.991-14.914c-7.646-28.374-24.618-52.923-47.433-70.149
	C327.08,394.065,317.951,391.138,308.627,391.138z"/>
<path style="fill:#8D472E;" d="M300.812,391.138h-44.814l-43.482,56.355l43.482,56.355c24.144,0,47.486-3.431,69.571-9.82
	c9.018-2.609,17.827-5.715,26.395-9.28l0,0c-3.794-19.162-13.182-36.314-26.395-49.677
	C313.694,423.057,305.199,407.979,300.812,391.138z"/>
<path style="fill:#D5D2BD;" d="M177.476,399.683c-22.814,17.226-39.787,41.774-47.432,70.149c9.606,5.614,19.623,10.6,29.991,14.914
	c8.568,3.567,17.375,6.671,26.395,9.28c22.086,6.39,45.427,9.82,69.571,9.82v-112.71h-52.628
	C194.047,391.138,184.918,394.065,177.476,399.683z"/>
<path style="fill:#AB5034;" d="M211.485,391.138c-4.411,16.843-13.182,31.92-25.058,43.932
	c-13.212,13.364-22.6,30.515-26.395,49.677c8.568,3.567,17.375,6.671,26.395,9.28c22.086,6.39,45.427,9.82,69.571,9.82v-112.71
	H211.485z"/>
<g>
	<path style="fill:#6F3D28;" d="M325.57,494.027c9.018-2.609,17.827-5.715,26.395-9.28c-3.794-19.162-13.182-36.314-26.395-49.677
		V494.027z"/>
	<path style="fill:#6F3D28;" d="M160.034,484.747c8.568,3.567,17.375,6.671,26.395,9.28v-58.958
		C173.216,448.433,163.828,465.583,160.034,484.747z"/>
</g>
<path style="fill:#47423F;" d="M255.999,502.76l32.611-32.611l3.184-3.184c2.133-2.133,3.182-4.93,3.182-7.726
	s-1.05-5.593-3.182-7.726l-35.795-35.794l-8.696,43.521L255.999,502.76z"/>
<path style="fill:#5B5751;" d="M223.387,448.33l-3.184,3.184c-2.133,2.133-3.182,4.931-3.182,7.726c0,2.795,1.05,5.593,3.182,7.726
	l35.795,35.794v-87.041L223.387,448.33z"/>
<path style="fill:#6F3D28;" d="M212.517,409.063v26.332c0,11.622,14.051,17.442,22.268,9.224l9.683-9.683h23.06l9.683,9.683
	c8.218,8.218,22.268,2.398,22.268-9.224v-26.272L212.517,409.063z"/>
<path style="fill:#AB5034;" d="M272.28,419.993H239.72c-0.005,0.178-0.027,14.102-0.027,14.283c0,4.503,1.825,8.579,4.776,11.53
	c2.95,2.95,7.027,4.775,11.529,4.775s8.579-1.825,11.529-4.775c2.951-2.95,4.776-7.027,4.776-11.53
	C272.305,434.105,272.284,420.163,272.28,419.993z"/>
<path style="fill:#E1B872;" d="M424.491,204.909c-7.975,0-15.496,1.921-22.148,5.306C386.088,148.728,337.552,93.098,277.81,81.941
	c-7.125-1.331-14.404-2.043-21.812-2.043c-69.523,0-128.155,61.475-146.345,130.299l91.922,204.643
	c16.9,8.221,35.245,12.913,54.423,12.913c69.522,0,128.153-61.492,146.346-130.315c6.651,3.384,14.172,5.305,22.146,5.305
	c27.016,0,48.917-21.901,48.917-48.917S451.508,204.909,424.491,204.909z"/>
<path style="fill:#ECCE93;" d="M358.645,265.142c-9.861,2.69-20.107,4.049-30.678,4.049c-0.001,0-0.002,0-0.003,0
	c-21.265,0-39.331-5.557-50.741-10.218c-14.994-6.126-24.952-20.553-25.37-36.755c-0.048-1.849-0.111-3.619-0.187-5.313
	c-0.264-5.811-4.347-10.715-10.001-12.085c-18.768-4.548-37.188-10.317-55.178-17.265c-5.519-2.132-11.764-0.314-15.269,4.453
	c-5.639,7.669-10.723,16.987-15.132,27.85c-0.104,0.257-0.21,0.511-0.318,0.763c-5.21,12.125-21.399,13.86-29.464,3.425
	c-0.55-0.715-1.12-1.412-1.708-2.096l-0.151-0.174c-0.432-0.497-1.29-1.434-1.746-1.908c-0.001-0.001-0.002-0.002-0.003-0.003
	c-2.465-2.553-5.202-4.843-8.17-6.815c-0.185-0.123-0.374-0.238-0.56-0.359c-0.522-0.336-1.047-0.665-1.582-0.982
	c-0.27-0.16-0.544-0.314-0.816-0.47c-0.465-0.263-0.934-0.52-1.409-0.769c-0.168-0.088-0.33-0.186-0.499-0.272
	c-0.001,0.005-0.002,0.01-0.003,0.014c-7.603-3.869-16.342-5.825-25.595-5.187c-24.776,1.708-44.553,22.186-45.441,47.004
	c-0.996,27.834,21.272,50.712,48.885,50.712c7.979,0,15.503-1.923,22.157-5.31c13.175,49.836,47.545,95.826,91.912,117.408
	c7.125,1.331,14.404,2.043,21.812,2.043c72.579,0,133.286-67.019,148.506-139.432C373.522,269.7,366.285,263.058,358.645,265.142z"
	/>
<circle style="fill:#E1B872;" cx="87.506" cy="253.826" r="16.306"/>
<circle style="fill:#D5A150;" cx="424.491" cy="253.826" r="16.306"/>
<path style="opacity:0.2;fill:#463540;enable-background:new    ;" d="M375.569,253.831L375.569,253.831v-0.005
	c0.153-2.919-1.334-5.748-3.933-7.085c-6.195-3.187-12.373,1.227-12.373,7.085c0,0.002,0,0.003,0,0.005l0,0
	c0,18.013-14.603,32.606-32.617,32.606h-13.588c-9.003,0-16.3,7.298-16.3,16.3l0,0c0,13.508-10.951,24.459-24.459,24.459h-32.622
	c-13.502,0-24.448-10.945-24.448-24.448v-0.011c0-9.003-7.297-16.3-16.3-16.3h-13.588c-18.013,0-32.617-14.593-32.617-32.606l0,0
	v-0.005c0.153-2.919-1.334-5.748-3.933-7.085c-6.195-3.187-12.373,1.227-12.373,7.085c0,0.002,0,0.003,0,0.005l0,0
	c0,19.045-10.875,35.545-26.763,43.623c13.175,49.836,47.549,95.804,91.915,117.387c16.9,8.221,35.245,12.913,54.423,12.913
	c69.522,0,128.158-61.475,146.35-130.298C386.445,289.382,375.569,272.884,375.569,253.831z"/>
<path style="fill:#584639;" d="M255.999,79.898c-69.522,0-128.153,61.492-146.346,130.315v0.018
	c0.719,0.366,1.436,0.735,2.133,1.135c7.79,4.262,17.404,9.729,21.638-0.707c34.318-84.551,99.454-76.072,123.434-52.613
	c12.473,12.203,18.534,28.208,19.445,63.541c0.167,6.504,4.145,12.283,10.168,14.744c17.188,7.022,53.887,17.003,89.95-5.379
	c4.561-2.831,8.559-6.449,12.213-10.383c3.907-4.208,8.546-7.725,13.712-10.355l0,0C384.152,141.39,325.521,79.898,255.999,79.898z"
	/>
<path style="fill:#8D472E;" d="M397.857,190.028V40.764c0-18.011-14.6-32.611-32.611-32.611H169.576
	c-18.011,0-32.611,14.6-32.611,32.611v96.076c62.113,35.688,134.111,56.111,210.887,56.111
	C364.771,192.951,381.457,191.957,397.857,190.028z"/>
<path style="fill:#47423F;" d="M347.852,144.045c-76.776,0-148.775-20.423-210.887-56.111v48.906
	c62.113,35.688,134.111,56.111,210.887,56.111c16.919,0,33.604-0.995,50.004-2.923v-48.906
	C381.457,143.05,364.771,144.045,347.852,144.045z"/>
<path style="fill:#AB5034;" d="M136.965,40.764v47.169c46.607,26.779,98.78,44.963,154.361,52.373V40.764
	c0-18.011-14.6-32.611-32.611-32.611h-89.138C151.566,8.153,136.965,22.753,136.965,40.764z"/>
<path style="fill:#5B5751;" d="M136.965,87.934v48.906c46.607,26.779,98.78,44.963,154.361,52.373v-48.906
	C235.745,132.896,183.572,114.712,136.965,87.934z"/>
<path d="M330.943,428.903c-3.184-3.184-8.346-3.184-11.529,0c-3.184,3.184-3.184,8.346,0,11.529
	c12.617,12.617,21.108,28.49,24.553,45.902c0.769,3.883,4.175,6.572,7.989,6.572c0.525,0,1.058-0.051,1.591-0.157
	c4.417-0.874,7.289-5.163,6.415-9.58C355.889,462.578,345.853,443.813,330.943,428.903z"/>
<path d="M181.054,428.903c-14.91,14.91-24.946,33.676-29.02,54.267c-0.874,4.417,1.998,8.706,6.415,9.58
	c0.535,0.105,1.066,0.157,1.591,0.157c3.813,0,7.22-2.689,7.989-6.572c3.445-17.411,11.936-33.284,24.553-45.902
	c3.184-3.184,3.184-8.346,0-11.529C189.401,425.719,184.238,425.719,181.054,428.903z"/>
<path d="M201.646,278.285c13.486,0,24.459-10.972,24.459-24.459c0-4.503-3.649-8.153-8.153-8.153c-4.504,0-8.153,3.65-8.153,8.153
	c0,4.496-3.657,8.153-8.153,8.153s-8.153-3.657-8.153-8.153c0-4.503-3.649-8.153-8.153-8.153s-8.153,3.65-8.153,8.153
	C177.188,267.313,188.16,278.285,201.646,278.285z"/>
<path d="M201.646,310.896c20.313,0,39.25-10.931,49.425-28.53c2.253-3.898,0.921-8.886-2.977-11.139
	c-3.899-2.253-8.884-0.921-11.139,2.977c-7.269,12.574-20.799,20.385-35.308,20.385c-4.503,0-8.153,3.65-8.153,8.153
	C193.494,307.246,197.144,310.896,201.646,310.896z"/>
<path d="M318.504,302.743c0-4.503-3.65-8.153-8.153-8.153c-14.51,0-28.038-7.812-35.307-20.384
	c-2.255-3.898-7.241-5.231-11.139-2.977s-5.231,7.241-2.977,11.139c10.174,17.597,29.112,28.529,49.424,28.529
	C314.854,310.896,318.504,307.246,318.504,302.743z"/>
<path d="M255.999,322.738c6.533,0,12.675-2.545,17.295-7.164c3.184-3.184,3.184-8.346-0.001-11.53
	c-1.441-1.441-3.27-2.251-5.155-2.387h-0.609l0,0h-23.058c-2.086,0-4.173,0.796-5.765,2.387c-3.185,3.184-3.185,8.346-0.001,11.53
	C243.324,320.194,249.466,322.738,255.999,322.738z"/>
<path d="M186.534,215.475c0.835,0,1.684-0.129,2.521-0.401c8.25-2.68,16.956-2.681,25.179-0.004
	c4.284,1.397,8.882-0.947,10.276-5.229c1.395-4.281-0.947-8.882-5.229-10.276c-11.523-3.751-23.716-3.751-35.265,0.001
	c-4.282,1.391-6.627,5.991-5.234,10.273C179.901,213.284,183.097,215.475,186.534,215.475z"/>
<path d="M424.491,196.756c-9.076,0-17.771,2.084-25.846,6.192c-4.013,2.043-5.611,6.951-3.569,10.964
	c2.043,4.013,6.952,5.61,10.964,3.569c5.761-2.932,11.969-4.419,18.45-4.419c22.478,0,40.764,18.286,40.764,40.764
	s-18.286,40.764-40.764,40.764c-4.334,0-8.542-0.68-12.579-1.998c2.93-13.026,4.426-26.036,4.426-38.766
	c0-4.496,3.657-8.153,8.153-8.153c4.496,0,8.153,3.657,8.153,8.153c0,4.503,3.65,8.153,8.153,8.153c4.503,0,8.153-3.65,8.153-8.153
	c0-13.487-10.972-24.459-24.459-24.459s-24.459,10.972-24.459,24.459c0,13.542-1.862,27.472-5.534,41.405
	c-0.008,0.03-0.012,0.061-0.02,0.09c-0.01,0.036-0.024,0.07-0.033,0.105c-15.937,60.206-69.866,124.175-138.453,124.175
	c-17.254,0-34.365-4.068-50.856-12.091c-40.9-19.896-74.389-62.672-87.484-111.701c-0.03-0.15-0.087-0.295-0.126-0.442
	c-0.011-0.045-0.016-0.09-0.028-0.135c-3.672-13.934-5.534-27.863-5.534-41.406c0-13.487-10.972-24.459-24.459-24.459
	s-24.459,10.972-24.459,24.459c0,4.503,3.65,8.153,8.153,8.153s8.153-3.65,8.153-8.153c0-4.496,3.657-8.153,8.153-8.153
	s8.153,3.657,8.153,8.153c0,12.73,1.497,25.74,4.426,38.766c-4.037,1.318-8.245,1.998-12.579,1.998
	c-11.165,0-21.584-4.426-29.339-12.463c-7.751-8.032-11.799-18.617-11.398-29.804c0.735-20.547,17.362-37.75,37.854-39.161
	c7.369-0.505,14.715,0.971,21.251,4.276l2.365,1.282c6.568,3.596,14.743,8.072,22.845,5.183c3.074-1.095,7.285-3.75,9.893-10.177
	c8.697-21.426,19.902-37.75,33.316-48.593c29.255,12.814,59.822,22.275,91.277,28.274c1.439,7.685,2.289,17.028,2.582,28.392
	c0.251,9.736,6.231,18.403,15.236,22.081c2.136,0.873,4.507,1.765,7.066,2.637c-2.699,1.328-4.561,4.099-4.561,7.31
	c0,13.487,10.973,24.459,24.459,24.459s24.459-10.972,24.459-24.459c0-0.373-0.034-0.738-0.083-1.098
	c14.499-0.944,30.262-5.086,45.993-14.849c3.826-2.375,5.003-7.401,2.627-11.227c-2.374-3.825-7.401-5.004-11.227-2.627
	c-32.54,20.196-65.698,11.65-82.567,4.759c-3.014-1.232-5.018-4.139-5.102-7.406c-0.246-9.528-0.873-17.825-1.897-25.084
	c21.264,3.177,42.887,4.808,64.754,4.808c33.658,0,67.205-3.893,99.708-11.571c4.382-1.036,7.095-5.427,6.06-9.808
	c-1.036-4.382-5.425-7.092-9.808-6.06c-31.277,7.388-63.563,11.134-95.96,11.134c-71.876,0-141.067-18.086-202.735-52.664v-30.379
	c62.127,33.04,131.916,50.442,202.735,50.442c5.894,0,11.86-0.121,17.731-0.359c4.499-0.182,7.999-3.976,7.816-8.476
	c-0.182-4.499-3.995-8.007-8.476-7.816c-5.653,0.228-11.396,0.345-17.071,0.345c-71.078,0-141.065-18.223-202.735-52.722V40.764
	c0-13.487,10.972-24.459,24.459-24.459h195.669c13.487,0,24.459,10.972,24.459,24.459v127.523c0,4.503,3.65,8.153,8.153,8.153
	c4.503,0,8.153-3.65,8.153-8.153V40.764C405.468,18.286,387.182,0,364.704,0H169.035c-22.478,0-40.764,18.286-40.764,40.764v81.729
	c-8.9-5.536-17.631-11.418-26.167-17.662c-3.633-2.658-8.736-1.868-11.393,1.768c-2.658,3.634-1.866,8.736,1.768,11.393
	c12.724,9.307,25.862,17.844,39.346,25.634c-9.251,13.216-16.943,27.519-22.87,42.605c-1.647,4.191,0.415,8.923,4.607,10.569
	c0.979,0.385,1.987,0.566,2.98,0.566c3.254,0,6.329-1.962,7.59-5.173c5.67-14.431,13.098-28.073,22.061-40.628
	c3.954,2.087,7.927,4.128,11.935,6.085c-12.941,12.301-23.769,29.04-32.255,49.944c-0.182,0.448-0.341,0.741-0.454,0.921
	c-2.041-0.1-6.926-2.774-9.344-4.099l-2.535-1.373c-0.06-0.033-0.12-0.064-0.18-0.095c-9.186-4.674-19.511-6.768-29.853-6.055
	c-13.996,0.965-27.128,7.11-36.98,17.303c-9.846,10.189-15.546,23.522-16.047,37.543c-0.56,15.65,5.108,30.462,15.959,41.709
	c10.854,11.252,25.441,17.448,41.072,17.448c5.783,0,11.413-0.846,16.825-2.523c11.349,36.032,32.866,68.491,59.991,91.575
	c-20.272,17.937-35.135,41.724-42.151,67.762c-1.172,4.348,1.403,8.821,5.752,9.993c0.71,0.191,1.424,0.283,2.126,0.283
	c3.596,0,6.888-2.397,7.867-6.034c6.461-23.979,20.471-45.804,39.59-61.851c6.595,4.583,13.442,8.638,20.497,12.069
	c2.11,1.026,4.232,1.988,6.361,2.9v10.323c0,5.923,2.435,11.413,6.546,15.332c-3.584,7.131-2.417,16.059,3.529,22.003l33.765,33.765
	c1.1,3.201,4.13,5.506,7.705,5.506c3.468,0,6.421-2.168,7.6-5.22l34.051-34.051c5.944-5.944,7.111-14.872,3.529-22.003
	c4.111-3.92,6.546-9.408,6.546-15.332v-10.238c9.239-3.949,18.24-8.965,26.922-15.016c19.106,16.057,33.058,37.811,39.526,61.813
	c0.981,3.637,4.272,6.034,7.867,6.034c0.702,0,1.415-0.091,2.126-0.283c4.347-1.172,6.922-5.646,5.75-9.993
	c-7.027-26.076-21.851-49.794-42.124-67.738c2.118-1.806,4.215-3.669,6.284-5.606c24.518-22.938,43.361-53.202,53.682-85.993
	c5.412,1.677,11.04,2.523,16.823,2.523c31.469,0,57.07-25.601,57.07-57.07S455.96,196.756,424.491,196.756z M310.351,261.979
	c-4.496,0-8.153-3.657-8.153-8.153c0-1.551-0.441-2.996-1.192-4.23c5.383,1.32,11.296,2.382,17.611,2.934
	c-0.067,0.423-0.113,0.853-0.113,1.296C318.504,258.322,314.847,261.979,310.351,261.979z M264.029,435.644
	c-0.278,1.657-1.053,3.185-2.265,4.397c-1.54,1.54-3.587,2.388-5.765,2.388s-4.225-0.848-5.765-2.388
	c-1.212-1.212-1.986-2.74-2.265-4.397c2.67,0.17,5.344,0.263,8.023,0.263C258.679,435.907,261.358,435.812,264.029,435.644z
	 M231.57,433.516c-0.016,0.252-0.029,0.504-0.029,0.76c0,0.709,0.043,1.411,0.103,2.11c-0.34,0.248-0.67,0.515-0.976,0.822
	l-1.647,1.647c-2.087,2.086-4.423,1.436-5.331,1.061c-0.908-0.376-3.02-1.57-3.02-4.52v-4.507
	C224.284,431.924,227.919,432.8,231.57,433.516z M225.969,457.356c0.255-0.255,0.483-0.527,0.697-0.807
	c4.442-0.229,8.762-1.835,12.305-4.737c2.544,2.472,5.533,4.311,8.783,5.473v25.701L225.968,461.2
	C224.909,460.14,224.909,458.416,225.969,457.356z M286.03,461.2l-21.968,21.968v-25.817c3.321-1.158,6.374-3.021,8.965-5.537
	c3.514,2.877,7.79,4.481,12.191,4.731l0.812,0.812C287.088,458.416,287.088,460.14,286.03,461.2z M291.328,435.395
	c0,2.95-2.112,4.144-3.02,4.52c-0.908,0.376-3.244,1.026-5.331-1.061l-1.171-1.171c-0.449-0.449-0.941-0.828-1.459-1.151
	c0.067-0.746,0.11-1.498,0.11-2.257c0-0.237-0.013-0.478-0.028-0.732c3.657-0.71,7.292-1.571,10.899-2.597V435.395z"/>
</svg>