<?xml version="1.0" encoding="iso-8859-1"?>
<!-- Uploaded to: SVG Repo, www.svgrepo.com, Generator: SVG Repo Mixer Tools -->
<svg version="1.1" id="Layer_1" xmlns="http://www.w3.org/2000/svg" xmlns:xlink="http://www.w3.org/1999/xlink" 
	 viewBox="0 0 512 512" xml:space="preserve">
<g>
	<path style="fill:#723900;" d="M198.667,427.893h-69.244c-37.542,0-68.084-30.543-68.084-68.084v-103.4
		c0-37.543,30.543-68.084,68.084-68.084h48.345l20.899,31.348h-69.244c-20.256,0-36.736,16.48-36.736,36.736v103.4
		c0,20.256,16.48,36.736,36.736,36.736h69.244V427.893z"/>
	<path style="fill:#723900;" d="M314.215,512h83.665c29.151,0,52.782-23.631,52.782-52.782V240.57l-157.346-20.899L314.215,512z"/>
</g>
<g>
	<path style="fill:#A43700;" d="M177.768,240.57v218.646c0,29.151,23.631,52.782,52.782,52.782h83.665V219.671L177.768,240.57z"/>
	<polygon style="fill:#A43700;" points="314.215,188.323 293.316,214.447 314.215,240.57 450.662,240.57 450.662,188.323 	"/>
</g>
<rect x="177.766" y="188.32" style="fill:#DA6A1F;" width="136.449" height="52.247"/>
<path style="fill:#BDBDBD;" d="M323.421,157.913h-31.348l21.12-49.142L298.89,44.373l9.87-36.367L305.008,0h31.348
	c0,16.803-4.478,25.911-8.075,33.231c-2.927,5.954-4.86,9.888-4.86,19.401c0,9.516,1.934,13.452,4.861,19.407
	c3.598,7.32,8.075,16.431,8.075,33.233c0,16.804-4.478,25.915-8.075,33.234C325.354,144.463,323.421,148.398,323.421,157.913z"/>
<path style="fill:#E4E4E4;" d="M240.416,157.913h-31.348c0-16.803,4.478-25.914,8.075-33.233c2.927-5.955,4.861-9.89,4.861-19.407
	c0-9.515-1.934-13.451-4.86-19.406c-3.598-7.32-8.075-16.431-8.075-33.234c0-16.803,4.478-25.911,8.075-33.231
	c2.927-5.954,4.86-9.888,4.86-19.401h31.348c0,16.803-4.478,25.911-8.075,33.231c-2.927,5.954-4.86,9.888-4.86,19.401
	c0,9.516,1.934,13.452,4.861,19.407c3.598,7.32,8.075,16.431,8.075,33.233c0,16.804-4.478,25.915-8.075,33.234
	C242.349,144.463,240.416,148.398,240.416,157.913z"/>
<path style="fill:#BDBDBD;" d="M406.426,157.913h-31.348c0-16.803,4.478-25.914,8.075-33.233c2.927-5.955,4.861-9.89,4.861-19.407
	c0-9.515-1.934-13.451-4.86-19.406c-3.598-7.32-8.075-16.431-8.075-33.234c0-16.803,4.478-25.911,8.075-33.231
	c2.927-5.954,4.86-9.888,4.86-19.401h31.348c0,16.803-4.478,25.911-8.075,33.231c-2.927,5.954-4.86,9.888-4.86,19.401
	c0,9.516,1.934,13.452,4.861,19.407c3.598,7.32,8.075,16.431,8.075,33.233c0,16.804-4.478,25.915-8.075,33.234
	C408.36,144.463,406.426,148.398,406.426,157.913z"/>
<path style="fill:#E4E4E4;" d="M307.747,52.633c0-26.317,12.935-26.317,12.936-52.633h-15.674c0,9.513-1.934,13.447-4.86,19.401
	c-3.598,7.32-8.076,16.429-8.076,33.231c0,16.804,4.478,25.915,8.075,33.234c2.927,5.955,4.861,9.89,4.861,19.406
	c0,9.516-1.934,13.452-4.861,19.407c-3.598,7.32-8.075,16.43-8.075,33.233h15.674c0-26.32,12.936-26.32,12.936-52.64
	C320.682,78.953,307.747,78.953,307.747,52.633z"/>
</svg>