<?xml version="1.0" encoding="iso-8859-1"?>
<!-- Uploaded to: SVG Repo, www.svgrepo.com, Generator: SVG Repo Mixer Tools -->
<svg height="800px" width="800px" version="1.1" id="Layer_1" xmlns="http://www.w3.org/2000/svg" xmlns:xlink="http://www.w3.org/1999/xlink" 
	 viewBox="0 0 512.001 512.001" xml:space="preserve">
<path style="fill:#5C5F66;" d="M4.893,507.106L4.893,507.106c-6.525-6.525-6.525-17.102,0-23.627l116.561-116.561
	c6.525-6.525,17.102-6.525,23.627,0l0,0c6.525,6.525,6.525,17.102,0,23.627L28.521,507.106
	C21.997,513.631,11.418,513.631,4.893,507.106z"/>
<path style="fill:#53565C;" d="M28.521,507.106l116.561-116.561c6.525-6.525,6.523-17.103,0-23.627L4.893,507.106
	C11.418,513.631,21.997,513.631,28.521,507.106z"/>
<path style="fill:#F2A083;" d="M487.517,142.619l-62.848,62.848L306.533,87.333l62.848-62.848
	c32.605-32.605,85.451-32.684,118.135,0C520.201,57.168,520.122,110.014,487.517,142.619z"/>
<path style="fill:#E7906E;" d="M487.517,142.619l-62.848,62.848l-59.068-59.068L487.517,24.484
	C520.201,57.168,520.122,110.014,487.517,142.619z"/>
<path style="fill:#E55639;" d="M452.706,224.684L287.316,389.916c-46.861,46.861-120.814,44.733-165.389,0.158
	c-45.522-45.68-45.522-119.868,0-165.389L287.396,59.216c3.702-3.702,8.899-5.434,14.176-4.726
	c1.339,0.236,33.472,5.12,56.626,28.432c15.672,15.672,21.894,32.447,25.439,45.443c1.654,5.906,2.678,11.027,3.78,14.806
	c0,0-0.079,0.079,0,0.158c1.733,7.089,6.616,22.683,18.115,34.023c15.121,15.278,37.646,18.902,37.803,18.901
	C457.037,198.301,462.393,214.996,452.706,224.684z"/>
<path style="fill:#CF4529;" d="M452.706,224.684L287.316,389.916c-46.861,46.861-120.814,44.733-165.389,0.158l261.709-261.71
	c1.654,5.906,2.678,11.027,3.78,14.806c0,0-0.079,0.079,0,0.158c1.733,7.089,6.616,22.683,18.115,34.023
	c15.121,15.278,37.646,18.902,37.803,18.901C457.037,198.301,462.393,214.996,452.706,224.684z"/>
<path style="fill:#FFEACC;" d="M311.022,271.86c-19.611,19.611-51.428,19.611-70.96,0.079c-6.222-6.38-17.248-6.38-23.548-0.079
	c-6.458,6.458-6.773,16.697-0.079,23.706c6.616,6.459,6.537,17.09,0.079,23.548s-16.854,6.773-23.627,0
	c-19.216-18.901-20.083-50.798,0-70.882c19.295-19.295,50.877-19.847,70.803,0.079c6.616,6.459,17.169,6.458,23.706-0.079
	c6.458-6.458,6.459-17.011,0-23.627c-19.216-18.901-20.083-50.798,0-70.882c19.611-19.611,51.507-19.531,70.803,0.079
	c6.616,6.459,17.957,5.67,24.493-0.867c3.229-3.229,4.411-6.93,4.725-9.609c1.733,7.089,6.616,22.683,18.115,34.023
	c-19.69,18.901-51.665,19.374-70.96,0.079c-6.222-6.38-17.248-6.38-23.548-0.079c-6.458,6.458-6.773,16.697-0.079,23.706
	C330.475,220.589,330.554,252.329,311.022,271.86z"/>
<g>
	<path style="fill:#FFDBB2;" d="M405.531,177.351c-19.69,18.901-51.665,19.374-70.96,0.079l23.627-23.627
		c6.616,6.459,17.957,5.67,24.493-0.867c3.229-3.229,4.411-6.93,4.725-9.609C389.149,150.417,394.032,166.011,405.531,177.351z"/>
	<path style="fill:#FFDBB2;" d="M311.022,271.86c-19.611,19.611-51.428,19.611-70.96,0.079l23.627-23.627
		c6.616,6.459,17.169,6.458,23.706-0.079c6.458-6.458,6.459-17.011,0-23.627l23.548-23.548
		C330.475,220.589,330.554,252.329,311.022,271.86z"/>
	<path style="fill:#FFDBB2;" d="M216.514,319.114c-6.458,6.458-16.854,6.773-23.627,0l23.548-23.548
		C223.052,302.024,222.972,312.656,216.514,319.114z"/>
</g>
</svg>