<?xml version="1.0" ?>
<!-- Uploaded to: SVG Repo, www.svgrepo.com, Generator: SVG Repo Mixer Tools -->
<svg width="800px" height="800px" viewBox="0 0 25 25" xmlns="http://www.w3.org/2000/svg">
<defs>
<style>.cls-1{fill:#ff7900;}</style>
</defs>
<g data-name="24 hour" id="_24_hour">
<path class="cls-1" d="M19,7.5a.5.5,0,0,0,.5.5h3A.5.5,0,0,0,23,7.66l1-3A.5.5,0,1,0,23,4.34L22.3,6.53a11.47,11.47,0,1,0,1.21,9.29.5.5,0,1,0-1-.29A10.5,10.5,0,1,1,12.5,2a10.47,10.47,0,0,1,8.92,5H19.5A.5.5,0,0,0,19,7.5Z"/>
<path class="cls-1" d="M9.73,11.5a11.78,11.78,0,0,1-.89.8L6.53,14.62a.79.79,0,0,0-.22.26.52.52,0,0,0-.06.22v.35a.25.25,0,0,0,.07.18.24.24,0,0,0,.18.07h4.83a.25.25,0,0,0,.19-.07.21.21,0,0,0,.07-.18V15a.21.21,0,0,0-.07-.18.25.25,0,0,0-.19-.07H7.92L10,12.62a7,7,0,0,0,.77-.77,3.18,3.18,0,0,0,.47-.78,2.26,2.26,0,0,0,.17-.88,2.35,2.35,0,0,0-.27-1.12,1.9,1.9,0,0,0-.81-.83,2.85,2.85,0,0,0-1.42-.31,2.75,2.75,0,0,0-1.11.21,2.28,2.28,0,0,0-.8.55,2.44,2.44,0,0,0-.48.76,2.53,2.53,0,0,0-.18.84.18.18,0,0,0,.07.15.23.23,0,0,0,.16.06h.57a.32.32,0,0,0,.17-.06.27.27,0,0,0,.12-.19,2,2,0,0,1,.24-.71,1.22,1.22,0,0,1,.49-.49,1.49,1.49,0,0,1,.75-.18,1.24,1.24,0,0,1,1.39,1.36,1.41,1.41,0,0,1-.14.63A2.36,2.36,0,0,1,9.73,11.5Z"/>
<path class="cls-1" d="M16.23,15.63a.24.24,0,0,0,.18.07H17a.24.24,0,0,0,.18-.07.21.21,0,0,0,.07-.18V13.88h1a.24.24,0,0,0,.25-.25v-.45a.27.27,0,0,0-.07-.18.25.25,0,0,0-.19-.07h-1V8.3A.24.24,0,0,0,17,8.05h-.79a.46.46,0,0,0-.4.18l-3.28,4.63a.7.7,0,0,0-.1.19,1.15,1.15,0,0,0,0,.14v.44a.24.24,0,0,0,.07.18.25.25,0,0,0,.18.07h3.54v1.57A.25.25,0,0,0,16.23,15.63ZM13.54,13,16.17,9.2V13Z"/>
</g>
</svg>