<?xml version="1.0" encoding="iso-8859-1"?>
<!-- Uploaded to: SVG Repo, www.svgrepo.com, Generator: SVG Repo Mixer Tools -->
<svg version="1.1" id="Layer_1" xmlns="http://www.w3.org/2000/svg" xmlns:xlink="http://www.w3.org/1999/xlink" 
	 viewBox="0 0 512 512" xml:space="preserve">
<path style="fill:#0F8EE3;" d="M82.974,161.881c15.361,0,28.576,9.049,34.703,22.086c6.131-13.037,19.346-22.086,34.704-22.086
	c15.361,0,28.575,9.049,34.703,22.086c6.131-13.037,19.345-22.086,34.703-22.086c15.362,0,28.576,9.049,34.704,22.086
	c6.13-13.037,19.345-22.086,34.702-22.086c15.362,0,28.577,9.049,34.704,22.086c6.131-13.037,19.345-22.086,34.704-22.086
	c15.361,0,28.575,9.049,34.702,22.085c-0.014-95.833-77.704-173.516-173.541-173.516c-95.841,0-173.537,77.695-173.537,173.537
	C54.345,170.929,67.602,161.881,82.974,161.881z"/>
<path style="fill:#FF3131;" d="M221.754,10.449C164.269,10.456,117.666,88.09,117.632,183.88c0.014,0.029,0.03,0.056,0.044,0.086
	c6.131-13.037,19.346-22.086,34.704-22.086c15.361,0,28.575,9.049,34.703,22.086c6.131-13.037,19.345-22.086,34.703-22.086
	c15.362,0,28.576,9.049,34.704,22.086c6.13-13.037,19.345-22.086,34.702-22.086c15.361,0,28.575,9.048,34.702,22.083
	C325.884,88.135,279.27,10.456,221.768,10.449c-0.002,0-0.005,0-0.007,0C221.759,10.449,221.756,10.449,221.754,10.449z"/>
<path style="fill:#7DCE09;" d="M221.762,10.449h-0.001h-0.001c-19.159,0.004-34.691,77.666-34.698,173.479
	c0.006,0.013,0.014,0.025,0.02,0.038c6.131-13.037,19.345-22.086,34.703-22.086c15.34,0,28.537,9.025,34.676,22.031
	C256.452,88.106,240.921,10.453,221.762,10.449z"/>
<rect x="48.065" y="255.998" style="fill:#CE1128;" width="347.394" height="25.077"/>
<polygon style="fill:#27B5F7;" points="275.051,448.258 368.047,448.258 368.047,281.075 75.478,281.075 75.478,448.258 
	108.914,448.258 "/>
<path style="fill:#FF3131;" d="M294.211,398.901l-45.298-45.298c-10.111-10.111-10.111-26.658,0-36.771l0,0
	c10.111-10.111,26.658-10.111,36.771,0l45.298,45.298L294.211,398.901z"/>
<path style="fill:#7DCE09;" d="M112.699,363.375l45.298-45.298c10.111-10.111,26.658-10.111,36.771,0l0,0
	c10.111,10.111,10.111,26.658,0,36.771l-45.298,45.298L112.699,363.375z"/>
<path d="M139.477,437.809h-0.175c-5.771,0-10.449,4.678-10.449,10.449s4.678,10.449,10.449,10.449h0.175
	c5.771,0,10.449-4.678,10.449-10.449S145.248,437.809,139.477,437.809z"/>
<path d="M463.933,296.749h-85.437v-5.224h16.962c5.771,0,10.449-4.678,10.449-10.449v-25.077c0-5.771-4.678-10.449-10.449-10.449
	H232.234v-71.143c6.393,2.611,11.761,7.544,14.799,14.006c1.722,3.664,5.406,6.004,9.455,6.004c0,0,0,0,0.001,0
	c4.049,0,7.732-2.338,9.455-6.003c4.594-9.77,14.504-16.083,25.246-16.083c10.747,0,20.656,6.312,25.248,16.081
	c1.722,3.664,5.406,6.004,9.454,6.005c0.001,0,0.001,0,0.002,0c4.048,0,7.732-2.338,9.455-6.002
	c4.595-9.771,14.506-16.084,25.249-16.084c10.745,0,20.654,6.312,25.246,16.081c0.003,0.006,0.006,0.011,0.009,0.019
	c1.671,3.546,5.267,6.006,9.447,6.006c5.771,0,10.449-4.678,10.449-10.449C405.748,82.536,323.211,0,221.761,0
	S37.775,82.536,37.775,183.986c0,5.771,4.678,10.449,10.449,10.449c4.114,0,7.662-2.383,9.366-5.84
	c0.031-0.062,0.064-0.109,0.094-0.174c4.582-9.775,14.508-16.091,25.288-16.091c10.746,0,20.655,6.312,25.246,16.081
	c1.722,3.664,5.406,6.004,9.454,6.005c0.001,0,0.001,0,0.001,0c4.049,0,7.732-2.338,9.455-6.002
	c4.595-9.771,14.506-16.084,25.249-16.084c10.745,0,20.655,6.312,25.247,16.082c1.722,3.664,5.406,6.004,9.455,6.004h0.001
	c4.048,0,7.732-2.338,9.455-6.002c3.04-6.461,8.408-11.395,14.799-14.006v71.141H48.067c-5.771,0-10.449,4.678-10.449,10.449v25.077
	c0,5.771,4.678,10.449,10.449,10.449h16.962v156.733c0,5.771,4.678,10.449,10.449,10.449h33.436c5.771,0,10.449-4.678,10.449-10.449
	s-4.678-10.449-10.449-10.449H85.926V291.524h271.671v15.673v25.121v105.49H284.78c-5.004-30.188-31.282-53.285-62.867-53.285
	c-35.146,0-63.738,28.592-63.738,63.738S186.768,512,221.914,512c31.588,0,57.868-23.101,62.868-53.294h24.279l51.697,50.328
	c1.991,1.937,4.618,2.962,7.291,2.962c1.37,0,2.75-0.27,4.061-0.823c3.87-1.633,6.385-5.426,6.385-9.627v-53.289v-105.49h85.437
	c5.771,0,10.449-4.678,10.449-10.449v-25.121C474.382,301.427,469.704,296.749,463.933,296.749z M291.19,151.432
	c-8.813,0-17.296,2.434-24.655,6.764c-1.092-37.266-4.544-71.727-9.991-98.968c-2.527-12.638-5.345-23.164-8.503-31.663
	c14.168,7.348,27.311,20.621,38.393,39.088c14.901,24.832,24.462,56.324,27.739,90.591
	C307.213,153.508,299.341,151.432,291.19,151.432z M382.557,156.709c-6.704-3.4-14.205-5.279-21.959-5.279
	c-9.079,0-17.816,2.573-25.328,7.153c-3.266-38.634-13.956-74.416-30.917-102.683c-4.385-7.309-9.093-13.94-14.066-19.886
	C338.153,58.269,373.487,103.078,382.557,156.709z M82.974,151.432c-7.775,0-15.293,1.882-22.009,5.288
	c9.067-53.635,44.402-98.448,92.272-120.706c-4.974,5.946-9.681,12.577-14.066,19.886c-16.958,28.26-27.645,64.032-30.914,102.654
	C100.756,153.992,92.036,151.432,82.974,151.432z M152.379,151.432c-8.169,0-16.059,2.087-23.031,5.841
	c3.275-34.278,12.836-65.78,27.741-90.619c11.082-18.468,24.226-31.742,38.393-39.089c-3.159,8.499-5.977,19.025-8.503,31.664
	c-5.445,27.233-8.897,61.684-9.99,98.938C169.641,153.854,161.174,151.432,152.379,151.432z M197.921,157.74
	c1.004-32.568,3.858-63.066,8.296-87.792c5.673-31.606,12.308-44.482,15.544-48.21c3.237,3.728,9.872,16.605,15.545,48.21
	c4.437,24.718,7.29,55.206,8.295,87.762c-7.162-4.026-15.337-6.278-23.816-6.278C213.287,151.432,205.095,153.695,197.921,157.74z
	 M58.516,270.626v-4.18h326.492v4.18H58.516z M251.523,479.178l-11.664-20.203h23.539
	C261.376,466.797,257.187,473.751,251.523,479.178z M180.429,458.975h23.233l-11.556,20.016
	C186.542,473.591,182.427,466.706,180.429,458.975z M191.91,417.721l11.753,20.357h-23.356
	C182.23,430.223,186.319,423.214,191.91,417.721z M263.521,438.077h-23.663l11.862-20.545
	C257.411,423.054,261.576,430.132,263.521,438.077z M233.633,407.064l-11.873,20.564l-11.829-20.489
	c3.805-1.111,7.823-1.718,11.983-1.718C225.977,405.421,229.906,406.002,233.633,407.064z M210.193,489.459l11.568-20.036
	l11.611,20.11c-3.65,1.015-7.49,1.568-11.458,1.568C217.849,491.102,213.921,490.521,210.193,489.459z M339.02,458.706h18.578
	v18.086L339.02,458.706z M453.484,321.87h-74.989v-4.223h74.989V321.87z"/>
<path d="M338.37,354.743l-45.298-45.299c-6.864-6.864-16.017-10.644-25.774-10.644c-9.757,0-18.909,3.78-25.774,10.644
	c-6.864,6.864-10.644,16.018-10.644,25.774s3.78,18.909,10.644,25.774l45.298,45.298c2.041,2.041,4.715,3.06,7.388,3.06
	s5.349-1.02,7.388-3.06l10.447-10.447l14.17,14.17c2.041,2.04,4.715,3.06,7.388,3.06s5.349-1.021,7.388-3.06
	c4.08-4.08,4.08-10.697,0-14.778l-14.17-14.17l11.546-11.546C342.45,365.44,342.45,358.823,338.37,354.743z M256.302,346.215
	c-2.917-2.917-4.524-6.822-4.524-10.996c0-4.174,1.607-8.08,4.524-10.996c3.032-3.032,7.013-4.548,10.996-4.548
	c3.982,0,7.965,1.516,10.996,4.547l37.91,37.911l-11.542,11.542c-0.002,0.002-0.003,0.003-0.005,0.005s-0.003,0.003-0.005,0.005
	l-10.442,10.442L256.302,346.215z"/>
<path d="M212.8,336.462c0-9.756-3.78-18.909-10.644-25.774c-6.864-6.864-16.017-10.644-25.774-10.644s-18.909,3.78-25.774,10.644
	l-45.298,45.298c-4.08,4.08-4.08,10.697,0,14.777l10.447,10.447l-14.17,14.17c-4.08,4.08-4.08,10.697,0,14.778
	c2.041,2.04,4.715,3.06,7.388,3.06c2.674,0,5.349-1.021,7.388-3.06l14.17-14.17l11.546,11.546c1.959,1.959,4.617,3.06,7.388,3.06
	s5.429-1.101,7.388-3.06l45.298-45.298C209.02,355.371,212.8,346.219,212.8,336.462z M187.378,347.459l-37.91,37.91l-11.54-11.54
	c-0.002-0.002-0.004-0.005-0.007-0.008s-0.005-0.004-0.008-0.007l-10.439-10.439l37.91-37.91c6.062-6.065,15.928-6.066,21.993,0
	c2.917,2.917,4.523,6.822,4.523,10.996C191.899,340.635,190.295,344.542,187.378,347.459z"/>
</svg>