<?xml version="1.0" encoding="utf-8"?>
<!-- Uploaded to: SVG Repo, www.svgrepo.com, Generator: SVG Repo Mixer Tools -->
<svg fill="#000000" height="800px" width="800px" version="1.1" id="_x31__1_" xmlns="http://www.w3.org/2000/svg" xmlns:xlink="http://www.w3.org/1999/xlink" 
	 viewBox="0 0 128 128" xml:space="preserve">
<path id="_x32_" d="M124.5,118V70h-36V58h-49v12h-36v48H0v10h128v-10H124.5z M97.5,91h5v23h-5V91z M93.5,114h-5V91h5V114z M102.5,87
	h-5v-5h5V87z M106.5,82h5v5h-5V82z M106.5,91h5v23h-5V91z M115.5,91h5v23h-5V91z M120.5,87h-5v-5h5V87z M93.5,82v5h-5v-5H93.5z
	 M21.5,87h-5v-5h5V87z M25.5,82h5v5h-5V82z M21.5,91v23h-5V91H21.5z M25.5,91h5v23h-5V91z M34.5,91h5v23h-5V91z M39.5,87h-5v-5h5V87
	z M12.5,82v5h-5v-5H12.5z M7.5,91h5v23h-5V91z M46.5,120V70h7v50H46.5z M60.5,120V70h7v50H60.5z M74.5,120V70h7v50H74.5z"/>
<polygon id="_x31_" points="88.5,56 65,36.8 65,30 76,30 76,20 65,20 65,18 63,18 63,20 63,30 63,36.8 39.5,56 "/>
</svg>