<?xml version="1.0" standalone="no"?><!DOCTYPE svg PUBLIC "-//W3C//DTD SVG 1.1//EN" "http://www.w3.org/Graphics/SVG/1.1/DTD/svg11.dtd"><svg t="1737635882929" class="icon" viewBox="0 0 1024 1024" version="1.1" xmlns="http://www.w3.org/2000/svg" p-id="1739" xmlns:xlink="http://www.w3.org/1999/xlink" width="200" height="200"><path d="M804.266667 228.693333H219.093333s-102.4 91.733333-102.4 386.986667c0 150.613333 40.96 248.32 81.066667 307.84 33.493333 49.92 90.026667 79.146667 150.186667 79.146667H674.986667c60.16 0 116.693333-29.44 150.186666-79.146667 40.106667-59.52 81.066667-157.226667 81.066667-307.84 0.213333-295.253333-101.973333-386.986667-101.973333-386.986667z" fill="#FF740E" p-id="1740"></path><path d="M804.266667 228.693333h-153.6s102.4 91.733333 102.4 386.986667c0 150.613333-40.96 248.32-81.066667 307.84-33.493333 49.92-90.026667 79.146667-150.186667 79.146667H675.2c60.16 0 116.693333-29.44 150.186667-79.146667 40.106667-59.52 81.066667-157.226667 81.066666-307.84 0-295.253333-102.186667-386.986667-102.186666-386.986667z" fill="#FF8C3E" p-id="1741"></path><path d="M720.213333 363.733333c40.746667 0 48.853333 57.813333 153.6 57.813334 5.76 0 10.453333-0.426667 14.506667-1.28-6.186667-29.44-13.226667-55.04-20.906667-77.013334-29.013333-29.226667-63.146667-55.68-63.146666-55.68H219.093333s-33.706667 22.186667-60.8 48c-7.253333 19.626667-14.08 42.666667-20.053333 68.906667 0.64 0.426667 1.28 0.853333 2.133333 1.066667 59.093333 27.52 93.226667-37.973333 157.44-34.133334 64.213333 3.84 59.093333 47.146667 93.226667 49.92 34.133333 2.56 43.306667-55.04 107.52-55.04 64.213333 0 70.826667 55.253333 117.973333 55.253334 47.146667 0 62.933333-57.813333 103.68-57.813334z" fill="#1B1C20" opacity=".1" p-id="1742"></path><path d="M825.386667 152.533333H197.973333c-0.64 0-1.066667-0.426667-1.066666-1.066666V31.573333c0-5.546667 4.48-10.24 10.24-10.24h609.493333c5.546667 0 10.24 4.48 10.24 10.24V151.466667c-0.426667 0.64-0.853333 1.066667-1.493333 1.066666z" fill="#FED8B2" p-id="1743"></path><path d="M271.573333 21.333333c-41.386667 0-74.88 33.493333-74.88 74.88v47.786667c0 4.693333 3.84 8.533333 8.533334 8.533333h474.24V21.333333H271.573333z" fill="#F2C59E" p-id="1744"></path><path d="M219.093333 152.533333H804.266667v76.16H219.093333z" fill="#CCE8E3" p-id="1745"></path><path d="M219.093333 152.533333h460.586667v76.16H219.093333z" fill="#B6D3CD" p-id="1746"></path><path d="M873.813333 362.453333c-104.746667 0-112.853333-57.813333-153.6-57.813333-6.826667 0-13.013333 1.493333-18.773333 4.48-24.96 11.946667-41.813333 44.8-72.533333 52.053333-0.853333 0.213333-1.493333 0.213333-2.346667 0.426667-1.493333 0.213333-3.2 0.426667-4.48 0.64-1.92 0.213333-3.84 0.213333-5.546667 0.213333-47.146667 0-53.76-55.04-117.973333-55.04-64.213333 0-73.386667 57.6-107.52 55.04-34.133333-2.773333-28.8-45.866667-93.226667-49.92-64.213333-3.84-98.346667 61.653333-157.44 34.133334-59.093333-27.52 78.72-117.973333 78.72-117.973334H804.266667s174.293333 133.76 69.546666 133.76z" fill="#FED8B2" p-id="1747"></path><path d="M701.44 309.12c-24.96 11.946667-41.813333 44.8-72.533333 52.053333-0.853333 0.213333-1.493333 0.213333-2.346667 0.426667-1.493333 0.213333-3.2 0.426667-4.48 0.64-1.92 0.213333-3.84 0.213333-5.546667 0.213333-47.146667 0-53.76-55.04-117.973333-55.04-64.213333 0-73.386667 57.6-107.52 55.04-34.133333-2.773333-28.8-45.866667-93.226667-49.92-64.213333-3.84-98.346667 61.653333-157.44 34.133334-59.093333-27.52 78.72-117.973333 78.72-117.973334h460.586667l21.76 80.426667z" fill="#F2C59E" p-id="1748"></path><path d="M776.533333 216.746667h-17.066666c-0.64 0-1.28-0.64-1.28-1.28V167.04c0-0.64 0.64-1.28 1.28-1.28h17.066666c0.64 0 1.28 0.64 1.28 1.28V215.466667c0.213333 0.853333-0.426667 1.28-1.28 1.28zM747.093333 210.56h-17.066666c-0.64 0-1.28-0.64-1.28-1.28v-36.266667c0-0.64 0.64-1.28 1.28-1.28h17.066666c0.64 0 1.28 0.64 1.28 1.28v36.266667c0 0.853333-0.64 1.28-1.28 1.28zM717.653333 206.293333h-17.066666c-0.64 0-1.28-0.64-1.28-1.28V177.493333c0-0.64 0.64-1.28 1.28-1.28h17.066666c0.64 0 1.28 0.64 1.28 1.28V204.8c0 0.853333-0.64 1.493333-1.28 1.493333zM750.506667 897.493333c-9.386667-5.546667-12.373333-17.706667-6.826667-26.88l0.64-0.426666c19.84-16 33.493333-38.4 39.04-63.146667l1.28-5.76c5.546667-9.386667 17.706667-12.373333 26.88-6.826667 9.386667 5.546667 5.546667 33.28 5.546667 33.28-5.76 24.96-20.053333 47.36-39.893334 63.36 0-0.426667-17.28 11.946667-26.666666 6.4z" fill="#FFFFFF" p-id="1749"></path></svg>