<?xml version="1.0" encoding="iso-8859-1"?>
<!-- Uploaded to: SVG Repo, www.svgrepo.com, Generator: SVG Repo Mixer Tools -->
<svg height="800px" width="800px" version="1.1" id="Layer_1" xmlns="http://www.w3.org/2000/svg" xmlns:xlink="http://www.w3.org/1999/xlink" 
	 viewBox="0 0 512 512" xml:space="preserve">
<g>
	<path style="fill:#B857D0;" d="M96.456,173.684L82.287,165c-17.907-10.975-41.321-5.355-52.295,12.551l0,0
		c-8.027,13.097-7.167,29.135,0.875,41.101C13.289,222.005,0,237.447,0,255.999l0,0c0,18.553,13.289,33.994,30.866,37.346
		c-8.042,11.967-8.901,28.005-0.875,41.103l0,0c10.975,17.907,34.388,23.526,52.295,12.551l14.169-8.685L96.456,173.684z"/>
	<path style="fill:#B857D0;" d="M415.544,173.684L429.713,165c17.907-10.975,41.321-5.355,52.295,12.551l0,0
		c8.027,13.097,7.167,29.135-0.875,41.101C498.711,222.005,512,237.447,512,255.999l0,0c0,18.553-13.289,33.994-30.866,37.346
		c8.042,11.967,8.901,28.005,0.875,41.103l0,0c-10.975,17.907-34.388,23.526-52.295,12.551l-14.169-8.685L415.544,173.684z"/>
</g>
<path style="fill:#A93CCB;" d="M243.969,127.6h73.037c70.913,0,128.4,57.487,128.4,128.4l0,0c0,21.193-5.138,41.186-14.232,58.806
	L268.03,384.399l0,0h-73.037c-70.913,0-128.4-57.487-128.4-128.4l0,0c0-21.164,5.127-41.127,14.197-58.728l0.034-0.078
	L243.969,127.6z"/>
<path style="fill:#FF8800;" d="M431.175,314.805L243.969,127.6h-48.975c-49.719,0-92.835,28.262-114.167,69.595L268.031,384.4
	h48.975C366.726,384.399,409.841,356.138,431.175,314.805z"/>
<path style="opacity:0.3;fill:#20272E;enable-background:new    ;" d="M512,255.999c0-18.553-13.289-33.994-30.866-37.346
	c8.042-11.967,8.901-28.005,0.875-41.103l0,0c-10.974-17.907-34.388-23.526-52.295-12.551l-14.169,8.684
	c-23.553-28.165-58.951-46.085-98.538-46.085H256v256.8h12.031h48.975c39.842,0,75.431-18.159,98.982-46.638
	c-0.151,0.183-0.293,0.372-0.444,0.553l14.17,8.684c17.907,10.975,41.321,5.355,52.295-12.551l0,0
	c8.026-13.097,7.167-29.134-0.875-41.101C498.711,289.994,512,274.553,512,255.999z"/>
</svg>