<?xml version="1.0" encoding="iso-8859-1"?>
<!-- Uploaded to: SVG Repo, www.svgrepo.com, Generator: SVG Repo Mixer Tools -->
<!DOCTYPE svg PUBLIC "-//W3C//DTD SVG 1.1//EN" "http://www.w3.org/Graphics/SVG/1.1/DTD/svg11.dtd">
<svg fill="#000000" version="1.1" id="Capa_1" xmlns="http://www.w3.org/2000/svg" xmlns:xlink="http://www.w3.org/1999/xlink" 
	 width="800px" height="800px" viewBox="0 0 521.317 521.318"
	 xml:space="preserve">
<g>
	<g>
		<path d="M111.564,256.097c-28.458,70.074-57.222,141.065-79.56,213.282c-0.918,3.06,3.978,5.201,5.508,2.142
			c31.824-68.85,58.14-141.372,84.15-212.67C123.499,252.425,114.012,249.977,111.564,256.097z"/>
		<path d="M273.438,351.569c-2.754-3.06-6.119-5.202-8.873-8.262c-3.06-3.061-5.814-6.732-8.262-10.404
			c-0.918-1.224-3.06,0-2.142,1.225c4.284,7.037,10.404,15.605,17.748,19.277C273.438,353.711,274.662,352.487,273.438,351.569z"/>
		<path d="M274.051,335.045c-0.613-1.225-2.143-0.918-2.754,0c-5.814-5.509-11.322-11.017-15.913-17.748
			c-0.918-1.53-3.366,0-2.448,1.529c5.202,7.956,11.321,15.606,18.972,21.42c0.918,0.612,2.143,0,2.447-0.918
			C274.969,337.493,274.969,336.575,274.051,335.045z"/>
		<path d="M277.111,325.559c-7.039-7.038-14.689-13.158-20.809-21.114c-0.918-1.224-3.06,0-2.142,1.225
			c5.508,8.262,12.851,16.829,21.726,21.726C276.805,328.007,278.029,326.477,277.111,325.559z"/>
		<path d="M275.887,315.461c-6.121-6.732-12.852-12.853-19.89-18.36c-1.224-0.918-2.754,0.612-1.53,1.53
			c6.732,6.12,13.159,12.239,19.889,18.359C275.58,318.215,276.805,316.685,275.887,315.461z"/>
		<path d="M277.416,306.281c-3.061-3.672-7.344-6.426-10.709-9.792c-3.672-3.366-7.039-6.731-10.099-10.403
			c-0.918-1.225-2.754,0.611-1.836,1.836c5.814,7.038,12.853,15.912,21.114,20.502C277.416,308.729,278.334,307.199,277.416,306.281
			z"/>
		<path d="M276.498,293.429c-6.119-6.732-12.852-12.546-18.972-19.584c-1.53-1.836-4.284,0.918-2.754,2.754
			c5.814,7.038,11.935,14.382,19.583,19.278C275.887,296.795,277.416,294.653,276.498,293.429z"/>
		<path d="M276.805,285.779c-6.426-7.956-14.076-14.382-22.338-20.502c-1.224-0.918-3.06,1.225-1.836,2.448
			c7.956,6.12,14.995,13.158,22.032,20.196C276.193,289.145,278.029,287.309,276.805,285.779z"/>
		<path d="M277.416,275.987c-5.814-5.813-11.934-11.016-16.83-17.748c-1.224-1.53-3.672,0-2.448,1.53
			c4.59,6.732,10.405,14.382,17.749,18.666C276.805,279.047,278.641,277.211,277.416,275.987z"/>
		<path d="M276.805,264.053c-5.814-5.814-11.629-11.322-16.524-18.054c-1.224-1.53-3.672,0-2.754,1.53
			c4.591,7.038,10.099,14.076,17.442,18.973C276.498,267.419,278.029,265.277,276.805,264.053z"/>
		<path d="M305.262,277.517c-3.365-4.284-7.955-7.65-11.627-11.628c-3.979-4.284-7.65-8.874-11.016-13.77
			c-1.225-1.836-3.979-0.306-3.367,1.53c0-0.306,0-0.612-0.305-0.612c-6.428-6.732-13.465-12.546-18.973-20.196
			c-0.918-1.53-3.366,0-2.448,1.53c5.202,7.65,11.628,15.912,19.585,21.114c1.223,0.612,2.141-0.306,2.447-1.224
			c5.814,9.18,13.463,21.113,23.256,26.622C304.957,281.801,306.486,279.047,305.262,277.517z"/>
		<path d="M308.629,265.889c-2.449,1.224-11.322-8.874-13.158-10.71c-2.754-2.754-5.814-5.202-8.875-7.956h0.307
			c0.307,0,0.307-0.612,0-0.306c-0.918-0.612-1.836-0.918-2.447-1.53c-0.307,0-0.307-0.306-0.613-0.306
			c0.307-0.612,0-1.224-0.305-1.53c-2.754-3.06-6.121-5.202-8.875-7.65c-3.061-2.754-5.814-5.508-8.568-8.262
			c-1.836-1.836-4.284,0.918-2.754,2.754c5.203,5.814,11.322,12.852,18.666,15.912c0.307,0,0.307,0,0.613,0
			c0.305,0.612,0.918,1.224,1.529,1.224c5.201,5.508,10.709,10.71,16.219,15.912c2.141,2.143,6.426,7.344,9.484,3.979
			C310.77,266.807,309.547,265.583,308.629,265.889z"/>
		<path d="M288.127,225.497c-3.367-3.06-7.039-5.814-10.404-9.18c-1.529-1.53-3.061-3.06-4.59-4.896
			c-0.918-0.918-3.672-3.672-4.285-5.202c0,0,0,0,0-0.306c0-0.612-0.305-0.918-0.611-1.224h-0.307
			c-0.611-0.306-1.223,0.306-1.223,0.612c-0.613,3.06,4.59,7.956,6.73,10.098c3.979,4.59,8.264,8.874,13.465,12.24
			C287.82,228.557,289.35,226.415,288.127,225.497z"/>
		<path d="M293.635,216.317c-3.672-3.06-7.65-5.202-11.322-8.262s-7.039-6.426-9.793-10.098c-1.223-1.53-3.365,0.612-2.141,2.142
			c5.814,7.344,13.158,15.3,21.725,18.972C293.328,219.683,294.857,217.235,293.635,216.317z"/>
		<path d="M319.951,233.147c-0.918,0.306-4.896-4.59-5.508-5.508c-1.838-1.836-3.674-3.672-5.203-5.814
			c-2.754-3.06-5.508-6.426-7.955-9.792c1.836,0.306,2.447-2.142,1.223-3.06c-8.568-5.814-17.441-10.098-25.092-17.136
			c-1.836-1.53-4.59,0.918-2.754,2.754c6.121,5.814,13.158,11.934,21.115,15.3c0,0.306,0,0.306,0,0.612
			c3.672,5.202,7.344,10.098,11.32,14.688c3.367,3.672,7.346,9.486,11.936,11.322c0.611,0.306,1.223,0,1.529-0.306
			s0.307-0.306,0.611-0.612C322.092,234.371,321.174,232.841,319.951,233.147z"/>
		<path d="M326.682,216.929c-3.059-3.978-7.648-7.038-11.016-10.71c-3.979-3.979-7.65-8.262-11.016-12.546
			c-1.225-1.836-4.59,0-3.061,1.836c0.918,0.918,1.531,1.836,2.449,3.06c0,0,0-0.306-0.307-0.306c0,0,0,0-0.307,0
			c-1.223-0.918-2.447-2.448-3.365-3.366c-1.836-1.836-3.672-3.366-5.508-5.202c-3.367-3.06-7.039-6.12-10.711-9.18
			c-1.836-1.53-4.59,1.224-2.754,2.754c3.979,3.06,7.65,6.426,11.322,9.792c3.061,2.754,5.814,6.426,9.18,8.874
			c0.613,0.612,1.531,0.306,2.143,0c0,0,0.307,0,0.307-0.306c0.611-0.306,0.918-0.918,0.918-1.53c0-0.306,0-0.612-0.307-0.918
			c2.447,3.06,4.896,6.426,7.65,9.18c3.672,3.978,7.65,8.568,12.545,11.322C326.377,220.601,327.906,218.459,326.682,216.929z"/>
		<path d="M307.711,187.553c-0.613-0.918-0.918-1.53-1.531-2.448c-0.611-0.918-1.223-0.918-2.141-0.612
			c-5.203-4.284-10.404-8.568-15.301-13.464c-1.529-1.53-3.672,0.612-2.447,2.448c5.201,6.426,11.322,12.546,18.053,17.136
			C306.793,191.837,308.629,189.389,307.711,187.553z"/>
		<path d="M318.115,400.223c-0.307-0.612-0.918-1.224-1.225-1.836s-1.225-0.307-1.529,0c-7.039-3.979-14.383-7.956-21.115-12.853
			c0-0.306,0-0.611-0.307-0.918c-6.73-6.731-14.688-12.239-21.725-18.359c-1.225-1.225-3.061,0.611-1.836,1.836
			c6.732,6.426,14.076,13.77,22.031,18.666l0,0c7.344,5.813,15.605,11.628,24.174,15.3
			C317.809,402.977,319.033,401.447,318.115,400.223z"/>
		<path d="M326.07,395.021c-0.918-1.53-1.836-2.754-3.061-4.284c-0.611-0.918-2.141-0.612-2.447,0.307
			c-7.65-5.202-14.994-10.71-22.031-16.524c-0.918-0.612-1.836,0-1.836,0.918c-0.307,0.306-0.613,0.306-0.613,0.612
			c-6.732-6.12-13.158-12.24-19.277-18.973c-0.918-1.224-2.754,0.612-1.836,1.836c6.119,7.65,12.852,14.994,20.502,21.421
			c0.918,0.611,2.143,0.611,2.754-0.307c0.307-0.918,0.611-1.53,0.611-2.448c7.957,7.038,16.219,13.465,24.787,19.891
			C325.152,398.387,326.988,396.245,326.07,395.021z"/>
		<path d="M300.367,366.869c-8.264-7.344-16.525-14.382-24.48-22.338c-1.225-1.224-3.061,0.612-1.836,1.836
			c7.65,7.956,15.912,15.912,24.785,22.338C300.061,369.623,301.59,367.787,300.367,366.869z"/>
		<path d="M299.449,351.569c-3.061-3.672-7.346-6.426-11.018-9.485c-3.672-3.366-7.037-6.732-10.098-10.711
			c-1.529-1.529-3.672,0.612-2.447,2.448c3.365,3.979,6.732,7.956,10.404,11.322c3.365,3.06,7.037,7.038,11.016,8.874
			C299.449,354.629,300.672,353.099,299.449,351.569z"/>
		<path d="M299.754,338.411c-0.611-0.918-1.529-0.918-2.141-0.306c-6.121-5.508-11.629-11.016-16.83-17.442
			c-1.225-1.529-3.672,0.612-2.754,2.143c5.508,7.649,11.934,14.688,19.277,20.502c1.225,0.918,3.061,0.306,3.061-1.224
			C300.672,340.247,300.672,339.941,299.754,338.411z"/>
		<path d="M301.896,330.149c-7.039-7.038-14.383-13.464-21.42-20.196c-0.918-0.918-2.754,0.612-1.529,1.53
			c7.037,7.038,13.77,14.076,20.807,20.808C301.285,333.821,303.426,331.679,301.896,330.149z"/>
		<path d="M304.344,319.439c-5.812-8.262-13.463-15.3-19.277-23.256c-1.225-1.836-4.283,0-3.061,1.836
			c5.814,8.262,12.24,17.442,20.502,23.562C303.426,322.193,305.262,320.663,304.344,319.439z"/>
		<path d="M301.896,304.139c-5.814-4.284-10.711-8.874-14.688-14.688c-1.225-1.836-3.979-0.306-2.754,1.836
			c3.977,6.427,9.18,12.546,16.217,15.606C302.203,307.505,303.426,305.363,301.896,304.139z"/>
		<path d="M302.203,297.101c-6.121-7.344-12.24-14.688-17.748-22.338c-0.918-1.225-3.061-0.307-2.143,1.224
			c4.59,8.568,10.709,16.83,17.748,23.256C301.59,300.467,303.732,298.631,302.203,297.101z"/>
		<path d="M303.121,286.085c-5.508-6.12-11.629-11.322-15.912-18.666c-1.225-2.143-4.59-0.307-3.367,2.142
			c3.979,7.344,9.486,15.606,16.83,19.584C302.814,290.369,304.65,287.921,303.121,286.085z"/>
		<path d="M311.383,253.955c-0.307-0.612-0.918-0.918-1.531-0.612c-0.305-0.306-0.611-0.918-1.223-1.224
			c-0.918-1.224-2.143-2.448-3.061-3.366c-1.836-2.142-3.672-3.978-5.508-6.12c-3.672-3.978-7.344-8.262-11.016-12.24
			c-1.531-1.53-3.672,0.612-2.449,2.448c3.979,4.59,7.65,8.874,11.629,13.158c3.061,3.366,6.732,8.874,11.016,10.71
			c0.611,0.306,1.225,0.306,1.836-0.306l0.307-0.306c0.305-0.306,0.611-0.918,0.305-1.224
			C311.383,254.261,311.383,253.955,311.383,253.955z"/>
		<path d="M315.666,243.551c-4.59-1.53-8.568-7.344-11.627-10.71c-3.367-3.672-6.732-7.65-9.793-11.934
			c-1.225-1.53-3.672,0-2.447,1.53c3.672,5.202,7.65,10.404,12.24,15.3c2.754,3.06,7.037,9.18,11.627,8.262
			C316.891,245.693,316.891,243.857,315.666,243.551z"/>
		<path d="M323.316,224.579c-2.143-3.672-5.814-6.732-8.873-9.792c-3.367-3.366-7.039-6.732-10.404-9.792
			c-1.225-0.918-2.754,0.612-1.836,1.836c3.365,3.366,6.73,6.732,10.098,10.404c3.061,3.06,5.814,6.732,9.18,9.18
			C322.705,227.027,323.928,225.803,323.316,224.579z"/>
		<path d="M330.967,205.913c-2.754-3.366-6.426-6.12-9.793-9.18c-3.365-3.366-6.73-7.038-9.486-11.016
			c-1.223-1.836-4.59,0-3.059,1.836c5.201,7.344,11.934,16.83,20.502,20.808C330.967,209.279,332.189,207.443,330.967,205.913z"/>
		<path d="M334.639,193.673c-5.508-7.038-11.934-12.546-17.137-19.89c-1.529-2.448-5.508,0-3.979,2.142
			c5.203,7.344,11.322,15.606,19.279,20.196C334.332,197.039,335.557,194.897,334.639,193.673z"/>
		<path d="M351.469,147.773c-3.672,0-7.65-3.978-10.098-6.426c-2.754-2.448-5.203-5.202-7.344-7.956
			c-1.531-2.142-4.896,0-3.367,2.142c3.061,4.284,6.732,8.262,10.711,11.628c2.754,2.448,6.426,5.814,10.402,3.978
			C353.611,150.221,353.305,147.773,351.469,147.773z"/>
		<path d="M357.283,141.653c-1.836-3.672-5.51-6.12-8.264-8.874c-3.365-3.06-6.73-6.12-9.791-9.18
			c-1.529-1.224-3.672,0.918-2.143,2.142c3.061,3.061,6.426,6.426,9.486,9.486c2.754,2.754,5.508,6.12,9.18,7.956
			C356.67,143.795,357.895,142.877,357.283,141.653z"/>
		<path d="M324.846,380.333c0-1.53-1.836-1.53-2.447-0.612c-7.955-6.426-15.912-12.546-23.867-19.278
			c-0.918-0.612-2.143,0.612-1.225,1.225c8.262,7.344,16.523,14.688,25.092,21.42c0.918,0.611,2.447,0.306,2.447-0.918
			C324.846,381.557,324.846,380.945,324.846,380.333z"/>
		<path d="M326.682,366.563c-0.611-0.612-1.223-0.612-1.836,0c-7.648-4.896-14.688-10.404-20.502-17.442
			c-1.223-1.529-3.059,0.612-2.141,2.143c6.119,7.956,13.77,14.994,22.643,19.584c0.918,0.306,2.143,0,2.449-0.918
			C327.906,368.093,327.6,367.787,326.682,366.563z"/>
		<path d="M326.377,353.099c0,0-19.279-15.912-21.42-17.748c-1.225-1.224-3.061,0.612-1.836,1.836
			c7.037,7.038,14.381,13.77,22.643,19.584c0.918,0.612,1.836,0,2.143-0.612c0.611-0.918,0.611-1.224,0.611-2.447
			C328.824,352.487,326.988,351.875,326.377,353.099z"/>
		<path d="M332.496,344.837c-1.225-1.53-2.754-3.366-3.979-4.896c-0.611-0.612-1.223-0.612-1.836,0
			c-7.037-6.12-14.076-12.546-20.502-19.584c-0.918-0.918-2.141,0.306-1.529,1.53c7.65,9.485,15.912,18.054,25.092,25.704
			C331.885,348.509,334.027,346.673,332.496,344.837z"/>
		<path d="M334.639,336.575L334.639,336.575c-0.307-0.611-0.918-0.918-1.225-0.918c-1.225-0.611-3.061-2.754-3.979-3.978
			c-1.836-1.836-3.977-3.366-5.812-5.202c-3.979-3.366-7.65-6.732-11.629-10.098c-1.225-0.918-3.061,0.611-1.836,1.836
			c4.59,4.59,9.486,9.18,14.076,13.464c1.836,1.836,6.426,7.956,9.486,7.038C334.945,338.717,335.25,337.799,334.639,336.575z"/>
		<path d="M335.863,328.925c-0.307-0.612-0.918-0.918-1.836-0.612h-0.307l0,0c-0.307-0.612-0.918-1.53-1.531-1.836
			c-0.918-0.612-1.836-1.53-2.447-2.142c-1.836-1.53-3.365-3.061-5.201-4.591c-3.367-3.06-6.732-6.119-10.098-9.18
			c-1.531-1.224-3.674,0.918-2.143,2.142c4.283,4.284,8.568,8.263,12.852,12.24c2.143,2.143,6.119,7.345,9.486,7.038
			c0.918,0,1.529-0.612,1.529-1.224C336.475,330.149,336.168,329.843,335.863,328.925z"/>
		<path d="M335.25,317.603c-0.305-0.612-0.611-0.918-0.611-1.53c-0.307-0.611-1.225-0.918-1.836-0.611
			c-8.262-7.038-17.441-13.158-25.705-20.196c-1.529-1.225-3.672,0.918-2.141,2.142c8.873,7.65,18.053,16.524,28.152,22.645
			C334.332,321.275,335.863,319.133,335.25,317.603z"/>
		<path d="M333.721,303.527c0.918-0.918-0.611-1.224-1.531-1.836c-1.223-0.918-2.447-1.836-3.672-2.754
			c-2.141-1.836-4.283-3.366-6.426-5.508c-3.977-3.672-7.648-7.344-11.016-11.322c-1.529-1.836-3.672,0.612-2.447,2.448
			c4.283,5.508,8.873,10.404,14.076,14.994c2.754,2.447,7.955,8.262,11.934,7.038c0.918-0.307,1.225-0.918,1.225-1.836v-0.307
			C336.475,303.221,334.639,302.609,333.721,303.527z"/>
		<path d="M334.945,287.309c-0.613-0.918-1.836-0.918-2.449,0c-6.732-6.12-13.463-12.24-19.277-19.278
			c-1.531-1.529-3.672,0.612-2.143,2.143c6.426,8.262,13.77,16.83,22.645,22.644c1.225,0.918,2.754-0.306,2.754-1.53
			C336.168,289.757,335.863,288.533,334.945,287.309z"/>
		<path d="M368.91,298.019c-3.979-3.672-9.18-6.12-13.463-9.792c-4.285-3.672-7.957-7.344-11.629-11.628
			c-0.307-0.612-0.918-0.612-1.529-0.306c-0.307-0.612-1.225-0.919-1.836-0.612c-1.531,0.918-9.486-7.344-10.711-8.568
			c-3.365-3.366-6.732-6.732-10.098-10.098c-1.225-1.53-3.365,0.612-2.143,2.142c4.896,5.814,9.793,11.017,15.605,15.912
			c2.143,1.836,5.814,5.508,8.568,3.672c0,0,0,0,0,0.307c3.672,4.896,7.957,9.18,12.547,13.157
			c3.979,3.366,8.262,7.038,13.158,8.568C368.91,300.773,370.135,298.937,368.91,298.019z"/>
		<path d="M341.982,258.545c-0.918-0.918-2.143-0.306-2.447,0.612c-6.121-5.202-11.936-11.016-16.83-17.442
			c-0.918-1.53-3.367,0-2.449,1.53c5.814,8.262,12.547,15.912,20.502,22.338c1.531,1.224,3.367,0.306,3.367-1.53
			C344.125,261.911,343.512,260.075,341.982,258.545z"/>
		<path d="M345.654,247.529c-0.918-1.224-2.447-0.918-3.061,0.306c-5.508-3.978-10.404-7.956-14.688-13.158
			c-1.529-1.836-4.283,0.918-2.754,2.754c5.201,6.12,11.016,11.934,18.055,15.912c1.223,0.612,3.059,0,3.059-1.224
			C346.879,250.589,346.572,249.365,345.654,247.529z"/>
		<path d="M352.387,231.311c-0.307-1.53-2.143-1.224-2.754-0.306c-7.344-4.59-13.465-10.71-18.666-18.054h0.305
			c0.613,0,0.92-0.918,0.307-1.224c-1.225-0.306-1.225-0.306-2.143,0c-0.611,0-0.918,0.918-0.611,1.224
			c4.896,9.486,12.547,17.136,21.42,22.644c1.531,0.918,3.061-0.612,2.754-2.142C352.693,232.841,352.693,232.229,352.387,231.311z"
			/>
		<path d="M365.85,218.459c-7.037-8.568-15.912-16.218-24.479-23.562c-1.836-1.53-4.285,0.918-2.449,2.448
			c4.896,4.59,9.793,9.18,14.383,14.076c-5.814-4.284-11.629-8.874-16.219-14.382c-1.529-1.53-3.672,0.612-2.447,2.448
			c6.119,7.344,13.158,13.464,21.113,18.972c1.225,0.918,2.754-0.306,3.061-1.53c1.529,1.53,3.061,3.06,4.59,4.284
			C364.932,222.743,367.381,220.295,365.85,218.459z"/>
		<path d="M356.365,226.721c-6.732-7.038-14.383-13.464-21.727-19.89c-1.225-1.224-3.367,0.612-1.836,1.836
			c7.037,6.732,14.076,13.77,21.727,20.196C355.752,230.087,357.895,228.251,356.365,226.721z"/>
		<path d="M373.195,259.769c-1.838,0-4.592-3.06-5.814-3.978c-1.836-1.53-3.979-3.06-5.814-4.896
			c-3.365-2.754-7.955-6.12-10.098-10.098c0.307-0.612,0.307-1.53-0.611-1.836c-8.568-5.508-17.137-11.016-24.48-17.748
			c-1.225-1.224-3.367,0.612-2.143,2.142c7.344,7.038,15.605,13.77,25.092,18.36h0.307c0.918,3.978,4.896,7.038,7.65,9.792
			c3.977,3.978,8.873,9.18,14.076,11.628c0.611,0.306,1.223,0.306,1.836,0c0.305-0.307,0.611-0.307,0.611-0.612
			C375.031,261.605,374.725,259.769,373.195,259.769z"/>
		<path d="M393.084,214.787c-0.305-1.224-2.141-1.224-2.754-0.306c-9.791-4.284-16.523-13.77-26.928-17.136
			c-0.611-0.306-0.918,0.306-0.918,0.918c-6.732-5.508-13.465-11.016-20.195-16.524c-0.613-0.612-1.836,0.306-1.225,0.918l0,0l0,0
			l0,0c0.307,0.306,0.611,0.612,0.918,0.612c6.119,6.426,13.158,11.934,20.502,17.136c0.611,0.306,1.225,0,1.225-0.612
			c1.223,1.224,2.754,2.142,4.59,3.06c7.344,5.814,14.076,13.464,22.949,15.3c1.225,0.306,2.449-0.612,2.143-2.142
			C393.084,215.705,393.084,215.093,393.084,214.787z"/>
		<path d="M372.277,179.291c-2.756-4.284-7.039-7.344-10.404-10.71c-3.672-3.978-7.344-7.956-10.711-12.24
			c-0.918-1.224-3.061,0.306-2.143,1.53c3.061,4.284,6.428,8.262,10.1,12.24c3.365,3.672,7.037,8.262,11.627,10.71
			C371.664,181.127,372.889,180.209,372.277,179.291z"/>
		<path d="M402.57,187.247c-0.611-0.918-1.836-0.306-2.143,0.306c-2.141-1.224-3.672-3.672-5.201-5.202
			c-1.836-1.836-3.979-3.978-5.814-5.814s-3.365-3.366-5.201-5.202c-0.307-0.306-1.531-1.224-2.754-2.448
			c0.611-1.53,1.223-3.06,1.836-4.59c0.611-1.224-1.531-1.836-2.143-0.612c-0.307,1.224-0.918,2.448-1.225,3.672
			c-0.305-0.306-0.611-0.918-0.918-1.224l0,0v-0.306c0-0.612-0.611-0.918-1.223-1.224h-0.307c-0.611,0-0.918,0.612-1.225,1.224
			c0,0.306,0,0.612,0.307,1.224l0,0c-8.262-7.344-15.912-14.382-22.949-23.256c-0.918-0.918-2.449,0.306-1.836,1.53
			c6.73,9.18,14.688,18.36,24.174,25.398c0.611,0.612,1.836,0,2.141-0.612c0.307-0.306,0.307-0.306,0.307-0.612
			c0.307,0.306,0.611,0.612,0.918,1.224c2.754,3.06,5.508,5.814,8.262,8.874s5.508,5.814,8.262,8.874
			c2.143,2.142,3.367,3.672,6.121,3.672c1.223,0,2.141-1.224,1.836-2.448C403.488,188.777,403.182,188.471,402.57,187.247z"/>
		<path d="M381.457,153.281c-0.613-0.918-1.836-0.612-2.143,0c-6.119-5.814-12.24-11.934-17.441-18.972
			c-1.225-1.53-3.979,0-2.754,1.53c6.119,8.262,12.852,16.524,21.113,22.644c0.918,0.612,2.447-0.306,2.447-1.224
			C382.375,155.729,382.068,154.505,381.457,153.281z"/>
		<path d="M365.85,379.721c-0.611-0.918-1.529-1.836-2.141-3.061c-0.613-0.611-1.225-0.611-1.836-0.306
			c-8.568-6.426-17.748-11.934-27.541-16.524c-1.225-0.611-2.143,0.918-0.918,1.53c10.711,5.508,20.502,12.24,29.988,19.891
			C364.627,382.475,367.074,381.251,365.85,379.721z"/>
		<path d="M364.932,369.929c-9.484-6.732-19.584-12.546-29.375-18.666c-1.225-0.918-2.447,1.224-1.225,2.142
			c9.793,6.426,19.279,13.158,29.07,18.972C364.932,372.989,366.156,370.847,364.932,369.929z"/>
		<path d="M361.26,358.913c-1.223,0.307-6.426-3.978-7.648-4.59c-1.838-1.224-3.674-2.142-5.51-3.366
			c-4.283-2.754-8.566-5.201-13.156-7.955c-1.838-0.918-3.367,1.529-1.531,2.754c4.896,3.06,9.793,6.119,14.688,9.18
			c3.672,2.142,8.264,6.426,12.547,7.038c0.611,0,1.529,0,1.836-0.612c0-0.306,0.307-0.306,0.307-0.611
			C363.096,359.831,362.484,358.607,361.26,358.913z"/>
		<path d="M362.484,349.121c-1.225,0.612-10.711-6.426-11.934-7.649c-4.285-3.061-8.262-6.12-12.24-9.792
			c-1.529-1.225-3.672,0.918-2.143,2.142c4.285,3.979,8.875,7.65,13.77,11.017c3.674,2.754,8.568,6.731,13.158,7.344
			c0.613,0,0.918-0.307,1.225-0.918c0-0.307,0.307-0.307,0.307-0.612C365.238,349.733,363.402,348.509,362.484,349.121z"/>
		<path d="M367.074,340.247c-8.873-6.426-17.748-11.934-25.398-19.584c-1.529-1.529-3.672,0.918-2.141,2.143
			c7.344,7.649,16.217,15.605,26.314,19.89C367.381,343.613,368.604,341.471,367.074,340.247z"/>
		<path d="M365.545,324.947c-3.672-2.142-7.65-3.672-11.322-5.813c-3.979-2.448-7.344-5.509-10.098-8.874
			c-1.531-1.836-4.285,0.918-2.754,2.754c5.508,6.731,14.381,14.382,23.561,14.688C366.156,327.395,366.463,325.559,365.545,324.947
			z"/>
		<path d="M368.299,315.155c-0.613-0.918-1.225-1.836-1.836-2.754c-0.613-0.918-1.531-0.612-2.143,0
			c-8.262-6.12-16.219-12.24-23.256-19.584c-1.529-1.53-3.672,0.612-2.143,2.142c7.65,8.568,16.525,17.137,26.623,22.95
			C367.381,318.521,369.217,316.685,368.299,315.155z"/>
		<path d="M367.381,305.057c-2.754-3.672-7.65-5.814-11.322-8.568c-4.285-2.754-8.568-5.813-12.852-8.567
			c-1.531-0.918-3.061,1.224-1.836,2.447c3.977,3.061,7.955,6.12,12.24,8.874c3.977,2.754,7.955,6.732,12.545,8.263
			C367.381,308.117,367.992,305.975,367.381,305.057z"/>
		<path d="M370.439,283.331c-0.611-0.918-1.836-0.611-2.141,0c-7.957-5.813-15.912-11.321-23.562-17.441
			c-1.225-0.918-3.061,0.612-1.836,1.836c7.955,7.344,16.523,14.688,25.703,20.502c1.225,0.612,2.449-0.306,2.754-1.53
			C371.357,284.861,371.357,284.861,370.439,283.331z"/>
		<path d="M372.582,272.009c-0.611-1.225-1.223-2.448-2.447-3.366c-0.918-0.918-1.836-0.306-2.143,0.612
			c-7.344-4.284-14.381-8.263-21.113-14.076c-1.836-1.53-4.285,0.918-2.449,2.448c7.344,7.038,16.219,13.77,25.705,17.442
			C372.277,275.681,373.5,273.539,372.582,272.009z"/>
		<path d="M378.703,246.611c-0.307-0.918-0.918-1.53-1.225-2.448c-0.611-0.918-1.529-0.918-2.143-0.612
			c-1.836-1.53-3.672-2.754-5.508-4.284c-2.447-1.836-8.262-5.202-8.568-8.568c0-2.754-4.283-2.754-4.283,0
			c0,4.284,3.365,6.732,6.426,9.486c3.979,3.366,7.957,6.732,12.24,9.486C377.785,250.589,379.926,248.447,378.703,246.611z"/>
		<path d="M383.293,235.901c-0.307-0.918-1.531-0.918-2.143-0.306c-5.814-5.202-12.852-10.098-19.277-14.688
			c-1.531-1.224-3.672,1.53-2.143,2.754c6.732,5.814,13.77,12.24,21.113,16.83c1.225,0.918,3.061-0.306,3.061-1.836
			C383.904,237.737,383.904,237.431,383.293,235.901z"/>
		<path d="M388.801,227.639c-6.426-5.814-13.465-10.404-18.973-17.136c-1.529-1.53-3.672,0.612-2.447,2.448
			c5.201,6.426,11.627,13.77,19.277,17.748C388.494,231.617,390.637,229.169,388.801,227.639z"/>
		<path d="M394.92,208.361c-2.754-3.672-6.426-6.12-9.791-8.874c-3.672-3.06-7.344-6.426-11.016-9.792
			c-1.531-1.53-3.979,0.918-2.449,2.448c3.367,3.366,7.039,6.732,10.404,10.098c3.061,3.06,6.426,6.426,10.404,8.568
			C394.002,211.421,396.145,209.891,394.92,208.361z"/>
		<path d="M398.898,197.039c-5.201-2.142-9.793-7.65-13.77-11.322c-3.979-3.672-7.957-7.65-12.24-10.71
			c-0.611-0.612-1.836,0.612-1.225,1.224c4.285,5.508,9.486,10.098,14.383,14.994c3.977,3.978,7.65,8.874,13.158,10.404
			c0.918,0.306,1.836-0.306,2.447-1.224c0.307-0.612,0.307-0.918,0.611-1.53C402.877,196.427,400.123,195.509,398.898,197.039z"/>
		<path d="M412.057,172.559c-2.143,1.224-12.24-9.18-14.076-10.71c-1.836-1.53-3.672-3.366-5.201-5.202
			c-1.225-1.224-3.979-3.06-4.896-4.896c0-0.306,0-0.306,0-0.612v-0.306c0-0.306-0.613-0.918-0.918-0.612c-0.307,0-0.307,0-0.613,0
			c-0.611,0-0.918,0.306-1.223,1.224c-0.307,2.448,2.754,4.59,4.283,6.12c3.367,3.978,7.344,7.65,11.016,11.016
			c2.449,2.448,10.1,11.628,13.771,6.426C415.117,173.477,413.281,171.947,412.057,172.559z"/>
		<path d="M417.871,160.625c0-1.53-2.449-2.142-2.754-0.306c-3.979-3.672-7.957-7.344-11.936-10.71
			c-3.365-3.06-6.426-7.038-11.32-7.344c-1.225,0-1.531,2.142-0.307,2.448c4.896,0.612,9.486,7.038,12.852,10.404l10.711,10.098
			c0.918,0.918,3.059,0.306,3.059-1.224C418.176,162.461,418.176,161.543,417.871,160.625z"/>
		<path d="M424.297,152.363c-0.307-1.53-2.449-2.142-3.061-0.612c-7.65-6.12-14.688-12.24-21.727-19.584
			c-1.529-1.53-3.672,0.612-2.447,2.448c6.732,8.262,14.688,15.912,23.562,21.726c0.918,0.612,2.447,0.306,2.754-0.612
			C424.297,154.199,424.297,153.893,424.297,152.363z"/>
		<path d="M428.887,142.571c-0.307-0.918-1.531-0.918-2.449-0.306c-7.037-7.038-14.381-13.77-21.725-20.808
			c-1.531-1.53-3.367,0.612-2.143,2.142c7.037,8.568,14.994,16.524,23.562,23.868c1.223,1.224,3.365,0.306,3.365-1.53
			C429.805,144.407,429.805,144.101,428.887,142.571z"/>
		<path d="M434.088,136.145c-0.611-1.53-0.611-1.53-1.836-2.754c-0.611-0.612-0.918-0.612-1.529-0.306
			c-7.344-6.426-14.076-12.852-19.891-20.502c-1.529-1.836-4.59,0-3.061,1.836c6.732,9.18,14.383,17.748,23.562,24.786
			C433.17,140.429,434.701,137.675,434.088,136.145z"/>
		<path d="M411.445,265.889c-8.264-5.202-16.525-9.486-24.48-15.3c-1.225-0.918-2.143,0.918-1.225,1.836
			c7.65,5.814,15.605,11.628,24.174,15.3C411.75,268.643,412.975,266.807,411.445,265.889z"/>
		<path d="M410.527,253.649c-1.225,0.306-3.979-3.06-4.896-3.978c-1.531-1.53-3.061-3.06-4.896-4.59
			c-3.061-3.06-6.119-6.12-9.18-9.18c-1.225-1.224-3.061,0.612-1.836,1.836c3.979,4.896,8.568,9.18,12.852,13.77
			c2.447,2.142,5.508,6.732,8.873,4.59C413.281,255.485,412.057,253.343,410.527,253.649z"/>
		<path d="M419.094,246.305c-0.918-1.224-1.223-1.53-2.447-2.448c-0.611-0.612-1.529,0-1.836,0.612
			c-1.836-0.918-3.672-2.754-5.203-3.978c-2.141-1.53-4.283-3.366-6.426-4.896c-2.754-2.142-5.508-5.814-8.873-6.732
			c-0.611-0.306-1.529,0.306-1.836,0.918v0.306c-0.307,0.612,0.307,1.53,0.918,1.836h0.307c0.305,0,0.305,0,0.305,0
			c2.143,1.224,4.59,3.978,6.121,5.508c2.141,1.836,4.59,3.978,6.73,5.814c3.061,2.448,6.121,6.12,10.404,5.814
			C418.789,249.059,420.012,247.529,419.094,246.305z"/>
		<path d="M421.848,239.879c-7.344-6.732-16.523-12.546-25.092-17.748c-0.918-0.612-2.141,0.612-1.529,1.53
			c0.307,0.306,0.611,0.918,0.918,1.224c0.307,0.306,0.611,0.306,0.918,0.306c7.344,5.814,14.688,11.934,22.645,17.136
			C421.543,243.245,423.072,241.103,421.848,239.879z"/>
		<path d="M423.99,228.557c-0.307-0.918-1.836-1.224-2.447-0.612c-7.039-5.202-13.771-10.098-19.584-16.218
			c-1.531-1.53-3.979,0.918-2.449,2.448c6.426,7.038,14.076,14.076,22.338,18.666c1.531,0.918,3.367-0.612,2.754-2.142
			C424.602,230.087,424.297,229.475,423.99,228.557z"/>
		<path d="M425.826,220.295c-4.283-0.918-8.873-5.814-12.545-8.262c-3.979-3.06-7.65-6.12-11.629-8.874
			c-1.225-0.918-2.754,1.224-1.836,2.142c4.59,4.284,9.486,7.956,14.383,11.934c3.059,2.448,7.344,7.65,11.32,6.12
			C427.051,222.743,427.355,220.601,425.826,220.295z"/>
		<path d="M430.416,208.667c-0.611-0.918-1.529-0.918-2.143-0.612c-7.648-4.896-14.688-9.792-21.113-16.524
			c-1.529-1.836-3.979,0.918-2.447,2.448c6.426,7.344,14.076,14.382,22.949,18.666c1.225,0.612,2.449,0,3.061-1.224
			C431.029,210.197,431.029,209.585,430.416,208.667z"/>
		<path d="M438.373,197.957c-3.367-2.142-7.039-3.672-10.404-6.12c-3.367-2.448-6.426-5.814-8.875-9.486
			c-1.529-2.142-4.895-0.306-3.672,2.142c4.59,7.344,12.854,15.912,21.727,16.524C439.291,201.017,439.596,198.875,438.373,197.957z
			"/>
		<path d="M441.127,186.023c-0.307-0.612-0.613-1.224-1.225-1.224h-0.307c-0.305,0-0.305,0-0.305,0
			c-1.225-0.612-4.285-3.366-4.896-3.672c-1.529-1.224-3.061-2.448-4.59-3.672c-3.367-2.754-6.426-5.202-9.793-8.262
			c-1.836-1.53-4.59,0.918-2.754,2.754c4.285,3.979,8.568,7.956,13.158,11.628c2.143,1.836,6.121,6.426,9.18,5.202
			c0.918-0.306,1.531-1.224,1.225-2.448C441.127,186.329,441.127,186.329,441.127,186.023z"/>
		<path d="M446.635,177.761c-0.307-1.53-1.531-1.53-2.449-0.918c-6.426-4.59-12.852-9.486-18.666-14.994
			c-1.529-1.53-3.672,0.918-2.447,2.448c6.119,6.426,13.158,12.852,20.809,17.442c1.529,0.918,3.059-0.612,2.754-2.142
			C446.635,178.985,446.635,178.373,446.635,177.761z"/>
		<path d="M453.979,165.827c-2.754-2.448-6.121-3.978-9.18-6.12c-0.918-0.612-10.098-6.12-9.793-7.038
			c0.918-2.754-3.672-3.978-4.59-1.224c-1.223,3.978,3.672,6.732,6.426,8.874c4.59,3.366,9.486,7.344,14.994,9.18
			C453.979,170.111,455.814,167.357,453.979,165.827z"/>
		<path d="M460.098,156.953c-7.648-5.508-15.605-11.016-23.256-16.218c-0.918-0.612-2.141,0.918-1.223,1.836
			c6.426,6.732,14.994,12.852,22.949,17.136C460.404,160.931,461.934,158.177,460.098,156.953z"/>
		<path d="M515.791,157.871C492.229,89.327,379.008,42.815,321.174,94.529c-0.918-5.508-2.754-10.404-4.895-15.3
			c-0.307-1.53-0.918-2.754-1.531-3.978C296.695,13.439,211.626-1.555,161.136,29.045c-23.562,13.77-41.31,44.064-44.064,73.746
			c-61.506-6.426-90.882,113.832-34.884,136.17c-17.748,19.89-26.01,58.446-34.884,81.396
			c-15.912,40.698-31.212,81.396-46.818,122.094c-1.224,3.366,0,5.814,2.142,7.345c-0.612,5.813-0.612,11.934-0.612,18.054
			c0,9.792,0.612,19.584,1.836,29.376c0,0.306,0,0.612,0,0.612l0,0c0,0.611,0,1.224,0.306,1.836
			c0.306,2.447,2.142,3.978,3.978,4.283c0.612,2.143,2.448,3.673,4.896,3.673c11.628-0.307,23.868-8.874,32.742-15.606
			s18.054-14.688,22.032-25.398c1.53-0.611,3.06-2.142,3.672-4.283c23.256-68.238,57.528-135.864,75.582-205.326
			c31.824-0.918,52.326-19.584,62.118-44.064c5.814,2.448,12.546,3.672,18.666,2.754c-0.918,6.12-1.836,12.546-2.754,18.666
			c-6.12,53.244-11.322,129.744,34.884,168.606c70.074,58.752,187.578-36.108,149.939-113.526
			C481.213,300.773,539.965,227.639,515.791,157.871z M167.256,39.143c49.878-31.212,104.652-9.792,135.251,33.66
			c3.367,11.934,7.344,22.644,7.344,35.802c-0.305,14.688-4.895,27.846-12.545,40.392c-2.143-0.306-3.672-1.224-5.203-2.754
			c7.957-12.852,15.301-46.818,1.836-57.528c-14.688-37.332-58.139-66.096-98.531-53.55c-49.572,15.606-56.61,75.582-33.048,115.056
			l0,0c-4.59,3.978-13.158,5.814-19.89,5.814C128.7,113.195,120.745,67.601,167.256,39.143z M203.67,191.531
			c-6.732,32.436-31.824,49.572-62.73,56.61c-3.672,0.918-3.978,5.202-2.142,7.344C99.937,314.237,78.21,391.961,58.015,458.669
			c-0.306,1.224-0.306,2.447,0,3.672c-6.426,5.813-11.934,12.852-18.666,18.359c-6.732,5.509-14.688,8.568-22.032,12.547
			c-0.612-14.994,0-31.213-3.366-45.288c0-0.307-0.306-0.307-0.306-0.612c0.306-0.307,0.612-0.612,0.612-0.918
			c26.928-66.402,48.96-139.23,80.478-203.49c0.612-1.224,0.612-2.142,0.612-3.366c1.836-2.448,2.142-6.12-1.224-8.262
			c-25.092-15.912-30.906-40.698-23.256-68.85c7.038-25.398,22.644-41.922,46.206-50.49c0.306,11.934,3.06,23.562,9.18,33.354
			c-5.202,9.486,2.142,22.644,11.934,26.01c2.448,0.918,5.202,0.918,7.65,0.612c4.59,1.224,9.792,0.918,14.076-0.918
			c8.262-3.366,14.994-11.934,17.136-21.114c3.978-10.71,0.918-26.316-12.24-27.234c-0.306,0-0.612,0-0.612,0
			c-0.306-3.366-0.612-7.038-0.612-10.404C194.49,124.823,210.402,158.483,203.67,191.531z M230.599,201.629
			c-6.12,0.612-11.934,1.53-18.054,0.612c1.224-5.202,2.142-10.098,2.448-15.605c4.896,1.53,9.792,2.448,14.994,1.836
			c1.224,0,2.448-0.306,3.978-0.612C232.74,192.449,231.517,197.039,230.599,201.629z M229.986,177.149
			c-4.896,1.224-9.792,1.836-14.688,1.53c-0.612-32.742-17.442-66.096-51.408-78.948c2.142-18.666,10.71-35.496,30.6-43.452
			c36.108-13.77,65.79,14.382,88.434,39.168c0.613,4.284,0.613,8.874,0.613,13.464c-0.918,1.224-1.225,2.448-1.225,3.978
			c-21.726,15.3-35.496,37.026-44.064,61.506C235.495,175.007,232.435,176.231,229.986,177.149z M483.66,179.597
			c3.061,3.978,6.426,7.65,10.098,10.71c2.754,2.448,6.121,5.202,9.793,6.426c-0.307,2.448-0.307,4.896-0.613,7.344
			c-2.754-2.142-6.119-3.978-8.873-6.12c-3.979-3.06-7.957-6.732-11.629-10.098c-1.223-1.224-2.754,0.612-1.836,1.836
			c3.367,4.284,7.65,7.956,11.936,11.322c3.059,2.448,6.119,5.508,9.791,7.038c-0.307,1.836-0.918,3.366-1.225,5.202
			c-2.754-2.142-5.508-3.672-8.262-5.508c-4.59-3.06-9.18-5.814-13.77-8.874c-2.143-1.224-3.979,1.836-1.836,3.366
			c4.59,3.06,9.18,6.12,13.77,9.18c3.061,2.142,5.814,4.284,9.18,6.12c-0.305,1.224-0.918,2.448-1.223,3.672
			c-2.754-1.836-5.508-3.06-7.957-4.896c-3.979-2.448-7.955-4.896-11.934-7.65c-2.143-1.53-3.672,1.836-1.836,3.366
			c6.119,4.59,12.852,9.792,20.195,12.852c-0.305,0.918-0.918,1.836-1.223,2.754c-0.307,0-0.613,0.306-0.918,0.612
			c-7.957-4.59-16.219-8.874-24.174-13.158c-2.143-1.224-3.979,1.836-1.836,3.06c7.955,4.59,15.91,9.792,24.174,14.076
			c-0.918,1.53-1.531,2.754-2.754,3.978c0,0,0,0-0.307,0c-7.957-3.672-16.219-7.038-24.174-10.71
			c-1.531-0.612-2.754,1.224-1.225,2.142c7.344,4.284,15.301,8.568,23.256,11.628c-1.223,1.53-2.447,3.366-3.979,4.896
			c-0.305,0-0.611,0.306-0.611,0.918c-0.307,0.306-0.307,0.306-0.611,0.612c-1.225-0.306-5.508-1.836-5.814-2.142
			c-3.061-1.224-5.814-2.448-8.568-3.672c-1.836-0.918-3.365,1.836-1.529,2.754c4.283,1.836,8.873,3.978,13.463,5.508
			c-1.529,1.53-3.365,3.06-5.201,4.59c-3.979-1.224-12.547-4.896-13.465-5.508c-1.529-0.612-2.754,1.53-1.223,2.448
			c0.918,0.612,6.732,3.672,11.934,5.508c-1.225,0.918-2.447,1.836-3.979,2.754c-4.283-0.918-8.262-2.142-11.934-4.896
			c-1.225-0.612-2.143,0.918-1.225,1.836c2.449,2.754,5.814,4.59,9.182,5.507c-5.814,3.366-11.936,6.121-18.361,8.568
			c0-0.306,0-0.611,0-0.918c-0.305-0.611-0.611-1.224-0.918-1.836c-0.611-1.224-1.529-0.918-2.143,0
			c-6.73-3.366-13.77-6.426-20.502-9.792c-1.223-0.612-2.447,1.224-1.223,1.836c7.037,4.284,14.381,8.263,21.725,11.628
			c-1.529,0.307-2.754,0.918-4.283,1.225c-0.307-0.307-0.611-0.612-0.918-1.225c-0.611-0.611-1.225,0-1.225,0.612
			c-3.977-0.306-7.648-2.448-11.016-4.284c-1.836-0.918-3.672-2.142-5.508-3.06c0.307-0.307,0.307-0.918-0.307-0.918
			c-1.529-0.612-3.059-0.919-4.59-1.53c-0.918-0.307-1.223,0.918-0.611,1.224c3.979,2.754,8.262,5.202,12.547,7.65
			c1.836,0.918,3.672,2.142,5.508,2.754c-8.875,1.836-18.055,3.06-27.541,2.754c-6.732-5.202-14.076-9.485-21.727-13.464
			c-1.836-0.918-3.059,1.53-1.529,2.448c5.203,3.672,10.711,7.344,16.219,10.71c-1.836-0.307-3.672,0-5.203,0.918
			c-3.672-2.754-7.037-5.508-10.709-8.568c-1.531-1.529-3.672,0.918-2.143,2.143c3.061,3.06,6.121,6.119,9.486,8.874
			c-1.836,2.142-2.143,5.201,0,8.567c0.307,0.307,0.307,0.612,0.611,0.918c-4.59-3.672-9.18-7.344-13.77-10.403
			c-1.225-0.612-2.143,0.918-1.225,1.836c5.814,6.426,12.854,11.934,19.584,17.441c1.225,3.366,2.449,6.732,3.061,10.404
			c-7.344-5.508-14.688-11.322-21.113-17.748c-1.225-1.224-2.754,0.612-1.836,1.836c7.344,7.65,15.299,14.688,23.561,20.808
			c0.307,1.836,0.307,3.673,0.613,5.202c-0.307-0.306-0.307-0.611-0.613-0.918c-0.611-0.611-1.529-0.306-2.141,0.307
			c-7.65-6.732-14.994-13.465-22.033-21.114c-1.529-1.53-3.672,0.611-2.447,2.448c8.262,9.485,16.83,18.359,26.621,26.315
			c-0.305,2.448-0.611,4.896-0.918,7.344c-0.611-0.306-1.223-0.306-1.836-0.306c-7.648-6.731-15.605-13.158-23.256-19.89
			c-1.529-1.225-3.672,0.918-2.141,2.142c8.262,7.65,16.523,15.3,25.092,22.338c0.305,0.307,0.611,0.307,0.918,0.307
			c-0.307,1.529-0.613,2.754-1.225,4.283c-7.344-6.731-15.605-12.852-23.867-18.359c-1.531-0.918-2.754,1.224-1.225,2.448
			c8.262,6.119,16.219,12.852,24.174,19.584c-0.307,0.918-0.611,1.836-0.918,2.754c-6.119-4.284-11.934-8.568-17.137-14.688
			c-1.223-1.53-3.365,0.612-2.141,2.142c4.895,5.814,10.709,11.935,17.748,15.912c-0.918,1.836-1.836,3.979-2.754,5.814
			c-3.367-2.448-6.732-4.59-9.793-7.956c-1.529-1.53-3.672,0.612-2.143,2.142c2.754,3.061,6.426,6.427,10.1,8.874
			c-0.613,0.918-1.225,1.836-1.838,3.061c-5.201-3.061-10.402-6.12-15.299-9.792c-0.918-0.612-2.143,0.918-1.225,1.836
			c4.59,3.672,9.486,7.649,14.688,10.71c-1.223,1.53-2.141,3.06-3.365,4.59c-0.918-0.306-1.529-0.612-2.143-1.224
			c-2.141-1.225-4.283-2.754-6.119-4.59c-0.918-0.919-2.447,0.611-1.529,1.529c1.223,0.918,4.59,3.979,7.955,6.426
			c-4.59,5.509-9.791,10.404-15.301,14.688l0,0c0-1.224-1.836-1.53-2.141-0.306c-8.262-5.509-17.137-10.404-25.705-14.994
			c-0.918-0.612-1.836,0.918-0.918,1.529c8.568,5.509,16.83,11.322,25.705,16.524c-1.225,0.918-2.449,1.836-3.979,2.754
			c0.307-0.306,0.611-0.612,0.611-0.918c0-0.918-0.305-1.53-0.305-2.142c-0.307-0.918-1.531-0.918-1.836,0c0,0,0,0,0,0.306
			c-7.346-3.366-14.994-6.731-22.033-11.016c-1.223-0.612-2.141,1.224-0.918,1.836c7.65,4.59,15.301,9.18,23.562,12.546
			c0.307,0,0.611,0,0.918-0.307c-1.836,0.919-3.365,2.143-5.201,3.061l0,0c-7.346-3.061-15.301-4.59-22.645-8.262
			c-1.225-0.612-2.449,1.224-1.225,2.142c6.426,3.366,14.076,6.732,21.42,7.65c-2.143,1.224-4.59,2.142-6.732,3.06
			c-10.709,3.979-20.195,5.814-28.764,6.12c-7.037-3.366-13.158-6.426-19.277-11.016c0.307-0.612,0-1.53-0.918-1.837
			c-2.449,0-5.508-3.672-7.344-5.201c-1.531-1.225-3.061-2.448-4.59-3.672c-3.367-2.755-6.426-5.509-9.793-8.263
			c-0.918-0.611-2.143,0.612-1.225,1.225c4.592,4.283,9.182,8.262,13.771,12.546c1.836,1.836,4.59,5.202,7.648,5.813v0.307
			c3.979,3.978,8.875,7.649,14.383,10.098c-5.508-0.306-10.404-1.53-14.994-3.366c0.307-0.306,0.307-0.611,0-0.918
			c-6.732-5.813-14.076-10.71-20.502-16.83c-0.918-0.611-1.836,0.307-1.225,1.225c5.203,4.896,10.711,10.098,16.525,14.382
			c-12.24-6.12-21.42-17.137-28.152-30.294c3.06,3.06,6.119,6.12,9.486,8.874c1.223,0.918,2.141-0.918,1.529-1.836
			c-5.201-5.509-10.404-11.017-15.3-16.83c-1.224-2.754-2.142-5.814-3.06-8.568c4.59,6.426,14.688,20.196,18.053,15.3
			c0.613-0.918-0.305-2.142-1.223-1.836c-1.531,0.612-7.65-7.038-8.875-7.956c-2.754-3.06-5.202-6.426-7.65-9.792
			c-0.612-0.612-1.224-0.612-1.836-0.306c-1.224-4.59-2.448-9.181-3.366-14.076c1.836,3.06,3.978,5.814,6.12,8.568
			c-0.306,0.306-0.306,0.918,0,1.224c4.284,5.202,8.874,10.404,13.464,15.3c1.836,1.836,4.896,6.732,7.957,4.284
			c0.611-0.612,0-1.836-0.92-1.836c-1.529,0-3.672-3.061-4.59-3.979c-1.836-1.836-3.365-3.365-5.201-5.201
			c-2.143-2.448-4.59-4.591-6.732-7.038v-0.307c-3.672-5.813-7.956-11.628-11.934-17.441c-0.612-4.59-1.224-8.874-1.836-13.158
			c3.672,5.508,7.344,11.016,11.628,15.912c0.918,0.918,2.754,0,2.142-1.225c-0.306-1.224-0.918-2.142-1.224-3.365
			c-0.306-0.918-0.918-0.918-1.53-0.612c-3.978-5.508-7.956-10.71-11.934-16.524c-0.306-2.754-0.306-5.508-0.612-8.567
			c3.672,6.731,7.956,13.158,12.852,18.972c0.612,0.612,1.836,0.612,2.142-0.306s0.612-1.225,0.918-2.143s-0.918-1.529-1.836-0.918
			l-0.306,0.307c-4.896-6.427-9.792-12.546-14.382-19.278c0-2.448,0-5.202-0.306-7.65c1.53,2.448,2.754,4.896,4.59,7.038
			c2.142,3.061,4.59,6.732,7.65,8.263c1.224,0.611,2.142-0.612,1.53-1.53c-1.53-3.672-4.896-6.426-7.344-9.792
			c-2.448-3.366-4.59-6.732-6.426-10.404l0,0c0-2.754,0.306-5.508,0.306-8.567c1.53,2.754,3.06,5.201,4.896,7.955
			c2.142,3.366,3.978,7.65,7.956,8.568c1.53,0.306,2.142-1.53,0.918-2.448c-3.978-2.447-6.426-7.649-8.874-11.628
			c-1.53-2.448-3.06-4.896-4.59-7.344c0.306-3.06,0.612-6.12,0.612-8.874c3.672,5.814,7.65,11.628,12.546,16.218
			c1.224,1.225,3.06-0.306,2.142-1.836c-4.59-6.731-9.792-12.853-14.382-19.278c0.306-3.366,0.612-6.732,1.224-9.792
			c2.448,4.896,5.202,9.486,8.262,14.076c1.224,2.141,4.896,7.344,7.038,2.753c0.612-1.224-0.612-3.06-2.142-2.142
			c-0.918,0.611-8.874-13.77-12.546-20.502c0.306-2.754,0.918-5.508,1.53-8.262c3.06,6.12,7.038,11.934,11.628,16.524
			c1.53,1.224,3.978-0.306,2.754-2.142c-4.896-6.732-9.792-12.852-13.464-19.89c0.612-3.672,1.53-7.038,2.142-10.71
			c0.918,1.836,2.142,3.672,2.754,4.59c1.836,3.366,3.672,6.732,5.508,10.098c1.224,1.836,1.836,3.366,3.672,4.284
			c0.612,0.306,1.53,0,1.836-0.612c0.306,0,0.306-0.306,0.612-0.306c0.612-0.612,0.612-1.53,0.306-2.142
			c0-0.306,0-0.306-0.306-0.612c-0.306-0.612-0.612-0.612-1.224-0.612c-0.306-0.306-0.306-0.612-0.918-1.224
			c-0.612-1.224-1.224-2.142-1.836-3.366c-0.918-1.53-1.836-3.366-2.754-4.896c-0.918-1.53-5.202-8.262-6.12-11.322
			c0.612-2.142,1.224-4.284,1.836-6.426c3.06,5.814,6.12,11.322,9.792,16.524c0,0,0,0,0.306,0c0,0.306,0.306,0.612,0.612,0.918
			c8.262,6.426,15.912,13.77,23.867,20.808c1.531,1.224,3.367-0.612,2.143-2.142c-6.732-7.956-14.383-14.382-22.645-20.502
			c0-0.306,0-0.918,0.307-1.224c0.307-1.53-0.611-2.142-1.836-2.448c-3.366-5.814-7.038-11.934-10.404-17.748
			c0.612-1.53,1.224-3.366,1.836-4.896c2.754,4.896,6.12,9.486,10.097,12.852c1.225,1.224,3.672-0.306,2.754-2.142
			c-3.365-5.814-7.343-11.016-10.709-16.524c0.918-2.448,1.836-4.59,2.754-7.038c0.918,1.836,2.142,3.366,3.061,5.202
			c2.141,3.366,3.977,7.344,6.73,10.098c1.225,1.224,3.672,0,3.061-1.836c-1.225-3.978-3.979-7.038-6.119-10.404l-4.896-7.65
			c0.917-2.142,1.836-4.284,3.061-6.426c1.836,3.06,3.672,6.12,5.508,9.486c2.141,3.366,3.672,7.65,7.65,9.18
			c2.141,0.918,3.059-2.142,1.836-3.366c-4.896-5.814-8.875-13.158-12.854-19.89c0.918-2.142,2.143-4.284,3.061-6.12
			c3.672,6.426,7.344,13.158,11.629,18.972c0.918,1.53,3.365,1.836,4.283,0s0.918-3.06-0.611-4.59
			c-0.307-0.306-0.613-0.612-1.225-0.612c-3.672-6.426-7.955-12.546-11.934-18.666c0.611-0.918,0.918-1.836,1.529-2.754
			c2.143,3.06,3.979,5.814,6.121,8.874c2.754,3.672,5.201,7.344,9.484,8.874c5.814,6.12,12.24,11.934,18.666,17.442
			c1.531,1.224,4.285,0,3.672-2.142c-0.611-2.142-1.529-3.672-2.754-5.508c-0.918-1.224-2.447-0.918-2.754,0.306
			c-4.59-3.672-9.484-7.65-14.076-11.628c0.307-0.918,0-1.836-0.918-2.448c-0.305-0.306-0.305-0.306-0.611-0.612
			c1.225,0.306,2.143,0.612,3.367,0.918c2.754,1.224,5.812,1.836,9.18,1.53c2.141,1.53,4.283,3.366,6.426,5.202
			c1.529,1.53,2.754,3.06,4.896,3.366c1.529,0.306,2.754-1.836,2.447-3.06c0-0.306-0.307-0.612-0.611-0.918l0,0
			c0,0-0.307,0-0.307-0.306c0,0,0-0.306-0.307-0.306h-0.305c-2.143-2.142-4.285-3.978-6.732-5.814
			c0.305-0.306,0.918-0.918,1.223-1.224c2.143,1.53,3.979,3.06,6.121,4.284c-0.611,0.612-0.918,1.224-0.307,2.142
			c6.121,8.874,12.852,18.054,21.115,25.398c1.529,1.224,3.672,0,3.059-1.836c0-0.612-0.305-0.918-0.305-1.53
			c-0.307-0.918-0.918-1.224-1.836-1.224c-4.896-5.814-9.793-11.322-14.689-17.136c4.896,4.284,9.486,8.568,14.076,12.852
			c1.225,1.224,3.672-0.306,2.449-2.142c-5.203-7.65-13.158-13.77-21.115-18.666v-0.306c-2.141-1.836-4.283-3.672-6.426-5.508
			c0.918-0.918,1.836-2.142,2.449-3.366c0.305-0.612,0.611-1.224,0.918-1.836c0.918,0.612,1.836,1.53,2.754,2.142
			c0,0.306,0,0.306,0.305,0.612c4.59,4.896,9.18,9.486,13.771,14.076c3.059,3.06,6.426,7.038,11.016,7.65
			c1.223,0,2.141-1.836,0.918-2.448c-8.262-6.732-15.607-14.382-23.256-22.032c-0.918-0.918-2.143-0.612-2.754,0
			c-0.613-0.612-1.531-1.224-2.143-1.836c0.918-2.142,1.836-4.284,2.447-6.732c1.836,2.142,3.979,3.978,5.814,5.814
			c0.611,0.612,2.143,0.612,2.447-0.612c0-0.306,0-0.306,0-0.612c5.203,7.344,11.936,14.994,20.197,18.054l0,0
			c-0.613,0.306-0.918,0.918-0.307,1.53c4.285,5.814,8.568,11.628,13.465,17.136c2.141,2.142,6.426,8.874,9.791,5.508
			c0.918-0.918,0-2.448-1.223-1.836c-2.449,0.918-8.875-8.262-10.404-9.792c-3.367-3.978-6.426-7.956-9.486-11.934
			c-0.307-0.306-0.611-0.306-0.918-0.612c0.611-0.306,0.918-1.53,0.307-2.142c-3.367-3.366-7.65-5.814-11.018-8.874
			c-3.672-3.366-7.344-7.344-10.098-11.628c-0.918-1.53-3.061-0.306-2.447,1.224c-0.307,0.306-0.307,0.306-0.307,0.612
			c-1.529-1.53-3.365-3.06-4.896-4.896c0.613-2.448,1.225-5.202,1.836-7.956c1.225,1.224,2.143,2.448,3.061,3.672
			c1.836,2.142,3.061,3.672,6.121,3.978c1.529,0.306,1.529-2.142,0.305-2.754c-2.754-1.224-5.201-4.284-7.037-6.426
			c-0.613-0.612-1.225-1.224-1.836-1.836c0-0.918,0.305-2.142,0.305-3.06s0.307-1.53,0.307-2.448
			c2.447,3.06,5.201,6.426,8.262,8.874c0.918,0.612,2.143,0.612,2.754-0.306c0-0.306,0.307-0.306,0.307-0.612
			c0.307-0.612,0.307-0.918,0-1.53c0-0.306-0.307-0.306-0.307-0.612c-0.305-0.612-0.918-0.612-1.529-0.612
			c-3.061-3.06-6.121-6.426-8.568-9.792c0.307-1.53,0.307-3.366,0.307-4.896c2.754,3.978,6.732,7.956,10.709,8.874
			c0.613,0.306,1.225,0,1.836-0.612l0.307-0.306c0.307-0.306,0.307-0.918,0-1.53c0,0,0-0.306-0.307-0.306
			c-0.305-0.612-0.918-0.612-1.529-0.306c-0.918-0.612-1.836-1.224-2.447-1.836c-0.918-0.918-1.836-1.53-2.756-2.448
			c-1.836-1.836-3.672-3.672-5.201-5.814c0-0.306,0-0.612,0-1.224c1.225,0.306,2.754,0,3.979-0.612c0,0,0.305,0,0.305-0.306
			c3.674,3.672,7.65,7.344,11.936,10.71c0.611,0.612,1.529,0.306,2.141-0.306c4.285,6.732,9.486,13.77,16.219,17.442
			c1.836,0.918,3.672-1.224,2.143-2.754c-3.061-3.06-6.426-5.814-9.486-9.18c-3.061-3.366-6.121-7.344-8.568-11.322
			c-0.611-0.918-1.529-0.918-2.143-0.612c-0.611-1.224-1.529-2.142-2.447-3.366c-0.918-0.918-2.447,0.306-1.836,1.53
			c0,0.306,0.307,0.612,0.307,0.918c-1.836-1.53-3.367-3.06-4.896-4.59c1.225-0.612,2.754-1.224,3.979-1.836
			c2.754,2.754,6.119,6.12,10.402,6.426c1.531,0.306,2.143-1.836,1.225-2.754c-1.836-2.142-4.59-3.978-6.732-5.814
			c0.918-0.306,1.531-0.612,2.449-0.918c1.529,0.918,2.754,2.142,4.283,3.06c-0.307,0.612-0.611,1.224-0.307,2.142
			c1.531,2.754,15.301,26.316,19.584,18.666c5.51,8.568,11.936,17.136,19.891,23.562c1.225,0.918,2.754,0,2.449-1.53
			c0-0.612-0.307-0.918-0.307-1.53c-0.307-0.918-0.918-0.918-1.531-0.918c-6.73-7.038-13.463-14.076-18.971-22.338
			c-0.613-0.918-1.836-0.612-2.449,0c-0.305,0-0.611-0.306-1.223,0c-3.061-0.918-6.121-5.508-7.957-7.956
			c-1.529-2.142-3.059-3.978-4.283-6.426c0.918-0.306,1.529-1.836,0.918-2.754c-1.836-2.142-3.979-4.284-6.426-5.814
			c2.447-0.918,4.896-1.836,7.344-2.448c2.754,3.366,5.508,6.732,8.568,9.792c1.836,1.836,5.812,5.814,9.18,7.65
			c0,0.306,0,0.918,0.307,1.224c5.812,8.262,12.238,15.912,20.195,22.338c0.918,0.918,2.754,0.612,3.061-0.918
			c0.305-1.836,0.305-3.06-0.613-4.59c-0.611-0.918-2.141-0.612-2.447,0.612c-6.121-5.508-11.629-11.322-16.523-17.748
			c0.611-0.306,1.223-0.612,1.223-1.224c0-0.306,0-0.306,0-0.612c0-0.612,0-1.53-0.918-1.836l-0.305-0.306
			c-0.307-0.306-0.613-0.306-1.225,0c0,0,0,0-0.307-0.306c-0.305-0.306-0.918-0.612-1.223-0.918
			c-1.225-0.918-2.754-1.836-3.979-3.06c-2.143-1.53-3.979-3.366-6.121-5.202c-1.836-1.836-3.977-3.979-5.508-5.814
			c1.836-0.612,3.979-0.918,5.814-1.53c2.143,2.142,4.283,4.284,6.426,6.426c1.836,1.836,4.59,4.59,7.039,6.12
			c4.59,5.508,9.18,11.322,14.076,16.524c1.836,2.142,6.426,8.874,9.791,4.896c0.918-1.224,0-2.754-1.529-2.448
			c-1.836,0.306-4.59-3.978-5.508-5.202c-1.836-1.836-3.367-3.672-5.203-5.508c-2.447-2.754-4.896-5.508-7.344-8.262
			c0.307-0.306,0.611-0.612,0.611-0.918c0,0,0-0.306,0.307-0.306c0.307-1.224-0.611-2.448-1.836-2.448s-4.283-3.06-5.201-3.978
			c-1.531-1.224-3.367-2.754-4.896-4.284c-0.611-0.612-1.225-0.918-1.529-1.53c1.836-0.306,3.365-0.612,5.201-0.918
			c3.979,3.366,7.955,6.426,12.24,9.486c3.061,4.896,14.381,22.032,18.971,15.3c0.918-1.224-0.918-2.448-1.836-1.836
			c-1.223,0.612-6.426-5.508-7.344-6.732c-1.529-1.836-2.754-3.672-4.283-5.814c0.918-0.918,0.918-2.448,0-3.366
			c-2.754-2.754-5.814-5.202-9.18-7.65c3.365,0,6.426,0,9.791,0.306c4.896,7.344,11.016,13.77,18.055,19.278
			c1.836,1.224,3.672-1.224,2.754-2.754c-0.918-1.836-2.143-3.672-3.061-5.508c-0.611-1.224-2.141-0.612-2.754,0.306
			c-3.365-3.366-6.732-6.732-9.486-10.404c2.449,0.306,5.203,0.918,7.65,1.224c3.061,3.06,6.426,6.12,10.098,8.262
			c-1.223,0.306-2.141,1.836-0.918,3.06c5.203,6.12,10.404,12.24,15.607,18.054c2.754,3.06,6.119,9.486,11.016,8.874
			c0.611,0,1.223-0.612,1.223-1.224c0-0.306,0-0.306,0.307-0.612c0.307-1.224-0.918-2.142-1.836-1.836
			c-1.836,0.612-10.098-10.71-11.627-12.546c-3.674-4.284-7.65-8.262-11.322-12.24c0.305,0,0.611,0.306,0.918,0.612
			c1.836,0.918,3.977-1.224,2.141-3.06c-1.529-1.53-3.365-3.061-5.508-4.59c3.061,0.918,6.121,1.836,9.18,3.06
			c0.918,0.306,1.838,0.918,3.061,1.224c-1.223,0.612-2.143,1.836-1.223,3.06c5.812,7.65,12.238,14.994,20.195,20.808
			c0.918,0.918,2.447,0.306,3.061-0.918c7.648,5.508,15.299,11.016,23.256,16.218c-0.307,4.284,4.283,7.038,7.037,9.486
			c4.59,4.284,8.875,8.568,14.076,11.934c1.836,1.224,3.365-1.224,2.143-2.754c-3.061-3.366-6.426-6.426-9.793-9.486
			c-1.836-1.53-3.365-3.06-4.896-4.59c-0.611-0.612-4.283-3.366-4.283-3.978c0-0.918-0.307-1.836-1.225-2.142
			c0-0.306,0-0.612,0-0.918c-0.305-0.612-0.305-0.918-0.611-1.53c-0.307-0.612-1.225-0.918-1.836-0.612
			c-7.955-5.508-15.912-10.71-24.174-15.912c0,0,0,0-0.307,0c-0.918-2.142-2.141-4.59-3.672-6.426
			c-1.223-1.53-3.365-0.306-3.061,1.224c-3.977-3.978-7.955-7.956-11.627-12.24c7.344,3.06,14.688,6.426,21.42,10.71
			c-0.918,0.918-1.225,2.448,0,3.06c9.486,5.508,17.748,12.852,26.928,18.666c0.611,0.306,1.225,0.306,1.529,0
			c7.957,8.262,14.383,18.054,18.361,29.07c1.529,3.978,2.447,7.956,3.365,11.628c-3.672-2.754-7.955-5.202-12.24-7.038
			c-1.223-0.612-2.141,1.53-0.918,2.448c5.203,3.06,9.793,6.732,14.383,10.404c0.307,2.448,0.611,4.59,0.611,7.038
			c-2.141-2.142-4.59-4.284-6.732-6.12c-3.059-2.754-5.812-5.508-8.566-8.568c-0.307-0.306-0.918-0.612-1.531-0.612
			c0-0.612,0.307-0.918,0.307-1.53c0.307-1.836-1.836-2.448-2.754-1.224c-7.039-4.896-14.076-10.404-20.502-16.218l0,0
			c1.225,0.612,2.143-1.224,0.918-1.836c-9.18-5.202-16.83-11.628-24.48-18.666c-0.918-0.612-1.836,0.306-1.225,1.224
			c5.814,7.344,13.465,13.158,21.727,17.442c-1.223,0.306-2.141,1.836-0.918,3.06c7.344,7.038,14.994,13.77,23.869,19.278
			c0.305,0.306,0.918,0,1.223,0c0,0.612,0,0.918,0.307,1.53c2.754,3.06,5.508,6.12,8.262,8.874c2.447,2.448,5.203,5.508,8.568,7.038
			c0.307,0.306,0.918,0.306,1.225,0c0,0.612,0,1.224,0,1.53c-2.449-2.142-5.814-3.672-8.264-5.814
			c-3.365-2.754-6.73-5.814-9.484-9.18C484.578,175.925,482.436,178.067,483.66,179.597z"/>
		<path d="M490.393,163.073c-2.143-3.366-6.121-5.508-9.18-7.956c-3.367-2.754-6.732-5.814-9.793-9.18
			c-0.611-0.612-1.223-0.612-1.836-0.306c0.307-0.612,0.307-1.224-0.305-1.53c-0.307-0.306-0.613-0.612-0.918-1.224
			c-0.307-0.306-0.613-0.306-0.92-0.306c-5.201-3.978-10.402-7.65-15.91-11.322c-1.836-1.224-6.121-6.12-8.568-3.06
			c-0.307,0.306-0.307,0.918,0,1.224l0.305,0.306c0.613,0.918,1.531,0.612,2.143,0c0.918,1.224,19.891,15.3,22.031,16.83
			c0.613,0.306,0.92,0.306,1.531,0c-0.307,0.612-0.307,1.224,0.307,1.53c3.059,3.672,6.426,7.038,10.098,10.098
			c2.754,2.448,6.119,5.814,9.791,6.732C490.086,165.521,491.311,163.991,490.393,163.073z"/>
		<path d="M446.635,259.463c-3.979-2.142-8.262-3.672-12.24-5.814c-4.283-2.448-8.568-5.202-12.24-8.262
			c-1.529-1.224-3.365,0.918-2.143,2.142c7.039,6.12,15.912,12.852,25.398,14.994C447.246,262.829,448.471,260.38,446.635,259.463z"
			/>
		<path d="M453.061,249.365c-4.59-1.224-8.568-4.284-12.547-6.732c-3.977-2.448-7.648-4.896-11.627-7.344
			c-2.143-1.53-3.979,1.836-1.836,3.366c4.896,3.366,10.098,6.732,15.299,10.098c3.367,2.142,7.039,5.202,11.018,3.366
			C454.59,251.507,454.285,249.671,453.061,249.365z"/>
		<path d="M456.121,236.819c-8.875-6.12-17.748-11.016-26.316-17.748c-0.918-0.612-2.143,0.918-1.225,1.53
			c7.344,7.344,16.83,14.688,26.623,18.36C456.732,239.879,457.344,237.431,456.121,236.819z"/>
		<path d="M460.404,227.639c-3.061-2.754-7.344-4.59-10.709-7.038c-4.285-2.754-8.568-5.814-12.547-9.18
			c-1.225-0.918-3.061,0.612-1.836,1.836c3.672,3.366,7.344,6.426,11.322,9.18s7.955,6.12,12.545,7.344
			C460.404,230.087,461.322,228.557,460.404,227.639z"/>
		<path d="M463.465,216.929c-7.344-4.896-14.688-9.18-21.727-14.994c-1.225-1.224-3.061,0.612-1.836,1.836
			c6.426,6.12,13.77,12.24,22.031,15.912C463.77,220.601,465.301,218.153,463.465,216.929z"/>
		<path d="M468.055,207.137c-3.061-2.754-7.039-4.59-10.404-7.038c-3.979-2.754-7.65-6.12-11.016-9.486
			c-1.225-1.224-3.367,0.612-2.143,2.142c3.367,3.978,6.732,7.344,11.016,10.404c3.367,2.448,7.039,5.508,11.322,6.426
			C468.055,209.891,468.973,208.361,468.055,207.137z"/>
		<path d="M474.787,199.793c-3.367-3.06-7.957-5.202-11.629-7.65c-4.283-2.754-8.262-5.814-12.545-8.874
			c-0.918-0.612-2.143,0.918-1.225,1.836c3.365,3.366,7.344,6.426,11.322,9.486c3.977,2.754,7.955,6.12,12.545,7.65
			C474.787,202.547,475.705,200.711,474.787,199.793z"/>
		<path d="M475.398,186.635c-0.611-0.918-2.143-0.306-2.447,0.306c-5.51-3.978-10.711-7.956-15.607-12.24
			c-1.836-1.53-4.283,0.918-2.447,2.448c6.119,5.814,12.545,11.016,19.277,15.912c1.225,0.918,3.061-0.306,3.061-1.836
			C477.234,189.389,476.928,188.165,475.398,186.635z"/>
		<path d="M481.213,181.739c-2.143-3.06-5.814-5.202-8.875-7.344c-3.977-3.06-7.955-6.12-11.934-9.18
			c-1.225-0.918-3.365,0.612-1.836,1.836c3.672,3.366,7.344,6.426,11.016,9.792c3.061,2.448,6.121,5.814,10.098,7.038
			C480.6,184.187,481.824,182.657,481.213,181.739z"/>
	</g>
</g>
</svg>