<?xml version="1.0" encoding="iso-8859-1"?>
<!-- Uploaded to: SVG Repo, www.svgrepo.com, Generator: SVG Repo Mixer Tools -->
<svg version="1.1" id="Layer_1" xmlns="http://www.w3.org/2000/svg" xmlns:xlink="http://www.w3.org/1999/xlink" 
	 viewBox="0 0 512 512" xml:space="preserve">
<circle style="fill:#89EBFF;" cx="256" cy="256" r="256"/>
<rect x="75.956" y="233.495" style="fill:#FF7066;" width="16.879" height="50.637"/>
<rect x="190.363" y="233.495" style="fill:#FF5347;" width="16.879" height="50.637"/>
<rect x="304.758" y="233.495" style="fill:#FF7066;" width="16.879" height="50.637"/>
<rect x="419.165" y="233.495" style="fill:#FF5347;" width="16.879" height="50.637"/>
<polygon style="fill:#557714;" points="84.398,114.945 34.198,241.934 134.597,241.934 "/>
<path style="fill:#2DB8D4;" d="M40.267,309.451C64.275,406.287,151.892,478.242,256,478.242s191.725-71.955,215.733-168.791
	L256,298.198L40.267,309.451z"/>
<path style="fill:#557714;" d="M471.739,309.451c2.705-10.957,4.612-22.229,5.625-33.758H34.637
	c1.013,11.53,2.92,22.801,5.625,33.758H471.739z"/>
<polygon style="fill:#405A0F;" points="198.799,114.945 148.6,241.934 248.999,241.934 "/>
<polygon style="fill:#557714;" points="313.201,114.945 263.001,241.934 363.4,241.934 "/>
<polygon style="fill:#405A0F;" points="427.602,114.945 377.403,241.934 477.802,241.934 "/>
<circle style="fill:#FFE1A0;" cx="256" cy="67.516" r="33.758"/>
</svg>