<!DOCTYPE svg PUBLIC "-//W3C//DTD SVG 1.1//EN" "http://www.w3.org/Graphics/SVG/1.1/DTD/svg11.dtd">
<!-- Uploaded to: SVG Repo, www.svgrepo.com, Transformed by: SVG Repo Mixer Tools -->
<svg fill="#a0aeb0" version="1.1" id="Capa_1" xmlns="http://www.w3.org/2000/svg" xmlns:xlink="http://www.w3.org/1999/xlink" width="800px" height="800px" viewBox="0 0 357.615 357.615" xml:space="preserve">
<g id="SVGRepo_bgCarrier" stroke-width="0"/>
<g id="SVGRepo_tracerCarrier" stroke-linecap="round" stroke-linejoin="round"/>
<g id="SVGRepo_iconCarrier"> <g> <g> <path d="M178.808,28.856c-26.79,0-48.604,21.809-48.604,48.605c0,26.795,21.804,48.604,48.604,48.604 c26.804,0,48.61-21.809,48.61-48.604C227.418,50.665,205.601,28.856,178.808,28.856z M178.808,111.637 c-18.84,0-34.166-15.331-34.166-34.166c0-18.835,15.331-34.166,34.166-34.166c18.845,0,34.174,15.336,34.174,34.166 C212.981,96.306,197.652,111.637,178.808,111.637z"/> <path d="M178.808,0C133.23,0,97.525,17.594,97.525,40.074c0,274.406,152.675,317.043,154.218,317.453 c0.221,0.062,0.441,0.088,0.672,0.088c0.566,0,1.154-0.188,1.627-0.551c0.656-0.503,1.04-1.27,1.062-2.099l4.986-314.892 C260.09,17.604,224.382,0,178.808,0z M178.808,131.44c-29.765,0-53.98-24.211-53.98-53.979c0-29.77,24.21-53.98,53.98-53.98 c29.774,0,53.985,24.211,53.985,53.98C232.793,107.229,208.572,131.44,178.808,131.44z"/> <path d="M178.808,48.665c-15.879,0-28.79,12.911-28.79,28.79c0,15.88,12.911,28.791,28.79,28.791 c15.884,0,28.798-12.911,28.798-28.791C207.605,61.586,194.682,48.665,178.808,48.665z"/> </g> </g> </g>
</svg>