<?xml version="1.0" encoding="iso-8859-1"?>
<!-- Uploaded to: SVG Repo, www.svgrepo.com, Generator: SVG Repo Mixer Tools -->
<svg height="800px" width="800px" version="1.1" id="Layer_1" xmlns="http://www.w3.org/2000/svg" xmlns:xlink="http://www.w3.org/1999/xlink" 
	 viewBox="0 0 512 512" xml:space="preserve">
<circle style="fill:#FF3C62;" cx="255.996" cy="255.996" r="255.996"/>
<path style="fill:#E7001F;" d="M512,255.999c0-15.758-1.433-31.179-4.158-46.149l-52.714-52.714h-13.153l-18.375-18.19
	c-3.575-4.935-9.368-8.157-15.927-8.157H104.326c-10.866,0-19.674,8.808-19.674,19.674v6.674H56.873l-0.973,8.283
	c-0.331,2.824-7.595,69.756,38.749,121.866c2.565,2.884,5.245,5.656,8.031,8.328l27.258,27.273l13.628,122.239l61.874,61.874
	c16.345,3.275,33.25,5.003,50.56,5.003C397.385,512,512,397.385,512,255.999z"/>
<polygon style="fill:#00DFC1;" points="115.806,196.143 143.567,445.123 368.433,445.123 396.192,196.143 "/>
<polygon style="fill:#00B5A3;" points="396.192,196.143 255.996,196.143 255.996,445.123 368.433,445.123 "/>
<path style="fill:#FFFFFF;" d="M456.1,165.419l-0.973-8.283h-33.426v18.756h16.189c0.262,18.222-2.71,63.122-34.555,98.928
	c-30.741,34.564-80.312,52.09-147.336,52.09c-66.922,0-116.446-17.474-147.198-51.935c-31.837-35.678-34.895-80.769-34.671-99.083
	h16.167v-18.756H56.873l-0.973,8.283c-0.332,2.824-7.596,69.756,38.749,121.866c34.454,38.738,88.74,58.381,161.35,58.381
	s126.897-19.642,161.35-58.381C463.696,235.175,456.432,168.243,456.1,165.419z"/>
<path style="fill:#E1E1E3;" d="M456.1,165.419l-0.973-8.283h-33.426v18.756h16.189c0.262,18.222-2.71,63.123-34.555,98.928
	c-30.74,34.564-80.312,52.09-147.336,52.09c-0.001,0-0.002,0-0.003,0v18.756c0.001,0,0.002,0,0.003,0
	c72.61,0,126.897-19.642,161.35-58.381C463.696,235.175,456.432,168.243,456.1,165.419z"/>
<path style="fill:#394CE2;" d="M407.673,202.238H104.327c-10.866,0-19.674-8.808-19.674-19.674v-32.103
	c0-10.866,8.808-19.674,19.674-19.674h303.346c10.866,0,19.674,8.808,19.674,19.674v32.103
	C427.347,193.43,418.538,202.238,407.673,202.238z"/>
<path style="fill:#1B2DDD;" d="M407.673,130.787H255.996v71.451h151.676c10.866,0,19.674-8.808,19.674-19.674v-32.103
	C427.347,139.596,418.538,130.787,407.673,130.787z"/>
<path style="fill:#394CE2;" d="M293.843,356.034h-75.687c-6.896,0-12.539-5.642-12.539-12.539v-21.168
	c0-6.896,5.642-12.539,12.539-12.539h75.687c6.896,0,12.539,5.642,12.539,12.539v21.168
	C306.382,350.392,300.74,356.034,293.843,356.034z"/>
<path style="fill:#1B2DDD;" d="M293.843,356.034c6.896,0,12.539-5.642,12.539-12.539v-21.168c0-6.896-5.642-12.539-12.539-12.539
	h-37.847v46.245H293.843z"/>
</svg>