<?xml version="1.0" encoding="iso-8859-1"?>
<!-- Uploaded to: SVG Repo, www.svgrepo.com, Generator: SVG Repo Mixer Tools -->
<svg height="800px" width="800px" version="1.1" id="Layer_1" xmlns="http://www.w3.org/2000/svg" xmlns:xlink="http://www.w3.org/1999/xlink" 
	 viewBox="0 0 512 512" xml:space="preserve">
<ellipse transform="matrix(0.7071 -0.7071 0.7071 0.7071 -106.0353 256.0016)" style="fill:#FFA22B;" cx="256.004" cy="255.997" rx="177.224" ry="298.867"/>
<g>
	<path style="fill:#FFCC85;" d="M281.25,281.25c-46.301,46.301-109.077,58.595-109.077,58.595s12.294-62.776,58.595-109.077
		s109.077-58.595,109.077-58.595S327.551,234.949,281.25,281.25z"/>
	<path style="fill:#FFCC85;" d="M179.599,179.599c-31.173,31.173-73.437,39.45-73.437,39.45s8.276-42.264,39.45-73.437
		s73.437-39.45,73.437-39.45S210.772,148.427,179.599,179.599z"/>
	<path style="fill:#FFCC85;" d="M332.758,332.758c31.173-31.173,73.437-39.45,73.437-39.45s-8.277,42.265-39.45,73.437
		s-73.437,39.45-73.437,39.45S301.585,363.932,332.758,332.758z"/>
</g>
<g>
	<path style="fill:#570029;" d="M374.328,512c-18.775,0-38.887-2.669-60.027-8.072c-65.332-16.694-133.103-57.678-190.828-115.402
		C65.748,330.802,24.764,263.032,8.072,197.7C-9.102,130.486,1.333,73.576,37.454,37.454C73.576,1.332,130.485-9.103,197.7,8.072
		c65.332,16.694,133.102,57.677,190.828,115.402c57.724,57.724,98.708,125.495,115.401,190.828
		c17.174,67.214,6.739,124.124-29.382,160.246l0,0l0,0C449.785,499.308,415.246,512,374.328,512z M137.743,20.399
		c-35.482,0-65.045,10.651-85.868,31.476C21.05,82.699,12.51,132.695,27.829,192.652C43.63,254.49,82.718,318.932,137.892,374.108
		c55.175,55.174,119.618,94.263,181.456,110.063c19.454,4.971,37.868,7.429,54.91,7.43c35.481,0.002,65.044-10.651,85.867-31.475
		l0,0c30.825-30.824,39.364-80.821,24.045-140.777c-15.801-61.839-54.889-126.281-110.063-181.456
		C318.932,82.718,254.49,43.63,192.652,27.829C173.198,22.86,154.784,20.399,137.743,20.399z"/>
	<path style="fill:#570029;" d="M172.173,350.041c-2.678,0-5.28-1.055-7.21-2.987c-2.4-2.4-3.448-5.839-2.796-9.17
		c0.526-2.688,13.442-66.378,61.391-114.327c47.948-47.949,111.638-60.865,114.326-61.391c3.334-0.656,6.769,0.397,9.17,2.796
		c2.4,2.4,3.448,5.839,2.796,9.17c-0.526,2.688-13.443,66.378-61.391,114.327c-47.948,47.948-111.639,60.864-114.327,61.391
		C173.481,349.979,172.825,350.041,172.173,350.041z M325.332,186.705c-20.943,6.717-57.912,21.832-87.352,51.273
		c-29.426,29.426-44.54,66.372-51.264,87.325c20.948-6.723,57.897-21.835,87.325-51.263
		C303.571,244.508,318.644,207.619,325.332,186.705z"/>
	<path style="fill:#570029;" d="M106.162,229.246c-2.678,0-5.28-1.055-7.21-2.987c-2.4-2.4-3.448-5.839-2.796-9.17
		c0.362-1.851,9.254-45.696,42.246-78.688c32.993-32.992,76.838-41.884,78.688-42.246c3.331-0.653,6.769,0.396,9.17,2.796
		c2.4,2.4,3.448,5.839,2.796,9.17c-0.362,1.85-9.254,45.696-42.246,78.688c-32.993,32.992-76.838,41.884-78.688,42.246
		C107.469,229.184,106.813,229.246,106.162,229.246z M203.888,121.322c-14.114,5.193-34.441,14.874-51.067,31.5
		c-16.625,16.624-26.306,36.95-31.5,51.067c14.114-5.193,34.441-14.874,51.067-31.5
		C189.014,155.764,198.695,135.439,203.888,121.322z"/>
	<path style="fill:#570029;" d="M293.309,416.393c-2.678,0-5.28-1.055-7.21-2.987c-2.4-2.4-3.448-5.839-2.796-9.17
		c0.362-1.85,9.253-45.696,42.246-78.688s76.838-41.884,78.688-42.246c3.332-0.656,6.769,0.397,9.17,2.796
		c2.4,2.4,3.448,5.839,2.796,9.17c-0.362,1.85-9.253,45.696-42.246,78.688c-32.992,32.992-76.838,41.884-78.688,42.246
		C294.616,416.33,293.959,416.393,293.309,416.393z M391.035,308.469c-14.114,5.193-34.441,14.873-51.067,31.5l0,0
		c-16.625,16.624-26.306,36.95-31.5,51.067c14.114-5.193,34.441-14.874,51.067-31.5C376.16,342.911,385.842,322.585,391.035,308.469
		z"/>
	<path style="fill:#570029;" d="M452.28,326.664c-4.358,0-8.393-2.816-9.743-7.199c-0.768-2.495-1.599-5.04-2.473-7.565
		c-1.838-5.323,0.986-11.128,6.309-12.967c5.322-1.84,11.127,0.984,12.968,6.308c0.947,2.742,1.851,5.509,2.688,8.225
		c1.657,5.382-1.363,11.089-6.745,12.746C454.284,326.518,453.273,326.664,452.28,326.664z"/>
	<path style="fill:#570029;" d="M453.049,423.705c-1.315,0-2.652-0.256-3.94-0.796c-5.193-2.178-7.636-8.154-5.459-13.347
		c6.279-14.971,8.477-32.804,6.533-53.007c-0.539-5.606,3.568-10.587,9.173-11.126c5.602-0.532,10.587,3.568,11.126,9.173
		c2.271,23.593-0.43,44.737-8.027,62.848C460.818,421.354,457.033,423.705,453.049,423.705z"/>
</g>
</svg>