<?xml version="1.0" encoding="iso-8859-1"?>
<!-- Uploaded to: SVG Repo, www.svgrepo.com, Generator: SVG Repo Mixer Tools -->
<svg version="1.1" id="Layer_1" xmlns="http://www.w3.org/2000/svg" xmlns:xlink="http://www.w3.org/1999/xlink" 
	 viewBox="0 0 511.984 511.984" xml:space="preserve">
<path style="fill:#AC92EB;" d="M479.984,16H31.999C14.351,16,0,30.358,0,47.999v234.664c0,17.64,14.351,31.999,31.999,31.999
	h447.985c17.656,0,32-14.359,32-31.999V47.999C511.984,30.358,497.64,16,479.984,16z"/>
<g>
	<rect x="330.642" y="69.342" style="fill:#656D78;" width="63.998" height="63.998"/>
	<rect x="266.652" y="69.342" style="fill:#656D78;" width="63.99" height="63.998"/>
	<rect x="394.642" y="69.342" style="fill:#656D78;" width="63.998" height="63.998"/>
	<rect x="330.642" y="133.342" style="fill:#656D78;" width="63.998" height="63.998"/>
	<rect x="266.652" y="133.342" style="fill:#656D78;" width="63.99" height="63.998"/>
	<rect x="394.642" y="133.342" style="fill:#656D78;" width="63.998" height="63.998"/>
	<rect x="330.642" y="197.342" style="fill:#656D78;" width="63.998" height="63.998"/>
	<rect x="266.652" y="197.342" style="fill:#656D78;" width="63.99" height="63.998"/>
	<rect x="394.642" y="197.342" style="fill:#656D78;" width="63.998" height="63.998"/>
</g>
<path style="fill:#434A54;" d="M405.33,58.67h-21.342h-42.656H319.99h-63.998v63.998v21.327v42.671v21.327v63.998h63.998h21.342
	h42.656h21.342h63.998v-63.998v-21.327v-42.671v-21.327V58.67H405.33z M341.332,79.998h42.656v42.67h-42.656V79.998z
	 M277.336,79.998h42.654v42.67h-42.654V79.998z M277.336,143.995h42.654v42.671h-42.654V143.995z M319.99,250.664h-42.654v-42.671
	h42.654V250.664z M341.332,143.995h42.656v42.671h-42.656V143.995z M383.988,250.664h-42.656v-42.671h42.656V250.664z
	 M447.986,250.664H405.33v-42.671h42.656V250.664z M447.986,186.666H405.33v-42.671h42.656V186.666z M405.33,122.668v-42.67h42.656
	v42.67H405.33z"/>
<path style="fill:#FFCE54;" d="M138.66,58.67c-47.1,0-85.419,38.327-85.419,85.419c0,47.108,38.319,85.42,85.419,85.42
	s85.419-38.312,85.419-85.42C224.079,96.997,185.76,58.67,138.66,58.67z"/>
<path style="fill:#967ADC;" d="M213.4,271.991H63.928c-5.891,0-10.672-4.766-10.672-10.655c0-5.891,4.781-10.672,10.672-10.672
	H213.4c5.891,0,10.664,4.781,10.664,10.672C224.063,267.225,219.29,271.991,213.4,271.991z"/>
<path style="fill:#434A54;" d="M170.659,154.761h-63.998c-5.891,0-10.664-4.781-10.664-10.672c0-5.89,4.773-10.655,10.664-10.655
	h63.998c5.89,0,10.671,4.766,10.671,10.655C181.33,149.979,176.549,154.761,170.659,154.761z"/>
<path style="fill:#F6BB42;" d="M309.334,389.332h-5.625c-12.156-13.625-29.248-21.344-47.717-21.344
	c-18.468,0-35.569,7.719-47.709,21.344h-5.625c-5.891,0-10.664,4.765-10.664,10.655v31.999c0,35.295,28.71,63.998,63.998,63.998
	c35.279,0,63.998-28.703,63.998-63.998v-31.999C319.99,394.096,315.209,389.332,309.334,389.332z M298.646,431.986
	c0,23.53-85.317,23.53-85.317,0v-21.328c3.352,0,6.508-1.578,8.523-4.25c8.156-10.858,20.593-17.076,34.14-17.076
	c13.547,0,25.998,6.218,34.139,17.076c2.016,2.672,5.172,4.25,8.516,4.25L298.646,431.986L298.646,431.986z"/>
<path style="fill:#FFCE54;" d="M255.992,335.989c-35.288,0-63.998,28.718-63.998,63.998c0,35.296,28.71,63.998,63.998,63.998
	c35.279,0,63.998-28.702,63.998-63.998C319.99,364.707,291.271,335.989,255.992,335.989z"/>
<path style="fill:#E8AA3D;" d="M255.992,421.33c-5.89,0-10.664-4.781-10.664-10.672v-21.326c0-5.891,4.773-10.672,10.664-10.672
	c5.891,0,10.664,4.781,10.664,10.672v21.326C266.656,416.549,261.883,421.33,255.992,421.33z"/>
</svg>