<?xml version="1.0" encoding="iso-8859-1"?>
<!-- Uploaded to: SVG Repo, www.svgrepo.com, Generator: SVG Repo Mixer Tools -->
<svg version="1.1" id="Layer_1" xmlns="http://www.w3.org/2000/svg" xmlns:xlink="http://www.w3.org/1999/xlink" 
	 viewBox="0 0 512 512" xml:space="preserve">
<path style="fill:#2185DE;" d="M511.923,262.052C511.97,260.039,512,258.023,512,256C512,114.616,397.384,0,256,0S0,114.616,0,256
	c0,113.382,73.718,209.534,175.833,243.179L511.923,262.052z"/>
<path style="fill:#134C7F;" d="M456.342,206.471L255.994,356.732L55.647,378.992l120.186,120.186
	C201.052,507.489,227.998,512,256,512c139.362,0,252.708-111.36,255.923-249.948L456.342,206.471z"/>
<polygon style="fill:#FFC207;" points="301.635,60.947 301.635,152.216 211.478,152.216 256,60.947 "/>
<rect x="210.365" y="60.947" style="fill:#FFD23E;" width="45.635" height="91.27"/>
<path style="fill:#FFE376;" d="M355.241,114.301H256l-80.696,136.691l242.087-44.522
	C417.391,169.023,393.069,135.69,355.241,114.301z"/>
<rect x="360.849" y="161.057" style="fill:#A0AD2F;" width="23.151" height="23.151"/>
<path style="fill:#FFF3AD;" d="M156.758,114.302c-37.828,21.388-62.149,54.722-62.149,92.169L256,250.992V114.302H156.758z"/>
<rect x="128" y="183.318" style="fill:#BEC130;" width="23.151" height="34.282"/>
<rect x="172.522" y="161.057" style="fill:#DDD532;" width="23.151" height="23.151"/>
<path style="fill:#FFE376;" d="M233.734,228.732l200.348-22.261h22.261c0,61.251-29.106,115.679-74.24,150.261l-148.369,11.13
	L233.734,228.732L233.734,228.732z"/>
<g>
	<path style="fill:#FFF3AD;" d="M255.994,239.862v128l-126.108-11.13c-45.134-34.582-74.24-89.01-74.24-150.261h22.261
		L255.994,239.862z"/>
	<path style="fill:#FFF3AD;" d="M255.994,206.471l-33.391,64l33.391,64h118.303c38.086-31.85,59.784-78.094,59.784-128H255.994z"/>
</g>
<path style="fill:#FFFFFF;" d="M77.907,206.471c0,49.906,21.698,96.15,59.784,128h118.303v-128H77.907z"/>
<polygon style="fill:#FFE376;" points="422.951,378.992 400.69,417.949 255.994,417.949 234.29,367.862 "/>
<g>
	<polygon style="fill:#FFF3AD;" points="111.299,417.949 255.994,417.949 255.994,367.862 89.038,378.992 	"/>
	<polygon style="fill:#FFF3AD;" points="456.342,356.732 456.342,378.992 255.994,378.992 245.003,367.862 255.994,356.732 	"/>
</g>
<g>
	<rect x="55.647" y="356.73" style="fill:#FFFFFF;" width="200.348" height="22.261"/>
	<rect x="355.729" y="236.633" style="fill:#FFFFFF;" width="23.151" height="23.151"/>
	<rect x="311.207" y="281.155" style="fill:#FFFFFF;" width="23.151" height="23.151"/>
</g>
<g>
	<path style="fill:#FDA409;" d="M288.925,130.736v36.777c0,9.22,7.475,16.696,16.696,16.696c9.22,0,16.696-7.475,16.696-16.696
		v-36.777H288.925z"/>
	<path style="fill:#FDA409;" d="M301.631,94.338H256l-22.261,27.826L256,149.99c37.709,0,72.287-13.395,99.241-35.685
		C339.459,105.382,321.329,98.534,301.631,94.338z"/>
</g>
<path style="fill:#FFC207;" d="M256,94.338h-45.637c-19.696,4.197-37.823,11.043-53.604,19.966
	c26.953,22.29,61.532,35.685,99.241,35.685V94.338z"/>
</svg>