<?xml version="1.0" encoding="iso-8859-1"?>
<!-- Generator: Adobe Illustrator 19.0.0, SVG Export Plug-In . SVG Version: 6.00 Build 0)  -->
<svg version="1.1" id="Layer_1" xmlns="http://www.w3.org/2000/svg" xmlns:xlink="http://www.w3.org/1999/xlink" x="0px" y="0px"
	 viewBox="0 0 512 512" style="enable-background:new 0 0 512 512;" xml:space="preserve">
<path style="fill:#55B0CC;" d="M512,486.4c0,14.136-11.464,25.6-25.6,25.6H25.6C11.464,512,0,500.536,0,486.4V40.96
	c0-14.136,11.464-25.6,25.6-25.6h460.8c14.136,0,25.6,11.464,25.6,25.6V486.4z"/>
<path style="fill:#AAEBFF;" d="M512,471.04c0,14.136-11.464,25.6-25.6,25.6H25.6c-14.136,0-25.6-11.464-25.6-25.6V25.6
	C0,11.464,11.464,0,25.6,0h460.8C500.536,0,512,11.464,512,25.6V471.04z"/>
<path style="fill:#61C8E8;" d="M512,471.04V229.243c-0.558-0.568-85.402-85.437-86.231-86.231
	c-20.813-21.386-53.161-35.144-89.523-35.144c-31.324,0-59.684,10.199-80.246,26.696l0,0
	c-20.562-16.497-48.922-26.696-80.246-26.696c-62.787,0-113.684,40.97-113.684,91.515c0,22.385,9.999,42.885,26.578,58.788
	c0.788,0.809,237.875,237.88,238.469,238.469H486.4C500.536,496.64,512,485.176,512,471.04z"/>
<rect x="438.733" y="199.383" style="fill:#FBD800;" width="11.177" height="234.604"/>
<path style="fill:#EFB300;" d="M449.935,253.245v-53.862h-11.177v67.267C442.947,262.467,446.7,257.987,449.935,253.245z"/>
<path style="fill:#F15B00;" d="M336.246,107.868c-31.324,0-59.684,10.199-80.246,26.696c-20.562-16.497-48.922-26.696-80.246-26.696
	c-62.787,0-113.684,40.97-113.684,91.515s50.898,91.515,113.684,91.515c31.324,0,59.684-10.199,80.246-26.696
	c20.562,16.497,48.922,26.696,80.246,26.696c62.787,0,113.685-40.97,113.685-91.515S399.032,107.868,336.246,107.868z
	 M175.754,226.248c-29.481,0-49.039-16.169-49.039-26.865c0-10.696,19.558-26.865,49.039-26.865
	c29.476,0,49.039,16.169,49.039,26.865C224.794,210.079,205.235,226.248,175.754,226.248z M336.246,226.248
	c-29.481,0-49.039-16.169-49.039-26.865c0-10.696,19.558-26.865,49.039-26.865c29.476,0,49.039,16.169,49.039,26.865
	C385.285,210.079,365.727,226.248,336.246,226.248z"/>
<path style="fill:#DD3800;" d="M336.246,107.868c-31.324,0-59.684,10.199-80.246,26.696l0,0v129.638l0,0
	c20.562,16.497,48.922,26.696,80.246,26.696c62.787,0,113.685-40.97,113.685-91.515
	C449.935,148.838,399.032,107.868,336.246,107.868z M336.246,226.248c-29.481,0-49.039-16.169-49.039-26.865
	c0-10.696,19.558-26.865,49.039-26.865c29.476,0,49.039,16.169,49.039,26.865C385.285,210.079,365.727,226.248,336.246,226.248z"/>
<polygon style="fill:#FBD800;" points="256,199.383 220.242,283.617 256,313.938 291.758,283.617 "/>
<polygon style="fill:#EFB300;" points="256,199.383 256,313.938 291.758,283.617 "/>
<g>
</g>
<g>
</g>
<g>
</g>
<g>
</g>
<g>
</g>
<g>
</g>
<g>
</g>
<g>
</g>
<g>
</g>
<g>
</g>
<g>
</g>
<g>
</g>
<g>
</g>
<g>
</g>
<g>
</g>
</svg>
