<?xml version="1.0" encoding="iso-8859-1"?>
<!-- Uploaded to: SVG Repo, www.svgrepo.com, Generator: SVG Repo Mixer Tools -->
<svg height="800px" width="800px" version="1.1" id="Layer_1" xmlns="http://www.w3.org/2000/svg" xmlns:xlink="http://www.w3.org/1999/xlink" 
	 viewBox="0 0 511.705 511.705" xml:space="preserve">
<g>
	<g>
		<path style="fill:#86C250;" d="M129.874,503.027c-4.799,0-8.678-3.879-8.678-8.678v-43.39c0-4.799,3.879-8.678,8.678-8.678
			c4.799,0,8.678,3.879,8.678,8.678v43.39C138.552,499.148,134.673,503.027,129.874,503.027"/>
		<path style="fill:#86C250;" d="M173.264,503.027c-4.799,0-8.678-3.879-8.678-8.678v-43.39c0-4.799,3.879-8.678,8.678-8.678
			c4.799,0,8.678,3.879,8.678,8.678v43.39C181.942,499.148,178.063,503.027,173.264,503.027"/>
		<path style="fill:#86C250;" d="M216.654,503.027c-4.799,0-8.678-3.879-8.678-8.678v-43.39c0-4.799,3.879-8.678,8.678-8.678
			c4.799,0,8.678,3.879,8.678,8.678v43.39C225.332,499.148,221.453,503.027,216.654,503.027"/>
		<path style="fill:#86C250;" d="M260.044,503.027c-4.799,0-8.678-3.879-8.678-8.678v-43.39c0-4.799,3.879-8.678,8.678-8.678
			c4.799,0,8.678,3.879,8.678,8.678v43.39C268.722,499.148,264.843,503.027,260.044,503.027"/>
		<path style="fill:#86C250;" d="M303.434,503.027c-4.799,0-8.678-3.879-8.678-8.678v-43.39c0-4.799,3.879-8.678,8.678-8.678
			c4.799,0,8.678,3.879,8.678,8.678v43.39C312.112,499.148,308.233,503.027,303.434,503.027"/>
		<path style="fill:#86C250;" d="M346.824,503.027c-4.799,0-8.678-3.879-8.678-8.678v-43.39c0-4.799,3.879-8.678,8.678-8.678
			c4.799,0,8.678,3.879,8.678,8.678v43.39C355.502,499.148,351.623,503.027,346.824,503.027"/>
		<path style="fill:#86C250;" d="M390.213,503.027c-4.799,0-8.678-3.879-8.678-8.678v-43.39c0-4.799,3.879-8.678,8.678-8.678
			c4.799,0,8.678,3.879,8.678,8.678v43.39C398.891,499.148,395.012,503.027,390.213,503.027"/>
		<path style="fill:#86C250;" d="M433.603,503.027c-4.799,0-8.678-3.879-8.678-8.678v-43.39c0-4.799,3.879-8.678,8.678-8.678
			c4.799,0,8.678,3.879,8.678,8.678v43.39C442.281,499.148,438.402,503.027,433.603,503.027"/>
		<path style="fill:#86C250;" d="M503.027,433.603h-43.39c-4.799,0-8.678-3.879-8.678-8.678s3.879-8.678,8.678-8.678h43.39
			c4.799,0,8.678,3.879,8.678,8.678S507.826,433.603,503.027,433.603"/>
		<path style="fill:#86C250;" d="M503.027,390.213h-43.39c-4.799,0-8.678-3.879-8.678-8.678s3.879-8.678,8.678-8.678h43.39
			c4.799,0,8.678,3.879,8.678,8.678S507.826,390.213,503.027,390.213"/>
		<path style="fill:#86C250;" d="M503.027,346.824h-43.39c-4.799,0-8.678-3.879-8.678-8.678s3.879-8.678,8.678-8.678h43.39
			c4.799,0,8.678,3.879,8.678,8.678S507.826,346.824,503.027,346.824"/>
		<path style="fill:#86C250;" d="M503.027,303.434h-43.39c-4.799,0-8.678-3.879-8.678-8.678s3.879-8.678,8.678-8.678h43.39
			c4.799,0,8.678,3.879,8.678,8.678S507.826,303.434,503.027,303.434"/>
		<path style="fill:#86C250;" d="M503.027,260.044h-43.39c-4.799,0-8.678-3.879-8.678-8.678c0-4.799,3.879-8.678,8.678-8.678h43.39
			c4.799,0,8.678,3.879,8.678,8.678C511.705,256.165,507.826,260.044,503.027,260.044"/>
		<path style="fill:#86C250;" d="M503.027,216.654h-43.39c-4.799,0-8.678-3.879-8.678-8.678s3.879-8.678,8.678-8.678h43.39
			c4.799,0,8.678,3.879,8.678,8.678S507.826,216.654,503.027,216.654"/>
		<path style="fill:#86C250;" d="M503.027,173.264h-43.39c-4.799,0-8.678-3.879-8.678-8.678c0-4.799,3.879-8.678,8.678-8.678h43.39
			c4.799,0,8.678,3.879,8.678,8.678C511.705,169.385,507.826,173.264,503.027,173.264"/>
		<path style="fill:#86C250;" d="M503.027,129.874h-43.39c-4.799,0-8.678-3.879-8.678-8.678s3.879-8.678,8.678-8.678h43.39
			c4.799,0,8.678,3.879,8.678,8.678S507.826,129.874,503.027,129.874"/>
	</g>
	<path style="fill:#50742F;" d="M437.942,95.163h-91.119v238.939c0,11.984-9.711,21.695-21.695,21.695H104.136v73.468
		c0,11.984,9.719,21.695,21.695,21.695h307.773c11.984,0,26.034-9.711,26.034-21.695V116.857
		C459.637,104.873,449.927,95.163,437.942,95.163"/>
	<path style="fill:#86C250;" d="M325.129,355.502H21.695C9.719,355.502,0,345.791,0,333.807V30.373
		C0,18.397,9.719,8.678,21.695,8.678h303.434c11.984,0,21.695,9.719,21.695,21.695v303.434
		C346.824,345.791,337.113,355.502,325.129,355.502"/>
	<g>
		<path style="fill:#50742F;" d="M82.146,320.79H43.095c-4.799,0-8.678-3.879-8.678-8.678v-39.051c0-4.799,3.879-8.678,8.678-8.678
			s8.678,3.879,8.678,8.678v30.373h30.373c4.799,0,8.678,3.879,8.678,8.678S86.945,320.79,82.146,320.79"/>
		<path style="fill:#50742F;" d="M43.095,233.781c-4.799,0-8.678-3.879-8.678-8.678v-86.32c0-4.799,3.879-8.678,8.678-8.678
			s8.678,3.879,8.678,8.678v86.32C51.773,229.902,47.894,233.781,43.095,233.781"/>
		<path style="fill:#50742F;" d="M43.095,99.502c-4.799,0-8.678-3.879-8.678-8.678V51.773c0-4.799,3.879-8.678,8.678-8.678h39.051
			c4.799,0,8.678,3.879,8.678,8.678s-3.879,8.678-8.678,8.678H51.773v30.373C51.773,95.623,47.894,99.502,43.095,99.502"/>
		<path style="fill:#50742F;" d="M216.425,60.451h-86.32c-4.799,0-8.678-3.879-8.678-8.678s3.879-8.678,8.678-8.678h86.32
			c4.799,0,8.678,3.879,8.678,8.678S221.224,60.451,216.425,60.451"/>
		<path style="fill:#50742F;" d="M303.434,99.502c-4.799,0-8.678-3.879-8.678-8.678V60.451h-30.373
			c-4.799,0-8.678-3.879-8.678-8.678s3.879-8.678,8.678-8.678h39.051c4.799,0,8.678,3.879,8.678,8.678v39.051
			C312.112,95.623,308.233,99.502,303.434,99.502"/>
		<path style="fill:#50742F;" d="M303.434,233.781c-4.799,0-8.678-3.879-8.678-8.678v-86.32c0-4.799,3.879-8.678,8.678-8.678
			c4.799,0,8.678,3.879,8.678,8.678v86.32C312.112,229.902,308.233,233.781,303.434,233.781"/>
		<path style="fill:#50742F;" d="M303.434,320.79h-39.051c-4.799,0-8.678-3.879-8.678-8.678s3.879-8.678,8.678-8.678h30.373v-30.373
			c0-4.799,3.879-8.678,8.678-8.678c4.799,0,8.678,3.879,8.678,8.678v39.051C312.112,316.911,308.233,320.79,303.434,320.79"/>
		<path style="fill:#50742F;" d="M216.425,320.79h-86.32c-4.799,0-8.678-3.879-8.678-8.678s3.879-8.678,8.678-8.678h86.32
			c4.799,0,8.678,3.879,8.678,8.678S221.224,320.79,216.425,320.79"/>
	</g>
	<g>
		<path style="fill:#86C250;" d="M407.569,194.959c-4.799,0-8.678-3.879-8.678-8.678V147.23c0-4.799,3.879-8.678,8.678-8.678
			c4.799,0,8.678,3.879,8.678,8.678v39.051C416.247,191.08,412.368,194.959,407.569,194.959"/>
		<path style="fill:#86C250;" d="M407.569,329.239c-4.799,0-8.678-3.879-8.678-8.678v-86.32c0-4.799,3.879-8.678,8.678-8.678
			c4.799,0,8.678,3.879,8.678,8.678v86.32C416.247,325.359,412.368,329.239,407.569,329.239"/>
		<path style="fill:#86C250;" d="M407.569,416.247h-39.051c-4.799,0-8.678-3.879-8.678-8.678c0-4.799,3.879-8.678,8.678-8.678
			h30.373v-30.373c0-4.799,3.879-8.678,8.678-8.678c4.799,0,8.678,3.879,8.678,8.678v39.051
			C416.247,412.368,412.368,416.247,407.569,416.247"/>
		<path style="fill:#86C250;" d="M320.561,416.247h-86.32c-4.799,0-8.678-3.879-8.678-8.678c0-4.799,3.879-8.678,8.678-8.678h86.32
			c4.799,0,8.678,3.879,8.678,8.678C329.239,412.368,325.359,416.247,320.561,416.247"/>
		<path style="fill:#86C250;" d="M186.281,416.247H147.23c-4.799,0-8.678-3.879-8.678-8.678c0-4.799,3.879-8.678,8.678-8.678h39.051
			c4.799,0,8.678,3.879,8.678,8.678C194.959,412.368,191.08,416.247,186.281,416.247"/>
	</g>
</g>
</svg>