<?xml version="1.0" encoding="iso-8859-1"?>
<!-- Uploaded to: SVG Repo, www.svgrepo.com, Generator: SVG Repo Mixer Tools -->
<svg height="800px" width="800px" version="1.1" id="Layer_1" xmlns="http://www.w3.org/2000/svg" xmlns:xlink="http://www.w3.org/1999/xlink" 
	 viewBox="0 0 512 512" xml:space="preserve">
<polygon style="fill:#F0278E;" points="118.706,334.721 29.493,385.278 18.76,332.43 78.881,298.358 "/>
<polygon style="fill:#B7025C;" points="29.477,385.253 118.688,334.696 163.149,391.217 174.239,504.398 "/>
<polygon style="fill:#F0278E;" points="376.694,112.016 374.996,128.897 136.497,128.897 134.799,112.016 174.239,8.915 
	337.254,8.915 "/>
<polygon style="fill:#B7025C;" points="134.799,112.016 376.694,112.016 337.254,504.398 174.239,504.398 "/>
<polygon style="fill:#F249A0;" points="336.412,8.915 175.449,8.915 255.93,112.016 "/>
<g style="opacity:0.43;">
	<polygon style="fill:#A50153;" points="174.761,504.398 296.398,504.398 144.876,207.071 	"/>
</g>
<polygon style="fill:#F0278E;" points="357.268,303.384 482.515,385.255 493.249,332.405 433.128,298.335 "/>
<polygon style="fill:#B7025C;" points="482.514,385.253 357.267,303.383 347.491,391.622 337.218,504.804 "/>
<g>
	<path style="fill:#A50153;" d="M357.267,303.383l-20.049,201.421c0,0,20.217-16.635,21.887-18.009
		C360.774,485.421,357.267,303.383,357.267,303.383z"/>
	<path style="fill:#A50153;" d="M163.149,391.217c0,0,12.133,113.182,11.612,113.182s-39.961-32.46-39.961-32.46
		S164.952,391.196,163.149,391.217z"/>
</g>
<path d="M213.037,139.595c-4.197,0-7.6,3.403-7.6,7.601v58.764c0,4.198,3.403,7.6,7.6,7.6c4.198,0,7.601-3.403,7.601-7.6v-58.764
	C220.637,142.997,217.234,139.595,213.037,139.595z"/>
<path d="M323.879,182.694c-4.198,0-7.6,3.403-7.6,7.6v155.323c0,4.198,3.403,7.6,7.6,7.6s7.6-3.403,7.6-7.6V190.294
	C331.48,186.097,328.077,182.694,323.879,182.694z"/>
<path d="M290.386,145.902c-4.198,0-7.6,3.403-7.6,7.6v94.536c0,4.198,3.403,7.601,7.6,7.601s7.6-3.403,7.6-7.601v-94.536
	C297.986,149.305,294.583,145.902,290.386,145.902z"/>
<path d="M497.27,325.306l-60.121-34.072c-1.291-0.733-2.769-1.07-4.252-0.971l-66.928,4.455l18.288-181.944
	c0.049-0.485,0.045-0.97,0.001-1.448c0.093-1.12-0.051-2.262-0.464-3.342l-39.441-103.1c-0.012-0.03-0.029-0.058-0.042-0.087
	c-0.129-0.325-0.276-0.645-0.45-0.952c-0.011-0.02-0.024-0.039-0.036-0.058c-0.162-0.28-0.347-0.548-0.547-0.809
	c-0.041-0.053-0.08-0.107-0.123-0.159c-0.211-0.26-0.438-0.51-0.687-0.745c-0.038-0.036-0.08-0.068-0.12-0.103
	c-0.137-0.124-0.272-0.247-0.419-0.362c-0.083-0.065-0.17-0.119-0.255-0.179c-0.07-0.05-0.138-0.099-0.21-0.147
	c-0.284-0.19-0.575-0.364-0.875-0.511c-0.007-0.004-0.015-0.006-0.022-0.01c-0.306-0.149-0.62-0.27-0.938-0.374
	c-0.06-0.02-0.12-0.04-0.18-0.059c-0.333-0.1-0.671-0.182-1.011-0.236c-0.028-0.004-0.057-0.006-0.085-0.01
	c-0.328-0.048-0.658-0.071-0.987-0.076c-0.037,0-0.074-0.008-0.111-0.008H174.239c-0.034,0-0.067,0.007-0.101,0.008
	c-0.338,0.004-0.677,0.028-1.013,0.078c-0.021,0.003-0.044,0.004-0.066,0.008c-0.345,0.054-0.686,0.137-1.024,0.238
	c-0.056,0.017-0.11,0.035-0.166,0.054c-0.325,0.106-0.647,0.23-0.96,0.383c-0.002,0.001-0.004,0.001-0.005,0.002
	c-0.302,0.148-0.595,0.323-0.882,0.515c-0.068,0.046-0.134,0.093-0.201,0.141c-0.086,0.062-0.175,0.117-0.259,0.182
	c-0.149,0.117-0.287,0.242-0.425,0.367c-0.036,0.033-0.076,0.063-0.111,0.096c-0.25,0.236-0.478,0.487-0.69,0.749
	c-0.041,0.05-0.078,0.101-0.118,0.153c-0.202,0.262-0.388,0.534-0.551,0.816c-0.01,0.018-0.022,0.034-0.033,0.053
	c-0.175,0.308-0.322,0.628-0.452,0.955c-0.012,0.029-0.029,0.056-0.041,0.086l-39.438,103.1c-0.413,1.08-0.557,2.222-0.464,3.342
	c-0.044,0.478-0.048,0.963,0.001,1.448l25.409,252.796l-27.686-35.196c-0.381-0.652-0.851-1.256-1.422-1.777l-39.824-36.363
	c-2.429-2.217-6.009-2.622-8.872-0.999l-60.121,34.072c-0.034,0.019-0.064,0.047-0.098,0.067c-0.305,0.179-0.599,0.374-0.877,0.594
	c-0.037,0.029-0.071,0.062-0.107,0.092c-0.253,0.209-0.491,0.434-0.716,0.674c-0.036,0.04-0.076,0.076-0.111,0.117
	c-0.233,0.26-0.448,0.538-0.645,0.831c-0.033,0.05-0.065,0.1-0.096,0.151c-0.188,0.295-0.363,0.6-0.51,0.924
	c-0.003,0.006-0.006,0.011-0.009,0.017c-0.143,0.314-0.258,0.645-0.36,0.984c-0.024,0.082-0.047,0.164-0.069,0.248
	c-0.023,0.089-0.053,0.174-0.073,0.264c-0.056,0.25-0.097,0.5-0.128,0.748c-0.001,0.006-0.002,0.011-0.003,0.016
	c-0.043,0.363-0.051,0.723-0.042,1.079c0.002,0.067,0.003,0.134,0.006,0.201c0.019,0.366,0.061,0.728,0.131,1.081
	c0.002,0.012,0.002,0.024,0.004,0.037l10.733,52.849c0.185,0.915,0.538,1.772,1.024,2.542c0.459,0.863,1.079,1.645,1.854,2.286
	l143.945,119.145c1.393,1.153,3.113,1.745,4.848,1.745c0.12,0,0.239-0.016,0.36-0.021c0.151,0.009,0.302,0.021,0.456,0.021h121.621
	c0.007,0,0.014,0.001,0.021,0.001c0.008,0,0.017-0.001,0.025-0.001h41.347c0.246,0,0.489-0.012,0.73-0.034
	c0.195,0.015,0.389,0.034,0.584,0.034c1.734,0,3.455-0.593,4.848-1.745l143.945-119.145c0.762-0.63,1.373-1.4,1.831-2.247
	c0.498-0.778,0.856-1.65,1.046-2.581l10.733-52.849C501.626,330.208,500.132,326.929,497.27,325.306z M477.571,372.276
	l-53.397-34.905l60.1,1.899L477.571,372.276z M431.635,305.583l31.429,17.811l-63.337-2.001l-19.001-12.42L431.635,305.583z
	 M272.348,103.1l62.616-80.215l30.685,80.215H272.348z M255.747,99.664l-65.933-84.463h131.866L255.747,99.664z M176.529,22.887
	l62.616,80.214h-93.301L176.529,22.887z M77.538,307.18l28.016,25.582l-70.989,40.231l-6.319-31.111l30.772,6.847
	c0.556,0.124,1.111,0.183,1.658,0.183c3.484,0,6.625-2.41,7.412-5.952c0.912-4.097-1.671-8.158-5.768-9.07l-22.917-5.098
	L77.538,307.18z M42.817,386.429l73.937-41.9l38.726,49.231l2.771,27.57l1.595,17.578l-42.522-64.913
	c-2.301-3.511-7.013-4.494-10.523-2.193c-3.511,2.3-4.493,7.012-2.193,10.523l58.162,88.787l1.433,15.788L42.817,386.429z
	 M173.386,419.909l-2.666-29.378c-0.065-0.721-0.235-1.423-0.497-2.089l-14.258-141.849l89.637,175.892
	c0.075,34.351-0.013,62.283-0.376,74.313h-30.96v-57.987c0-4.198-3.403-7.6-7.601-7.6c-4.197,0-7.6,3.403-7.6,7.6v57.987h-17.951
	L173.386,419.909z M283.472,496.798h-23.016c0.193-6.08,0.256-15.451,0.322-30.246c0.019-4.36,0.032-9.114,0.04-14.209
	L283.472,496.798z M300.533,496.798l-39.742-77.986c-0.026-10.302-0.068-21.467-0.125-33.5
	c-0.275-58.178-0.823-116.843-0.828-117.429c-0.04-4.173-3.434-7.53-7.598-7.53c-0.024,0-0.049,0-0.073,0
	c-4.197,0.04-7.568,3.474-7.529,7.671c0.342,36.392,0.67,80.563,0.849,120.757l-93.429-183.334c-0.085-0.166-0.181-0.323-0.276-0.48
	l-8.578-85.352h225.088l-18.234,181.398c-0.174,0.529-0.303,1.077-0.358,1.645l-4.008,41.787l-15.313,152.354H300.533z
	 M347.789,486.9l1.433-15.789l58.162-88.786c2.3-3.511,1.318-8.223-2.193-10.523c-3.511-2.299-8.222-1.319-10.523,2.193
	l-42.522,64.913l4.262-46.966l4.41-45.989l2.94-29.248l105.966,69.267L347.789,486.9z"/>
</svg>