<?xml version="1.0" standalone="no"?><!DOCTYPE svg PUBLIC "-//W3C//DTD SVG 1.1//EN" "http://www.w3.org/Graphics/SVG/1.1/DTD/svg11.dtd"><svg t="1737638039286" class="icon" viewBox="0 0 1024 1024" version="1.1" xmlns="http://www.w3.org/2000/svg" p-id="3471" xmlns:xlink="http://www.w3.org/1999/xlink" width="200" height="200"><path d="M703.12 395.056l-78.192-7.6L513.024 448l-96.096-60.544-100.544 8.016-8-8.016a32 32 0 0 1-3.76-40.72c17.424-23.712 43.088-62.896 48.304-90.736 4.832-25.808-2.208-67.824-8.416-96.64a31.696 31.696 0 0 1 24.304-36.672c20.688-4.448 47.952-13.248 71.408-29.552 22.4-15.584 46.432-43.552 60.48-61.184a15.904 15.904 0 0 1 24.704-0.112c12.304 14.72 32.56 36.816 55.536 53.296 23.392 16.768 55.984 28.512 79.216 35.408a31.712 31.712 0 0 1 21.856 36.16c-6.368 29.28-14.16 73.936-9.088 99.296 5.088 25.488 29.68 63.968 46.848 88.544 8.992 13.68 6.08 31.952-6.704 42.176-5.504 4.768-9.952 8.336-9.952 8.336z" fill="#FFFFFF" p-id="3472"></path><path d="M703.12 411.056l-46.192-7.6L545.024 464l-96.096-60.544-100.544 8.016-8-8.016a32 32 0 0 1-3.76-40.72c17.424-23.712 43.088-62.896 48.304-90.736 4.832-25.808-2.208-67.824-8.416-96.64a31.696 31.696 0 0 1 24.304-36.672c20.688-4.448 47.952-13.248 71.408-29.552 22.4-15.584 46.432-43.552 60.48-61.184a15.904 15.904 0 0 1 24.704-0.112c12.304 14.72 32.56 36.816 55.536 53.296 23.392 16.768 23.984 28.512 47.216 35.408a31.712 31.712 0 0 1 21.856 36.16c-6.368 29.28-14.16 73.936-9.088 99.296 5.088 25.488 29.68 63.968 46.848 88.544 8.992 13.68 6.08 31.952-6.704 42.176-5.504 4.768-9.952 8.336-9.952 8.336z" fill="#5AB947" p-id="3473"></path><path d="M217.632 564.48l44.448 64.768 118.304 46.8 31.392 112.544 54.752 71.856-0.976 11.296a32 32 0 0 1-28.768 29.04c-29.376 1.904-75.888 7.44-100.576 21.328-22.88 12.88-50.544 45.28-68.608 68.56a31.696 31.696 0 0 1-43.728 4.96c-16.704-12.976-40.96-28.224-68.544-35.712-26.336-7.136-63.2-7.568-85.744-7.008a15.856 15.856 0 0 1-12.448-5.632 15.856 15.856 0 0 1-3.504-13.2c3.36-18.896 7.264-48.608 5.12-76.8-2.192-28.704-14.144-61.216-23.792-83.456a31.696 31.696 0 0 1 13.648-39.984c26.544-13.936 65.744-36.672 81.92-56.864 16.24-20.288 29.92-63.856 37.696-92.8a31.728 31.728 0 0 1 36.624-21.984c7.184 1.168 12.784 2.288 12.784 2.288z" fill="#5AB947" p-id="3474"></path><path d="M568.592 848.56l-7.52 11.888 0.992 11.296c1.344 15.344 13.44 27.552 28.768 29.04 29.376 1.904 75.888 7.44 100.56 21.328 22.88 12.88 50.544 45.28 68.624 68.56a31.696 31.696 0 0 0 43.728 4.96c16.688-12.976 40.96-28.224 68.544-35.712 26.336-7.136 63.2-7.568 85.728-7.008a15.888 15.888 0 0 0 15.968-18.832c-3.36-18.896-7.264-48.608-5.12-76.8 2.176-28.704 14.128-61.216 23.792-83.456a31.728 31.728 0 0 0-13.648-39.984c-26.544-13.936-65.76-36.672-81.92-56.864-16.24-20.288-29.92-63.856-37.696-92.8a31.744 31.744 0 0 0-36.624-21.984c-7.2 1.168-12.784 2.288-12.784 2.288l-44.448 64.768-118.304 46.8-31.392 97.776-14.656 23.168" fill="#5AB947" p-id="3475"></path><path d="M312.768 400.704A159.328 159.328 0 0 1 384 384c88.304 0 160 71.696 160 160s-71.696 160-160 160-160-71.696-160-160a159.36 159.36 0 0 1 39.776-105.52" fill="#FFFFFF" p-id="3476"></path><path d="M286.816 670.272c-21.264-26.416-33.728-60.352-33.728-97.184 0-88.304 71.696-160 160-160 36.832 0 70.768 12.464 97.184 33.728C531.536 473.248 544 507.184 544 544c0 88.304-71.696 160-160 160-36.816 0-70.752-12.464-97.184-33.728z" fill="#F73B2F" p-id="3477"></path><path d="M379.264 530.224c-56.896 59.328-36.144 174.864-63.648 153.12-18.64-14.752-35.04-102.544 0-169.12 39.264-74.592 170.528-93.36 191.776-56.624 5.392 9.312-68.608 10.56-128.128 72.624z" fill="#D73636" p-id="3478"></path><path d="M568.768 400.704A159.328 159.328 0 0 1 640 384c88.304 0 160 71.696 160 160s-71.696 160-160 160-160-71.696-160-160a159.36 159.36 0 0 1 39.776-105.52" fill="#FFFFFF" p-id="3479"></path><path d="M542.816 670.272c-21.264-26.416-33.728-60.352-33.728-97.184 0-88.304 71.696-160 160-160 36.832 0 70.768 12.464 97.184 33.728C787.536 473.248 800 507.184 800 544c0 88.304-71.696 160-160 160-36.816 0-70.752-12.464-97.184-33.728z" fill="#F73B2F" p-id="3480"></path><path d="M560 464c153.472-10.88 189.28 142.112 191.904 137.648 58.832-100.048-11.28-207.248 15.744-178.768A175.36 175.36 0 0 1 816 544c0 97.136-78.864 176-176 176a175.52 175.52 0 0 1-128.128-55.392C482.192 633.104 429.136 473.28 560 464z" fill="#D73636" p-id="3481"></path><path d="M433.648 482.384A175.2 175.2 0 0 1 512 464c97.136 0 176 78.864 176 176s-78.864 176-176 176-176-78.864-176-176c0-44.464 16.512-85.088 43.744-116.08" fill="#FFFFFF" p-id="3482"></path><path d="M405.104 778.896C381.712 749.84 368 712.512 368 672c0-97.136 78.864-176 176-176 40.512 0 77.84 13.712 106.896 37.104C674.288 562.16 688 599.488 688 640c0 97.136-78.864 176-176 176-40.512 0-77.84-13.712-106.896-37.104z" fill="#F73B2F" p-id="3483"></path><path d="M576 752c136.304-109.648 31.568-266.912 63.648-233.12A175.36 175.36 0 0 1 688 640c0 97.136-78.864 176-176 176a175.52 175.52 0 0 1-128.128-55.392C354.192 729.104 473.776 834.224 576 752z" fill="#D73636" p-id="3484"></path></svg>