<?xml version="1.0" encoding="utf-8"?><!-- Uploaded to: SVG Repo, www.svgrepo.com, Generator: SVG Repo Mixer Tools -->
<svg fill="#000000" width="800px" height="800px" viewBox="0 0 24 24" id="month" data-name="Flat Line" xmlns="http://www.w3.org/2000/svg" class="icon flat-line"><path id="secondary" d="M21,9v6H15v6H4a1,1,0,0,1-1-1V9Z" style="fill: rgb(44, 169, 188); stroke-width: 2;"></path><path id="primary" d="M21,5V15l-6,6H4a1,1,0,0,1-1-1V5A1,1,0,0,1,4,4H20A1,1,0,0,1,21,5ZM15,15v6l6-6ZM20,4H4A1,1,0,0,0,3,5V9H21V5A1,1,0,0,0,20,4ZM17,3V5M12,3V5M7,3V5" style="fill: none; stroke: rgb(0, 0, 0); stroke-linecap: round; stroke-linejoin: round; stroke-width: 2;"></path></svg>