<?xml version="1.0" encoding="iso-8859-1"?>
<!-- Uploaded to: SVG Repo, www.svgrepo.com, Generator: SVG Repo Mixer Tools -->
<svg version="1.1" id="Layer_1" xmlns="http://www.w3.org/2000/svg" xmlns:xlink="http://www.w3.org/1999/xlink" 
	 viewBox="0 0 512 512" xml:space="preserve">
<path style="fill:#FEF2CC;" d="M484.208,372.121C501.976,337.269,512,297.81,512,256.007c0-141.384-114.616-256-256-256
	c-141.385,0-256,114.616-256,256c0,119.496,81.878,219.865,192.589,248.078L484.208,372.121z"/>
<path style="fill:#FBD867;" d="M345.439,233.351l-37.254,22.37L147.08,94.616l23.048,244.005l-89.351,53.653l111.767,111.767
	c84.666,21.575,178.213-0.751,244.476-67.014c19.564-19.564,35.282-41.514,47.189-64.905L345.439,233.351z"/>
<polygon style="fill:#263230;" points="33.39,222.616 154.712,244.877 176.973,367.311 87.929,367.311 33.39,244.877 "/>
<polygon style="fill:#394B48;" points="194.781,345.051 147.08,94.616 104.478,94.616 104.478,116.877 128.659,116.877 
	172.121,345.051 "/>
<rect x="275.478" y="256.01" style="fill:#889391;" width="44.522" height="66.783"/>
<g>
	<polygon style="fill:#616F6D;" points="275.477,256.007 252.044,322.79 286.608,322.79 286.608,256.007 	"/>
	<rect x="308.87" y="256.01" style="fill:#616F6D;" width="22.261" height="66.783"/>
</g>
<polygon style="fill:#889391;" points="264.347,256.007 253.216,322.79 275.477,322.79 275.477,256.007 "/>
<polygon style="fill:#B0B7B6;" points="242.086,256.007 230.955,322.79 264.347,322.79 264.347,256.007 "/>
<rect x="219.826" y="256.01" style="fill:#C3C9C8;" width="22.261" height="66.783"/>
<polygon style="fill:#394B48;" points="275.477,200.355 264.347,244.877 314.434,222.616 303.303,200.355 "/>
<polygon style="fill:#4C6460;" points="247.651,200.355 236.521,222.616 275.477,244.877 275.477,200.355 "/>
<path style="fill:#263230;" d="M319.442,222.616h-43.965l-19.478,33.391l19.478,22.261h80.696v-18.922
	C356.173,239.061,339.729,222.616,319.442,222.616z"/>
<rect x="194.783" y="222.619" style="fill:#394B48;" width="80.696" height="55.652"/>
<polygon style="fill:#F63341;" points="275.477,300.529 252.044,345.051 342.26,322.79 331.129,300.529 "/>
<polygon style="fill:#F85C67;" points="219.825,300.529 208.695,322.79 275.477,345.051 275.477,300.529 "/>
<polygon style="fill:#C92B31;" points="264.347,322.79 230.955,378.442 392.347,367.311 392.347,322.79 "/>
<polygon style="fill:#F63341;" points="136.347,322.79 136.347,367.311 264.347,378.442 264.347,322.79 "/>
<polygon style="fill:#616F6D;" points="392.347,367.311 264.347,367.311 253.216,378.442 264.347,389.572 392.347,389.572 "/>
<rect x="136.348" y="367.315" style="fill:#889391;" width="128" height="22.261"/>
<path style="fill:#263230;" d="M389.564,300.529l-22.261,55.652l22.261,55.652c30.736,0,55.652-24.917,55.652-55.652
	S420.3,300.529,389.564,300.529z"/>
<path style="fill:#394B48;" d="M333.912,356.181c0,30.736,24.917,55.652,55.652,55.652V300.529
	C358.829,300.529,333.912,325.445,333.912,356.181z"/>
<path style="fill:#D8F4F2;" d="M389.564,322.79l-11.13,33.391l11.13,33.391c18.442,0,33.391-14.95,33.391-33.391
	C422.955,337.74,408.005,322.79,389.564,322.79z"/>
<path style="fill:#FFFFFF;" d="M356.173,356.181c0,18.441,14.949,33.391,33.391,33.391V322.79
	C371.122,322.79,356.173,337.74,356.173,356.181z"/>
<path style="fill:#263230;" d="M127.999,278.268l-26.713,66.783l26.713,66.783c36.883,0,66.783-29.9,66.783-66.783
	S164.882,278.268,127.999,278.268z"/>
<path style="fill:#394B48;" d="M61.216,345.051c0,36.883,29.9,66.783,66.783,66.783V278.268
	C91.116,278.268,61.216,308.168,61.216,345.051z"/>
<path style="fill:#D8F4F2;" d="M127.999,304.981l-13.357,40.07l13.357,40.07c22.13,0,40.07-17.94,40.07-40.07
	S150.128,304.981,127.999,304.981z"/>
<path style="fill:#FFFFFF;" d="M87.929,345.051c0,22.13,17.94,40.07,40.07,40.07v-80.139
	C105.869,304.981,87.929,322.921,87.929,345.051z"/>
</svg>