<?xml version="1.0" encoding="iso-8859-1"?>
<!-- Generator: Adobe Illustrator 19.0.0, SVG Export Plug-In . SVG Version: 6.00 Build 0)  -->
<svg version="1.1" id="Layer_1" xmlns="http://www.w3.org/2000/svg" xmlns:xlink="http://www.w3.org/1999/xlink" x="0px" y="0px"
	 viewBox="0 0 395.544 395.544" style="enable-background:new 0 0 395.544 395.544;" xml:space="preserve">
<g>
	<path style="fill:#F5E6C6;" d="M44.972,134.722v175.6h304v-175.6H44.972z M140.972,306.722h-48v-116c0-13.2,10.8-24,24-24
		s24,10.8,24,24V306.722z M220.972,306.722h-48v-116c0-13.2,10.8-24,24-24c13.2,0,24,10.8,24,24V306.722z M300.972,306.722h-48v-116
		c0-13.2,10.8-24,24-24s24,10.8,24,24V306.722z"/>
	<path style="fill:#F5E6C6;" d="M209.372,134.722h-188.8c-8.4,0-11.2-11.6-3.6-15.2l166.8-78.8c8.8-4,18.8-4,27.2,0l166.8,78.8
		c7.6,3.6,5.2,15.2-3.6,15.2h-25.2"/>
</g>
<g>
	<path style="fill:#C39215;" d="M374.172,142.722h-25.2c-4.4,0-8-3.6-8-8s3.6-8,8-8h25.2l-166.8-78.8c-6.4-3.2-13.6-2.8-20.4,0
		l-166.4,78.8h188.8c4.4,0,8,3.6,8,8s-3.6,8-8,8h-188.8c-7.6,0-14-5.2-15.6-12.8c-1.6-7.6,1.6-14.4,8.8-18l166.8-78.8
		c11.2-5.2,23.6-5.2,34,0l166.8,78.8c6.8,3.2,10.4,10.8,8.8,18C388.172,137.522,381.772,142.722,374.172,142.722z"/>
	<path style="fill:#C39215;" d="M256.572,142.722h-11.2c-4.4,0-8-3.6-8-8s3.6-8,8-8h11.2c4.4,0,8,3.6,8,8
		S260.972,142.722,256.572,142.722z"/>
	<path style="fill:#C39215;" d="M44.972,314.322c-4.4,0-8-3.6-8-8v-168c0-4.4,3.6-8,8-8s8,3.6,8,8v168
		C52.972,310.722,49.372,314.322,44.972,314.322z"/>
	<path style="fill:#C39215;" d="M348.972,314.322c-4.4,0-8-3.6-8-8v-168c0-4.4,3.6-8,8-8s8,3.6,8,8v168
		C356.972,310.722,353.372,314.322,348.972,314.322z"/>
</g>
<path style="fill:#F5E6C6;" d="M375.772,358.322h-356c-8.4,0-14.4-8.8-11.2-16.8l10-24c2-4.4,6.4-7.2,11.2-7.2h336
	c4.8,0,9.2,2.8,11.2,7.2l10,24C390.172,349.522,384.172,358.322,375.772,358.322z"/>
<g>
	<path style="fill:#C39215;" d="M375.772,366.322h-356c-6.4,0-12.8-3.2-16.4-8.8c-3.6-5.6-4.4-12.8-2-18.8l10-24
		c3.2-7.6,10.8-12,18.4-12h336c8,0,15.2,4.8,18.4,12l10,24.4c2.4,6.4,1.6,13.2-2,19.2
		C388.572,363.122,382.172,366.322,375.772,366.322z M29.772,318.322c-1.6,0-3.2,0.8-4,2.4l-10,23.6c-0.8,1.6,0,3.2,0.4,4
		c0.4,0.4,1.6,2,3.2,2h356c2,0,2.8-1.2,3.2-2c0.4-0.4,1.2-2,0.4-4l-10-24c-0.4-1.2-2-2.4-4-2.4h-335.2V318.322z"/>
	<path style="fill:#C39215;" d="M140.972,314.722c-4.4,0-8-3.6-8-8v-116c0-8.8-7.2-16-16-16s-16,7.2-16,16v116c0,4.4-3.6,8-8,8
		s-8-3.6-8-8v-116c0-17.6,14.4-32,32-32s32,14.4,32,32v116C148.972,311.122,145.372,314.722,140.972,314.722z"/>
	<path style="fill:#C39215;" d="M300.972,314.722c-4.4,0-8-3.6-8-8v-116c0-8.8-7.2-16-16-16s-16,7.2-16,16v116c0,4.4-3.6,8-8,8
		s-8-3.6-8-8v-116c0-17.6,14.4-32,32-32s32,14.4,32,32v116C308.972,311.122,305.372,314.722,300.972,314.722z"/>
	<path style="fill:#C39215;" d="M220.972,314.722c-4.4,0-8-3.6-8-8v-116c0-8.8-7.2-16-16-16c-8.8,0-16,7.2-16,16v116
		c0,4.4-3.6,8-8,8s-8-3.6-8-8v-116c0-17.6,14.4-32,32-32s32,14.4,32,32v116C228.972,311.122,225.372,314.722,220.972,314.722z"/>
</g>
<g>
</g>
<g>
</g>
<g>
</g>
<g>
</g>
<g>
</g>
<g>
</g>
<g>
</g>
<g>
</g>
<g>
</g>
<g>
</g>
<g>
</g>
<g>
</g>
<g>
</g>
<g>
</g>
<g>
</g>
</svg>
