<?xml version="1.0" standalone="no"?><!DOCTYPE svg PUBLIC "-//W3C//DTD SVG 1.1//EN" "http://www.w3.org/Graphics/SVG/1.1/DTD/svg11.dtd"><svg t="1737712702934" class="icon" viewBox="0 0 1024 1024" version="1.1" xmlns="http://www.w3.org/2000/svg" p-id="4250" xmlns:xlink="http://www.w3.org/1999/xlink" width="200" height="200"><path d="M866.005333 422.997333c25.685333 7.68 44.544 31.573333 44.544 59.904a62.378667 62.378667 0 0 1-68.266666 62.165334c12.288 6.4 20.821333 19.370667 20.821333 34.133333a38.613333 38.613333 0 0 1-38.570667 38.570667c-1.237333 0-2.474667-0.085333-3.712-0.213334a62.677333 62.677333 0 0 1-51.370666 98.218667 62.72 62.72 0 0 1-35.029334-10.752 38.613333 38.613333 0 0 1-63.829333 41.216l0.042667 2.048 0.042666 2.005333c0 34.517333-28.074667 62.592-62.549333 62.592a62.634667 62.634667 0 0 1-62.592-62.592c0-34.517333 28.074667-62.592 62.549333-62.592 21.973333 0 41.258667 11.392 52.48 28.501334a38.826667 38.826667 0 0 1 55.381334-30.677334 62.634667 62.634667 0 0 1 72.96-91.776 38.613333 38.613333 0 0 1 35.626666-53.162666h0.298667a62.634667 62.634667 0 0 1 5.717333-117.76 38.485333 38.485333 0 0 1-8.277333-62.421334c-0.725333 0.128-1.450667 0.128-2.176 0.128a62.634667 62.634667 0 0 1-49.109333-101.333333h-0.341334a38.698667 38.698667 0 0 1-36.949333-49.621333 62.634667 62.634667 0 0 1-96.426667-59.178667 38.442667 38.442667 0 0 1-61.056-20.181333 62.72 62.72 0 0 1-57.301333 37.376c-26.965333 0-49.92-17.066667-58.752-41.002667a38.698667 38.698667 0 0 1-58.965333 22.485333 62.634667 62.634667 0 0 1-99.029334 58.624 38.698667 38.698667 0 0 1-42.069333 45.269334A62.506667 62.506667 0 0 1 211.2 362.069333a38.4 38.4 0 0 1-5.12 61.226667 62.677333 62.677333 0 0 1 47.061333 60.586667 62.72 62.72 0 0 1-34.688 56.106666 38.741333 38.741333 0 0 1 28.501334 54.997334 62.634667 62.634667 0 0 1 75.008 92.586666 38.613333 38.613333 0 0 1 52.821333 32.853334 62.72 62.72 0 0 1 54.912-32.597334c34.517333 0 62.592 28.074667 62.592 62.549334 0 34.517333-28.074667 62.592-62.592 62.592a62.677333 62.677333 0 0 1-62.592-62.592c0-1.322667 0-2.56 0.128-3.925334a38.442667 38.442667 0 0 1-69.546667-22.912 38.4 38.4 0 0 1 3.541334-16.128 62.634667 62.634667 0 0 1-94.165334-53.973333c0-13.909333 4.565333-26.88 12.330667-37.205333a38.613333 38.613333 0 0 1-29.312-69.418667 62.592 62.592 0 1 1-21.632-121.130667 38.4 38.4 0 0 1-21.674667-34.56c0-20.949333 16.768-38.058667 37.589334-38.570666a62.506667 62.506667 0 0 1 34.389333-114.773334c5.376 0 10.666667 0.597333 15.786667 1.962667a38.613333 38.613333 0 0 1 45.994666-59.776c-2.730667-6.954667-4.266667-14.506667-4.266666-22.485333 0-34.56 28.074667-62.592 62.549333-62.592 17.749333 0 33.706667 7.338667 45.098667 19.242666a38.613333 38.613333 0 0 1 72.32-15.317333 62.634667 62.634667 0 0 1 124.544 0.213333 38.485333 38.485333 0 0 1 32.213333-17.408c20.053333 0 36.693333 15.530667 38.4 35.242667a62.293333 62.293333 0 0 1 47.573333-21.973333 62.677333 62.677333 0 0 1 56.064 90.453333 38.613333 38.613333 0 0 1 50.048 51.925333 62.677333 62.677333 0 0 1 48.384 113.450667c18.645333 2.645333 33.152 18.730667 33.152 38.186667a38.741333 38.741333 0 0 1-20.608 34.133333z m-384.512 327.509334c0-28.8-23.424-52.224-52.224-52.224a52.224 52.224 0 0 0 0 104.448c28.8 0 52.224-23.466667 52.224-52.224z m-145.664 1.237333a28.245333 28.245333 0 0 0 28.288-28.16 28.202667 28.202667 0 1 0-28.288 28.16z m-66.517333-46.08a52.266667 52.266667 0 0 0 0-104.448 52.266667 52.266667 0 0 0 0 104.405333zM212.053333 606.464a28.202667 28.202667 0 1 0-0.042666-56.448 28.202667 28.202667 0 0 0 0.042666 56.448z m-21.76-70.144a52.266667 52.266667 0 0 0 0-104.448 52.266667 52.266667 0 0 0 0 104.448zM185.173333 419.285333a28.202667 28.202667 0 1 0-28.16-28.288c0 15.616 12.629333 28.288 28.16 28.288z m33.365334-66.858666a52.266667 52.266667 0 0 0 0-104.405334 52.266667 52.266667 0 0 0 0 104.405334z m17.109333-137.557334a28.202667 28.202667 0 1 0 56.405333-0.085333 28.202667 28.202667 0 0 0-56.405333 0.085333zM286.506667 157.44a52.266667 52.266667 0 0 0 104.448 0 52.266667 52.266667 0 0 0-104.448 0z m107.52-40.106667a28.202667 28.202667 0 1 0 56.448-0.085333 28.202667 28.202667 0 0 0-56.405334 0.085333z m72.106666-12.117333a52.266667 52.266667 0 0 0 104.448 0 52.266667 52.266667 0 0 0-104.405333 0z m118.442667 15.018667c0 15.530667 12.757333 28.16 28.288 28.16a28.245333 28.245333 0 1 0-28.288-28.16z m114.304-15.018667a52.266667 52.266667 0 0 0 0 104.405333 52.266667 52.266667 0 0 0 0-104.405333z m71.168 87.338667a28.202667 28.202667 0 1 0 0.042667 56.405333 28.202667 28.202667 0 0 0-0.042667-56.405333z m49.493333 53.248a52.266667 52.266667 0 0 0 0 104.405333 52.266667 52.266667 0 0 0 0-104.405333zM555.434667 750.506667a52.266667 52.266667 0 0 0 104.405333 0 52.266667 52.266667 0 0 0-104.405333 0z m114.773333-30.037334a28.202667 28.202667 0 1 0 56.405333-0.085333 28.202667 28.202667 0 0 0-56.405333 0.085333z m46.506667-67.029333a52.266667 52.266667 0 0 0 104.448 0 52.266667 52.266667 0 0 0-104.448 0z m107.349333-45.909333a28.202667 28.202667 0 1 0-0.042667-56.405334 28.202667 28.202667 0 0 0 0.042667 56.405334z m23.893333-247.04a28.288 28.288 0 0 0-28.16 28.330666 28.16 28.16 0 1 0 56.362667 0 28.245333 28.245333 0 0 0-28.16-28.288z m0 70.186666a52.266667 52.266667 0 0 0 0 104.405334 52.266667 52.266667 0 0 0 0-104.405334z m-304.213333 264.618667v109.482667a90.112 90.112 0 0 1 65.152 86.528c0 49.621333-40.405333 90.026667-90.026667 90.026666a90.154667 90.154667 0 0 1-90.026666-90.026666c0-41.045333 27.648-75.733333 65.28-86.528v-109.482667a5.973333 5.973333 0 0 1 5.973333-6.016h37.589333a5.973333 5.973333 0 0 1 6.016 5.973333z m-39.210667 4.437333v101.632h28.8V699.733333h-28.8z m-65.28 191.573334a79.786667 79.786667 0 0 0 79.701334 79.658666 79.786667 79.786667 0 0 0 79.658666-79.658666 79.786667 79.786667 0 0 0-79.658666-79.658667 79.786667 79.786667 0 0 0-79.701334 79.658667z" fill="#000000" opacity=".3" p-id="4251"></path><path d="M866.005333 422.997333l-7.04-13.184-32.042666 17.109334 34.773333 10.368 4.266667-14.293334z m-17.493333 122.368v-14.933333 14.933333z m-6.272-0.298666l1.493333-14.890667-8.362666 28.117333 6.869333-13.226666z m-21.418667 72.533333l1.237334-14.933333-31.573334-2.602667 18.048 26.026667 12.288-8.533334z m-86.4 87.424l8.277334-12.373333-41.472-27.861334 19.413333 46.037334 13.781333-5.802667z m-63.829333 41.216l11.008-10.069333-25.941333-28.245334v38.314667h14.933333z m0.042667 2.048l14.933333-0.597333-14.933333 0.597333z m-10.112-32.085333l-12.501334 8.192 22.912 34.986666 4.437334-41.6-14.848-1.578666z m55.466666-30.677334l-6.613333 13.44 45.653333 22.314667-26.282666-43.477333-12.8 7.722666z m72.917334-91.776l-4.565334 14.208 30.549334 9.813334-12.16-29.696-13.824 5.674666z m35.925333-53.162666v14.933333l5.674667-28.757333-5.674667 13.824z m5.717333-117.76l4.266667 14.250666 34.986667-10.496-32.298667-17.024-6.954667 13.226667z m-8.277333-62.421334l10.154667 10.965334 34.816-32.426667-47.104 6.698667 2.133333 14.762666zM770.986667 259.2l11.733333 9.216 18.986667-24.149333h-30.72v14.933333z m-37.290667-49.621333l14.293333 4.224 11.562667-39.296-34.133333 22.613333 8.277333 12.458667z m-96.469333-59.178667l14.848 1.365333 3.157333-34.346666-27.221333 21.248 9.216 11.733333z m-61.013334-20.181333l14.378667-3.925334-11.008-40.533333-17.066667 38.4 13.653334 6.058667z m-116.053333-3.626667l14.037333-5.162667-16.64-45.141333-11.861333 46.634667 14.464 3.669333z m-58.965333 22.485333l8.405333-12.373333-26.965333-18.261333 3.754666 32.341333 14.805334-1.706667zM302.165333 207.701333l8.789334-12.032-30.165334-22.058666 6.698667 36.778666 14.677333-2.688zM260.096 253.013333l1.152-14.890666h-0.042667l-1.109333 14.933333z m0 0l1.109333-14.890666-44.330666-3.285334 33.365333 29.397334 9.856-11.221334zM211.2 362.069333l1.834667-14.805333L165.589333 341.333333l35.669334 31.872 9.941333-11.093333z m-5.12 61.226667l-7.978667-12.586667-29.141333 18.474667 33.450667 8.576 3.712-14.464z m12.373333 116.693333l-6.698666-13.354666-41.258667 20.608 45.525333 7.466666 2.432-14.72z m28.501334 54.997334l-13.44-6.570667-16.64 34.048 35.413333-13.525333-5.333333-13.952z m75.008 92.586666l-12.458667-8.192-26.282667 39.594667 44.202667-17.493333-5.461333-13.866667z m52.821333 32.853334l-14.890667 1.194666 3.925334 50.133334 24.064-44.16-13.098667-7.125334z m-7.552 26.026666l14.890667 1.152 3.968-51.797333-30.890667 41.813333 12.032 8.832zM301.226667 707.413333l13.568 6.229334 19.797333-43.221334-40.96 24.106667 7.594667 12.885333z m-81.834667-91.178666l11.946667 8.96 24.405333-32.554667-39.68 9.002667 3.328 14.592z m-29.312-69.418667l8.533333 12.245333 38.314667-26.752-46.72-0.426666-0.128 14.933333z m-21.674667-121.130667l5.290667 13.994667 32.512-12.288-31.317333-15.146667-6.485334 13.44z m15.957334-73.130666l0.384 14.933333 47.616-1.194667-39.808-26.197333-8.192 12.458667z m50.133333-112.810667l-3.84 14.421333 45.952 12.16-30.72-36.266666-11.392 9.685333z m45.994667-59.818667l-6.4 13.482667 34.005333 16.298667-13.653333-35.157334-13.952 5.376z m103.424-65.749333l-10.794667 10.282667 23.04 24.149333 2.645333-33.28-14.933333-1.152z m72.32-15.36l-13.141334 7.125333 23.082667 42.496 4.906667-48.085333-14.848-1.536z m124.501333 0.213333l-14.848 1.450667 4.181333 42.24 23.168-35.541333-12.501333-8.149334z m70.656 17.834667l-14.848 1.28 3.157333 35.413333 23.04-27.008-11.306666-9.685333z m103.637333 68.48l-13.397333-6.613333-17.749333 35.968 36.949333-15.616-5.802667-13.738667z m50.048 51.882667l-13.482666-6.442667-13.653334 28.458667 30.677334-7.509334-3.541334-14.506666z m48.384 113.493333l-8.106666-12.586667-33.450667 21.632 39.424 5.717334 2.133333-14.805334z m-126.933333 369.749333h-14.933333v0.085334l14.933333-0.085334z m-182.869333 84.309334h-14.933334v11.264l10.837334 3.114666 4.096-14.378666z m-49.621334 0l4.096 14.378666 10.837334-3.114666v-11.264h-14.933334z m10.453334-3.413334h-14.933334v14.933334h14.933334v-14.933334z m0-101.632v-14.933333h-14.933334v14.933333h14.933334z m28.8 101.632v14.933334h14.933333v-14.933334h-14.933333z m0-101.632h14.933333v-14.933333h-14.933333v14.933333z m392.192-216.832c0-35.072-23.381333-64.725333-55.210667-74.24l-8.533333 28.629334c19.498667 5.845333 33.877333 24.106667 33.877333 45.610666h29.866667z m-77.056 77.397334a77.312 77.312 0 0 0 77.056-77.397334h-29.866667c0 26.325333-21.504 47.616-47.104 47.530667l-0.085333 29.866667z m-7.68-0.426667c2.56 0.298667 5.034667 0.426667 7.722666 0.426667v-29.866667c-1.664 0-3.114667-0.085333-4.693333-0.256l-2.986667 29.738667z m37.248 19.370667c0-20.650667-11.818667-38.570667-28.842667-47.445334l-13.781333 26.496c7.594667 3.968 12.8 11.946667 12.8 20.906667h29.866666z m-53.461334 53.461333c29.482667 0 53.461333-23.978667 53.461334-53.461333h-29.866667a23.68 23.68 0 0 1-23.594667 23.594666v29.866667z m-4.949333-0.256c1.109333 0.085333 2.986667 0.256 4.949333 0.256v-29.866667a32.597333 32.597333 0 0 1-2.474666-0.128l-2.474667 29.738667z m27.349333 20.778667c0-16.469333-5.12-31.616-13.866666-44.16l-24.533334 17.024c5.418667 7.765333 8.533333 17.066667 8.533334 27.136h29.866666z m-77.525333 77.482666a77.610667 77.610667 0 0 0 77.525333-77.482666h-29.866666c0 26.24-21.376 47.616-47.658667 47.616v29.866666z m-43.306667-13.269333c12.330667 8.234667 27.221333 13.269333 43.306667 13.269333v-29.866666c-9.770667 0-18.944-3.029333-26.709333-8.234667l-16.64 24.832z m26.325334 2.688c0-7.509333-1.578667-14.549333-4.266667-20.906667l-27.52 11.605334c1.28 2.986667 1.92 6.058667 1.92 9.301333h29.866667z m-53.461334 53.504c29.482667 0 53.461333-24.021333 53.461334-53.504h-29.866667a23.68 23.68 0 0 1-23.594667 23.637333v29.866667z m-39.381333-17.28c9.813333 10.666667 23.893333 17.28 39.381333 17.28v-29.866667a23.552 23.552 0 0 1-17.408-7.594666l-21.973333 20.181333z m25.984-8.661333l-0.042667-1.450667h-29.866666l0.042666 2.602667 29.866667-1.152z m0.042667 2.602666l-0.042667-2.56-29.866667 1.109334 0.042667 1.450666h29.866667z m-77.482667 77.525334a77.610667 77.610667 0 0 0 77.482667-77.525334h-29.866667c0 26.24-21.376 47.658667-47.658667 47.658667v29.866667z m-77.525333-77.525334c0 42.752 34.773333 77.525333 77.482666 77.525334v-29.866667a47.701333 47.701333 0 0 1-47.616-47.658667h-29.866666z m77.482666-77.525333a77.568 77.568 0 0 0-77.482666 77.525333h29.866666c0-26.24 21.376-47.658667 47.658667-47.658666v-29.866667z m64.938667 35.242667a77.568 77.568 0 0 0-64.896-35.242667v29.866667c16.64 0 31.317333 8.661333 39.893333 21.76l25.002667-16.384z m25.941333-41.344a53.76 53.76 0 0 0-53.290666 47.957333l29.696 3.157333a23.893333 23.893333 0 0 1 23.594666-21.248v-29.866666z m23.552 5.461333a53.589333 53.589333 0 0 0-23.552-5.461333v29.866666c3.754667 0 7.296 0.853333 10.410667 2.432l13.141333-26.837333z m-30.506666-18.901333c0 14.634667 4.096 28.373333 11.178666 40.021333l25.557334-15.445333a47.445333 47.445333 0 0 1-6.826667-24.576h-29.866667z m77.525333-77.525334a77.568 77.568 0 0 0-77.525333 77.525334h29.866666c0-26.282667 21.376-47.658667 47.658667-47.658667v-29.866667z m23.936 3.84a78.122667 78.122667 0 0 0-23.936-3.84v29.866667c5.034667 0 10.026667 0.853333 14.805333 2.389333l9.130667-28.416z m-22.4-0.426666c0 7.253333 1.450667 14.037333 4.010667 20.266666l27.648-11.306666a23.338667 23.338667 0 0 1-1.792-8.96h-29.866667z m53.461333-53.461334c-29.44 0-53.461333 23.978667-53.461333 53.461334h29.866667c0-12.970667 10.624-23.594667 23.594666-23.594667v-29.866667z m0.298667 0h-0.298667v29.866667h0.298667v-29.866667z m-53.76-42.965333c0 32.341333 19.882667 60.16 48.128 71.722667l11.306667-27.648a47.701333 47.701333 0 0 1-29.568-44.074667h-29.866667z m55.168-74.197333a77.568 77.568 0 0 0-55.168 74.197333h29.866667c0-21.418667 14.250667-39.68 33.92-45.610667l-8.618667-28.586666z m-31.232-19.797334c0 20.608 11.690667 38.4 28.586667 47.36l13.909333-26.453333a23.552 23.552 0 0 1-12.629333-20.906667h-29.866667z m17.066667-39.210666c-10.453333 9.770667-17.066667 23.68-17.066667 39.253333h29.866667c0-6.869333 2.901333-13.013333 7.552-17.365333l-20.352-21.888z m8.021333 25.984c0.554667 0 2.346667 0 4.266667-0.256l-4.224-29.568 0.512-0.042667h-0.597334v29.866667z m-77.525333-77.525334c0 42.752 34.773333 77.525333 77.525333 77.525334v-29.866667a47.701333 47.701333 0 0 1-47.658667-47.658667h-29.866666z m16.64-47.957333c-10.325333 13.141333-16.64 29.866667-16.64 47.957333h29.866666c0-11.093333 3.84-21.333333 10.24-29.525333l-23.466666-18.432z m11.434666 24.149333h0.341334v-29.866666h-0.341334v29.866666zM717.226667 220.544c0 29.44 23.936 53.589333 53.461333 53.589333v-29.866666a23.765333 23.765333 0 0 1-23.594667-23.722667h-29.866666z m2.133333-15.189333c-1.408 4.949333-2.133333 9.984-2.133333 15.189333h29.866666c0-2.432 0.341333-4.650667 0.938667-6.741333l-28.629333-8.448z m-19.925333 29.44a76.8 76.8 0 0 0 42.538666-12.8l-16.512-24.874667a46.933333 46.933333 0 0 1-26.026666 7.765333v29.866667z m-77.525334-77.525334c0 42.752 34.773333 77.482667 77.525334 77.482667v-29.866667a47.701333 47.701333 0 0 1-47.658667-47.616h-29.866667z m0.469334-8.192c-0.170667 2.133333-0.426667 5.12-0.426667 8.192h29.866667c0-1.493333 0.085333-3.114667 0.298666-5.504l-29.738666-2.688z m-8.96 24.576c12.586667 0 23.978667-4.394667 33.024-11.477333l-18.346667-23.509333a23.509333 23.509333 0 0 1-14.677333 5.12v29.866666z m-51.626667-39.509333c6.229333 22.656 26.965333 39.509333 51.626667 39.509333v-29.866666a23.765333 23.765333 0 0 1-22.784-17.493334l-28.8 7.850667z m-42.837333 48.384a77.653333 77.653333 0 0 0 70.954666-46.250667l-27.306666-12.117333a47.786667 47.786667 0 0 1-43.648 28.501333v29.866667z m-72.789334-50.773333c10.922667 29.610667 39.381333 50.773333 72.789334 50.773333v-29.866667c-20.48 0-38.016-12.970667-44.757334-31.232l-27.989333 10.325334z m-23.381333 38.869333c25.088 0 45.994667-17.28 51.882667-40.362667l-28.928-7.338666a23.722667 23.722667 0 0 1-22.954667 17.834666V170.666667z m-29.909333-9.173333c8.448 5.717333 18.816 9.173333 29.909333 9.173333v-29.866667a23.466667 23.466667 0 0 1-13.141333-4.053333l-16.768 24.746667z m23.808-4.181334c0-3.541333-0.256-6.826667-0.597334-9.898666l-29.653333 3.413333c0.256 2.304 0.426667 4.394667 0.426667 6.485333h29.866666zM339.2 234.752a77.568 77.568 0 0 0 77.482667-77.482667h-29.866667c0 26.24-21.333333 47.616-47.616 47.616v29.866667z m-45.781333-14.976c12.757333 9.301333 28.586667 14.976 45.781333 14.976v-29.866667c-10.538667 0-20.224-3.413333-28.16-9.216l-17.621333 24.106667z m24.32-5.12c0-3.285333-0.256-6.442667-0.853334-9.6l-29.354666 5.333333a23.466667 23.466667 0 0 1 0.341333 4.266667h29.866667zM264.149333 268.117333c29.44 0 53.546667-23.893333 53.546667-53.461333h-29.866667c0 12.928-10.666667 23.594667-23.68 23.594667v29.866666z m-5.205333-0.256c1.28 0.128 3.157333 0.256 5.205333 0.256v-29.866666a39.808 39.808 0 0 1-2.901333-0.170667l-2.304 29.781333z m0.042667 0l2.218666-29.781333-2.218666 29.781333z m37.376 32.170667c0-23.253333-10.282667-44.074667-26.410667-58.24l-19.712 22.4c9.984 8.832 16.256 21.589333 16.256 35.84h29.866667zM218.88 377.514667a77.568 77.568 0 0 0 77.482667-77.482667h-29.866667c0 26.24-21.376 47.616-47.616 47.616v29.866667z m-9.557333-0.597334c2.944 0.341333 6.186667 0.597333 9.557333 0.597334v-29.866667c-1.834667 0-3.797333-0.128-5.845333-0.384l-3.712 29.653333z m29.653333 13.866667a53.333333 53.333333 0 0 0-17.834667-39.850667l-19.882666 22.272a23.466667 23.466667 0 0 1 7.850666 17.578667h29.866667z m-24.874667 45.141333c14.933333-9.472 24.874667-26.112 24.874667-45.141333h-29.866667a23.552 23.552 0 0 1-11.008 19.925333l16 25.173334z m53.973334 48c0-36.096-24.746667-66.474667-58.24-75.093333l-7.424 28.928c20.608 5.290667 35.84 24.021333 35.84 46.165333h29.866666z m-42.965334 69.418667a77.653333 77.653333 0 0 0 42.965334-69.418667h-29.866667c0 18.645333-10.752 34.858667-26.453333 42.666667l13.354666 26.752z m40.704 24.746667c0-26.624-19.541333-48.682667-44.970666-52.864l-4.821334 29.482666a23.808 23.808 0 0 1 19.925334 23.381334h29.866666z m-5.461333 23.466666c3.413333-6.997333 5.461333-14.933333 5.461333-23.466666h-29.866666c0 3.712-0.853333 7.168-2.432 10.325333l26.837333 13.141333z m9.258667-25.770666c-9.898667 0-19.370667 1.962667-27.989334 5.248l10.666667 27.904a48.64 48.64 0 0 1 17.322667-3.285334v-29.866666z m77.525333 77.525333a77.568 77.568 0 0 0-77.525333-77.482667v29.866667c26.282667 0 47.658667 21.333333 47.658666 47.616h29.866667z m-12.757333 42.538667a76.8 76.8 0 0 0 12.8-42.538667h-29.866667a46.933333 46.933333 0 0 1-7.808 26.026667l24.874667 16.512z m1.962666-25.984c-7.125333 0-13.824 1.450667-19.882666 3.84l10.965333 27.776a24.192 24.192 0 0 1 8.96-1.706667v-29.866667z m53.333334 49.408a53.546667 53.546667 0 0 0-53.333334-49.408v29.866666c12.373333 0 22.613333 9.642667 23.552 21.888l29.781334-2.346666z m40.021333-46.378667c-29.312 0-54.954667 16.426667-68.010667 40.405333l26.197334 14.293334c8.106667-14.762667 23.893333-24.832 41.813333-24.832v-29.866667z m77.525333 77.482667a77.568 77.568 0 0 0-77.525333-77.482667v29.866667c26.24 0 47.658667 21.376 47.658667 47.616h29.866666z m-77.525333 77.525333a77.568 77.568 0 0 0 77.525333-77.525333h-29.866666c0 26.282667-21.418667 47.658667-47.658667 47.658666v29.866667z m-77.525333-77.525333c0 42.752 34.773333 77.525333 77.525333 77.525333v-29.866667a47.744 47.744 0 0 1-47.658667-47.658666h-29.866666z m0.170666-5.077334c-0.170667 2.005333-0.170667 3.84-0.170666 5.12h29.866666c0-1.450667 0-2.133333 0.085334-2.816l-29.781334-2.304z m-16.085333 31.744c17.536 0 33.237333-8.533333 42.965333-21.717333l-24.021333-17.749333a23.509333 23.509333 0 0 1-18.944 9.6v29.866666z m-53.504-53.461333c0 29.44 24.021333 53.461333 53.504 53.461333v-29.866666a23.68 23.68 0 0 1-23.637333-23.594667h-29.866667z m4.906667-22.4a53.333333 53.333333 0 0 0-4.906667 22.357333h29.866667a23.466667 23.466667 0 0 1 2.176-9.898666l-27.136-12.458667z m-18.048 29.738667c14.250667 0 27.648-3.84 39.210666-10.666667l-15.189333-25.728a47.018667 47.018667 0 0 1-24.021333 6.528v29.866667z m-77.482667-77.482667c0 42.752 34.773333 77.482667 77.482667 77.482667v-29.866667a47.701333 47.701333 0 0 1-47.616-47.616h-29.866667z m15.317333-46.165333a76.8 76.8 0 0 0-15.36 46.165333h29.866667a46.933333 46.933333 0 0 1 9.386667-28.245333l-23.893334-17.92z m4.778667 24.618666c3.285333 0 6.826667-0.298667 10.453333-1.109333l-6.613333-29.141333a17.365333 17.365333 0 0 1-3.84 0.384v29.866666z m-53.461333-53.504c0 29.525333 23.978667 53.504 53.461333 53.504v-29.866666a23.68 23.68 0 0 1-23.594667-23.594667h-29.866666z m22.741333-43.818666a53.333333 53.333333 0 0 0-22.741333 43.818666h29.866666a23.466667 23.466667 0 0 1 9.984-19.328l-17.066666-24.490666z m-68.437333-50.346667a77.653333 77.653333 0 0 0 76.842666 77.525333l0.298667-29.866666a47.744 47.744 0 0 1-47.274667-47.658667h-29.866666z m50.090666-72.533333a77.525333 77.525333 0 0 0-50.090666 72.533333h29.866666c0-20.309333 12.8-37.76 30.72-44.544l-10.538666-27.946667z m-31.317333-20.608c0 21.162667 12.202667 39.424 30.08 48.042666l12.970667-26.88a23.466667 23.466667 0 0 1-13.226667-21.162666h-29.866667z m52.138667-53.461334A53.546667 53.546667 0 0 0 131.84 391.082667h29.866667c0-12.8 10.24-23.296 23.04-23.594667l-0.768-29.866667zM141.226667 300.330667c0 27.008 13.909333 50.858667 34.901333 64.682666l16.426667-24.917333a47.573333 47.573333 0 0 1-21.461334-39.765333h-29.866666z m77.525333-77.525334A77.568 77.568 0 0 0 141.226667 300.373333h29.866666c0-26.24 21.418667-47.658667 47.658667-47.658666v-29.866667z m19.584 2.474667a76.245333 76.245333 0 0 0-19.584-2.474667v29.866667c4.266667 0 8.234667 0.512 11.946667 1.493333l7.637333-28.885333z m-27.861333-10.410667c0 13.098667 4.736 25.173333 12.629333 34.517334l22.784-19.328a23.466667 23.466667 0 0 1-5.546667-15.189334h-29.866666zM263.936 161.28c-29.525333 0-53.461333 24.021333-53.461333 53.589333h29.866666c0-13.141333 10.624-23.722667 23.594667-23.722666v-29.866667z m23.04 5.205333a53.461333 53.461333 0 0 0-23.04-5.205333v29.866667c3.669333 0 7.168 0.853333 10.112 2.261333l12.928-26.922667z m-25.642667-9.002666c0 9.898667 1.92 19.328 5.248 27.861333l27.861334-10.794667a47.061333 47.061333 0 0 1-3.242667-17.066666h-29.866667zM338.773333 79.957333A77.568 77.568 0 0 0 261.333333 157.44h29.866667c0-26.282667 21.376-47.658667 47.616-47.658667v-29.866666z m55.893334 23.893334a77.013333 77.013333 0 0 0-55.893334-23.893334v29.866667c13.482667 0 25.6 5.546667 34.304 14.634667l21.589334-20.608z m27.648-40.064c-28.032 0-51.2 21.674667-53.333334 49.194666l29.781334 2.346667a23.68 23.68 0 0 1 23.552-21.674667v-29.866666zM469.333333 91.690667A53.418667 53.418667 0 0 0 422.4 63.786667v29.866666c8.96 0 16.768 4.949333 20.736 12.288L469.333333 91.733333zM518.485333 27.733333a77.653333 77.653333 0 0 0-77.098666 69.546667l29.696 3.072a47.786667 47.786667 0 0 1 47.402666-42.752v-29.866667z m77.141334 69.845334A77.568 77.568 0 0 0 518.485333 27.733333v29.866667c24.661333 0 45.056 18.858667 47.402667 42.88l29.738667-2.901333z m17.365333-30.890667c-18.688 0-35.242667 9.642667-44.757333 24.192l25.045333 16.298667a23.552 23.552 0 0 1 19.712-10.624v-29.866667z m53.333333 48.810667a53.674667 53.674667 0 0 0-53.333333-48.810667v29.866667c12.245333 0 22.485333 9.514667 23.552 21.632l29.738667-2.688z m32.64-35.541334a77.226667 77.226667 0 0 0-58.88 27.178667l22.698667 19.413333a47.36 47.36 0 0 1 36.181333-16.725333v-29.866667zM776.533333 157.44a77.610667 77.610667 0 0 0-77.525333-77.525333v29.866666c26.24 0 47.658667 21.376 47.658667 47.658667h29.866666z m-8.106666 34.474667c5.12-10.368 8.106667-22.058667 8.106666-34.474667h-29.866666c0 7.637333-1.834667 14.805333-4.992 21.248l26.794666 13.226667z m1.877333-24.661334c-7.509333 0-14.634667 1.578667-21.034667 4.266667l11.605334 27.52a24.32 24.32 0 0 1 9.386666-1.92v-29.866667z m53.461333 53.461334c0-29.44-23.978667-53.461333-53.461333-53.461334v29.866667c12.970667 0 23.594667 10.624 23.594667 23.594667h29.866666z m-5.205333 22.912c3.328-6.912 5.205333-14.72 5.205333-22.912h-29.866666c0 3.626667-0.853333 7.04-2.261334 10.026666l26.922667 12.928z m1.066667-23.125334c-6.229333 0-12.288 0.768-18.090667 2.176l7.125333 29.013334c3.541333-0.853333 7.253333-1.322667 10.965334-1.322667v-29.866667z m77.482666 77.525334a77.610667 77.610667 0 0 0-77.482666-77.525334v29.866667c26.24 0 47.616 21.376 47.616 47.658667h29.866666z m-35.498666 65.152c21.333333-13.824 35.498667-37.802667 35.498666-65.152h-29.866666c0 16.768-8.618667 31.530667-21.845334 40.106666l16.213334 25.045334z m39.978666 25.685333c0-27.050667-20.138667-49.28-45.952-52.992l-4.266666 29.568c11.477333 1.621333 20.352 11.52 20.352 23.466667h29.866666z m-28.544 47.274667c16.810667-8.96 28.544-26.752 28.544-47.274667h-29.866666a23.808 23.808 0 0 1-12.714667 20.906667l14.08 26.368z m-443.733333 277.034666c20.565333 0 37.290667 16.725333 37.290667 37.290667h29.866666c0-37.077333-30.08-67.157333-67.157333-67.157333v29.866666z m-37.162667 37.290667c0-20.565333 16.725333-37.290667 37.162667-37.290667v-29.866666c-36.949333 0-67.029333 30.122667-67.029333 67.157333h29.866666z m37.162667 37.290667a37.248 37.248 0 0 1-37.162667-37.290667h-29.866666c0 36.992 29.952 67.157333 67.029333 67.157333v-29.866666z m37.290667-37.290667a37.333333 37.333333 0 0 1-37.290667 37.290667v29.866666c37.077333 0 67.157333-30.122667 67.157333-67.157333h-29.866666z m-117.376-26.922667c0 7.253333-5.930667 13.226667-13.354667 13.226667v29.866667c23.893333 0 43.221333-19.285333 43.221333-43.093334h-29.866666z m-13.354667-13.269333c7.381333 0 13.354667 6.016 13.354667 13.226667h29.866666c0-23.850667-19.498667-43.093333-43.221333-43.093334v29.866667z m-13.226667 13.226667c0-7.253333 5.973333-13.226667 13.226667-13.226667v-29.866667c-23.765333 0-43.093333 19.328-43.093333 43.093334h29.866666z m13.226667 13.269333a13.226667 13.226667 0 0 1-13.226667-13.226667h-29.866666c0 23.722667 19.2 43.093333 43.093333 43.093334v-29.866667z m-29.226667-83.370667a37.333333 37.333333 0 0 1-37.290666 37.248v29.866667c37.077333 0 67.157333-30.08 67.157333-67.114667h-29.866667z m-37.290666-37.290666c20.565333 0 37.290667 16.725333 37.290666 37.290666h29.866667c0-37.077333-30.08-67.157333-67.157333-67.157333v29.866667z m-37.290667 37.290666c0-20.565333 16.725333-37.290667 37.290667-37.290666v-29.866667c-37.034667 0-67.157333 30.08-67.157334 67.157333h29.866667z m37.290667 37.248a37.333333 37.333333 0 0 1-37.290667-37.248h-29.866667c0 37.034667 30.122667 67.114667 67.157334 67.114667v-29.866667zM225.28 578.304c0 7.296-5.973333 13.226667-13.226667 13.226667v29.866666c23.765333 0 43.093333-19.285333 43.093334-43.093333h-29.866667z m-13.354667-13.354667c7.338667 0 13.354667 5.973333 13.354667 13.354667h29.866667c0-23.893333-19.456-43.221333-43.221334-43.221333v29.866666z m-13.226666 13.354667c0-7.338667 5.973333-13.354667 13.226666-13.354667v-29.866666c-23.893333 0-43.093333 19.498667-43.093333 43.221333h29.866667z m13.312 13.226667a13.354667 13.354667 0 0 1-13.354667-13.226667h-29.866667c0 23.893333 19.498667 43.093333 43.221334 43.093333v-29.866666z m15.530666-107.392a37.333333 37.333333 0 0 1-37.290666 37.290666v29.866667c37.077333 0 67.157333-30.122667 67.157333-67.157333h-29.866667z m-37.290666-37.290667c20.565333 0 37.290667 16.810667 37.290666 37.290667h29.866667c0-36.949333-30.08-67.157333-67.157333-67.157334v29.866667z m-37.248 37.290667c0-20.565333 16.725333-37.290667 37.248-37.290667v-29.866667c-37.034667 0-67.114667 30.08-67.114667 67.157334h29.866667z m37.248 37.290666a37.333333 37.333333 0 0 1-37.248-37.290666h-29.866667c0 37.034667 30.08 67.157333 67.114667 67.157333v-29.866667z m8.192-130.432a13.354667 13.354667 0 0 1-13.226667 13.354667v29.866667c23.850667 0 43.093333-19.498667 43.093333-43.221334h-29.866666z m-13.226667-13.226666c7.253333 0 13.226667 5.930667 13.226667 13.226666h29.866666c0-23.808-19.328-43.093333-43.093333-43.093333v29.866667z m-13.269333 13.226666a13.226667 13.226667 0 0 1 13.226666-13.226666v-29.866667c-23.722667 0-43.093333 19.157333-43.093333 43.093333h29.866667z m13.226666 13.354667a13.312 13.312 0 0 1-13.226666-13.354667h-29.866667c0 23.850667 19.285333 43.221333 43.093333 43.221334v-29.866667z m70.656-104.106667a37.333333 37.333333 0 0 1-37.290666 37.248v29.866667c37.077333 0 67.157333-30.08 67.157333-67.114667h-29.866667z m-37.290666-37.290666c20.565333 0 37.290667 16.725333 37.290666 37.290666h29.866667c0-37.077333-30.08-67.157333-67.157333-67.157333v29.866667z m-37.290667 37.290666c0-20.565333 16.768-37.290667 37.290667-37.290666v-29.866667c-37.034667 0-67.157333 30.08-67.157334 67.157333h29.866667z m37.290667 37.248a37.333333 37.333333 0 0 1-37.290667-37.248h-29.866667c0 37.034667 30.122667 67.114667 67.157334 67.114667v-29.866667z m45.269333-109.397333c-7.253333 0-13.226667-5.973333-13.226667-13.226667h-29.866666c0 23.765333 19.328 43.093333 43.093333 43.093334v-29.866667z m13.354667-13.226667c0 7.253333-5.973333 13.226667-13.354667 13.226667v29.866667c23.68 0 43.221333-19.114667 43.221333-43.093334h-29.866666z m-13.354667-13.354666c7.338667 0 13.354667 5.973333 13.354667 13.354666h29.866666c0-23.936-19.456-43.221333-43.221333-43.221333v29.866667z m-13.226667 13.354666c0-7.381333 6.016-13.354667 13.226667-13.354666v-29.866667c-23.850667 0-43.093333 19.498667-43.093333 43.221333h29.866666z m88.149334-20.138666a37.333333 37.333333 0 0 1-37.290667-37.248h-29.866667c0 37.034667 30.122667 67.114667 67.157334 67.114666v-29.866666z m37.290666-37.248a37.418667 37.418667 0 0 1-37.290666 37.248v29.866666c36.949333 0 67.157333-30.08 67.157333-67.114666h-29.866667z m-37.290666-37.290667c20.565333 0 37.290667 16.725333 37.290666 37.290667h29.866667c0-37.077333-30.122667-67.157333-67.157333-67.157334v29.866667z m-37.290667 37.290667c0-20.565333 16.725333-37.290667 37.290667-37.290667v-29.866667c-37.034667 0-67.157333 30.08-67.157334 67.157334h29.866667z m120.789333-26.88c-7.253333 0-13.226667-5.973333-13.226666-13.226667h-29.866667c0 23.765333 19.328 43.093333 43.093333 43.093333v-29.866666z m13.354667-13.226667c0 7.210667-5.973333 13.226667-13.354667 13.226667v29.866666c23.722667 0 43.221333-19.242667 43.221334-43.093333h-29.866667z m-13.354667-13.226667c7.381333 0 13.354667 5.973333 13.354667 13.226667h29.866667c0-23.893333-19.498667-43.093333-43.221334-43.093333v29.866666z m-13.226666 13.226667c0-7.296 5.973333-13.226667 13.226666-13.226667v-29.866666c-23.765333 0-43.093333 19.285333-43.093333 43.093333h29.866667z m109.397333 25.173333a37.333333 37.333333 0 0 1-37.290667-37.290666h-29.866666c0 37.034667 30.08 67.157333 67.157333 67.157333v-29.866667z m37.248-37.290666a37.333333 37.333333 0 0 1-37.248 37.290666v29.866667c37.034667 0 67.114667-30.122667 67.114667-67.157333h-29.866667z m-37.248-37.290667c20.522667 0 37.248 16.725333 37.248 37.290667h29.866667c0-37.077333-30.08-67.157333-67.114667-67.157334v29.866667z m-37.290667 37.290667c0-20.565333 16.725333-37.290667 37.290667-37.290667v-29.866667c-37.077333 0-67.157333 30.08-67.157333 67.157334h29.866666z m131.754667 28.245333a13.354667 13.354667 0 0 1-13.354667-13.226667h-29.866666c0 23.850667 19.498667 43.093333 43.221333 43.093334v-29.866667z m13.226667-13.226667c0 7.381333-5.802667 13.226667-13.226667 13.226667v29.866667c23.893333 0 43.093333-19.2 43.093333-43.093334h-29.866666z m-13.226667-13.354666c7.253333 0 13.226667 5.930667 13.226667 13.354666h29.866666c0-23.893333-19.242667-43.221333-43.093333-43.221333v29.866667z m-13.354667 13.354666c0-7.338667 5.973333-13.354667 13.354667-13.354666v-29.866667c-23.893333 0-43.221333 19.456-43.221333 43.221333h29.866666z m62.08 37.205334c0-20.565333 16.725333-37.290667 37.290667-37.290667v-29.866667c-37.077333 0-67.157333 30.08-67.157333 67.157334h29.866666z m37.290667 37.248a37.333333 37.333333 0 0 1-37.290667-37.248h-29.866666c0 37.034667 30.08 67.114667 67.157333 67.114666v-29.866666z m37.248-37.248a37.333333 37.333333 0 0 1-37.248 37.248v29.866666c37.034667 0 67.114667-30.08 67.114667-67.114666h-29.866667z m-37.248-37.290667c20.522667 0 37.248 16.725333 37.248 37.290667h29.866667c0-37.077333-30.08-67.157333-67.114667-67.157334v29.866667z m57.898667 100.565333c0-7.253333 5.973333-13.226667 13.226666-13.226666v-29.866667c-23.765333 0-43.093333 19.328-43.093333 43.093333h29.866667z m13.226666 13.354667c-7.168 0-13.226667-5.973333-13.226666-13.354667h-29.866667c0 23.722667 19.285333 43.221333 43.093333 43.221334v-29.866667z m13.269334-13.354667a13.354667 13.354667 0 0 1-13.226667 13.354667v29.866667c23.893333 0 43.093333-19.498667 43.093333-43.221334h-29.866666z m-13.226667-13.226666c7.253333 0 13.226667 5.973333 13.226667 13.226666h29.866666c0-23.765333-19.328-43.093333-43.093333-43.093333v29.866667z m12.245333 90.538666c0-20.565333 16.725333-37.290667 37.290667-37.290666v-29.866667c-37.077333 0-67.157333 30.08-67.157333 67.157333h29.866666z m37.290667 37.248a37.333333 37.333333 0 0 1-37.290667-37.248h-29.866666c0 37.034667 30.08 67.114667 67.157333 67.114667v-29.866667z m37.248-37.248a37.333333 37.333333 0 0 1-37.248 37.248v29.866667c37.034667 0 67.114667-30.08 67.114667-67.114667h-29.866667z m-37.248-37.290666c20.522667 0 37.248 16.725333 37.248 37.290666h29.866667c0-37.077333-30.08-67.157333-67.114667-67.157333v29.866667zM607.573333 787.797333a37.333333 37.333333 0 0 1-37.248-37.290666h-29.866666c0 37.034667 30.08 67.157333 67.114666 67.157333v-29.866667z m37.290667-37.290666a37.333333 37.333333 0 0 1-37.290667 37.290666v29.866667c37.077333 0 67.157333-30.122667 67.157334-67.157333h-29.866667z m-37.290667-37.290667c20.565333 0 37.290667 16.725333 37.290667 37.290667h29.866667c0-37.077333-30.08-67.157333-67.157334-67.157334v29.866667z m-37.248 37.290667c0-20.565333 16.725333-37.290667 37.248-37.290667v-29.866667c-37.034667 0-67.114667 30.122667-67.114666 67.157334h29.866666z m128-16.810667c-7.253333 0-13.226667-5.973333-13.226666-13.226667h-29.866667c0 23.765333 19.328 43.093333 43.093333 43.093334v-29.866667z m13.269334-13.141333a13.226667 13.226667 0 0 1-13.226667 13.141333v29.866667a43.093333 43.093333 0 0 0 43.093333-43.221334l-29.866666 0.213334z m-13.226667-13.44c7.253333 0 13.226667 5.888 13.226667 13.354666h29.866666c0-23.893333-19.285333-43.221333-43.093333-43.221333v29.866667z m-13.226667 13.354666c0-7.381333 5.973333-13.354667 13.226667-13.354666v-29.866667c-23.893333 0-43.093333 19.498667-43.093333 43.221333h29.866666z m83.754667-29.781333a37.333333 37.333333 0 0 1-37.290667-37.248h-29.866666c0 37.034667 30.122667 67.114667 67.157333 67.114667v-29.866667z m37.290667-37.248a37.376 37.376 0 0 1-37.290667 37.248v29.866667c36.949333 0 67.157333-30.08 67.157333-67.114667h-29.866666z m-37.290667-37.290667c20.565333 0 37.290667 16.725333 37.290667 37.290667h29.866666c0-37.077333-30.08-67.157333-67.157333-67.157333v29.866666z m-37.290667 37.290667c0-20.565333 16.725333-37.290667 37.290667-37.290667v-29.866666c-37.034667 0-67.157333 30.08-67.157333 67.157333h29.866666z m105.685334-74.112c0 7.296-5.973333 13.226667-13.269334 13.226667v29.866666c23.808 0 43.093333-19.285333 43.093334-43.093333h-29.866667z m-13.354667-13.226667c7.338667 0 13.354667 6.016 13.354667 13.226667h29.866666c0-23.850667-19.541333-43.093333-43.221333-43.093333v29.866666z m-13.226667 13.226667a13.226667 13.226667 0 0 1 13.226667-13.226667v-29.866666c-23.765333 0-43.093333 19.2-43.093333 43.093333h29.866666z m13.312 13.226667a13.312 13.312 0 0 1-13.354666-13.226667h-29.866667c0 24.021333 19.541333 43.093333 43.221333 43.093333v-29.866666z m10.666667-203.733334c0-7.381333 6.058667-13.354667 13.226667-13.354666v-29.866667c-23.808 0-43.093333 19.498667-43.093334 43.221333h29.866667z m13.226667 13.226667a13.226667 13.226667 0 0 1-13.226667-13.226667h-29.866667c0 23.893333 19.370667 43.093333 43.093334 43.093334v-29.866667z m13.269333-13.226667a13.226667 13.226667 0 0 1-13.226667 13.226667v29.866667c23.765333 0 43.093333-19.2 43.093334-43.093334h-29.866667z m-13.226667-13.354666c7.253333 0 13.226667 5.930667 13.226667 13.354666h29.866667c0-23.893333-19.285333-43.221333-43.093334-43.221333v29.866667zM810.666667 482.901333c0-20.565333 16.725333-37.290667 37.290666-37.290666v-29.866667c-37.034667 0-67.157333 30.08-67.157333 67.157333h29.866667z m37.290666 37.248a37.333333 37.333333 0 0 1-37.290666-37.248h-29.866667c0 37.034667 30.122667 67.157333 67.157333 67.157334v-29.866667z m37.290667-37.248a37.333333 37.333333 0 0 1-37.290667 37.248v29.866667c37.034667 0 67.157333-30.08 67.157334-67.114667h-29.866667z m-37.290667-37.290666c20.565333 0 37.290667 16.725333 37.290667 37.290666h29.866667c0-37.077333-30.122667-67.157333-67.157334-67.157333v29.866667z m-289.365333 359.168v-109.482667h-29.866667v109.482667h29.866667z m65.194667 86.528c0-47.872-32.170667-88.32-75.989334-100.864l-8.234666 28.714666c31.36 8.96 54.357333 37.973333 54.357333 72.106667h29.866667z m-104.96 104.96a105.088 105.088 0 0 0 104.96-104.96h-29.866667c0 41.386667-33.706667 75.093333-75.093333 75.093333v29.866667zM413.866667 891.306667a105.088 105.088 0 0 0 104.96 104.96v-29.866667c-41.386667 0-75.093333-33.706667-75.093334-75.093333h-29.866666z m76.074666-100.864a105.130667 105.130667 0 0 0-76.117333 100.864h29.866667c0-34.133333 23.04-63.146667 54.485333-72.149334l-8.234667-28.714666z m-10.837333-95.146667v109.482667h29.866667v-109.482667h-29.866667z m20.906667-20.949333a20.906667 20.906667 0 0 0-20.906667 20.906666h29.866667a8.96 8.96 0 0 1-8.96 8.96v-29.866666z m37.632 0h-37.589334v29.866666h37.589334v-29.866666z m20.949333 20.906666c0-11.52-9.386667-20.906667-20.906667-20.906666v29.866666a8.96 8.96 0 0 1-8.96-8.96h29.866667z m-39.168 106.112V699.733333h-29.866667v101.632h29.866667z m13.866667-14.933333h-28.8v29.866667h28.8v-29.866667z m-14.933334-86.698667v101.632h29.866667V699.733333h-29.866667z m-13.866666 14.933334h28.8v-29.866667h-28.8v29.866667z m14.421333 241.365333a64.853333 64.853333 0 0 1-64.768-64.725333h-29.866667a94.72 94.72 0 0 0 94.634667 94.592v-29.866667z m64.725333-64.725333a64.853333 64.853333 0 0 1-64.725333 64.725333v29.866667a94.72 94.72 0 0 0 94.592-94.592h-29.866667z m-64.725333-64.725334a64.853333 64.853333 0 0 1 64.725333 64.725334h29.866667a94.72 94.72 0 0 0-94.592-94.592v29.866666z m-64.768 64.725334a64.853333 64.853333 0 0 1 64.768-64.725334v-29.866666a94.72 94.72 0 0 0-94.592 94.592h29.866667z" fill="#000000" opacity=".3" p-id="4252"></path></svg>