<?xml version="1.0" encoding="iso-8859-1"?>
<!-- Generator: Adobe Illustrator 19.0.0, SVG Export Plug-In . SVG Version: 6.00 Build 0)  -->
<svg version="1.1" id="Layer_1" xmlns="http://www.w3.org/2000/svg" xmlns:xlink="http://www.w3.org/1999/xlink" x="0px" y="0px"
	 viewBox="0 0 512 512" style="enable-background:new 0 0 512 512;" xml:space="preserve">
<g transform="translate(1 1)">
	<path style="fill:#FFDD09;" d="M229.4,7.533L229.4,7.533c11.093,22.187,17.067,51.2,17.067,82.773v307.2
		c0,35.84,3.413,70.827,8.533,104.96c5.973-34.133,8.533-69.12,8.533-104.96v-307.2c0-31.573,5.973-60.587,17.067-82.773H229.4z"/>
	<path style="fill:#FFFFFF;" d="M246.467,90.307c0-31.573-5.973-60.587-17.067-82.773h-25.6
		c22.187,22.187,34.133,51.2,34.133,82.773v307.2c0,35.84,5.973,70.827,17.067,104.96c-5.973-34.133-8.533-69.12-8.533-104.96
		V90.307z"/>
	<path style="fill:#FD9808;" d="M280.6,7.533c-11.093,22.187-17.067,51.2-17.067,82.773v307.2c0,35.84-2.56,70.827-8.533,104.96
		c11.093-34.133,17.067-69.12,17.067-104.96v-307.2c0-31.573,12.8-60.587,34.133-82.773H280.6z"/>
	<path d="M255,511c-3.413,0-6.827-2.56-7.68-5.973c-11.947-34.987-17.92-70.827-17.92-107.52v-307.2
		c0-29.013-11.093-56.32-31.573-76.8c-2.56-2.56-3.413-5.973-1.707-9.387C196.973,0.707,200.387-1,203.8-1h102.4
		c3.413,0,6.827,1.707,7.68,5.12c1.707,3.413,0.853,6.827-1.707,9.387c-20.48,20.48-31.573,47.787-31.573,76.8v307.2
		c0,36.693-5.973,72.533-17.067,107.52C261.827,508.44,258.413,511,255,511z M222.573,16.067
		C237.933,37.4,246.467,63,246.467,90.307v307.2c0,24.747,2.56,49.493,8.533,74.24c5.973-23.893,8.533-48.64,8.533-74.24v-307.2
		c0-27.307,8.533-52.907,23.893-74.24H222.573z"/>
</g>
<g>
</g>
<g>
</g>
<g>
</g>
<g>
</g>
<g>
</g>
<g>
</g>
<g>
</g>
<g>
</g>
<g>
</g>
<g>
</g>
<g>
</g>
<g>
</g>
<g>
</g>
<g>
</g>
<g>
</g>
</svg>
