<?xml version="1.0" encoding="iso-8859-1"?>
<!-- Uploaded to: SVG Repo, www.svgrepo.com, Generator: SVG Repo Mixer Tools -->
<svg height="800px" width="800px" version="1.1" id="Layer_1" xmlns="http://www.w3.org/2000/svg" xmlns:xlink="http://www.w3.org/1999/xlink" 
	 viewBox="0 0 512 512" xml:space="preserve">
<g>
	<path style="fill:#5A482E;" d="M509.682,134.572c-3.07-3.049-8.033-3.03-11.082,0.043L256,379.103L13.4,134.615
		c-3.051-3.073-8.013-3.091-11.082-0.043c-3.073,3.048-3.092,8.01-0.044,11.083l248.163,250.094
		c1.471,1.483,3.474,2.317,5.563,2.317c2.089,0,4.092-0.834,5.563-2.317l248.163-250.094
		C512.774,142.582,512.755,137.621,509.682,134.572z"/>
	<path style="fill:#5A482E;" d="M247.422,202.246c1.471,1.483,3.474,2.317,5.563,2.317c2.089,0,4.092-0.834,5.563-2.317
		L413.763,45.825c3.048-3.072,3.028-8.034-0.043-11.082c-3.072-3.049-8.033-3.03-11.083,0.043L252.985,185.601L103.334,34.785
		c-3.051-3.073-8.012-3.091-11.083-0.043c-3.071,3.048-3.091,8.01-0.043,11.082L247.422,202.246z"/>
</g>
<g>
	<path style="fill:#EFC7FF;" d="M152.899,240.759c-2.023-2.04-5.335-2.04-7.359,0l-40.424,40.737c-2.024,2.04-2.024,5.377,0,7.418
		l40.424,40.738c2.024,2.04,5.336,2.04,7.359,0l40.425-40.738c2.024-2.04,2.024-5.377,0-7.418L152.899,240.759z"/>
	<path style="fill:#EFC7FF;" d="M406.883,281.496l-40.423-40.737c-2.024-2.04-5.336-2.04-7.359,0l-40.423,40.737
		c-2.023,2.04-2.023,5.377,0,7.418l40.423,40.738c2.023,2.04,5.335,2.04,7.359,0l40.423-40.738
		C408.907,286.874,408.907,283.536,406.883,281.496z"/>
</g>
<path style="fill:#FDF276;" d="M335.601,394.071c2.024,2.04,2.024,5.377,0,7.418l-75.922,76.513c-2.023,2.04-5.335,2.04-7.359,0
	l-75.922-76.513c-2.024-2.04-2.024-5.378,0-7.418l75.922-76.513c2.024-2.04,5.336-2.04,7.359,0L335.601,394.071z"/>
<g style="opacity:0.1;">
	<path d="M197.958,401.488c-2.023-2.04-2.023-5.378,0-7.418l68.821-69.356l-7.1-7.155c-2.023-2.04-5.335-2.04-7.359,0
		l-75.922,76.513c-2.024,2.04-2.024,5.377,0,7.418l75.922,76.513c2.024,2.04,5.336,2.04,7.359,0l7.1-7.155L197.958,401.488z"/>
</g>
<g style="opacity:0.1;">
	<path d="M126.905,288.914c-2.024-2.04-2.024-5.377,0-7.418l33.209-33.467l-7.215-7.27c-2.023-2.04-5.335-2.04-7.359,0
		l-40.424,40.737c-2.024,2.04-2.024,5.377,0,7.418l40.424,40.738c2.024,2.04,5.336,2.04,7.359,0l7.215-7.27L126.905,288.914z"/>
</g>
<g style="opacity:0.1;">
	<path d="M340.466,288.914c-2.024-2.04-2.024-5.377,0-7.418l33.209-33.466l-7.215-7.27c-2.024-2.04-5.336-2.04-7.359,0
		l-40.423,40.737c-2.023,2.04-2.023,5.377,0,7.418l40.423,40.738c2.023,2.04,5.335,2.04,7.359,0l7.215-7.27L340.466,288.914z"/>
</g>
<path style="fill:#BF6060;" d="M335.601,188.335c2.024,2.04,2.024,5.377,0,7.418l-75.922,76.513c-2.023,2.04-5.335,2.04-7.359,0
	l-75.922-76.513c-2.024-2.04-2.024-5.377,0-7.418l75.922-76.513c2.024-2.04,5.336-2.04,7.359,0L335.601,188.335z"/>
<g>
	<path style="fill:#EFBA50;" d="M70.61,176.814c-2.024-2.04-5.335-2.04-7.359,0l-21.155,21.32c-2.024,2.04-2.024,5.377,0,7.418
		l21.155,21.32c2.024,2.04,5.335,2.04,7.359,0l21.157-21.32c2.024-2.04,2.024-5.377,0-7.418L70.61,176.814z"/>
	<path style="fill:#EFBA50;" d="M469.904,198.134l-21.154-21.32c-2.023-2.04-5.336-2.04-7.36,0l-21.157,21.32
		c-2.023,2.04-2.023,5.377,0,7.417l21.157,21.32c2.025,2.04,5.337,2.04,7.36,0l21.154-21.32
		C471.927,203.511,471.927,200.174,469.904,198.134z"/>
	<polygon style="fill:#EFBA50;" points="218.985,397.78 256,435.083 293.014,397.781 256,360.478 	"/>
	<polygon style="fill:#EFBA50;" points="218.985,192.044 256,229.346 293.014,192.045 256,154.742 	"/>
</g>
<g style="opacity:0.1;">
	<path d="M197.958,195.752c-2.023-2.04-2.023-5.377,0-7.418l68.821-69.356l-7.1-7.155c-2.023-2.04-5.335-2.04-7.359,0
		l-75.922,76.513c-2.024,2.04-2.024,5.377,0,7.418l75.922,76.513c2.024,2.04,5.336,2.04,7.359,0l7.1-7.155L197.958,195.752z"/>
</g>
<g style="opacity:0.1;">
	<path d="M63.866,205.551c-2.024-2.04-2.024-5.377,0-7.418l13.95-14.059l-7.206-7.261c-2.024-2.04-5.335-2.04-7.359,0l-21.155,21.32
		c-2.024,2.04-2.024,5.377,0,7.418l21.155,21.32c2.024,2.04,5.335,2.04,7.359,0l7.206-7.261L63.866,205.551z"/>
</g>
<g style="opacity:0.1;">
	<polygon points="240.485,397.78 266.75,371.311 256,360.478 218.985,397.78 256,435.083 266.75,424.249 	"/>
</g>
<g style="opacity:0.1;">
	<polygon points="240.485,192.044 266.75,165.575 256,154.742 218.985,192.044 256,229.346 266.75,218.513 	"/>
</g>
<g style="opacity:0.1;">
	<path d="M442.003,205.551c-2.023-2.04-2.023-5.377,0-7.417l13.953-14.059l-7.206-7.261c-2.023-2.04-5.336-2.04-7.36,0
		l-21.157,21.32c-2.023,2.04-2.023,5.377,0,7.417l21.157,21.32c2.025,2.04,5.337,2.04,7.36,0l7.206-7.261L442.003,205.551z"/>
</g>
</svg>