<?xml version="1.0" standalone="no"?><!DOCTYPE svg PUBLIC "-//W3C//DTD SVG 1.1//EN" "http://www.w3.org/Graphics/SVG/1.1/DTD/svg11.dtd"><svg t="1737639921589" class="icon" viewBox="0 0 1024 1024" version="1.1" xmlns="http://www.w3.org/2000/svg" p-id="5789" xmlns:xlink="http://www.w3.org/1999/xlink" width="200" height="200"><path d="M849.702128 81.702128c0-9.026451 7.313974-16.340426 16.340425-16.340426s16.340426 7.313974 16.340426 16.340426h32.680851c0-9.026451 7.313974-16.340426 16.340425-16.340426s16.340426 7.313974 16.340426 16.340426v860.595744c0 9.026451-7.313974 16.340426-16.340426 16.340426s-16.340426-7.313974-16.340425-16.340426h-32.680851c0 9.026451-7.313974 16.340426-16.340426 16.340426s-16.340426-7.313974-16.340425-16.340426h-32.680851V991.319149h163.404255V32.680851h-114.382979a16.338247 16.338247 0 0 1-16.340425-16.340425h-32.680851v65.361702h32.680851z" fill="#F2484B" p-id="5790"></path><path d="M882.382979 81.702128h32.680851v860.595744h-32.680851z" fill="#98D9D5" p-id="5791"></path><path d="M817.021277 81.702128h32.680851v860.595744h-32.680851z" fill="#C1E8E6" p-id="5792"></path><path d="M784.340426 32.680851H130.723404v38.12766h38.12766C195.880306 70.808511 217.87234 92.800545 217.87234 119.829787S195.880306 168.851064 168.851064 168.851064H130.723404v163.404255h38.12766c27.029243 0 49.021277 21.992034 49.021276 49.021277s-21.992034 49.021277-49.021276 49.021276H130.723404v163.404256h38.12766c27.029243 0 49.021277 21.992034 49.021276 49.021276s-21.992034 49.021277-49.021276 49.021277H130.723404v163.404255h38.12766c27.029243 0 49.021277 21.992034 49.021276 49.021277s-21.992034 49.021277-49.021276 49.021276H130.723404V991.319149h653.617022V32.680851z m-148.153192 892.187234a16.390536 16.390536 0 0 1-15.031013-9.928442A16.285957 16.285957 0 0 1 619.846809 908.52766c0-0.283234 0.028323-0.557753 0.041395-0.83663a16.333889 16.333889 0 0 1 9.937158-14.218349 16.153055 16.153055 0 0 1 6.361872-1.285447c9.024272 0 16.340426 7.313974 16.340426 16.340426s-7.316153 16.340426-16.340426 16.340425z m81.617157-80.031047A16.329532 16.329532 0 0 1 701.548936 859.506383c-9.024272 0-16.340426-7.313974-16.340425-16.340426s7.316153-16.340426 16.340425-16.340425a16.231489 16.231489 0 0 1 5.664681 1.030536 16.379643 16.379643 0 0 1 9.368511 8.897906 16.277243 16.277243 0 0 1 1.222263 8.083064z" fill="#F2484B" p-id="5793"></path><path d="M652.52766 908.52766a16.340426 16.340426 0 0 0-22.702298-15.054979 16.333889 16.333889 0 0 0-9.937158 14.218349c-0.013072 0.278877-0.041396 0.555574-0.041395 0.83663 0 2.276766 0.468426 4.442417 1.309412 6.411983A16.399251 16.399251 0 0 0 636.187234 924.868085a16.340426 16.340426 0 0 0 16.340426-16.340425zM717.889362 843.165957c0-2.276766-0.468426-4.444596-1.309413-6.411983a16.373106 16.373106 0 0 0-9.368511-8.897906 16.231489 16.231489 0 0 0-5.664681-1.030536c-9.024272 0-16.340426 7.313974-16.340425 16.340425a16.340426 16.340426 0 0 0 25.475813 13.549481A16.333889 16.333889 0 0 0 717.889362 843.165957z" fill="#082947" p-id="5794"></path><path d="M996.765957 0h-130.723404c-9.026451 0-16.340426 7.313974-16.340425 16.340426s7.313974 16.340426 16.340425 16.340425H980.425532v958.638298h-163.404255V16.340426c0-9.026451-7.313974-16.340426-16.340426-16.340426h-686.297872A16.338247 16.338247 0 0 0 98.042553 16.340426v54.468085H59.914894C32.885651 70.808511 10.893617 92.800545 10.893617 119.829787s21.992034 49.021277 49.021277 49.021277H98.042553v163.404255H59.914894C32.885651 332.255319 10.893617 354.247353 10.893617 381.276596s21.992034 49.021277 49.021277 49.021276H98.042553v163.404256H59.914894C32.885651 593.702128 10.893617 615.694162 10.893617 642.723404s21.992034 49.021277 49.021277 49.021277H98.042553v163.404255H59.914894C32.885651 855.148936 10.893617 877.14097 10.893617 904.170213s21.992034 49.021277 49.021277 49.021276H98.042553v54.468085c0 9.026451 7.313974 16.340426 16.340426 16.340426h882.382978c9.026451 0 16.340426-7.313974 16.340426-16.340426V16.340426c0-9.026451-7.313974-16.340426-16.340426-16.340426zM43.574468 904.170213c0-9.0112 7.329226-16.340426 16.340426-16.340426h108.93617c9.0112 0 16.340426 7.329226 16.340425 16.340426s-7.329226 16.340426-16.340425 16.340425h-108.93617c-9.0112 0-16.340426-7.329226-16.340426-16.340425z m87.148936 49.021276h38.12766c27.029243 0 49.021277-21.992034 49.021276-49.021276s-21.992034-49.021277-49.021276-49.021277H130.723404v-163.404255h38.12766c27.029243 0 49.021277-21.992034 49.021276-49.021277s-21.992034-49.021277-49.021276-49.021276H130.723404v-163.404256h38.12766c27.029243 0 49.021277-21.992034 49.021276-49.021276s-21.992034-49.021277-49.021276-49.021277H130.723404v-163.404255h38.12766C195.880306 168.851064 217.87234 146.85903 217.87234 119.829787S195.880306 70.808511 168.851064 70.808511H130.723404V32.680851h653.617022v958.638298H130.723404v-38.12766zM43.574468 642.723404c0-9.0112 7.329226-16.340426 16.340426-16.340425h108.93617c9.0112 0 16.340426 7.329226 16.340425 16.340425s-7.329226 16.340426-16.340425 16.340426h-108.93617c-9.0112 0-16.340426-7.329226-16.340426-16.340426z m0-261.446808c0-9.0112 7.329226-16.340426 16.340426-16.340426h108.93617c9.0112 0 16.340426 7.329226 16.340425 16.340426s-7.329226 16.340426-16.340425 16.340425h-108.93617c-9.0112 0-16.340426-7.329226-16.340426-16.340425z m0-261.446809c0-9.0112 7.329226-16.340426 16.340426-16.340425h108.93617c9.0112 0 16.340426 7.329226 16.340425 16.340425s-7.329226 16.340426-16.340425 16.340426h-108.93617c-9.0112 0-16.340426-7.329226-16.340426-16.340426z" fill="#082947" p-id="5795"></path><path d="M866.042553 958.638298c9.026451 0 16.340426-7.313974 16.340426-16.340426v-860.595744c0-9.026451-7.313974-16.340426-16.340426-16.340426s-16.340426 7.313974-16.340425 16.340426v860.595744c0 9.026451 7.313974 16.340426 16.340425 16.340426zM931.404255 958.638298c9.026451 0 16.340426-7.313974 16.340426-16.340426v-860.595744c0-9.026451-7.313974-16.340426-16.340426-16.340426s-16.340426 7.313974-16.340425 16.340426v860.595744c0 9.026451 7.313974 16.340426 16.340425 16.340426z" fill="#082947" p-id="5796"></path><path d="M168.851064 920.510638c9.0112 0 16.340426-7.329226 16.340425-16.340425s-7.329226-16.340426-16.340425-16.340426h-108.93617c-9.0112 0-16.340426 7.329226-16.340426 16.340426s7.329226 16.340426 16.340426 16.340425h108.93617zM168.851064 659.06383c9.0112 0 16.340426-7.329226 16.340425-16.340426s-7.329226-16.340426-16.340425-16.340425h-108.93617c-9.0112 0-16.340426 7.329226-16.340426 16.340425s7.329226 16.340426 16.340426 16.340426h108.93617zM168.851064 397.617021c9.0112 0 16.340426-7.329226 16.340425-16.340425s-7.329226-16.340426-16.340425-16.340426h-108.93617c-9.0112 0-16.340426 7.329226-16.340426 16.340426s7.329226 16.340426 16.340426 16.340425h108.93617zM168.851064 136.170213c9.0112 0 16.340426-7.329226 16.340425-16.340426s-7.329226-16.340426-16.340425-16.340425h-108.93617c-9.0112 0-16.340426 7.329226-16.340426 16.340425s7.329226 16.340426 16.340426 16.340426h108.93617z" fill="#FFCC75" p-id="5797"></path></svg>