<!DOCTYPE svg PUBLIC "-//W3C//DTD SVG 1.1//EN" "http://www.w3.org/Graphics/SVG/1.1/DTD/svg11.dtd">
<!-- Uploaded to: SVG Repo, www.svgrepo.com, Transformed by: SVG Repo Mixer Tools -->
<svg fill="#24c62f" height="800px" width="800px" version="1.1" id="Capa_1" xmlns="http://www.w3.org/2000/svg" xmlns:xlink="http://www.w3.org/1999/xlink" viewBox="0 0 441.302 441.302" xml:space="preserve" stroke="#24c62f">
<g id="SVGRepo_bgCarrier" stroke-width="0"/>
<g id="SVGRepo_tracerCarrier" stroke-linecap="round" stroke-linejoin="round"/>
<g id="SVGRepo_iconCarrier"> <g> <path d="M7.096,296.19c69.199-20.968,141.049-31.6,213.555-31.6s144.355,10.632,213.555,31.6c0.531,0.161,1.068,0.238,1.597,0.238 c2.36,0,4.542-1.531,5.262-3.906c0.881-2.907-0.762-5.978-3.669-6.859c-26.28-7.963-52.936-14.456-79.863-19.466v-17.581 c8.04-0.821,19.7-4.621,19.7-22.228c0-8.15-2.421-19.426-6.169-28.727c-5.099-12.658-11.68-19.348-19.031-19.348 s-13.933,6.69-19.031,19.348c-3.748,9.301-6.169,20.577-6.169,28.727c0,17.607,11.66,21.407,19.7,22.228v15.627 c-17.035-2.906-34.172-5.224-51.385-6.942v-21.031c8.969-0.779,22.591-4.724,22.591-24.748c0-15.765-9.844-54.323-28.091-54.323 c-8.073,0-15.361,7.498-21.075,21.682c-4.262,10.578-7.015,23.39-7.015,32.641c0,20.024,13.621,23.969,22.59,24.748v20.016 c-19.258-1.636-38.602-2.528-57.996-2.669v-28.064c10.119-0.684,25.48-4.618,25.48-27.283c0-17.578-10.856-60.57-30.98-60.57 c-20.125,0-30.981,42.991-30.981,60.57c0,22.666,15.362,26.599,25.481,27.283v28.064c-19.394,0.142-38.737,1.034-57.994,2.669 v-20.016c8.969-0.779,22.588-4.726,22.588-24.748c0-15.765-9.844-54.323-28.09-54.323c-8.073,0-15.361,7.498-21.076,21.682 c-4.262,10.578-7.015,23.39-7.015,32.641c0,20.026,13.624,23.97,22.593,24.748v21.031c-17.214,1.718-34.351,4.036-51.387,6.942 v-15.627c8.04-0.821,19.7-4.621,19.7-22.228c0-8.15-2.421-19.426-6.168-28.727c-5.1-12.658-11.681-19.348-19.032-19.348 s-13.932,6.69-19.031,19.348c-3.747,9.301-6.168,20.577-6.168,28.727c0,17.607,11.66,21.407,19.7,22.228v17.581 c-26.927,5.01-53.583,11.503-79.863,19.466c-2.907,0.881-4.55,3.952-3.669,6.859C1.119,295.428,4.192,297.07,7.096,296.19z M337.832,226.387c0-6.749,2.159-16.642,5.372-24.617c4.097-10.17,7.84-12.459,8.828-12.459s4.731,2.289,8.828,12.459 c3.213,7.975,5.372,17.868,5.372,24.617c0,7.761-2.125,11.455-14.2,11.455C342.411,237.842,337.832,236.128,337.832,226.387z M272.558,211.52c0-7.833,2.499-19.298,6.218-28.53c4.714-11.701,9.173-14.792,10.872-14.792s6.159,3.092,10.873,14.792 c3.719,9.232,6.218,20.698,6.218,28.53c0,10.555-4.153,13.943-17.091,13.943S272.558,222.075,272.558,211.52z M134.564,211.52 c0-7.833,2.499-19.298,6.218-28.53c4.714-11.701,9.173-14.792,10.873-14.792s6.158,3.092,10.872,14.792 c3.719,9.232,6.218,20.698,6.218,28.53c0,10.555-4.153,13.943-17.09,13.943C138.717,225.463,134.564,222.075,134.564,211.52z M75.07,226.387c0-6.749,2.159-16.642,5.372-24.617c4.097-10.17,7.84-12.459,8.828-12.459s4.731,2.289,8.829,12.459 c3.213,7.975,5.372,17.868,5.372,24.617c0,7.761-2.125,11.455-14.2,11.455C79.649,237.842,75.07,236.128,75.07,226.387z M200.67,198.268c0-19.92,11.951-49.57,19.981-49.57c8.029,0,19.98,29.649,19.98,49.57c0,12.438-4.855,16.43-19.98,16.43 C205.525,214.699,200.67,210.706,200.67,198.268z"/> <path d="M437.396,316.663c-70.233-21.281-143.157-32.072-216.744-32.072c-73.587,0-146.511,10.791-216.745,32.072 c-2.907,0.881-4.55,3.952-3.669,6.859c0.881,2.907,3.954,4.55,6.858,3.669c69.199-20.968,141.049-31.6,213.555-31.6 s144.355,10.632,213.555,31.6c0.531,0.161,1.068,0.238,1.597,0.238c2.36,0,4.542-1.531,5.262-3.906 C441.945,320.615,440.303,317.544,437.396,316.663z"/> <path d="M437.396,347.664c-70.233-21.281-143.157-32.072-216.744-32.072c-73.587,0-146.511,10.791-216.745,32.072 c-2.907,0.881-4.55,3.952-3.669,6.859c0.881,2.907,3.954,4.55,6.858,3.669c69.199-20.968,141.049-31.6,213.555-31.6 s144.355,10.632,213.555,31.6c0.531,0.161,1.068,0.238,1.597,0.238c2.36,0,4.542-1.531,5.262-3.906 C441.945,351.616,440.303,348.545,437.396,347.664z"/> <path d="M437.396,378.665c-70.233-21.281-143.157-32.072-216.744-32.072c-73.587,0-146.511,10.791-216.745,32.072 c-2.907,0.881-4.55,3.952-3.669,6.859c0.881,2.907,3.954,4.55,6.858,3.669c69.199-20.968,141.049-31.6,213.555-31.6 s144.355,10.632,213.555,31.6c0.531,0.161,1.068,0.238,1.597,0.238c2.36,0,4.542-1.531,5.262-3.906 C441.945,382.617,440.303,379.546,437.396,378.665z"/> <path d="M45.023,97.714c0.181,2.899,2.584,5.158,5.489,5.158h110.073c2.55,0,4.766-1.753,5.353-4.234 c0.548-2.317,0.826-4.635,0.826-6.891c0-16.473-13.402-29.875-29.875-29.875c-4.572,0-8.994,1.028-13.034,3.005 c-6.563-8.132-16.536-13.005-27.155-13.005c-13.182,0-25.316,7.614-31.176,19.252C53.743,73.429,44.95,83.81,44.95,96.122 c0,0.451,0.026,0.894,0.057,1.337L45.023,97.714z M69.606,81.671c2.155-0.124,4.039-1.497,4.816-3.511 c3.527-9.144,12.48-15.288,22.277-15.288c8.576,0,16.538,4.645,20.778,12.122c0.781,1.376,2.116,2.35,3.666,2.672 c1.548,0.322,3.162-0.039,4.426-0.99c3.306-2.489,7.22-3.804,11.319-3.804c10.408,0,18.875,8.467,18.875,18.875 c0,0.042,0,0.083,0,0.125H56.587C58.323,86.232,63.424,82.026,69.606,81.671z"/> <path d="M326.258,138.855h83.594c2.724,0,5.036-1.993,5.439-4.686c0.177-1.18,0.259-2.2,0.259-3.208 c0-11.852-9.643-21.495-21.495-21.495c-1.983,0-3.954,0.278-5.854,0.819c-4.861-6.035-12.212-9.63-20.146-9.63 s-15.284,3.594-20.146,9.63c-1.899-0.541-3.871-0.819-5.854-0.819c-11.853,0-21.495,9.643-21.495,21.495 c0,1,0.085,2.052,0.261,3.215C321.226,136.866,323.537,138.855,326.258,138.855z M342.054,120.465c1.841,0,3.591,0.469,5.202,1.393 c1.296,0.744,2.839,0.927,4.272,0.51c1.435-0.417,2.638-1.4,3.333-2.723c2.59-4.929,7.645-7.991,13.193-7.991 s10.604,3.062,13.192,7.991c0.694,1.323,1.897,2.306,3.332,2.723c1.433,0.417,2.977,0.234,4.273-0.51 c1.611-0.924,3.361-1.393,5.202-1.393c4.706,0,8.699,3.114,10.026,7.389h-72.054C333.354,123.579,337.348,120.465,342.054,120.465z "/> </g> </g>
</svg>