<?xml version="1.0" ?>
<!-- Uploaded to: SVG Repo, www.svgrepo.com, Generator: SVG Repo Mixer Tools -->
<svg width="800px" height="800px" viewBox="0 0 64 64" xmlns="http://www.w3.org/2000/svg">
<g id="a"/>
<g id="b">
<path d="M32,5.04l-2.46,20.8,24.47-2.59c-.07-.33-.25-.63-.51-.85L33.02,5.37c-.29-.22-.65-.34-1.02-.32Z" fill="#0acffb" id="c"/>
<path d="M32,23.24l-2.86,11.26,2.86,24.45c.27,.01,.54-.12,.7-.34L53.83,24.37c.21-.34,.27-.74,.19-1.13h-22.01Z" fill="#62d9fa" id="d"/>
<path d="M32,23.24l-9.69,6.16-1.58,12.09,10.57,17.12c.16,.22,.42,.35,.7,.34V23.24Z" fill="#0acffb" id="e"/>
<path d="M32,5.04c-.37-.01-.73,.1-1.02,.32L10.5,22.4c-.25,.22-.41,.52-.47,.85l14,3.93,7.98-3.93V5.04Z" fill="#00bff8" id="f"/>
<path d="M32,23.24H10.02c-.1,.38-.04,.78,.15,1.13l10.57,17.12,11.26-18.25Z" fill="#62d9fa" id="g"/>
<path d="M33.66,4.6c-.96-.8-2.36-.8-3.32,0L9.86,21.63c-.96,.8-1.19,2.2-.54,3.27L30.45,59.14c.25,.41,.66,.7,1.13,.81,.14,.03,.28,.05,.42,.05,.33,0,.66-.09,.95-.27,.24-.15,.45-.35,.59-.59L54.68,24.9c.66-1.06,.43-2.47-.53-3.27L33.66,4.6Zm-.66,2.05l18.76,15.59h-18.76V6.65Zm-2,0v15.59H12.24L31,6.65Zm-.79,17.59l-9.47,15.34-9.47-15.34H30.21Zm-8.29,17.25l9.09-14.72v29.44l-9.09-14.72Zm11.09,14.76V24.25h19.73l-19.73,32.01Z"/>
</g>
<g id="h"/>
<g id="i"/>
<g id="j"/>
<g id="k"/>
<g id="l"/>
<g id="m"/>
<g id="n"/>
<g id="o"/>
<g id="p"/>
<g id="q"/>
<g id="r"/>
<g id="s"/>
<g id="t"/>
<g id="u"/>
<g id="v"/>
<g id="w"/>
<g id="x"/>
<g id="y"/>
<g id="a`"/>
<g id="aa"/>
<g id="ab"/>
<g id="ac"/>
<g id="ad"/>
<g id="ae"/>
<g id="af"/>
<g id="ag"/>
<g id="ah"/>
<g id="ai"/>
<g id="aj"/>
<g id="ak"/>
<g id="al"/>
<g id="am"/>
<g id="an"/>
<g id="ao"/>
<g id="ap"/>
<g id="aq"/>
<g id="ar"/>
<g id="as"/>
<g id="at"/>
<g id="au"/>
<g id="av"/>
<g id="aw"/>
<g id="ax"/>
<g id="ay"/>
<g id="b`"/>
<g id="ba"/>
<g id="bb"/>
<g id="bc"/>
</svg>