<?xml version="1.0" encoding="iso-8859-1"?>
<!-- Uploaded to: SVG Repo, www.svgrepo.com, Generator: SVG Repo Mixer Tools -->
<svg height="800px" width="800px" version="1.1" id="Layer_1" xmlns="http://www.w3.org/2000/svg" xmlns:xlink="http://www.w3.org/1999/xlink" 
	 viewBox="0 0 512 512" xml:space="preserve">
<path style="fill:#99522E;" d="M395.13,511.788c-9.217,0-16.696-7.473-16.696-16.696v-33.391c0-9.223,7.479-16.696,16.696-16.696
	c9.217,0,16.696,7.473,16.696,16.696v33.391C411.826,504.315,404.348,511.788,395.13,511.788z"/>
<path style="fill:#A6673A;" d="M116.87,511.788c-9.217,0-16.696-7.473-16.696-16.696v-33.391c0-9.223,7.479-16.696,16.696-16.696
	s16.696,7.473,16.696,16.696v33.391C133.565,504.315,126.087,511.788,116.87,511.788z"/>
<path style="fill:#FFC033;" d="M294.957,244.658h-77.913c-9.217,0-16.696-7.473-16.696-16.696s7.479-16.696,16.696-16.696h77.913
	c9.217,0,16.696,7.473,16.696,16.696S304.174,244.658,294.957,244.658z"/>
<path style="fill:#F9A926;" d="M294.957,211.266H256v33.391h38.957c9.217,0,16.696-7.473,16.696-16.696
	S304.174,211.266,294.957,211.266z"/>
<path style="fill:#CCE8FF;" d="M83.478,478.397H16.696C7.479,478.397,0,470.924,0,461.701V227.962
	c0-64.441,52.424-116.87,116.87-116.87s116.87,52.429,116.87,116.87v100.174C233.739,410.988,166.337,478.397,83.478,478.397z"/>
<path style="fill:#57D4D4;" d="M16.696,478.397C7.479,478.397,0,470.924,0,461.701V328.136c0-46.032,37.446-83.478,83.478-83.478
	s83.478,37.446,83.478,83.478C166.957,410.988,99.554,478.397,16.696,478.397z"/>
<path style="fill:#B0DBFF;" d="M495.304,478.397h-66.783c-82.858,0-150.261-67.408-150.261-150.261V227.962
	c0-64.441,52.424-116.87,116.87-116.87S512,163.521,512,227.962v233.739C512,470.924,504.521,478.397,495.304,478.397z"/>
<circle style="fill:#665247;" cx="361.739" cy="211.266" r="16.696"/>
<circle style="fill:#736056;" cx="150.261" cy="211.266" r="16.696"/>
<path style="fill:#4DBFBF;" d="M495.304,478.397c-82.858,0-150.261-67.408-150.261-150.261c0-46.032,37.446-83.478,83.478-83.478
	S512,282.104,512,328.136v133.565C512,470.924,504.521,478.397,495.304,478.397z"/>
<path style="fill:#CCE8FF;" d="M16.696,411.614C7.479,411.614,0,404.141,0,394.918s7.479-16.696,16.696-16.696
	c27.619,0,50.087-22.468,50.087-50.087c0-9.223,7.479-16.696,16.696-16.696s16.696,7.473,16.696,16.696
	C100.174,374.168,62.728,411.614,16.696,411.614z"/>
<path style="fill:#B0DBFF;" d="M495.304,411.614c-46.032,0-83.478-37.446-83.478-83.478c0-9.223,7.479-16.696,16.696-16.696
	c9.217,0,16.696,7.473,16.696,16.696c0,27.619,22.468,50.087,50.087,50.087c9.217,0,16.696,7.473,16.696,16.696
	S504.521,411.614,495.304,411.614z"/>
<path style="fill:#E6563A;" d="M256,155.75c-3.87,0-7.739-1.342-10.87-4.021c-7.815-6.702-15.185-12.755-21.989-18.359
	c-32.554-26.761-56.065-46.098-56.065-77.69c0-31.103,23.196-55.467,52.815-55.467c15.728,0,27.598,6.685,36.108,15.386
	c8.51-8.701,20.381-15.386,36.108-15.386c29.619,0,52.815,24.365,52.815,55.467c0,31.593-23.511,50.93-56.065,77.69
	c-6.804,5.603-14.173,11.658-21.989,18.359C263.739,154.408,259.87,155.75,256,155.75z"/>
<path style="fill:#D9472B;" d="M344.932,55.662c0,31.61-23.485,50.977-56.097,77.69c-6.788,5.565-14.136,11.687-21.927,18.365
	c-3.117,2.672-7.012,4.007-10.908,4.007V15.592c8.459-8.682,20.37-15.36,36.063-15.36C321.78,0.232,344.932,24.608,344.932,55.662z"
	/>
</svg>