<?xml version="1.0" encoding="iso-8859-1"?>
<!-- Uploaded to: SVG Repo, www.svgrepo.com, Generator: SVG Repo Mixer Tools -->
<svg fill="#000000" height="800px" width="800px" version="1.1" id="Layer_1" xmlns="http://www.w3.org/2000/svg" xmlns:xlink="http://www.w3.org/1999/xlink" 
	 viewBox="0 0 513.084 513.084" xml:space="preserve">
<g>
	<g>
		<path d="M501.093,222.542H316c-2.212,0-4,1.788-4,4c0,2.212,1.788,4,4,4h185.092c2.204,0,3.992,1.792,3.992,4s-1.788,4-3.992,4
			H316c-2.212,0-4,1.788-4,4c0,2.212,1.788,4,4,4h185.092c6.616,0,11.992-5.384,11.992-12S507.705,222.542,501.093,222.542z"/>
	</g>
</g>
<g>
	<g>
		<path d="M348,222.542c-2.212,0-4,1.788-4,4v16c0,2.212,1.788,4,4,4c2.212,0,4-1.788,4-4v-16
			C352,224.33,350.214,222.542,348,222.542z"/>
	</g>
</g>
<g>
	<g>
		<path d="M316,218.542H4c-2.212,0-4,1.788-4,4c0,2.212,1.788,4,4,4h312c2.212,0,4-1.788,4-4
			C320,220.33,318.214,218.542,316,218.542z"/>
	</g>
</g>
<g>
	<g>
		<path d="M316.328,218.554c-2.232-0.168-4.128,1.46-4.316,3.66l-2.244,27.284c-2.348,20.08-20.976,37.044-40.676,37.044H53.264
			c-19.704,0-38.336-16.96-40.704-37.244l-4.616-27.42c-0.364-2.176-2.396-3.64-4.608-3.28c-2.18,0.364-3.648,2.428-3.28,4.608
			l4.588,27.224c2.836,24.324,24.644,44.112,48.62,44.112h215.828c23.968,0,45.78-19.788,48.64-44.252l2.256-27.42
			C320.169,220.666,318.534,218.738,316.328,218.554z"/>
	</g>
</g>
</svg>