<?xml version="1.0" encoding="iso-8859-1"?>
<!-- Uploaded to: SVG Repo, www.svgrepo.com, Generator: SVG Repo Mixer Tools -->
<svg height="800px" width="800px" version="1.1" id="Layer_1" xmlns="http://www.w3.org/2000/svg" xmlns:xlink="http://www.w3.org/1999/xlink" 
	 viewBox="0 0 512 512" xml:space="preserve">
<path style="fill:#A9D5BB;" d="M439.242,482.358H83.537c-23.812,0-43.116-19.304-43.116-43.116V72.758
	c0-23.812,19.304-43.116,43.116-43.116h355.705c23.812,0,43.116,19.304,43.116,43.116v366.484
	C482.358,463.054,463.054,482.358,439.242,482.358z"/>
<path style="fill:#C5EAD4;" d="M385.347,51.2L385.347,51.2c0,11.906-9.651,21.558-21.558,21.558H245.221
	c-11.906,0-21.558-9.651-21.558-21.558h-64.674c-11.906,0-21.558-9.651-21.558-21.558l0,0c0-11.906,9.651-21.558,21.558-21.558H256
	c11.906,0,21.558,9.651,21.558,21.558l0,0h86.232C375.696,29.642,385.347,39.294,385.347,51.2z"/>
<path style="fill:#74843A;" d="M493.137,315.284v188.632h-86.232h-32.337h-53.895h-32.337h-64.674h-21.558h-64.674h-32.337H18.863
	V282.947c0-32.742,26.542-59.284,59.284-59.284l0,0c9.708,0,18.86,2.348,26.947,6.484v-33.431c0-32.742,26.542-59.284,59.284-59.284
	l0,0c32.742,0,59.284,26.542,59.284,59.284v40.499c10.25-8.466,23.395-13.551,37.726-13.551l0,0c10.951,0,21.201,2.981,30.004,8.16
	c7.859-23.529,30.055-40.496,56.227-40.496l0,0c32.742,0,59.284,26.542,59.284,59.284v11.873c8.087-4.136,17.24-6.484,26.947-6.484
	l0,0C466.595,256,493.137,282.542,493.137,315.284z"/>
<path style="fill:#9FBA41;" d="M164.052,67.152l23.263,271.398c2.158,25.173-17.694,46.798-42.958,46.798H55.053
	c-25.265,0-45.116-21.625-42.958-46.798L35.358,67.152C38.222,33.743,66.175,8.084,99.705,8.084l0,0
	C133.235,8.084,161.188,33.743,164.052,67.152z"/>
<path style="fill:#FFED8F;" d="M503.916,191.326L503.916,191.326c0,11.906-9.651,21.558-21.558,21.558
	c-11.906,0-21.558-9.651-21.558-21.558l0,0c0-11.906,9.651-21.558,21.558-21.558C494.264,169.768,503.916,179.42,503.916,191.326z
	 M374.568,169.768c-11.906,0-21.558,9.651-21.558,21.558l0,0c0,11.906,9.651,21.558,21.558,21.558
	c11.906,0,21.558-9.651,21.558-21.558l0,0C396.126,179.42,386.475,169.768,374.568,169.768z"/>
<path style="fill:#DDB961;" d="M132.042,406.905v-43.116c0-5.953,4.826-10.779,10.779-10.779h226.358
	c5.953,0,10.779,4.826,10.779,10.779v43.116c0,5.953-4.826,10.779-10.779,10.779H142.821
	C136.868,417.684,132.042,412.858,132.042,406.905z"/>
<path d="M215.579,237.214v-40.499c0-15.813-7.14-30.495-19.59-40.28c-3.51-2.759-4.119-7.841-1.36-11.351
	c2.758-3.512,7.842-4.119,11.351-1.36c16.375,12.87,25.767,32.185,25.767,52.991v25.739c9.169-4.487,19.319-6.876,29.642-6.876
	c8.901,0,17.693,1.767,25.852,5.159c6.994-14.119,18.806-25.484,33.408-31.874c4.091-1.788,8.857,0.074,10.647,4.165
	c1.79,4.09-0.074,8.857-4.165,10.647c-13.258,5.802-23.489,16.995-28.071,30.707c-0.773,2.313-2.548,4.154-4.832,5.009
	c-2.285,0.857-4.832,0.635-6.934-0.603c-7.834-4.606-16.794-7.042-25.906-7.042c-11.873,0-23.443,4.155-32.578,11.701
	c-1.478,1.22-3.305,1.851-5.149,1.851c-1.168,0-2.344-0.253-3.444-0.771C217.387,243.194,215.579,240.346,215.579,237.214z
	 M303.068,37.726h60.721c7.43,0,13.474,6.044,13.474,13.474s-6.044,13.474-13.474,13.474H245.221
	c-7.43,0-13.474-6.044-13.474-13.474c0-4.466-3.62-8.084-8.084-8.084h-40.96c-4.465,0-8.084,3.618-8.084,8.084
	s3.62,8.084,8.084,8.084H216.7c3.527,12.428,14.978,21.558,28.521,21.558h118.568c16.345,0,29.642-13.298,29.642-29.642
	s-13.297-29.642-29.642-29.642h-60.721c-4.465,0-8.084,3.618-8.084,8.084S298.604,37.726,303.068,37.726z M512,503.916
	c0,4.466-3.62,8.084-8.084,8.084H300.553c-4.465,0-8.084-3.618-8.084-8.084s3.62-8.084,8.084-8.084h33.595v-37.726H177.853v37.726
	h90.004c4.465,0,8.084,3.618,8.084,8.084s-3.62,8.084-8.084,8.084H8.084C3.62,512,0,508.382,0,503.916s3.62-8.084,8.084-8.084h2.695
	v-88.926c0-4.466,3.62-8.084,8.084-8.084s8.084,3.618,8.084,8.084v88.926h64.674v-102.4H55.053c-14.3,0-28.048-6.042-37.718-16.577
	C7.665,366.321,2.82,352.107,4.041,337.859L27.303,66.461c1.559-18.18,9.82-34.987,23.262-47.326S81.459,0,99.705,0
	s35.699,6.796,49.14,19.135c13.441,12.339,21.703,29.146,23.262,47.326l21.915,255.674c0.382,4.448-2.916,8.364-7.364,8.745
	c-4.447,0.376-8.364-2.916-8.745-7.364L155.998,67.842c-2.526-29.459-26.726-51.673-56.293-51.673S45.938,38.383,43.412,67.842
	L20.15,339.24c-0.848,9.892,2.382,19.368,9.096,26.681c6.714,7.314,15.88,11.342,25.807,11.342h36.568V115.874
	c0-4.466,3.62-8.084,8.084-8.084s8.084,3.618,8.084,8.084v379.958h53.895v-37.726h-29.642c-4.465,0-8.084-3.618-8.084-8.084
	s3.62-8.084,8.084-8.084h29.642v-16.168h-18.863c-10.401,0-18.863-8.463-18.863-18.863v-43.116c0-10.401,8.463-18.863,18.863-18.863
	h226.358c10.401,0,18.863,8.463,18.863,18.863v43.116c0,10.401-8.463,18.863-18.863,18.863h-18.863v16.168h29.642
	c4.465,0,8.084,3.618,8.084,8.084s-3.62,8.084-8.084,8.084h-29.642v37.726h70.523c-0.298-0.843-0.46-1.749-0.46-2.695V265.882
	c-3.371,0.921-6.645,2.189-9.793,3.8c-2.506,1.279-5.498,1.167-7.9-0.302c-2.402-1.468-3.865-4.081-3.865-6.895v-11.874
	c0-6.456-1.184-12.746-3.518-18.696c-1.631-4.155,0.416-8.847,4.572-10.478c4.156-1.634,8.848,0.416,10.478,4.572
	c3.075,7.836,4.635,16.11,4.636,24.593c1.776-0.518,3.573-0.964,5.389-1.333V134.737h-24.253c-7.43,0-13.474,6.044-13.474,13.474
	v14.594c12.428,3.527,21.558,14.978,21.558,28.522c0,16.344-13.297,29.642-29.642,29.642c-16.345,0-29.642-13.298-29.642-29.642
	c0-13.543,9.13-24.994,21.558-28.522v-14.594c0-16.344,13.297-29.642,29.642-29.642H460.8c16.345,0,29.642,13.298,29.642,29.642
	v14.594C502.87,166.331,512,177.783,512,191.326c0,16.344-13.297,29.642-29.642,29.642c-16.345,0-29.642-13.298-29.642-29.642
	c0-13.543,9.13-24.994,21.558-28.522v-14.594c0-7.43-6.044-13.474-13.474-13.474h-24.253v358.4c0,0.945-0.162,1.852-0.46,2.695
	h48.966V315.284c0-21.085-13.226-40.309-32.91-47.839c-4.17-1.594-6.257-6.268-4.662-10.439c1.594-4.17,6.269-6.255,10.439-4.662
	c25.9,9.908,43.301,35.202,43.301,62.94v180.547h2.695C508.38,495.832,512,499.45,512,503.916z M468.884,191.326
	c0,7.43,6.044,13.474,13.474,13.474s13.474-6.044,13.474-13.474s-6.044-13.474-13.474-13.474S468.884,183.896,468.884,191.326z
	 M374.568,177.853c-7.43,0-13.474,6.044-13.474,13.474s6.044,13.474,13.474,13.474c7.43,0,13.474-6.044,13.474-13.474
	S381.998,177.853,374.568,177.853z M334.147,425.768H177.853v16.168h156.295V425.768z M342.232,409.6h26.947
	c1.485,0,2.695-1.208,2.695-2.695v-43.116c0-1.486-1.209-2.695-2.695-2.695H142.821c-1.485,0-2.695,1.208-2.695,2.695v43.116
	c0,1.486,1.209,2.695,2.695,2.695H342.232z M169.229,16.168H256c7.43,0,13.474,6.044,13.474,13.474c0,4.466,3.62,8.084,8.084,8.084
	c4.465,0,8.084-3.618,8.084-8.084C285.642,13.298,272.345,0,256,0h-86.771c-4.465,0-8.084,3.618-8.084,8.084
	S164.765,16.168,169.229,16.168z"/>
</svg>