<?xml version="1.0" encoding="iso-8859-1"?>
<!-- Uploaded to: SVG Repo, www.svgrepo.com, Generator: SVG Repo Mixer Tools -->
<svg fill="#000000" height="800px" width="800px" version="1.1" id="Layer_1" xmlns="http://www.w3.org/2000/svg" xmlns:xlink="http://www.w3.org/1999/xlink" 
	 viewBox="0 0 512 512" xml:space="preserve">
<g>
	<g>
		<path d="M429.37,282.408H291.929v-3.426h20.721c4.2,0,7.604-3.405,7.604-7.604v-103.2c0-18.964-15.429-34.393-34.393-34.393
			h-5.607c7.17-6.573,11.675-16.01,11.675-26.48V91.85c0-0.055-0.003-0.109-0.004-0.164C291.838,71.948,275.757,55.918,256,55.918
			c-19.811,0-35.929,16.117-35.929,35.929v15.458c0,10.471,4.505,19.907,11.675,26.48h-5.607c-18.964,0-34.393,15.429-34.393,34.393
			v103.2c0,4.199,3.404,7.604,7.604,7.604h20.721v3.426H82.63c-45.562,0-82.63,37.068-82.63,82.63v8.414
			c0,45.562,37.068,82.63,82.63,82.63H429.37c45.562,0,82.63-37.068,82.63-82.63v-8.414C512,319.475,474.932,282.408,429.37,282.408
			z M256,71.125c7.26,0.001,13.649,3.761,17.35,9.429l-25.479-7.763C250.369,71.721,253.116,71.125,256,71.125z M235.279,91.846
			h0.001c0-2.33,0.404-4.562,1.116-6.654l40.325,12.286v9.826c0,11.425-9.295,20.721-20.721,20.721s-20.721-9.295-20.721-20.721
			V91.846z M206.954,263.774v-95.596c0-10.579,8.606-19.185,19.185-19.185H256h29.86c10.58,0,19.185,8.607,19.185,19.185v95.596
			h-13.117v-27.665v-57.098v-9.297c0-4.199-3.404-7.604-7.604-7.604s-7.604,3.405-7.604,7.604v9.297v57.036h-41.442v-57.036v-9.297
			c0-4.199-3.404-7.604-7.604-7.604s-7.604,3.405-7.604,7.604v9.297v57.098v27.665H206.954z M395.216,402.775h47.345
			c2.426,0,4.474,2.049,4.474,4.474s-2.049,4.474-4.474,4.474H69.436c-2.425,0-4.473-2.049-4.473-4.474s2.049-4.474,4.473-4.474
			H336.33H395.216z M343.934,387.567v-52h43.678v52H343.934z M263.604,282.408v-17.975c0-4.199-3.404-7.604-7.604-7.604
			s-7.604,3.405-7.604,7.604v17.975h-13.117v-11.03h0.001v-20.123h41.442v20.123v11.03H263.604z M276.721,297.616v83.968h-13.117
			v-83.968H276.721z M235.28,297.615h13.116v83.968h-13.117v-83.968H235.28z M496.792,373.451c0,37.176-30.246,67.422-67.422,67.422
			H82.63c-37.176,0-67.422-30.246-67.422-67.422v-8.414c0-37.176,30.245-67.422,67.422-67.422h137.442v89.951H69.436
			c-10.852,0-19.681,8.829-19.681,19.682c0,10.853,8.829,19.682,19.681,19.682h373.125c10.852,0,19.682-8.829,19.682-19.682
			c0-10.853-8.83-19.682-19.682-19.682H402.82v-59.604c0-4.199-3.404-7.604-7.604-7.604H336.33c-4.2,0-7.604,3.405-7.604,7.604
			v59.604h-36.798v-89.951H429.37c37.176,0,67.422,30.246,67.422,67.422V373.451z"/>
	</g>
</g>
</svg>