<?xml version="1.0" encoding="iso-8859-1"?>
<!-- Uploaded to: SVG Repo, www.svgrepo.com, Generator: SVG Repo Mixer Tools -->
<svg height="800px" width="800px" version="1.1" id="Layer_1" xmlns="http://www.w3.org/2000/svg" xmlns:xlink="http://www.w3.org/1999/xlink" 
	 viewBox="0 0 478.909 478.909" xml:space="preserve">
<path style="fill:#B27214;" d="M388.039,141.734L388.039,141.734c-38.003,53.643-121.117,167.263-148.52,223.62
	c-3.619-7.497-11.633-20.811-22.233-37.486C174.889,261.041,92.033,141.734,90.999,141.734l0,0
	c12.926-28.696,31.798-52.092,51.833-70.576c6.592,10.729,173.597,32.444,193.503,0c19.906,18.484,38.649,41.622,51.575,70.059
	C387.781,141.346,387.91,141.605,388.039,141.734z"/>
<g>
	<path style="fill:#84A835;" d="M40.071,234.931H7.109c-3.878,0-7.109-3.232-7.109-7.109s3.232-7.109,7.109-7.109h32.961
		c3.878,0,7.109,3.232,7.109,7.109S44.078,234.931,40.071,234.931z"/>
	<path style="fill:#84A835;" d="M471.8,234.931h-32.961c-3.878,0-7.109-3.232-7.109-7.109s3.232-7.109,7.109-7.109H471.8
		c3.878,0,7.109,3.232,7.109,7.109S475.678,234.931,471.8,234.931z"/>
	<path style="fill:#84A835;" d="M463.915,295.037c-0.646,0-1.293-0.129-1.81-0.259l-31.927-8.531
		c-3.749-1.034-6.075-4.912-5.041-8.66s4.912-6.075,8.66-5.041l31.927,8.531c3.749,1.034,6.075,4.912,5.041,8.66
		C469.861,292.968,467.017,295.037,463.915,295.037z"/>
	<path style="fill:#84A835;" d="M440.648,351.136c-1.163,0-2.456-0.259-3.49-0.905l-28.567-16.545
		c-3.361-1.939-4.524-6.334-2.585-9.695c1.939-3.361,6.334-4.524,9.695-2.585l28.567,16.545c3.361,1.939,4.524,6.334,2.585,9.695
		C445.56,349.843,443.104,351.136,440.648,351.136z"/>
	<path style="fill:#84A835;" d="M403.68,399.22c-1.81,0-3.619-0.646-5.041-2.068l-23.396-23.396c-2.714-2.714-2.714-7.239,0-10.082
		c2.714-2.714,7.239-2.714,10.082,0l23.396,23.396c2.714,2.714,2.714,7.239,0,10.082C407.428,398.574,405.619,399.22,403.68,399.22z
		"/>
	<path style="fill:#84A835;" d="M355.595,436.189c-2.456,0-4.783-1.293-6.204-3.619l-16.545-28.566
		c-1.939-3.361-0.776-7.756,2.585-9.695c3.361-1.939,7.756-0.776,9.695,2.585l16.545,28.566c1.939,3.361,0.776,7.756-2.585,9.695
		C358.051,435.801,356.888,436.189,355.595,436.189z"/>
	<path style="fill:#84A835;" d="M299.625,459.326c-3.102,0-6.075-2.068-6.851-5.3l-8.531-31.927
		c-1.034-3.749,1.293-7.626,5.041-8.66c3.749-1.034,7.756,1.293,8.66,5.041l8.531,31.927c1.034,3.749-1.293,7.626-5.041,8.66
		C300.789,459.326,300.142,459.326,299.625,459.326z"/>
	<path style="fill:#84A835;" d="M239.39,467.341c-3.878,0-7.109-3.232-7.109-7.109V427.27c0-3.878,3.232-7.109,7.109-7.109
		c3.878,0,7.109,3.232,7.109,7.109v32.961C246.499,464.109,243.397,467.341,239.39,467.341z"/>
	<path style="fill:#84A835;" d="M179.284,459.326c-0.646,0-1.293-0.129-1.81-0.259c-3.749-1.034-6.075-4.912-5.041-8.66
		l8.531-31.927c1.034-3.749,4.912-6.075,8.66-5.041s6.075,4.912,5.041,8.66l-8.531,31.927
		C185.359,457.258,182.516,459.326,179.284,459.326z"/>
	<path style="fill:#84A835;" d="M123.314,436.189c-1.163,0-2.456-0.259-3.49-0.905c-3.361-1.939-4.524-6.334-2.585-9.695
		l16.545-28.566c1.939-3.361,6.334-4.524,9.695-2.585s4.524,6.334,2.585,9.695L129.39,432.57
		C128.097,434.896,125.77,436.189,123.314,436.189z"/>
	<path style="fill:#84A835;" d="M75.1,399.22c-1.81,0-3.619-0.646-5.041-2.068c-2.714-2.714-2.714-7.239,0-10.082l23.396-23.396
		c2.714-2.714,7.239-2.714,10.082,0c2.714,2.714,2.714,7.239,0,10.082l-23.396,23.396C78.849,398.574,77.039,399.22,75.1,399.22z"/>
	<path style="fill:#84A835;" d="M38.261,351.136c-2.456,0-4.783-1.293-6.204-3.619c-1.939-3.361-0.776-7.756,2.585-9.695
		l28.567-16.545c3.361-1.939,7.756-0.776,9.695,2.585s0.776,7.756-2.585,9.695l-28.567,16.545
		C40.717,350.877,39.424,351.136,38.261,351.136z"/>
	<path style="fill:#84A835;" d="M14.994,295.037c-3.102,0-6.075-2.068-6.851-5.3c-1.034-3.749,1.293-7.626,5.041-8.66l31.927-8.531
		c3.749-1.034,7.756,1.293,8.66,5.041c1.034,3.749-1.293,7.626-5.041,8.66l-31.927,8.531
		C16.287,295.037,15.64,295.037,14.994,295.037z"/>
</g>
<path style="fill:#F7B239;" d="M336.206,71.158c-20.035,32.444-55.84,54.031-96.816,54.031c-27.274,0-52.35-9.695-71.998-25.723
	c-9.695-8.014-18.096-17.579-24.818-28.308c44.724-41.493,95.136-59.072,96.687-59.589l0,0
	C239.261,11.569,290.706,29.019,336.206,71.158z"/>
<path style="fill:#995C0D;" d="M388.039,141.734L388.039,141.734c-38.003,53.643-121.117,167.263-148.52,223.62
	c-3.619-7.497-11.633-20.811-22.233-37.486c3.619-37.485,4.912-73.291-0.129-83.89l0,0c27.403-56.487,82.985-96.687,148.52-102.245
	c5.17-0.517,10.47-0.646,15.899-0.646c2.068,0,4.266,0,6.334,0.129C387.781,141.346,387.91,141.605,388.039,141.734z"/>
<path style="fill:#9AD14B;" d="M434.573,143.673c8.66,24.947,13.055,51.446,13.055,78.978c0,114.783-93.455,208.238-208.238,208.238
	c-5.429,0-10.729-0.259-16.028-0.646c6.075-8.402,27.791-162.092,16.028-186.135l0,0c27.403-56.487,82.985-96.687,148.52-102.245
	c5.17-0.517,10.47-0.646,15.899-0.646C414.408,141.088,424.62,141.992,434.573,143.673z"/>
<path style="fill:#995C0D;" d="M167.521,99.466c-7.885,18.743-12.797,38.649-14.736,58.943l0,0
	c-3.619-1.68-7.239-3.232-10.858-4.653c-2.456-1.034-4.912-1.939-7.497-2.714c-1.163-0.388-2.456-0.776-3.619-1.163
	c-0.129,0-0.129,0-0.259-0.129c-2.456-0.776-5.041-1.551-7.626-2.197c-1.163-0.259-2.197-0.646-3.361-0.905
	c-0.259-0.129-0.646-0.129-0.905-0.259c-1.034-0.259-2.068-0.517-3.102-0.776c-0.129,0-0.388-0.129-0.517-0.129
	c-1.163-0.259-2.327-0.517-3.49-0.776c-0.388-0.129-0.776-0.129-1.293-0.259c-0.905-0.129-1.68-0.388-2.585-0.517
	c-0.259,0-0.517-0.129-0.776-0.129c-0.776-0.129-1.68-0.259-2.456-0.388c-1.034-0.129-2.068-0.388-3.102-0.517
	s-2.068-0.259-2.973-0.388c-1.034-0.129-2.068-0.259-2.973-0.388c-0.129,0-0.259,0-0.517,0c-1.293-0.129-2.585-0.259-4.007-0.388
	l0,0c12.926-28.696,31.798-52.092,51.833-70.576c3.361,5.429,19.648,3.878,23.784,8.66S162.609,95.459,167.521,99.466z"/>
<path style="fill:#90BC42;" d="M239.519,244.108c11.633,24.042,18.226,51.058,18.226,79.624s-6.592,55.582-18.226,79.624l0,0
	c-4.653,9.436-9.953,18.484-16.028,27.015c-107.415-8.402-192.21-98.238-192.21-207.721c0-27.532,4.395-54.031,13.055-78.978
	c9.953-1.68,20.294-2.585,30.764-2.585c5.3,0,10.599,0.259,15.899,0.646C156.405,147.421,211.987,187.621,239.519,244.108
	L239.519,244.108z"/>
<g>
	<path style="fill:#84A835;" d="M99.789,222.651c0-27.145,4.266-53.126,12.668-77.685c-6.98-1.422-14.219-2.585-21.457-3.102
		c-5.17-0.517-10.47-0.646-15.899-0.646c-10.47,0-20.811,0.905-30.764,2.585c-8.66,24.818-13.055,51.316-13.055,78.849
		c0,109.483,84.795,199.319,192.081,207.592c3.232-4.395,6.204-8.919,8.919-13.572C154.725,386.294,99.789,310.806,99.789,222.651z"
		/>
	<path style="fill:#84A835;" d="M121.375,234.931H88.414c-3.878,0-7.109-3.232-7.109-7.109s3.232-7.109,7.109-7.109h32.961
		c3.878,0,7.109,3.232,7.109,7.109S125.382,234.931,121.375,234.931z"/>
	<path style="fill:#84A835;" d="M159.119,366.388c-1.163,0-2.456-0.259-3.49-0.905c-3.361-1.939-4.524-6.334-2.585-9.695
		l16.545-28.567c1.939-3.361,6.334-4.524,9.695-2.585c3.361,1.939,4.524,6.334,2.585,9.695l-16.545,28.567
		C163.902,365.096,161.575,366.388,159.119,366.388z"/>
	<path style="fill:#84A835;" d="M115.946,308.092c-2.456,0-4.783-1.293-6.204-3.619c-1.939-3.361-0.776-7.756,2.585-9.695
		l28.567-16.545c3.361-1.939,7.756-0.776,9.695,2.585s0.776,7.756-2.585,9.695l-28.567,16.545
		C118.402,307.833,117.239,308.092,115.946,308.092z"/>
	<path style="fill:#84A835;" d="M390.495,234.931h-32.961c-3.878,0-7.109-3.232-7.109-7.109s3.232-7.109,7.109-7.109h32.961
		c3.878,0,7.109,3.232,7.109,7.109S394.373,234.931,390.495,234.931z"/>
	<path style="fill:#84A835;" d="M319.79,366.388c-2.456,0-4.783-1.293-6.204-3.619l-16.545-28.567
		c-1.939-3.361-0.776-7.756,2.585-9.695s7.756-0.776,9.695,2.585l16.545,28.567c1.939,3.361,0.776,7.756-2.585,9.695
		C322.246,366.001,320.953,366.388,319.79,366.388z"/>
	<path style="fill:#84A835;" d="M362.834,308.092c-1.163,0-2.456-0.259-3.49-0.905l-28.567-16.545
		c-3.361-1.939-4.524-6.334-2.585-9.695s6.334-4.524,9.695-2.585l28.567,16.545c3.361,1.939,4.524,6.334,2.585,9.695
		C367.746,306.799,365.29,308.092,362.834,308.092z"/>
</g>
<path style="fill:#E09B2D;" d="M239.39,11.569c-1.163,0.776-30.764,18.355-57.004,59.589c-0.646,1.034-1.293,2.068-1.939,3.102
	c-4.912,8.143-9.307,16.545-12.926,25.206c-9.695-8.014-18.096-17.579-24.818-28.308C187.427,29.665,237.839,12.086,239.39,11.569z"
	/>
</svg>