<?xml version="1.0" encoding="iso-8859-1"?>
<!-- Generator: Adobe Illustrator 19.0.0, SVG Export Plug-In . SVG Version: 6.00 Build 0)  -->
<svg version="1.1" id="Layer_1" xmlns="http://www.w3.org/2000/svg" xmlns:xlink="http://www.w3.org/1999/xlink" x="0px" y="0px"
	 viewBox="0 0 512 512" style="enable-background:new 0 0 512 512;" xml:space="preserve">
<g>
	<path style="fill:#185F8D;" d="M442.77,157.957c-3.373-9.509-12.454-16.34-23.105-16.34H60.176
		c-10.651,0-19.733,6.831-23.105,16.34H442.77z"/>
	<polygon style="fill:#185F8D;" points="479.482,375.877 495.659,375.877 495.659,315.962 477.177,315.962 	"/>
</g>
<path style="fill:#98D9D5;" d="M38.638,231.489c0-4.513,3.658-8.17,8.17-8.17h288.18c4.512,0,8.17,3.657,8.17,8.17
	c0,0.004,16.34,0.004,16.34,0.004c0-4.518,3.658-8.175,8.17-8.175h65.362c4.512,0,8.17,3.657,8.17,8.17
	c0,0.004,16.375,0.004,16.375,0.004l-2.201-57.196H24.463l-2.199,57.196C22.263,231.495,38.638,231.495,38.638,231.489z"/>
<path style="fill:#F2484B;" d="M448.307,424.511c10.351-10.756,15.731-25.015,15.149-40.148l-5.879-152.868h-16.375
	c-0.002,4.51-3.659,8.166-8.17,8.166h-65.362c-4.511,0-8.167-3.655-8.17-8.166h-16.34c-0.002,4.51-3.659,8.166-8.17,8.166H46.808
	c-4.511,0-8.167-3.655-8.17-8.166H22.263l-5.879,152.867c-0.583,15.134,4.798,29.392,15.149,40.148
	c10.351,10.756,24.392,16.681,39.537,16.681h337.701C423.914,441.191,437.956,435.268,448.307,424.511z M93.106,296.851
	c-4.512,0-8.17-3.658-8.17-8.17c0-4.512,3.658-8.17,8.17-8.17s8.17,3.658,8.17,8.17C101.276,293.193,97.618,296.851,93.106,296.851z
	 M125.787,329.532c-4.512,0-8.17-3.658-8.17-8.17s3.658-8.17,8.17-8.17c4.512,0,8.17,3.658,8.17,8.17
	S130.299,329.532,125.787,329.532z"/>
<g>
	<circle style="fill:#082947;" cx="125.788" cy="321.361" r="8.17"/>
	<circle style="fill:#082947;" cx="93.107" cy="288.681" r="8.17"/>
</g>
<path style="fill:#6DA8D6;" d="M88.485,83.735c0.268-3.483-0.821-6.738-3.068-9.164c-2.246-2.426-5.408-3.763-8.901-3.763
	s-6.656,1.337-8.902,3.763c-2.246,2.426-3.336,5.68-3.068,9.163l3.195,41.543H85.29L88.485,83.735z"/>
<g>
	<path style="fill:#082947;" d="M334.988,223.319H46.808c-4.512,0-8.17,3.657-8.17,8.17c0.003,4.515,3.659,8.17,8.17,8.17h288.18
		c4.511,0,8.167-3.655,8.17-8.166C343.159,226.977,339.501,223.319,334.988,223.319z"/>
	<path style="fill:#082947;" d="M433.031,223.319h-65.362c-4.512,0-8.17,3.657-8.17,8.17c0.003,4.515,3.659,8.17,8.17,8.17h65.362
		c4.511,0,8.167-3.655,8.17-8.166C441.201,226.977,437.543,223.319,433.031,223.319z"/>
	<path style="fill:#082947;" d="M503.829,299.622h-27.28l-5.146-133.808c-0.169-4.387-3.775-7.856-8.165-7.856h-3.546
		c-3.795-18.624-20.3-32.681-40.029-32.681H101.679l3.099-40.289c0.621-8.073-1.997-15.716-7.371-21.519
		c-5.375-5.804-12.795-9-20.892-9c-8.098,0-15.517,3.197-20.892,9c-5.374,5.804-7.992,13.446-7.371,21.519l3.172,41.243
		c-15.706,3.442-28.062,15.94-31.279,31.728h-3.546c-4.39,0-7.995,3.47-8.165,7.856L0.055,383.734
		c-0.754,19.614,6.243,38.119,19.703,52.107c13.46,13.987,31.683,21.69,51.311,21.69h337.701c19.628,0,37.851-7.703,51.31-21.69
		c11.5-11.951,18.263-27.203,19.525-43.623h24.224c4.512,0,8.17-3.657,8.17-8.17v-76.255
		C512,303.28,508.342,299.622,503.829,299.622z M31.532,424.511c-10.351-10.756-15.731-25.015-15.149-40.148l5.88-152.868
		l2.199-57.197h430.912l2.199,57.196l5.879,152.868c0.583,15.134-4.798,29.392-15.149,40.148
		c-10.35,10.758-24.392,16.681-39.535,16.681H71.069C55.924,441.191,41.883,435.267,31.532,424.511z M64.545,83.735
		c-0.268-3.483,0.821-6.738,3.068-9.163c2.247-2.427,5.409-3.764,8.903-3.764s6.655,1.337,8.902,3.762
		c2.246,2.427,3.336,5.681,3.068,9.164l-3.196,41.543H67.741L64.545,83.735z M60.176,141.617h359.489
		c10.651,0,19.733,6.831,23.105,16.34H37.07C40.443,148.448,49.524,141.617,60.176,141.617z M495.659,375.877h-16.177l-2.304-59.915
		h18.481V375.877z"/>
</g>
<g>
</g>
<g>
</g>
<g>
</g>
<g>
</g>
<g>
</g>
<g>
</g>
<g>
</g>
<g>
</g>
<g>
</g>
<g>
</g>
<g>
</g>
<g>
</g>
<g>
</g>
<g>
</g>
<g>
</g>
</svg>
