<!DOCTYPE svg PUBLIC "-//W3C//DTD SVG 1.1//EN" "http://www.w3.org/Graphics/SVG/1.1/DTD/svg11.dtd">
<!-- Uploaded to: SVG Repo, www.svgrepo.com, Transformed by: SVG Repo Mixer Tools -->
<svg fill="#7f5305" version="1.1" id="Capa_1" xmlns="http://www.w3.org/2000/svg" xmlns:xlink="http://www.w3.org/1999/xlink" width="800px" height="800px" viewBox="0 0 30.047 30.047" xml:space="preserve">
<g id="SVGRepo_bgCarrier" stroke-width="0"/>
<g id="SVGRepo_tracerCarrier" stroke-linecap="round" stroke-linejoin="round"/>
<g id="SVGRepo_iconCarrier"> <g> <g> <path d="M29.42,1.724l-1.664,1.664c-0.345,0.345-1.026,0.626-1.514,0.626h-1.646c-0.487,0-1.286,0-1.773,0h-1.646 c-0.487,0-1.169-0.282-1.514-0.626L18,1.724c-0.346-0.346-0.627-0.228-0.627,0.261v7.708c0,0.487,0.328,1.114,0.729,1.391 l4.877,3.368c0.401,0.277,1.059,0.277,1.46,0l4.877-3.368c0.402-0.276,0.73-0.903,0.73-1.391V1.984 C30.047,1.497,29.764,1.378,29.42,1.724z"/> <path d="M24.439,15.529c-0.401,0.277-1.059,0.277-1.46,0l-5.764-3.98c-0.401-0.276-0.73-0.902-0.73-1.391V6.81l-6.374-0.479 C9.625,6.294,8.84,6.367,8.37,6.491L5.693,7.194C5.222,7.318,4.602,7.096,4.314,6.702L4.027,6.307 C3.74,5.913,3.861,5.41,4.297,5.19l3.24-1.64c0.436-0.22,0.833-0.797,0.885-1.281l0.036-0.344 c0.051-0.484-0.301-0.814-0.782-0.732L1.942,2.169c-0.48,0.082-0.96,0.539-1.065,1.016L0.032,7.021 c-0.104,0.477,0.051,1.184,0.347,1.572l2.608,3.428c0.295,0.389,0.591,1.101,0.657,1.584l1.961,14.382 c0.066,0.483,0.52,0.878,1.007,0.878h0.333c0.488,0,0.945-0.395,1.017-0.877l1.333-9.046c0.072-0.482,0.53-0.877,1.017-0.877 h1.773c0.488,0,0.923,0.396,0.968,0.884l0.823,9.034c0.044,0.484,0.48,0.883,0.967,0.883h0.195c0.488,0,0.934-0.396,0.993-0.88 l0.795-6.644c0.059-0.483,0.506-0.88,0.992-0.88h0.888c0.486,0,0.942,0.396,1.013,0.878l0.958,6.646 c0.069,0.483,0.526,0.878,1.013,0.878h0.167c0.487,0,0.962-0.392,1.056-0.871l2.404-12.432c0.036-0.187,0.032-0.415,0.011-0.646 L24.439,15.529z M23.71,18.417c-0.658,0-1.192-0.534-1.192-1.191c0-0.658,0.534-1.191,1.192-1.191s1.191,0.534,1.191,1.191 C24.901,17.882,24.368,18.417,23.71,18.417z"/> <rect x="9.788" y="25.008" width="0.907" height="0.907"/> <rect x="11.24" y="25.008" width="0.907" height="0.907"/> <rect x="9.788" y="26.476" width="0.907" height="0.907"/> <rect x="11.24" y="26.476" width="0.907" height="0.907"/> <rect x="9.788" y="20.86" width="0.907" height="0.908"/> <rect x="11.24" y="20.86" width="0.907" height="0.908"/> <rect x="9.788" y="22.327" width="0.907" height="0.907"/> <rect x="11.24" y="22.327" width="0.907" height="0.907"/> <rect x="17.193" y="25.008" width="0.931" height="0.931"/> <rect x="18.684" y="25.008" width="0.931" height="0.931"/> <rect x="17.193" y="26.514" width="0.931" height="0.93"/> <rect x="18.684" y="26.514" width="0.931" height="0.93"/> </g> </g> </g>
</svg>