<?xml version="1.0" encoding="iso-8859-1"?>
<!-- Uploaded to: SVG Repo, www.svgrepo.com, Generator: SVG Repo Mixer Tools -->
<svg version="1.1" id="Layer_1" xmlns="http://www.w3.org/2000/svg" xmlns:xlink="http://www.w3.org/1999/xlink" 
	 viewBox="0 0 512 512" xml:space="preserve">
<path style="fill:#E7ECED;" d="M503.379,200.927v46.02h-23.01h-69.03H319.3H192.745h-92.039h-69.03H8.667v-46.02
	c0-6.327,5.177-11.505,11.505-11.505h23.01h425.683h23.01C498.202,189.421,503.379,194.598,503.379,200.927z"/>
<path style="fill:#FFD248;" d="M457.36,74.372c6.327,0,11.505,5.177,11.505,11.505v103.544H43.181V85.877
	c0-6.328,5.177-11.505,11.505-11.505H457.36z"/>
<g>
	<rect x="411.343" y="246.942" style="fill:#858C90;" width="69.03" height="69.03"/>
	<rect x="319.306" y="246.942" style="fill:#858C90;" width="92.037" height="69.03"/>
	<rect x="192.74" y="246.942" style="fill:#858C90;" width="126.554" height="69.03"/>
	<rect x="100.704" y="246.942" style="fill:#858C90;" width="92.037" height="69.03"/>
	<rect x="31.676" y="246.942" style="fill:#858C90;" width="69.03" height="69.03"/>
</g>
<polygon style="fill:#AFB6BB;" points="31.676,315.976 100.706,315.976 192.745,315.976 319.3,315.976 411.339,315.976 
	480.369,315.976 480.369,500.055 31.676,500.055 "/>
<path style="fill:#A0A7AB;" d="M182.706,315.976h-82h-69.03v184.08h336.887C285.656,464.51,219.052,398.452,182.706,315.976z"/>
<path d="M512,201.352c0-11.111-9.039-20.149-20.148-20.149H20.148C9.039,181.203,0,190.241,0,201.352v54.663h23.01v253.11h279.015
	v-17.287H40.298v-28.734H371.05v-17.287H40.298V325.045h431.406v166.792H330.785v17.287H488.99v-253.11h23.009v-54.663H512z
	 M402.672,256.015v51.743H327.92v-51.743H402.672z M310.633,307.758H201.366v-51.743h109.268V307.758z M184.08,307.758h-74.753
	v-51.743h74.752v51.743H184.08z M92.039,307.758H40.298v-51.743h51.742V307.758z M419.96,307.758v-51.743h51.743v51.743H419.96z
	 M494.713,238.728H17.287v-37.376c0-1.551,1.31-2.862,2.86-2.862h471.704c1.551,0,2.86,1.312,2.86,2.862v37.376H494.713z"/>
<path d="M51.802,86.302c0-1.551,1.312-2.86,2.862-2.86h402.672c1.551,0,2.86,1.31,2.86,2.86v74.782h17.287V86.302
	c0-11.11-9.039-20.148-20.148-20.148H350.93V20.163h31.623V2.875H129.445v17.287h31.623v45.991H54.664
	c-11.111,0-20.149,9.039-20.149,20.148v74.782h17.287V86.302H51.802z M178.356,20.163h155.287v45.991H178.356V20.163z"/>
<rect x="247.356" y="109.313" style="fill:#FFFFFF;" width="17.287" height="46.02"/>
<rect x="316.39" y="109.313" width="17.287" height="46.02"/>
<g>
	<rect x="385.412" y="109.313" style="fill:#FFFFFF;" width="17.287" height="46.02"/>
	<rect x="109.301" y="109.313" style="fill:#FFFFFF;" width="17.287" height="46.02"/>
</g>
<rect x="178.323" y="109.313" width="17.287" height="46.02"/>
<rect x="388.304" y="445.813" width="34.514" height="17.287"/>
<g>
	<rect x="60.413" y="353.776" style="fill:#FFFFFF;" width="34.514" height="17.287"/>
	<rect x="94.93" y="388.293" style="fill:#FFFFFF;" width="34.514" height="17.287"/>
</g>
<rect x="417.07" y="353.776" width="34.516" height="17.287"/>
</svg>