<?xml version="1.0" encoding="iso-8859-1"?>
<!-- Uploaded to: SVG Repo, www.svgrepo.com, Generator: SVG Repo Mixer Tools -->
<!DOCTYPE svg PUBLIC "-//W3C//DTD SVG 1.1//EN" "http://www.w3.org/Graphics/SVG/1.1/DTD/svg11.dtd">
<svg fill="#000000" height="800px" width="800px" version="1.1" id="Capa_1" xmlns="http://www.w3.org/2000/svg" xmlns:xlink="http://www.w3.org/1999/xlink" 
	 viewBox="0 0 475.092 475.092" xml:space="preserve">
<path d="M464.857,5.082c-1.035-3.039-3.89-5.082-7.1-5.082H106.564c-2.063,0-4.036,0.85-5.452,2.35
	c-1.417,1.5-2.153,3.518-2.036,5.577l2.754,48.268H88.666c-43.468,0-78.832,35.364-78.832,78.832c0,0.204,0.008,0.407,0.025,0.61
	l15.489,189.542c0.318,3.892,3.57,6.889,7.475,6.889h36.69c2.014,0,3.943-0.81,5.354-2.248c1.411-1.438,2.184-3.382,2.145-5.396
	l-3.218-168.541c0.035-11.393,9.314-20.648,20.714-20.648h9.556l25.427,318.17c0.874,12.161,11.109,21.688,23.302,21.688h209.124
	c12.2,0,22.437-9.533,23.309-21.797c0.155-2.649,15.607-265.892,25.048-352.181c3.664-33.481,19.042-62.22,43.301-80.92l8.763-6.754
	C464.878,11.48,465.892,8.12,464.857,5.082z M395.362,99.483c-9.482,86.663-24.957,350.282-25.106,352.841
	c-0.31,4.355-3.973,7.768-8.34,7.768H152.791c-4.364,0-8.027-3.409-8.345-7.822l-25.983-325.133
	c-0.002-0.026-0.008-0.051-0.01-0.077c-0.013-0.145-0.035-0.288-0.056-0.43c-0.016-0.107-0.029-0.215-0.049-0.32
	c-0.027-0.14-0.063-0.276-0.097-0.413c-0.027-0.106-0.05-0.212-0.081-0.316c-0.039-0.129-0.086-0.254-0.131-0.381
	c-0.038-0.106-0.073-0.213-0.116-0.317c-0.05-0.121-0.108-0.238-0.164-0.356c-0.048-0.102-0.094-0.205-0.146-0.303
	c-0.064-0.121-0.136-0.236-0.207-0.353c-0.053-0.088-0.104-0.178-0.16-0.264c-0.085-0.128-0.177-0.25-0.269-0.372
	c-0.051-0.067-0.098-0.136-0.151-0.202c-0.113-0.14-0.234-0.273-0.357-0.405c-0.037-0.04-0.072-0.082-0.111-0.122
	c-0.149-0.153-0.306-0.298-0.467-0.438c-0.016-0.014-0.03-0.029-0.046-0.042c-0.899-0.765-1.979-1.319-3.169-1.593
	c-0.015-0.003-0.029-0.008-0.044-0.011c-0.199-0.045-0.401-0.078-0.605-0.106c-0.05-0.007-0.1-0.017-0.151-0.023
	c-0.169-0.02-0.341-0.03-0.513-0.038c-0.09-0.005-0.179-0.012-0.269-0.014c-0.036,0-0.07-0.005-0.106-0.005h-16.48
	c-19.693,0-35.714,16.021-35.714,35.714c0,0.048,0,0.096,0.001,0.144l3.073,160.976H39.735l-14.9-182.339
	c0.16-35.061,28.733-63.534,63.832-63.534h14.021l0.813,14.244c0.236,4.135,3.781,7.294,7.915,7.061
	c4.135-0.236,7.296-3.78,7.061-7.915l-1.183-20.739c0.001-0.051,0.008-0.1,0.008-0.151c0-0.336-0.03-0.665-0.073-0.99L114.504,15
	h321.969C413.547,36.05,399.063,65.661,395.362,99.483z M336.108,324.035l12.998-182.726c0.294-4.131,3.871-7.244,8.014-6.949
	c4.132,0.294,7.243,3.882,6.949,8.014L351.071,325.1c-0.281,3.95-3.574,6.968-7.474,6.968c-0.179,0-0.358-0.006-0.54-0.019
	C338.925,331.755,335.814,328.167,336.108,324.035z M331.775,384.943l1.444-20.304c0.294-4.131,3.869-7.236,8.014-6.949
	c4.132,0.294,7.243,3.882,6.949,8.014l-1.444,20.304c-0.281,3.95-3.574,6.968-7.474,6.968c-0.179,0-0.358-0.006-0.54-0.019
	C334.592,392.663,331.481,389.075,331.775,384.943z"/>
</svg>