<?xml version="1.0" encoding="iso-8859-1"?>
<!-- Uploaded to: SVG Repo, www.svgrepo.com, Generator: SVG Repo Mixer Tools -->
<svg height="800px" width="800px" version="1.1" id="Layer_1" xmlns="http://www.w3.org/2000/svg" xmlns:xlink="http://www.w3.org/1999/xlink" 
	 viewBox="0 0 512 512" xml:space="preserve">
<g transform="translate(1 1)">
	<path style="fill:#FFDD09;" d="M485.4,141.507L141.507,485.4L24.6,368.493L368.493,24.6L485.4,141.507z"/>
	<path style="fill:#FFFFFF;" d="M368.493,24.6L351.427,7.533L7.533,351.427L24.6,368.493L368.493,24.6z"/>
	<path style="fill:#FD9808;" d="M485.4,141.507L141.507,485.4l17.067,17.067l343.893-343.893L485.4,141.507z"/>
	<path d="M158.573,511c-2.56,0-4.267-0.853-5.973-2.56L1.56,357.4c-3.413-3.413-3.413-8.533,0-11.947L345.453,1.56
		c3.413-3.413,8.533-3.413,11.947,0L508.44,152.6c3.413,3.413,3.413,8.533,0,11.947L164.547,508.44
		C162.84,510.147,161.133,511,158.573,511z M19.48,351.427L158.573,490.52L490.52,158.573L351.427,19.48L19.48,351.427z"/>
	<path d="M38.253,390.68c-2.56,0-4.267-0.853-5.973-2.56c-3.413-3.413-3.413-8.533,0-11.947l102.4-102.4
		c3.413-3.413,8.533-3.413,11.947,0s3.413,8.533,0,11.947l-102.4,102.4C42.52,389.827,39.96,390.68,38.253,390.68z"/>
	<path d="M182.467,245.613c-2.56,0-4.267-0.853-5.973-2.56c-3.413-3.413-3.413-8.533,0-11.947L255,152.6
		c3.413-3.413,8.533-3.413,11.947,0s3.413,8.533,0,11.947l-78.507,78.507C187.587,244.76,185.027,245.613,182.467,245.613z"/>
	<path d="M291.693,137.24c-2.56,0-4.267-0.853-5.973-2.56c-3.413-3.413-3.413-8.533,0-11.947l54.613-54.613
		c3.413-3.413,8.533-3.413,11.947,0c3.413,3.413,3.413,8.533,0,11.947l-54.613,54.613C295.96,136.387,293.4,137.24,291.693,137.24z"
		/>
	<path d="M68.12,420.547c-2.56,0-4.267-0.853-5.973-2.56c-3.413-3.413-3.413-8.533,0-11.947l72.533-72.533
		c3.413-3.413,8.533-3.413,11.947,0c3.413,3.413,3.413,8.533,0,11.947l-72.533,72.533C72.387,419.693,70.68,420.547,68.12,420.547z"
		/>
	<path d="M272.92,215.747c-2.56,0-4.267-0.853-5.973-2.56c-3.413-3.413-3.413-8.533,0-11.947l48.64-48.64
		c3.413-3.413,8.533-3.413,11.947,0c3.413,3.413,3.413,8.533,0,11.947l-48.64,48.64C278.04,214.893,275.48,215.747,272.92,215.747z"
		/>
	<path d="M345.453,143.213c-2.56,0-4.267-0.853-5.973-2.56c-3.413-3.413-3.413-8.533,0-11.947l66.56-66.56
		c3.413-3.413,8.533-3.413,11.947,0c3.413,3.413,3.413,8.533,0,11.947l-66.56,66.56C349.72,142.36,348.013,143.213,345.453,143.213z
		"/>
	<path d="M97.987,450.413c-2.56,0-4.267-0.853-5.973-2.56c-3.413-3.413-3.413-8.533,0-11.947l29.867-29.867
		c3.413-3.413,8.533-3.413,11.947,0c3.413,3.413,3.413,8.533,0,11.947l-29.867,29.867
		C103.107,449.56,100.547,450.413,97.987,450.413z"/>
	<path d="M128.707,481.133c-2.56,0-4.267-0.853-5.973-2.56c-3.413-3.413-3.413-8.533,0-11.947l72.533-72.533
		c3.413-3.413,8.533-3.413,11.947,0c3.413,3.413,3.413,8.533,0,11.947l-72.533,72.533
		C132.973,480.28,130.413,481.133,128.707,481.133z"/>
	<path d="M339.48,208.92c-2.56,0-4.267-0.853-5.973-2.56c-3.413-3.413-3.413-8.533,0-11.947l42.667-42.667
		c3.413-3.413,8.533-3.413,11.947,0c3.413,3.413,3.413,8.533,0,11.947l-42.667,42.667C343.747,208.067,342.04,208.92,339.48,208.92z
		"/>
	<path d="M412.013,137.24c-2.56,0-4.267-0.853-5.973-2.56c-3.413-3.413-3.413-8.533,0-11.947l29.867-29.867
		c3.413-3.413,8.533-3.413,11.947,0c3.413,3.413,3.413,8.533,0,11.947l-29.867,29.867C416.28,136.387,414.573,137.24,412.013,137.24
		z"/>
	<path d="M231.107,309.613c-6.827-6.827-17.067-6.827-23.893,0s-6.827,17.067,0,23.893c6.827,6.827,17.067,6.827,23.893,0
		C237.933,326.68,237.933,316.44,231.107,309.613"/>
	<path d="M164.547,384.707c-2.56,0-4.267-0.853-5.973-2.56c-3.413-3.413-3.413-8.533,0-11.947l18.773-18.773
		c-12.8-22.187-8.533-52.053,5.12-65.707l54.613-54.613c3.413-3.413,8.533-3.413,11.947,0s3.413,8.533,0,11.947l-53.76,54.613
		c-8.533,8.533-11.947,33.28,0.853,48.64c2.56,3.413,2.56,8.533-0.853,11.093l-23.893,23.893
		C168.813,383.853,167.107,384.707,164.547,384.707z"/>
	<path d="M231.107,377.88c-2.56,0-4.267-0.853-5.973-2.56c-3.413-3.413-3.413-8.533,0-11.947l17.92-17.92
		c8.533-8.533,12.8-17.067,11.947-25.6c-0.853-9.387-6.827-17.92-11.947-23.04c-1.707-1.707-2.56-3.413-2.56-5.973
		s0.853-4.267,2.56-5.973l60.587-60.587c3.413-3.413,8.533-3.413,11.947,0c3.413,3.413,3.413,8.533,0,11.947l-54.613,54.613
		c6.827,8.533,10.24,17.92,11.093,27.307c0.853,13.653-5.12,26.453-17.067,38.4l-17.92,17.92
		C235.373,377.027,233.667,377.88,231.107,377.88z"/>
	<path d="M297.667,312.173c-2.56,0-4.267-0.853-5.973-2.56c-3.413-3.413-3.413-8.533,0-11.947l60.587-60.587
		c3.413-3.413,8.533-3.413,11.947,0c3.413,3.413,3.413,8.533,0,11.947l-60.587,60.587
		C301.933,311.32,299.373,312.173,297.667,312.173z"/>
	<path d="M429.933,179.053c-2.56,0-4.267-0.853-5.973-2.56c-3.413-3.413-3.413-8.533,0-11.947l42.667-42.667
		c3.413-3.413,8.533-3.413,11.947,0s3.413,8.533,0,11.947l-42.667,42.667C434.2,178.2,432.493,179.053,429.933,179.053z"/>
	<path d="M388.12,221.72c-2.56,0-4.267-0.853-5.973-2.56c-3.413-3.413-3.413-8.533,0-11.947l11.947-11.947
		c3.413-3.413,8.533-3.413,11.947,0c3.413,3.413,3.413,8.533,0,11.947l-11.947,11.947C392.387,220.867,389.827,221.72,388.12,221.72
		z"/>
</g>
</svg>