<?xml version="1.0" encoding="iso-8859-1"?>
<!-- Generator: Adobe Illustrator 19.0.0, SVG Export Plug-In . SVG Version: 6.00 Build 0)  -->
<svg version="1.1" id="Layer_1" xmlns="http://www.w3.org/2000/svg" xmlns:xlink="http://www.w3.org/1999/xlink" x="0px" y="0px"
	 viewBox="0 0 511.997 511.997" style="enable-background:new 0 0 511.997 511.997;" xml:space="preserve">
<polygon style="fill:#FF9ECA;" points="289.493,130.735 196.134,58.325 102.776,130.735 "/>
<g>
	<rect x="122.421" y="130.731" style="fill:#FFE97C;" width="147.429" height="33.519"/>
	<rect x="122.421" y="283.566" style="fill:#FFE97C;" width="147.429" height="97.882"/>
</g>
<g>
	<path style="fill:#4D1E1E;" d="M112.218,273.368h-59.76C23.532,273.368,0,296.96,0,325.958v127.713
		c0,5.632,4.567,10.199,10.199,10.199s10.199-4.567,10.199-10.199v-13.277h43.458v12.338c0,5.632,4.567,10.199,10.199,10.199
		c5.632,0,10.199-4.567,10.199-10.199v-138.98c0-5.632-4.567-10.199-10.199-10.199c-5.632,0-10.199,4.567-10.199,10.199v2.008
		H22.057c4.259-12.765,16.273-21.992,30.4-21.992h59.761v149.706h-5.294c-5.632,0-10.199,4.567-10.199,10.199
		s4.567,10.199,10.199,10.199h30.05c5.632,0,10.199-4.567,10.199-10.199s-4.567-10.199-10.199-10.199h-4.356v-6.834h64.227
		c5.632,0,10.199-4.567,10.199-10.199s-4.567-10.199-10.199-10.199h-64.228v-24.591h127.036v51.825h-5.295
		c-5.632,0-10.199,4.567-10.199,10.199s4.567,10.199,10.199,10.199h30.05c5.632,0,10.199-4.567,10.199-10.199
		s-4.567-10.199-10.199-10.199h-4.356V295.419c4.417,1.699,8.369,4.648,11.292,8.572l0.675,0.906
		c9.755,13.107,25.334,20.931,41.672,20.931c9.923,0,19.385,4.752,25.309,12.712l10.606,14.249
		c9.755,13.107,25.334,20.931,41.673,20.931h2.796c9.923,0,19.385,4.752,25.309,12.712l54.234,72.86
		c2.002,2.691,5.076,4.11,8.189,4.11c2.117,0,4.253-0.658,6.082-2.018c4.519-3.364,5.456-9.753,2.092-14.271l-54.234-72.86
		c-9.755-13.107-25.334-20.931-41.672-20.931h-2.796c-9.923,0-19.386-4.752-25.31-12.712l-10.606-14.249
		c-9.754-13.107-25.334-20.931-41.672-20.931c-9.923,0-19.385-4.752-25.315-12.72l-0.675-0.906
		c-6.798-9.132-16.747-15.338-27.648-17.538V140.935h9.442c4.359,0,8.237-2.771,9.649-6.896s0.047-8.691-3.398-11.363l-93.358-72.41
		c-3.679-2.855-8.822-2.855-12.502,0l-93.358,72.411c-3.445,2.671-4.811,7.238-3.398,11.363c1.413,4.125,5.29,6.896,9.649,6.896
		h9.442v132.432H112.218z M63.856,385.25H20.398v-14.346h43.458V385.25z M20.398,419.995v-14.347h43.458v14.347H20.398z
		 M63.856,350.505H20.398v-14.347h43.458V350.505z M206.334,273.368v-23.604h15.286v23.604H206.334z M169.71,273.368v-23.604h16.225
		v23.604H169.71z M132.616,273.368v-23.604h16.695v23.604H132.616z M259.652,229.366H132.616v-54.913h127.036V229.366z
		 M242.017,249.764h17.634v23.604h-17.634L242.017,249.764L242.017,249.764z M196.134,71.232l63.566,49.304H132.568L196.134,71.232z
		 M259.652,140.935v13.119H132.616v-13.119H259.652z M132.616,371.249v-77.483h127.036v77.483H132.616z"/>
	<path style="fill:#4D1E1E;" d="M235.601,416.239h-4.08c-5.632,0-10.199,4.567-10.199,10.199c0,5.632,4.567,10.199,10.199,10.199
		h4.08c5.632,0,10.199-4.567,10.199-10.199C245.8,420.806,241.233,416.239,235.601,416.239z"/>
</g>
<g>
</g>
<g>
</g>
<g>
</g>
<g>
</g>
<g>
</g>
<g>
</g>
<g>
</g>
<g>
</g>
<g>
</g>
<g>
</g>
<g>
</g>
<g>
</g>
<g>
</g>
<g>
</g>
<g>
</g>
</svg>
