<?xml version="1.0" encoding="iso-8859-1"?>
<!-- Uploaded to: SVG Repo, www.svgrepo.com, Generator: SVG Repo Mixer Tools -->
<svg version="1.1" id="Layer_1" xmlns="http://www.w3.org/2000/svg" xmlns:xlink="http://www.w3.org/1999/xlink" 
	 viewBox="0 0 480 480" xml:space="preserve">
<g>
	<path style="fill:#4E82A2;" d="M328,307.608V480h24V311.808C344,311.808,336,310.28,328,307.608z"/>
	<path style="fill:#4E82A2;" d="M208,322.84V480h24V327.456C224,326.824,216,325.32,208,322.84z"/>
	<path style="fill:#4E82A2;" d="M128,311.808V480h24V307.608C144,310.28,136,311.808,128,311.808z"/>
	<path style="fill:#4E82A2;" d="M311.68,299.424c-7.12,6.68-15.68,12.232-23.68,16.648V480h24V299.632
		C312,299.568,311.784,299.496,311.68,299.424z"/>
	<path style="fill:#4E82A2;" d="M408,313.664V480h24V323.984C424,319.16,416,315.648,408,313.664z"/>
	<rect x="368" y="312" style="fill:#4E82A2;" width="24" height="168"/>
	<path style="fill:#4E82A2;" d="M448,338.656V480h16v-96.192C464,366.72,456,351.016,448,338.656z"/>
	<path style="fill:#4E82A2;" d="M248,327.456V480h24V322.84C264,325.32,256,326.824,248,327.456z"/>
	<path style="fill:#4E82A2;" d="M16,383.808V480h16V338.656C24,351.016,16,366.72,16,383.808z"/>
	<path style="fill:#4E82A2;" d="M48,323.984V480h24V313.664C64,315.648,56,319.16,48,323.984z"/>
	<path style="fill:#4E82A2;" d="M168.32,299.424c-0.104,0.072-0.32,0.144-0.32,0.208V480h24V316.072
		C184,311.656,175.44,306.104,168.32,299.424z"/>
	<rect x="88" y="312" style="fill:#4E82A2;" width="24" height="168"/>
</g>
<g>
	<path style="fill:#E5E8E8;" d="M299.544,288.968c-8.752-9.336-15.072-20.96-17.88-33.904c-12.976,5.68-27.064,8.744-41.64,8.744
		c-0.656,0-1.304,0-1.96-0.016c-14.056-0.256-27.456-3.448-39.648-9c-2.776,13.056-9.136,24.776-17.952,34.176
		c16.24,14.648,37.472,22.912,59.544,22.912S283.296,303.616,299.544,288.968z"/>
	<path style="fill:#E5E8E8;" d="M301.648,222.608c16.992-16.68,26.352-38.992,26.352-62.8v-0.72c-24-3.824-40-23.544-40-47.28V104
		H184c-11.296,0-24-2.408-32-6.304v58.928c0,49.4,38.736,90.296,86.352,91.168C261.84,248.224,284.664,239.28,301.648,222.608z
		 M248,207.808c24,0,40-15.808,40-39.808h16c0,32-24,55.808-56,55.808V207.808z"/>
</g>
<path style="fill:#E07940;" d="M296,88c4.416,0,8,3.392,8,7.808v16c0,14.864,8,27.288,24,30.864V55.808C328,33.76,310.056,16,288,16
	h-40h-8H112c0,40,32.304,72,72,72H296z"/>
<g>
	<path style="fill:#334C5B;" d="M392,296h-40c-28.4,0-51.872-21.36-55.472-48.792c5.8-3.776,11.272-8.176,16.328-13.136
		c20.088-19.72,31.144-46.12,31.144-74.264v-104C344,24.928,318.88,0,288,0h-40h-8H104c-4.416,0-8,3.392-8,7.808v8
		c0,30.816,16,57.936,40,73.664v67.16c0,37.384,19.04,70.64,47.576,89.848C180.312,274.264,156.648,296,128,296H88
		c-48.52,0-88,39.288-88,87.808V480h8h8v-96.192c0-17.096,8-32.792,16-45.152V480h16V323.984c8-4.824,16-8.336,24-10.32V480h16V312
		h24v168h16V311.808c8,0,16-1.528,24-4.2V480h16V299.632c0-0.072,0.216-0.136,0.32-0.208c7.12,6.672,15.68,12.224,23.68,16.648V480
		h16V322.84c8,2.48,16,3.984,24,4.616V480h16V327.456c8-0.632,16-2.128,24-4.616V480h16V316.072c8-4.424,16.56-9.976,23.68-16.648
		c0.104,0.072,0.32,0.136,0.32,0.208V480h16V307.608c8,2.672,16,4.2,24,4.2V480h16V312h24v168h16V313.664c8,1.984,16,5.496,24,10.32
		V480h16V338.656c8,12.36,16,28.064,16,45.152V480h8h8v-96.192C480,335.288,440.52,296,392,296z M112,16h128h8h40
		c22.056,0,40,17.76,40,39.808v86.864c-16-3.576-24-16-24-30.864v-16c0-4.416-3.584-7.808-8-7.808H184C144.304,88,112,56,112,16z
		 M152,156.624V97.696c8,3.896,20.704,6.304,32,6.304h104v7.808c0,23.736,16,43.448,40,47.28v0.72c0,23.808-9.36,46.112-26.352,62.8
		c-16.992,16.672-39.808,25.616-63.296,25.184C190.736,246.928,152,206.024,152,156.624z M198.408,254.792
		c12.192,5.552,25.592,8.744,39.648,9c0.656,0.016,1.304,0.016,1.96,0.016c14.584,0,28.664-3.064,41.64-8.744
		c2.808,12.944,9.128,24.568,17.88,33.904c-16.24,14.648-37.472,22.912-59.544,22.912s-43.296-8.264-59.544-22.912
		C189.272,279.568,195.632,267.848,198.408,254.792z"/>
	<path style="fill:#334C5B;" d="M304,168h-16c0,24-16,39.808-40,39.808v16C280,223.808,304,200,304,168z"/>
</g>
</svg>