<?xml version="1.0" encoding="iso-8859-1"?>
<!-- Uploaded to: SVG Repo, www.svgrepo.com, Generator: SVG Repo Mixer Tools -->
<svg height="800px" width="800px" version="1.1" id="Layer_1" xmlns="http://www.w3.org/2000/svg" xmlns:xlink="http://www.w3.org/1999/xlink" 
	 viewBox="0 0 512 512" xml:space="preserve">
<g transform="translate(1 1)">
	<path style="fill:#FFE100;" d="M437.613,167.107c18.773-14.507,30.72-36.693,30.72-61.44c0-42.667-34.133-76.8-76.8-76.8
		s-76.8,34.133-76.8,76.8c0,1.707,0,3.413,0,5.973c-18.773-4.267-39.253-5.973-59.733-5.973s-40.96,1.707-59.733,5.973
		c0-1.707,0-3.413,0-5.973c0-42.667-34.133-76.8-76.8-76.8s-76.8,34.133-76.8,76.8c0,24.747,11.947,46.933,30.72,61.44
		C32.28,200.387,7.533,244.76,7.533,293.4c0,103.253,110.933,187.733,247.467,187.733s247.467-84.48,247.467-187.733
		C502.467,244.76,477.72,200.387,437.613,167.107"/>
	<g>
		<path style="fill:#00DA6C;" d="M152.6,114.2c0,14.507-11.093,25.6-25.6,25.6s-25.6-11.093-25.6-25.6
			c0-14.507,11.093-25.6,25.6-25.6S152.6,99.693,152.6,114.2"/>
		<path style="fill:#00DA6C;" d="M408.6,114.2c0,14.507-11.093,25.6-25.6,25.6c-14.507,0-25.6-11.093-25.6-25.6
			c0-14.507,11.093-25.6,25.6-25.6C397.507,88.6,408.6,99.693,408.6,114.2"/>
		<path style="fill:#00DA6C;" d="M92.867,378.733c0-23.893-18.773-42.667-42.667-42.667c-12.8,0-23.04,5.12-31.573,13.653
			c10.24,24.747,27.307,47.787,49.493,67.413C82.627,410.307,92.867,395.799,92.867,378.733"/>
		<path style="fill:#00DA6C;" d="M391.533,387.267c0,14.507-11.093,25.6-25.6,25.6s-25.6-11.093-25.6-25.6
			c0-14.507,11.093-25.6,25.6-25.6S391.533,372.76,391.533,387.267"/>
		<path style="fill:#00DA6C;" d="M67.267,250.733c0,14.507-11.093,25.6-25.6,25.6s-25.6-11.093-25.6-25.6
			c0-14.507,11.093-25.6,25.6-25.6S67.267,236.227,67.267,250.733"/>
		<path style="fill:#00DA6C;" d="M500.76,269.507c-5.12-27.307-17.067-53.76-35.84-75.947c-17.067,5.12-29.867,21.333-29.867,40.96
			c0,23.893,18.773,42.667,42.667,42.667C485.4,276.333,493.933,273.773,500.76,269.507"/>
	</g>
	<path style="fill:#FFA800;" d="M437.613,167.107c18.773-14.507,30.72-36.693,30.72-61.44c0-42.667-34.133-76.8-76.8-76.8
		c-4.267,0-8.533,0.853-12.8,0.853c36.693,6.827,64,37.547,64,75.947c0,24.747-11.947,46.933-30.72,61.44
		c40.107,33.28,64.853,77.653,64.853,126.293c0,100.693-104.107,182.613-234.667,187.733c4.267,0,8.533,0,12.8,0
		c136.533,0,247.467-84.48,247.467-187.733C502.467,244.76,477.72,200.387,437.613,167.107"/>
	<path style="fill:#FFFFFF;" d="M72.387,167.107c-18.773-14.507-30.72-36.693-30.72-61.44c0-42.667,34.133-76.8,76.8-76.8
		c4.267,0,8.533,0.853,12.8,0.853c-36.693,6.827-64,37.547-64,75.947c0,24.747,11.947,46.933,30.72,61.44
		C57.88,200.387,33.133,244.76,33.133,293.4c0,100.693,104.107,182.613,234.667,187.733c-4.267,0-8.533,0-12.8,0
		c-136.533,0-247.467-84.48-247.467-187.733C7.533,244.76,32.28,200.387,72.387,167.107"/>
	<path style="fill:#00DA6C;" d="M500.76,266.947c-5.12-27.307-17.067-53.76-35.84-75.947c-17.067,5.12-29.867,21.333-29.867,40.96
		c0,23.893,18.773,42.667,42.667,42.667C485.4,274.627,493.933,271.213,500.76,266.947"/>
	<path style="fill:#00AD55;" d="M464.067,192.707c-5.973,1.707-11.947,5.12-16.213,9.387c14.507,20.48,24.747,42.667,29.013,66.56
		c-3.413,2.56-7.68,4.267-11.093,5.12c3.413,0.853,7.68,1.707,11.093,1.707c8.533,0,17.067-2.56,23.893-6.827
		C495.64,241.347,482.84,215.747,464.067,192.707"/>
	<path d="M255,327.533c-45.227,0-86.187-23.893-110.08-64c-2.56-4.267-0.853-9.387,3.413-11.947s9.387-0.853,11.947,3.413
		c19.627,34.987,55.467,55.467,94.72,55.467s75.093-20.48,94.72-55.467c2.56-4.267,7.68-5.12,11.947-3.413
		c4.267,2.56,5.12,7.68,3.413,11.947C341.187,303.64,300.227,327.533,255,327.533z"/>
	<path d="M255,489.667c-140.8,0-256-87.893-256-196.267c0-46.933,21.333-91.307,59.733-126.293c-16.213-16.213-25.6-38.4-25.6-61.44
		c0-46.933,38.4-85.333,85.333-85.333c45.227,0,82.773,35.84,85.333,81.067c34.133-5.12,69.12-5.12,102.4,0
		c2.56-45.227,40.107-81.067,85.333-81.067c46.933,0,85.333,38.4,85.333,85.333c0,23.04-9.387,45.227-25.6,61.44
		C490.52,202.093,511,247.32,511,293.4C511,401.773,395.8,489.667,255,489.667z M118.467,37.4C80.92,37.4,50.2,68.12,50.2,105.667
		c0,21.333,10.24,40.96,27.307,54.613c1.707,1.707,3.413,4.267,3.413,6.827s-0.853,5.12-3.413,6.827
		c-39.253,32.427-61.44,75.093-61.44,119.467c0,98.987,107.52,179.2,238.933,179.2s238.933-80.213,238.933-179.2
		c0-44.373-22.187-87.04-61.44-120.32c-1.707-1.707-3.413-4.267-3.413-6.827s1.707-5.12,3.413-6.827
		c17.067-12.8,27.307-33.28,27.307-54.613c0-37.547-30.72-68.267-68.267-68.267s-68.267,30.72-68.267,68.267c0,1.707,0,2.56,0,4.267
		c0,2.56-0.853,5.12-2.56,7.68c-1.707,1.707-4.267,2.56-6.827,2.56c-38.4-6.827-78.507-6.827-116.907,0
		c-2.56,0.853-5.12,0-7.68-1.707c-1.707-1.707-3.413-4.267-2.56-6.827c0-2.56,0-3.413,0-5.12
		C186.733,68.12,156.013,37.4,118.467,37.4z"/>
	<path d="M127,148.333c-18.773,0-34.133-15.36-34.133-34.133S108.227,80.067,127,80.067s34.133,15.36,34.133,34.133
		S145.773,148.333,127,148.333z M127,97.133c-9.387,0-17.067,7.68-17.067,17.067c0,9.387,7.68,17.067,17.067,17.067
		s17.067-7.68,17.067-17.067C144.067,104.813,136.387,97.133,127,97.133z"/>
	<path d="M383,148.333c-18.773,0-34.133-15.36-34.133-34.133S364.227,80.067,383,80.067s34.133,15.36,34.133,34.133
		S401.773,148.333,383,148.333z M383,97.133c-9.387,0-17.067,7.68-17.067,17.067c0,9.387,7.68,17.067,17.067,17.067
		s17.067-7.68,17.067-17.067C400.067,104.813,392.387,97.133,383,97.133z"/>
	<path d="M68.973,425.667c-1.707,0-4.267-0.853-5.973-1.707c-23.893-20.48-40.96-44.373-52.053-69.973
		c-0.853-3.413-0.853-6.827,1.707-9.387c10.24-11.093,23.04-17.067,37.547-17.067c28.16,0,51.2,23.04,51.2,51.2
		c0,19.627-11.093,37.547-29.013,46.08C71.533,424.813,69.827,425.667,68.973,425.667z M28.867,352.28
		c9.387,19.627,23.04,38.4,40.96,54.613c9.387-6.827,14.507-17.067,14.507-28.16c0-18.773-15.36-34.133-34.133-34.133
		C42.52,344.6,34.84,347.16,28.867,352.28z"/>
	<path d="M365.933,421.4c-18.773,0-34.133-15.36-34.133-34.133s15.36-34.133,34.133-34.133s34.133,15.36,34.133,34.133
		S384.707,421.4,365.933,421.4z M365.933,370.2c-9.387,0-17.067,7.68-17.067,17.067s7.68,17.067,17.067,17.067
		S383,396.653,383,387.267S375.32,370.2,365.933,370.2z"/>
	<path d="M41.667,284.867c-18.773,0-34.133-15.36-34.133-34.133S22.893,216.6,41.667,216.6S75.8,231.96,75.8,250.733
		S60.44,284.867,41.667,284.867z M41.667,233.667c-9.387,0-17.067,7.68-17.067,17.067c0,9.387,7.68,17.066,17.067,17.066
		s17.067-7.68,17.067-17.067S51.053,233.667,41.667,233.667z"/>
	<path d="M476.867,284.867c-28.16,0-51.2-23.04-51.2-51.2c0-22.187,14.507-41.813,35.84-48.64c3.413-0.853,6.827,0,9.387,2.56
		c20.48,24.747,33.28,51.2,38.4,80.213c0.853,3.413-0.853,6.827-3.413,8.533C496.493,282.307,487.107,284.867,476.867,284.867z
		 M461.507,203.8c-11.093,5.973-18.773,17.067-18.773,29.867c0,18.773,15.36,34.133,34.133,34.133c5.12,0,9.387-0.853,13.653-3.413
		C486.253,243.053,476.013,222.573,461.507,203.8z"/>
</g>
</svg>