<?xml version="1.0" encoding="iso-8859-1"?>
<!-- Uploaded to: SVG Repo, www.svgrepo.com, Generator: SVG Repo Mixer Tools -->
<svg version="1.1" id="Layer_1" xmlns="http://www.w3.org/2000/svg" xmlns:xlink="http://www.w3.org/1999/xlink" 
	 viewBox="0 0 512 512" xml:space="preserve">
<rect x="66.004" y="342.449" style="fill:#0071CE;" width="108.223" height="161.521"/>
<rect x="66.004" y="342.449" style="opacity:0.1;enable-background:new    ;" width="108.223" height="110.664"/>
<rect x="337.772" y="342.449" style="fill:#0071CE;" width="108.223" height="161.521"/>
<rect x="337.772" y="342.449" style="opacity:0.1;enable-background:new    ;" width="108.223" height="110.664"/>
<path style="fill:#0071CE;" d="M445.996,422.28V89.183c0-44.635-36.519-81.154-81.154-81.154H147.159
	c-44.636,0-81.154,36.519-81.154,81.154v333.098h379.991V422.28z"/>
<path style="fill:#00B3E3;" d="M364.841,8.028H147.159c-44.636,0-81.154,36.519-81.154,81.154v103.904h379.99V89.183
	C445.996,44.547,409.476,8.028,364.841,8.028z"/>
<g style="opacity:0.1;">
	<path d="M381.826,242.876c0-8.949-7.322-16.271-16.27-16.271h-219.11c-8.948,0-16.27,7.322-16.27,16.271v122.997
		c0,8.948,7.322,16.27,16.27,16.27h219.11c8.948,0,16.27-7.322,16.27-16.27V242.876z"/>
</g>
<g style="opacity:0.1;">
	<path d="M362.378,71.316c0-8.947-7.322-16.27-16.27-16.27H165.894c-8.948,0-16.27,7.323-16.27,16.27v71.694
		c0,8.949,7.322,16.271,16.27,16.271h180.216c8.948,0,16.27-7.322,16.27-16.271V71.316H362.378z"/>
</g>
<g>
	<path style="fill:#FFFFFF;" d="M318.386,348.4H193.608c-4.435,0-8.028-3.595-8.028-8.028v-71.992c0-4.435,3.594-8.028,8.028-8.028
		h124.778c4.435,0,8.028,3.594,8.028,8.028v71.992C326.414,344.806,322.819,348.4,318.386,348.4z M201.636,332.343h108.721v-55.936
		H201.636V332.343z"/>
	<path style="fill:#FFFFFF;" d="M255.997,319.8c-1.604,0-3.206-0.478-4.584-1.438l-62.388-43.392l9.168-13.182l57.805,40.204
		l57.805-40.204l9.167,13.182l-62.388,43.392C259.203,319.321,257.6,319.8,255.997,319.8z"/>
</g>
<path style="fill:#1E252B;" d="M364.841,0H147.159C97.983,0,57.976,40.007,57.976,89.183v414.789c0,4.435,3.594,8.028,8.028,8.028
	h108.22c4.435,0,8.028-3.594,8.028-8.028v-73.663h147.495v73.663c0,4.435,3.594,8.028,8.028,8.028h108.22
	c4.435,0,8.028-3.594,8.028-8.028V89.183C454.024,40.007,414.017,0,364.841,0z M166.196,495.943H74.033v-65.635h92.163V495.943z
	 M437.967,495.943h-92.163v-65.635h92.163V495.943z M437.967,414.251H74.033V89.183c0-40.322,32.804-73.126,73.126-73.126h217.682
	c40.322,0,73.126,32.804,73.126,73.126V414.251z M365.556,218.575h-219.11c-13.399,0-24.298,10.902-24.298,24.299v122.997
	c0,13.399,10.9,24.298,24.298,24.298h219.11c13.399,0,24.298-10.9,24.298-24.298V242.876
	C389.855,229.477,378.955,218.575,365.556,218.575z M373.798,365.873c0,4.544-3.697,8.241-8.241,8.241h-219.11
	c-4.544,0-8.241-3.697-8.241-8.241V242.876c0-4.545,3.697-8.243,8.241-8.243h219.11c4.544,0,8.241,3.697,8.241,8.243V365.873z
	 M165.894,167.309h180.216c13.399,0,24.298-10.902,24.298-24.299V71.316c0-13.399-10.9-24.298-24.298-24.298H165.894
	c-13.399,0-24.298,10.9-24.298,24.298v71.694C141.595,156.408,152.495,167.309,165.894,167.309z M157.651,71.316
	c0-4.544,3.697-8.241,8.241-8.241h180.215c4.544,0,8.241,3.697,8.241,8.241v71.694c0,4.545-3.697,8.243-8.241,8.243H165.894
	c-4.544,0-8.241-3.697-8.241-8.243V71.316H157.651z M212.252,104.575h87.497c4.435,0,8.028-3.594,8.028-8.028
	s-3.594-8.028-8.028-8.028h-87.497c-4.435,0-8.028,3.594-8.028,8.028S207.818,104.575,212.252,104.575z"/>
</svg>