<?xml version="1.0" encoding="iso-8859-1"?>
<!-- Uploaded to: SVG Repo, www.svgrepo.com, Generator: SVG Repo Mixer Tools -->
<svg height="800px" width="800px" version="1.1" id="Layer_1" xmlns="http://www.w3.org/2000/svg" xmlns:xlink="http://www.w3.org/1999/xlink" 
	 viewBox="0 0 503.467 503.467" xml:space="preserve">
<g transform="translate(1 1)">
	<path style="fill:#F2EDDA;" d="M345.073,412.867l-59.733,51.2l-0.853-0.853L251.207,447l59.733-51.2L345.073,412.867z
		 M95.047,416.28L106.14,447l-51.2,17.067L42.993,434.2l0,0C54.94,425.667,72.007,418.84,95.047,416.28L95.047,416.28z
		 M455.153,428.227L455.153,428.227l-13.653,35.84L396.273,447l9.387-32.427v-0.853C426.993,416.28,443.207,421.4,455.153,428.227z
		 M251.207,447l-34.133,17.067l-59.733-51.2l34.133-17.067L251.207,447z"/>
	<path style="fill:#AE938D;" d="M251.207,447v51.2H3.74l8.533-25.6c4.267-11.947,12.8-26.453,30.72-38.4l0,0l11.947,29.867
		L106.14,447l-11.093-30.72v-0.853c11.093-1.707,23.04-2.56,36.693-2.56h25.6l59.733,51.2L251.207,447z M285.34,464.067l59.733-51.2
		h34.133c9.387,0,17.92,0,26.453,1.707v0.853l-9.387,32.427L441.5,464.92l13.653-35.84l0,0c22.187,12.8,30.72,30.72,34.987,44.373
		l8.533,25.6H251.207v-51.2l33.28,16.213H285.34z"/>
	<path style="fill:#FFD0A1;" d="M379.207,188.44l-0.853,2.56v25.6c0,9.387-7.68,17.067-17.067,17.067c0,0-8.533,76.8-25.6,102.4
		c-10.24,16.213-25.6,42.667-85.333,42.667s-75.093-26.453-85.333-42.667c-17.067-25.6-25.6-102.4-25.6-102.4
		c-9.387,0-17.067-7.68-17.067-17.067v-23.893l-0.853-4.267c40.107-8.533,121.173-37.547,128-40.107
		c18.773,5.973,34.133,11.093,43.52,14.507l0,0C322.033,173.08,357.02,184.173,379.207,188.44"/>
	<g>
		<path style="fill:#AE938D;" d="M152.22,117.613c29.867,8.533,67.413,21.333,98.133,31.573c-7.68,2.56-88.747,32.427-128,40.107
			c-6.827,1.707-11.947,2.56-16.213,2.56c-28.16,0-51.2-14.507-51.2-42.667s23.04-42.667,51.2-42.667
			C112.113,105.667,130.033,110.787,152.22,117.613z M396.273,105.667c28.16,0,51.2,14.507,51.2,42.667S424.433,191,396.273,191
			c-4.267,0-9.387-0.853-16.213-2.56c-23.04-5.12-58.027-16.213-86.187-25.6l0,0c-9.387-3.413-24.747-8.533-43.52-14.507
			c0.853,0,0.853,0,0.853,0s54.613-19.627,98.133-32.427C369.82,109.933,386.887,105.667,396.273,105.667z"/>
		<path style="fill:#AE938D;" d="M345.073,80.067c0,0,3.413,15.36,4.267,35.84c-43.52,12.8-98.133,32.427-98.133,32.427s0,0-0.853,0
			c-30.72-10.24-68.267-22.187-98.133-31.573v-0.853c0.853-19.627,4.267-35.84,4.267-35.84s17.067-76.8,51.2-76.8
			c25.6,0,34.133,17.067,42.667,17.067c8.533,0,17.067-17.067,42.667-17.067C328.007,3.267,345.073,80.067,345.073,80.067
			L345.073,80.067z"/>
	</g>
	<polygon style="fill:#FFE079;" points="240.113,82.627 225.607,71.533 242.673,71.533 251.207,54.467 259.74,71.533 
		276.807,71.533 263.153,82.627 268.273,99.693 251.207,92.013 234.14,99.693 	"/>
</g>
<path style="fill:#51565F;" d="M499.673,503.467c-1.707,0-3.413-0.853-4.267-2.56l-8.533-25.6
	c-5.12-14.507-11.947-29.013-29.013-39.253l-11.947,31.573c-0.853,2.56-3.413,3.413-5.12,2.56l-45.227-17.067
	c-1.707-0.853-3.413-3.413-2.56-5.12l7.68-28.16c-6.827-0.853-13.653-0.853-21.333-0.853c-2.56,0-4.267-1.707-4.267-4.267
	c0-2.56,1.707-4.267,4.267-4.267c83.627,0,104.96,33.28,115.2,62.293l8.533,25.6c0.853,2.56-0.853,4.267-2.56,5.12
	C500.527,503.467,500.527,503.467,499.673,503.467z M402.393,445.44l37.547,14.507l10.24-27.307l-40.96-11.093L402.393,445.44z
	 M4.74,503.467c-0.853,0-0.853,0-1.707,0c-2.56-0.853-3.413-3.413-2.56-5.12l8.533-25.6c7.68-23.04,34.133-62.293,123.733-62.293
	c2.56,0,4.267,1.707,4.267,4.267c0,2.56-1.707,4.267-4.267,4.267c-11.093,0-22.187,0.853-30.72,1.707l9.387,26.453
	c0,0.853,0,2.56,0,3.413s-1.707,1.707-2.56,2.56l-51.2,17.067c-2.56,0.853-4.267,0-5.12-2.56l-10.24-24.747
	c-14.507,11.093-21.333,23.893-24.747,33.28l-8.533,25.6C8.153,502.613,6.447,503.467,4.74,503.467z M49.113,437.76l8.533,22.187
	l43.52-14.507l-8.533-23.04L49.113,437.76z M252.207,503.467c-2.56,0-4.267-1.707-4.267-4.267v-49.493l-56.32-47.787l-25.6,12.8
	l54.613,46.933c1.707,1.707,1.707,4.267,0.853,5.973c-0.853,1.707-4.267,1.707-5.973,0.853l-59.733-51.2
	c-0.853-0.853-1.707-2.56-1.707-3.413c0-1.707,0.853-2.56,2.56-3.413l34.133-17.067c1.707-0.853,3.413-0.853,4.267,0.853
	l57.173,48.64l57.173-48.64c1.707-0.853,3.413-1.707,4.267-0.853l34.133,17.067c0.853,0.853,2.56,1.707,2.56,3.413
	c0,1.707,0,2.56-1.707,3.413l-59.733,51.2c-1.707,1.707-4.267,1.707-5.973-0.853c-1.707-1.707-1.707-4.267,0.853-5.973
	l54.613-46.933l-25.6-12.8l-56.32,47.787V499.2C256.473,501.76,254.767,503.467,252.207,503.467z M252.207,384
	c-59.733,0-76.8-26.453-87.893-42.667l-1.707-1.707c-15.36-23.04-23.893-85.333-25.6-100.693c-10.24-1.707-17.92-10.24-17.92-21.333
	c0-2.56,1.707-4.267,4.267-4.267s4.267,1.707,4.267,4.267c0,6.827,5.973,12.8,12.8,12.8c2.56,0,4.267,1.707,4.267,3.413
	c0,0.853,8.533,75.947,24.747,100.693l1.707,1.707c10.24,15.36,25.6,38.4,80.213,38.4s69.973-23.04,80.213-38.4l1.707-1.707
	c16.213-24.747,24.747-99.84,24.747-100.693c0-2.56,1.707-3.413,4.267-3.413c6.827,0,12.8-5.973,12.8-12.8
	c0-2.56,1.707-4.267,4.267-4.267s4.267,1.707,4.267,4.267c0,10.24-7.68,18.773-17.92,21.333c-1.707,15.36-10.24,77.653-25.6,100.693
	l-1.707,1.707C329.007,357.547,311.94,384,252.207,384z M294.873,324.267c-2.56,0-4.267-1.707-4.267-4.267v-21.333
	c-7.68-0.853-24.747-3.413-38.4-15.36c-13.653,11.947-30.72,14.507-38.4,15.36V320c0,2.56-1.707,4.267-4.267,4.267
	s-4.267-1.707-4.267-4.267v-25.6c0-2.56,1.707-4.267,4.267-4.267c0,0,23.893,0,39.253-16.213c1.707-1.707,4.267-1.707,5.973,0
	c15.36,15.36,39.253,16.213,39.253,16.213c2.56,0,4.267,1.707,4.267,4.267V320C299.14,322.56,297.433,324.267,294.873,324.267z
	 M260.74,324.267h-17.067c-2.56,0-4.267-1.707-4.267-4.267c0-2.56,1.707-4.267,4.267-4.267h17.067c2.56,0,4.267,1.707,4.267,4.267
	C265.007,322.56,263.3,324.267,260.74,324.267z M294.873,221.867c-2.56,0-4.267-1.707-4.267-4.267v-4.267h-12.8
	c-2.56,0-4.267-1.707-4.267-4.267c0-2.56,1.707-4.267,4.267-4.267h34.133c2.56,0,4.267,1.707,4.267,4.267
	c0,2.56-1.707,4.267-4.267,4.267h-12.8v4.267C299.14,220.16,297.433,221.867,294.873,221.867z M209.54,221.867
	c-2.56,0-4.267-1.707-4.267-4.267v-4.267h-12.8c-2.56,0-4.267-1.707-4.267-4.267c0-2.56,1.707-4.267,4.267-4.267h34.133
	c2.56,0,4.267,1.707,4.267,4.267c0,2.56-1.707,4.267-4.267,4.267h-12.8v4.267C213.807,220.16,212.1,221.867,209.54,221.867z
	 M397.273,196.267c-13.653,0-48.64-9.387-104.107-28.16l0,0l-40.96-14.507c-14.507,5.12-117.76,42.667-145.067,42.667
	c-33.28,0-55.467-18.773-55.467-46.933S73.86,102.4,107.14,102.4c13.653,0,48.64,9.387,104.107,28.16l40.96,14.507
	c14.507-5.12,117.76-42.667,145.067-42.667c33.28,0,55.467,18.773,55.467,46.933S430.553,196.267,397.273,196.267z M296.58,160.427
	c52.053,17.92,88.747,27.307,100.693,27.307c23.04,0,46.933-10.24,46.933-38.4s-23.893-38.4-46.933-38.4
	c-22.187,0-102.4,28.16-132.267,38.4L296.58,160.427z M107.14,110.933c-23.04,0-46.933,10.24-46.933,38.4s23.893,38.4,46.933,38.4
	c22.187,0,102.4-28.16,132.267-38.4l-31.573-11.093C155.78,120.32,119.94,110.933,107.14,110.933z M269.273,104.96
	c-0.853,0-0.853,0-1.707,0l-15.36-6.827l-15.36,6.827c-1.707,0.853-3.413,0-4.267-0.853c-0.853-0.853-1.707-2.56-0.853-4.267
	l5.12-14.507L224.9,75.946c-1.707-0.853-1.707-3.413-1.707-5.12c0-1.707,2.56-2.56,4.267-2.56h14.507l7.68-14.507
	c1.707-2.56,5.973-2.56,7.68,0l7.68,14.507h14.507c1.707,0,3.413,0.853,4.267,2.56c0.853,1.707,0,3.413-1.707,5.12l-11.947,9.387
	l5.12,13.653c0.853,1.707,0,3.413-0.853,4.267C271.833,104.107,270.127,104.96,269.273,104.96z M239.407,76.8l4.267,3.413
	c1.707,0.853,2.56,3.413,1.707,5.12l-2.56,7.68l7.68-3.413c0.853-0.853,2.56-0.853,3.413,0l7.68,3.413l-2.56-7.68
	c-0.853-1.707,0-3.413,1.707-5.12l4.267-3.413h-5.12c-1.707,0-3.413-0.853-3.413-2.56l-5.12-9.387l-5.12,9.387
	c-0.853,1.707-2.56,2.56-3.413,2.56H239.407z M346.073,85.333c-1.707,0-3.413-1.707-4.267-3.413
	C337.54,61.44,319.62,8.533,294.873,8.533c-14.507,0-23.04,5.973-29.867,11.093c-4.267,3.413-8.533,5.973-12.8,5.973
	c-4.267,0-8.533-2.56-12.8-5.973c-6.827-5.12-15.36-11.093-29.867-11.093c-24.747,0-42.667,52.907-46.933,73.387
	c-0.853,2.56-2.56,3.413-5.12,3.413c-2.56-0.853-3.413-2.56-3.413-5.12C154.927,76.8,171.993,0,209.54,0
	c17.92,0,28.16,7.68,34.987,12.8c3.413,2.56,5.973,4.267,7.68,4.267c1.707,0,4.267-1.707,7.68-4.267
	C266.713,7.68,276.953,0,294.873,0c37.547,0,54.613,76.8,55.467,80.213c0.853,2.56-0.853,4.267-3.413,5.12H346.073z"/>
</svg>