<?xml version="1.0" encoding="iso-8859-1"?>
<!-- Uploaded to: SVG Repo, www.svgrepo.com, Generator: SVG Repo Mixer Tools -->
<svg version="1.1" id="Layer_1" xmlns="http://www.w3.org/2000/svg" xmlns:xlink="http://www.w3.org/1999/xlink" 
	 viewBox="0 0 512 512" xml:space="preserve">
<path style="fill:#FF9811;" d="M291.847,6.991L286.854,0h-61.706l-4.994,6.991c-25.983,36.376-35.78,69.458-29.117,98.328
	c3.247,14.073,9.813,23.825,14.877,29.621V512h100.174V134.941c5.064-5.797,11.629-15.549,14.877-29.621
	C327.626,76.451,317.83,43.368,291.847,6.991z"/>
<path style="fill:#BF720D;" d="M291.847,6.991L286.854,0h-30.888v512h50.121V134.941c5.064-5.797,11.629-15.549,14.877-29.621
	C327.626,76.451,317.83,43.368,291.847,6.991z"/>
<g>
	<circle style="fill:#50412E;" cx="256" cy="200.348" r="16.696"/>
	<circle style="fill:#50412E;" cx="256" cy="256" r="16.696"/>
	<circle style="fill:#50412E;" cx="256" cy="311.652" r="16.696"/>
	<circle style="fill:#50412E;" cx="256" cy="367.304" r="16.696"/>
	<path style="fill:#50412E;" d="M279.173,50.087h-46.325c-6.074,12.09-9.531,23.314-10.253,33.391h66.741
		C288.711,74.519,285.884,63.465,279.173,50.087z"/>
</g>
<rect x="205.913" y="445.217" style="fill:#786145;" width="100.174" height="33.391"/>
<rect x="256" y="445.217" style="fill:#50412E;" width="50.087" height="33.391"/>
</svg>