<?xml version="1.0" ?>
<!DOCTYPE svg  PUBLIC '-//W3C//DTD SVG 1.1//EN'  'http://www.w3.org/Graphics/SVG/1.1/DTD/svg11.dtd'>
<!-- Uploaded to: SVG Repo, www.svgrepo.com, Generator: SVG Repo Mixer Tools -->
<svg fill="#000000" width="800px" height="800px" viewBox="0 0 32 32" style="fill-rule:evenodd;clip-rule:evenodd;stroke-linejoin:round;stroke-miterlimit:2;" version="1.1" xml:space="preserve" xmlns="http://www.w3.org/2000/svg" xmlns:serif="http://www.serif.com/" xmlns:xlink="http://www.w3.org/1999/xlink">
<g transform="matrix(1,0,0,1,-48,-96)">
<g transform="matrix(1.3,0,0,0.571429,-19.2,44.4286)">
<path d="M74,100.75C74,99.783 73.656,99 73.231,99C70.051,99 57.949,99 54.769,99C54.344,99 54,99.783 54,100.75C54,101.819 54,103.181 54,104.25C54,105.217 54.344,106 54.769,106C57.949,106 70.051,106 73.231,106C73.656,106 74,105.217 74,104.25C74,103.181 74,101.819 74,100.75Z" style="fill:rgb(144,224,239);"/>
</g>
<g transform="matrix(1.1,0,0,0.947368,-6.4,4.57895)">
<path d="M74,106L54,106L54,122.889C54,123.449 54.192,123.986 54.533,124.382C54.874,124.778 55.336,125 55.818,125C59.621,125 68.379,125 72.182,125C72.664,125 73.126,124.778 73.467,124.382C73.808,123.986 74,123.449 74,122.889C74,117.939 74,106 74,106Z" style="fill:rgb(144,224,239);"/>
</g>
<path d="M52,106L52,121C52,121.796 52.316,122.559 52.879,123.121C53.441,123.684 54.204,124 55,124C59.184,124 68.816,124 73,124C73.796,124 74.559,123.684 75.121,123.121C75.684,122.559 76,121.796 76,121L76,106C77.105,106 78,105.105 78,104L78,102C78,100.895 77.105,100 76,100C71.866,100 56.134,100 52,100C50.895,100 50,100.895 50,102L50,104C50,105.105 50.895,106 52,106ZM74,106L74,121C74,121.265 73.895,121.52 73.707,121.707C73.52,121.895 73.265,122 73,122L55,122C54.735,122 54.48,121.895 54.293,121.707C54.105,121.52 54,121.265 54,121L54,106L74,106ZM61,110L67,110C67.552,110 68,109.552 68,109C68,108.448 67.552,108 67,108L61,108C60.448,108 60,108.448 60,109C60,109.552 60.448,110 61,110ZM52,102L52,104L76,104L76,102L52,102Z" style="fill:rgb(25,144,167);"/>
</g>
</svg>