<!DOCTYPE svg PUBLIC "-//W3C//DTD SVG 1.1//EN" "http://www.w3.org/Graphics/SVG/1.1/DTD/svg11.dtd">
<!-- Uploaded to: SVG Repo, www.svgrepo.com, Transformed by: SVG Repo Mixer Tools -->
<svg height="800px" width="800px" version="1.1" id="Layer_1" xmlns="http://www.w3.org/2000/svg" xmlns:xlink="http://www.w3.org/1999/xlink" viewBox="0 0 227.917 227.917" xml:space="preserve" fill="#000000">
<g id="SVGRepo_bgCarrier" stroke-width="0"/>
<g id="SVGRepo_tracerCarrier" stroke-linecap="round" stroke-linejoin="round"/>
<g id="SVGRepo_iconCarrier"> <g> <path style="fill:#eb4034;" d="M100.891,196.618c0.764,0.241,1.406-0.844,0.804-1.326c-1.366-1.125-1.205-3.416,0.522-4.059 c0.603-0.241,0.482-1.005-0.121-1.085C98.56,189.787,97.595,195.573,100.891,196.618z M111.54,186.773 c10.127,1.085,19.731,0.603,28.853-1.125c-0.161,0.683,0.08,1.406,0.964,1.808c3.577,1.567,5.827,6.148,3.536,9.725 c-2.331,3.737-6.872,3.376-10.368,2.049c-0.04-0.04-0.08,0-0.08,0c-0.603-1.005-2.13-1.527-3.094-0.522 c-7.234,7.434-16.476,7.153-24.071,0.442c-0.201-0.764-1.085-1.326-1.849-1.085c-1.607,0.482-2.652,1.768-4.42,1.768 c-2.532,0.04-4.34-1.889-4.863-4.26c-0.964-4.38,1.929-7.957,5.224-10.448C104.708,185.808,108.084,186.411,111.54,186.773z"/> <path style="fill:#eb4034;" d="M164.022,167.001c4.059-2.009,7.796-4.621,10.77-8.077c0.563-0.643-0.281-1.447-0.884-0.924 c-3.456,2.773-6.832,5.546-10.488,7.997C162.777,166.399,163.339,167.363,164.022,167.001z M215.942,92.618 c-0.482,0.643,0.643,1.487,1.125,0.844c2.733-3.376,4.501-8.479,2.612-12.659c-0.281-0.603-1.246-0.281-1.206,0.322 C218.755,85.465,218.715,88.961,215.942,92.618z M215.781,86.469c1.205-3.335,1.567-9.082-1.326-11.694 c-0.603-0.522-1.326,0-1.246,0.683c0.281,1.648,1.165,3.094,1.447,4.742c0.321,1.969,0.12,3.938-0.322,5.867 C214.094,86.992,215.46,87.353,215.781,86.469z M201.435,56.611c36.006,1.326,20.655,45.289,11.935,62.73 c-6.068,12.136-13.422,23.75-22.584,33.796c-13.502,14.869-30.581,24.353-49.268,28.09l-1.688-9.202 c0.362,0,0.804-0.201,1.165-0.603c27.085-29.577,48.303-68.275,56.3-107.698c0.161-0.683-0.362-1.085-0.844-1.085l3.617-6.349 c0.201,0.04,0.362,0.121,0.563,0.121C200.873,56.491,201.114,56.571,201.435,56.611z"/> <path style="fill:#eb4034;" d="M84.093,49.9c-0.08-0.442-0.723-0.321-0.723,0.08c-1.607,38.659,15.23,82.26,35.645,114.529 c0.924,1.487,3.134,0.201,2.331-1.366c-9.886-18.807-19.048-37.614-25.317-57.988C90.482,86.952,88.473,68.305,84.093,49.9z M69.425,114.157c1.125,4.621,2.893,9.042,5.706,12.94c0.643,0.844,2.049,0.08,1.487-0.884c-2.371-3.978-4.42-8.037-5.747-12.458 C70.591,112.791,69.184,113.193,69.425,114.157z M67.898,120.185c0.362,0.683,1.567,0.201,1.286-0.563 c-1.045-2.893-2.371-5.706-3.777-8.439c-0.362-0.643-1.487-0.201-1.246,0.522C65.286,114.599,66.451,117.453,67.898,120.185z M121.667,31.335c-0.924-0.121-1.366,1.206-0.402,1.487c4.461,1.246,8.077,3.536,11.212,6.952c0.723,0.764,2.13-0.281,1.487-1.165 C131.03,34.71,126.569,32.018,121.667,31.335z M122.269,27.236c-1.085,0.04-1.045,1.527,0,1.648 c2.974,0.241,5.385,1.447,7.595,3.416c1.045,0.924,2.532-0.522,1.567-1.567C129.101,28.281,125.645,27.075,122.269,27.236z M7.901,87.675c0.482,0.522,1.246,0,1.085-0.643C8.062,82.893,7.218,79.678,9.428,75.7c0.442-0.804-0.683-1.406-1.206-0.683 C5.691,78.392,4.646,84.34,7.901,87.675z M12.683,78.794c0.201-0.924-1.125-1.286-1.406-0.402 c-1.447,4.862-1.768,9.926,0.04,14.708c0.321,0.964,1.607,0.563,1.447-0.402C12.08,88.037,11.759,83.455,12.683,78.794z M148.631,125.409c-0.362,0.683,0.603,1.206,1.005,0.603c2.21-3.335,3.938-7.033,4.621-10.971c0.161-1.045-1.326-1.487-1.607-0.442 C151.645,118.377,150.48,121.953,148.631,125.409z M134.566,150.766c9.243-32.068,14.668-65.704,13.904-99.098 c-0.04-1.125-1.648-1.125-1.728,0c-2.652,33.394-7.073,65.704-15.632,98.133C130.548,152.012,133.923,152.936,134.566,150.766z M146.783,118.819c-1.366,4.702-3.094,9.162-5.747,13.301c-0.482,0.764,0.643,1.326,1.165,0.683 c3.054-4.019,5.305-8.56,6.068-13.583C148.39,118.256,147.064,117.854,146.783,118.819z M199.024,54.924 c0.121,0.683,0.523,1.125,1.045,1.366l-3.617,6.349c-0.362,0-0.683,0.201-0.844,0.643c-14.186,39.302-31.224,72.736-57.104,105.648 c-1.045,1.326,0.04,3.094,1.326,3.094l1.688,9.202c-9.564,1.969-19.53,2.371-29.657,1.286 c-26.844-2.893-50.835-15.833-70.204-34.359c-16.637-15.913-69.16-88.127-11.855-88.69c0.08,0,0.12-0.04,0.161-0.04 c0.603,0.482,1.728,0.321,1.889-0.563c4.34-24.754,31.948-33.957,49.509-15.03c1.206,1.286,2.853,0.563,3.416-0.683 c0.482,0,0.924-0.201,1.165-0.723c11.292-23.026,51.116-25.397,61.363-0.08c0.804,1.969,3.295,1.929,4.3,0.764 c0.04,0,0.04,0,0.08-0.04c8.439-5.947,17.601-11.453,28.492-9.243C191.107,36.036,197.095,44.556,199.024,54.924z M103.061,167.644 c-29.858-28.934-47.54-59.435-64.096-97.129c-0.482-1.085-2.09-0.281-1.848,0.804c8.519,37.493,34.6,74.102,64.016,98.254 C102.458,170.658,104.347,168.89,103.061,167.644z M125.926,61.112c0.201-0.362-0.322-0.683-0.563-0.321 c-1.607,2.371-2.451,4.862-2.692,7.716c-0.04,0.522,0.763,0.522,0.804,0C123.716,65.854,124.56,63.363,125.926,61.112z"/> <path style="fill:#1D1D1B;" d="M215.942,92.618c2.773-3.657,2.813-7.153,2.532-11.493c-0.04-0.603,0.924-0.924,1.206-0.322 c1.889,4.179,0.12,9.283-2.612,12.659C216.585,94.105,215.46,93.261,215.942,92.618z"/> <path style="fill:#1D1D1B;" d="M214.335,86.068c0.442-1.929,0.643-3.898,0.322-5.867c-0.281-1.648-1.165-3.094-1.447-4.742 c-0.08-0.683,0.643-1.205,1.246-0.683c2.893,2.612,2.532,8.359,1.326,11.694C215.46,87.353,214.094,86.992,214.335,86.068z"/> <path style="fill:#1D1D1B;" d="M174.792,158.924c-2.974,3.456-6.711,6.068-10.77,8.077c-0.683,0.362-1.246-0.603-0.603-1.005 c3.657-2.451,7.033-5.224,10.488-7.997C174.511,157.477,175.355,158.281,174.792,158.924z"/> <path style="fill:#1D1D1B;" d="M149.636,126.012c-0.402,0.603-1.366,0.08-1.005-0.603c1.849-3.456,3.014-7.033,4.019-10.81 c0.281-1.045,1.768-0.603,1.607,0.442C153.574,118.98,151.846,122.677,149.636,126.012z"/> <path style="fill:#1D1D1B;" d="M141.036,132.12c2.652-4.139,4.38-8.6,5.747-13.301c0.281-0.965,1.607-0.563,1.487,0.402 c-0.763,5.023-3.014,9.564-6.068,13.583C141.679,133.446,140.554,132.884,141.036,132.12z"/> <path style="fill:#1D1D1B;" d="M196.452,62.639c0.482,0,1.005,0.402,0.844,1.085c-7.997,39.422-29.215,78.121-56.3,107.698 c-0.362,0.402-0.804,0.603-1.165,0.603c-1.286,0-2.371-1.768-1.326-3.094c25.88-32.912,42.918-66.347,57.104-105.648 C195.769,62.84,196.09,62.639,196.452,62.639z"/> <path style="fill:#1D1D1B;" d="M148.47,51.669c0.764,33.394-4.662,67.03-13.904,99.098c-0.643,2.17-4.019,1.246-3.456-0.965 c8.559-32.43,12.98-64.739,15.632-98.133C146.823,50.543,148.43,50.543,148.47,51.669z"/> <path style="fill:#1D1D1B;" d="M125.364,60.791c0.241-0.362,0.764-0.04,0.563,0.321c-1.366,2.25-2.21,4.742-2.451,7.394 c-0.04,0.522-0.844,0.522-0.804,0C122.912,65.653,123.756,63.162,125.364,60.791z"/> <path style="fill:#1D1D1B;" d="M132.477,39.774c-3.135-3.416-6.751-5.706-11.212-6.952c-0.965-0.281-0.522-1.607,0.402-1.487 c4.903,0.683,9.363,3.376,12.297,7.274C134.606,39.492,133.2,40.537,132.477,39.774z"/> <path style="fill:#1D1D1B;" d="M122.269,28.883c-1.045-0.121-1.085-1.607,0-1.648c3.376-0.161,6.832,1.045,9.162,3.496 c0.965,1.045-0.522,2.492-1.567,1.567C127.654,30.33,125.243,29.124,122.269,28.883z"/> <path style="fill:#1D1D1B;" d="M101.694,195.292c0.603,0.482-0.04,1.567-0.804,1.326c-3.295-1.045-2.331-6.831,1.206-6.47 c0.603,0.08,0.723,0.844,0.121,1.085C100.489,191.876,100.328,194.167,101.694,195.292z"/> <path style="fill:#1D1D1B;" d="M121.345,163.144c0.804,1.567-1.407,2.853-2.331,1.366C98.6,132.241,81.762,88.639,83.37,49.981 c0-0.402,0.643-0.522,0.723-0.08c4.38,18.405,6.389,37.051,11.935,55.255C102.297,125.53,111.459,144.337,121.345,163.144z"/> <path style="fill:#1D1D1B;" d="M75.132,127.097c-2.813-3.898-4.581-8.318-5.706-12.94c-0.241-0.964,1.165-1.366,1.447-0.402 c1.326,4.42,3.376,8.479,5.747,12.458C77.181,127.177,75.775,127.941,75.132,127.097z"/> <path style="fill:#1D1D1B;" d="M65.407,111.184c1.407,2.733,2.733,5.546,3.777,8.439c0.281,0.763-0.924,1.246-1.286,0.563 c-1.447-2.733-2.612-5.586-3.737-8.479C63.92,110.983,65.045,110.541,65.407,111.184z"/> <path style="fill:#1D1D1B;" d="M38.964,70.516c16.556,37.694,34.238,68.195,64.096,97.129c1.286,1.246-0.603,3.014-1.929,1.929 c-29.416-24.152-55.496-60.761-64.016-98.254C36.875,70.234,38.482,69.431,38.964,70.516z"/> <path style="fill:#1D1D1B;" d="M12.683,78.794c-0.924,4.662-0.603,9.243,0.08,13.904c0.161,0.965-1.125,1.366-1.447,0.402 c-1.808-4.782-1.487-9.846-0.04-14.708C11.558,77.508,12.884,77.87,12.683,78.794z"/> <path style="fill:#1D1D1B;" d="M8.222,75.016c0.522-0.723,1.648-0.121,1.206,0.683c-2.21,3.978-1.366,7.193-0.442,11.332 c0.161,0.643-0.603,1.165-1.085,0.643C4.646,84.34,5.691,78.392,8.222,75.016z"/> <path style="fill:#1D1D1B;" d="M144.894,197.181c2.291-3.577,0.04-8.158-3.536-9.725c-0.884-0.402-1.125-1.125-0.964-1.808 c-9.122,1.728-18.727,2.21-28.853,1.125c-3.456-0.362-6.832-0.965-10.167-1.648c-3.295,2.492-6.189,6.068-5.224,10.448 c0.522,2.371,2.331,4.3,4.863,4.26c1.768,0,2.813-1.286,4.42-1.768c0.763-0.241,1.648,0.322,1.849,1.085 c7.595,6.711,16.838,6.992,24.071-0.442c0.964-1.005,2.492-0.482,3.094,0.522c0,0,0.04-0.04,0.08,0 C138.022,200.556,142.563,200.918,144.894,197.181z M29.32,56.853c-1.125-11.533,8.519-21.741,18.887-25.759 c12.699-4.943,26.482-0.804,35.524,8.961c10.489-28.21,55.255-26.201,67.391-0.523c15.15-17.039,50.192-12.739,51.88,12.739 c40.788,3.134,22.062,55.979,9.645,77.719c-15.713,27.608-39.141,47.901-68.115,54.773c4.702,2.934,6.671,9.524,3.697,14.386 c-2.813,4.581-10.368,6.59-14.547,2.652c-7.073,8.359-20.655,9.002-27.447,0.161c-1.286,1.286-3.376,1.889-5.224,1.929 c-3.416,0-6.39-1.969-7.876-4.983c-2.813-5.747,0.161-11.252,4.782-14.547c-34.439-8.198-63.132-32.51-82.783-61.685 c-9.323-13.944-19.53-32.108-13.14-49.307C6.414,61.474,17.224,54.321,29.32,56.853z M29.802,59.465 c-57.305,0.563-4.782,72.776,11.855,88.69c19.369,18.526,43.36,31.465,70.204,34.359c10.127,1.085,20.093,0.683,29.657-1.286 c18.686-3.737,35.765-13.221,49.268-28.09c9.162-10.046,16.516-21.66,22.584-33.796c8.72-17.441,24.071-61.404-11.935-62.73 c-0.322-0.04-0.563-0.121-0.804-0.201c-0.201,0-0.362-0.08-0.563-0.121c-0.522-0.241-0.924-0.683-1.045-1.366 c-1.929-10.368-7.917-18.887-18.847-21.097c-10.89-2.21-20.053,3.295-28.492,9.243c-0.04,0.04-0.04,0.04-0.08,0.04 c-1.005,1.165-3.496,1.205-4.3-0.764c-10.247-25.317-50.071-22.946-61.363,0.08c-0.241,0.522-0.683,0.723-1.165,0.723 c-0.563,1.246-2.21,1.969-3.416,0.683c-17.561-18.927-45.169-9.725-49.509,15.03c-0.161,0.884-1.286,1.045-1.889,0.563 C29.923,59.424,29.882,59.465,29.802,59.465z"/> </g> </g>
</svg>