<?xml version="1.0" encoding="iso-8859-1"?>
<!-- Generator: Adobe Illustrator 18.0.0, SVG Export Plug-In . SVG Version: 6.00 Build 0)  -->
<!DOCTYPE svg PUBLIC "-//W3C//DTD SVG 1.1//EN" "http://www.w3.org/Graphics/SVG/1.1/DTD/svg11.dtd">
<svg version="1.1" id="Capa_1" xmlns="http://www.w3.org/2000/svg" xmlns:xlink="http://www.w3.org/1999/xlink" x="0px" y="0px"
	 viewBox="0 0 297.5 297.5" style="enable-background:new 0 0 297.5 297.5;" xml:space="preserve">
<g>
	<g id="XMLID_46_">
		<g>
			<path style="fill:#D5797C;" d="M123.79,117.394v108.1c0,20.29-16.51,36.81-36.81,36.81c-20.29,0-36.8-16.52-36.8-36.81
				c0-15.57,9.86-29.52,24.53-34.71c3.81-1.34,6.35-4.94,6.35-8.97v-2.65c0-5.26-4.26-9.52-9.52-9.52
				c-28.81,0-52.25-23.44-52.25-52.25s23.44-52.25,52.25-52.25S123.79,88.584,123.79,117.394z M95.07,225.494
				c0-2.14-0.86-4.22-2.37-5.73c-1.5-1.5-3.59-2.37-5.72-2.37c-2.12,0-4.21,0.87-5.71,2.37c-1.52,1.51-2.38,3.59-2.38,5.73
				c0,2.13,0.86,4.21,2.38,5.72c1.49,1.5,3.58,2.37,5.71,2.37c2.13,0,4.22-0.87,5.72-2.37
				C94.21,229.704,95.07,227.624,95.07,225.494z M96.5,117.394c0-13.76-11.19-24.96-24.96-24.96c-13.76,0-24.96,11.2-24.96,24.96
				s11.2,24.96,24.96,24.96C85.31,142.354,96.5,131.154,96.5,117.394z"/>
			<path style="fill:#D5797C;" d="M225.96,65.144c28.82,0,52.25,23.44,52.25,52.25s-23.43,52.25-52.25,52.25
				c-5.25,0-9.51,4.26-9.51,9.52v2.65c0,4.03,2.54,7.63,6.34,8.97c14.68,5.19,24.54,19.14,24.54,34.71
				c0,20.29-16.51,36.81-36.81,36.81c-20.29,0-36.81-16.52-36.81-36.81v-108.1C173.71,88.584,197.15,65.144,225.96,65.144z
				 M250.93,117.394c0-13.76-11.2-24.96-24.97-24.96c-13.76,0-24.96,11.2-24.96,24.96s11.2,24.96,24.96,24.96
				C239.73,142.354,250.93,131.154,250.93,117.394z M218.61,225.494c0-2.14-0.86-4.21-2.37-5.73c-1.5-1.5-3.59-2.37-5.72-2.37
				c-2.13,0-4.22,0.87-5.72,2.37c-1.5,1.51-2.37,3.59-2.37,5.73c0,2.13,0.87,4.21,2.37,5.72c1.5,1.5,3.59,2.37,5.72,2.37
				c2.13,0,4.22-0.87,5.72-2.37C217.75,229.704,218.61,227.624,218.61,225.494z"/>
			<path style="fill:#7AC1A3;" d="M154.68,225.494v31.09c0,3.1-2.62,5.71-5.72,5.71h-0.42c-3.09,0-5.71-2.61-5.71-5.71v-31.09
				v-108.1v-15.65c0-3.1,2.62-5.71,5.71-5.71h0.42c3.1,0,5.72,2.61,5.72,5.71v15.65V225.494z"/>
			<path style="fill:#DEC978;" d="M225.96,111.474c3.27,0,5.93,2.65,5.93,5.92s-2.66,5.92-5.93,5.92c-3.26,0-5.92-2.65-5.92-5.92
				S222.7,111.474,225.96,111.474z"/>
			<path style="fill:#DEC978;" d="M71.54,111.474c3.27,0,5.92,2.65,5.92,5.92s-2.65,5.92-5.92,5.92c-3.26,0-5.92-2.65-5.92-5.92
				S68.28,111.474,71.54,111.474z"/>
			<path d="M297.25,117.394c0,31.3-20.27,57.95-48.38,67.52c10.92,10.34,17.5,24.92,17.5,40.58c0,30.79-25.05,55.84-55.85,55.84
				c-14.96,0-28.55-5.92-38.59-15.53c-3.66,9.09-12.57,15.53-22.97,15.53h-0.42c-10.39,0-19.3-6.44-22.96-15.53
				c-10.04,9.61-23.63,15.53-38.6,15.53c-30.79,0-55.84-25.05-55.84-55.84c0-15.66,6.57-30.24,17.5-40.58
				c-28.11-9.57-48.39-36.22-48.39-67.52c0-39.31,31.98-71.29,71.29-71.29c19.53,0,37.25,7.9,50.14,20.67l-6.84-20.51l-27.71-13.86
				c-4.23-2.12-5.95-7.26-3.83-11.49c2.12-4.24,7.26-5.95,11.49-3.84l30.89,15.45c2.03,1.01,3.58,2.79,4.29,4.95l13.36,40.07
				c1.68-0.36,3.42-0.55,5.21-0.55h0.42c1.79,0,3.53,0.19,5.21,0.55l13.36-40.07c0.72-2.16,2.27-3.94,4.3-4.95l30.88-15.45
				c4.23-2.12,9.38-0.4,11.5,3.84c2.11,4.23,0.4,9.37-3.83,11.49l-27.71,13.86l-6.84,20.51c12.89-12.77,30.6-20.67,50.13-20.67
				C265.27,46.104,297.25,78.084,297.25,117.394z M278.21,117.394c0-28.81-23.43-52.25-52.25-52.25
				c-28.81,0-52.25,23.44-52.25,52.25v108.1c0,20.29,16.52,36.81,36.81,36.81c20.3,0,36.81-16.52,36.81-36.81
				c0-15.57-9.86-29.52-24.54-34.71c-3.8-1.34-6.34-4.94-6.34-8.97v-2.65c0-5.26,4.26-9.52,9.51-9.52
				C254.78,169.644,278.21,146.204,278.21,117.394z M154.68,256.584v-31.09v-108.1v-15.65c0-3.1-2.62-5.71-5.72-5.71h-0.42
				c-3.09,0-5.71,2.61-5.71,5.71v15.65v108.1v31.09c0,3.1,2.62,5.71,5.71,5.71h0.42C152.06,262.294,154.68,259.684,154.68,256.584z
				 M123.79,225.494v-108.1c0-28.81-23.44-52.25-52.25-52.25s-52.25,23.44-52.25,52.25s23.44,52.25,52.25,52.25
				c5.26,0,9.52,4.26,9.52,9.52v2.65c0,4.03-2.54,7.63-6.35,8.97c-14.67,5.19-24.53,19.14-24.53,34.71
				c0,20.29,16.51,36.81,36.8,36.81C107.28,262.304,123.79,245.784,123.79,225.494z"/>
			<path d="M225.96,92.434c13.77,0,24.97,11.2,24.97,24.96s-11.2,24.96-24.97,24.96c-13.76,0-24.96-11.2-24.96-24.96
				S212.2,92.434,225.96,92.434z M231.89,117.394c0-3.27-2.66-5.92-5.93-5.92c-3.26,0-5.92,2.65-5.92,5.92s2.66,5.92,5.92,5.92
				C229.23,123.314,231.89,120.664,231.89,117.394z"/>
			<path d="M216.24,219.764c1.51,1.52,2.37,3.59,2.37,5.73c0,2.13-0.86,4.21-2.37,5.72c-1.5,1.5-3.59,2.37-5.72,2.37
				c-2.13,0-4.22-0.87-5.72-2.37c-1.5-1.51-2.37-3.59-2.37-5.72c0-2.14,0.87-4.22,2.37-5.73c1.5-1.5,3.59-2.37,5.72-2.37
				C212.65,217.394,214.74,218.264,216.24,219.764z"/>
			<path d="M92.7,219.764c1.51,1.51,2.37,3.59,2.37,5.73c0,2.13-0.86,4.21-2.37,5.72c-1.5,1.5-3.59,2.37-5.72,2.37
				c-2.13,0-4.22-0.87-5.71-2.37c-1.52-1.51-2.38-3.59-2.38-5.72c0-2.14,0.86-4.22,2.38-5.73c1.5-1.5,3.59-2.37,5.71-2.37
				C89.11,217.394,91.2,218.264,92.7,219.764z"/>
			<path d="M71.54,92.434c13.77,0,24.96,11.2,24.96,24.96s-11.19,24.96-24.96,24.96c-13.76,0-24.96-11.2-24.96-24.96
				S57.78,92.434,71.54,92.434z M77.46,117.394c0-3.27-2.65-5.92-5.92-5.92c-3.26,0-5.92,2.65-5.92,5.92s2.66,5.92,5.92,5.92
				C74.81,123.314,77.46,120.664,77.46,117.394z"/>
		</g>
		<g>
		</g>
	</g>
</g>
<g>
</g>
<g>
</g>
<g>
</g>
<g>
</g>
<g>
</g>
<g>
</g>
<g>
</g>
<g>
</g>
<g>
</g>
<g>
</g>
<g>
</g>
<g>
</g>
<g>
</g>
<g>
</g>
<g>
</g>
</svg>
