<?xml version="1.0" encoding="iso-8859-1"?>
<!-- Generator: Adobe Illustrator 19.0.0, SVG Export Plug-In . SVG Version: 6.00 Build 0)  -->
<svg version="1.1" id="Layer_1" xmlns="http://www.w3.org/2000/svg" xmlns:xlink="http://www.w3.org/1999/xlink" x="0px" y="0px"
	 viewBox="0 0 512 512" style="enable-background:new 0 0 512 512;" xml:space="preserve">
<path style="fill:#55B0CC;" d="M512,486.4c0,14.136-11.464,25.6-25.6,25.6H25.6C11.464,512,0,500.536,0,486.4V40.96
	c0-14.136,11.464-25.6,25.6-25.6h460.8c14.136,0,25.6,11.464,25.6,25.6V486.4z"/>
<path style="fill:#AAEBFF;" d="M512,471.04c0,14.136-11.464,25.6-25.6,25.6H25.6c-14.136,0-25.6-11.464-25.6-25.6V25.6
	C0,11.464,11.464,0,25.6,0h460.8C500.536,0,512,11.464,512,25.6V471.04z"/>
<path style="fill:#61C8E8;" d="M512,471.04V177.94c-0.476-0.456-95.969-95.995-96.374-96.399
	c-55.547-55.542-149.755-51.389-219.955,18.811c-66.616,66.616-73.718,154.824-26.813,211.123l-0.497,0.333
	c-0.799,0.799-0.86,2.002-0.282,2.913c-0.911-0.579-2.12-0.517-2.913,0.282c-0.922,0.922-0.922,2.417,0,3.338l1.966,1.966h-24.038
	l3.026,3.026l6.538,6.538c-24.975,16.584-35.835,37.345-45.573,56.131c-10.844,20.925-20.214,38.999-46.843,46.49
	c-1.459,0.41-2.309,1.925-1.9,3.384c0.133,0.471,0.379,0.875,0.701,1.198c0.579,0.579,59.699,58.931,59.807,59.31l0.143,0.256H486.4
	C500.536,496.64,512,485.176,512,471.04z"/>
<path style="fill:#F15B00;" d="M396.81,301.496c70.205-70.205,74.358-164.408,18.811-219.955
	c-55.542-55.542-149.75-51.389-219.95,18.811c-70.205,70.205-74.358,164.408-18.811,219.955
	C232.402,375.854,326.61,371.702,396.81,301.496z M176.86,354.074v-33.766h-33.766L176.86,354.074z"/>
<path style="fill:#FFFEFE;" d="M344.289,70.2c-7.915-7.916-20.751-7.916-28.672,0c-7.916,7.916-7.916,20.751,0,28.672
	c7.916,7.916,20.751,7.916,28.672,0C352.21,90.952,352.21,78.116,344.289,70.2z M293.125,88.069c-4.219-4.219-11.054-4.219-15.273,0
	c-4.219,4.219-4.219,11.054,0,15.273c4.219,4.219,11.054,4.219,15.273,0C297.344,99.123,297.344,92.288,293.125,88.069z"/>
<path style="fill:#545B73;" d="M107.08,386.002c11.535-22.257,24.566-47.309,60.877-64.865l-2.796-2.796
	c-0.922-0.922-0.922-2.417,0-3.338c0.799-0.799,2.002-0.86,2.913-0.282c-0.579-0.911-0.517-2.12,0.282-2.913
	c0.922-0.922,2.417-0.922,3.338,0l13.578,13.578c0.922,0.922,0.922,2.417,0,3.338c-0.799,0.799-2.002,0.86-2.913,0.282
	c0.579,0.911,0.517,2.12-0.282,2.913c-0.922,0.922-2.417,0.922-3.338,0l-6.641-6.641c-36.004,16.835-48.835,41.431-60.145,63.252
	c-10.957,21.146-21.309,41.119-50.237,49.249c-0.993,0.276-2.007-0.026-2.688-0.701c-0.323-0.323-0.568-0.727-0.701-1.198
	c-0.41-1.459,0.44-2.975,1.9-3.384C86.871,425.006,96.236,406.932,107.08,386.002z"/>
<g>
	<polygon style="fill:#DD3800;" points="159.713,336.927 176.86,354.074 176.86,320.307 176.333,320.307 	"/>
	<path style="fill:#DD3800;" d="M396.81,301.496c70.205-70.205,74.358-164.408,18.811-219.955l-0.271-0.256L176.604,320.036
		l0.256,0.271C232.402,375.854,326.61,371.702,396.81,301.496z"/>
</g>
<g>
</g>
<g>
</g>
<g>
</g>
<g>
</g>
<g>
</g>
<g>
</g>
<g>
</g>
<g>
</g>
<g>
</g>
<g>
</g>
<g>
</g>
<g>
</g>
<g>
</g>
<g>
</g>
<g>
</g>
</svg>
