<?xml version="1.0" encoding="iso-8859-1"?>
<!-- Generator: Adobe Illustrator 19.0.0, SVG Export Plug-In . SVG Version: 6.00 Build 0)  -->
<svg version="1.1" id="Layer_1" xmlns="http://www.w3.org/2000/svg" xmlns:xlink="http://www.w3.org/1999/xlink" x="0px" y="0px"
	 viewBox="0 0 512 512" style="enable-background:new 0 0 512 512;" xml:space="preserve">
<polygon style="fill:#B3B3B3;" points="328.953,323.005 328.953,393.236 246.154,404.081 183.047,393.236 183.047,323.005 "/>
<polygon style="fill:#F95428;" points="278.864,451.028 278.864,494.583 233.136,512 233.136,451.028 "/>
<path style="fill:#CCCCCC;" d="M183.047,393.236h145.907c-20.445,0-37.02,16.575-37.02,37.02v28.312h-13.069h-45.729h-13.069
	v-28.312c0-10.229-4.147-19.478-10.845-26.176C202.524,397.383,193.275,393.236,183.047,393.236z"/>
<path style="fill:#B3B3B3;" d="M246.154,404.081c1.407,6.698,2.274,15.947,2.274,26.176v28.312h-28.362v-28.312
	c0-10.229-4.147-19.478-10.845-26.176c-6.698-6.698-15.947-10.845-26.176-10.845h57.591
	C242.799,393.236,244.734,397.383,246.154,404.081z"/>
<rect x="183.04" y="347.508" style="fill:#999999;" width="43.545" height="45.729"/>
<path style="fill:#F95428;" d="M342.022,29.455v318.052h-13.069H183.047h-13.069V29.455C169.978,13.195,183.172,0,199.433,0h113.134
	C328.84,0,342.022,13.195,342.022,29.455z"/>
<path style="fill:#E54728;" d="M233.361,0h-33.928c-16.261,0-29.455,13.195-29.455,29.455v318.052h13.069h20.859V29.455
	C203.905,13.195,217.1,0,233.361,0z"/>
<g>
</g>
<g>
</g>
<g>
</g>
<g>
</g>
<g>
</g>
<g>
</g>
<g>
</g>
<g>
</g>
<g>
</g>
<g>
</g>
<g>
</g>
<g>
</g>
<g>
</g>
<g>
</g>
<g>
</g>
</svg>
