<?xml version="1.0" encoding="iso-8859-1"?>
<!-- Uploaded to: SVG Repo, www.svgrepo.com, Generator: SVG Repo Mixer Tools -->
<svg height="800px" width="800px" version="1.1" id="Layer_1" xmlns="http://www.w3.org/2000/svg" xmlns:xlink="http://www.w3.org/1999/xlink" 
	 viewBox="0 0 512 512" xml:space="preserve">
<path style="fill:#263B74;" d="M6.325,505.318c-8.434-8.434-8.434-22.107,0-30.54l33.595-33.595c8.434-8.434,22.107-8.434,30.54,0
	c8.434,8.434,8.434,22.107,0,30.54l-33.594,33.595C28.433,513.752,14.759,513.752,6.325,505.318z"/>
<path style="fill:#F66131;" d="M158.38,415.142c-8.175-8.608-21.892-9.008-30.552-0.806l-0.449,0.426l-29.494-29.494l0.426-0.449
	c8.202-8.661,7.854-22.322-0.819-30.542c-8.66-8.202-22.322-7.835-30.523,0.824l-25.765,27.202
	c-20.313,21.404-19.96,54.596,0.907,75.463l12.769,12.769c20.865,20.866,54.061,21.217,75.452,0.919l27.177-25.742
	C166.169,437.51,166.582,423.801,158.38,415.142z"/>
<path style="fill:#C6C6C6;" d="M505.443,98.538L413.821,6.916c-8.434-8.434-22.396-8.86-30.83-0.426L51.781,337.702
	c-8.434,8.434-8.288,22.321,0.144,30.753c1.13,1.13,2.733,2.09,3.794,3.15l83.355,83.355c1.559,1.559,2.259,3.847,4.001,5.587
	c8.434,8.434,21.963,8.221,30.396-0.213l331.684-331.684C513.589,120.219,513.877,106.971,505.443,98.538z"/>
<path style="fill:#F66131;" d="M505.675,98.304L414.053,6.682c-8.434-8.434-22.107-8.434-30.54,0L145.298,244.898L267.46,367.06
	l238.215-238.216C514.108,120.41,514.108,106.736,505.675,98.304z"/>
<path style="fill:#6A81B5;" d="M70.553,441.285c-0.033-0.033-0.059-0.069-0.092-0.102c-8.434-8.434-22.107-8.434-30.54,0
	L6.325,474.778c-8.434,8.434-8.434,22.107,0,30.54c0.033,0.033,0.069,0.059,0.102,0.092L70.553,441.285z"/>
<path style="fill:#F68B4D;" d="M112.228,399.61l-14.341-14.341l0.426-0.449c8.202-8.661,7.854-22.322-0.819-30.542
	c-8.66-8.202-22.322-7.835-30.523,0.824l-25.765,27.202c-20.313,21.404-19.96,54.596,0.907,75.463l5.979,5.979L112.228,399.61z"/>
<path style="fill:#E2E2E2;" d="M459.371,52.467l-45.549-45.55c-8.434-8.434-22.396-8.86-30.83-0.426L51.781,337.702
	c-8.434,8.434-8.288,22.321,0.144,30.753c1.13,1.13,2.733,2.09,3.794,3.15l42.256,42.257L459.371,52.467z"/>
<path style="fill:#F68B4D;" d="M459.604,52.232l-45.551-45.55c-8.434-8.434-22.107-8.434-30.54,0L145.298,244.898l60.821,60.821
	L459.604,52.232z"/>
<path style="fill:#152F6A;" d="M389.854,304.763c-8.434-8.434-8.434-22.107,0-30.54l49.382-49.382
	c11.806-11.805,11.806-31.015,0-42.821L326.601,69.386c-8.434-8.434-8.434-22.107,0-30.54s22.107-8.434,30.54,0L469.776,151.48
	c28.646,28.646,28.646,75.256,0,103.901l-49.382,49.382C411.962,313.197,398.288,313.197,389.854,304.763z"/>
</svg>