<?xml version="1.0" encoding="utf-8"?>
<!-- Uploaded to: SVG Repo, www.svgrepo.com, Generator: SVG Repo Mixer Tools -->
<svg width="800px" height="800px" viewBox="0 0 1024 1024" class="icon"  version="1.1" xmlns="http://www.w3.org/2000/svg"><path d="M490.666667 192h42.666666v640h-42.666666z" fill="#CFD8DC" /><path d="M192 490.666667h640v42.666666H192z" fill="#CFD8DC" /><path d="M723.2 270.634667l30.165333 30.165333L300.8 753.344 270.634667 723.2z" fill="#CFD8DC" /><path d="M753.365333 723.2L723.2 753.344 270.656 300.8l30.165333-30.186667z" fill="#CFD8DC" /><path d="M533.333333 490.666667h-42.666666l-128 426.666666h42.666666l106.666667-341.333333 106.666667 341.333333h49.066666z" fill="#607D8B" /><path d="M512 512m-42.666667 0a42.666667 42.666667 0 1 0 85.333334 0 42.666667 42.666667 0 1 0-85.333334 0Z" fill="#607D8B" /><path d="M704 917.333333h-85.333333v-42.666666h42.666666c23.466667 0 42.666667 19.2 42.666667 42.666666zM405.333333 917.333333h-85.333333c0-23.466667 19.2-42.666667 42.666667-42.666666h42.666666v42.666666z" fill="#607D8B" /><path d="M512 170.666667C324.266667 170.666667 170.666667 324.266667 170.666667 512s153.6 341.333333 341.333333 341.333333 341.333333-153.6 341.333333-341.333333S699.733333 170.666667 512 170.666667z m0 640c-164.266667 0-298.666667-134.4-298.666667-298.666667s134.4-298.666667 298.666667-298.666667 298.666667 134.4 298.666667 298.666667-134.4 298.666667-298.666667 298.666667z" fill="#2196F3" /><path d="M512 192m-64 0a64 64 0 1 0 128 0 64 64 0 1 0-128 0Z" fill="#FF5722" /><path d="M512 832m-64 0a64 64 0 1 0 128 0 64 64 0 1 0-128 0Z" fill="#FF5722" /><path d="M832 512m-64 0a64 64 0 1 0 128 0 64 64 0 1 0-128 0Z" fill="#FF5722" /><path d="M192 512m-64 0a64 64 0 1 0 128 0 64 64 0 1 0-128 0Z" fill="#FF5722" /><path d="M746.666667 298.666667m-64 0a64 64 0 1 0 128 0 64 64 0 1 0-128 0Z" fill="#FF5722" /><path d="M277.333333 298.666667m-64 0a64 64 0 1 0 128 0 64 64 0 1 0-128 0Z" fill="#FF5722" /><path d="M746.666667 725.333333m-64 0a64 64 0 1 0 128 0 64 64 0 1 0-128 0Z" fill="#FF5722" /><path d="M277.333333 725.333333m-64 0a64 64 0 1 0 128 0 64 64 0 1 0-128 0Z" fill="#FF5722" /><path d="M512 160c-17.066667 0-32 14.933333-32 32h64c0-17.066667-14.933333-32-32-32zM512 800c-17.066667 0-32 14.933333-32 32h64c0-17.066667-14.933333-32-32-32zM832 480c-17.066667 0-32 14.933333-32 32h64c0-17.066667-14.933333-32-32-32zM192 484.266667c-17.066667 0-32 14.933333-32 32h64c0-19.2-14.933333-32-32-32zM746.666667 266.666667c-17.066667 0-32 14.933333-32 32h64c0-17.066667-14.933333-32-32-32zM277.333333 270.933333c-17.066667 0-32 14.933333-32 32h64c0-19.2-14.933333-32-32-32zM746.666667 693.333333c-17.066667 0-32 14.933333-32 32h64c0-17.066667-14.933333-32-32-32zM277.333333 693.333333c-17.066667 0-32 14.933333-32 32h64c0-17.066667-14.933333-32-32-32z" fill="#3F51B5" /></svg>