<?xml version="1.0" encoding="iso-8859-1"?>
<!-- Uploaded to: SVG Repo, www.svgrepo.com, Generator: SVG Repo Mixer Tools -->
<svg version="1.1" id="Layer_1" xmlns="http://www.w3.org/2000/svg" xmlns:xlink="http://www.w3.org/1999/xlink" 
	 viewBox="0 0 393.309 393.309" xml:space="preserve">
<path style="fill:#72D557;" d="M196.687,0C88.016,0,0.032,87.984,0.032,196.655c0,53.075,21.01,101.172,55.143,136.533h282.958
	c34.133-35.362,55.143-83.459,55.143-136.533C393.341,87.984,305.358,0,196.687,0z"/>
<rect x="191.087" y="50.438" transform="matrix(0.7071 -0.7071 0.7071 0.7071 -23.8086 172.6886)" style="fill:#FBD303;" width="10.925" height="129.292"/>
<path style="fill:#414753;" d="M196.687,393.309c55.531,0,105.697-23.079,141.511-60.121H55.176
	C90.99,370.23,141.156,393.309,196.687,393.309z"/>
<g>
	<circle style="fill:#333842;" cx="305.164" cy="223.677" r="14.158"/>
	<circle style="fill:#333842;" cx="258.036" cy="256.905" r="14.158"/>
	<circle style="fill:#333842;" cx="338.457" cy="176.549" r="14.158"/>
</g>
<g>
	<rect x="136.566" y="70.594" style="fill:#414753;" width="21.01" height="278.432"/>
	<circle style="fill:#414753;" cx="146.974" cy="61.414" r="17.067"/>
</g>
<path style="fill:#4F5565;" d="M348.735,153.6c-8.339,23.014-23.725,47.192-45.123,68.59c-21.463,21.463-45.576,36.784-68.59,45.123
	l7.24-35.168l0.129-0.129c14.352-5.754,29.22-15.451,42.473-28.703c13.253-13.253,22.949-28.121,28.703-42.473l0.065-0.065
	L348.735,153.6z"/>
<path style="fill:#F0582F;" d="M232.307,150.82c-20.299,20.299-20.299,53.269,0,73.568c3.103,3.103,6.4,5.624,9.956,7.758
	c14.352-5.689,29.285-15.451,42.602-28.768s23.014-28.186,28.768-42.602c-2.133-3.556-4.719-6.982-7.758-9.956
	C285.576,130.521,252.606,130.521,232.307,150.82z"/>
<ellipse transform="matrix(-0.7071 0.7071 -0.7071 -0.7071 566.7437 119.5366)" style="fill:#FCFCFD;" cx="258.615" cy="177.145" rx="35.749" ry="24.113"/>
</svg>