<?xml version="1.0" encoding="iso-8859-1"?>
<!-- Generator: Adobe Illustrator 18.0.0, SVG Export Plug-In . SVG Version: 6.00 Build 0)  -->
<!DOCTYPE svg PUBLIC "-//W3C//DTD SVG 1.1//EN" "http://www.w3.org/Graphics/SVG/1.1/DTD/svg11.dtd">
<svg version="1.1" id="Capa_1" xmlns="http://www.w3.org/2000/svg" xmlns:xlink="http://www.w3.org/1999/xlink" x="0px" y="0px"
	 viewBox="0 0 451.68 451.68" style="enable-background:new 0 0 451.68 451.68;" xml:space="preserve">
<g id="XMLID_34_">
	<g>
		<path style="fill:#EA6081;" d="M406.613,187.289c0,14.08-5.49,27.09-15.44,36.63c-9.62,9.22-22.63,14.51-35.71,14.51
			c-8.83,0-17.37-2.34-25.38-6.96l-54.62-31.54v-16.99l62.04,35.7c5.8,3.35,11.68,4.98,17.96,4.98h0.01
			c9.14,0,18.66-3.89,25.45-10.4c7.11-6.81,10.86-15.78,10.86-25.93c0-24.78-21.67-36.32-36.32-36.32c-6.28,0-12.16,1.63-17.96,4.98
			l-39.4,22.74l-14.82-8.55l46.8-27.03c8.01-4.62,16.55-6.96,25.38-6.96C380.063,136.149,406.613,155.699,406.613,187.289z"/>
		<path style="fill:#EA6081;" d="M411.813,129.139c15.87,15.22,24.62,35.87,24.62,58.15c0,29.22-15.11,55.39-40.42,70
			c-25.31,14.62-55.53,14.62-80.84,0.01l-39.71-22.93v-17.12l47.12,27.21c10.32,5.95,21.39,8.97,32.88,8.97
			c16.91,0,33.71-6.81,46.09-18.68c12.93-12.4,20.06-29.25,20.06-47.46c0-40.85-34.34-66.14-66.15-66.14
			c-11.49,0-22.56,3.02-32.88,8.97l-47.12,27.21v-17.12l39.71-22.92c12.6-7.27,26.16-10.96,40.29-10.96
			C376.153,106.329,396.683,114.639,411.813,129.139z"/>
		<path style="fill:#EA6081;" d="M260.463,132.459v206.76c0,3.4-2.76,6.16-6.16,6.16h-0.77c-3.39,0-6.15-2.76-6.15-6.16v-97.1
			v-109.66c0-3.39,2.76-6.15,6.15-6.15h0.77C257.703,126.309,260.463,129.069,260.463,132.459z"/>
		<path style="fill:#EA6081;" d="M232.383,132.459v109.66c0,3.4-2.76,6.16-6.16,6.16h-0.77c-3.39,0-6.15-2.76-6.15-6.16v-109.66
			c0-3.39,2.76-6.15,6.15-6.15h0.77C229.623,126.309,232.383,129.069,232.383,132.459z"/>
		<path style="fill:#EA6081;" d="M204.303,132.459v109.66c0,3.4-2.76,6.16-6.16,6.16h-0.77c-3.39,0-6.15-2.76-6.15-6.16v-109.66
			c0-3.39,2.76-6.15,6.15-6.15h0.77C201.543,126.309,204.303,129.069,204.303,132.459z"/>
		<path style="fill:#EA6081;" d="M176.223,182.819v17.11l-54.63,31.54c-8.01,4.62-16.54,6.96-25.37,6.96
			c-24.6,0-51.15-19.55-51.15-51.14s26.55-51.14,51.15-51.14c8.83,0,17.36,2.34,25.37,6.96l46.7,26.96l-14.82,8.56l-39.29-22.68
			c-5.81-3.35-11.68-4.98-17.96-4.98c-14.65,0-36.33,11.54-36.33,36.32s21.68,36.33,36.33,36.33c6.28,0,12.15-1.63,17.96-4.98
			L176.223,182.819z"/>
		<path style="fill:#EA6081;" d="M176.223,217.249v17.12l-39.72,22.93c-12.59,7.27-26.14,10.95-40.28,10.95
			c-20.68,0-41.22-8.31-56.35-22.8c-15.88-15.22-24.62-35.88-24.62-58.16c0-29.22,15.11-55.39,40.42-70
			c25.3-14.61,55.52-14.61,80.83,0l39.72,22.93v17.11l-47.13-27.21c-10.32-5.95-21.38-8.97-32.87-8.97
			c-31.81,0-66.15,25.29-66.15,66.14c0,40.86,34.34,66.14,66.15,66.14c11.49,0,22.55-3.02,32.87-8.97L176.223,217.249z"/>
		<path style="fill:#4D4D4D;" d="M422.193,118.309c18.85,18.07,29.24,42.57,29.24,68.98c0,34.64-17.92,65.67-47.92,82.99
			c-15,8.67-31.47,13-47.92,13c-16.46,0-32.92-4.33-47.92-12.99l-32.21-18.6v87.53c0,11.67-9.49,21.16-21.16,21.16h-0.77
			c-11.66,0-21.15-9.49-21.15-21.16v-76.86c-1.95,0.59-4.02,0.92-6.16,0.92h-0.77c-5.2,0-9.96-1.9-13.65-5.03
			c-3.69,3.13-8.45,5.03-13.66,5.03h-0.77c-8.63,0-16.06-5.21-19.35-12.64l-34.02,19.65c-14.69,8.48-31.21,12.96-47.78,12.96
			c-24.52,0-48.84-9.83-66.73-26.97c-18.86-18.08-29.24-42.58-29.24-68.99c0-34.65,17.91-65.67,47.92-82.99
			c30-17.33,65.83-17.32,95.83,0l34.02,19.64c3.29-7.43,10.72-12.63,19.35-12.63h0.77c5.21,0,9.97,1.89,13.66,5.02
			c3.69-3.13,8.45-5.02,13.65-5.02h0.77c5.21,0,9.97,1.89,13.66,5.02c3.69-3.13,8.45-5.02,13.65-5.02h0.77
			c8.64,0,16.07,5.2,19.35,12.63l34.02-19.64c14.7-8.49,31.23-12.97,47.79-12.97C379.983,91.329,404.303,101.159,422.193,118.309z
			 M436.433,187.289c0-22.28-8.75-42.93-24.62-58.15c-15.13-14.5-35.66-22.81-56.35-22.81c-14.13,0-27.69,3.69-40.29,10.96
			l-39.71,22.92v17.12l47.12-27.21c10.32-5.95,21.39-8.97,32.88-8.97c31.81,0,66.15,25.29,66.15,66.14
			c0,18.21-7.13,35.06-20.06,47.46c-12.38,11.87-29.18,18.68-46.09,18.68c-11.49,0-22.56-3.02-32.88-8.97l-47.12-27.21v17.12
			l39.71,22.93c25.31,14.61,55.53,14.61,80.84-0.01C421.323,242.679,436.433,216.509,436.433,187.289z M391.173,223.919
			c9.95-9.54,15.44-22.55,15.44-36.63c0-31.59-26.55-51.14-51.15-51.14c-8.83,0-17.37,2.34-25.38,6.96l-46.8,27.03l14.82,8.55
			l39.4-22.74c5.8-3.35,11.68-4.98,17.96-4.98c14.65,0,36.32,11.54,36.32,36.32c0,10.15-3.75,19.12-10.86,25.93
			c-6.79,6.51-16.31,10.4-25.45,10.4h-0.01c-6.28,0-12.16-1.63-17.96-4.98l-62.04-35.7v16.99l54.62,31.54
			c8.01,4.62,16.55,6.96,25.38,6.96C368.543,238.429,381.553,233.139,391.173,223.919z M370.543,202.389
			c4.14-3.97,6.24-9.05,6.24-15.1c0-15.95-14.64-21.32-21.32-21.32c-3.63,0-6.95,0.94-10.46,2.97l-31.79,18.35l31.79,18.35
			c3.51,2.03,6.83,2.98,10.46,2.98h0.01C360.763,208.619,366.533,206.229,370.543,202.389z M260.463,339.219v-206.76
			c0-3.39-2.76-6.15-6.16-6.15h-0.77c-3.39,0-6.15,2.76-6.15,6.15v109.66v97.1c0,3.4,2.76,6.16,6.15,6.16h0.77
			C257.703,345.379,260.463,342.619,260.463,339.219z M232.383,242.119v-109.66c0-3.39-2.76-6.15-6.16-6.15h-0.77
			c-3.39,0-6.15,2.76-6.15,6.15v109.66c0,3.4,2.76,6.16,6.15,6.16h0.77C229.623,248.279,232.383,245.519,232.383,242.119z
			 M204.303,242.119v-109.66c0-3.39-2.76-6.15-6.16-6.15h-0.77c-3.39,0-6.15,2.76-6.15,6.15v109.66c0,3.4,2.76,6.16,6.15,6.16h0.77
			C201.543,248.279,204.303,245.519,204.303,242.119z M176.223,234.369v-17.12l-47.13,27.21c-10.32,5.95-21.38,8.97-32.87,8.97
			c-31.81,0-66.15-25.28-66.15-66.14c0-40.85,34.34-66.14,66.15-66.14c11.49,0,22.55,3.02,32.87,8.97l47.13,27.21v-17.11
			l-39.72-22.93c-25.31-14.61-55.53-14.61-80.83,0c-25.31,14.61-40.42,40.78-40.42,70c0,22.28,8.74,42.94,24.62,58.16
			c15.13,14.49,35.67,22.8,56.35,22.8c14.14,0,27.69-3.68,40.28-10.95L176.223,234.369z M176.223,199.929v-17.11l-62.04,35.82
			c-5.81,3.35-11.68,4.98-17.96,4.98c-14.65,0-36.33-11.55-36.33-36.33s21.68-36.32,36.33-36.32c6.28,0,12.15,1.63,17.96,4.98
			l39.29,22.68l14.82-8.56l-46.7-26.96c-8.01-4.62-16.54-6.96-25.37-6.96c-24.6,0-51.15,19.55-51.15,51.14s26.55,51.14,51.15,51.14
			c8.83,0,17.36-2.34,25.37-6.96L176.223,199.929z M106.683,205.639l31.79-18.35l-31.79-18.35c-3.51-2.03-6.84-2.97-10.46-2.97
			c-6.68,0-21.33,5.37-21.33,21.32c0,15.96,14.65,21.33,21.33,21.33C99.843,208.619,103.173,207.669,106.683,205.639z"/>
	</g>
	<g>
	</g>
</g>
<g>
</g>
<g>
</g>
<g>
</g>
<g>
</g>
<g>
</g>
<g>
</g>
<g>
</g>
<g>
</g>
<g>
</g>
<g>
</g>
<g>
</g>
<g>
</g>
<g>
</g>
<g>
</g>
<g>
</g>
</svg>
