<?xml version="1.0" encoding="iso-8859-1"?>
<!-- Generator: Adobe Illustrator 16.0.0, SVG Export Plug-In . SVG Version: 6.00 Build 0)  -->
<!DOCTYPE svg PUBLIC "-//W3C//DTD SVG 1.1//EN" "http://www.w3.org/Graphics/SVG/1.1/DTD/svg11.dtd">
<svg xmlns="http://www.w3.org/2000/svg" xmlns:xlink="http://www.w3.org/1999/xlink" version="1.1" id="Layer_1" x="0px" y="0px" width="512" height="512" viewBox="0 0 390 390" style="enable-background:new 0 0 390 390;" xml:space="preserve">
<g>
	<path style="fill:#FF509D;" d="M195,0c-8.284,0-15,6.717-15,15v15v330v7.5v7.5c0,8.285,6.716,15,15,15s15-6.715,15-15v-7.5V360V30   V15C210,6.717,203.284,0,195,0z"/>
	<path style="fill:#FF509D;" d="M95,0c-8.284,0-15,6.717-15,15v7.157V45v300v22.5v7.5c0,8.285,6.716,15,15,15s15-6.715,15-15v-7.5   V360V30v-7.843V15C110,6.717,103.284,0,95,0z"/>
	<path style="fill:#FF017B;" d="M195,0v22.157V30v330v3.238V390c8.284,0,15-6.715,15-15v-11.762V360V30v-7.843V15   C210,6.717,203.284,0,195,0z"/>
	<path style="fill:#FF017B;" d="M295,0c-8.284,0-15,6.717-15,15v3.047V30v330v7.348V375c0,8.285,6.716,15,15,15s15-6.715,15-15   v-7.652V345V45V18.047V15C310,6.717,303.284,0,295,0z"/>
	<path style="fill:#FF509D;" d="M295,30h-15h-19.571H210h-15h-15h-37.326H110H95c-8.284,0-15,6.716-15,15v150v150   c0,8.286,6.716,15,15,15h15h70h15h15h70h15c8.284,0,15-6.714,15-15V195V45C310,36.716,303.284,30,295,30z"/>
	<path style="fill:#FF017B;" d="M295,30h-15h-19.571H210h-15v330h15h70h15c8.284,0,15-6.714,15-15V195V45   C310,36.716,303.284,30,295,30z"/>
	<g>
		<g>
			<polygon style="fill:#FFFFFF;" points="195,169.542 178.027,195 195,220.459 211.973,195    "/>
			<path style="fill:#FFFFFF;" d="M195,72.042L113.027,195L195,317.959L276.973,195L195,72.042z M207.48,255.821     c-2.781,4.173-7.465,6.679-12.48,6.679s-9.699-2.506-12.48-6.679l-35-52.5c-3.359-5.039-3.359-11.602,0-16.642l35-52.5     c2.781-4.173,7.465-6.68,12.48-6.68s9.699,2.507,12.48,6.68l35,52.5c3.359,5.04,3.359,11.603,0,16.642L207.48,255.821z"/>
			<path style="fill:#009BE8;" d="M307.48,186.68L295,167.959l-15-22.5L223.027,60l-10-15L210,40.459l-2.52-3.779     C204.699,32.507,200.016,30,195,30s-9.699,2.507-12.48,6.68L180,40.459L176.973,45l-10,15L110,145.459l-15,22.5L82.52,186.68     C80.84,189.199,80,192.1,80,195c0,2.901,0.84,5.802,2.52,8.321L95,222.042l15,22.5L166.973,330l10,15l3.027,4.542l2.52,3.779     c2.781,4.173,7.465,6.679,12.48,6.679s9.699-2.506,12.48-6.679l2.52-3.779l3.027-4.542l10-15L280,244.542l15-22.5l12.48-18.721     c1.68-2.52,2.52-5.42,2.52-8.321C310,192.1,309.16,189.199,307.48,186.68z M195,317.959L113.027,195L195,72.042L276.973,195     L195,317.959z"/>
			<path style="fill:#8D59C6;" d="M242.48,186.68l-35-52.5c-2.781-4.173-7.465-6.68-12.48-6.68s-9.699,2.507-12.48,6.68l-35,52.5     c-3.359,5.04-3.359,11.603,0,16.642l35,52.5c2.781,4.173,7.465,6.679,12.48,6.679s9.699-2.506,12.48-6.679l35-52.5     C245.84,198.282,245.84,191.719,242.48,186.68z M195,220.459L178.027,195L195,169.542L211.973,195L195,220.459z"/>
		</g>
		<polygon style="fill:#E3E3E5;" points="211.973,195 195,169.542 195,220.459   "/>
		<path style="fill:#E3E3E5;" d="M207.48,134.18l35,52.5c3.359,5.04,3.359,11.603,0,16.642l-35,52.5    c-2.781,4.173-7.465,6.679-12.48,6.679v55.459L276.973,195L195,72.042V127.5C200.016,127.5,204.699,130.007,207.48,134.18z"/>
		<path style="fill:#0082CF;" d="M295,167.959l-15-22.5L223.027,60l-10-15L210,40.459l-2.52-3.779C204.699,32.507,200.016,30,195,30    v42.042L276.973,195L195,317.959V360c5.016,0,9.699-2.506,12.48-6.679l2.52-3.779l3.027-4.542l10-15L280,244.542l15-22.5    l12.48-18.721c1.68-2.52,2.52-5.42,2.52-8.321c0-2.9-0.84-5.801-2.52-8.32L295,167.959z"/>
		<path style="fill:#7F40BD;" d="M207.48,255.821l35-52.5c3.359-5.039,3.359-11.602,0-16.642l-35-52.5    c-2.781-4.173-7.465-6.68-12.48-6.68v42.042L211.973,195L195,220.459V262.5C200.016,262.5,204.699,259.994,207.48,255.821z"/>
	</g>
</g>















</svg>
