<?xml version='1.0' encoding='UTF-8'?>
<!-- Uploaded to: SVG Repo, www.svgrepo.com, Generator: SVG Repo Mixer Tools -->
<svg xmlns="http://www.w3.org/2000/svg" xmlns:xlink="http://www.w3.org/1999/xlink" version="1.1" id="Layer_1" viewBox="97.453 34.508 317.087 442.98" xml:space="preserve" width="317.087" height="442.98">
<rect x="97.453" y="34.508" style="fill:#E25749;" width="317.087" height="442.98"/>
<rect x="131.417" y="68.471" style="fill:#FF6F52;" width="249.159" height="375.052"/>
<path d="M380.581,139.246c4.69,0,8.491-3.802,8.491-8.491V68.472c0-4.689-3.801-8.491-8.491-8.491H131.419  c-4.689,0-8.491,3.802-8.491,8.491v375.055c0,4.689,3.802,8.491,8.491,8.491h249.161c4.69,0,8.491-3.802,8.491-8.491V164.717  c0-4.689-3.801-8.491-8.491-8.491c-4.69,0-8.491,3.802-8.491,8.491v270.32H348.5l16.235-16.235c3.316-3.316,3.316-8.693,0-12.007  l-30.731-30.731c-3.317-3.316-8.693-3.316-12.008,0l-30.731,30.731c-3.316,3.316-3.316,8.693,0,12.007l16.235,16.235H204.498  l16.235-16.235c3.316-3.316,3.316-8.693,0-12.007l-30.731-30.731c-3.316-3.316-8.692-3.316-12.007,0l-30.731,30.731  c-3.316,3.316-3.316,8.693,0,12.007l16.235,16.235h-23.59V76.963h23.59l-16.235,16.235c-3.316,3.316-3.316,8.692,0,12.007  l30.731,30.731c1.657,1.657,3.831,2.487,6.004,2.487s4.346-0.829,6.004-2.487l30.731-30.731c3.316-3.316,3.316-8.692,0-12.007  l-16.235-16.235h103.001l-16.235,16.235c-3.316,3.316-3.316,8.692,0,12.007l30.731,30.731c1.659,1.657,3.832,2.487,6.005,2.487  s4.346-0.829,6.005-2.487l30.731-30.731c3.316-3.316,3.316-8.692,0-12.007l-16.235-16.235h23.59v53.792  C372.09,135.445,375.89,139.246,380.581,139.246z M327.999,394.075l18.722,18.722l-18.722,18.722l-18.722-18.722L327.999,394.075z   M183.999,394.075l18.722,18.722l-18.722,18.722l-18.722-18.722L183.999,394.075z M183.999,117.925l-18.722-18.722l18.722-18.722  l18.722,18.722L183.999,117.925z M327.999,117.925l-18.722-18.722l18.722-18.722l18.722,18.722L327.999,117.925z"/>
<path d="M414.545,0c-4.69,0-8.491,3.802-8.491,8.491v17.526h-18.25V8.491c0-4.689-3.801-8.491-8.491-8.491  c-4.69,0-8.491,3.802-8.491,8.491v17.526h-18.25V8.491c0-4.689-3.801-8.491-8.491-8.491c-4.69,0-8.491,3.802-8.491,8.491v17.526  h-18.25V8.491c0-4.689-3.801-8.491-8.491-8.491c-4.69,0-8.491,3.802-8.491,8.491v17.526h-18.251V8.491  c0-4.689-3.801-8.491-8.491-8.491s-8.491,3.802-8.491,8.491v17.526h-18.25V8.491c0-4.689-3.802-8.491-8.491-8.491  c-4.689,0-8.491,3.802-8.491,8.491v17.526h-18.251V8.491c0-4.689-3.802-8.491-8.491-8.491s-8.491,3.802-8.491,8.491v17.526h-18.25  V8.491c0-4.689-3.802-8.491-8.491-8.491c-4.689,0-8.491,3.802-8.491,8.491v17.526h-18.25V8.491c0-4.689-3.802-8.491-8.491-8.491  c-4.689,0-8.491,3.802-8.491,8.491v17.526h-18.25V8.491c0-4.689-3.802-8.491-8.491-8.491c-4.689,0-8.491,3.802-8.491,8.491v26.017  v373.038c0,4.689,3.802,8.491,8.491,8.491c4.689,0,8.491-3.802,8.491-8.491V42.999h300.107v426.001H105.946v-25.793  c0-4.689-3.802-8.491-8.491-8.491c-4.689,0-8.491,3.802-8.491,8.491v34.284v26.017c0,4.689,3.802,8.491,8.491,8.491  c4.689,0,8.491-3.802,8.491-8.491v-17.526h18.25v17.526c0,4.689,3.802,8.491,8.491,8.491c4.689,0,8.491-3.802,8.491-8.491v-17.526  h18.25v17.526c0,4.689,3.802,8.491,8.491,8.491s8.491-3.802,8.491-8.491v-17.526h18.25v17.526c0,4.689,3.802,8.491,8.491,8.491  c4.689,0,8.491-3.802,8.491-8.491v-17.526h18.251v17.526c0,4.689,3.802,8.491,8.491,8.491c4.689,0,8.491-3.802,8.491-8.491v-17.526  h18.25v17.526c0,4.689,3.801,8.491,8.491,8.491c4.69,0,8.491-3.802,8.491-8.491v-17.526h18.251v17.526  c0,4.689,3.801,8.491,8.491,8.491c4.69,0,8.491-3.802,8.491-8.491v-17.526h18.25v17.526c0,4.689,3.801,8.491,8.491,8.491  c4.69,0,8.491-3.802,8.491-8.491v-17.526h18.25v17.526c0,4.689,3.801,8.491,8.491,8.491s8.491-3.802,8.491-8.491v-17.526h18.25  v17.526c0,4.689,3.801,8.491,8.491,8.491s8.491-3.802,8.491-8.491v-26.017V34.508V8.491C423.036,3.802,419.234,0,414.545,0z"/>
<path d="M249.995,411.687c1.593,1.593,3.752,2.487,6.004,2.487c2.252,0,4.411-0.894,6.005-2.487l46.389-46.389  c3.316-3.316,3.316-8.693,0-12.007l-40.384-40.385l50.899-50.899c1.592-1.592,2.486-3.752,2.486-6.004s-0.894-4.412-2.486-6.004  l-50.899-50.899l40.384-40.385c3.316-3.316,3.316-8.692,0-12.007l-46.389-46.389c-1.593-1.593-3.752-2.487-6.005-2.487  s-4.412,0.894-6.004,2.487l-46.39,46.389c-1.593,1.592-2.487,3.752-2.487,6.004c0,2.252,0.894,4.412,2.487,6.004l10.728,10.728  c3.316,3.316,8.692,3.316,12.007,0c3.316-3.316,3.316-8.692,0-12.007l-4.723-4.723l34.382-34.382l34.381,34.382l-34.381,34.382  l-12.302-12.301c-3.316-3.316-8.692-3.316-12.007,0c-3.316,3.316-3.316,8.692,0,12.007l12.302,12.301l-50.899,50.899  c-1.593,1.592-2.487,3.752-2.487,6.004s0.894,4.412,2.487,6.004l50.899,50.899l-40.385,40.385c-1.593,1.592-2.487,3.752-2.487,6.004  c0,2.252,0.894,4.412,2.487,6.004L249.995,411.687z M256,211.104l44.896,44.896L256,300.895l-44.896-44.896L256,211.104z   M256,324.911l34.381,34.382L256,393.674l-34.382-34.382L256,324.911z"/>
<path d="M327.999,352.124c2.173,0,4.346-0.829,6.005-2.487l30.731-30.731c1.592-1.592,2.486-3.752,2.486-6.004  s-0.894-4.412-2.486-6.004l-30.731-30.729c-3.317-3.316-8.693-3.316-12.008,0l-30.731,30.729c-1.592,1.592-2.486,3.752-2.486,6.004  s0.894,4.412,2.486,6.004l30.731,30.731C323.653,351.295,325.826,352.124,327.999,352.124z M327.999,294.182l18.722,18.722  l-18.722,18.722l-18.722-18.722L327.999,294.182z"/>
<path d="M147.266,318.907l30.731,30.731c1.657,1.657,3.831,2.487,6.004,2.487s4.346-0.829,6.004-2.487l30.731-30.731  c1.593-1.592,2.487-3.752,2.487-6.004c0-2.252-0.894-4.412-2.487-6.004l-30.731-30.729c-3.316-3.316-8.692-3.316-12.007,0  L147.266,306.9c-1.593,1.592-2.487,3.752-2.487,6.004C144.778,315.155,145.673,317.316,147.266,318.907z M183.999,294.182  l18.722,18.722l-18.722,18.722l-18.722-18.722L183.999,294.182z"/>
<path d="M364.734,193.093l-30.731-30.729c-3.317-3.316-8.693-3.316-12.008,0l-30.731,30.729c-1.592,1.592-2.486,3.752-2.486,6.004  c0,2.252,0.894,4.412,2.486,6.004l30.731,30.731c1.659,1.657,3.832,2.487,6.005,2.487c2.173,0,4.346-0.829,6.005-2.487  l30.731-30.731c1.592-1.592,2.486-3.752,2.486-6.004C367.222,196.845,366.326,194.684,364.734,193.093z M327.999,217.818  l-18.722-18.722l18.722-18.722l18.722,18.722L327.999,217.818z"/>
<path d="M177.995,235.831c1.657,1.657,3.831,2.487,6.004,2.487s4.346-0.829,6.004-2.487l30.731-30.731  c1.593-1.592,2.487-3.752,2.487-6.004s-0.894-4.412-2.487-6.004l-30.731-30.729c-3.316-3.316-8.692-3.316-12.007,0l-30.731,30.729  c-1.593,1.592-2.487,3.752-2.487,6.004s0.894,4.412,2.487,6.004L177.995,235.831z M183.999,180.374l18.722,18.722l-18.722,18.722  l-18.722-18.722L183.999,180.374z"/>
</svg>
