<?xml version="1.0" encoding="iso-8859-1"?>
<!-- Uploaded to: SVG Repo, www.svgrepo.com, Generator: SVG Repo Mixer Tools -->
<svg height="800px" width="800px" version="1.1" id="Layer_1" xmlns="http://www.w3.org/2000/svg" xmlns:xlink="http://www.w3.org/1999/xlink" 
	 viewBox="0 0 511.988 511.988" xml:space="preserve">
<polygon style="fill:#DA4453;" points="451.644,0 406.394,75.421 436.566,105.592 511.986,60.343 "/>
<path style="fill:#ED5564;" d="M287.225,73.905L49.934,311.213l150.849,150.84l237.299-237.307
	c41.655-41.655,41.655-109.185,0-150.84C396.426,32.25,328.881,32.25,287.225,73.905z"/>
<g style="opacity:0.1;">
	<path d="M422.988,209.668L185.697,446.974l15.086,15.078l237.299-237.307c41.655-41.655,41.655-109.185,0-150.84
		c-2.547-2.546-5.188-4.937-7.922-7.171C464.487,108.639,462.097,170.559,422.988,209.668z"/>
</g>
<path style="fill:#F49292;" d="M208.337,303.65c41.656,41.655,34.898,115.95-15.093,165.934
	c-49.991,49.999-124.279,56.748-165.934,15.094c-41.656-41.657-34.898-115.952,15.093-165.935
	C92.394,268.744,166.682,261.994,208.337,303.65z"/>
<g>
	<path style="fill:#E6E9ED;" d="M181.33,330.665c0,5.891-4.773,10.656-10.664,10.656s-10.672-4.765-10.672-10.656
		s4.781-10.672,10.671-10.672S181.33,324.774,181.33,330.665z"/>
	<path style="fill:#E6E9ED;" d="M117.331,373.32c0,5.891-4.773,10.672-10.664,10.672s-10.672-4.781-10.672-10.672
		s4.781-10.656,10.672-10.656S117.331,367.43,117.331,373.32z"/>
	<path style="fill:#E6E9ED;" d="M159.994,373.32c0,5.891-4.773,10.672-10.664,10.672s-10.664-4.781-10.664-10.672
		s4.773-10.656,10.664-10.656S159.994,367.43,159.994,373.32z"/>
	<path style="fill:#E6E9ED;" d="M202.665,373.32c0,5.891-4.781,10.672-10.672,10.672s-10.664-4.781-10.664-10.672
		s4.774-10.656,10.665-10.656S202.665,367.43,202.665,373.32z"/>
	<path style="fill:#E6E9ED;" d="M74.668,373.32c0,5.891-4.781,10.672-10.671,10.672c-5.891,0-10.664-4.781-10.664-10.672
		s4.773-10.656,10.664-10.656C69.887,362.664,74.668,367.43,74.668,373.32z"/>
	<path style="fill:#E6E9ED;" d="M117.331,458.662c0,5.891-4.773,10.656-10.664,10.656s-10.672-4.766-10.672-10.656
		s4.781-10.672,10.672-10.672S117.331,452.771,117.331,458.662z"/>
	<path style="fill:#E6E9ED;" d="M159.994,458.662c0,5.891-4.773,10.656-10.664,10.656s-10.664-4.766-10.664-10.656
		s4.773-10.672,10.664-10.672S159.994,452.771,159.994,458.662z"/>
	<path style="fill:#E6E9ED;" d="M74.668,458.662c0,5.891-4.781,10.656-10.671,10.656c-5.891,0-10.664-4.766-10.664-10.656
		s4.773-10.672,10.664-10.672C69.887,447.99,74.668,452.771,74.668,458.662z"/>
	<path style="fill:#E6E9ED;" d="M138.666,330.665c0,5.891-4.781,10.656-10.671,10.656c-5.89,0-10.664-4.766-10.664-10.656
		s4.773-10.672,10.664-10.672C133.886,319.993,138.666,324.774,138.666,330.665z"/>
	<path style="fill:#E6E9ED;" d="M95.995,330.665c0,5.891-4.773,10.656-10.664,10.656s-10.664-4.766-10.664-10.656
		s4.773-10.672,10.664-10.672S95.995,324.774,95.995,330.665z"/>
	<path style="fill:#E6E9ED;" d="M181.33,415.991c0,5.891-4.773,10.672-10.664,10.672s-10.672-4.781-10.672-10.672
		s4.781-10.671,10.671-10.671S181.33,410.1,181.33,415.991z"/>
	<path style="fill:#E6E9ED;" d="M138.666,415.991c0,5.891-4.781,10.672-10.671,10.672c-5.89,0-10.664-4.781-10.664-10.672
		s4.773-10.671,10.664-10.671C133.886,405.32,138.666,410.1,138.666,415.991z"/>
	<path style="fill:#E6E9ED;" d="M95.995,415.991c0,5.891-4.773,10.672-10.664,10.672s-10.664-4.781-10.664-10.672
		s4.773-10.671,10.664-10.671S95.995,410.1,95.995,415.991z"/>
	<path style="fill:#E6E9ED;" d="M53.332,415.991c0,5.891-4.773,10.672-10.664,10.672s-10.672-4.781-10.672-10.672
		s4.781-10.671,10.672-10.671C48.559,405.32,53.332,410.1,53.332,415.991z"/>
</g>
</svg>