<?xml version="1.0" encoding="iso-8859-1"?>
<!-- Uploaded to: SVG Repo, www.svgrepo.com, Generator: SVG Repo Mixer Tools -->
<svg height="800px" width="800px" version="1.1" id="Layer_1" xmlns="http://www.w3.org/2000/svg" xmlns:xlink="http://www.w3.org/1999/xlink" 
	 viewBox="0 0 502.858 502.858" xml:space="preserve">
<g transform="translate(1 1)">
	<path style="fill:#FFE100;" d="M124.902,271.413c0,0-58.754,0-92.328,0c-14.269,0-25.18,10.911-25.18,25.18
		s10.911,25.18,25.18,25.18h100.721c28.538,0,57.075,1.679,85.613,4.197c36.931,3.357,88.131,4.197,124.223,4.197
		c54.557,0,114.151-10.911,144.367-24.341c10.911-5.036,10.072-20.144-0.839-23.502c-8.393-2.518-21.823-5.036-42.807-5.875
		c-12.59-0.839-25.18,0.839-37.771,1.679c-46.164,1.679-138.492-6.715-220.748-6.715H124.902z"/>
	<path style="fill:#FFFFFF;" d="M32.574,296.593c0-14.269,10.911-25.18,25.18-25.18c7.554,0,17.626,0,26.859,0
		c-17.626,0-36.931,0-52.039,0c-14.269,0-25.18,10.911-25.18,25.18s10.911,25.18,25.18,25.18h25.18
		C44.325,321.773,32.574,310.862,32.574,296.593"/>
	<path style="fill:#FFA800;" d="M485.82,282.324c-8.393-2.518-21.823-5.036-42.807-5.875c-6.715,0-14.269,0-20.984,0
		c17.626,0.839,30.216,3.357,38.61,5.875c10.911,3.357,11.751,18.466,0.839,23.502c-29.377,12.59-84.774,23.502-137.652,24.341
		c6.715,0,12.59,0,18.466,0c54.557,0,114.151-10.911,144.367-24.341C497.57,300.79,496.731,285.681,485.82,282.324"/>
	<path style="fill:#E4667F;" d="M427.066,201.747c0.839-2.518,1.679-4.197,1.679-6.715c0-10.072-8.393-18.466-18.466-18.466
		c-5.036,0-10.072,2.518-13.429,5.875c-2.518-6.715-9.233-11.751-16.787-11.751c-10.072,0-18.466,8.393-18.466,18.466
		c0,2.518,0.839,4.197,0.839,5.875h-0.839c-10.072,0-18.466,8.393-18.466,18.466c0,10.072,8.393,18.466,18.466,18.466
		c5.036,0,10.072-2.518,13.43-5.875c2.518,6.715,9.233,11.751,16.787,11.751c6.715,0,11.751-3.357,15.108-8.393
		c3.357,5.036,9.233,8.393,15.108,8.393c10.072,0,18.466-8.393,18.466-18.466C441.334,210.98,435.459,204.265,427.066,201.747"/>
	<path style="fill:#FDCC00;" d="M422.869,237.839c-6.715,0-11.751-3.357-15.108-8.393c-3.357,5.036-9.233,8.393-15.108,8.393
		c-7.554,0-14.269-5.036-16.787-11.751c-3.357,3.357-8.393,5.875-13.43,5.875c-3.357,0-5.875-0.839-8.393-2.518l-20.984,47.003
		c29.377,1.679,55.397,1.679,73.862,0.839c0.839,0,1.679,0,2.518,0c5.875-10.911,13.43-27.698,20.144-40.289
		C426.226,237.839,424.548,237.839,422.869,237.839"/>
	<path d="M343.131,338.56c-29.377,0-84.774-0.839-124.223-4.197c-31.895-2.518-58.754-4.197-85.613-4.197H32.574
		C14.108,330.167-1,315.059-1,296.593s15.108-33.574,33.574-33.574h38.61h113.311c39.449,0,80.577,1.679,117.508,3.357
		c41.128,1.679,80.577,3.357,102.4,2.518h6.715c10.072-0.839,20.984-1.679,31.895-0.839c18.466,0.839,33.574,3.357,44.485,6.715
		c8.393,2.518,14.269,10.072,14.269,18.466c0.839,9.233-4.197,16.787-12.59,20.144C457.282,328.488,396.01,338.56,343.131,338.56z
		 M72.023,279.806H32.574c-9.233,0-16.787,7.554-16.787,16.787s7.554,16.787,16.787,16.787h100.721
		c26.859,0,54.557,1.679,86.452,4.197c39.449,3.357,94.007,4.197,123.384,4.197c50.361,0,109.954-10.072,141.01-23.502
		c1.679-1.679,1.679-3.357,1.679-4.197s-0.839-2.518-2.518-3.357c-9.233-2.518-22.662-5.036-40.289-5.875
		c-10.072-0.839-20.144,0-30.216,0.839h-6.715c-22.662,1.679-62.111,0-104.079-2.518c-36.931-1.679-78.059-3.357-116.669-3.357
		H72.023z"/>
	<path d="M422.869,246.232c-5.875,0-10.911-1.679-15.108-5.036c-5.036,3.357-10.072,5.036-15.948,5.036
		c-7.554,0-14.269-3.357-19.305-8.393c-3.357,1.679-7.554,2.518-10.911,2.518c-15.108,0-26.859-11.751-26.859-26.859
		c0-11.751,7.554-21.823,18.466-25.18c0.839-14.269,12.59-26.02,26.859-26.02c7.554,0,14.269,3.357,19.305,8.393
		c3.357-1.679,7.554-2.518,10.911-2.518c15.108,0,26.859,11.751,26.859,26.859c0,0.839,0,1.679,0,1.679
		c7.554,5.036,12.59,13.43,12.59,22.662C449.728,234.481,437.138,246.232,422.869,246.232z M407.761,221.052
		c2.518,0,5.036,1.679,6.715,3.357c1.679,2.518,5.036,4.197,8.393,4.197c5.875,0,10.072-4.197,10.072-10.072
		c0-4.197-3.357-8.393-7.554-9.233c-2.518-0.839-4.197-2.518-5.036-4.197c-0.839-1.679-0.839-5.036,0-6.715
		c0.839-0.839,0.839-2.518,0.839-3.357c0-5.875-4.197-10.072-10.072-10.072c-2.518,0-5.036,0.839-7.554,3.357
		c-1.679,2.518-5.036,3.357-7.554,2.518c-2.518-0.839-5.036-2.518-5.875-5.036c-2.518-4.197-5.875-6.715-10.072-6.715
		c-5.875,0-10.072,4.197-10.072,10.072c0,0.839,0,2.518,0.839,3.357c0.839,2.518,0.839,5.875-0.839,7.554
		c-1.679,2.518-4.197,3.357-7.554,3.357h-0.839c-5.036,0-9.233,4.197-9.233,10.072c0,5.875,4.197,10.072,10.072,10.072
		c2.518,0,5.036-0.839,7.554-3.357c1.679-2.518,5.036-3.357,7.554-2.518s5.036,2.518,5.875,5.036
		c0.839,4.197,4.197,6.715,8.393,6.715c3.357,0,6.715-1.679,8.393-4.197C401.885,222.731,404.403,221.052,407.761,221.052z"/>
	<path d="M384.259,286.521c-16.787,0-36.931-0.839-52.879-1.679c-2.518,0-5.036-1.679-6.715-4.197
		c-1.679-2.518-1.679-5.036-0.839-7.554l20.984-47.003c0.839-1.679,2.518-3.357,5.036-4.197c2.518-0.839,5.036-0.839,7.554,0
		c4.197,2.518,9.233,0.839,11.751-1.679c1.679-2.518,5.036-3.357,7.554-2.518c2.518,0.839,5.036,2.518,5.875,5.036
		c1.679,4.197,5.036,6.715,9.233,6.715c3.357,0,6.715-1.679,8.393-4.197c1.679-2.518,4.197-4.197,7.554-4.197l0,0
		c2.518,0,5.036,1.679,6.715,3.357c1.679,2.518,5.036,4.197,8.393,4.197c0.839,0,1.679,0,2.518-0.839
		c3.357-0.839,6.715,0,8.393,2.518c2.518,3.357,3.357,7.554,1.679,10.072c-5.875,12.59-14.269,29.377-20.144,40.289
		c-1.679,2.518-4.197,4.197-6.715,4.197h-2.518C400.207,286.521,392.652,286.521,384.259,286.521z M344.81,268.895
		c20.144,0.839,43.646,1.679,57.915,0.839c3.357-7.554,7.554-15.948,11.751-24.341c-2.518-0.839-5.036-1.679-7.554-3.357
		c-4.197,2.518-9.233,4.197-15.108,4.197c-7.554,0-14.269-3.357-19.305-8.393c-4.197,2.518-10.072,2.518-15.108,2.518
		L344.81,268.895z"/>
</g>
</svg>