<!DOCTYPE svg PUBLIC "-//W3C//DTD SVG 1.1//EN" "http://www.w3.org/Graphics/SVG/1.1/DTD/svg11.dtd">
<!-- Uploaded to: SVG Repo, www.svgrepo.com, Transformed by: SVG Repo Mixer Tools -->
<svg fill="#269707" height="800px" width="800px" version="1.1" id="Capa_1" xmlns="http://www.w3.org/2000/svg" xmlns:xlink="http://www.w3.org/1999/xlink" viewBox="0 0 611.998 611.998" xml:space="preserve" stroke="#269707">
<g id="SVGRepo_bgCarrier" stroke-width="0"/>
<g id="SVGRepo_tracerCarrier" stroke-linecap="round" stroke-linejoin="round"/>
<g id="SVGRepo_iconCarrier"> <g> <path d="M502.206,199.732l0.068-10.926l-10.926,0.068c-52.787,0.331-96.294,42.224-99.239,94.387l-69.241,69.24V139.922 l45.549-45.242c44.165-2.328,79.685-39.104,79.966-83.753L448.45,0l-10.926,0.068c-44.207,0.279-80.682,35.102-83.664,78.654 l-30.993,30.784V81.712c0-5.96-4.831-10.791-10.791-10.791s-10.791,4.831-10.791,10.791v197.811l-43.154-43.183l0.439-0.333 c33.547-25.455,40.471-73.715,15.438-107.578l-6.496-8.787l-8.703,6.605c-26.104,19.81-36.08,53.425-27.429,83.321l-4.666-4.669 c-1.353-26.211-12.386-50.864-31.389-69.867c-20.162-20.159-46.682-31.359-74.677-31.535l-10.926-0.068l0.068,10.926 c0.176,27.996,11.377,54.516,31.537,74.677c19.132,19.132,43.994,30.174,70.403,31.404l7.507,7.512 c-5.849-1.401-11.867-2.157-17.945-2.157c-27.53,0-53.198,14.484-66.989,37.798l-5.562,9.405l9.474,5.445 c11.517,6.618,24.694,10.116,38.107,10.116c27.214,0,52.588-14.17,66.489-37.017l58.473,58.512v68.372 c-0.002,0.089,0,50.39,0,50.39l-62.511-62.511c-4.213-4.213-11.045-4.215-15.261,0c-4.213,4.213-4.213,11.047,0,15.26 l77.772,77.774v131.081H154.564c-5.96,0-10.791,4.831-10.791,10.791c0,5.96,4.831,10.791,10.791,10.791h299.042 c5.96,0,10.791-4.831,10.791-10.791c0-5.96-4.831-10.791-10.791-10.791H322.867V383.024l39.997-39.997 c15.853,16.962,38.033,26.585,61.934,26.585c18.745,0,36.402-5.938,51.063-17.17l8.674-6.646l-6.753-8.589 c-15.99-20.337-40.274-32.002-66.625-32.002c-3.786,0-7.524,0.254-11.205,0.734l6.934-6.934 C459.483,296.523,501.874,252.83,502.206,199.732z M425.467,22.984c-5.172,24.111-24.794,43.732-48.905,48.904 C381.736,47.778,401.356,28.156,425.467,22.984z M262.854,152.12c8.105,19.095,4.822,41.971-8.324,58.016 C246.424,191.041,249.708,168.164,262.854,152.12z M176.325,266.977c-5.417,0-10.775-0.791-15.893-2.323 c10.438-10.865,25.223-17.278,40.863-17.278c5.417,0,10.774,0.791,15.893,2.323C206.748,260.564,191.962,266.977,176.325,266.977z M156.588,173.774c-13.254-13.254-21.663-29.906-24.313-47.792c17.888,2.65,34.538,11.061,47.792,24.315 c13.254,13.254,21.663,29.904,24.313,47.791C186.494,195.437,169.842,187.027,156.588,173.774z M452.364,341.74 c-8.454,4.139-17.805,6.289-27.566,6.289c-15.463,0-29.95-5.343-41.205-14.954c8.454-4.139,17.805-6.289,27.566-6.289 C426.624,326.785,441.108,332.13,452.364,341.74z M436.722,233.646c11.933-11.933,26.86-19.598,42.913-22.201 c-2.602,16.055-10.267,30.982-22.2,42.915c-11.933,11.933-26.86,19.598-42.913,22.201 C417.125,260.507,424.789,245.58,436.722,233.646z"/> </g> </g>
</svg>