<?xml version="1.0" encoding="iso-8859-1"?>
<!-- Generator: Adobe Illustrator 19.0.0, SVG Export Plug-In . SVG Version: 6.00 Build 0)  -->
<svg version="1.1" id="Layer_1" xmlns="http://www.w3.org/2000/svg" xmlns:xlink="http://www.w3.org/1999/xlink" x="0px" y="0px"
	 viewBox="0 0 512.001 512.001" style="enable-background:new 0 0 512.001 512.001;" xml:space="preserve">
<g>
	<path style="fill:#8C4F39;" d="M178.512,73.476l260.01,260.01c29.004,29.004,29.004,76.031,0,105.035l0,0
		c-29.004,29.004-76.031,29.004-105.035,0l-260.01-260.01c-29.004-29.005-29.004-76.031,0-105.035l0,0
		C102.481,44.471,149.508,44.471,178.512,73.476z"/>
	<path style="fill:#8C4F39;" d="M439.813,501.8c-17.117-17.117-17.117-44.87,0-61.989l0,0c17.117-17.117,44.87-17.117,61.989,0
		L439.813,501.8z"/>
	<path style="fill:#8C4F39;" d="M72.188,10.198c17.117,17.117,17.117,44.87,0,61.989l0,0c-17.117,17.117-44.87,17.117-61.989,0
		L72.188,10.198z"/>
</g>
<path d="M509.013,432.599c-12.139-12.138-28.661-17.266-44.517-15.417c12.019-30.381,5.774-66.373-18.76-90.909L185.725,66.264
	c-24.535-24.533-60.526-30.778-90.908-18.76c1.849-15.857-3.28-32.379-15.418-44.517c-3.984-3.982-10.44-3.982-14.425,0
	L2.987,64.974c-3.983,3.983-3.983,10.441,0,14.425c10.534,10.533,24.37,15.8,38.206,15.8c2.108,0,4.214-0.138,6.311-0.382
	c-12.019,30.381-5.774,66.373,18.761,90.908l260.01,260.01c16.468,16.468,38.098,24.701,59.73,24.701
	c10.596,0,21.189-1.989,31.178-5.94c-1.849,15.856,3.28,32.379,15.418,44.517c1.992,1.991,4.602,2.987,7.212,2.987
	c2.61,0,5.22-0.996,7.212-2.987l61.988-61.988C512.996,443.041,512.996,436.583,509.013,432.599z M25.742,71.069L71.07,25.741
	c6.537,12.659,4.506,28.634-6.095,39.234C54.375,75.575,38.4,77.607,25.742,71.069z M340.699,431.31L80.69,171.3
	c-24.982-24.982-24.982-65.631,0-90.612c12.491-12.491,28.898-18.737,45.306-18.737s32.815,6.246,45.306,18.737l260.01,260.01
	c24.982,24.982,24.982,65.631,0,90.612C406.329,456.292,365.681,456.292,340.699,431.31z M440.931,486.259
	c-6.537-12.659-4.506-28.634,6.095-39.234c6.557-6.557,15.169-9.836,23.781-9.836c5.312,0,10.624,1.247,15.452,3.741
	L440.931,486.259z"/>
<path d="M163.342,93.816c-3.984-3.982-10.44-3.982-14.425,0c-3.983,3.983-3.983,10.441,0,14.425l153.249,153.249
	c1.992,1.991,4.602,2.987,7.212,2.987c2.61,0,5.22-0.996,7.212-2.987c3.983-3.983,3.983-10.441,0-14.425L163.342,93.816z"/>
<path d="M345.002,275.477c-3.984-3.982-10.44-3.982-14.425,0c-3.983,3.983-3.983,10.441,0,14.425l6.027,6.027
	c1.992,1.991,4.602,2.987,7.212,2.987c2.61,0,5.22-0.996,7.212-2.987c3.983-3.983,3.983-10.441,0-14.425L345.002,275.477z"/>
<g>
</g>
<g>
</g>
<g>
</g>
<g>
</g>
<g>
</g>
<g>
</g>
<g>
</g>
<g>
</g>
<g>
</g>
<g>
</g>
<g>
</g>
<g>
</g>
<g>
</g>
<g>
</g>
<g>
</g>
</svg>
