<?xml version="1.0" encoding="iso-8859-1"?>
<!-- Uploaded to: SVG Repo, www.svgrepo.com, Generator: SVG Repo Mixer Tools -->
<svg fill="#000000" height="800px" width="800px" version="1.1" id="Capa_1" xmlns="http://www.w3.org/2000/svg" xmlns:xlink="http://www.w3.org/1999/xlink" 
	 viewBox="0 0 19.805 19.805" xml:space="preserve">
<g>
	<path d="M2.405,19.805h14.996v-0.793h-1.172v-0.348h-0.391l-0.002-0.056c0.018-0.027,0.027-0.056,0.027-0.082
		c0-0.378-1.715-0.702-4.15-0.84V7.689l0.506-0.443v-0.19l-1.328-0.225v-2.05l0.211-0.248l-0.211-0.127V4.11l-0.649-0.271h-0.018
		l-0.04-0.938c0,0,0.111-0.127,0.095-0.204c-0.017-0.079-0.379-0.174-0.379-0.174V1.67L9.253,1.009L8.614,1.648v0.748H8.465
		l-0.017-2.03L8.212,0L7.99,0.396L7.903,3.839H7.885l-0.588,0.61l0.187,0.152v2.348l-0.6,0.369H6.57v0.194L6.287,7.688l0.283,0.06
		v9.941c-2.425,0.139-4.13,0.461-4.13,0.839c0,0.017,0.003,0.032,0.012,0.05L2.405,19.805z M10.545,8.626h0.475v1.072h-0.475V8.626z
		 M10.545,11h0.475v1.069h-0.475V11z M10.545,13.37h0.475v1.074h-0.475V13.37z M10.545,15.74h0.475v1.073h-0.475V15.74z
		 M9.111,8.626h0.473v1.072H9.111V8.626z M9.111,11h0.473v1.069H9.111V11z M9.111,13.37h0.473v1.074H9.111V13.37z M9.111,15.74
		h0.473v1.073H9.111V15.74z"/>
</g>
</svg>