<?xml version="1.0" encoding="iso-8859-1"?>
<!-- Uploaded to: SVG Repo, www.svgrepo.com, Generator: SVG Repo Mixer Tools -->
<svg version="1.1" id="Layer_1" xmlns="http://www.w3.org/2000/svg" xmlns:xlink="http://www.w3.org/1999/xlink" 
	 viewBox="0 0 512 512" xml:space="preserve">
<rect x="105.338" y="467.478" style="fill:#82370D;" width="33.391" height="44.522"/>
<rect x="373.27" y="467.478" style="fill:#5B370D;" width="33.391" height="44.522"/>
<rect x="60.582" y="16.696" style="fill:#F0C838;" width="390.823" height="450.783"/>
<rect x="255.999" y="16.696" style="fill:#E79C25;" width="195.417" height="450.783"/>
<path style="fill:#82370D;" d="M43.891,0v484.174h424.218V0H43.891z M434.716,33.391v116.87H77.283V33.391H434.716z
	 M434.716,183.652v116.87H77.283v-116.87H434.716z M77.283,450.783v-116.87h357.435v116.87H77.283z"/>
<polygon style="fill:#5B370D;" points="468.108,0 255.999,0 255.999,33.391 434.716,33.391 434.716,150.261 255.999,150.261 
	255.999,183.652 434.716,183.652 434.716,300.522 255.999,300.522 255.999,333.913 434.716,333.913 434.716,450.783 
	255.999,450.783 255.999,484.174 468.108,484.174 "/>
</svg>