<?xml version="1.0" encoding="iso-8859-1"?>
<!-- Uploaded to: SVG Repo, www.svgrepo.com, Generator: SVG Repo Mixer Tools -->
<svg version="1.1" id="Layer_1" xmlns="http://www.w3.org/2000/svg" xmlns:xlink="http://www.w3.org/1999/xlink" 
	 viewBox="0 0 512 512" xml:space="preserve">
<g>
	<polygon style="fill:#C5FFCA;" points="423.998,88.248 327.998,88.248 327.998,40.248 423.998,40.248 407.997,64.248 	"/>
	<rect x="256" y="8.248" style="fill:#C5FFCA;" width="112.003" height="47.999"/>
</g>
<rect x="391.993" y="384.251" style="fill:#AA603B;" width="112.003" height="32"/>
<polygon style="fill:#FFFFFF;" points="479.997,416.246 447.997,416.246 415.997,384.246 447.997,384.246 "/>
<circle style="fill:#B3B3B3;" cx="375.996" cy="400.248" r="15.999"/>
<rect x="8" y="384.251" style="fill:#AA603B;" width="112.003" height="32"/>
<g>
	<polygon style="fill:#FFFFFF;" points="32,416.246 64,416.246 95.999,384.246 64,384.246 	"/>
	<circle style="fill:#FFFFFF;" cx="136.004" cy="400.248" r="15.999"/>
</g>
<circle style="fill:#B3B3B3;" cx="136.004" cy="400.248" r="15.999"/>
<polygon style="fill:#F2BF7E;" points="256,144.247 368.849,208.247 368.849,223.608 143.151,223.608 143.151,208.247 "/>
<g>
	<polygon style="fill:#AA603B;" points="255.885,144.247 200.62,208.247 200.62,223.608 143.151,223.608 143.151,208.247 	"/>
	<rect x="159.995" y="224.246" style="fill:#AA603B;" width="192" height="24"/>
</g>
<rect x="176.003" y="248.247" style="fill:#B3B3B3;" width="159.995" height="119.996"/>
<rect x="176.003" y="368.243" style="fill:#FFFFFF;" width="159.995" height="32"/>
<g>
	<rect x="280.001" y="288.246" style="fill:#99C6E4;" width="55.999" height="88.001"/>
	<rect x="176.003" y="288.246" style="fill:#99C6E4;" width="55.999" height="88.001"/>
</g>
<rect x="176.003" y="400.248" style="fill:#C5FFCA;" width="159.995" height="72"/>
<rect x="167.999" y="472.242" style="fill:#F2BF7E;" width="176.003" height="32"/>
<rect x="167.999" y="472.242" style="fill:#AA603B;" width="55.999" height="32"/>
<rect x="248.686" y="360.49" width="14.629" height="15.673"/>
<path d="M512,424.229v-48.065l-135.837,0.25c-0.055,0-0.11-0.004-0.166-0.004c-13.144,0-23.837,10.692-23.837,23.837
	c0,10.653,7.026,19.695,16.688,22.739v73.341h-17.014v-31.918H160.162v31.918h-17.011v-73.342
	c9.66-3.045,16.685-12.086,16.685-22.738c0-13.144-10.692-23.837-23.837-23.837C135.944,376.409,0,376.163,0,376.163v48.065h127.478
	v72.098H0V512h512v-15.673H384.522v-72.098H512z M496.327,391.837v16.718h-12.936l-16.718-16.718H496.327z M444.505,391.837
	l16.719,16.718h-17.833l-16.718-16.718H444.505z M404.505,391.837l16.718,16.718h-22.886c0.967-2.589,1.497-5.388,1.497-8.309
	c0-2.959-0.546-5.793-1.536-8.409H404.505z M107.492,391.837h6.207c-0.991,2.616-1.536,5.45-1.536,8.409
	c0,2.922,0.531,5.721,1.497,8.309H90.772L107.492,391.837z M68.606,408.555H50.773l16.718-16.718h17.833L68.606,408.555z
	 M144.162,400.246c0,4.501-3.662,8.162-8.164,8.162s-8.164-3.661-8.164-8.162c0-4.501,3.662-8.164,8.164-8.164
	S144.162,395.745,144.162,400.246z M15.673,391.837h29.652l-16.718,16.718H15.673V391.837z M336.161,496.327H175.835v-16.245H336.16
	v16.245H336.161z M375.997,408.408c-4.501,0-8.164-3.661-8.164-8.162c0-4.501,3.662-8.164,8.164-8.164
	c4.501,0,8.164,3.662,8.164,8.164C384.161,404.746,380.499,408.408,375.997,408.408z"/>
<path d="M159.869,240.327V256h8.359v200.62h15.673v-49.11h144.196v49.11h15.673V256h8.359v-15.673H159.869z M183.902,296.751h39.706
	v72.098h-39.706V296.751z M328.098,368.849h-39.706v-72.098h39.706V368.849z M328.098,281.078h-55.38v103.445h55.38v7.314H183.902
	v-7.314h55.38V281.078h-55.38V256h144.196V281.078z"/>
<path d="M263.314,139.395v-19.231h-15.673v19.827l-111.804,63.702v28.275h240.327v-28.275L263.314,139.395z M360.49,216.294H151.51
	v-3.493L256,153.266l104.49,59.535V216.294z"/>
<polygon points="263.314,112.849 247.641,112.849 247.641,0 376.163,0 376.163,63.739 271.673,63.739 271.673,48.065 360.49,48.065 
	360.49,15.673 263.314,15.673 "/>
<polygon points="438.628,96.131 320.784,96.131 320.784,72.098 336.457,72.098 336.457,80.457 409.365,80.457 398.583,64.261 
	409.365,48.065 383.478,48.065 383.478,32.392 438.628,32.392 417.413,64.261 "/>
<g>
	<rect x="248.686" y="440.947" style="fill:#FFFFFF;" width="14.629" height="15.673"/>
	<rect x="223.608" y="440.947" style="fill:#FFFFFF;" width="16.718" height="15.673"/>
	<rect x="271.673" y="440.947" style="fill:#FFFFFF;" width="16.718" height="15.673"/>
</g>
</svg>