<?xml version="1.0" encoding="iso-8859-1"?>
<!-- Uploaded to: SVG Repo, www.svgrepo.com, Generator: SVG Repo Mixer Tools -->
<svg height="800px" width="800px" version="1.1" id="Layer_1" xmlns="http://www.w3.org/2000/svg" xmlns:xlink="http://www.w3.org/1999/xlink" 
	 viewBox="0 0 512.001 512.001" xml:space="preserve">
<path style="fill:#F9DCA4;" d="M377.871,8.464c59.964,0,94.334,85.558,94.334,142.598S451.73,342.654,451.73,394.576
	s-7.313,108.96-72.396,108.96s-70.202-60.695-70.202-86.29s2.194-122.854-13.894-201.831
	C279.15,136.436,268.181,8.464,377.871,8.464z"/>
<g>
	<path style="fill:#F4C063;" d="M468.91,207.068c-2.91,32.206-7.219,69.566-10.795,103.667l-82.121-53.954l-37.406-24.58
		l-43.26-28.427l-2.662-1.737c-6.407-35.341-10.773-77.643-4.444-113.684l51.145,33.593l29.667,19.493l80.666,53.007L468.91,207.068
		z"/>
	<path style="fill:#F4C063;" d="M375.993,256.781l-31.292,26.464l-37.519,31.732c-1.861-32.172-5.381-67.378-11.946-99.561
		c-0.869-4.32-1.737-8.799-2.572-13.379l2.662,1.737l43.26,28.427L375.993,256.781z"/>
	<path style="fill:#F4C063;" d="M472.206,151.059c0,14.523-1.328,34.07-3.302,56.008l-19.207-12.625l-80.667-53.003l84.473-71.431
		C465.734,96.18,472.206,126.301,472.206,151.059z"/>
</g>
<path style="fill:#D5A03C;" d="M344.701,283.245l-37.519,31.732c-1.861-32.172-5.381-67.378-11.946-99.561
	c-0.869-4.32-1.737-8.799-2.572-13.379c-6.407-35.341-10.773-77.643-4.444-113.684l51.145,33.593
	c-2.109,24.309-4.185,64.659-0.778,110.255C339.817,248.704,341.769,265.884,344.701,283.245z"/>
<path style="fill:#EC589B;" d="M480.654,143.683c-25.407-16.09-72.448,36.996-72.448,36.996h-56.279
	c0,0-47.041-53.087-72.448-36.996s0,55.894,0,55.894s-25.407,39.804,0,55.894c25.407,16.09,72.448-36.996,72.448-36.996h56.279
	c0,0,47.041,53.087,72.448,36.996s0-55.894,0-55.894S506.06,159.773,480.654,143.683z"/>
<path style="fill:#F9DCA4;" d="M134.128,8.464c-59.964,0-94.335,85.558-94.335,142.598S60.27,342.654,60.27,394.576
	s7.313,108.96,72.396,108.96s70.202-60.695,70.202-86.29s-2.194-122.854,13.894-201.831S243.819,8.464,134.128,8.464z"/>
<g>
	<path style="fill:#F4C063;" d="M219.331,202.037l-2.662,1.737l-80.666,53.007l-36.075,23.7l-46.035,30.254
		c-3.576-34.101-7.896-71.461-10.795-103.667l19.199-12.623l28.099-18.466l52.578-34.541l80.801-53.086
		C230.104,124.395,225.738,166.696,219.331,202.037z"/>
	<path style="fill:#F4C063;" d="M136.003,256.779l68.809,58.202c1.865-32.173,5.385-67.383,11.945-99.566
		c0.878-4.322,1.744-8.798,2.578-13.382l-2.666,1.744L136.003,256.779z"/>
	<path style="fill:#F4C063;" d="M142.974,141.439L90.396,175.98l-28.099,18.466l-19.199,12.623
		c-1.974-21.94-3.305-41.489-3.305-56.007c0-24.76,6.475-54.879,18.703-81.05l41.117,34.755L142.974,141.439z"/>
</g>
<path style="fill:#D5A03C;" d="M99.928,280.481l-46.035,30.254c-3.576-34.101-7.896-71.461-10.795-103.667
	c-1.974-21.94-3.305-41.489-3.305-56.007c0-24.76,6.475-54.879,18.703-81.05l41.117,34.755c-4.546,18.252-8.438,41.997-9.216,71.213
	C89.607,205.32,91.953,240.154,99.928,280.481z"/>
<path style="fill:#EC589B;" d="M31.346,143.683c25.407-16.09,72.448,36.996,72.448,36.996h56.279c0,0,47.041-53.087,72.448-36.996
	s0,55.894,0,55.894s25.407,39.804,0,55.894c-25.407,16.09-72.448-36.996-72.448-36.996h-56.279c0,0-47.041,53.087-72.448,36.996
	s0-55.894,0-55.894S5.94,159.773,31.346,143.683z"/>
<path d="M499.501,156.758c-1.891-8.493-6.843-15.487-14.322-20.222c-1.73-1.096-3.545-1.972-5.433-2.657
	c-2.288-22.793-8.791-46.508-18.578-67.452C441.154,23.591,411.574,0,377.873,0c-54.133,0-88.016,30.045-97.983,86.883
	c-2.527,14.361-3.554,30.692-3.087,48.589c-0.623,0.331-1.241,0.678-1.85,1.064c-7.479,4.737-12.432,11.729-14.322,20.222
	c-3.633,16.316,4.511,34.404,9.066,42.819c-4.555,8.415-12.699,26.503-9.066,42.819c1.891,8.493,6.843,15.487,14.322,20.222
	c4.77,3.022,9.949,4.31,15.313,4.31c1.436,0,2.889-0.117,4.347-0.293c1.738,15.235,3.127,31.605,4.128,48.836
	c0.315,5.407,0.597,10.985,0.837,16.578c0.196,4.545,3.941,8.097,8.446,8.097c0.123,0,0.247-0.002,0.37-0.008
	c4.669-0.201,8.29-4.148,8.089-8.816c-0.183-4.232-0.388-8.457-0.613-12.607l9.99-8.45c2.611,42.283,2.389,79.625,2.274,98.694
	l-0.01,1.478c-0.019,2.636-0.034,4.918-0.034,6.807c0,22.545,4.68,36.421,8.608,44.091c10.667,20.831,29.44,23.241,42.632,23.241
	c11.811,0,21.47-2.302,28.714-6.843c6.191-3.882,11.032-9.576,14.806-17.417c8.786-18.318,9.913-44.757,9.913-65.744
	c0-9.195,0.589-21.138,1.8-36.512c0.367-4.658-3.111-8.732-7.77-9.099c-4.661-0.371-8.731,3.112-9.098,7.77
	c-1.246,15.821-1.853,28.2-1.853,37.842c0,19.196-0.937,43.184-8.246,58.417c-2.342,4.869-5.137,8.274-8.54,10.41
	c-4.508,2.826-11.145,4.258-19.726,4.258c-17.917,0-23.839-6.745-27.57-14.032c-3.078-6.014-6.748-17.206-6.748-36.379
	c0-1.856,0.016-4.097,0.034-6.689l0.01-1.487c0.127-21.133,0.387-64.444-3.153-112.372l34.733-29.379l46.726,30.705
	c-1.152,10.803-2.502,23.737-3.66,35.905c-0.444,4.651,2.968,8.781,7.62,9.224c0.272,0.026,0.543,0.038,0.812,0.038
	c4.31,0,7.996-3.28,8.412-7.659c0.855-8.981,1.817-18.395,2.725-27.055l9.893,6.501c-3.122,30.178-5.886,60.173-5.886,79.593
	c0,22.102-1.245,50.065-10.96,70.294c-9.897,20.612-26.731,30.212-52.976,30.212c-24.997,0-42-9.469-51.981-28.948
	c-6.477-12.643-9.761-29.09-9.761-48.886c0-2.241,0.017-5.036,0.036-8.323c0.071-11.818,0.179-29.678-0.296-51.133
	c-0.102-4.607-3.869-8.273-8.455-8.273c-0.063,0-0.126,0-0.191,0.002c-4.671,0.103-8.375,3.974-8.271,8.645
	c0.469,21.217,0.362,38.933,0.292,50.656c-0.021,3.328-0.037,6.157-0.037,8.425c0,22.504,3.911,41.548,11.623,56.602
	C325.09,498.806,348.273,512,379.342,512c32.59,0,55.545-13.394,68.229-39.809c11.191-23.308,12.626-53.724,12.626-77.619
	c0-19.796,3.198-53.044,6.326-82.954c1.032-9.841,2.126-19.953,3.227-30.133c0.526-4.86,1.051-9.732,1.575-14.6
	c4.84-0.218,9.518-1.521,13.852-4.266c7.479-4.737,12.432-11.729,14.322-20.222c3.633-16.316-4.511-34.404-9.066-42.819
	C494.99,191.161,503.135,173.074,499.501,156.758z M377.873,16.921c14.865,0,42.559,6.801,65.126,50.891l-8.279,7.001
	c-14.851-30.271-35.198-47.389-56.848-47.389c-12.925,0-24.264,2.132-33.699,6.337c-4.268,1.903-6.185,6.904-4.284,11.172
	c1.903,4.269,6.907,6.184,11.171,4.283c7.254-3.233,16.275-4.872,26.812-4.872c15.505,0,31.519,15.495,43.48,41.772L368.394,130.9
	l-45.786-30.083c1.741-13.309,4.901-24.372,9.421-32.927c2.184-4.131,0.604-9.25-3.527-11.433c-4.13-2.183-9.249-0.604-11.433,3.527
	c-4.481,8.479-7.822,18.749-9.989,30.632l-9.47-6.222C307.193,39.014,333.49,16.921,377.873,16.921z M451.164,296.047
	l-99.249-65.221c1.463-1.482,2.719-2.796,3.742-3.891h48.82c7.704,8.241,28.75,29.196,50.148,36.996
	c-0.563,5.247-1.127,10.496-1.693,15.733C452.337,285.158,451.746,290.626,451.164,296.047z M360.387,210.015v-20.875h39.358v20.875
	H360.387z M355.657,172.219c-9.147-9.782-37.032-37.432-61.998-39.824c-0.185-10.546,0.194-20.442,1.13-29.609l105.68,69.433
	H355.657z M284.005,248.324c-2.608-1.651-10.544-6.677-5.957-24.358c1.659-6.398,4.414-12.26,6.351-15.929h23.604
	c4.673,0,8.46-3.788,8.46-8.46s-3.787-8.46-8.46-8.46H284.4c-1.938-3.672-4.692-9.532-6.351-15.929
	c-4.585-17.68,3.35-22.705,5.957-24.358c13.868-8.777,44.63,17.196,59.461,33.127v31.244
	C328.647,231.144,297.906,257.127,284.005,248.324z M314.515,297.701c-0.942-12.587-2.094-24.659-3.446-36.081
	c10.191-4.748,20.034-11.996,28.112-18.914l22.71,14.923L314.515,297.701z M476.126,248.324
	c-13.864,8.778-44.626-17.194-59.461-33.127V183.99c3.462-3.664,10.84-11.153,19.74-18.293c3.645-2.924,4.229-8.249,1.304-11.893
	c-2.924-3.644-8.249-4.229-11.893-1.304c-3.874,3.108-7.447,6.245-10.605,9.16l-32.071-21.071l67.09-56.732
	c6.141,15.61,10.478,32.714,12.394,49.019c-4.71,0.898-9.718,2.645-15.021,5.275c-4.186,2.076-5.897,7.152-3.822,11.338
	s7.153,5.897,11.339,3.822c9.274-4.598,16.341-5.432,21.005-2.477c2.608,1.651,10.544,6.677,5.957,24.357
	c-1.659,6.398-4.414,12.261-6.351,15.929h-23.602c-4.673,0-8.46,3.788-8.46,8.46c0,4.672,3.787,8.46,8.46,8.46h23.603
	c1.938,3.672,4.691,9.532,6.351,15.929C486.67,241.646,478.734,246.673,476.126,248.324z"/>
<path d="M251.37,156.758c-1.891-8.493-6.843-15.487-14.322-20.222c-0.61-0.386-1.228-0.734-1.851-1.065
	c0.468-17.894-0.558-34.224-3.085-48.585C222.143,30.045,188.262,0,134.128,0c-33.701,0-63.283,23.591-83.297,66.427
	c-9.787,20.943-16.289,44.659-18.577,67.452c-1.887,0.685-3.703,1.56-5.434,2.657c-7.479,4.737-12.431,11.729-14.322,20.222
	c-3.632,16.316,4.511,34.404,9.066,42.819c-4.555,8.415-12.698,26.503-9.066,42.819c1.891,8.493,6.843,15.487,14.322,20.223
	c4.336,2.746,9.01,4.049,13.852,4.265c0.528,4.91,1.058,9.824,1.588,14.725c1.096,10.139,2.186,20.209,3.214,30.006
	c3.128,29.913,6.327,63.161,6.327,82.957c0,23.895,1.435,54.311,12.627,77.619c12.684,26.415,35.639,39.809,68.229,39.809
	c31.07,0,54.252-13.194,67.039-38.153c7.712-15.053,11.623-34.096,11.623-56.602c0-2.267-0.017-5.093-0.037-8.417
	c-0.071-11.724-0.178-29.442,0.292-50.662c0.104-4.672-3.6-8.543-8.271-8.646c-4.695-0.116-8.543,3.6-8.646,8.271
	c-0.476,21.46-0.368,39.321-0.297,51.141c0.02,3.284,0.037,6.076,0.037,8.316c0,19.796-3.285,36.244-9.761,48.886
	c-9.98,19.479-26.983,28.948-51.981,28.948c-26.245,0-43.079-9.601-52.976-30.212c-9.714-20.23-10.96-48.193-10.96-70.294
	c0-19.419-2.764-49.411-5.886-79.592l9.893-6.501c0.908,8.66,1.87,18.073,2.725,27.055c0.417,4.379,4.102,7.659,8.413,7.659
	c0.268,0,0.54-0.012,0.812-0.038c4.652-0.443,8.063-4.573,7.62-9.224c-1.16-12.168-2.51-25.102-3.66-35.905l46.726-30.705
	l34.733,29.379c-3.541,47.941-3.28,91.244-3.153,112.379l0.01,1.481c0.018,2.591,0.034,4.834,0.034,6.689
	c0,19.173-3.67,30.366-6.748,36.379c-3.732,7.288-9.655,14.032-27.57,14.032c-8.581,0-15.218-1.433-19.725-4.257
	c-3.406-2.135-6.2-5.54-8.537-10.401c-7.312-15.242-8.25-39.23-8.25-58.426c0-9.65-0.606-22.028-1.852-37.842
	c-0.368-4.659-4.455-8.143-9.099-7.769c-4.658,0.367-8.137,4.441-7.769,9.099c1.212,15.367,1.8,27.31,1.8,36.512
	c0,20.987,1.127,47.426,9.919,65.752c3.768,7.832,8.608,13.526,14.802,17.41c7.243,4.54,16.904,6.842,28.713,6.842
	c13.192,0,31.965-2.409,42.632-23.241c3.927-7.67,8.608-21.546,8.608-44.091c0-1.887-0.016-4.169-0.034-6.807l-0.01-1.472
	c-0.115-19.073-0.338-56.41,2.274-98.702l9.991,8.451c-0.224,4.149-0.431,8.372-0.614,12.606c-0.201,4.668,3.42,8.616,8.088,8.817
	c0.124,0.005,0.248,0.008,0.371,0.008c4.505,0,8.25-3.551,8.447-8.096c0.241-5.596,0.523-11.176,0.837-16.581
	c0.999-17.225,2.388-33.595,4.127-48.835c1.459,0.176,2.911,0.293,4.347,0.293c5.362,0,10.545-1.29,15.313-4.31
	c7.479-4.737,12.431-11.729,14.322-20.222c3.632-16.316-4.511-34.404-9.066-42.819C246.859,191.161,255.002,173.074,251.37,156.758z
	 M60.836,296.047c-0.578-5.38-1.164-10.807-1.754-16.257c-0.571-5.278-1.138-10.57-1.706-15.858
	c21.398-7.8,42.444-28.755,50.148-36.996h48.819c1.023,1.094,2.279,2.408,3.742,3.891L60.836,296.047z M112.255,210.015v-20.875
	h39.357v20.875H112.255z M156.341,172.219H111.53l105.681-69.433c0.936,9.166,1.315,19.063,1.129,29.608
	C193.374,134.786,165.489,162.435,156.341,172.219z M134.128,16.921c44.382,0,70.678,22.093,80.261,67.474l-9.471,6.222
	c-2.166-11.881-5.507-22.15-9.989-30.632c-2.184-4.131-7.303-5.711-11.433-3.527c-4.131,2.184-5.711,7.302-3.527,11.433
	c4.522,8.556,7.682,19.62,9.423,32.927l-45.785,30.081L90.648,86.116c11.962-26.278,27.975-41.772,43.48-41.772
	c10.536,0,19.556,1.639,26.81,4.872c4.271,1.902,9.27-0.016,11.172-4.283c1.902-4.269-0.016-9.269-4.283-11.172
	c-9.436-4.205-20.774-6.337-33.699-6.337c-21.649,0-41.998,17.118-56.848,47.389l-8.279-7.001
	C91.568,23.722,119.262,16.921,134.128,16.921z M29.915,223.967c1.659-6.398,4.414-12.26,6.351-15.929H59.87
	c4.672,0,8.46-3.788,8.46-8.46s-3.788-8.46-8.46-8.46H36.227c-3.967-7.478-9.418-20.775-7.213-30.682
	c0.93-4.178,3.109-7.231,6.86-9.605c4.664-2.954,11.732-2.121,21.006,2.478c4.185,2.076,9.262,0.365,11.338-3.822
	c2.076-4.186,0.365-9.262-3.822-11.338c-5.302-2.629-10.31-4.376-15.02-5.274c1.915-16.305,6.253-33.41,12.394-49.02l67.09,56.732
	l-32.072,21.072c-3.157-2.915-6.73-6.052-10.604-9.16c-3.646-2.925-8.97-2.341-11.893,1.304c-2.924,3.644-2.341,8.969,1.304,11.893
	c8.899,7.142,16.279,14.631,19.74,18.293v31.211c-14.818,15.943-45.557,41.925-59.461,33.123
	C33.266,246.673,25.33,241.646,29.915,223.967z M197.483,297.701l-47.374-40.071l22.709-14.923
	c8.078,6.918,17.922,14.166,28.113,18.914C199.577,273.045,198.425,285.116,197.483,297.701z M234.853,238.719
	c-0.93,4.178-3.109,7.231-6.858,9.605c-13.867,8.781-44.627-17.192-59.461-33.126v-31.24c14.835-15.935,45.595-41.909,59.461-33.127
	c2.608,1.651,10.543,6.677,5.957,24.357c-1.659,6.398-4.414,12.261-6.351,15.929h-23.604c-4.672,0-8.46,3.788-8.46,8.46
	s3.788,8.46,8.46,8.46h23.644C231.608,215.515,237.058,228.813,234.853,238.719z"/>
</svg>