<?xml version="1.0" encoding="iso-8859-1"?>
<!-- Generator: Adobe Illustrator 19.0.0, SVG Export Plug-In . SVG Version: 6.00 Build 0)  -->
<svg version="1.1" id="Layer_1" xmlns="http://www.w3.org/2000/svg" xmlns:xlink="http://www.w3.org/1999/xlink" x="0px" y="0px"
	 viewBox="0 0 512 512" style="enable-background:new 0 0 512 512;" xml:space="preserve">
<path style="fill:#8C6239;" d="M454.943,80.917c-5.313-2.018-10.256-5.138-14.489-9.371s-7.353-9.175-9.371-14.489L194.366,293.774
	l23.86,23.861L454.943,80.917z"/>
<path style="fill:#39B54A;" d="M151.558,250.966c-13.212-12.037-33.551-11.564-46.188,1.074l-95.171,95.171l154.589,154.589
	l95.171-95.171c12.638-12.638,13.111-32.977,1.074-46.188L151.558,250.966z"/>
<path d="M155.826,417.373c2.611,0,5.22-0.996,7.212-2.987l5.809-5.809c1.991-1.992,2.987-4.602,2.987-7.212s-0.996-5.22-2.987-7.212
	c-3.984-3.982-10.44-3.982-14.425,0l-5.809,5.809c-1.991,1.992-2.987,4.602-2.987,7.212s0.996,5.22,2.987,7.212
	C150.606,416.376,153.216,417.373,155.826,417.373z"/>
<path d="M103.425,343.15l-5.81,5.81c-1.991,1.992-2.987,4.602-2.987,7.212c0,2.61,0.996,5.22,2.987,7.212
	c1.992,1.991,4.602,2.987,7.212,2.987c2.61,0,5.22-0.996,7.212-2.987l5.81-5.81c1.991-1.992,2.987-4.602,2.987-7.212
	c0-2.61-0.996-5.22-2.987-7.212C113.865,339.168,107.409,339.168,103.425,343.15z"/>
<path d="M509.013,64.188L447.812,2.987c-3.984-3.982-10.44-3.982-14.425,0c-13.559,13.559-18.692,33.076-13.941,51.282
	L194.366,279.35l-35.595-35.595c-0.112-0.111-0.226-0.221-0.344-0.327c-17.273-15.735-43.746-15.121-60.27,1.401l-95.17,95.171
	c-3.983,3.983-3.983,10.441,0,14.425l154.588,154.588c1.992,1.991,4.602,2.987,7.212,2.987c2.61,0,5.22-0.996,7.212-2.987
	l95.172-95.171c16.522-16.524,17.138-42.997,1.401-60.27c-0.106-0.117-0.216-0.232-0.327-0.344l-35.595-35.595L457.735,92.55
	c4.452,1.161,8.979,1.744,13.481,1.744c13.91,0,27.554-5.44,37.797-15.682C512.996,74.629,512.996,68.171,509.013,64.188z
	 M252.747,399.418l-87.959,87.959l-11.57-11.57l18.123-18.123c1.991-1.992,2.987-4.602,2.987-7.212c0-2.61-0.996-5.22-2.987-7.212
	c-3.984-3.982-10.44-3.982-14.425,0l-18.123,18.123l-11.376-11.376l18.123-18.123c1.991-1.992,2.987-4.602,2.987-7.212
	c0-2.61-0.996-5.22-2.987-7.212c-3.984-3.982-10.44-3.982-14.425,0l-18.123,18.123l-10.774-10.774l18.123-18.123
	c1.991-1.992,2.987-4.602,2.987-7.212c0-2.61-0.996-5.22-2.987-7.212c-3.984-3.982-10.44-3.982-14.425,0l-18.123,18.123
	l-11.376-11.376l18.123-18.124c1.991-1.992,2.987-4.603,2.987-7.212c0-2.611-0.996-5.22-2.987-7.212
	c-3.984-3.982-10.44-3.982-14.425,0l-18.123,18.124l-11.376-11.376l18.124-18.123c1.991-1.992,2.987-4.602,2.987-7.212
	c0-2.61-0.996-5.22-2.987-7.212c-3.983-3.981-10.439-3.982-14.425,0l-18.124,18.123l-11.569-11.569l87.959-87.959
	c8.751-8.749,22.743-9.125,31.947-0.891l109.11,109.11C261.873,376.675,261.498,390.667,252.747,399.418z M438.396,83.04
	L218.35,303.084l-9.435-9.435L428.96,73.603l0.003-0.022c1.366,1.753,2.832,3.439,4.424,5.032c1.593,1.592,3.277,3.058,5.03,4.422
	L438.396,83.04z M458.77,71.463L458.77,71.463c-4.104-1.661-7.792-4.108-10.957-7.274c-3.167-3.167-5.615-6.855-7.276-10.959
	c-3.673-9.073-3.103-19.073,1.196-27.475l44.511,44.512C477.844,74.563,467.841,75.136,458.77,71.463z"/>
<g>
</g>
<g>
</g>
<g>
</g>
<g>
</g>
<g>
</g>
<g>
</g>
<g>
</g>
<g>
</g>
<g>
</g>
<g>
</g>
<g>
</g>
<g>
</g>
<g>
</g>
<g>
</g>
<g>
</g>
</svg>
