<?xml version="1.0" encoding="utf-8"?>
<!-- Uploaded to: SVG Repo, www.svgrepo.com, Generator: SVG Repo Mixer Tools -->
<svg fill="#000000" width="800px" height="800px" viewBox="0 0 32 32" version="1.1" xmlns="http://www.w3.org/2000/svg">
<title>border-left</title>
<path d="M10.38 2.12c-0.112-0.115-0.245-0.209-0.392-0.277l-0.008-0.003c-0.142-0.057-0.307-0.090-0.48-0.090s-0.338 0.033-0.489 0.093l0.009-0.003c-0.155 0.071-0.288 0.165-0.399 0.28l-0 0c-0.113 0.113-0.207 0.245-0.277 0.391l-0.004 0.009c-0.051 0.136-0.080 0.292-0.080 0.456 0 0.009 0 0.017 0 0.026l-0-0.001c-0 0.007-0 0.016-0 0.024 0 0.163 0.029 0.32 0.083 0.465l-0.003-0.009c0.074 0.155 0.168 0.287 0.28 0.4l-0-0c0.112 0.115 0.244 0.209 0.391 0.276l0.008 0.003c0.141 0.064 0.306 0.101 0.48 0.101s0.339-0.037 0.488-0.104l-0.008 0.003c0.156-0.071 0.288-0.165 0.4-0.279l0-0c0.119-0.109 0.214-0.243 0.277-0.393l0.003-0.007c0.059-0.141 0.096-0.306 0.101-0.478l0-0.002c-0.005-0.174-0.041-0.339-0.104-0.49l0.003 0.009c-0.065-0.158-0.16-0.291-0.278-0.399l-0.001-0.001zM4.26 9c0-0.015-0.009-0.031-0.010-0.047v-5.953h-0.011c0-0.007 0-0.016 0-0.025 0-0.164-0.029-0.32-0.083-0.465l0.003 0.009c-0.073-0.154-0.166-0.287-0.279-0.399v0c-0.112-0.115-0.245-0.209-0.392-0.277l-0.008-0.003c-0.137-0.055-0.296-0.087-0.463-0.087-0.695 0-1.26 0.555-1.277 1.245l-0 0.002c0 0.017 0.010 0.034 0.011 0.051v19.898c-0.001 0.017-0.011 0.033-0.011 0.050s0.010 0.033 0.011 0.050v5.899c-0.001 0.017-0.011 0.033-0.011 0.050 0.005 0.174 0.041 0.339 0.104 0.489l-0.003-0.009c0.071 0.155 0.166 0.287 0.28 0.398l0 0c0.219 0.223 0.524 0.361 0.861 0.361 0.007 0 0.014-0 0.020-0h-0.001c0.005 0 0.012 0 0.018 0 0.337 0 0.643-0.138 0.862-0.361l0-0c0.114-0.112 0.208-0.244 0.276-0.39l0.003-0.008c0.059-0.142 0.096-0.306 0.101-0.479l0-0.002c0-0.016-0.009-0.030-0.010-0.046v-5.907c0.001-0.016 0.010-0.030 0.010-0.047s-0.009-0.030-0.010-0.046v-6.907c0.001-0.015 0.010-0.031 0.010-0.046s-0.009-0.031-0.010-0.047v-6.907c0.001-0.016 0.010-0.030 0.010-0.046zM8.62 16.88c0.113 0.113 0.245 0.207 0.391 0.276l0.008 0.004c0.136 0.051 0.292 0.080 0.456 0.080 0.009 0 0.017-0 0.026-0l-0.001 0c0.010 0 0.022 0 0.033 0 0.332 0 0.632-0.138 0.846-0.36l0-0c0.124-0.106 0.219-0.24 0.277-0.394l0.002-0.007c0.051-0.136 0.080-0.292 0.080-0.456 0-0.008-0-0.017-0-0.025l0 0.001c0-0.010 0.001-0.022 0.001-0.035 0-0.332-0.138-0.632-0.36-0.845l-0-0c-0.229-0.228-0.545-0.37-0.893-0.37-0.168 0-0.329 0.033-0.475 0.092l0.008-0.003c-0.154 0.073-0.286 0.167-0.399 0.28l0-0c-0.223 0.214-0.361 0.514-0.361 0.847 0 0.012 0 0.023 0.001 0.035l-0-0.002c-0 0.007-0 0.016-0 0.024 0 0.163 0.029 0.32 0.083 0.465l-0.003-0.009c0.060 0.16 0.156 0.295 0.279 0.399l0.001 0.001zM10.38 28.119c-0.228-0.218-0.538-0.352-0.88-0.352s-0.652 0.134-0.88 0.353l0.001-0c-0.124 0.106-0.22 0.24-0.278 0.394l-0.002 0.007c-0.051 0.143-0.080 0.308-0.080 0.48s0.029 0.337 0.083 0.491l-0.003-0.010c0.071 0.155 0.165 0.287 0.28 0.398l0 0c0.226 0.223 0.537 0.361 0.88 0.361s0.654-0.138 0.88-0.361l-0 0c0.114-0.112 0.208-0.244 0.276-0.39l0.003-0.008c0.064-0.141 0.101-0.307 0.101-0.48s-0.037-0.339-0.104-0.488l0.003 0.008c-0.060-0.16-0.156-0.295-0.278-0.399l-0.001-0.001zM15.12 3.88c0.112 0.115 0.244 0.209 0.391 0.276l0.008 0.003c0.141 0.064 0.306 0.101 0.48 0.101s0.339-0.037 0.488-0.104l-0.008 0.003c0.156-0.071 0.288-0.165 0.4-0.279l0-0c0.113-0.113 0.206-0.246 0.276-0.392l0.004-0.009c0.051-0.135 0.080-0.292 0.080-0.456 0-0.008-0-0.017-0-0.025l0 0.001c0-0.010 0-0.022 0-0.035 0-0.332-0.138-0.632-0.36-0.845l-0-0c-0.106-0.124-0.24-0.22-0.394-0.278l-0.007-0.002c-0.138-0.057-0.299-0.089-0.467-0.089-0.349 0-0.664 0.141-0.893 0.37v0c-0.223 0.214-0.361 0.514-0.361 0.847 0 0.012 0 0.023 0.001 0.035l-0-0.002c-0 0.007-0 0.016-0 0.024 0 0.163 0.029 0.32 0.083 0.465l-0.003-0.009c0.074 0.155 0.168 0.287 0.28 0.4l-0-0zM23.379 2.12c-0.228-0.228-0.544-0.37-0.893-0.37-0.168 0-0.329 0.033-0.475 0.093l0.008-0.003c-0.16 0.060-0.295 0.156-0.399 0.279l-0.001 0.001c-0.114 0.112-0.208 0.244-0.276 0.391l-0.003 0.008c-0.059 0.142-0.095 0.306-0.1 0.479l-0 0.002c0.004 0.174 0.041 0.338 0.103 0.489l-0.003-0.009c0.066 0.157 0.161 0.291 0.279 0.4l0.001 0.001c0.106 0.124 0.24 0.22 0.394 0.277l0.007 0.002c0.142 0.059 0.306 0.096 0.479 0.101l0.002 0c0.346-0.002 0.657-0.147 0.878-0.379l0-0.001c0.12-0.109 0.215-0.243 0.279-0.393l0.003-0.007c0.058-0.142 0.094-0.306 0.1-0.477l0-0.002c-0.005-0.174-0.041-0.339-0.103-0.49l0.003 0.009c-0.071-0.155-0.166-0.288-0.281-0.399l-0-0zM15.12 9.88c0.112 0.115 0.244 0.209 0.391 0.276l0.008 0.003c0.141 0.064 0.306 0.101 0.48 0.101s0.339-0.037 0.488-0.104l-0.008 0.003c0.156-0.071 0.288-0.165 0.4-0.279l0-0c0.113-0.113 0.206-0.246 0.276-0.392l0.004-0.009c0.051-0.143 0.080-0.308 0.080-0.48s-0.029-0.337-0.083-0.49l0.003 0.010c-0.073-0.154-0.166-0.287-0.279-0.399v0c-0.112-0.115-0.245-0.209-0.392-0.277l-0.008-0.003c-0.142-0.057-0.307-0.090-0.48-0.090s-0.338 0.033-0.489 0.093l0.009-0.003c-0.155 0.071-0.288 0.165-0.399 0.28l-0 0c-0.113 0.113-0.207 0.245-0.277 0.391l-0.004 0.009c-0.051 0.143-0.080 0.308-0.080 0.48s0.029 0.337 0.083 0.49l-0.003-0.010c0.074 0.155 0.168 0.287 0.28 0.4l-0-0zM15.12 16.88c0.214 0.222 0.513 0.36 0.845 0.36 0.012 0 0.024-0 0.036-0.001l-0.002 0c0.007 0 0.016 0 0.024 0 0.163 0 0.32-0.029 0.465-0.083l-0.009 0.003c0.301-0.141 0.538-0.378 0.676-0.671l0.004-0.009c0.051-0.136 0.080-0.292 0.080-0.456 0-0.008-0-0.017-0-0.025l0 0.001c0-0.010 0-0.022 0-0.035 0-0.332-0.138-0.632-0.36-0.845l-0-0c-0.106-0.124-0.24-0.22-0.394-0.278l-0.007-0.002c-0.136-0.053-0.293-0.083-0.458-0.083-0.35 0-0.668 0.139-0.902 0.364l0-0c-0.223 0.214-0.361 0.514-0.361 0.847 0 0.012 0 0.023 0.001 0.035l-0-0.002c-0 0.007-0 0.016-0 0.024 0 0.163 0.029 0.32 0.083 0.465l-0.003-0.009c0.060 0.16 0.156 0.295 0.279 0.399l0.001 0.001zM16.88 22.119c-0.226-0.223-0.537-0.36-0.88-0.36s-0.654 0.138-0.88 0.36l0-0c-0.124 0.106-0.22 0.24-0.278 0.394l-0.002 0.007c-0.051 0.136-0.080 0.292-0.080 0.456 0 0.009 0 0.017 0 0.026l-0-0.001c-0 0.006-0 0.012-0 0.019 0 0.337 0.138 0.641 0.36 0.86l0 0c0.222 0.233 0.534 0.379 0.879 0.381h0c0.174-0.005 0.338-0.041 0.489-0.103l-0.009 0.003c0.158-0.066 0.291-0.161 0.4-0.28l0.001-0.001c0.229-0.224 0.374-0.534 0.38-0.878l0-0.001c-0.005-0.174-0.041-0.339-0.104-0.489l0.003 0.009c-0.060-0.16-0.156-0.295-0.278-0.399l-0.001-0.001zM16.48 27.84c-0.138-0.056-0.299-0.089-0.467-0.089-0.348 0-0.664 0.141-0.893 0.368l0-0c-0.124 0.106-0.22 0.24-0.278 0.394l-0.002 0.007c-0.051 0.136-0.080 0.292-0.080 0.456 0 0.009 0 0.017 0 0.026l-0-0.001c0.002 0.685 0.558 1.24 1.244 1.24 0.342 0 0.652-0.138 0.877-0.361l-0 0c0.114-0.112 0.208-0.244 0.276-0.39l0.003-0.008c0.059-0.142 0.096-0.306 0.1-0.479l0-0.002c-0.006-0.346-0.15-0.656-0.38-0.881l-0-0c-0.11-0.119-0.243-0.213-0.393-0.276l-0.007-0.003zM21.619 15.12c-0.235 0.229-0.381 0.549-0.381 0.903 0 0.696 0.565 1.261 1.261 1.261s1.261-0.565 1.261-1.261c0-0.354-0.146-0.674-0.381-0.903l-0-0c-0.23-0.214-0.54-0.346-0.88-0.346s-0.65 0.132-0.881 0.346l0.001-0.001zM23.379 28.119c-0.229-0.228-0.544-0.368-0.893-0.368-0.168 0-0.328 0.033-0.475 0.092l0.008-0.003c-0.301 0.141-0.538 0.378-0.676 0.671l-0.004 0.009c-0.063 0.142-0.1 0.307-0.1 0.48s0.037 0.339 0.103 0.488l-0.003-0.008c0.072 0.154 0.166 0.286 0.279 0.398l0 0c0.109 0.12 0.243 0.215 0.393 0.279l0.007 0.003c0.138 0.051 0.297 0.080 0.463 0.080 0.006 0 0.012-0 0.018-0h-0.001c0.005 0 0.012 0 0.018 0 0.337 0 0.642-0.138 0.861-0.361l0-0c0.115-0.112 0.21-0.244 0.278-0.39l0.003-0.008c0.051-0.143 0.080-0.308 0.080-0.48s-0.029-0.337-0.083-0.491l0.003 0.010c-0.060-0.16-0.157-0.295-0.28-0.399l-0.001-0.001zM28.119 3.88c0.224 0.229 0.535 0.374 0.88 0.38l0.001 0c0.174-0.005 0.339-0.041 0.489-0.104l-0.009 0.003c0.157-0.066 0.29-0.16 0.398-0.278l0.001-0.001c0.223-0.226 0.361-0.537 0.361-0.88s-0.138-0.654-0.361-0.88l0 0c-0.109-0.119-0.241-0.214-0.391-0.278l-0.007-0.003c-0.138-0.056-0.298-0.088-0.465-0.088-0.695 0-1.26 0.555-1.275 1.246l-0 0.001c0.004 0.174 0.041 0.338 0.103 0.489l-0.003-0.009c0.066 0.157 0.161 0.291 0.279 0.4l0.001 0.001zM29.48 7.84c-0.142-0.057-0.308-0.090-0.48-0.090s-0.338 0.033-0.489 0.093l0.009-0.003c-0.16 0.060-0.295 0.156-0.399 0.279l-0.001 0.001c-0.234 0.221-0.379 0.534-0.379 0.88s0.145 0.659 0.378 0.879l0.001 0.001c0.224 0.229 0.535 0.374 0.88 0.38l0.001 0c0.174-0.005 0.339-0.041 0.489-0.104l-0.009 0.003c0.157-0.066 0.29-0.16 0.398-0.278l0.001-0.001c0.223-0.226 0.361-0.537 0.361-0.88s-0.138-0.654-0.361-0.88l0 0c-0.105-0.124-0.239-0.22-0.392-0.278l-0.007-0.002zM29.48 14.84c-0.142-0.057-0.308-0.090-0.48-0.090s-0.338 0.033-0.489 0.093l0.009-0.003c-0.16 0.060-0.295 0.156-0.399 0.279l-0.001 0.001c-0.232 0.222-0.377 0.534-0.379 0.88v0c0.004 0.174 0.041 0.338 0.103 0.489l-0.003-0.009c0.066 0.157 0.161 0.291 0.279 0.4l0.001 0.001c0.224 0.229 0.535 0.374 0.88 0.38l0.001 0c0.174-0.005 0.339-0.041 0.489-0.104l-0.009 0.003c0.157-0.066 0.29-0.16 0.398-0.278l0.001-0.001c0.223-0.226 0.361-0.537 0.361-0.88s-0.138-0.654-0.361-0.88l0 0c-0.105-0.124-0.239-0.22-0.392-0.278l-0.007-0.002zM29.48 21.84c-0.142-0.057-0.308-0.091-0.48-0.091s-0.338 0.033-0.489 0.094l0.009-0.003c-0.301 0.141-0.538 0.378-0.676 0.671l-0.004 0.009c-0.059 0.142-0.095 0.306-0.1 0.479l-0 0.002c0.002 0.346 0.147 0.657 0.378 0.878l0 0c0.22 0.223 0.525 0.361 0.863 0.361 0.006 0 0.013-0 0.019-0h-0.001c0.005 0 0.011 0 0.017 0 0.166 0 0.325-0.029 0.473-0.083l-0.010 0.003c0.155-0.072 0.287-0.166 0.398-0.281l0-0c0.223-0.219 0.361-0.524 0.361-0.861 0-0.006-0-0.013-0-0.019v0.001c0-0.001 0-0.003 0-0.005 0-0.342-0.138-0.652-0.361-0.876l0 0c-0.106-0.123-0.24-0.218-0.392-0.277l-0.007-0.002zM29.48 27.84c-0.142-0.057-0.308-0.091-0.48-0.091s-0.338 0.033-0.489 0.094l0.009-0.003c-0.301 0.141-0.538 0.378-0.676 0.671l-0.004 0.009c-0.059 0.142-0.095 0.306-0.1 0.479l-0 0.002c0.002 0.346 0.147 0.657 0.378 0.878l0 0c0.22 0.223 0.525 0.361 0.863 0.361 0.006 0 0.013-0 0.019-0h-0.001c0.005 0 0.011 0 0.017 0 0.166 0 0.325-0.029 0.473-0.083l-0.010 0.003c0.299-0.145 0.535-0.381 0.676-0.671l0.004-0.009c0.051-0.138 0.080-0.297 0.080-0.463 0-0.006-0-0.012-0-0.018v0.001c0-0.001 0-0.003 0-0.005 0-0.342-0.138-0.652-0.361-0.876l0 0c-0.106-0.123-0.239-0.218-0.392-0.277l-0.007-0.002z"></path>
</svg>