<?xml version="1.0" encoding="utf-8"?><!-- Uploaded to: SVG Repo, www.svgrepo.com, Generator: SVG Repo Mixer Tools -->
<svg width="800px" height="800px" viewBox="0 0 400 400" fill="none" xmlns="http://www.w3.org/2000/svg">
<path d="M213.927 33.205C281.125 -4.29773 262.859 116.426 217.457 86.1564C205.593 78.2466 203.335 65.535 203.335 52.6197" stroke="#000000" stroke-opacity="0.9" stroke-width="16" stroke-linecap="round" stroke-linejoin="round"/>
<path d="M203.925 112.632C193.845 143.492 177.565 172.207 157.447 197.355" stroke="#000000" stroke-opacity="0.9" stroke-width="16" stroke-linecap="round" stroke-linejoin="round"/>
<path d="M163.91 195.59C218.331 214.575 252.664 258.974 240.395 320.318" stroke="#000000" stroke-opacity="0.9" stroke-width="16" stroke-linecap="round" stroke-linejoin="round"/>
<path d="M164.496 196.766C187.718 240.556 167.802 284.568 148.61 326.789" stroke="#000000" stroke-opacity="0.9" stroke-width="16" stroke-linecap="round" stroke-linejoin="round"/>
<path d="M203.415 111.899C191.765 158.062 204.022 188.513 244.011 212.505" stroke="#000000" stroke-opacity="0.9" stroke-width="16" stroke-linecap="round" stroke-linejoin="round"/>
<path d="M190.979 47.9141C168.624 58.4693 172.639 87.4366 155.68 104.395" stroke="#000000" stroke-opacity="0.9" stroke-width="16" stroke-linecap="round" stroke-linejoin="round"/>
<path d="M189.799 52.6194C185.509 79.7911 192.956 91.2472 164.5 102.63" stroke="#000000" stroke-opacity="0.9" stroke-width="16" stroke-linecap="round" stroke-linejoin="round"/>
<path d="M109.201 337.38C164.561 355.032 235.605 341.986 291 330.907" stroke="#000000" stroke-opacity="0.5" stroke-width="16" stroke-linecap="round" stroke-linejoin="round"/>
<path d="M140.372 357.97C174.628 355.323 122.991 392.53 134.488 360.913" stroke="#000000" stroke-opacity="0.9" stroke-width="16" stroke-linecap="round" stroke-linejoin="round"/>
<path d="M252.164 359.15C290.698 360.444 218.395 389.756 245.691 358.561" stroke="#000000" stroke-opacity="0.9" stroke-width="16" stroke-linecap="round" stroke-linejoin="round"/>
</svg>