<?xml version="1.0" encoding="iso-8859-1"?>
<!-- Uploaded to: SVG Repo, www.svgrepo.com, Generator: SVG Repo Mixer Tools -->
<svg height="800px" width="800px" version="1.1" id="Layer_1" xmlns="http://www.w3.org/2000/svg" xmlns:xlink="http://www.w3.org/1999/xlink" 
	 viewBox="0 0 448.132 448.132" xml:space="preserve">
<g transform="translate(0 -1020.36)">
	<g shape-rendering="auto" image-rendering="auto" color-rendering="auto" color-interpolation="sRGB">
		<path style="fill:#5A3392;" d="M96.506,1060.712l-9.563,15.469H58.006c-13.147-0.004-23.949,10.82-23.969,23.969l-0.374,210.813
			H50.1v21.75c-14.68-0.16-28.131,0.16-42.625,0.16c-10.425,0.688-9.725,16.229,0.718,15.969c139.099,0.002,278.228,0,417.344,0
			c10.596-0.16,10.596-15.951,0-16.063h-42.937c-10.077-39.182-30.862-65.314-54.75-81.656
			c-26.503-18.129-56.311-24.756-79.375-26.938c-17.595-1.662-32.397-13.951-33.656-30.594l-8.5-111
			c-0.914-12.09-11.032-21.605-23.156-21.625L96.506,1060.712z"/>
		<path style="fill:#EE746C;" d="M105.462,1076.729l77.625,0.16c3.913,0.008,7.018,2.975,7.313,6.875l3.096,40.969H137.59
			c-21.997,0-39.907,18.033-39.907,40.031c0.423,18.992,13.343,39.686,39.907,39.938h63.125
			c6.123,19.939,25.319,33.459,46.25,35.438c21.325,2.014,48.462,8.215,71.812,24.188c20.279,13.871,38.019,34.943,47.438,68.406
			H49.621l0.363-232.563c0.007-4.51,3.526-7.906,8.031-7.906h37.906l9.563-15.5L105.462,1076.729z"/>
		<path style="fill:#29A3EC;" d="M141.286,1143.237h54.144l3.405,47.938h-57.55c-12.653,0-22.718-10.621-22.718-23.969
			c0-13.35,10.064-23.969,22.718-23.969H141.286z"/>
		<path style="fill:#FB9761;" d="M113.387,1086.63l71.621,0.16c3.61,0.008,6.475,2.746,6.747,6.344l2.854,37.801h-51.582
			c-20.295,0-36.82,16.639-36.82,36.934c0.363,17.523,12.311,36.615,36.82,36.85h58.242c5.648,18.396,23.361,30.871,42.673,32.695
			c19.675,1.855,44.713,7.58,66.257,22.316c18.71,12.797,35.078,32.24,43.769,63.115H61.862l0.363-214.574
			c0.006-4.162,3.253-7.295,7.41-7.295h34.974l8.823-14.303L113.387,1086.63z"/>
		<path style="fill:#3CDEF6;" d="M143.82,1146.725h46.266l2.909,38.488h-49.177c-10.811,0-19.413-8.527-19.413-19.244
			s8.6-19.244,19.413-19.244H143.82z"/>
	</g>
	<path style="fill:#FFFFFF;" d="M154.291,1165.968c0,4.418-3.582,8-8,8c0,0,0,0-0.001,0c-4.418,0-8-3.582-8-8s3.582-8,8-8
		C150.709,1157.968,154.291,1161.55,154.291,1165.968L154.291,1165.968z"/>
	<g shape-rendering="auto" image-rendering="auto" color-rendering="auto" color-interpolation="sRGB">
		<g>
			<path style="fill:#5A3392;" d="M96.57,1060.68l-9.563,15.469H57.945c-13.147,0-23.95,10.822-23.969,23.969l-0.312,210.844h16.063
				l0.312-210.844c0.007-4.506,3.397-8.031,7.906-8.031h38.031l9.438-15.344l77.719,0.16c3.912,0.004,7.017,2.938,7.312,6.844
				l8.406,111.031c1.923,25.35,23.931,43.051,48.188,45.344c21.324,2.014,48.462,8.121,71.812,24.094
				c23.351,15.973,43.218,41.553,51,84.563l15.844-2.938c-8.454-46.725-31.372-76.715-57.875-94.844
				c-26.503-18.129-56.311-24.633-79.375-26.813c-17.594-1.664-32.395-13.951-33.656-30.594l-8.375-111.156
				c-0.914-12.09-11.157-21.48-23.281-21.5L96.57,1060.68z"/>
			<path style="fill:#5A3392;" d="M141.442,1127.759c-21.025,0.002-38.15,17.379-38.15,38.504v0.16v0.16
				c0.659,23.006,19.119,37.689,37.913,38.268h0.122h68.031v-15.945h-67.677c-11.242-0.367-21.671-7.803-22.205-22.678
				c0.121-12.49,9.761-22.439,21.968-22.439h64.134v-15.945h-64.134L141.442,1127.759z"/>
			<path style="fill:#5A3392;" d="M440.407,1300.167c-3.503-0.129-6.682,2.037-7.844,5.344l-14.938,40.781
				c-5.517,14.99-14.629,31.783-25.719,44.469s-23.764,20.859-36.469,21.25l-347.188,0.16c-4.418-0.063-8.051,3.469-8.113,7.887
				s3.469,8.051,7.887,8.113c0.075,0.002,0.151,0.002,0.226,0l347.438-0.16c0.083,0.002,0.167,0.002,0.25,0
				c19.008-0.576,35.235-12.078,48.031-26.719c12.796-14.639,22.556-32.842,28.688-49.5l14.938-40.75
				c1.59-4.123-0.463-8.754-4.586-10.344C442.177,1300.378,441.298,1300.198,440.407,1300.167L440.407,1300.167z"/>
			<path style="fill:#5A3392;" d="M288.126,1340.292v79.781h16v-79.781H288.126z"/>
			<path style="fill:#5A3392;" d="M96.126,1340.292v79.781h16v-79.781H96.126z"/>
		</g>
		<path style="fill:#FFFFFF;" d="M296.376,1268.167c-4.416-0.156-8.123,3.295-8.28,7.711c-0.108,3.037,1.514,5.873,4.186,7.32
			c12.477,7.088,21.338,17.703,29.156,29.342c2.459,3.674,7.43,4.658,11.104,2.201c3.674-2.459,4.659-7.43,2.201-11.104
			c-0.008-0.012-0.015-0.023-0.023-0.035c-8.42-12.535-18.922-25.443-34.531-34.313c-1.157-0.688-2.468-1.072-3.813-1.119V1268.167z
			"/>
	</g>
</g>
</svg>