<?xml version="1.0" encoding="iso-8859-1"?>
<!-- Uploaded to: SVG Repo, www.svgrepo.com, Generator: SVG Repo Mixer Tools -->
<!DOCTYPE svg PUBLIC "-//W3C//DTD SVG 1.1//EN" "http://www.w3.org/Graphics/SVG/1.1/DTD/svg11.dtd">
<svg fill="#000000" version="1.1" id="Capa_1" xmlns="http://www.w3.org/2000/svg" xmlns:xlink="http://www.w3.org/1999/xlink" 
	 width="800px" height="800px" viewBox="0 0 46.001 46.001"
	 xml:space="preserve">
<g>
	<g>
		<path d="M23,0C11.5,0,2.18,9.322,2.18,20.822l0,0v20.833h0.002c0.391,2.392,9.557,4.346,20.808,4.346
			c11.25,0,20.417-1.954,20.807-4.346h0.024V20.822l0,0C43.82,9.322,34.498,0,23,0z M22.988,38.469
			c-9.745,0-17.646-7.9-17.646-17.646c0-9.745,7.9-17.646,17.646-17.646c9.745,0,17.646,7.901,17.646,17.646
			S32.732,38.469,22.988,38.469z"/>
		<path d="M29.052,24.217h0.059c0.468,0,0.897-0.236,1.112-0.652s0.18-0.892-0.09-1.274l-3.541-5.003
			c0.16-0.114,0.293-0.265,0.387-0.447c0.215-0.416,0.178-0.916-0.092-1.298l-2.965-4.186c-0.208-0.294-0.507-0.527-0.927-0.527
			s-0.716,0.232-0.924,0.527l-2.973,4.185c-0.271,0.381-0.306,0.882-0.09,1.297c0.094,0.182,0.228,0.332,0.388,0.446l-3.54,5
			c-0.27,0.383-0.304,0.865-0.089,1.28c0.215,0.416,0.644,0.652,1.112,0.652h0.059L12.365,30.7c-0.27,0.382-0.305,0.911-0.09,1.327
			c0.215,0.416,0.644,0.705,1.112,0.705h7.863v2.933c0,0.691,0.572,1.267,1.264,1.267h0.96c0.691,0,1.218-0.574,1.218-1.267v-2.933
			H32.6c0.468,0,0.896-0.289,1.113-0.705c0.214-0.416,0.179-0.945-0.09-1.327L29.052,24.217z"/>
		<circle cx="18.938" cy="6.957" r="1.745"/>
		<circle cx="15.89" cy="15.088" r="1.745"/>
		<circle cx="8.774" cy="17.121" r="1.745"/>
		<circle cx="8.774" cy="25.252" r="1.745"/>
		<circle cx="27.047" cy="6.957" r="1.745"/>
		<circle cx="30.098" cy="15.088" r="1.745"/>
		<circle cx="37.213" cy="17.121" r="1.745"/>
		<circle cx="37.213" cy="25.252" r="1.745"/>
	</g>
</g>
</svg>