<?xml version="1.0" standalone="no"?><!DOCTYPE svg PUBLIC "-//W3C//DTD SVG 1.1//EN" "http://www.w3.org/Graphics/SVG/1.1/DTD/svg11.dtd"><svg t="1738422418692" class="icon" viewBox="0 0 1024 1024" version="1.1" xmlns="http://www.w3.org/2000/svg" p-id="4357" xmlns:xlink="http://www.w3.org/1999/xlink" width="200" height="200"><path d="M784 581.6a160 160 0 0 1-37.616 103.056c-46.224 54.896-127.28 151.2-198.608 236.192-79.52 94.768-236.8 107.136-331.568 27.6l-0.032-0.016a224 224 0 0 1-27.6-315.536l120.192-143.248c7.248-8.64 11.232-19.568 11.232-30.848V240h464v341.6z" fill="#F73B2F" p-id="4358"></path><path d="M832 64a48 48 0 0 0-48-48H320a48 48 0 0 0-48 48v128a48 48 0 0 0 48 48h464a48 48 0 0 0 48-48V64z" fill="#F2EADB" p-id="4359"></path><path d="M816 16c14.368 185.92-166.704 232.496-496 224h448a63.92 63.92 0 0 0 45.248-18.752A63.92 63.92 0 0 0 832 176V64" fill="#CEC7BA" p-id="4360"></path><path d="M704 736c75.456-61.904 99.168-165.632 80-304-122.704 3.744-182.56 205.776-80 304zM448 992c-99.888 50.16-346.768-29.152-304-256 135.984 31.296 241.056 111.648 304 256z" fill="#5AB947" p-id="4361"></path></svg>