<?xml version="1.0" encoding="iso-8859-1"?>
<!-- Uploaded to: SVG Repo, www.svgrepo.com, Generator: SVG Repo Mixer Tools -->
<svg height="800px" width="800px" version="1.1" id="Layer_1" xmlns="http://www.w3.org/2000/svg" xmlns:xlink="http://www.w3.org/1999/xlink" 
	 viewBox="0 0 511.999 511.999" xml:space="preserve">
<path style="fill:#E5E5E5;" d="M462.318,503.982H49.681c-8.856,0-16.035-7.179-16.035-16.035V212.143
	c0-8.856,7.179-16.035,16.035-16.035h412.637c8.856,0,16.035,7.179,16.035,16.035v275.804
	C478.353,496.802,471.175,503.982,462.318,503.982z"/>
<path style="fill:#6DDAE1;" d="M478.353,212.143c0-8.856-7.179-16.035-16.035-16.035H49.681c-8.856,0-16.035,7.179-16.035,16.035
	v69.485h444.707V212.143z"/>
<path style="fill:#CCCCCC;" d="M67.854,487.947V212.143c0-8.856,7.179-16.035,16.035-16.035H49.681
	c-8.856,0-16.035,7.179-16.035,16.035v275.804c0,8.856,7.179,16.035,16.035,16.035H83.89
	C75.034,503.982,67.854,496.802,67.854,487.947z"/>
<path style="fill:#4FC4D3;" d="M83.89,196.108H49.681c-8.856,0-16.035,7.179-16.035,16.035v69.485h34.208v-69.485
	C67.854,203.287,75.034,196.108,83.89,196.108z"/>
<g>
	<circle style="fill:#FFD791;" cx="119.163" cy="238.869" r="17.104"/>
	<circle style="fill:#FFD791;" cx="392.828" cy="238.869" r="17.104"/>
</g>
<polygon style="fill:#FF8C78;" points="439.332,435.664 92.34,486.072 106.807,466.687 86.192,443.755 99.431,415.911 
	78.816,392.978 92.054,365.129 72.668,350.659 419.66,300.253 405.194,319.639 425.808,342.57 412.571,370.421 433.186,393.352 
	419.946,421.195 "/>
<polygon style="fill:#DF7A6E;" points="382.571,443.909 127.564,342.686 72.668,350.659 92.054,365.129 78.816,392.977 
	99.431,415.911 86.192,443.755 106.807,466.687 92.34,486.072 "/>
<path d="M462.318,188.09h-65.403L262.484,3.247c-3.148-4.329-9.819-4.329-12.968,0L115.084,188.09H49.681
	c-13.263,0-24.053,10.791-24.053,24.053v210.594c0,4.429,3.59,8.018,8.018,8.018s8.018-3.589,8.018-8.018V289.646h428.672v198.301
	c0,4.421-3.596,8.018-8.018,8.018H49.681c-4.421,0-8.018-3.596-8.018-8.018v-22.453c0-4.429-3.59-8.018-8.018-8.018
	s-8.018,3.589-8.018,8.018v22.453c0,13.262,10.789,24.053,24.053,24.053h412.637c13.263,0,24.053-10.791,24.053-24.053V212.143
	C486.371,198.881,475.581,188.09,462.318,188.09z M41.664,273.611v-61.468c0-4.421,3.596-8.018,8.018-8.018h261.907
	c4.428,0,8.018-3.589,8.018-8.018s-3.59-8.018-8.018-8.018H134.911L256,21.593L377.088,188.09h-22.74
	c-4.428,0-8.018,3.589-8.018,8.018c0,4.429,3.59,8.018,8.018,8.018h107.97c4.421,0,8.018,3.596,8.018,8.018v61.468H41.664
	L41.664,273.611z"/>
<path d="M119.167,213.746c-13.852,0-25.122,11.269-25.122,25.122s11.269,25.122,25.122,25.122s25.122-11.269,25.122-25.122
	S133.019,213.746,119.167,213.746z M119.167,247.955c-5.01,0-9.087-4.076-9.087-9.087c0-5.01,4.076-9.087,9.087-9.087
	c5.01,0,9.087,4.076,9.087,9.087C128.253,243.879,124.177,247.955,119.167,247.955z"/>
<path d="M392.833,213.746c-13.852,0-25.122,11.269-25.122,25.122s11.269,25.122,25.122,25.122s25.122-11.269,25.122-25.122
	S406.685,213.746,392.833,213.746z M392.833,247.955c-5.01,0-9.087-4.076-9.087-9.087c0-5.01,4.076-9.087,9.087-9.087
	c5.01,0,9.087,4.076,9.087,9.087C401.919,243.879,397.843,247.955,392.833,247.955z"/>
<path d="M341.52,230.851H170.479c-4.428,0-8.018,3.589-8.018,8.018c0,4.429,3.59,8.018,8.018,8.018H341.52
	c4.428,0,8.018-3.589,8.018-8.018C349.538,234.439,345.948,230.851,341.52,230.851z"/>
<path d="M426.549,296.151c-1.658-2.785-4.833-4.303-8.041-3.832L71.516,342.725c-6.912,1.003-9.254,10.171-3.643,14.36
	l14.118,10.537l-10.416,21.914c-1.389,2.923-0.885,6.395,1.279,8.801l17.042,18.957l-10.943,23.017
	c-1.39,2.923-0.886,6.395,1.279,8.802l16.221,18.045l-10.536,14.116c-4.183,5.606,0.661,13.74,7.577,12.73l346.992-50.407
	c6.913-1.003,9.254-10.172,3.643-14.36l-14.117-10.536l10.416-21.906c1.39-2.923,0.886-6.396-1.279-8.802l-17.042-18.957
	l10.943-23.024c1.389-2.923,0.885-6.395-1.279-8.801l-16.221-18.044l10.536-14.119C428.025,302.448,428.208,298.938,426.549,296.151
	z M416.273,343.956l-10.943,23.024c-1.389,2.923-0.885,6.395,1.279,8.801l17.041,18.956l-10.943,23.015
	c-1.641,3.452-0.618,7.582,2.445,9.868l3.875,2.892l-308.682,44.843l2.89-3.871c2.287-3.063,2.093-7.314-0.463-10.156
	l-17.041-18.957l10.943-23.017c1.39-2.923,0.886-6.396-1.279-8.802l-17.042-18.958l10.943-23.022
	c1.55-3.262,0.675-7.255-2.085-9.579c-1.346-1.133-2.826-2.127-4.236-3.179l308.684-44.842l-2.892,3.874
	c-2.286,3.063-2.092,7.313,0.463,10.154L416.273,343.956z"/>
<path d="M248.627,375.869c-0.924-6.357-4.267-11.976-9.417-15.818c-5.147-3.844-11.484-5.452-17.842-4.526l-2.118,0.307
	c-13.124,1.907-22.25,14.137-20.344,27.261l5.225,35.968c1.737,11.959,12.041,20.599,23.789,20.598c1.884,0,3.73-0.289,5.587-0.559
	c6.358-0.923,11.976-4.266,15.819-9.416c3.843-5.149,5.451-11.486,4.526-17.844L248.627,375.869z M236.475,420.09
	c-2.066,2.77-6.543,3.979-9.869,3.419c-3.394-0.572-6.113-3.347-6.608-6.754l-5.225-35.968c-0.637-4.385,2.477-8.37,6.78-9.088
	c2.727-0.454,5.456-0.618,7.827,1.035c1.807,1.259,3.061,3.257,3.378,5.44l5.225,35.969
	C238.301,416.23,237.735,418.404,236.475,420.09z"/>
<path d="M369.417,374.525c-1.539-10.597-7.113-19.959-15.694-26.364c-8.582-6.404-19.145-9.083-29.739-7.544
	c-2.592,0.376-5.081,0.828-6.913,2.875c-1.57,1.754-2.325,4.185-1.986,6.519l9.836,67.706c0.626,4.319,4.763,7.418,9.087,6.782
	l17.985-2.612c13.124-1.907,22.251-14.137,20.344-27.261L369.417,374.525z M349.688,406.018l-10.05,1.459l-7.426-51.125
	c10.846,1.097,19.775,9.716,21.338,20.478l2.919,20.101C357.104,401.306,354.062,405.382,349.688,406.018z"/>
<path d="M306.313,412.319l-25.919,3.765l-8.684-59.771c-0.636-4.383-4.71-7.429-9.087-6.782c-4.382,0.637-7.418,4.705-6.782,9.087
	l9.836,67.706c0.626,4.316,4.766,7.417,9.087,6.782l33.852-4.919c4.382-0.637,7.418-4.705,6.782-9.087
	C314.763,414.719,310.69,411.681,306.313,412.319z"/>
<path d="M194.302,418.329c-1.906-13.124-14.135-22.244-27.262-20.345l-2.113,0.308c-4.375,0.636-8.452-2.406-9.088-6.782
	l-0.308-2.116c-0.635-4.375,2.407-8.452,6.782-9.088l17.984-2.612c4.382-0.636,7.418-4.704,6.782-9.087
	c-0.637-4.382-4.705-7.431-9.087-6.782l-17.985,2.612c-13.124,1.907-22.251,14.137-20.344,27.261l0.308,2.116
	c1.906,13.123,14.133,22.249,27.262,20.344c1.977-0.288,3.878-0.63,5.832,0.034c2.529,0.859,4.517,2.979,5.192,5.565
	c0.526,2.014,0.839,4.449,0.233,6.449c-0.897,2.959-3.472,5.184-6.531,5.628l-17.984,2.613c-4.264,0.62-7.346,4.661-6.8,8.938
	c0.56,4.385,4.72,7.575,9.106,6.93l17.983-2.613c6.358-0.923,11.976-4.267,15.819-9.417c3.843-5.149,5.451-11.486,4.526-17.845
	L194.302,418.329z"/>
</svg>