<?xml version="1.0" encoding="iso-8859-1"?>
<!-- Uploaded to: SVG Repo, www.svgrepo.com, Generator: SVG Repo Mixer Tools -->
<svg height="800px" width="800px" version="1.1" id="Layer_1" xmlns="http://www.w3.org/2000/svg" xmlns:xlink="http://www.w3.org/1999/xlink" 
	 viewBox="0 0 512 512" xml:space="preserve">
<path style="fill:#FFFFFF;" d="M256,187.733c-37.632,0-68.267,30.635-68.267,68.267s30.635,68.267,68.267,68.267
	s68.267-30.635,68.267-68.267S293.632,187.733,256,187.733z M290.219,275.712c-0.939,11.093-11.179,19.541-25.685,22.101v0.853
	c0,4.693-3.84,8.533-8.533,8.533c-4.693,0-8.533-3.84-8.533-8.533v-0.341c-10.411-0.939-16.555-3.925-23.211-10.752
	c-3.243-3.413-3.157-8.789,0.171-12.117c3.413-3.243,8.789-3.157,12.117,0.171c4.011,4.096,6.315,5.973,19.371,5.973
	c11.093-0.171,17.067-4.864,17.237-7.424c0.171-1.877-4.267-6.997-18.688-9.813c-21.675-1.365-31.232-13.568-31.061-25.429
	c0.171-10.752,8.448-21.589,24.064-24.661v-0.939c0-4.693,3.84-8.533,8.533-8.533s8.533,3.84,8.533,8.533v0.512
	c10.923,1.195,18.603,4.779,23.723,11.264c2.987,3.669,2.304,9.045-1.365,11.947c-1.536,1.28-3.413,1.877-5.291,1.877
	c-2.475,0-5.035-1.109-6.656-3.243c-1.109-1.28-4.267-5.291-18.859-5.291c-10.667,0.171-15.616,5.205-15.616,8.789
	c-0.085,3.755,5.376,7.851,15.872,8.277c0.256,0,0.427,0.171,0.597,0.171c0.256,0,0.427-0.085,0.683,0
	C289.536,253.781,290.645,270.677,290.219,275.712z"/>
<path d="M503.467,102.4H8.533C3.84,102.4,0,106.24,0,110.933v290.133c0,4.693,3.84,8.533,8.533,8.533h494.933
	c4.693,0,8.533-3.84,8.533-8.533V110.933C512,106.24,508.16,102.4,503.467,102.4z M494.933,392.533H17.067V119.467h477.867V392.533z
	"/>
<path style="fill:#00796B;" d="M17.067,119.467v273.067h477.867V119.467H17.067z M477.867,315.733c0,4.693-3.84,8.533-8.533,8.533
	c-24.747,0-42.667,17.92-42.667,42.667c0,4.693-3.84,8.533-8.533,8.533H93.867c-4.693,0-8.533-3.84-8.533-8.533
	c0-24.747-17.92-42.667-42.667-42.667c-4.693,0-8.533-3.84-8.533-8.533V196.267c0-4.693,3.84-8.533,8.533-8.533
	c24.747,0,42.667-17.92,42.667-42.667c0-4.693,3.84-8.533,8.533-8.533h324.267c4.693,0,8.533,3.84,8.533,8.533
	c0,24.747,17.92,42.667,42.667,42.667c4.693,0,8.533,3.84,8.533,8.533V315.733z"/>
<path d="M469.333,187.733c-24.747,0-42.667-17.92-42.667-42.667c0-4.693-3.84-8.533-8.533-8.533H93.867
	c-4.693,0-8.533,3.84-8.533,8.533c0,24.747-17.92,42.667-42.667,42.667c-4.693,0-8.533,3.84-8.533,8.533v119.467
	c0,4.693,3.84,8.533,8.533,8.533c24.747,0,42.667,17.92,42.667,42.667c0,4.693,3.84,8.533,8.533,8.533h324.267
	c4.693,0,8.533-3.84,8.533-8.533c0-24.747,17.92-42.667,42.667-42.667c4.693,0,8.533-3.84,8.533-8.533V196.267
	C477.867,191.573,474.027,187.733,469.333,187.733z M460.8,307.712c-26.965,3.584-47.104,23.723-50.688,50.688H101.888
	c-3.584-26.965-23.723-47.104-50.688-50.688V204.288c26.965-3.584,47.104-23.723,50.688-50.688h308.224
	c3.584,26.965,23.723,47.104,50.688,50.688L460.8,307.712L460.8,307.712z"/>
<path style="fill:#004D40;" d="M410.112,153.6H101.888c-3.584,26.965-23.723,47.104-50.688,50.688v103.424
	c26.965,3.584,47.104,23.723,50.688,50.688h308.224c3.584-26.965,23.723-47.104,50.688-50.688V204.288
	C433.835,200.704,413.696,180.565,410.112,153.6z M256,341.333c-47.019,0-85.333-38.315-85.333-85.333s38.315-85.333,85.333-85.333
	s85.333,38.315,85.333,85.333S303.019,341.333,256,341.333z"/>
<path d="M256,170.667c-47.019,0-85.333,38.315-85.333,85.333s38.315,85.333,85.333,85.333s85.333-38.315,85.333-85.333
	S303.019,170.667,256,170.667z M256,324.267c-37.632,0-68.267-30.635-68.267-68.267s30.635-68.267,68.267-68.267
	s68.267,30.635,68.267,68.267S293.632,324.267,256,324.267z"/>
<path d="M290.219,275.712c-0.939,11.093-11.179,19.541-25.685,22.101v0.853c0,4.693-3.84,8.533-8.533,8.533
	c-4.693,0-8.533-3.84-8.533-8.533v-0.341c-10.411-0.939-16.555-3.925-23.211-10.752c-3.243-3.413-3.157-8.789,0.171-12.117
	c3.413-3.243,8.789-3.157,12.117,0.171c4.011,4.096,6.315,5.973,19.371,5.973c11.093-0.171,17.067-4.864,17.237-7.424
	c0.171-1.877-4.267-6.997-18.688-9.813c-21.675-1.365-31.232-13.568-31.061-25.429c0.171-10.752,8.448-21.589,24.064-24.661v-0.939
	c0-4.693,3.84-8.533,8.533-8.533s8.533,3.84,8.533,8.533v0.512c10.923,1.195,18.603,4.779,23.723,11.264
	c2.987,3.669,2.304,9.045-1.365,11.947c-1.536,1.28-3.413,1.877-5.291,1.877c-2.475,0-5.035-1.109-6.656-3.243
	c-1.109-1.28-4.267-5.291-18.859-5.291c-10.667,0.171-15.616,5.205-15.616,8.789c-0.085,3.755,5.376,7.851,15.872,8.277
	c0.256,0,0.427,0.171,0.597,0.171c0.256,0,0.427-0.085,0.683,0C289.536,253.781,290.645,270.677,290.219,275.712z"/>
<path style="fill:#F4F4F4;" d="M277.658,191.317c17.818,12.331,29.542,32.887,29.542,56.149c0,37.632-30.635,68.267-68.267,68.267
	c-7.578,0-14.839-1.289-21.658-3.584c11.017,7.62,24.354,12.117,38.724,12.117c37.632,0,68.267-30.635,68.267-68.267
	C324.267,225.946,304.7,200.397,277.658,191.317z"/>
</svg>