<?xml version="1.0" encoding="utf-8"?>
<!-- Uploaded to: SVG Repo, www.svgrepo.com, Generator: SVG Repo Mixer Tools -->
<svg width="800px" height="800px" viewBox="0 0 1024 1024" class="icon"  version="1.1" xmlns="http://www.w3.org/2000/svg"><path d="M902.153551 934.144848h-71.067881c-29.055818 0-43.714784-21.07156-52.54989-33.703233-6.673685-9.619403-9.029645-12.168877-11.254547-12.168878-2.161422 0-4.516358 2.617051-11.123491 12.168878-8.771626 12.631673-23.430592 33.703233-52.482314 33.703233-29.12237 0-43.781336-21.07156-52.54989-33.703233-6.741261-9.619403-8.999952-12.168877-11.223831-12.168878-2.157326 0-4.513287 2.549474-11.187995 12.168878-8.771626 12.631673-23.430592 33.703233-52.486409 33.703233-29.052746 0-43.710688-21.138113-52.415762-33.766714-6.610204-9.488345-9.029645-12.105396-11.12349-12.105397-2.224903 0-4.516358 2.485994-11.191067 12.168878-8.768554 12.631673-23.426496 33.703233-52.583678 33.703233-29.086534 0-43.744477-21.07156-52.513031-33.703233-6.67778-9.682884-8.966164-12.168877-11.191066-12.168878-2.161422 0-4.516358 2.549474-11.191067 12.168878-8.768554 12.631673-23.426496 33.703233-52.483338 33.703233s-43.714784-21.07156-52.483338-33.703233c-6.674708-9.619403-8.966164-12.168877-11.191066-12.168878-2.161422 0-4.579839 2.617051-11.191067 12.168878-8.768554 12.631673-23.363015 33.703233-52.483338 33.703233h-72.049786c-13.871598 0-25.111811-11.254547-25.111812-25.129218v-76.170925c0-29.055818 21.12173-43.714784 33.750332-52.482314 9.488345-6.610204 12.108468-8.966164 12.108468-11.127585 0-2.224903-2.489065-4.513287-12.108468-11.254548-12.628602-8.768554-33.750332-23.426496-33.750332-52.482314s21.12173-43.714784 33.750332-52.483338c9.619403-6.674708 12.108468-8.966164 12.108468-11.191066s-2.489065-4.516358-12.108468-11.191067c-12.628602-8.768554-33.750332-23.426496-33.750332-52.546819 0-29.055818 21.12173-43.714784 33.750332-52.486409 9.619403-6.674708 12.108468-8.963092 12.108468-11.186971 0-2.161422-2.620123-4.516358-12.108468-11.127586-12.628602-8.768554-33.750332-23.426496-33.750332-52.483338s21.12173-43.714784 33.750332-52.483338c9.619403-6.674708 12.108468-8.966164 12.108468-11.191066s-2.489065-4.513287-12.108468-11.254548c-12.628602-8.705073-33.750332-23.426496-33.750332-52.483338s21.12173-43.714784 33.750332-52.483337c9.619403-6.674708 12.108468-8.966164 12.108468-11.191067s-2.489065-4.516358-12.108468-11.254548c-12.628602-8.771626-33.750332-23.430592-33.750332-52.54989v-75.386629c0-13.87467 11.241237-25.129218 25.111812-25.129217h72.049786c29.119299 0 43.714784 21.138113 52.483338 33.766714 6.610204 9.488345 9.029645 12.105396 11.191067 12.105396 2.224903 0 4.516358-2.485994 11.191066-12.168877 8.768554-12.564097 23.426496-33.703233 52.483338-33.703233s43.714784 21.138113 52.483338 33.766714c6.674708 9.619403 9.029645 12.105396 11.191067 12.105396 2.224903 0 4.513287-2.485994 11.191066-12.105396 8.768554-12.628602 23.426496-33.766714 52.513031-33.766714 29.156159 0 43.815125 21.138113 52.583678 33.766714 6.674708 9.619403 8.966164 12.105396 11.191067 12.105396 2.093845 0 4.513287-2.617051 11.12349-12.105396 8.705073-12.628602 23.363015-33.766714 52.415762-33.766714 29.055818 0 43.714784 21.138113 52.486409 33.766714 6.674708 9.619403 9.029645 12.105396 11.187995 12.105396 2.224903 0 4.48257-2.485994 11.223831-12.105396 8.768554-12.628602 23.426496-33.766714 52.54989-33.766714 29.052746 0 43.710688 21.138113 52.482314 33.766714 6.607132 9.488345 8.963092 12.105396 11.123491 12.105396 2.224903 0 4.579839-2.485994 11.254547-12.168877 8.835106-12.564097 23.494073-33.703233 52.54989-33.703233h71.067881c13.87467 0 25.129218 11.254547 25.129217 25.129217v76.170925c0 29.12237-21.138113 43.781336-33.766714 52.549891-9.619403 6.741261-12.108468 9.029645-12.108468 11.3211 0 2.157326 2.489065 4.449806 12.108468 11.191066 12.628602 8.700977 33.766714 23.359944 33.766714 52.415762 0 29.12237-21.138113 43.781336-33.766714 52.54989-9.619403 6.674708-12.108468 8.966164-12.108468 11.191067s2.489065 4.513287 12.108468 11.254547c12.628602 8.768554 33.766714 23.426496 33.766714 52.483338s-21.138113 43.714784-33.766714 52.418833c-9.488345 6.607132-12.108468 9.029645-12.108468 11.12349 0 2.224903 2.489065 4.516358 12.108468 11.254548 12.628602 8.771626 33.766714 23.430592 33.766714 52.483338 0 29.055818-21.138113 43.714784-33.766714 52.482314-9.619403 6.67778-12.108468 8.966164-12.108468 11.191066s2.489065 4.516358 12.108468 11.191067c12.628602 8.768554 33.766714 23.426496 33.766714 52.483338 0 29.12237-21.138113 43.781336-33.766714 52.54989-9.619403 6.674708-12.108468 8.966164-12.108468 11.191067 0 2.157326 2.620123 4.579839 12.108468 11.191066 12.628602 8.700977 33.766714 23.359944 33.766714 52.415762v75.386628c0 13.876718-11.254547 25.131265-25.129217 25.131266z" fill="#27323A" /><path d="M767.281233 838.014302c29.119299 0 43.778265 21.135041 52.54989 33.766715 6.738189 9.619403 9.029645 12.105396 11.254547 12.105396h45.939687v-50.258435c0-2.157326-2.617051-4.516358-12.172972-11.123491-12.564097-8.768554-33.703233-23.426496-33.703234-52.483337s21.138113-43.714784 33.703234-52.482314c9.685955-6.741261 12.172973-9.032716 12.172972-11.257619s-2.485994-4.513287-12.172972-11.191067c-12.564097-8.768554-33.703233-23.426496-33.703234-52.483338s21.138113-43.714784 33.703234-52.482314c9.685955-6.674708 12.172973-9.029645 12.172972-11.191067 0-2.224903-2.485994-4.513287-12.172972-11.186971-12.564097-8.771626-33.703233-23.430592-33.703234-52.54989 0-29.055818 21.138113-43.647208 33.703234-52.418833 9.555922-6.607132 12.172973-8.963092 12.172972-11.12349 0-2.224903-2.485994-4.516358-12.172972-11.191067-12.564097-8.768554-33.703233-23.426496-33.703234-52.546819 0-29.055818 21.138113-43.714784 33.703234-52.483337 9.685955-6.67778 12.172973-9.032716 12.172972-11.25762 0-2.157326-2.617051-4.513287-12.172972-11.12349-12.564097-8.768554-33.703233-23.426496-33.703234-52.482314 0-29.12237 21.138113-43.781336 33.703234-52.54989 9.685955-6.738189 12.172973-9.029645 12.172972-11.3211v-51.041708h-45.939687c-2.224903 0-4.516358 2.485994-11.254547 12.172973-8.771626 12.628602-23.430592 33.700162-52.54989 33.700162-29.055818 0-43.714784-21.135041-52.418834-33.700162-6.674708-9.685955-9.029645-12.172973-11.187995-12.172973-2.224903 0-4.583935 2.485994-11.257619 12.172973-8.768554 12.628602-23.491001 33.700162-52.516102 33.700162-29.052746 0-43.710688-21.135041-52.483338-33.700162-6.674708-9.685955-8.963092-12.172973-11.191066-12.172973-2.157326 0-4.513287 2.617051-11.123491 12.105397-8.768554 12.631673-23.359944 33.766714-52.415761 33.766714-29.055818 0-43.714784-21.07156-52.483338-33.700162-6.775049-9.685955-9.063433-12.172973-11.291407-12.172972-2.224903 0-4.513287 2.485994-11.186971 12.172972-8.802342 12.628602-23.460284 33.700162-52.516102 33.700162s-43.714784-21.135041-52.483338-33.700162c-6.674708-9.685955-8.966164-12.172973-11.191067-12.172972-2.161422 0-4.516358 2.485994-11.191066 12.172972-8.768554 12.564097-23.426496 33.700162-52.483338 33.700162s-43.714784-21.135041-52.483338-33.700162c-6.674708-9.685955-8.966164-12.172973-11.191067-12.172972h-46.920569v50.258435c0 2.224903 2.485994 4.579839 12.172973 11.3211 12.628602 8.768554 33.703233 23.426496 33.703233 52.483337 0 29.119299-21.138113 43.778265-33.703233 52.482314-9.555922 6.610204-12.172973 9.029645-12.172973 11.191067 0 2.224903 2.485994 4.516358 12.172973 11.254548 12.628602 8.768554 33.703233 23.426496 33.703233 52.483337s-21.138113 43.714784-33.703233 52.483338c-9.685955 6.741261-12.172973 9.032716-12.172973 11.191067 0 2.161422 2.617051 4.579839 12.172973 11.191067 12.564097 8.705073 33.703233 23.363015 33.703233 52.418833 0 29.052746-21.138113 43.710688-33.703233 52.482314-9.685955 6.738189-12.172973 9.029645-12.172973 11.191066 0 2.224903 2.485994 4.513287 12.172973 11.254548 12.628602 8.768554 33.703233 23.426496 33.703233 52.482314s-21.074632 43.714784-33.703233 52.483338c-9.685955 6.674708-12.172973 8.966164-12.172973 11.191066s2.485994 4.516358 12.172973 11.191067c12.628602 8.768554 33.703233 23.426496 33.703233 52.546818 0 29.055818-21.138113 43.714784-33.703233 52.418834-9.555922 6.607132-12.172973 9.029645-12.172973 11.191066v51.041707h46.920569c2.224903 0 4.516358-2.485994 11.191067-12.105396 8.768554-12.631673 23.426496-33.766714 52.483338-33.766714s43.714784 21.135041 52.483338 33.766714c6.674708 9.619403 9.029645 12.105396 11.191066 12.105396 2.224903 0 4.516358-2.485994 11.191067-12.105396 8.768554-12.631673 23.426496-33.766714 52.483338-33.766714s43.714784 21.135041 52.516102 33.766714c6.674708 9.619403 8.963092 12.105396 11.186971 12.105396 2.227974 0 4.516358-2.485994 11.291407-12.105396 8.768554-12.631673 23.426496-33.766714 52.483338-33.766714 29.055818 0 43.647208 21.135041 52.415761 33.766714 6.610204 9.55285 8.966164 12.105396 11.123491 12.105396 2.227974 0 4.516358-2.485994 11.191066-12.105396 8.771626-12.631673 23.430592-33.766714 52.483338-33.766714 29.026125 0 43.747548 21.135041 52.516102 33.766714 6.674708 9.619403 9.032716 12.105396 11.257619 12.105396 2.157326 0 4.513287-2.485994 11.187995-12.105396 8.704049-12.633721 23.363015-33.768762 52.418834-33.768762z" fill="#F4CE73" /><path d="M239.406914 237.795319h545.477979v554.018206H239.406914z" fill="#27323A" /><path d="M272.912538 271.300942h478.466732v487.007983H272.912538z" fill="#79CCBF" /><path d="M538.338426 627.295631h-4.710896c-0.066553 11.780825-9.619403 21.332651-21.400227 21.332651s-21.400227-9.55285-21.400228-21.332651h-4.777449c-5.887341 0-10.731342 4.777449-10.731342 10.731342v42.669397c0 5.953893 4.845025 10.731342 10.731342 10.731342h52.2888c5.890412 0 10.731342-4.777449 10.731342-10.731342V638.026973c0.001024-5.953893-4.84093-10.731342-10.731342-10.731342zM515.826259 338.181132h-7.196889c-40.966676 0-123.551218 22.706705-123.551219 91.878349 0 69.105092 90.37119 133.629322 90.371191 180.024638h73.554898c0-46.395316 90.310781-110.919545 90.310781-180.024638-0.001024-69.171645-82.652119-91.87835-123.488762-91.878349z" fill="#27323A" /><path d="M518.44331 610.084119c0-46.985074 26.830915-110.919545 26.830915-180.09119 0-65.372006-17.274993-88.407378-27.943878-90.698834 26.438767 0.720815 74.995505 23.62513 74.995505 91.68074 0 68.384277-58.764874 130.292479-58.764875 179.109284h-15.117667zM490.828099 610.084119c0-46.985074-58.764874-109.937639-58.764874-179.109284 0-68.254244 48.884381-91.090982 75.256595-91.68074-10.862399 2.224903-28.26845 25.129218-28.26845 90.698834 0 69.171645 26.958901 133.10714 26.958901 180.09119h-15.182172z" fill="#FFFFFF" /></svg>