<?xml version="1.0" encoding="iso-8859-1"?>
<!-- Uploaded to: SVG Repo, www.svgrepo.com, Generator: SVG Repo Mixer Tools -->
<svg height="800px" width="800px" version="1.1" id="Layer_1" xmlns="http://www.w3.org/2000/svg" xmlns:xlink="http://www.w3.org/1999/xlink" 
	 viewBox="0 0 512 512" xml:space="preserve">
<path style="fill:#FF6464;" d="M269.378,24.064c57.235,74.03,144.507,161.315,218.524,218.559c8.797,6.803,8.797,19.95,0,26.753
	c-74.017,57.244-161.289,144.529-218.524,218.559c-6.803,8.8-19.954,8.8-26.757,0C185.386,413.905,98.114,326.62,24.097,269.376
	c-8.797-6.803-8.797-19.95,0-26.753C98.115,185.38,185.386,98.095,242.622,24.064C249.425,15.265,262.575,15.265,269.378,24.064z"/>
<path style="fill:#D2555A;" d="M253.942,487.936c-26.397-74.03-66.647-161.315-100.785-218.559c-4.058-6.804-4.058-19.95,0-26.753
	c34.137-57.244,74.387-144.529,100.785-218.56c1.312-3.678,3.987-5.294,6.284-6.01c-6.247-1.616-13.231,0.354-17.604,6.01
	C185.386,98.095,98.115,185.38,24.098,242.624c-8.797,6.803-8.797,19.95,0,26.753c74.018,57.243,161.289,144.529,218.524,218.559
	c4.373,5.657,11.357,7.626,17.604,6.011C257.928,493.229,255.253,491.614,253.942,487.936z"/>
<g>
	<path style="fill:#2D2B29;" d="M508.706,249.531C426.102,189.455,322.544,85.898,262.47,3.295C260.964,1.225,258.56,0,256,0
		s-4.964,1.225-6.47,3.295C189.456,85.898,85.898,189.455,3.294,249.531C1.225,251.035,0,253.44,0,256s1.225,4.965,3.294,6.47
		c82.604,60.076,186.161,163.633,246.236,246.235c1.505,2.07,3.91,3.295,6.47,3.295s4.964-1.225,6.47-3.295
		c60.075-82.603,163.632-186.159,246.236-246.235c2.07-1.505,3.294-3.91,3.294-6.47S510.775,251.035,508.706,249.531z M256,490.539
		C196.51,411.246,100.754,315.491,21.461,256C100.754,196.51,196.51,100.754,256,21.462C315.49,100.754,411.246,196.51,490.539,256
		C411.246,315.491,315.49,411.246,256,490.539z"/>
	<path style="fill:#2D2B29;" d="M262.226,55.47c-2.774-3.438-7.811-3.977-11.25-1.202c-3.438,2.774-3.977,7.811-1.202,11.25
		c27.573,34.17,60.977,70.952,96.602,106.367c1.561,1.551,3.601,2.326,5.64,2.326c2.055,0,4.11-0.787,5.673-2.359
		c3.115-3.134,3.1-8.199-0.033-11.313C322.438,125.526,289.438,89.194,262.226,55.47z"/>
	<path style="fill:#2D2B29;" d="M106.628,205.875c-17.425,15.799-34.637,30.569-51.158,43.899c-3.439,2.775-3.977,7.811-1.203,11.25
		c1.581,1.959,3.896,2.977,6.231,2.977c1.764,0,3.54-0.58,5.019-1.774c16.759-13.523,34.207-28.494,51.858-44.499
		c3.273-2.967,3.521-8.027,0.553-11.3C114.96,203.154,109.901,202.907,106.628,205.875z"/>
</g>
</svg>