<?xml version="1.0" encoding="iso-8859-1"?>
<!-- Uploaded to: SVG Repo, www.svgrepo.com, Generator: SVG Repo Mixer Tools -->
<svg height="800px" width="800px" version="1.1" id="Layer_1" xmlns="http://www.w3.org/2000/svg" xmlns:xlink="http://www.w3.org/1999/xlink" 
	 viewBox="0 0 512 512" xml:space="preserve">
<path style="fill:#D33D3D;" d="M179.299,427.161C84.923,427.161,8.139,350.378,8.139,256c0-94.379,76.784-171.16,171.161-171.16
	h211.214c62.5,0,113.348,50.846,113.348,113.345c0,62.501-50.848,113.346-113.348,113.346h-17.562
	c-25.659,0-39.056,18.991-42.789,25.296C300.267,392.557,242.497,427.161,179.299,427.161z M179.299,124.918
	c-72.278,0-131.083,58.804-131.083,131.082c0,72.28,58.802,131.083,131.083,131.083c48.505,0,92.837-26.627,115.698-69.486
	c0.115-0.217,0.235-0.432,0.358-0.646c6.21-10.674,30.157-45.501,77.596-45.501h17.562c40.4,0,73.27-32.868,73.27-73.267
	c0-40.399-32.87-73.267-73.27-73.267H179.299V124.918z"/>
<path style="fill:#E95353;" d="M179.299,124.918c-72.278,0-131.083,58.804-131.083,131.082c0,72.28,58.802,131.083,131.083,131.083
	c48.505,0,92.837-26.627,115.698-69.486c0.115-0.217,0.235-0.432,0.358-0.646c6.21-10.674,30.157-45.501,77.596-45.501h17.562
	c40.4,0,73.27-32.868,73.27-73.267c0-40.399-32.87-73.267-73.27-73.267H179.299V124.918z"/>
<g style="opacity:0.15;">
	<path style="fill:#202020;" d="M73.841,257.175c0-72.278,58.805-131.082,131.083-131.082h-26.8
		c-72.278,0-131.083,58.804-131.083,131.082c0,72.28,58.802,131.083,131.083,131.083c4.501,0,8.966-0.231,13.382-0.681
		C125.506,380.836,73.841,324.926,73.841,257.175z"/>
</g>
<g>
	<path style="fill:#202020;" d="M390.514,76.701H179.299C80.434,76.701,0,157.133,0,256s80.434,179.299,179.299,179.299
		c66.109,0,126.615-36.193,157.949-94.467c3.082-5.152,14.395-21.164,35.703-21.164h17.562c66.988,0,121.487-54.498,121.487-121.484
		C512,131.198,457.501,76.701,390.514,76.701z M390.514,303.391h-17.562c-30.113,0-45.724,22.417-49.793,29.287
		c-0.059,0.099-0.114,0.199-0.168,0.299c-28.47,53.073-83.531,86.044-143.692,86.044C89.408,419.022,16.277,345.891,16.277,256
		S89.408,92.978,179.299,92.978h211.214c58.012,0,105.209,47.195,105.209,105.206C495.723,256.195,448.526,303.391,390.514,303.391z
		"/>
	<path style="fill:#202020;" d="M390.514,116.779H179.299c-76.767,0-139.222,62.454-139.222,139.221s62.455,139.222,139.222,139.222
		c51.515,0,98.599-28.277,122.899-73.831c0.066-0.126,0.137-0.249,0.192-0.346c0.177-0.304,0.369-0.629,0.578-0.974
		c6.464-10.703,28.235-40.48,69.984-40.48h17.562c44.889,0,81.408-36.518,81.408-81.405
		C471.922,153.297,435.402,116.779,390.514,116.779z M56.355,256c0-33.634,13.58-64.152,35.54-86.371v25.494
		c0,4.496,3.643,8.139,8.139,8.139c4.496,0,8.139-3.643,8.139-8.139v-37.618c0-0.553-0.056-1.093-0.162-1.616
		c10.747-7.675,22.778-13.659,35.7-17.574v235.37c-13.296-4.028-25.645-10.252-36.626-18.25c0.688-1.195,1.087-2.575,1.087-4.053
		V222.974c0-4.496-3.643-8.139-8.139-8.139s-8.139,3.643-8.139,8.139v119.398C69.935,320.152,56.355,289.634,56.355,256z
		 M263.62,345.454V153.525c0-4.496-3.643-8.139-8.139-8.139c-4.496,0-8.139,3.643-8.139,8.139v204.872
		c-10.862,7.225-22.848,12.707-35.538,16.181v-64.43c0-4.496-3.643-8.139-8.139-8.139c-4.496,0-8.139,3.643-8.139,8.139v67.719
		c-5.335,0.706-10.753,1.078-16.228,1.078c-6.569,0-13.018-0.524-19.312-1.521V134.578c6.294-0.997,12.743-1.521,19.312-1.521
		h16.228V281.21c0,4.496,3.643,8.139,8.139,8.139c4.496,0,8.139-3.643,8.139-8.139V133.056h87.356v160.452
		c0,1.216,0.275,2.367,0.753,3.404c-5.741,6.539-9.561,12.455-11.607,15.972c-0.175,0.304-0.346,0.611-0.489,0.882
		C281.41,325.78,273.192,336.421,263.62,345.454z M372.952,263.313c-1.939,0-3.829,0.069-5.697,0.173v-37.979
		c0-4.496-3.643-8.139-8.139-8.139s-8.139,3.643-8.139,8.139v40.246c-1.522,0.348-3.022,0.724-4.486,1.136
		c-1.671,0.472-3.291,0.997-4.886,1.545c-10.244,3.522-18.931,8.534-26.169,14.009V133.056h35.54v64.96
		c0,4.496,3.643,8.139,8.139,8.139s8.139-3.643,8.139-8.139v-64.96h23.259c4.198,0,8.3,0.415,12.279,1.177v127.903
		c-3.979,0.763-8.081,1.177-12.279,1.177h-17.561V263.313z M419.07,256.703V139.665c21.637,10.601,36.575,32.845,36.575,58.519
		C455.645,223.858,440.708,246.103,419.07,256.703z"/>
</g>
</svg>