<!DOCTYPE svg PUBLIC "-//W3C//DTD SVG 1.1//EN" "http://www.w3.org/Graphics/SVG/1.1/DTD/svg11.dtd">
<!-- Uploaded to: SVG Repo, www.svgrepo.com, Transformed by: SVG Repo Mixer Tools -->
<svg height="800px" width="800px" version="1.1" id="Layer_1" xmlns="http://www.w3.org/2000/svg" xmlns:xlink="http://www.w3.org/1999/xlink" viewBox="0 0 512 512" xml:space="preserve" fill="#000000">
<g id="SVGRepo_bgCarrier" stroke-width="0"/>
<g id="SVGRepo_tracerCarrier" stroke-linecap="round" stroke-linejoin="round"/>
<g id="SVGRepo_iconCarrier"> <path style="fill:#7BD36A;" d="M329.643,168.058c0.868,93.046-72.075,168.89-72.075,168.89s-74.348-75.011-75.215-168.057 s72.075-153.797,72.075-153.797S328.777,75.013,329.643,168.058z"/> <g> <path style="fill:#7BD36A;" d="M182.354,168.892c-0.165-17.7,2.345-34.225,6.511-49.39C141.813,67.466,73.62,47.356,73.62,47.356 s-35.568,71.867,5.168,153.285c20.348,40.671,55.888,72.266,86.365,93.702c5.311-0.978,10.779-1.505,16.374-1.505 c16.943,0,32.779,4.702,46.298,12.856c0.371-1.453,0.743-2.991,1.114-4.569C207.889,270.397,182.855,222.656,182.354,168.892z"/> <path style="fill:#7BD36A;" d="M438.379,47.356c0,0-68.728,20.267-115.797,72.756c4.235,14.744,6.902,30.779,7.062,47.948 c0.516,55.414-25.147,104.725-45.989,135.549c0.174,0.703,0.346,1.411,0.519,2.087c13.52-8.155,29.354-12.856,46.299-12.856 c5.593,0,11.063,0.527,16.374,1.505c30.476-21.438,66.017-53.031,86.365-93.702C473.946,119.223,438.379,47.356,438.379,47.356z"/> </g> <path d="M255.999,187.537c-0.981,0-1.977-0.091-2.943-0.285c-0.966-0.198-1.917-0.483-2.822-0.86 c-0.921-0.377-1.796-0.847-2.611-1.389c-0.83-0.558-1.6-1.192-2.294-1.887c-0.694-0.694-1.328-1.464-1.872-2.296 c-0.543-0.815-1.011-1.69-1.389-2.596c-0.377-0.906-0.679-1.855-0.86-2.822c-0.196-0.98-0.302-1.962-0.302-2.958 c0-0.98,0.106-1.977,0.302-2.943c0.181-0.966,0.483-1.917,0.86-2.822c0.377-0.919,0.845-1.795,1.389-2.61 c0.543-0.83,1.177-1.601,1.872-2.296c0.694-0.694,1.464-1.328,2.294-1.87c0.815-0.543,1.69-1.011,2.611-1.389 c0.906-0.377,1.856-0.664,2.822-0.86c1.947-0.392,3.954-0.392,5.886,0c0.966,0.196,1.917,0.483,2.821,0.86 c0.921,0.377,1.796,0.845,2.611,1.389c0.83,0.542,1.6,1.176,2.294,1.87c0.696,0.694,1.33,1.466,1.872,2.296 c0.543,0.815,1.011,1.69,1.389,2.61c0.377,0.907,0.679,1.856,0.86,2.822c0.196,0.967,0.302,1.964,0.302,2.943 c0,3.985-1.615,7.863-4.424,10.671c-0.694,0.694-1.464,1.328-2.294,1.887c-0.815,0.542-1.69,1.011-2.611,1.389 c-0.906,0.377-1.855,0.663-2.821,0.86C257.975,187.448,256.979,187.537,255.999,187.537z"/> <path style="fill:#866b09;" d="M452.6,428.326c7.897-8.109,12.769-19.179,12.769-31.392c0-24.86-20.152-45.01-45.012-45.01 c-1.798,0-3.566,0.116-5.31,0.322c-12.485-34.639-45.634-59.406-84.575-59.406c-31.007,0-58.321,15.716-74.474,39.604 c-16.153-23.888-43.466-39.604-74.474-39.604c-38.942,0-72.09,24.768-84.575,59.406c-1.743-0.205-3.512-0.322-5.31-0.322 c-24.86,0-45.012,20.152-45.012,45.01c0,12.213,4.872,23.283,12.769,31.392C47.551,440.037,40.2,456.28,40.2,474.257 c0,4.665,0.506,18.266,1.443,22.65h96.74h235.228h96.74c0.939-4.385,1.443-17.986,1.443-22.65 C471.795,456.28,464.445,440.035,452.6,428.326z"/> <path d="M471.949,427.789c5.547-9.24,8.513-19.838,8.513-30.855c0-31.585-24.491-57.557-55.478-59.928 c-10.063-20.768-26.626-37.351-46.636-47.637c30.815-25.293,53.757-52.783,68.361-81.975c43.595-87.131,6.784-163.524,5.197-166.733 c-3.253-6.573-10.757-9.851-17.798-7.782c-2.634,0.777-58.229,17.543-105.202,59.645C306.037,37.89,266.231,5.223,263.901,3.342 c-5.601-4.514-13.606-4.448-19.13,0.155c-2.265,1.887-40.582,34.385-62.478,88.315C135.486,50.231,80.499,33.649,77.889,32.879 c-7.033-2.074-14.544,1.21-17.796,7.782c-1.588,3.209-38.398,79.601,5.197,166.733c14.607,29.194,37.547,56.685,68.361,81.976 c-20.009,10.286-36.572,26.867-46.636,47.635c-30.988,2.371-55.478,28.343-55.478,59.928c0,11.018,2.964,21.615,8.512,30.855 c-9.706,13.452-14.939,29.548-14.939,46.467c0,2.721,0.328,19.034,1.776,25.809c1.49,6.961,7.64,11.936,14.759,11.936h428.707 c7.119,0,13.271-4.976,14.759-11.937c1.449-6.777,1.776-23.088,1.776-25.808C486.888,457.338,481.654,441.241,471.949,427.789z M429.672,66.479c7.346,22.44,17.633,72.259-9.96,127.406c-18.43,36.839-50.933,65.857-76.671,84.618 c-0.201-0.024-0.403-0.039-0.604-0.063c-0.611-0.071-1.223-0.131-1.837-0.192c-0.558-0.054-1.115-0.106-1.674-0.151 c-0.64-0.053-1.283-0.097-1.926-0.137c-0.545-0.033-1.09-0.063-1.636-0.089c-0.643-0.03-1.286-0.057-1.932-0.075 c-0.564-0.017-1.127-0.024-1.692-0.032c-0.424-0.005-0.847-0.023-1.272-0.023c-0.154,0-0.306,0.011-0.46,0.012 c-1.484,0.006-2.964,0.042-4.442,0.11c-0.362,0.018-0.724,0.042-1.087,0.063c-1.295,0.074-2.585,0.171-3.874,0.291 c-0.308,0.029-0.616,0.051-0.922,0.083c-1.21,0.125-2.419,0.267-3.622,0.433c11.765-22.815,22.235-50.132,26.564-80.124 c0.002-0.017,0.005-0.032,0.006-0.047c0.69-4.791,1.221-9.647,1.577-14.566c0.023-0.305,0.047-0.61,0.068-0.916 c0.154-2.275,0.27-4.561,0.347-6.86c0.014-0.409,0.023-0.82,0.033-1.229c0.063-2.347,0.1-4.704,0.077-7.076l0,0l0,0v-0.012 c-0.017-1.737-0.062-3.461-0.124-5.175c-0.012-0.341-0.032-0.682-0.047-1.023c-0.062-1.472-0.137-2.936-0.231-4.391 c-0.015-0.24-0.033-0.481-0.05-0.721c-0.77-11.288-2.49-22.072-4.944-32.301C370.329,92.611,409.65,74.35,429.672,66.479z M254.632,35.827c14.652,14.702,42.008,46.722,54.012,90.563c0.213,0.782,0.43,1.562,0.632,2.345 c0.249,0.966,0.484,1.942,0.718,2.919c0.21,0.877,0.421,1.755,0.617,2.634c0.198,0.883,0.379,1.776,0.563,2.67 c0.201,0.98,0.403,1.959,0.586,2.94c0.152,0.818,0.291,1.645,0.433,2.469c0.18,1.049,0.359,2.098,0.518,3.147 c0.122,0.803,0.228,1.613,0.338,2.421c0.145,1.066,0.293,2.131,0.417,3.197c0.1,0.86,0.181,1.73,0.267,2.596 c0.101,1.011,0.208,2.024,0.291,3.035c0.086,1.053,0.145,2.121,0.21,3.183c0.051,0.83,0.115,1.66,0.152,2.49 c0.086,1.906,0.145,3.825,0.163,5.761c0.017,1.858-0.006,3.71-0.051,5.556c-0.012,0.489-0.033,0.977-0.05,1.464 c-0.048,1.438-0.112,2.872-0.198,4.302c-0.026,0.423-0.051,0.845-0.078,1.266c-3.124,46.301-25.048,87.611-43.08,114.318V217.73 c0-8.334-6.759-15.093-15.093-15.093c-8.336,0-15.093,6.759-15.093,15.093v74.015c-18.05-26.556-39.022-66.091-42.845-110.394 c-0.039-0.465-0.075-0.93-0.112-1.395c-0.109-1.386-0.196-2.777-0.27-4.172c-0.027-0.509-0.057-1.017-0.08-1.527 c-0.08-1.829-0.137-3.663-0.154-5.506c-0.018-1.967,0.003-3.918,0.056-5.855c0.018-0.664,0.062-1.33,0.088-1.995 c0.051-1.289,0.101-2.579,0.183-3.855c0.041-0.643,0.104-1.284,0.152-1.927c0.101-1.322,0.201-2.647,0.334-3.954 c0.042-0.427,0.1-0.853,0.146-1.278c0.171-1.561,0.349-3.117,0.561-4.655c0.006-0.042,0.014-0.086,0.02-0.128 C206.375,92.109,238.424,52.744,254.632,35.827z M168.955,278.505c-25.735-18.761-58.237-47.774-76.671-84.618 c-27.61-55.185-17.292-105.03-9.954-127.431c19.885,7.786,58.83,25.832,89.85,57.352c-2.419,10.601-4.06,21.788-4.662,33.516 c-0.014,0.269-0.027,0.537-0.041,0.806c-0.069,1.472-0.121,2.952-0.157,4.44c-0.009,0.388-0.023,0.774-0.03,1.162 c-0.032,1.757-0.047,3.521-0.03,5.301c0.023,2.376,0.101,4.735,0.21,7.085c0.018,0.392,0.033,0.786,0.054,1.179 c0.121,2.33,0.282,4.649,0.481,6.953c0.02,0.222,0.042,0.444,0.062,0.667c3.207,35.553,15.603,67.825,29.658,94.087 c-0.069-0.011-0.139-0.018-0.207-0.029c-0.444-0.068-0.892-0.121-1.337-0.184c-1.13-0.158-2.262-0.305-3.399-0.427 c-0.555-0.06-1.112-0.113-1.671-0.163c-1.097-0.1-2.196-0.183-3.296-0.248c-0.504-0.03-1.008-0.066-1.514-0.089 c-1.589-0.072-3.182-0.119-4.777-0.119c-1.152,0-2.306,0.024-3.462,0.063c-0.439,0.015-0.875,0.039-1.313,0.06 c-0.706,0.032-1.411,0.068-2.118,0.115c-0.524,0.033-1.047,0.075-1.57,0.118c-0.631,0.051-1.263,0.109-1.894,0.172 c-0.522,0.051-1.044,0.106-1.565,0.164C169.388,278.461,169.171,278.479,168.955,278.505z M456.501,481.814H55.494 c-0.122-2.825-0.199-5.572-0.199-7.559c0-11.758,4.08-22.875,11.563-31.774h238.26c8.334,0,15.093-6.759,15.093-15.093 s-6.759-15.093-15.093-15.093H66.005c-2.773-4.605-4.283-9.872-4.283-15.363c0-16.498,13.422-29.919,29.919-29.919 c1.13,0,2.29,0.072,3.547,0.22c6.971,0.815,13.582-3.271,15.961-9.872c9.196-25.512,31.517-43.788,57.663-48.325 c0.654-0.112,1.309-0.22,1.964-0.314c0.328-0.048,0.657-0.094,0.986-0.136c0.871-0.113,1.743-0.216,2.616-0.297 c0.16-0.015,0.318-0.033,0.48-0.047c2.736-0.243,5.47-0.32,8.194-0.264c0.758,0.015,1.514,0.032,2.268,0.069 c0.693,0.035,1.384,0.086,2.075,0.14c0.663,0.053,1.322,0.115,1.98,0.184c0.678,0.071,1.355,0.14,2.03,0.229 c0.987,0.131,1.968,0.288,2.948,0.459c0.753,0.13,1.502,0.281,2.25,0.435c0.774,0.16,1.547,0.323,2.314,0.507 c0.568,0.136,1.133,0.281,1.698,0.429c0.844,0.222,1.681,0.462,2.515,0.714c0.436,0.131,0.875,0.255,1.31,0.395 c1.256,0.404,2.501,0.839,3.731,1.309c0.269,0.103,0.534,0.217,0.801,0.323c1.029,0.408,2.051,0.836,3.061,1.287 c0.337,0.151,0.67,0.303,1.004,0.459c1.04,0.484,2.069,0.992,3.087,1.523c0.208,0.109,0.42,0.211,0.626,0.321 c10.576,5.658,19.802,13.864,26.746,24.135c2.807,4.151,7.492,6.638,12.503,6.638s9.696-2.487,12.503-6.638 c6.944-10.269,16.169-18.475,26.745-24.134c0.21-0.113,0.424-0.216,0.637-0.326c1.01-0.528,2.03-1.031,3.064-1.512 c0.344-0.16,0.688-0.317,1.034-0.472c0.99-0.442,1.991-0.862,3-1.262c0.288-0.115,0.574-0.237,0.863-0.347 c1.218-0.465,2.451-0.895,3.695-1.295c0.462-0.149,0.93-0.281,1.395-0.42c0.8-0.241,1.604-0.471,2.413-0.685 c0.589-0.155,1.179-0.306,1.77-0.447c0.726-0.174,1.458-0.328,2.19-0.48c0.884-0.183,1.772-0.353,2.662-0.503 c0.863-0.146,1.728-0.288,2.599-0.405c0.7-0.094,1.404-0.164,2.105-0.238c0.629-0.065,1.26-0.125,1.893-0.177 c0.711-0.056,1.422-0.109,2.134-0.145c0.717-0.036,1.438-0.051,2.158-0.066c2.754-0.06,5.521,0.015,8.289,0.261 c0.152,0.014,0.305,0.03,0.457,0.045c0.88,0.083,1.76,0.186,2.638,0.3c0.322,0.042,0.643,0.086,0.964,0.133 c0.664,0.095,1.327,0.205,1.991,0.318c26.138,4.54,48.453,22.813,57.648,48.322c2.377,6.602,8.994,10.683,15.959,9.872 c1.257-0.148,2.419-0.22,3.55-0.22c16.497,0,29.917,13.422,29.917,29.919c0,7.832-3.014,15.241-8.488,20.862 c-5.785,5.941-5.695,15.436,0.202,21.263c9.489,9.38,14.714,21.88,14.714,35.197C456.702,476.242,456.625,478.989,456.501,481.814z"/> <path d="M350.391,442.489c-0.981,0-1.979-0.104-2.943-0.302c-0.966-0.196-1.918-0.481-2.822-0.859 c-0.904-0.377-1.795-0.847-2.61-1.389c-0.832-0.558-1.601-1.177-2.296-1.887c-0.694-0.694-1.328-1.466-1.872-2.296 c-0.542-0.815-1.011-1.69-1.389-2.596c-0.377-0.907-0.663-1.856-0.859-2.822c-0.198-0.966-0.302-1.962-0.302-2.943 c0-0.996,0.104-1.977,0.302-2.958c0.196-0.966,0.481-1.917,0.859-2.822c0.377-0.906,0.847-1.781,1.389-2.61 c0.543-0.83,1.177-1.601,1.872-2.296c0.694-0.694,1.464-1.328,2.296-1.87c0.815-0.543,1.706-1.013,2.61-1.39 c0.904-0.377,1.856-0.663,2.822-0.859c1.947-0.392,3.954-0.392,5.901,0c0.966,0.196,1.902,0.481,2.822,0.859 c0.906,0.377,1.781,0.847,2.596,1.39c0.83,0.542,1.6,1.176,2.294,1.87c0.711,0.694,1.33,1.466,1.887,2.296 c0.543,0.83,1.013,1.706,1.39,2.61c0.377,0.907,0.663,1.856,0.859,2.822c0.196,0.981,0.287,1.962,0.287,2.958 c0,0.981-0.092,1.979-0.287,2.943c-0.195,0.964-0.481,1.917-0.859,2.822c-0.377,0.906-0.847,1.781-1.39,2.596 c-0.557,0.83-1.176,1.601-1.887,2.296c-0.694,0.709-1.464,1.328-2.294,1.887c-0.815,0.542-1.69,1.011-2.596,1.389 c-0.921,0.377-1.856,0.663-2.822,0.859C352.367,442.385,351.387,442.489,350.391,442.489z"/> </g>
</svg>