<?xml version="1.0" encoding="iso-8859-1"?>
<!-- Uploaded to: SVG Repo, www.svgrepo.com, Generator: SVG Repo Mixer Tools -->
<svg height="800px" width="800px" version="1.1" id="Layer_1" xmlns="http://www.w3.org/2000/svg" xmlns:xlink="http://www.w3.org/1999/xlink" 
	 viewBox="0 0 512 512" xml:space="preserve">
<g>
	<path style="fill:#FECA72;" d="M136.305,119.695c0,0.315,0,0.619,0.011,0.934c-17.464-5.638-30.09-22.01-30.09-41.343
		c0-24.002,19.456-43.458,43.458-43.458c6.212,0,12.108,1.317,17.453,3.668"/>
	<path style="fill:#FECA72;" d="M362.316,35.829c-6.211,0-12.108,1.317-17.453,3.668l30.833,80.198v0.934
		c17.453-5.638,30.079-22.01,30.079-41.343C405.774,55.285,386.318,35.829,362.316,35.829z"/>
	<path style="fill:#FECA72;" d="M448.456,219.181h-72.76c0,0,0-98.552-0.011-98.552h-239.38v98.552h-72.76
		c-24.137,0-43.694,19.557-43.694,43.694s19.557,43.706,43.694,43.706h72.76v105.236h239.391V306.581h72.76
		c24.137,0,43.694-19.569,43.694-43.706S472.593,219.181,448.456,219.181z"/>
</g>
<g>
	<path style="fill:#FCE190;" d="M158.81,414.619c17.543,0,31.812,14.268,31.812,31.811s-14.268,31.812-31.812,31.812
		s-31.812-14.268-31.812-31.812S141.267,414.619,158.81,414.619z"/>
	<path style="fill:#FCE190;" d="M353.19,414.619c17.543,0,31.811,14.268,31.811,31.811s-14.268,31.812-31.811,31.812
		s-31.812-14.268-31.812-31.812S335.647,414.619,353.19,414.619z"/>
	<path style="fill:#FCE190;" d="M308.168,325.317v32.926c-12.648,11.95-20.548,28.886-20.548,47.667v40.521
		c0,7.359,1.215,14.449,3.455,21.054c-11.095,3.398-22.866,5.221-35.075,5.221c-12.209,0-23.98-1.823-35.075-5.221
		c2.239-6.605,3.455-13.695,3.455-21.054v-40.521c0-18.781-7.899-35.716-20.548-47.667v-32.926
		c0-28.807,23.361-52.168,52.168-52.168S308.168,296.51,308.168,325.317z"/>
</g>
<g>
	<path style="fill:#FFB354;" d="M167.137,39.497C189.035,15.247,220.734,0,256,0s66.965,15.247,88.863,39.497
		c19.163,21.234,30.833,49.355,30.833,80.198c0,0.315,0,0.619-0.011,0.934C375.189,186.312,321.795,239.391,256,239.391
		s-119.189-53.079-119.684-118.761c-0.011-0.315-0.011-0.619-0.011-0.934C136.305,88.852,147.974,60.72,167.137,39.497z"/>
	<path style="fill:#FFB354;" d="M224.38,405.909v40.521c0,7.359-1.215,14.449-3.455,21.054C212.159,493.365,187.662,512,158.81,512
		c-36.211,0-65.57-29.358-65.57-65.57v-40.521c0-28.312,17.937-52.427,43.064-61.609c7.022-2.566,14.606-3.961,22.505-3.961
		c17.431,0,33.286,6.808,45.022,17.903C216.48,370.193,224.38,387.128,224.38,405.909z M190.622,446.43
		c0-17.543-14.268-31.811-31.812-31.811s-31.812,14.268-31.812,31.811s14.268,31.812,31.812,31.812S190.622,463.973,190.622,446.43z
		"/>
	<path style="fill:#FFB354;" d="M375.695,344.3c25.127,9.182,43.064,33.297,43.064,61.609v40.521c0,36.211-29.358,65.57-65.57,65.57
		c-28.852,0-53.349-18.635-62.115-44.516c-2.239-6.605-3.455-13.695-3.455-21.054v-40.521c0-18.781,7.899-35.716,20.548-47.667
		c11.737-11.095,27.592-17.903,45.022-17.903C361.089,340.339,368.674,341.735,375.695,344.3z M385.002,446.43
		c0-17.543-14.268-31.811-31.811-31.811s-31.811,14.268-31.811,31.811s14.268,31.812,31.811,31.812S385.002,463.973,385.002,446.43z
		"/>
</g>
<path style="fill:#FF8468;" d="M291.268,142.12c-3.348-3.245-8.691-3.162-11.934,0.185c-2.652,2.737-7.626,6.842-14.895,8.785
	v-20.526c0-4.661-3.779-8.44-8.44-8.44c-4.661,0-8.44,3.779-8.44,8.44v20.525c-7.267-1.943-12.241-6.048-14.894-8.785
	c-3.245-3.348-8.588-3.428-11.934-0.185c-3.347,3.244-3.429,8.587-0.185,11.934c5.435,5.606,17.27,15.011,35.451,15.012
	c18.186,0,30.019-9.405,35.454-15.012C294.697,150.707,294.614,145.364,291.268,142.12z"/>
</svg>