<?xml version="1.0" encoding="iso-8859-1"?>
<!-- Uploaded to: SVG Repo, www.svgrepo.com, Generator: SVG Repo Mixer Tools -->
<svg height="800px" width="800px" version="1.1" id="Layer_1" xmlns="http://www.w3.org/2000/svg" xmlns:xlink="http://www.w3.org/1999/xlink" 
	 viewBox="0 0 512 512" xml:space="preserve">
<path style="fill:#449CC2;" d="M431.651,512H80.349c-6.361,0-11.518-5.157-11.518-11.518V11.518C68.831,5.157,73.988,0,80.349,0
	h351.301c6.361,0,11.518,5.157,11.518,11.518v488.964C443.169,506.843,438.012,512,431.651,512z"/>
<path style="fill:#81C5E0;" d="M256,512H80.349c-6.361,0-11.518-5.157-11.518-11.518V11.518C68.831,5.157,73.988,0,80.349,0H256V512
	z"/>
<path style="fill:#A1A1A1;" d="M356.783,436.269H155.217c-6.361,0-11.518-5.157-11.518-11.518V87.249
	c0-6.361,5.157-11.518,11.518-11.518h201.566c6.361,0,11.518,5.157,11.518,11.518v337.501
	C368.301,431.112,363.145,436.269,356.783,436.269z"/>
<path style="fill:#D6D6D6;" d="M256,436.269H155.217c-6.361,0-11.518-5.157-11.518-11.518V87.249
	c0-6.361,5.157-11.518,11.518-11.518H256V436.269z"/>
<path style="fill:#A1A1A1;" d="M391.337,31.985h40.313c6.361,0,11.518-5.157,11.518-11.518v-8.948
	C443.169,5.157,438.012,0,431.651,0h-40.313c-6.361,0-11.518,5.157-11.518,11.518v8.948
	C379.819,26.828,384.977,31.985,391.337,31.985z"/>
<path style="fill:#449CC2;" d="M256,336.05h-31.387c-9.542,0-17.277-7.736-17.277-17.277s7.736-17.277,17.277-17.277H256
	c7.78,0,14.11-6.329,14.11-14.11s-6.329-14.11-14.11-14.11c-26.834,0-48.664-21.83-48.664-48.664s21.83-48.664,48.664-48.664h31.387
	c9.542,0,17.277,7.736,17.277,17.277c0,9.542-7.736,17.277-17.277,17.277H256c-7.78,0-14.11,6.329-14.11,14.11
	c0,7.78,6.329,14.11,14.11,14.11c26.834,0,48.664,21.83,48.664,48.664C304.664,314.22,282.834,336.05,256,336.05z"/>
<g>
	<path style="fill:#81C5E0;" d="M256,273.277c0.188,0,0.37,0.021,0.555,0.028v-34.568c-0.185-0.002-0.369-0.014-0.555-0.014
		c-7.78,0-14.11-6.329-14.11-14.11c0-7.78,6.329-14.11,14.11-14.11h0.555v-34.554H256c-26.834,0-48.664,21.83-48.664,48.664
		S229.167,273.277,256,273.277z"/>
	<path style="fill:#81C5E0;" d="M256.555,301.468c-0.185,0.007-0.367,0.028-0.555,0.028h-31.387
		c-9.542,0-17.277,7.736-17.277,17.277c0,9.542,7.736,17.277,17.277,17.277H256c0.187,0,0.37-0.012,0.555-0.014V301.468z"/>
</g>
</svg>