<?xml version="1.0" encoding="iso-8859-1"?>
<!-- Uploaded to: SVG Repo, www.svgrepo.com, Generator: SVG Repo Mixer Tools -->
<svg height="800px" width="800px" version="1.1" id="Layer_1" xmlns="http://www.w3.org/2000/svg" xmlns:xlink="http://www.w3.org/1999/xlink" 
	 viewBox="0 0 512 512" xml:space="preserve">
<circle style="fill:#ED539D;" cx="255.957" cy="256.001" r="255.957"/>
<path style="fill:#EA348B;" d="M256.043,0.043v511.913C397.376,511.956,512,397.36,512,255.999
	C512,114.638,397.376,0.043,256.043,0.043z"/>
<g>
	<path style="fill:#FFCCE4;" d="M91.108,60.273c-5.525,4.663-10.935,9.533-16.14,14.738C32.233,117.746,7.832,171.84,1.639,227.574
		c18.414,59.912,72.713,99.191,133.06,99.754c50.728,0.474,97.772-26.436,123.081-70.403l-0.207-2.542
		c-48.73,14.105-101.281,0.846-137.485-34.69C78.229,178.612,65.8,115.145,91.108,60.273z"/>
	<path style="fill:#FFCCE4;" d="M60.23,420.848c4.663,5.525,9.533,10.935,14.738,16.14c42.736,42.736,96.829,67.136,152.563,73.329
		c59.912-18.414,99.191-72.713,99.754-133.06c0.474-50.728-26.436-97.772-70.403-123.081l-2.542,0.207
		c14.105,48.73,0.846,101.281-34.69,137.485C178.569,433.727,115.103,446.155,60.23,420.848z"/>
	<path style="fill:#FFCCE4;" d="M254.041,252.27c-12.117-48.298,2.178-99.481,37.803-134.447
		C333.948,76.498,398.12,65.43,452.72,92.357c-4.962-5.953-10.187-11.761-15.774-17.347C391.354,29.418,332.839,4.692,273.194,0.691
		c-54.588,21.829-89.174,74.361-88.639,131.739C185.014,181.911,211.507,227.342,254.041,252.27z"/>
</g>
<g>
	<path style="fill:#F7AFD1;" d="M259.686,254.084c48.298-12.117,99.481,2.178,134.447,37.803
		c41.325,42.104,52.393,106.276,25.465,160.876c5.953-4.962,11.761-10.187,17.347-15.775
		c45.593-45.593,70.318-104.108,74.32-163.753c-21.829-54.588-74.361-89.174-131.739-88.639
		C330.045,185.057,284.614,211.55,259.686,254.084z"/>
	<path style="fill:#F7AFD1;" d="M256.968,254.177l-0.926,0.076v6.298c5.564,21.943,5.564,44.477,0,65.803v171.72
		C350.636,444.435,350.87,308.229,256.968,254.177z"/>
	<path style="fill:#F7AFD1;" d="M273.235,0.691c-5.998,2.399-11.628,5.188-17.193,8.294v167.984
		c25.596-82.267,118.165-123.364,196.742-84.611C407.074,37.525,342.474,5.337,273.235,0.691z"/>
</g>
</svg>