<?xml version="1.0" encoding="iso-8859-1"?>
<!-- Uploaded to: SVG Repo, www.svgrepo.com, Generator: SVG Repo Mixer Tools -->
<svg version="1.1" id="Layer_1" xmlns="http://www.w3.org/2000/svg" xmlns:xlink="http://www.w3.org/1999/xlink" 
	 viewBox="0 0 511.992 511.992" xml:space="preserve">
<rect x="249.665" y="74.936" transform="matrix(-0.9764 -0.216 0.216 -0.9764 482.5283 348.9981)" style="fill:#A0D468;" width="21.34" height="146.391"/>
<path style="fill:#DA4453;" d="M326.65,19.57c-6.375-9.882-18.124-12.359-29.468-14.75c-1.406-0.297-2.844-0.602-4.281-0.922
	c-1.469-0.32-2.875-0.648-4.281-0.977C282.121,1.413,275.965,0,269.973,0c-14.656,0-23.977,8.57-27.719,25.468
	c-2.984,13.477-1.547,27.188,4.031,38.601c5.977,12.234,15.938,20.445,28.023,23.117c2.719,0.602,5.469,0.898,8.25,0.898
	c21.593,0,41.311-18.226,46.857-43.335C331.728,34.296,330.822,26.054,326.65,19.57z"/>
<path style="fill:#ED5564;" d="M246.285,64.069c5.977,12.234,15.938,20.445,28.023,23.117c2.719,0.602,5.469,0.898,8.25,0.898
	c21.593,0,41.311-18.226,46.857-43.335c1.75-7.898,1.656-14.531-0.297-20.102c-19.499,7.352-58.045,20.836-87.537,24.617
	C242.465,54.46,244.027,59.452,246.285,64.069z"/>
<polygon style="fill:#48CFAD;" points="201.825,109.022 221.903,237.027 290.339,237.027 310.433,109.022 "/>
<rect x="131.776" y="258.766" style="fill:#F4BE8E;" width="249.22" height="71.889"/>
<g>
	<polygon style="fill:#FFD2A6;" points="80.468,511.992 132.85,511.992 144.49,255.98 68.827,255.98 	"/>
	<polygon style="fill:#FFD2A6;" points="367.494,255.98 379.15,511.992 431.523,511.992 443.164,255.98 	"/>
</g>
<g>
	<polygon style="fill:#A85D5D;" points="79.499,490.648 80.468,511.992 132.85,511.992 133.818,490.648 	"/>
	<polygon style="fill:#A85D5D;" points="378.182,490.648 379.15,511.992 431.523,511.992 432.492,490.648 	"/>
</g>
<g>
	<path style="fill:#EAAD7A;" d="M170.662,255.98c-5.891,0-10.672,4.782-10.672,10.672v10.656c0,5.906,4.781,10.672,10.672,10.672
		c5.89,0,10.664-4.766,10.664-10.672v-10.656C181.325,260.762,176.552,255.98,170.662,255.98z"/>
	<path style="fill:#EAAD7A;" d="M213.325,255.98c-5.891,0-10.664,4.782-10.664,10.672v10.656c0,5.906,4.773,10.672,10.664,10.672
		c5.898,0,10.672-4.766,10.672-10.672v-10.656C223.996,260.762,219.223,255.98,213.325,255.98z"/>
	<path style="fill:#EAAD7A;" d="M255.996,255.98c-5.891,0-10.664,4.782-10.664,10.672v10.656c0,5.906,4.773,10.672,10.664,10.672
		c5.891,0,10.664-4.766,10.664-10.672v-10.656C266.66,260.762,261.887,255.98,255.996,255.98z"/>
	<path style="fill:#EAAD7A;" d="M298.667,255.98c-5.891,0-10.672,4.782-10.672,10.672v10.656c0,5.906,4.781,10.672,10.672,10.672
		s10.672-4.766,10.672-10.672v-10.656C309.339,260.762,304.558,255.98,298.667,255.98z"/>
	<path style="fill:#EAAD7A;" d="M341.338,255.98c-5.906,0-10.672,4.782-10.672,10.672v10.656c0,5.906,4.766,10.672,10.672,10.672
		c5.875,0,10.656-4.766,10.656-10.672v-10.656C351.994,260.762,347.213,255.98,341.338,255.98z"/>
</g>
<path style="fill:#A85D5D;" d="M469.336,213.317H42.656c-17.64,0-32,14.352-32,31.991c0,17.657,14.359,32,32,32h426.68
	c17.641,0,32-14.344,32-32C501.336,227.668,486.976,213.317,469.336,213.317z"/>
<path style="opacity:0.2;fill:#FFFFFF;enable-background:new    ;" d="M42.656,223.981h426.68c15.828,0,29,11.546,31.547,26.671
	c0.297-1.734,0.453-3.516,0.453-5.344c0-17.64-14.359-31.991-32-31.991H42.656c-17.64,0-32,14.352-32,31.991
	c0,1.828,0.164,3.609,0.453,5.344C13.656,235.527,26.828,223.981,42.656,223.981z"/>
</svg>