<?xml version="1.0" standalone="no"?><!DOCTYPE svg PUBLIC "-//W3C//DTD SVG 1.1//EN" "http://www.w3.org/Graphics/SVG/1.1/DTD/svg11.dtd"><svg t="1735877563950" class="icon" viewBox="0 0 1024 1024" version="1.1" xmlns="http://www.w3.org/2000/svg" p-id="6010" xmlns:xlink="http://www.w3.org/1999/xlink" width="200" height="200"><path d="M594.602667 182.528a25.6 25.6 0 0 1 25.6 25.6v251.434667h24.661333a162.944 162.944 0 0 1 162.986667 162.986666 25.6 25.6 0 1 1-51.2 0 111.744 111.744 0 0 0-111.786667-111.786666h-50.261333a25.6 25.6 0 0 1-25.6-25.6V208.128a25.6 25.6 0 0 1 25.6-25.6z" fill="#8A8790" p-id="6011"></path><path d="M740.352 615.552m8.533333 0l68.266667 0q8.533333 0 8.533333 8.533333l0 189.269334q0 8.533333-8.533333 8.533333l-68.266667 0q-8.533333 0-8.533333-8.533333l0-189.269334q0-8.533333 8.533333-8.533333Z" fill="#EC6D4B" p-id="6012"></path><path d="M740.352 688.896h85.333333v29.781333h-85.333333z" fill="#FFFFFF" p-id="6013"></path><path d="M178.986667 813.482667a34.133333 34.133333 0 0 1 34.133333-34.133334h600.362667a34.133333 34.133333 0 0 1 0 68.266667H213.162667a34.133333 34.133333 0 0 1-34.133334-34.133333z" fill="#52C162" p-id="6014"></path><path d="M467.114667 485.034667c-7.210667-7.168-34.389333-12.842667-67.84-7.936 30.165333 21.333333 55.466667 46.592 75.776 75.477333 4.864-33.28-0.768-60.373333-7.936-67.541333zM258.133333 694.016c7.168 7.168 34.218667 12.8 67.498667 7.978667a312.874667 312.874667 0 0 1-75.434667-75.776c-4.949333 33.408 0.725333 60.586667 7.936 67.797333z m118.826667-212.181333a175.445333 175.445333 0 0 0-122.026667 122.026666 297.514667 297.514667 0 0 0 93.184 93.44 175.445333 175.445333 0 0 0 122.24-122.24 297.386667 297.386667 0 0 0-93.397333-93.226666z m6.272 51.370666c-2.986667 1.792-5.973333 3.712-8.874667 5.674667l6.016 5.973333a6.144 6.144 0 1 1-8.661333 8.704l-7.466667-7.509333a223.530667 223.530667 0 0 0-12.714666 10.282667l8.704 8.704a6.144 6.144 0 1 1-8.661334 8.661333l-9.045333-9.002667-0.938667 0.853334a142.933333 142.933333 0 0 0-10.325333 10.88l8.789333 8.789333a6.144 6.144 0 1 1-8.661333 8.661333l-8.021333-8.064a212.864 212.864 0 0 0-9.813334 13.226667l6.357334 6.314667a6.144 6.144 0 1 1-8.661334 8.661333l-4.437333-4.437333-0.853333 1.365333c-1.536 2.56-3.072 5.162667-4.48 7.850667a6.144 6.144 0 0 1-10.837334-5.717334c2.218667-4.224 4.693333-8.362667 7.210667-12.458666l-6.784-6.784a6.144 6.144 0 0 1 8.704-8.661334l4.992 5.034667c3.114667-4.437333 6.4-8.832 9.898667-13.098667l-3.413334-3.413333a6.144 6.144 0 0 1 8.661334-8.661333l2.730666 2.688c7.296-8.106667 8.832-9.514667 10.197334-10.752l1.024-0.981334-2.432-2.432a6.144 6.144 0 1 1 8.661333-8.704l2.730667 2.773334c4.138667-3.626667 8.362667-7.04 12.672-10.325334L351.573333 533.333333a6.144 6.144 0 1 1 8.661334-8.661333l5.290666 5.290667c3.754667-2.56 7.594667-5.034667 11.477334-7.338667a6.101333 6.101333 0 1 1 6.229333 10.538667z" fill="#BF6416" p-id="6015"></path></svg>