<?xml version="1.0" encoding="iso-8859-1"?>
<!-- Uploaded to: SVG Repo, www.svgrepo.com, Generator: SVG Repo Mixer Tools -->
<svg height="800px" width="800px" version="1.1" id="Layer_1" xmlns="http://www.w3.org/2000/svg" xmlns:xlink="http://www.w3.org/1999/xlink" 
	 viewBox="0 0 512 512" xml:space="preserve">
<path style="fill:#666666;" d="M255.998,131.595c-4.64,0-8.403-3.762-8.403-8.403V95.329c-22.492-3.985-39.63-23.677-39.63-47.297
	C207.966,21.548,229.513,0,255.998,0s48.033,21.548,48.033,48.033c0,4.64-3.761,8.403-8.403,8.403c-4.642,0-8.403-3.762-8.403-8.403
	c-0.001-17.219-14.01-31.228-31.227-31.228c-17.219,0-31.228,14.009-31.228,31.228s14.008,31.228,31.228,31.228
	c4.64,0,8.403,3.762,8.403,8.403v35.53C264.4,127.833,260.639,131.595,255.998,131.595z"/>
<path style="fill:#DB4531;" d="M109.776,264.426v132.708h98.051l6.722-139.432c0-14.964-47.212-20.375-62.176-20.375h-15.498
	C121.91,237.328,109.776,249.462,109.776,264.426z"/>
<path style="fill:#DD852C;" d="M435.644,262.784H314.26c-4.642,0-8.403-3.762-8.403-8.403s3.761-8.403,8.403-8.403h121.384
	c6.904,0,13.388-2.683,18.261-7.556c4.874-4.872,7.556-11.357,7.556-18.259c0-11.08-7.047-20.908-17.535-24.455l-187.928-63.645
	L68.074,195.707c-5.154,1.742-9.544,4.991-12.7,9.398c-3.165,4.418-4.838,9.625-4.838,15.059c0,14.235,11.581,25.815,25.815,25.815
	h138.197c4.64,0,8.403,3.762,8.403,8.403s-3.762,8.403-8.403,8.403H76.352c-23.502,0-42.62-19.12-42.62-42.62
	c0-8.965,2.759-17.556,7.981-24.845c5.219-7.286,12.473-12.655,20.976-15.529l190.614-64.555c1.749-0.592,3.642-0.592,5.391,0
	l190.62,64.556c17.316,5.857,28.953,22.081,28.953,40.373c0,11.392-4.431,22.097-12.477,30.143
	C457.742,258.353,447.036,262.784,435.644,262.784z"/>
<path style="fill:#FC583D;" d="M402.215,264.425V512H179.467V264.425c0-14.968-12.133-27.101-27.09-27.101h222.748
	C390.082,237.324,402.215,249.457,402.215,264.425z"/>
<path style="fill:#DB4531;" d="M402.215,264.425v2.274H179.467v-2.274c0-14.968-12.133-27.101-27.09-27.101h222.748
	C390.082,237.324,402.215,249.457,402.215,264.425z"/>
</svg>