<?xml version="1.0" encoding="iso-8859-1"?>
<!-- Uploaded to: SVG Repo, www.svgrepo.com, Generator: SVG Repo Mixer Tools -->
<svg fill="#000000" version="1.1" id="Layer_1" xmlns="http://www.w3.org/2000/svg" xmlns:xlink="http://www.w3.org/1999/xlink" 
	 viewBox="0 0 286.154 286.154" xml:space="preserve">
<g>
	<g>
		<g>
			<path d="M276.923,249.231v-41.538h4.615v-9.231h-4.615V180h4.615v-9.231h-4.615v-9.231h4.615v-9.231h-5.751l-8.095-28.338v-13.2
				h-9.231v13.2l-8.095,28.338h-5.751v9.231h4.615v9.231h-36.923v-23.077h9.231v-9.231h-9.231v-23.077h9.231v-9.231h-18.462v-9.231
				h4.615v-9.231h-4.615V78.46h4.615v-9.231h-4.615V44.926l-18.462-32.308V0h-9.231v12.618l-18.462,32.308v24.305h-4.615v9.231
				h4.615v9.231h-4.615v9.231h4.615v9.231h-18.462v9.231h9.231v23.077h-9.231v9.231h9.231v23.077H36.923v-9.231h4.615v-9.231h-5.751
				l-8.095-28.338v-13.2h-9.231v13.2l-8.095,28.338H4.615v9.231H9.23v9.231H4.615V180H9.23v18.462H4.615v9.231H9.23v41.538H0v36.923
				h166.154h27.692h92.308v-36.923H276.923z M36.923,180h110.769v18.462H129.23v-9.231H120v9.231h-13.846v-9.231h-9.231v9.231
				H83.077v-9.231h-9.231v9.231H60v-9.231h-9.231v9.231H36.923V180z M36.923,207.692h110.769v18.462H129.23v-9.231H120v9.231
				h-13.846v-9.231h-9.231v9.231H83.077v-9.231h-9.231v9.231H60v-9.231h-9.231v9.231H36.923V207.692z M36.923,235.384h110.769
				v13.846H129.23v-4.615H120v4.615h-13.846v-4.615h-9.231v4.615H83.077v-4.615h-9.231v4.615H60v-4.615h-9.231v4.615H36.923V235.384
				z M23.077,141.415l3.111,10.892h-6.222L23.077,141.415z M18.462,161.538h9.231v9.231h-9.231V161.538z M18.462,180h9.231v18.462
				h-9.231V180z M18.462,207.692h9.231v41.538h-9.231V207.692z M147.693,276.924h-9.231v-9.231h-9.231v9.231H120v-9.231h-9.231
				v9.231h-9.231v-9.231h-9.231v9.231h-9.231v-9.231h-9.231v9.231h-9.231v-9.231h-9.231v9.231h-9.231v-9.231h-9.231v9.231H27.69
				v-9.231h-9.231v9.231H9.231v-18.462h138.462V276.924z M263.077,141.415l3.111,10.892h-6.226L263.077,141.415z M258.462,161.538
				h9.231v9.231h-9.231V161.538z M258.461,180h9.231v18.462h-9.231V180z M258.461,207.693h9.231v41.538h-9.231V207.693z
				 M212.307,180h36.924v18.462H240v-9.231h-9.231v9.231h-18.462V180z M212.307,207.692h36.924v18.462H240v-9.231h-9.231v9.231
				h-18.462V207.692z M212.307,235.384h36.923v13.846H240v-4.615h-9.231v4.615h-18.462V235.384z M180,23.151l10.509,18.387h-21.018
				L180,23.151z M166.154,50.769h27.692v18.462h-27.692V50.769z M166.154,78.462h27.692v27.692h-27.692V78.462z M184.616,276.923
				h-9.231v-9.231h9.231V276.923z M203.077,276.924h-9.231v-18.462h-27.692v18.462h-9.231v-27.692h46.154V276.924z M203.077,240
				h-18.462v-4.615h-9.23V240h-18.462v-32.308h46.154V240z M203.077,198.462h-18.462v-9.231h-9.231v9.231h-18.462V180h46.155
				V198.462z M203.077,170.769h-18.462v-13.846h-9.231v13.846h-18.462v-23.077h0.001h46.154V170.769z M203.077,138.462h-18.462
				v-13.846h-9.231v13.846h-18.462v-23.077h0.001h46.154V138.462z M267.692,276.923v-9.231h-9.231v9.231h-9.231v-9.231H240v9.231
				h-9.231v-9.231h-9.231v9.231h-9.231v-18.462h64.615v18.462H267.692z"/>
			<rect x="175.385" y="87.692" width="9.231" height="9.231"/>
			<rect x="175.385" y="216.923" width="9.231" height="9.231"/>
		</g>
	</g>
</g>
</svg>