<?xml version="1.0" encoding="iso-8859-1"?>
<!-- Uploaded to: SVG Repo, www.svgrepo.com, Generator: SVG Repo Mixer Tools -->
<svg version="1.1" id="Layer_1" xmlns="http://www.w3.org/2000/svg" xmlns:xlink="http://www.w3.org/1999/xlink" 
	 viewBox="0 0 512 512" xml:space="preserve">
<path style="fill:#F2F2F2;" d="M436.873,348.19c0-99.893-80.979-180.873-180.873-180.873S75.127,248.297,75.127,348.19"/>
<path style="fill:#E6E6E6;" d="M278.587,168.719c-7.4-0.922-14.937-1.402-22.587-1.402c-99.893,0-180.873,80.979-180.873,180.873
	h45.174C120.301,255.947,189.355,179.836,278.587,168.719z"/>
<path style="fill:#76C7F4;" d="M452.845,348.194v23.063c0,13.217-10.703,23.92-23.92,23.92H83.07
	c-13.205,0-23.92-10.703-23.92-23.92v-23.063H452.845z"/>
<g>
	<path style="fill:#68B9DD;" d="M97.09,371.259V348.19H59.152v23.069c0,13.211,10.709,23.92,23.92,23.92h37.938
		C107.799,395.179,97.09,384.47,97.09,371.259z"/>
	<rect x="59.146" y="348.195" style="fill:#68B9DD;" width="393.696" height="15.638"/>
</g>
<rect y="339.507" style="fill:#76C7F4;" width="512" height="17.376"/>
<rect y="339.507" style="fill:#68B9DD;" width="75.127" height="17.376"/>
<path style="fill:#E6E6E6;" d="M277.005,137.822c0,9.163-5.873,16.959-14.051,19.831c-2.178,0.765-4.518,1.182-6.95,1.182
	c-11.607,0-21.013-9.406-21.013-21.013c0-11.595,9.406-21.001,21.013-21.001c2.433,0,4.772,0.417,6.95,1.182
	C271.132,120.875,277.005,128.659,277.005,137.822z"/>
<path style="fill:#F2F2F2;" d="M277.005,137.822c0,9.163-5.873,16.959-14.051,19.831c-8.19-2.861-14.063-10.657-14.063-19.831
	c0-9.163,5.873-16.959,14.063-19.82C271.132,120.875,277.005,128.659,277.005,137.822z"/>
</svg>