<?xml version="1.0" encoding="iso-8859-1"?>
<!-- Generator: Adobe Illustrator 19.0.0, SVG Export Plug-In . SVG Version: 6.00 Build 0)  -->
<svg version="1.1" id="Layer_1" xmlns="http://www.w3.org/2000/svg" xmlns:xlink="http://www.w3.org/1999/xlink" x="0px" y="0px"
	 viewBox="0 0 503.467 503.467" style="enable-background:new 0 0 503.467 503.467;" xml:space="preserve">
<g transform="translate(5 1)">
	<path style="fill:#F2EDDA;" d="M289.4,310.406v51.2h-25.6c-15.36,0-29.867-4.267-42.667-10.24l0,0v-40.96v-34.133
		c0,0,0-34.133,34.133-34.133s34.133,34.133,34.133,34.133V310.406z"/>
	<path style="fill:#FFD0A1;" d="M391.8,293.339v-68.267h-34.133h-34.133v68.267h34.133H391.8z M460.067,173.873h-34.133v187.733
		h-51.2H289.4v-51.2v-34.133c0,0,0-34.133-34.133-34.133c0-22.187,40.107-34.987,40.107-34.987
		c17.067-14.507,28.16-35.84,28.16-59.733c0-8.533-0.853-16.213-3.413-23.893l3.413-0.853h136.533V173.873z"/>
	<path style="fill:#F2EDDA;" d="M357.667,293.339H391.8v-68.267h-34.133V293.339z M323.533,293.339h34.133v-68.267h-34.133V293.339z
		"/>
	<path style="fill:#AE938D;" d="M221.133,464.006v33.28h-51.2V352.219l1.707-0.853c0,0,13.653-5.12,25.6-16.213l0.853-0.853
		c6.827,6.827,14.507,12.8,23.04,17.067v44.373v34.133L221.133,464.006L221.133,464.006z"/>
	<rect x="221.133" y="353.073" style="fill:#F2EDDA;" width="68.267" height="145.067"/>
	<path style="fill:#50DD8E;" d="M82.04,184.966l-0.853-2.56c-8.533-9.387-12.8-23.893-12.8-23.893
		c-0.853-7.68-0.853-16.213,0.853-24.747c5.973-34.987,34.987-59.733,68.267-63.147v-0.853c-1.707-11.093,1.707-27.307,1.707-27.307
		c6.827-20.48,23.893-35.84,46.933-39.253c32.427-5.12,62.293,17.067,67.413,49.493c0.853,5.973,0.853,12.8,0,18.773h1.707
		c14.507,0,24.747,5.973,24.747,5.973c18.773,9.387,33.28,25.6,39.253,46.08c2.56,7.68,3.413,15.36,3.413,23.893
		c0,23.893-11.093,46.08-28.16,59.733c0,0-40.107,12.8-40.107,34.987c-34.133,0-34.133,34.133-34.133,34.133v34.133v40.96l0,0
		c-8.533-4.267-16.213-10.24-23.04-17.067l-0.853,0.853c-11.947,11.093-25.6,16.213-25.6,16.213l-1.707,0.853
		c-12.8,6.827-26.453,8.533-42.667,8.533c-52.053,0-93.867-41.813-93.867-93.867C33.4,231.899,53.027,200.326,82.04,184.966"/>
</g>
<path style="fill:#51565F;" d="M379.733,503.406c-0.853,0-1.707,0-2.56-0.853h-81.067c-1.707,0.853-3.413,0.853-4.267,0H89.6
	c-2.56,0-4.267-1.707-4.267-4.267c0-2.56,1.707-4.267,4.267-4.267h81.067V360.046c-12.8,5.12-26.453,5.973-38.4,5.973
	c-53.76,0-98.133-44.373-98.133-98.133c0-43.52,29.013-82.773,71.68-94.72c2.56-0.853,4.267,0.853,5.12,2.56
	c0.853,2.56-0.853,4.267-2.56,5.12c-38.4,11.093-64.853,46.08-64.853,86.187c0,49.493,40.107,89.6,89.6,89.6
	c12.8,0,27.307-0.853,40.96-7.68c1.707-0.853,2.56-0.853,4.267,0c0.853,0.853,1.707,2.56,1.707,3.413v140.8h42.667V354.073
	c-17.067-9.387-31.573-23.893-40.107-41.813c-0.853-1.707,0-4.267,1.707-5.973c1.707-0.853,4.267,0,5.973,1.707
	c8.533,17.067,22.187,30.72,37.547,39.253c0.853,0,1.707,0.853,2.56,0.853c11.947,5.973,25.6,9.387,39.253,9.387h21.333V314.82
	h-4.267c-2.56,0-4.267-1.707-4.267-4.267c0-2.56,1.707-4.267,4.267-4.267h4.267v-29.014c0-0.853-0.853-29.867-29.867-29.867
	c-29.867,0-29.867,29.013-29.867,29.867v34.133c0,2.56-1.707,4.267-4.267,4.267c-2.56,0-4.267-1.707-4.267-4.267v-34.133
	c0-13.653,7.68-38.4,38.4-38.4s38.4,24.747,38.4,38.4v81.067h128v-179.2h-98.987c-0.853,0-0.853,0-1.707,0
	c-5.12,12.8-13.653,23.893-23.893,32.427c-1.707,1.707-4.267,0.853-5.973-0.853c-1.707-1.707-0.853-4.267,0.853-5.973
	c17.067-13.653,27.307-34.133,27.307-56.32c0-28.16-15.36-53.76-40.107-65.707c-1.707-0.853-3.413-3.413-1.707-5.973
	c0.853-2.56,3.413-3.413,5.973-1.707c18.773,9.387,33.28,24.747,40.107,44.373h0.853h136.533c2.56,0,4.267,1.707,4.267,4.267v51.2
	c0,2.56-1.707,4.267-4.267,4.267h-29.867v183.467c0,2.56-1.707,4.267-4.267,4.267h-46.933v127.147h64
	c2.56,0,4.267,1.707,4.267,4.267c0,2.56-1.707,4.267-4.267,4.267H384C381.44,503.406,380.587,503.406,379.733,503.406z
	 M298.667,494.019h76.8V366.873H268.8c-13.653,0-26.453-2.56-38.4-7.68v33.28h64c2.56,0,4.267,1.707,4.267,4.267V494.019z
	 M230.4,494.019h59.733v-24.747H230.4V494.019z M230.4,460.739h59.733v-25.6H230.4V460.739z M230.4,426.606h59.733v-25.6H230.4
	V426.606z M430.933,170.606H460.8v-42.667h-42.667v42.667H430.933z M366.933,170.606H409.6v-42.667h-42.667V170.606z
	 M329.387,170.606H358.4v-42.667h-28.16c1.707,6.827,2.56,13.653,2.56,20.48C332.8,156.099,331.947,163.779,329.387,170.606z
	 M499.2,502.553h-17.067c-2.56,0-4.267-1.707-4.267-4.267c0-2.56,1.707-4.267,4.267-4.267H499.2c2.56,0,4.267,1.707,4.267,4.267
	C503.467,500.846,501.76,502.553,499.2,502.553z M55.467,502.553h-51.2c-2.56,0-4.267-1.707-4.267-4.267
	c0-2.56,1.707-4.267,4.267-4.267h51.2c2.56,0,4.267,1.707,4.267,4.267C59.733,500.846,58.027,502.553,55.467,502.553z
	 M396.8,298.606h-68.267c-2.56,0-4.267-1.707-4.267-4.267v-68.267c0-2.56,1.707-4.267,4.267-4.267H396.8
	c2.56,0,4.267,1.707,4.267,4.267v68.267C401.067,296.899,399.36,298.606,396.8,298.606z M366.933,290.073h25.6v-59.733h-25.6
	V290.073z M332.8,290.073h25.6v-59.733h-25.6V290.073z M73.387,163.779c-1.707,0-4.267-1.707-4.267-3.413
	c-0.853-8.533-0.853-17.067,0.853-25.6c3.413-21.333,15.36-40.107,33.28-52.053c17.92-12.8,39.253-17.067,60.587-13.653
	c2.56,0,4.267,2.56,3.413,5.12c0,2.56-2.56,4.267-5.12,3.413c-18.773-3.413-38.4,0.853-54.613,11.947s-26.453,28.16-29.867,46.933
	c-1.707,7.68-1.707,15.36-0.853,23.04C77.653,161.219,75.947,163.779,73.387,163.779L73.387,163.779z M251.733,97.219
	c-0.853,0-1.707,0-2.56-0.853c-1.707-0.853-2.56-3.413-1.707-5.973c6.827-11.093,8.533-23.893,6.827-36.693
	c-2.56-14.507-10.24-27.307-22.187-35.84c-11.947-8.533-26.453-11.947-40.96-9.387c-20.48,3.413-37.547,17.067-43.52,36.693
	c-0.853,2.56-3.413,3.413-5.12,2.56c-2.56-0.853-3.413-3.413-2.56-5.12c7.68-22.187,26.453-38.4,50.347-41.813
	c17.067-2.56,33.28,1.707,46.933,11.093c13.653,10.24,23.04,24.747,25.6,40.96c2.56,14.507-0.853,29.867-7.68,41.813
	C254.293,96.366,252.587,97.219,251.733,97.219z"/>
<g>
</g>
<g>
</g>
<g>
</g>
<g>
</g>
<g>
</g>
<g>
</g>
<g>
</g>
<g>
</g>
<g>
</g>
<g>
</g>
<g>
</g>
<g>
</g>
<g>
</g>
<g>
</g>
<g>
</g>
</svg>
