<?xml version="1.0" encoding="iso-8859-1"?>
<!-- Generator: Adobe Illustrator 19.0.0, SVG Export Plug-In . SVG Version: 6.00 Build 0)  -->
<svg version="1.1" id="Layer_1" xmlns="http://www.w3.org/2000/svg" xmlns:xlink="http://www.w3.org/1999/xlink" x="0px" y="0px"
	 viewBox="0 0 512.001 512.001" style="enable-background:new 0 0 512.001 512.001;" xml:space="preserve">
<rect x="134.792" y="10.449" style="fill:#042431;" width="242.416" height="44.931"/>
<g>
	<polygon style="fill:#074761;" points="256.001,55.38 256.001,237.192 332.278,501.551 430.498,501.551 430.498,174.498 
		377.209,55.38 	"/>
	<polygon style="fill:#074761;" points="256.001,55.38 256.001,237.192 179.723,501.551 81.503,501.551 81.503,174.498 
		134.792,55.38 	"/>
</g>
<g>
	<path style="fill:#042431;" d="M430.461,174.414L377.209,55.38H339.82C342.98,112.006,380.246,159.054,430.461,174.414z"/>
	<path style="fill:#042431;" d="M81.54,174.414L134.792,55.38h37.389C169.021,112.006,131.755,159.054,81.54,174.414z"/>
</g>
<path d="M392.098,306.198c-5.77,0-10.449,4.678-10.449,10.449v4.678c0,5.771,4.679,10.449,10.449,10.449s10.449-4.678,10.449-10.449
	v-4.678C402.547,310.876,397.868,306.198,392.098,306.198z"/>
<path d="M392.098,344.679c-5.77,0-10.449,4.678-10.449,10.449V456.62c0,5.771,4.679,10.449,10.449,10.449
	s10.449-4.678,10.449-10.449V355.128C402.547,349.357,397.868,344.679,392.098,344.679z"/>
<path d="M440.036,170.232L387.658,53.15V10.449C387.658,4.678,382.979,0,377.209,0H134.792c-5.77,0-10.449,4.678-10.449,10.449
	V53.15L71.965,170.232c-0.601,1.342-0.911,2.796-0.911,4.266v327.053c0,5.771,4.679,10.449,10.449,10.449h98.22
	c4.655,0,8.749-3.079,10.039-7.553l66.238-229.563l66.238,229.564c1.29,4.472,5.384,7.553,10.039,7.553h98.22
	c5.77,0,10.449-4.678,10.449-10.449V174.498C440.947,173.028,440.637,171.573,440.036,170.232z M370.437,65.829l39.499,88.293
	c-31.236-18.136-53.174-50.738-58.583-88.293H370.437z M145.241,20.898H366.76v24.033H145.241V20.898z M141.564,65.829h19.084
	c-5.409,37.555-27.347,70.157-58.582,88.293L141.564,65.829z M171.862,491.102H91.952V181.89
	c48.41-17.976,83.217-63.06,89.761-116.061h63.839v169.886L171.862,491.102z M340.138,491.102l-70.225-243.383
	c2.249-0.18,4.479-0.513,6.663-1.032c5.614-1.334,9.083-6.968,7.749-12.583c-1.333-5.614-6.974-9.081-12.582-7.749
	c-1.722,0.41-3.502,0.618-5.293,0.623V65.829h22.965v7.053c0,5.771,4.679,10.449,10.449,10.449c5.771,0,10.449-4.678,10.449-10.449
	v-7.053h19.975c6.545,53.001,41.351,98.086,89.761,116.061v309.212H340.138z"/>
<path d="M299.863,143.208c-5.77,0-10.449,4.678-10.449,10.449v14.255c0,5.771,4.679,10.449,10.449,10.449
	c5.771,0,10.449-4.678,10.449-10.449v-14.255C310.312,147.886,305.634,143.208,299.863,143.208z"/>
<path d="M299.863,95.693c-5.77,0-10.449,4.678-10.449,10.449v14.254c0,5.771,4.679,10.449,10.449,10.449
	c5.771,0,10.449-4.678,10.449-10.449v-14.254C310.312,100.372,305.634,95.693,299.863,95.693z"/>
<path d="M299.863,190.723c-5.77,0-10.449,4.678-10.449,10.449v2.774c0,2.664-0.448,5.27-1.331,7.745
	c-1.939,5.435,0.892,11.413,6.328,13.354c1.161,0.414,2.347,0.611,3.513,0.611c4.291,0,8.315-2.666,9.841-6.939
	c1.691-4.735,2.547-9.705,2.547-14.771v-2.774C310.312,195.401,305.634,190.723,299.863,190.723z"/>
<g>
</g>
<g>
</g>
<g>
</g>
<g>
</g>
<g>
</g>
<g>
</g>
<g>
</g>
<g>
</g>
<g>
</g>
<g>
</g>
<g>
</g>
<g>
</g>
<g>
</g>
<g>
</g>
<g>
</g>
</svg>
