<?xml version="1.0" encoding="iso-8859-1"?>
<!-- Uploaded to: SVG Repo, www.svgrepo.com, Generator: SVG Repo Mixer Tools -->
<!DOCTYPE svg PUBLIC "-//W3C//DTD SVG 1.1//EN" "http://www.w3.org/Graphics/SVG/1.1/DTD/svg11.dtd">
<svg xmlns="http://www.w3.org/2000/svg" xmlns:xlink="http://www.w3.org/1999/xlink" version="1.1" id="Layer_1"  width="512" height="512" viewBox="0 0 330 330" xml:space="preserve">
<g>
	<path style="fill:#FF7D54;" d="M280,215.002c0-3.509-0.178-6.985-0.488-10.429c-0.026-0.288-0.051-0.575-0.079-0.863   c-3.997-40.815-29.437-76.41-66.721-93.374l7.245-94.186c0.321-4.166-1.109-8.277-3.949-11.343C213.169,1.744,209.18,0,205.002,0   H165h-39.998c-4.178,0-8.167,1.744-11.006,4.809c-2.84,3.065-4.271,7.177-3.95,11.343l7.245,94.184   c-37.286,16.966-62.728,52.563-66.725,93.38c-0.027,0.284-0.051,0.571-0.078,0.856C50.178,208.016,50,211.493,50,215.002   c0,37.896,18.43,71.564,46.791,92.526c-1.268,2.202-2.005,4.748-2.005,7.471c0,8.285,6.716,15,15,15H165h55.213   c8.284,0,15-6.715,15-15c0-2.723-0.736-5.269-2.006-7.47C261.57,286.567,280,252.898,280,215.002z"/>
	<path style="fill:#FF4B0C;" d="M280,215.002c0-3.509-0.178-6.985-0.488-10.429c-0.026-0.288-0.051-0.575-0.079-0.863   c-3.997-40.815-29.437-76.41-66.721-93.374l7.245-94.186c0.321-4.166-1.109-8.277-3.949-11.343C213.169,1.744,209.18,0,205.002,0   H165v213.787V250v80h55.213c8.284,0,15-6.715,15-15c0-2.723-0.736-5.269-2.006-7.47C261.57,286.567,280,252.898,280,215.002z"/>
	<path style="fill:#FF511F;" d="M279.512,204.573c-0.026-0.288-0.051-0.575-0.079-0.863c-0.392-3.208-1.804-6.314-4.266-8.777   c-5.856-5.86-15.354-5.862-21.214-0.006l-18.873,18.863l-24.434-24.429c-5.857-5.855-15.352-5.857-21.21-0.001L165,213.787   l-0.004,0.003l-24.434-24.428c-5.857-5.855-15.353-5.857-21.209-0.001l-24.443,24.43l-18.862-18.859   c-5.857-5.857-15.356-5.856-21.213,0.002c-2.463,2.463-3.876,5.571-4.269,8.781c-0.027,0.284-0.051,0.571-0.078,0.856   c-0.268,4.155,1.172,8.4,4.349,11.576l29.466,29.461c5.857,5.856,15.354,5.857,21.209,0.001l24.443-24.43l24.434,24.429   c2.93,2.93,6.771,4.394,10.611,4.392c3.836-0.001,7.672-1.464,10.599-4.391l24.44-24.43l24.434,24.429   c2.929,2.929,6.767,4.393,10.605,4.392c3.837,0,7.676-1.463,10.604-4.389l29.479-29.464   C278.338,212.972,279.777,208.728,279.512,204.573z"/>
	<path style="fill:#FF2300;" d="M279.512,204.573c-0.026-0.288-0.051-0.575-0.079-0.863c-0.392-3.208-1.804-6.314-4.266-8.777   c-5.856-5.86-15.354-5.862-21.214-0.006l-18.873,18.863l-24.434-24.429c-5.857-5.855-15.352-5.857-21.21-0.001L165,213.787V250   c3.836-0.001,7.672-1.464,10.599-4.391l24.44-24.43l24.434,24.429c2.929,2.929,6.767,4.393,10.605,4.392   c3.837,0,7.676-1.463,10.604-4.389l29.479-29.464C278.338,212.972,279.777,208.728,279.512,204.573z"/>
</g>















</svg>