<?xml version="1.0" encoding="iso-8859-1"?>
<!-- Generator: Adobe Illustrator 19.0.0, SVG Export Plug-In . SVG Version: 6.00 Build 0)  -->
<svg version="1.1" id="Layer_1" xmlns="http://www.w3.org/2000/svg" xmlns:xlink="http://www.w3.org/1999/xlink" x="0px" y="0px"
	 viewBox="0 0 512 512" style="enable-background:new 0 0 512 512;" xml:space="preserve">
<path style="fill:#FF4328;" d="M300.084,90.157H214.67c-6.115,0-11.073-4.957-11.073-11.073V11.073
	C203.598,4.957,208.555,0,214.67,0h85.414c6.115,0,11.073,4.957,11.073,11.073v68.01C311.157,85.199,306.199,90.157,300.084,90.157z
	"/>
<path style="fill:#FF7B00;" d="M275.328,89.043H239.25V0h36.078V89.043z"/>
<path style="fill:#F4BB19;" d="M378.493,512H133.507c-6.115,0-11.073-4.957-11.073-11.073V78.62c0-6.115,4.957-11.073,11.073-11.073
	h244.984c6.115,0,11.073,4.957,11.073,11.073v422.308C389.565,507.042,384.608,512,378.493,512z"/>
<path style="fill:#FF7B00;" d="M209.782,359.47c0,4.917-3.946,8.904-8.813,8.904h-2.16c-4.867,0-8.813-3.987-8.813-8.904
	c0-4.917,3.946-8.904,8.813-8.904h2.16C205.836,350.565,209.782,354.551,209.782,359.47z M199.891,313.638
	c4.867,0,8.813-3.987,8.813-8.904v-2.586c0-4.917-3.946-8.904-8.813-8.904s-8.813,3.987-8.813,8.904v2.586
	C191.08,309.651,195.024,313.638,199.891,313.638z M199.891,405.303c-4.867,0-8.813,3.987-8.813,8.904v2.584
	c0,4.917,3.946,8.904,8.813,8.904s8.813-3.987,8.813-8.904v-2.584C208.705,409.288,204.759,405.303,199.891,405.303z
	 M256.617,350.565h-2.556c-4.867,0-8.813,3.987-8.813,8.904c0,4.917,3.946,8.904,8.813,8.904h2.556c4.867,0,8.813-3.987,8.813-8.904
	C265.43,354.552,261.484,350.565,256.617,350.565z M166.004,312.637c-3.443-3.476-9.022-3.474-12.463,0.004
	c-3.439,3.478-3.438,9.117,0.004,12.593l1.813,1.83c1.721,1.737,3.975,2.606,6.229,2.606c2.256,0,4.512-0.87,6.234-2.61
	c3.439-3.478,3.438-9.117-0.004-12.593L166.004,312.637z M244.419,391.875c-3.443-3.476-9.022-3.474-12.463,0.004
	c-3.439,3.478-3.438,9.117,0.004,12.593l1.813,1.83c1.721,1.737,3.975,2.606,6.229,2.606c2.256,0,4.512-0.87,6.234-2.61
	c3.439-3.478,3.438-9.117-0.004-12.593L244.419,391.875z M155.359,391.873l-1.813,1.83c-3.443,3.476-3.445,9.114-0.004,12.593
	c1.721,1.74,3.978,2.61,6.234,2.61c2.254,0,4.509-0.868,6.229-2.606l1.813-1.83c3.443-3.476,3.445-9.114,0.004-12.593
	C164.382,388.398,158.801,388.397,155.359,391.873z M238.19,329.669c2.254,0,4.509-0.869,6.229-2.606l1.813-1.83
	c3.443-3.476,3.445-9.114,0.004-12.593c-3.44-3.478-9.02-3.48-12.463-0.004l-1.813,1.83c-3.443,3.476-3.445,9.114-0.004,12.593
	C233.677,328.799,235.933,329.669,238.19,329.669z"/>
<path style="fill:#697335;" d="M389.565,78.677V500.87c0,6.147-4.932,11.13-11.016,11.13H133.451
	c-6.084,0-11.016-4.983-11.016-11.13v-69.08c18.763,19.927,45.261,32.349,74.632,32.349c56.883,0,102.997-46.593,102.997-104.07
	S253.95,256,197.067,256c-29.37,0-55.868,12.423-74.632,32.35V78.677c0-6.147,4.932-11.13,11.016-11.13h176.08
	c-6.953,16.174-37.964,77.397-37.964,87.117c0,21.074,16.847,38.61,38.213,38.61c21.363,0,38.213-17.536,38.213-38.61
	c0-9.72-31.01-70.943-37.964-87.117h68.52C384.633,67.546,389.565,72.53,389.565,78.677z"/>
<g>
</g>
<g>
</g>
<g>
</g>
<g>
</g>
<g>
</g>
<g>
</g>
<g>
</g>
<g>
</g>
<g>
</g>
<g>
</g>
<g>
</g>
<g>
</g>
<g>
</g>
<g>
</g>
<g>
</g>
</svg>
