<?xml version="1.0" encoding="iso-8859-1"?>
<!-- Uploaded to: SVG Repo, www.svgrepo.com, Generator: SVG Repo Mixer Tools -->
<svg version="1.1" id="Layer_1" xmlns="http://www.w3.org/2000/svg" xmlns:xlink="http://www.w3.org/1999/xlink" 
	 viewBox="0 0 511.986 511.986" xml:space="preserve">
<g>
	<rect x="170.666" y="31.998" style="fill:#FFD2A6;" width="341.32" height="63.999"/>
	<rect x="170.666" y="330.668" style="fill:#FFD2A6;" width="341.32" height="149.32"/>
</g>
<rect y="31.998" style="fill:#A85D5D;" width="192" height="447.99"/>
<g>
	<path style="fill:#434A54;" d="M255.996,117.344c-5.875,0-10.656-4.781-10.656-10.671V85.345c0-5.891,4.781-10.672,10.656-10.672
		c5.906,0,10.672,4.781,10.672,10.672v21.328C266.668,112.563,261.902,117.344,255.996,117.344z"/>
	<path style="fill:#434A54;" d="M319.994,117.344c-5.874,0-10.655-4.781-10.655-10.671V85.345c0-5.891,4.781-10.672,10.655-10.672
		c5.906,0,10.672,4.781,10.672,10.672v21.328C330.666,112.563,325.9,117.344,319.994,117.344z"/>
	<path style="fill:#434A54;" d="M383.994,117.344c-5.875,0-10.656-4.781-10.656-10.671V85.345c0-5.891,4.781-10.672,10.656-10.672
		c5.906,0,10.672,4.781,10.672,10.672v21.328C394.666,112.563,389.9,117.344,383.994,117.344z"/>
	<path style="fill:#434A54;" d="M447.992,117.344c-5.875,0-10.656-4.781-10.656-10.671V85.345c0-5.891,4.781-10.672,10.656-10.672
		c5.906,0,10.672,4.781,10.672,10.672v21.328C458.664,112.563,453.898,117.344,447.992,117.344z"/>
	<path style="fill:#434A54;" d="M149.341,287.998c-5.891,0-10.671-4.766-10.671-10.656v-42.671c0-5.89,4.78-10.671,10.671-10.671
		s10.656,4.781,10.656,10.671v42.671C159.997,283.232,155.231,287.998,149.341,287.998z"/>
	<path style="fill:#434A54;" d="M362.666,383.996h-42.672c-5.874,0-10.655-4.766-10.655-10.656s4.781-10.672,10.655-10.672h42.672
		c5.891,0,10.672,4.781,10.672,10.672S368.557,383.996,362.666,383.996z"/>
</g>
<path style="fill:#DA4453;" d="M446.336,154.297c-0.359-0.578-8.938-14.031-20.108-27.703
	c-17.047-20.875-30.468-30.593-42.233-30.593c-11.75,0-25.172,9.719-42.219,30.593c-11.172,13.671-19.75,27.125-20.109,27.703
	l-1.672,2.609v126.357l5.031,3.125c2.031,1.266,20.844,12.281,58.969,12.281c38.14,0,56.951-11.016,58.967-12.281l5.031-3.125
	V156.906L446.336,154.297z"/>
<g>
	<path style="fill:#ED5564;" d="M357.291,296.67L357.291,296.67c26.953-79.093,7.375-167.357,6.719-170.107l-4.406-18.875
		c-3.031,2.625-6.203,5.734-9.5,9.296c-1.312,1.422-2.656,2.906-4.016,4.484c-0.078,0.078-0.156,0.172-0.234,0.266
		c-0.547,0.641-1.109,1.297-1.672,1.969c-0.156,0.172-0.297,0.344-0.453,0.531c-0.641,0.766-1.297,1.547-1.953,2.359
		c-11.172,13.671-19.75,27.125-20.109,27.703l-1.672,2.609v126.357l5.031,3.125C326.51,287.31,336.932,293.42,357.291,296.67z"/>
	<path style="fill:#ED5564;" d="M410.712,296.67L410.712,296.67c-26.952-79.093-7.375-167.357-6.719-170.107l4.406-18.875
		c3.031,2.625,6.203,5.734,9.5,9.296c1.312,1.422,2.656,2.906,4.016,4.484c0.078,0.078,0.156,0.172,0.234,0.266
		c0.547,0.641,1.109,1.297,1.672,1.969c0.156,0.172,0.297,0.344,0.453,0.531c0.656,0.766,1.297,1.547,1.953,2.359
		c11.171,13.671,19.749,27.125,20.108,27.703l1.656,2.609v126.357l-5.031,3.125C441.492,287.31,431.07,293.42,410.712,296.67z"/>
</g>
</svg>