<?xml version="1.0" encoding="utf-8"?>
<!-- Uploaded to: SVG Repo, www.svgrepo.com, Generator: SVG Repo Mixer Tools -->
<svg width="800px" height="800px" viewBox="0 0 1024 1024" class="icon"  version="1.1" xmlns="http://www.w3.org/2000/svg"><path d="M896 725.333333H128V170.666667s0-64 64-64 234.666667 64 362.666667 64 213.333333-64 277.333333-64 64 64 64 64v554.666666z" fill="#546E7A" /><path d="M697.621333 531.968C688.256 314.112 660.693333 156.330667 660.693333 156.330667c-0.064 0.789333-16.256 185.877333-4.074666 410.965333h0.064C899.562667 612.437333 896 720.106667 896 725.333333v-95.552c-41.429333-43.392-110.976-77.674667-198.378667-97.813333zM320.832 577.450667s0.021333 0 0 0c4.501333-270.336 101.397333-421.312 102.101333-422.421334C384 192 291.008 323.925333 279.445333 544.576c-65.429333 20.565333-117.738667 49.877333-151.445333 85.205333V725.333333c0-5.333333-5.333333-94.677333 192.746667-147.861333l0.085333-0.021333z" fill="#37474F" /><path d="M267.733333 598.101333l1.514667-17.344c0.170667-5.098667 0.810667-9.962667 0.682667-15.402666 0.213333-10.709333-0.32-21.44-1.429334-32.170667a240.448 240.448 0 0 0-15.509333-63.338667c-8.021333-20.629333-19.2-40.362667-32.981333-58.602666C206.165333 393.152 189.909333 376.213333 170.666667 362.666667c21.888 8.896 42.218667 22.08 60.885333 37.525333a267.434667 267.434667 0 0 1 49.6 54.442667 282.346667 282.346667 0 0 1 34.090667 67.584c4.16 12.074667 7.68 24.448 10.368 37.013333 1.536 6.144 2.410667 13.013333 3.605333 19.584l2.517333 17.749333-64 1.536zM649.6 596.565333l2.517333-17.749333c1.194667-6.570667 2.069333-13.44 3.605334-19.584a318.08 318.08 0 0 1 10.368-37.013333c8.448-24.128 19.84-47.04 34.090666-67.584a266.88 266.88 0 0 1 49.6-54.442667c18.666667-15.445333 38.997333-28.629333 60.885334-37.525333-19.242667 13.546667-35.498667 30.485333-49.344 48.597333a244.181333 244.181333 0 0 0-48.490667 121.941333 257.877333 257.877333 0 0 0-1.429333 32.170667c-0.128 5.44 0.512 10.282667 0.682666 15.402667l1.514667 17.344-64-1.557334z" fill="#8BC34A" /><path d="M676.288 635.136c6.314667-20.650667 14.314667-36.864 24.021333-53.696 9.664-16.448 21.141333-31.808 34.496-45.248 13.376-13.397333 28.693333-24.853333 45.418667-32.618667A136.96 136.96 0 0 1 832 490.666667c-33.045333 12.010667-57.429333 36.48-71.552 64.682666a188.010667 188.010667 0 0 0-15.786667 44.48c-3.349333 14.933333-5.568 31.786667-5.12 45.013334l-63.253333-9.706667zM223.829333 628.096c2.474667-11.925333 3.733333-26.624 4.202667-40.256a255.466667 255.466667 0 0 0-1.962667-41.749333C222.272 518.677333 213.653333 490.538667 192 469.333333c27.968 12.096 49.514667 38.613333 64.405333 66.56 7.616 14.122667 13.76 28.970667 19.008 44.181334 5.162667 15.488 9.472 30.208 12.437334 47.808l-64.021334 0.213333z" fill="#8BC34A" /><path d="M128 725.333333a384 170.666667 0 1 0 768 0 384 170.666667 0 1 0-768 0Z" fill="#42A5F5" /><path d="M661.333333 149.333333H426.666667s-106.666667 149.333333-106.666667 469.333334h339.797333C641.109333 351.808 661.333333 149.333333 661.333333 149.333333z" fill="#42A5F5" /><path d="M682.666667 618.666667c52.352 20.842667 128 51.648 128 85.333333 0 62.826667-157.269333 106.666667-298.666667 106.666667s-298.666667-43.84-298.666667-106.666667c0-33.685333 75.626667-64.490667 128-85.333333" fill="#42A5F5" /><path d="M682.666667 618.666667c20.458667 4.373333 40.64 9.6 60.714666 16.213333 20.074667 6.762667 39.808 14.485333 59.349334 27.754667 9.301333 6.997333 20.096 15.509333 25.237333 33.002666 1.258667 3.712 1.344 10.538667 1.408 12.117334a60.736 60.736 0 0 1-1.493333 12.181333 67.690667 67.690667 0 0 1-8.341334 20.266667c-14.954667 23.765333-35.690667 36.074667-55.210666 47.466666-80.426667 41.450667-166.101333 52.992-252.48 54.976a664.170667 664.170667 0 0 1-128.170667-12.650666c-42.048-9.301333-84.245333-20.16-124.053333-42.24-19.541333-11.370667-40.234667-23.701333-55.253334-47.509334-7.146667-12.010667-12.288-27.370667-8.533333-44.032 5.376-18.752 16.042667-26.325333 25.365333-33.664 19.562667-13.248 39.317333-20.949333 59.392-27.712A570.453333 570.453333 0 0 1 341.333333 618.666667c-17.856 10.922667-35.946667 21.162667-53.205333 32.128-17.024 11.008-34.410667 22.250667-46.613333 35.52-6.037333 5.930667-10.517333 14.293333-9.6 16.021333-0.042667 3.861333 2.432 9.472 6.869333 14.250667 9.173333 10.133333 25.365333 19.541333 42.474667 26.282666 34.944 13.248 73.642667 22.357333 112.682666 27.413334 39.125333 5.461333 78.570667 8.426667 118.186667 8.405333 39.04 0.554667 78.933333-2.688 117.888-8.32 39.04-5.098667 77.781333-14.122667 112.725333-27.413333 17.109333-6.741333 33.322667-16.213333 42.517334-26.325334 8.533333-11.370667 11.008-15.168-2.752-30.378666-12.202667-13.248-29.632-24.490667-46.656-35.498667-17.216-10.965333-35.328-21.184-53.184-32.085333z" fill="#90CAF9" /><path d="M384 630.997333C384 307.733333 512 149.333333 512 149.333333s-74.666667 140.330667-64 481.664h-64zM512.064 630.997333C512.064 438.997333 576 213.333333 576 213.333333s-21.333333 202.666667 0 416l-63.936 1.664zM320 661.333333c-20.288 15.872 0.384 25.258667 16.533333 29.568 16.874667 5.013333 35.2 7.253333 53.290667 9.237334 36.501333 3.626667 73.429333 3.818667 110.762667 3.882666 37.226667-0.213333 74.538667-0.917333 111.232-4.330666 18.261333-1.962667 36.629333-4.074667 53.781333-8.917334 8.512-2.218667 17.024-5.568 22.528-10.24 2.730667-2.410667 3.925333-4.842667 2.944-8.64-1.216-3.818667-4.650667-7.509333-8.405333-10.56 4.672 1.344 9.536 3.008 13.632 7.274667 4.245333 4.394667 4.437333 13.013333 1.301333 18.218667-5.824 10.944-15.104 16.682667-23.701333 22.378666-17.92 10.410667-36.906667 17.429333-56.149334 22.4-38.485333 10.325333-77.717333 14.165333-116.778666 14.912-38.976 0.789333-78.698667-2.709333-117.376-12.885333-19.285333-5.269333-38.421333-12.074667-56.256-23.210667-8.554667-5.952-17.706667-12.16-23.253334-23.552-2.944-5.525333-2.218667-14.122667 2.048-18.453333 4.224-4.202667 9.216-5.866667 13.866667-7.082667z" fill="#90CAF9" /><path d="M416 629.333333m-32 0a32 32 0 1 0 64 0 32 32 0 1 0-64 0Z" fill="#90CAF9" /><path d="M544 629.333333m-32 0a32 32 0 1 0 64 0 32 32 0 1 0-64 0Z" fill="#90CAF9" /></svg>