<?xml version="1.0" encoding="utf-8"?>
<!-- Uploaded to: SVG Repo, www.svgrepo.com, Generator: SVG Repo Mixer Tools -->
<svg width="800px" height="800px" viewBox="0 0 1024 1024" class="icon"  version="1.1" xmlns="http://www.w3.org/2000/svg"><path d="M512 736c247.424 0 448-200.576 448-448H64c0 247.424 200.576 448 448 448z" fill="#EF4D4D" /><path d="M512 736C264.576 736 64 535.424 64 288H0c0 282.784 229.216 512 512 512s512-229.216 512-512h-64c0 247.424-200.576 448-448 448z" fill="#3AAD73" /><path d="M446.981208 475.694456a16 32 15.528 1 0 30.831992 8.566696 16 32 15.528 1 0-30.831992-8.566696Z" fill="#434854" /><path d="M544.547805 484.174532a32 16 74.818 1 0 30.883162-8.380352 32 16 74.818 1 0-30.883162 8.380352Z" fill="#434854" /><path d="M642.081233 438.211588a32 15.968 45.555 1 0 22.799843-22.362362 32 15.968 45.555 1 0-22.799843 22.362362Z" fill="#434854" /><path d="M698.148263 357.95549a32 16 14.821 1 0 8.185603-30.935351 32 16 14.821 1 0-8.185603 30.935351Z" fill="#434854" /><path d="M316.978139 325.527362a16 32.032 75.475 1 0 8.025677 30.977225 16 32.032 75.475 1 0-8.025677-30.977225Z" fill="#434854" /><path d="M358.35126 414.266788a16 32.032 44.842 1 0 22.689729 22.564933 16 32.032 44.842 1 0-22.689729-22.564933Z" fill="#434854" /><path d="M928.128 288c0 229.76-186.24 416-416 416s-416-186.24-416-416H64c0 247.424 200.576 448 448 448s448-200.576 448-448h-31.872z" fill="" /></svg>