<!DOCTYPE svg PUBLIC "-//W3C//DTD SVG 1.1//EN" "http://www.w3.org/Graphics/SVG/1.1/DTD/svg11.dtd">
<!-- Uploaded to: SVG Repo, www.svgrepo.com, Transformed by: SVG Repo Mixer Tools -->
<svg version="1.1" id="Layer_1" xmlns="http://www.w3.org/2000/svg" xmlns:xlink="http://www.w3.org/1999/xlink" viewBox="0 0 512 512" xml:space="preserve" width="800px" height="800px" fill="#000000">
<g id="SVGRepo_bgCarrier" stroke-width="0"/>
<g id="SVGRepo_tracerCarrier" stroke-linecap="round" stroke-linejoin="round"/>
<g id="SVGRepo_iconCarrier"> <rect x="119.146" y="48.114" style="fill:#f5623d;" width="273.716" height="415.772"/> <g> <rect x="349.348" y="48.114" style="fill:#f42d1f;" width="43.499" height="415.772"/> <rect x="317.68" y="48.114" style="fill:#f42d1f;" width="16.283" height="415.772"/> </g> <g> <path style="fill:#69539C;" d="M403.93,48.114H108.07c-10.899,0-19.735-8.835-19.735-19.735l0,0 c0-10.899,8.835-19.735,19.735-19.735H403.93c10.899,0,19.735,8.835,19.735,19.735l0,0 C423.664,39.277,414.829,48.114,403.93,48.114z"/> <path style="fill:#69539C;" d="M403.93,503.357H108.07c-10.899,0-19.735-8.835-19.735-19.735l0,0 c0-10.899,8.835-19.735,19.735-19.735H403.93c10.899,0,19.735,8.835,19.735,19.735l0,0 C423.664,494.522,414.829,503.357,403.93,503.357z"/> </g> <g> <path style="fill:#4F4482;" d="M403.926,8.643h-59.983c10.899,0,19.735,8.835,19.735,19.735l0,0 c0,10.899-8.835,19.735-19.735,19.735h59.983c10.899,0,19.735-8.835,19.735-19.735l0,0C423.661,17.478,414.826,8.643,403.926,8.643 z"/> <path style="fill:#4F4482;" d="M403.926,463.886h-59.983c10.899,0,19.735,8.835,19.735,19.735c0,10.899-8.835,19.735-19.735,19.735 h59.983c10.899,0,19.735-8.835,19.735-19.735C423.661,472.723,414.826,463.886,403.926,463.886z"/> </g> <path d="M403.93,455.243h-2.43V56.756h2.43c15.648,0,28.378-12.73,28.378-28.378S419.578,0,403.93,0H108.071 C92.423,0,79.693,12.73,79.693,28.378s12.73,28.379,28.379,28.379h2.43v398.488h-2.43c-15.648,0-28.378,12.73-28.378,28.378 S92.424,512,108.071,512H403.93c15.648,0,28.378-12.73,28.378-28.378S419.578,455.243,403.93,455.243z M127.788,261.473 l256.426-62.848v17.077l-256.426,62.848C127.788,278.551,127.788,261.473,127.788,261.473z M127.788,296.347l256.426-62.848v17.076 l-256.426,62.848C127.788,313.423,127.788,296.347,127.788,296.347z M384.213,180.828l-256.426,62.848V226.6l180.115-44.146 c4.636-1.136,7.473-5.815,6.337-10.451s-5.816-7.474-10.451-6.337l-176.001,43.138v-17.077l256.426-62.848L384.213,180.828 L384.213,180.828z M127.788,331.221l256.426-62.848v17.076l-204.789,50.192c-4.636,1.136-7.473,5.815-6.337,10.451 c0.967,3.946,4.499,6.588,8.387,6.588c0.681,0,1.372-0.082,2.064-0.251l200.674-49.184v17.077l-256.425,62.848V331.221z M384.213,111.08l-256.426,62.848v-17.076l256.426-62.848V111.08z M127.788,400.968l256.426-62.848v17.076l-256.426,62.848 C127.788,418.044,127.788,400.968,127.788,400.968z M384.213,455.243h-50.508l50.508-12.14V455.243z M384.213,76.207 l-256.426,62.848v-17.076l119.958-29.401c4.636-1.136,7.473-5.815,6.337-10.451c-1.136-4.636-5.815-7.476-10.451-6.337 l-115.844,28.393V88.436l129.255-31.679h127.17v19.45H384.213z M96.978,28.378c0-6.117,4.976-11.092,11.092-11.092h295.858 c6.117,0,11.092,4.976,11.092,11.092s-4.976,11.092-11.092,11.092h-11.073H119.145h-11.073 C101.954,39.471,96.978,34.495,96.978,28.378z M184.43,56.756l-56.642,13.883V56.756H184.43z M127.788,435.841l256.426-62.848 v17.077l-154.676,37.91c-4.636,1.136-7.473,5.815-6.337,10.451c0.967,3.946,4.499,6.588,8.387,6.588 c0.681,0,1.372-0.082,2.064-0.251l150.562-36.902v17.459l-124.472,29.92H127.788V435.841z M403.93,494.714H108.071 c-6.117,0-11.092-4.976-11.092-11.092s4.976-11.092,11.092-11.092h11.073h140.824c0.198,0.014,0.392,0.05,0.591,0.05 c0.281,0,0.566-0.022,0.85-0.05h131.447h11.073c6.117,0,11.092,4.976,11.092,11.092S410.047,494.714,403.93,494.714z"/> <circle cx="337.271" cy="165.921" r="8.643"/> <circle cx="364.836" cy="159.606" r="8.643"/> <circle cx="149.235" cy="351.641" r="8.643"/> </g>
</svg>