<?xml version="1.0" encoding="iso-8859-1"?>
<!-- Uploaded to: SVG Repo, www.svgrepo.com, Generator: SVG Repo Mixer Tools -->
<svg fill="#000000" height="800px" width="800px" version="1.1" id="Layer_1" xmlns="http://www.w3.org/2000/svg" xmlns:xlink="http://www.w3.org/1999/xlink" 
	 viewBox="0 0 297.364 297.364" xml:space="preserve">
<g>
	<g>
		<g>
			<path d="M292.436,89.828c-2.228-6.416-7.08-9.72-14.4-9.856c-0.368-3.42-1.708-6.608-3.984-9.116
				c-2.272-2.5-5.2-4.024-8.376-4.528V17.604l-1.208-1.208c-0.084-0.176-0.176-0.352-0.28-0.528l-0.16,0.092l-1.832-1.84h-0.38
				C245.66,0.432,159.352,0,148.616,0c-10.74,0-97.048,0.432-113.2,14.12h-0.384l-3.484,3.484v48.74
				c-3.124,0.524-6,2.048-8.24,4.512c-2.28,2.504-3.616,5.696-3.984,9.116c-7.32,0.136-12.172,3.444-14.396,9.86
				c-1.804,5.2-1.76,11.76-1.708,19.356l0.092,13.7c0.052,8.076,2.964,15.664,8.208,21.372c5.156,5.612,11.952,8.756,19.216,8.916
				l0.816,0.34v110.488v1.636v14.732l3.484,3.484h0.768c12.072,9.268,66.008,13.508,112.816,13.508
				c46.804,0,100.74-4.24,112.812-13.508h0.768l3.484-3.484V265.64v-4.5V153.568l0.952-0.4c15.08-0.332,27.312-13.752,27.42-30.284
				l0.088-13.7C294.196,101.592,294.24,95.028,292.436,89.828z M28.46,75.54c0.88-0.968,1.944-1.64,3.088-2.044v16.54
				c-3.112-1.116-5.396-4.348-5.42-8.216C26.108,79.44,26.94,77.208,28.46,75.54z M31.548,146.24
				c-0.032-0.004-0.068-0.024-0.104-0.024c-0.056-0.008-0.096,0-0.144,0c-5.5,0-10.7-2.364-14.652-6.668
				c-4.072-4.432-6.332-10.36-6.372-16.704l-0.092-13.704c-0.048-6.664-0.088-12.956,1.32-17.028
				c1.072-3.096,2.872-5.164,8.152-5.196c0.132,0,0.24-0.064,0.372-0.076c1.748,5.388,6.128,9.428,11.52,10.36V146.24z
				 M257.116,18.832c-2.308,2.088-10.648,4.484-24.028,6.58l7.54-11.848C249.592,15.312,255.28,17.168,257.116,18.832z
				 M212.284,9.704c8.956,0.856,16.72,1.856,23.16,2.928l-7.176,11.276c-0.448,0.696-0.448,1.52-0.152,2.232
				c-8.712,1.2-19.208,2.264-31.328,3.06l14.964-17.956C212.128,10.796,212.28,10.248,212.284,9.704z M183.88,7.744
				c8.376,0.38,16.124,0.884,23.204,1.488L192.66,26.54c-0.72,0.86-0.704,2.052-0.096,2.928c-9.14,0.536-19.144,0.916-29.92,1.096
				l20.548-21.088C183.664,8.996,183.892,8.368,183.88,7.744z M154.072,7.004c8.532,0.052,16.624,0.228,24.232,0.512l-21.932,22.508
				c-0.18,0.184-0.292,0.404-0.404,0.624c-2.328,0.02-4.64,0.048-7.04,0.048c-8.132-0.004-15.88-0.12-23.224-0.332L154.072,7.004z
				 M123.004,7.376c7.4-0.236,15.208-0.376,23.436-0.4l-26.276,21.64c-0.48,0.396-0.752,0.944-0.836,1.516
				c-8.168-0.308-15.84-0.724-22.872-1.244l25.632-19.596C122.704,8.816,122.992,8.1,123.004,7.376z M88.332,9.372
				c8.36-0.736,17.7-1.344,27.92-1.764L89.204,28.296c-9.364-0.824-17.572-1.8-24.4-2.868l22.476-13.28
				C88.264,11.568,88.644,10.416,88.332,9.372z M81.244,10.06L57.788,23.92c-0.104,0.06-0.168,0.16-0.26,0.236
				c-9.664-1.868-15.5-3.86-16.988-5.612C44.316,15.732,58.512,12.424,81.244,10.06z M40.368,18.656
				c0.012,0.072,0.04,0.08,0.04,0.172c0,0.1-0.02,0.104-0.028,0.176c-0.072-0.056-0.204-0.12-0.268-0.176
				C40.172,18.772,40.3,18.716,40.368,18.656z M51.348,41.576c-4.636-0.608-8.884-2.668-12.336-5.804
				c-0.16-0.144-0.336-0.204-0.504-0.3v-9.924c21.828,11.716,99.916,12.112,110.1,12.112c0.076,0,0.2,0,0.284,0
				c0.104,0,0.248,0,0.34,0c10.076,0,86.752-0.384,109.472-11.748V148.94l-48.652,20.356c-2.192-8.16-9.556-14.244-18.412-14.304
				l-85.824-0.532H105.7c-9.04,0-16.612,6.284-18.672,14.716l-48.516-20.292V41.56c3.812,2.66,8.092,4.304,12.836,4.928
				C54.472,46.9,54.444,41.984,51.348,41.576z M203.82,174.332v0.004c-0.036,6.756-5.548,12.216-12.3,12.216h-0.076l-85.82-0.532
				c-6.78-0.044-12.268-5.592-12.224-12.368c0.04-6.76,5.552-12.228,12.304-12.228h0.076l85.82,0.532
				C198.388,162,203.868,167.556,203.82,174.332z M258.716,277.52l-1.236,0.56c-4.348,4.968-41.96,12.32-108.864,12.32
				c-66.908,0-104.516-7.348-108.868-12.32l-1.232-0.56v-6.736c16.008,8.112,66.192,11.844,110.1,11.844
				c43.908,0,94.088-3.732,110.1-11.844V277.52z M258.716,261.14h-0.004v1.644l-1.232,0.564
				c-4.348,4.968-41.96,12.316-108.864,12.316c-66.908,0-104.516-7.348-108.868-12.316l-1.232-0.564V156.428l48.208,20.16
				c1.392,9.204,9.26,16.332,18.864,16.396l85.824,0.532h0.116c9.796,0,17.836-7.384,19.02-16.888l48.168-20.148V261.14z
				 M265.676,73.452c1.196,0.396,2.308,1.08,3.224,2.088c1.52,1.672,2.348,3.9,2.332,6.28c-0.024,3.924-2.372,7.196-5.556,8.264
				V73.452z M287.176,109.14l-0.084,13.704c-0.084,12.96-9.58,23.564-21.148,23.372c-0.088-0.016-0.176,0.012-0.264,0.012V97.212
				c5.452-0.884,9.892-4.94,11.656-10.376c0.128,0.012,0.236,0.076,0.368,0.076c5.28,0.028,7.08,2.1,8.152,5.196
				C287.268,96.184,287.224,102.476,287.176,109.14z"/>
			<path d="M65.352,49.724c10.528,3.324,28.516,4.448,42.968,5.348c7.816,0.488,16.672,1.04,18.112,1.72
				c0.548,0.364,0.672,0.576,0.68,0.576c0.028,0.24-0.248,1.032-0.436,1.56c-0.408,1.164-0.964,2.756-1.028,4.736
				c-0.12,3.84,1.568,7.848,4.196,9.988c1.804,1.468,3.992,1.98,6.132,1.468c4.248-1.024,5.876-5.248,7.188-8.632
				c1.232-3.204,2.1-5.156,3.66-5.268c0.576-0.052,0.98,0.124,1.408,0.524c1.216,1.112,2.084,3.756,2.112,6.424
				c0.048,3.888,0.14,11.12,5.816,13.308c0.844,0.324,1.716,0.484,2.592,0.484c1.216,0,2.448-0.312,3.648-0.936
				c2.74-1.424,5.028-4.424,5.832-7.648c0.556-2.232,0.636-4.448,0.708-6.588c0.072-1.996,0.14-3.88,0.584-5.632
				c0.468-1.848,1.844-3.676,3.348-4.436c0.8-0.408,1.524-0.48,2.212-0.196c2.128,0.848,2.36,3.976,2.468,8.652
				c0.12,5.004,0.268,11.232,6.068,12.8c2.184,0.596,4.424,0.12,6.304-1.328c2.796-2.156,4.66-6.344,4.632-10.432
				c-0.028-4.708,1.848-10.592,4.58-11.496c3.112-1.032,7.052-1.272,11.608-1.552c7.28-0.444,16.34-0.996,26.892-5.028
				c1.268-0.484,1.9-1.9,1.416-3.172c-0.476-1.276-1.9-1.896-3.16-1.416c-9.848,3.76-18.128,4.264-25.436,4.708
				c-4.904,0.3-9.136,0.556-12.856,1.792c-5.892,1.952-7.98,10.748-7.948,16.188c0.016,2.508-1.156,5.312-2.724,6.516
				c-0.872,0.676-1.568,0.6-2.024,0.48c-2.1-0.572-2.32-3.468-2.432-8.18c-0.116-4.892-0.264-10.98-5.56-13.092
				c-1.992-0.8-4.212-0.664-6.264,0.376c-2.752,1.4-5.06,4.388-5.876,7.604c-0.572,2.256-0.656,4.504-0.732,6.672
				c-0.072,1.976-0.132,3.84-0.572,5.572c-0.464,1.856-1.832,3.696-3.328,4.476c-0.804,0.42-1.524,0.496-2.216,0.224
				c-2.368-0.912-2.616-5.012-2.664-8.776c-0.04-3.22-1.028-7.532-3.696-9.984c-1.436-1.324-3.208-1.92-5.088-1.808
				c-4.78,0.352-6.504,4.812-7.892,8.396c-1.216,3.148-2.132,5.24-3.756,5.628c-0.428,0.1-1.068,0.156-1.88-0.504
				c-1.432-1.16-2.456-3.752-2.384-6.024c0.036-1.224,0.4-2.26,0.752-3.264c0.724-2.072,1.816-5.192-2.16-7.848
				c-1.908-1.268-6.86-1.68-20.528-2.536c-13.44-0.832-31.836-1.984-41.796-5.128c-1.28-0.4-2.672,0.308-3.08,1.604
				C63.344,47.936,64.06,49.316,65.352,49.724z"/>
			<path d="M188,176.528l-0.012-0.08c-0.112-0.044-0.356,0.02-0.524,0.052c-1.332-0.064-3.204-0.08-5.824-0.092l-42.908-0.268
				h-0.016c-1.34,0-2.424,1.08-2.436,2.424c-0.008,1.344,1.072,2.44,2.42,2.452l49.228,0.308h0.028h0.028h0.36v-0.028
				c1.228-0.172,2.452-1.176,2.46-2.388C190.816,177.256,190.82,176.72,188,176.528z"/>
			<path d="M127.072,176.068l-15.828-0.1h-0.016c-1.336,0-2.424,1.08-2.436,2.424c-0.008,1.344,1.072,2.44,2.42,2.452l15.832,0.1
				h0.012c1.34,0,2.424-1.08,2.436-2.42C129.504,177.176,128.42,176.076,127.072,176.068z"/>
			<path d="M247.86,44.544c2.98-1.056,5.832-2.356,8.564-3.944c2.736-1.588,0.264-5.836-2.476-4.24
				c-2.368,1.38-4.808,2.536-7.392,3.448C243.596,40.856,244.868,45.604,247.86,44.544z"/>
		</g>
	</g>
</g>
</svg>