<?xml version="1.0" encoding="iso-8859-1"?>
<!-- Uploaded to: SVG Repo, www.svgrepo.com, Generator: SVG Repo Mixer Tools -->
<svg version="1.1" id="Layer_1" xmlns="http://www.w3.org/2000/svg" xmlns:xlink="http://www.w3.org/1999/xlink" 
	 viewBox="0 0 512.001 512.001" xml:space="preserve">
<path style="fill:#AA8B65;" d="M429.434,216.667h-37.967v73.249c-0.3,0.3-0.472,0.472-0.773,0.773h-46.414v-21.262
	c0-8.16-6.271-15.182-14.421-15.566c-8.703-0.41-15.887,6.524-15.887,15.137v22.437c0,16.337,13.244,29.581,29.581,29.581h41.107
	c-0.961,2.092-2.016,4.145-3.172,6.148l-85.407,147.93l-93.64-70.772h23.648c16.337,0,29.581-13.244,29.581-29.581v-22.008
	c0-8.16-6.272-15.182-14.422-15.565c-8.703-0.409-15.887,6.525-15.887,15.137v21.69H164.86c-0.008,0-0.015,0-0.023,0
	c-1.569,0.003-3.105-0.439-4.357-1.384l-4.229-3.196c-8.279-6.257-13.146-16.035-13.146-26.414v-47.485h-37.967l0.105,66.615
	c0.014,10.301,4.822,20.009,13.007,26.262l150.898,115.299l53.84,0.726l96.494-167.132c6.544-11.333,9.986-24.191,9.981-37.278
	L429.434,216.667z"/>
<path style="fill:#328777;" d="M189.735,56.222c-2.214-27.229-24.996-48.64-52.796-48.64S86.355,28.994,84.143,56.223
	C39.734,76.445,8.665,121.299,8.665,173.056v138.661h256.546V173.056C265.211,121.299,234.142,76.445,189.735,56.222z"/>
<path style="fill:#266659;" d="M188.837,56.222c-2.213-27.229-24.996-48.64-52.796-48.64c-16.389,0-31.028,7.445-40.744,19.133
	c3.671-0.805,7.479-1.243,11.391-1.243c27.8,0,50.583,21.412,52.796,48.641c44.408,20.223,75.477,65.075,75.477,116.833v120.771
	h29.352V173.056C264.314,121.299,233.246,76.445,188.837,56.222z"/>
<path style="fill:#328777;" d="M410.647,8.363L410.647,8.363c-34.137,0-64.115,18.705-80.199,46.37
	c-2.521-0.813-5.208-1.257-7.999-1.257c-14.392,0-26.059,11.667-26.059,26.059c0,12.86,9.317,23.536,21.567,25.665v121.586h185.379
	V101.053C503.336,50.074,461.626,8.363,410.647,8.363z"/>
<path style="fill:#266659;" d="M410.647,8.363L410.647,8.363c-11.996,0-23.474,2.318-34.021,6.514
	c49.538,1.674,89.544,42.703,89.544,92.629v119.279h37.166V101.053C503.336,50.074,461.626,8.363,410.647,8.363z"/>
<g>
	<rect x="391.47" y="226.785" style="opacity:0.5;fill:#564531;enable-background:new    ;" width="37.997" height="17.891"/>
	<rect x="105.134" y="311.72" style="opacity:0.5;fill:#564531;enable-background:new    ;" width="37.997" height="17.891"/>
</g>
<path d="M410.647,0.781c-33.678,0-65.3,17.26-83.819,45.398c-1.449-0.19-2.911-0.285-4.38-0.285c-18.55,0-33.64,15.091-33.64,33.641
	c0,14.178,8.761,26.517,21.567,31.409v115.842c0,4.187,3.394,7.582,7.582,7.582h65.928v48.738h-32.024v-13.68
	c0-12.404-9.508-22.566-21.647-23.138c-6.284-0.295-12.24,1.927-16.782,6.258c-4.476,4.271-7.044,10.268-7.044,16.452v22.437
	c0,20.492,16.671,37.163,37.163,37.163h28.354L293.803,463.87l-68.76-51.967h1.042c20.492,0,37.163-16.671,37.163-37.163v-22.008
	c0-12.404-9.509-22.567-21.647-23.138c-6.271-0.296-12.242,1.927-16.782,6.258c-4.477,4.271-7.044,10.267-7.044,16.452v14.109
	h-52.916c-0.001,0-0.003,0-0.006,0l-4.03-3.047c-6.347-4.797-10.136-12.41-10.136-20.365v-23.701h114.525
	c4.188,0,7.582-3.395,7.582-7.582V173.056c0-51.626-29.702-99.003-76.028-121.888c-2.092-13.408-8.625-25.717-18.68-35.038
	C166.862,5.729,152.25,0,136.939,0s-29.925,5.729-41.147,16.131c-10.055,9.32-16.59,21.63-18.68,35.038
	C30.785,74.052,1.083,121.43,1.083,173.056v138.662c0,4.187,3.394,7.582,7.582,7.582h88.899l0.097,42.842
	c0.017,12.576,5.993,24.642,15.985,32.277l150.898,115.299c1.294,0.989,2.873,1.535,4.501,1.557l53.84,0.727
	c0.034,0,0.069,0,0.103,0c2.706,0,5.21-1.444,6.566-3.791l96.494-167.134c7.2-12.47,11.002-26.673,10.997-41.072l-0.026-65.638
	h66.318c4.188,0,7.582-3.395,7.582-7.582V101.052C510.918,45.763,465.936,0.781,410.647,0.781z M16.247,173.056
	c0-47.131,27.884-90.283,71.037-109.934c2.503-1.139,4.191-3.545,4.415-6.286c1.9-23.368,21.772-41.673,45.241-41.673
	c23.468,0,43.339,18.305,45.24,41.674c0.223,2.741,1.913,5.145,4.415,6.286c43.153,19.651,71.037,62.803,71.037,109.934v131.08
	h-25.704v-62.722c0-4.187-3.394-7.582-7.582-7.582c-4.188,0-7.582,3.395-7.582,7.582v62.722h-21.065V189.869
	c0-4.187-3.394-7.582-7.582-7.582c-4.188,0-7.582,3.395-7.582,7.582v114.267h-21.064V192.241c0-4.187-3.394-7.582-7.582-7.582
	c-4.188,0-7.582,3.395-7.582,7.582v111.894h-21.064v-84.858c0-4.187-3.394-7.582-7.582-7.582s-7.582,3.395-7.582,7.582v84.858
	H87.013V160.925c0-4.187-3.394-7.582-7.582-7.582c-4.188,0-7.582,3.395-7.582,7.582v143.211H50.785v-48.259
	c0-4.187-3.394-7.582-7.582-7.582s-7.582,3.395-7.582,7.582v48.259H16.247V173.056z M421.881,300.011
	c0.004,11.74-3.096,23.318-8.965,33.485l-94.271,163.282l-46.887-0.633L122.853,382.369c-6.269-4.79-10.017-12.359-10.028-20.255
	l-0.088-38.798h22.786v19.686c0,12.681,6.04,24.815,16.156,32.461l4.23,3.197c2.526,1.909,5.606,2.916,8.92,2.916
	c0.01,0,0.021,0,0.03,0h60.498c4.188,0,7.582-3.395,7.582-7.582v-21.691c0-2.091,0.833-4.038,2.346-5.481
	c1.512-1.443,3.505-2.178,5.602-2.083c3.969,0.187,7.197,3.772,7.197,7.992v22.008c0,12.131-9.869,21.999-21.999,21.999h-23.649
	c-3.259,0-6.152,2.081-7.187,5.171c-1.036,3.089,0.017,6.495,2.616,8.459l93.641,70.772c1.736,1.31,3.95,1.815,6.079,1.382
	c2.13-0.432,3.973-1.757,5.06-3.64l85.408-147.932c1.248-2.164,2.424-4.443,3.495-6.773c1.078-2.347,0.888-5.082-0.508-7.256
	c-1.394-2.174-3.799-3.49-6.382-3.49H343.55c-12.13,0-21.999-9.868-21.999-21.999v-22.437c0-2.091,0.833-4.037,2.347-5.48
	c1.511-1.443,3.503-2.177,5.601-2.083c3.969,0.187,7.197,3.772,7.197,7.992v21.262c0,4.187,3.394,7.582,7.582,7.582h46.414
	c2.013,0,3.943-0.801,5.366-2.225l0.764-0.764c1.424-1.422,2.225-3.352,2.225-5.366v-55.548h22.807L421.881,300.011z
	 M495.754,219.204H482.09v-44.08c0-4.187-3.394-7.582-7.582-7.582c-4.188,0-7.582,3.395-7.582,7.582v44.08h-14.767v-58.159
	c0-4.187-3.394-7.582-7.582-7.582c-4.188,0-7.582,3.395-7.582,7.582v58.159h-7.357c-0.069-0.002-0.137-0.01-0.205-0.01h-7.205
	v-72.299c0-4.187-3.394-7.582-7.582-7.582c-4.188,0-7.582,3.395-7.582,7.582v72.299h-14.766v-44.07c0-4.187-3.394-7.582-7.582-7.582
	c-4.188,0-7.582,3.395-7.582,7.582v44.08h-14.767v-72.309c0-4.187-3.394-7.582-7.582-7.582c-4.188,0-7.582,3.395-7.582,7.582v72.309
	H325.54V105.201c0-3.686-2.652-6.839-6.284-7.47c-8.856-1.54-15.284-9.192-15.284-18.196c0-10.189,8.288-18.477,18.476-18.477
	c1.931,0,3.84,0.299,5.673,0.891c3.395,1.096,7.089-0.324,8.88-3.406c15.277-26.275,43.496-42.598,73.646-42.598
	c46.929,0,85.107,38.18,85.107,85.107V219.204z"/>
</svg>