<?xml version="1.0" encoding="iso-8859-1"?>
<!-- Uploaded to: SVG Repo, www.svgrepo.com, Generator: SVG Repo Mixer Tools -->
<svg height="800px" width="800px" version="1.1" id="Layer_1" xmlns="http://www.w3.org/2000/svg" xmlns:xlink="http://www.w3.org/1999/xlink" 
	 viewBox="0 0 512 512" xml:space="preserve">
<path style="fill:#FF5A55;" d="M449.533,118.402C346.18,0.07,171.569-36.362,26.634,40.237C4.353,52.012-4.163,79.621,7.612,101.9
	l1.538,2.913L255.48,450.98c49.632-83.456,72.872-127.935,52.13-167.181L449.533,118.402z"/>
<path style="fill:#FFA3A9;" d="M508.646,210.441c0,0-10.191-19.28-13.587-25.708c-12.847-24.312-28.184-46.47-45.532-66.324
	l-179.256,94.742l37.338,70.652l51.942-27.452l13.586,25.706c1.604,3.034,4.705,4.767,7.915,4.767c1.409,0,2.84-0.334,4.171-1.039
	c4.367-2.307,6.036-7.719,3.727-12.087l-13.586-25.706l44.033-23.273l13.586,25.707c1.604,3.034,4.705,4.767,7.915,4.767
	c1.409,0,2.839-0.334,4.171-1.039c4.368-2.307,6.036-7.719,3.728-12.087l-13.586-25.707l44.034-23.271l13.587,25.708
	c1.604,3.034,4.705,4.767,7.915,4.767c1.409,0,2.839-0.334,4.171-1.039C509.286,220.219,510.955,214.808,508.646,210.441z"/>
<path style="fill:#5EDAFF;" d="M227.221,253.541c34.018,64.369,43.296,135.02,28.261,197.444
	c-46.326-14.298-70.652-13.773-83.876-38.791l-53.402-101.036l30.151-72.468L227.221,253.541z"/>
<path style="fill:#4B58E3;" d="M227.221,253.541l-109.018,57.617L9.151,104.815C95.487,110.762,180.325,164.801,227.221,253.541z"/>
<path style="fill:#ADEBFF;" d="M255.481,512c-4.939,0-8.943-4.004-8.943-8.943v-52.072c0-0.705,0.084-1.409,0.249-2.094
	c14.85-61.655,5.094-129.548-27.474-191.172c-2.307-4.367-0.638-9.778,3.728-12.087c4.367-2.308,9.778-0.637,12.086,3.728
	c34.421,65.135,44.811,137.063,29.297,202.676v51.02C264.424,507.996,260.42,512,255.481,512z"/>
</svg>