<?xml version="1.0" encoding="iso-8859-1"?>
<!-- Uploaded to: SVG Repo, www.svgrepo.com, Generator: SVG Repo Mixer Tools -->
<svg version="1.1" id="Layer_1" xmlns="http://www.w3.org/2000/svg" xmlns:xlink="http://www.w3.org/1999/xlink" 
	 viewBox="0 0 512 512" xml:space="preserve">
<rect x="10.711" y="324.552" style="fill:#6E5B3F;" width="33.633" height="48.554"/>
<g>
	<polygon style="fill:#A3875E;" points="222.152,373.107 222.152,447.807 166.025,447.807 166.025,373.107 166.025,324.552 
		166.025,245.642 166.025,197.088 166.025,107.038 194.089,64.193 222.152,107.038 222.152,197.088 222.152,245.642 
		222.152,324.552 	"/>
	<polygon style="fill:#A3875E;" points="100.472,373.107 100.472,447.807 44.345,447.807 44.345,373.107 44.345,324.552 
		44.345,245.642 44.345,197.088 44.345,167.632 44.345,138.261 44.345,135.584 44.345,107.038 72.408,64.193 100.472,107.038 
		100.472,197.088 100.472,245.642 100.472,324.552 	"/>
</g>
<rect x="10.711" y="197.088" style="fill:#6E5B3F;" width="33.633" height="48.554"/>
<polygon style="fill:#A3875E;" points="465.513,373.107 465.513,447.807 409.386,447.807 409.386,373.107 409.386,324.552 
	409.386,245.642 409.386,197.088 409.386,107.038 437.449,64.193 465.513,107.038 465.513,197.088 465.513,245.642 465.513,324.552 
	"/>
<g>
	<rect x="465.513" y="324.552" style="fill:#6E5B3F;" width="35.776" height="48.554"/>
	<rect x="100.472" y="324.552" style="fill:#6E5B3F;" width="65.553" height="48.554"/>
</g>
<polygon style="fill:#A3875E;" points="343.833,373.107 343.833,447.807 287.705,447.807 287.705,373.107 287.705,324.552 
	287.705,245.642 287.705,197.088 287.705,107.038 315.769,64.193 343.833,107.038 343.833,197.088 343.833,245.642 343.833,324.552 
	"/>
<g>
	<rect x="343.833" y="197.088" style="fill:#6E5B3F;" width="65.553" height="48.554"/>
	<rect x="222.152" y="197.088" style="fill:#6E5B3F;" width="65.553" height="48.554"/>
	<rect x="100.472" y="197.088" style="fill:#6E5B3F;" width="65.553" height="48.554"/>
	<rect x="465.513" y="197.088" style="fill:#6E5B3F;" width="35.776" height="48.554"/>
	<rect x="343.833" y="324.552" style="fill:#6E5B3F;" width="65.553" height="48.554"/>
	<rect x="222.152" y="324.552" style="fill:#6E5B3F;" width="65.553" height="48.554"/>
</g>
<path d="M501.289,256.353c5.915,0,10.711-4.797,10.711-10.711v-48.554c0-5.915-4.797-10.711-10.711-10.711h-25.064v-79.339
	c0-2.084-0.608-4.125-1.751-5.869L446.41,58.324c-1.979-3.021-5.348-4.843-8.96-4.843c-3.612,0-6.982,1.821-8.96,4.843
	l-28.064,42.845c-1.142,1.745-1.751,3.784-1.751,5.869v79.339h-44.132v-79.339c0-2.084-0.608-4.125-1.751-5.869l-28.064-42.845
	c-1.979-3.022-5.348-4.843-8.96-4.843s-6.982,1.82-8.96,4.843l-28.064,42.845c-1.142,1.745-1.751,3.784-1.751,5.869v79.339h-44.131
	v-79.339c0-2.084-0.608-4.125-1.751-5.869l-28.064-42.845c-1.979-3.021-5.348-4.843-8.96-4.843s-6.982,1.821-8.96,4.843
	l-28.064,42.845c-1.143,1.744-1.751,3.783-1.751,5.869v79.339h-44.131v-79.339c0-2.084-0.608-4.125-1.751-5.869L81.368,58.324
	c-1.979-3.021-5.348-4.843-8.96-4.843c-3.612,0-6.982,1.821-8.96,4.843l-28.064,42.845c-3.241,4.949-1.857,11.587,3.091,14.83
	c4.949,3.239,11.589,1.856,14.83-3.091l19.103-29.166l17.352,26.491v326.863H55.056V167.632c0-5.915-4.795-10.711-10.711-10.711
	s-10.711,4.797-10.711,10.711v18.745H10.711C4.795,186.377,0,191.173,0,197.088v48.554c0,5.915,4.795,10.711,10.711,10.711h22.922
	v57.488H10.711C4.795,313.841,0,318.638,0,324.552v48.554c0,5.915,4.795,10.711,10.711,10.711h22.922v63.989
	c0,5.915,4.795,10.711,10.711,10.711h56.127c5.916,0,10.711-4.797,10.711-10.711v-63.989h44.131v63.989
	c0,5.915,4.795,10.711,10.711,10.711h56.127c5.916,0,10.711-4.797,10.711-10.711v-63.989h44.131v63.989
	c0,5.915,4.797,10.711,10.711,10.711h56.127c5.915,0,10.711-4.797,10.711-10.711v-63.989h44.131v63.989
	c0,5.915,4.797,10.711,10.711,10.711h56.127c5.915,0,10.711-4.797,10.711-10.711v-63.989h25.064c5.915,0,10.711-4.797,10.711-10.711
	v-48.554c0-5.915-4.797-10.711-10.711-10.711h-25.064v-57.488H501.289z M21.423,234.931v-27.132h12.211v27.132H21.423z
	 M21.423,362.395v-27.132h12.211v27.132H21.423z M490.577,207.799v27.132h-14.353v-27.132H490.577z M354.544,256.353h44.131v57.488
	h-44.131V256.353z M398.674,207.799v27.132h-44.131v-27.132H398.674z M232.864,256.353h44.131v57.488h-44.131L232.864,256.353
	L232.864,256.353z M276.994,207.799v27.132h-44.131v-27.132H276.994z M111.183,256.353h44.131v57.488h-44.131V256.353z
	 M155.314,207.799v27.132h-44.131v-27.132H155.314z M111.183,362.395v-27.132h44.131v27.132H111.183z M211.441,437.096h-34.705
	V110.233l17.352-26.491l17.352,26.491V437.096z M232.864,362.395v-27.132h44.131v27.132H232.864z M333.121,437.096h-34.705V110.233
	l17.352-26.491l17.352,26.491L333.121,437.096L333.121,437.096z M354.544,362.395v-27.132h44.131v27.132H354.544z M454.802,437.096
	h-34.705V110.233l17.352-26.491l17.351,26.491v326.863H454.802z M490.577,335.264v27.132h-14.353v-27.132H490.577z"/>
<path d="M44.345,148.973c5.916,0,10.711-4.797,10.711-10.711v-2.678c0-5.915-4.795-10.711-10.711-10.711
	s-10.711,4.797-10.711,10.711v2.678C33.633,144.177,38.429,148.973,44.345,148.973z"/>
</svg>