<?xml version="1.0" encoding="iso-8859-1"?>
<!-- Generator: Adobe Illustrator 19.0.0, SVG Export Plug-In . SVG Version: 6.00 Build 0)  -->
<svg version="1.1" id="Layer_1" xmlns="http://www.w3.org/2000/svg" xmlns:xlink="http://www.w3.org/1999/xlink" x="0px" y="0px"
	 viewBox="0 0 512 512" style="enable-background:new 0 0 512 512;" xml:space="preserve">
<path style="fill:#FEE856;" d="M465.956,45.332C465.956,20.336,445.62,0,420.623,0s-45.332,20.336-45.332,45.332
	c0,17.409,17.324,40.646,28.266,53.586v35.507c0,20.63-16.785,37.415-37.415,37.415c-20.63,0-37.415-16.784-37.415-37.415V84.977
	c0-39.451-32.096-71.548-71.547-71.548s-71.548,32.097-71.548,71.548v130.78c0,9.425,7.641,17.067,17.067,17.067
	c9.425,0,17.067-7.641,17.067-17.067V84.977c0-20.63,16.785-37.415,37.415-37.415s37.414,16.785,37.414,37.415v49.448
	c0,39.451,32.097,71.548,71.548,71.548s71.548-32.097,71.548-71.548V98.917C448.632,85.978,465.956,62.74,465.956,45.332z
	 M420.623,34.133c6.122,0,11.113,4.938,11.198,11.04c-0.449,3.495-4.99,11.403-11.205,20.073
	c-6.205-8.655-10.742-16.561-11.191-20.073C409.511,39.071,414.502,34.133,420.623,34.133z"/>
<path style="fill:#4CDBC4;" d="M202.7,512c-86.38,0-156.656-70.276-156.656-156.656S116.32,198.69,202.7,198.69
	s156.656,70.275,156.656,156.654S289.08,512,202.7,512z"/>
<g>
	<path style="fill:#5AC2AD;" d="M202.7,198.69V512c86.38,0,156.656-70.276,156.656-156.656S289.08,198.69,202.7,198.69z"/>
	<path style="fill:#5AC2AD;" d="M202.7,461.776c-58.687,0-106.432-47.746-106.432-106.432S144.014,248.912,202.7,248.912
		s106.432,47.746,106.432,106.432S261.387,461.776,202.7,461.776z"/>
</g>
<path style="fill:#1AB899;" d="M202.7,248.913v212.865c58.687,0,106.432-47.746,106.432-106.432S261.387,248.913,202.7,248.913z"/>
<g>
</g>
<g>
</g>
<g>
</g>
<g>
</g>
<g>
</g>
<g>
</g>
<g>
</g>
<g>
</g>
<g>
</g>
<g>
</g>
<g>
</g>
<g>
</g>
<g>
</g>
<g>
</g>
<g>
</g>
</svg>
