<svg xmlns="http://www.w3.org/2000/svg" width="640" height="310.0">
  <rect x="50" y="100" width="160" height="160.0" stroke="black" fill="none"/>
  <g>
    <svg xmlns:xlink="http://www.w3.org/1999/xlink" version="1.1" id="Layer_1" x="87.5" y="55" viewBox="0 0 512 512" style="enable-background:new 0 0 512 512;" xml:space="preserve" width="40" height="40">
<path style="fill:#FF9842;" d="M406.069,114.759C388.413,17.655,300.138,0,256,0S123.586,17.655,105.931,114.759  s-44.138,220.69-44.138,220.69c88.276,70.621,167.724,70.621,194.207,70.621s105.931,0,194.207-70.621  C450.207,335.448,423.724,211.862,406.069,114.759z"/>
<path style="fill:#E6873C;" d="M282.22,1.949C272.579,0.584,263.607,0,256,0c-44.138,0-132.414,17.655-150.069,114.759  s-44.138,220.69-44.138,220.69c58.067,46.454,112.204,62.28,150.069,67.72V176.552C211.862,176.552,219.362,49.897,282.22,1.949z"/>
<path style="fill:#FF6472;" d="M300.138,326.621v30.82c0,7.883,5.226,14.81,12.804,16.975l73.226,20.921  c22.937,6.553,40.054,25.726,43.977,49.257l7.808,46.847c1.793,10.762-6.505,20.558-17.415,20.558H91.461  c-10.91,0-19.209-9.796-17.415-20.557l7.808-46.847c3.922-23.531,21.038-42.703,43.977-49.257l73.226-20.921  c7.58-2.166,12.804-9.094,12.804-16.975v-30.821H300.138z"/>
<path style="fill:#FAD7A5;" d="M256,476.69c54.771,0,101.148-35.665,117.362-85.01l-60.419-17.263  c-7.58-2.165-12.804-9.094-12.804-16.975v-30.82h-88.276v30.82c0,7.883-5.226,14.81-12.804,16.975l-60.419,17.263  C154.852,441.025,201.229,476.69,256,476.69z"/>
<path style="fill:#F0C891;" d="M300.138,335.448l-24.276-8.828h-64v30.82c0,7.883-5.226,14.81-12.804,16.975l-18.71,5.345v0.001  C254.764,415.251,300.138,335.448,300.138,335.448z"/>
<g>
	<path style="fill:#D25566;" d="M100.725,409.69c-9.753,9.111-16.59,21.223-18.87,34.905l-7.808,46.847   C72.253,502.204,80.551,512,91.461,512h49.78v-30.282c0-9.021-2.764-17.824-7.919-25.226L100.725,409.69z"/>
	<path style="fill:#D25566;" d="M411.275,409.69c9.753,9.111,16.59,21.223,18.87,34.905l7.808,46.847   c1.793,10.761-6.505,20.557-17.415,20.557h-49.78v-30.282c0-9.021,2.764-17.824,7.919-25.226L411.275,409.69z"/>
</g>
<path style="fill:#FFE1B4;" d="M388.413,203.034v-79.448H123.586v79.448c-9.75,0-17.655,7.904-17.655,17.655v17.655  c0,9.75,7.905,17.655,17.655,17.655c0.487,0,0.943-0.105,1.42-0.143c5.282,29.652,25.44,55.026,54.07,66.477l44.138,17.655  c21.046,8.418,44.524,8.418,65.57,0l44.138-17.655c28.631-11.452,48.789-36.825,54.07-66.477c0.477,0.039,0.934,0.143,1.42,0.143  c9.75,0,17.655-7.905,17.655-17.655V220.69C406.069,210.938,398.163,203.034,388.413,203.034z"/>
<path style="fill:#FAD7A5;" d="M123.586,123.586v79.448c-9.75,0-17.655,7.904-17.655,17.655v17.655  c0,9.75,7.905,17.655,17.655,17.655c0.487,0,0.943-0.105,1.42-0.143c5.282,29.652,25.44,55.026,54.07,66.477l44.138,17.655  c9.963,3.986,20.472,6.018,31.009,6.23c-29.95-13.291-52.14-34.766-66.545-52.321c-12.942-15.775-19.955-35.525-19.955-55.93  v-29.705c0-8.936,6.677-16.462,15.549-17.529l74.382-8.94l4.966,20.966c0,0,67.862-11.034,98.483-23.724l18.483-37.793v-17.655  H123.586z"/>
<path style="fill:#D7AF7D;" d="M256,300.138c-15.694,0-30.375-3.862-40.276-10.599c-4.03-2.741-5.078-8.233-2.332-12.263  c2.737-4.025,8.233-5.074,12.263-2.332c6.94,4.719,18.284,7.539,30.345,7.539c12.061,0,23.405-2.819,30.345-7.539  c4.039-2.745,9.522-1.703,12.263,2.332c2.745,4.03,1.698,9.522-2.332,12.263C286.374,296.276,271.694,300.138,256,300.138z"/>
<g>
	<path style="fill:#5A4137;" d="M189.793,238.345L189.793,238.345c-7.313,0-13.241-5.929-13.241-13.241v-8.828   c0-7.313,5.929-13.241,13.241-13.241l0,0c7.313,0,13.241,5.929,13.241,13.241v8.828   C203.034,232.416,197.105,238.345,189.793,238.345z"/>
	<path style="fill:#5A4137;" d="M322.207,238.345L322.207,238.345c-7.313,0-13.241-5.929-13.241-13.241v-8.828   c0-7.313,5.929-13.241,13.241-13.241l0,0c7.313,0,13.241,5.929,13.241,13.241v8.828   C335.448,232.416,329.519,238.345,322.207,238.345z"/>
</g>
<path style="fill:#FF9842;" d="M123.586,203.034c0-8.828,0-35.31,26.483-70.621l8.828,44.138l88.276-8.828l17.655-26.483  l8.828,44.138c0,0,72.276-13.241,79.448-17.655l17.655-26.483c0,0,17.655,26.483,17.655,61.793h17.655l1.628-62.521  c0.389-14.944-11.661-27.249-26.61-27.171l-248.809,1.281c-14.573,0.075-26.347,11.91-26.347,26.483v61.929H123.586z"/>
<g>
	<path style="fill:#FF6472;" d="M358.177,94.489l-66.325,2.802c-4.884,0.206-7.969-5.249-6.15-10.874L300.131,41.8   c1.82-5.626,7.513-8.243,11.352-5.215l52.126,41.107L358.177,94.489z"/>
	<path style="fill:#FF6472;" d="M371.772,98.886l52.126,41.107c3.839,3.027,9.533,0.412,11.352-5.215l14.429-44.617   c1.82-5.626-1.265-11.081-6.15-10.874l-66.325,2.802L371.772,98.886z"/>
</g>
<path style="fill:#C95264;" d="M416.728,108.786L315.936,76.192c-2.322-0.75-3.592-3.236-2.841-5.558s3.236-3.592,5.558-2.841  l100.792,32.594c2.322,0.75,3.592,3.236,2.841,5.558C421.536,108.265,419.05,109.536,416.728,108.786z"/>
<path style="fill:#A5465A;" d="M370.658,107.804l-16.799-5.432c-4.639-1.5-7.183-6.476-5.683-11.115l5.432-16.799  c1.5-4.639,6.477-7.183,11.115-5.683l16.799,5.432c4.639,1.5,7.183,6.476,5.683,11.115l-5.432,16.799  C380.273,106.759,375.297,109.303,370.658,107.804z"/>
<path style="fill:#D25566;" d="M125.831,395.339c-1.409,0.403-2.722,0.994-4.085,1.491l0.119,0.362  c19.094,58.11,72.999,97.153,134.134,97.153s115.04-39.043,134.135-97.153l0.119-0.362c-1.363-0.495-2.677-1.088-4.086-1.491  l-12.807-3.659C357.147,441.025,310.77,476.69,256,476.69s-101.148-35.665-117.362-85.01L125.831,395.339z"/>
<path style="fill:#E6873C;" d="M221.732,114.162l-89.455,0.46c-14.572,0.076-26.346,11.911-26.346,26.483v61.93h17.655  c0-8.828,0-35.31,26.483-70.621l8.828,44.138l53.394-5.34C213.166,161.567,215.649,139.73,221.732,114.162z"/>
<g>
</g>
<g>
</g>
<g>
</g>
<g>
</g>
<g>
</g>
<g>
</g>
<g>
</g>
<g>
</g>
<g>
</g>
<g>
</g>
<g>
</g>
<g>
</g>
<g>
</g>
<g>
</g>
<g>
</g>
</svg>
    <text x="137.5" y="75.0" style="font-size: 15px;" dominant_baseline="middle" text_anchor="middle">Janet</text>
  </g>
  <svg width="30" height="30" viewBox="0 0 1024 1024" class="icon" version="1.1" x="70.0" y="120.0">
    <path d="M510.75072 539.4944m-472.18176 0a472.18176 472.18176 0 1 0 944.36352 0 472.18176 472.18176 0 1 0-944.36352 0Z" fill="#FF7100"/>
    <path d="M508.78976 219.22816c-20.6848-44.63616 19.46624-107.20256 89.68704-139.74528 70.21568-32.54272 143.90784-22.7328 164.59776 21.90336L508.78976 219.22816z" fill="#30C03F"/>
    <path d="M508.78976 219.22816c20.6848 44.63616 94.37696 54.44608 164.59776 21.90336 70.21568-32.54272 110.37184-95.104 89.68704-139.74528L508.78976 219.22816z" fill="#97CF43"/>
    <path d="M370.32448 220.49792m-23.6544 0a23.6544 23.6544 0 1 0 47.3088 0 23.6544 23.6544 0 1 0-47.3088 0Z" fill="#FFA05F"/>
    <path d="M254.208 313.6768m-23.6544 0a23.6544 23.6544 0 1 0 47.3088 0 23.6544 23.6544 0 1 0-47.3088 0Z" fill="#FFA05F"/>
    <path d="M743.41376 281.06752m-23.6544 0a23.6544 23.6544 0 1 0 47.3088 0 23.6544 23.6544 0 1 0-47.3088 0Z" fill="#FFA05F"/>
    <path d="M859.53024 388.224m-23.6544 0a23.6544 23.6544 0 1 0 47.3088 0 23.6544 23.6544 0 1 0-47.3088 0Z" fill="#FFA05F"/>
    <path d="M767.06816 434.816m-23.6544 0a23.6544 23.6544 0 1 0 47.3088 0 23.6544 23.6544 0 1 0-47.3088 0Z" fill="#FFA05F"/>
    <path d="M631.59296 346.65472m-23.6544 0a23.6544 23.6544 0 1 0 47.3088 0 23.6544 23.6544 0 1 0-47.3088 0Z" fill="#FFA05F"/>
    <path d="M878.16704 565.26848m-23.6544 0a23.6544 23.6544 0 1 0 47.3088 0 23.6544 23.6544 0 1 0-47.3088 0Z" fill="#FFA05F"/>
    <path d="M504.02304 224.35328s-27.4944-173.22496-8.24832-192.47104 33.90976-12.17024 41.24672-5.49888c15.12448 13.7472-16.49664 159.47776-16.49664 178.72384 0 19.24608-8.24832 38.49216-16.50176 19.24608z" fill="#5A4530"/>
    <path d="M460.36992 221.66016s33.19808-5.24288 54.16448 0c20.9664 5.24288 22.71232 6.9888 26.20928 12.23168 3.49184 5.24288-24.45824 3.49184-24.45824 3.49184s-19.22048-5.24288-31.44704-5.24288H463.872s-13.98272-5.23776-3.50208-10.48064z" fill="#5A4530"/>
  </svg>
  <svg width="30" height="30" viewBox="0 0 1024 1024" class="icon" version="1.1" x="110.0" y="120.0">
    <path d="M510.75072 539.4944m-472.18176 0a472.18176 472.18176 0 1 0 944.36352 0 472.18176 472.18176 0 1 0-944.36352 0Z" fill="#FF7100"/>
    <path d="M508.78976 219.22816c-20.6848-44.63616 19.46624-107.20256 89.68704-139.74528 70.21568-32.54272 143.90784-22.7328 164.59776 21.90336L508.78976 219.22816z" fill="#30C03F"/>
    <path d="M508.78976 219.22816c20.6848 44.63616 94.37696 54.44608 164.59776 21.90336 70.21568-32.54272 110.37184-95.104 89.68704-139.74528L508.78976 219.22816z" fill="#97CF43"/>
    <path d="M370.32448 220.49792m-23.6544 0a23.6544 23.6544 0 1 0 47.3088 0 23.6544 23.6544 0 1 0-47.3088 0Z" fill="#FFA05F"/>
    <path d="M254.208 313.6768m-23.6544 0a23.6544 23.6544 0 1 0 47.3088 0 23.6544 23.6544 0 1 0-47.3088 0Z" fill="#FFA05F"/>
    <path d="M743.41376 281.06752m-23.6544 0a23.6544 23.6544 0 1 0 47.3088 0 23.6544 23.6544 0 1 0-47.3088 0Z" fill="#FFA05F"/>
    <path d="M859.53024 388.224m-23.6544 0a23.6544 23.6544 0 1 0 47.3088 0 23.6544 23.6544 0 1 0-47.3088 0Z" fill="#FFA05F"/>
    <path d="M767.06816 434.816m-23.6544 0a23.6544 23.6544 0 1 0 47.3088 0 23.6544 23.6544 0 1 0-47.3088 0Z" fill="#FFA05F"/>
    <path d="M631.59296 346.65472m-23.6544 0a23.6544 23.6544 0 1 0 47.3088 0 23.6544 23.6544 0 1 0-47.3088 0Z" fill="#FFA05F"/>
    <path d="M878.16704 565.26848m-23.6544 0a23.6544 23.6544 0 1 0 47.3088 0 23.6544 23.6544 0 1 0-47.3088 0Z" fill="#FFA05F"/>
    <path d="M504.02304 224.35328s-27.4944-173.22496-8.24832-192.47104 33.90976-12.17024 41.24672-5.49888c15.12448 13.7472-16.49664 159.47776-16.49664 178.72384 0 19.24608-8.24832 38.49216-16.50176 19.24608z" fill="#5A4530"/>
    <path d="M460.36992 221.66016s33.19808-5.24288 54.16448 0c20.9664 5.24288 22.71232 6.9888 26.20928 12.23168 3.49184 5.24288-24.45824 3.49184-24.45824 3.49184s-19.22048-5.24288-31.44704-5.24288H463.872s-13.98272-5.23776-3.50208-10.48064z" fill="#5A4530"/>
  </svg>
  <svg width="30" height="30" viewBox="0 0 1024 1024" class="icon" version="1.1" x="150.0" y="120.0">
    <path d="M510.75072 539.4944m-472.18176 0a472.18176 472.18176 0 1 0 944.36352 0 472.18176 472.18176 0 1 0-944.36352 0Z" fill="#FF7100"/>
    <path d="M508.78976 219.22816c-20.6848-44.63616 19.46624-107.20256 89.68704-139.74528 70.21568-32.54272 143.90784-22.7328 164.59776 21.90336L508.78976 219.22816z" fill="#30C03F"/>
    <path d="M508.78976 219.22816c20.6848 44.63616 94.37696 54.44608 164.59776 21.90336 70.21568-32.54272 110.37184-95.104 89.68704-139.74528L508.78976 219.22816z" fill="#97CF43"/>
    <path d="M370.32448 220.49792m-23.6544 0a23.6544 23.6544 0 1 0 47.3088 0 23.6544 23.6544 0 1 0-47.3088 0Z" fill="#FFA05F"/>
    <path d="M254.208 313.6768m-23.6544 0a23.6544 23.6544 0 1 0 47.3088 0 23.6544 23.6544 0 1 0-47.3088 0Z" fill="#FFA05F"/>
    <path d="M743.41376 281.06752m-23.6544 0a23.6544 23.6544 0 1 0 47.3088 0 23.6544 23.6544 0 1 0-47.3088 0Z" fill="#FFA05F"/>
    <path d="M859.53024 388.224m-23.6544 0a23.6544 23.6544 0 1 0 47.3088 0 23.6544 23.6544 0 1 0-47.3088 0Z" fill="#FFA05F"/>
    <path d="M767.06816 434.816m-23.6544 0a23.6544 23.6544 0 1 0 47.3088 0 23.6544 23.6544 0 1 0-47.3088 0Z" fill="#FFA05F"/>
    <path d="M631.59296 346.65472m-23.6544 0a23.6544 23.6544 0 1 0 47.3088 0 23.6544 23.6544 0 1 0-47.3088 0Z" fill="#FFA05F"/>
    <path d="M878.16704 565.26848m-23.6544 0a23.6544 23.6544 0 1 0 47.3088 0 23.6544 23.6544 0 1 0-47.3088 0Z" fill="#FFA05F"/>
    <path d="M504.02304 224.35328s-27.4944-173.22496-8.24832-192.47104 33.90976-12.17024 41.24672-5.49888c15.12448 13.7472-16.49664 159.47776-16.49664 178.72384 0 19.24608-8.24832 38.49216-16.50176 19.24608z" fill="#5A4530"/>
    <path d="M460.36992 221.66016s33.19808-5.24288 54.16448 0c20.9664 5.24288 22.71232 6.9888 26.20928 12.23168 3.49184 5.24288-24.45824 3.49184-24.45824 3.49184s-19.22048-5.24288-31.44704-5.24288H463.872s-13.98272-5.23776-3.50208-10.48064z" fill="#5A4530"/>
  </svg>
  <svg width="30" height="30" viewBox="0 0 1024 1024" class="icon" version="1.1" x="70.0" y="160.0">
    <path d="M510.75072 539.4944m-472.18176 0a472.18176 472.18176 0 1 0 944.36352 0 472.18176 472.18176 0 1 0-944.36352 0Z" fill="#FF7100"/>
    <path d="M508.78976 219.22816c-20.6848-44.63616 19.46624-107.20256 89.68704-139.74528 70.21568-32.54272 143.90784-22.7328 164.59776 21.90336L508.78976 219.22816z" fill="#30C03F"/>
    <path d="M508.78976 219.22816c20.6848 44.63616 94.37696 54.44608 164.59776 21.90336 70.21568-32.54272 110.37184-95.104 89.68704-139.74528L508.78976 219.22816z" fill="#97CF43"/>
    <path d="M370.32448 220.49792m-23.6544 0a23.6544 23.6544 0 1 0 47.3088 0 23.6544 23.6544 0 1 0-47.3088 0Z" fill="#FFA05F"/>
    <path d="M254.208 313.6768m-23.6544 0a23.6544 23.6544 0 1 0 47.3088 0 23.6544 23.6544 0 1 0-47.3088 0Z" fill="#FFA05F"/>
    <path d="M743.41376 281.06752m-23.6544 0a23.6544 23.6544 0 1 0 47.3088 0 23.6544 23.6544 0 1 0-47.3088 0Z" fill="#FFA05F"/>
    <path d="M859.53024 388.224m-23.6544 0a23.6544 23.6544 0 1 0 47.3088 0 23.6544 23.6544 0 1 0-47.3088 0Z" fill="#FFA05F"/>
    <path d="M767.06816 434.816m-23.6544 0a23.6544 23.6544 0 1 0 47.3088 0 23.6544 23.6544 0 1 0-47.3088 0Z" fill="#FFA05F"/>
    <path d="M631.59296 346.65472m-23.6544 0a23.6544 23.6544 0 1 0 47.3088 0 23.6544 23.6544 0 1 0-47.3088 0Z" fill="#FFA05F"/>
    <path d="M878.16704 565.26848m-23.6544 0a23.6544 23.6544 0 1 0 47.3088 0 23.6544 23.6544 0 1 0-47.3088 0Z" fill="#FFA05F"/>
    <path d="M504.02304 224.35328s-27.4944-173.22496-8.24832-192.47104 33.90976-12.17024 41.24672-5.49888c15.12448 13.7472-16.49664 159.47776-16.49664 178.72384 0 19.24608-8.24832 38.49216-16.50176 19.24608z" fill="#5A4530"/>
    <path d="M460.36992 221.66016s33.19808-5.24288 54.16448 0c20.9664 5.24288 22.71232 6.9888 26.20928 12.23168 3.49184 5.24288-24.45824 3.49184-24.45824 3.49184s-19.22048-5.24288-31.44704-5.24288H463.872s-13.98272-5.23776-3.50208-10.48064z" fill="#5A4530"/>
  </svg>
  <svg width="30" height="30" viewBox="0 0 1024 1024" class="icon" version="1.1" x="110.0" y="160.0">
    <path d="M510.75072 539.4944m-472.18176 0a472.18176 472.18176 0 1 0 944.36352 0 472.18176 472.18176 0 1 0-944.36352 0Z" fill="#FF7100"/>
    <path d="M508.78976 219.22816c-20.6848-44.63616 19.46624-107.20256 89.68704-139.74528 70.21568-32.54272 143.90784-22.7328 164.59776 21.90336L508.78976 219.22816z" fill="#30C03F"/>
    <path d="M508.78976 219.22816c20.6848 44.63616 94.37696 54.44608 164.59776 21.90336 70.21568-32.54272 110.37184-95.104 89.68704-139.74528L508.78976 219.22816z" fill="#97CF43"/>
    <path d="M370.32448 220.49792m-23.6544 0a23.6544 23.6544 0 1 0 47.3088 0 23.6544 23.6544 0 1 0-47.3088 0Z" fill="#FFA05F"/>
    <path d="M254.208 313.6768m-23.6544 0a23.6544 23.6544 0 1 0 47.3088 0 23.6544 23.6544 0 1 0-47.3088 0Z" fill="#FFA05F"/>
    <path d="M743.41376 281.06752m-23.6544 0a23.6544 23.6544 0 1 0 47.3088 0 23.6544 23.6544 0 1 0-47.3088 0Z" fill="#FFA05F"/>
    <path d="M859.53024 388.224m-23.6544 0a23.6544 23.6544 0 1 0 47.3088 0 23.6544 23.6544 0 1 0-47.3088 0Z" fill="#FFA05F"/>
    <path d="M767.06816 434.816m-23.6544 0a23.6544 23.6544 0 1 0 47.3088 0 23.6544 23.6544 0 1 0-47.3088 0Z" fill="#FFA05F"/>
    <path d="M631.59296 346.65472m-23.6544 0a23.6544 23.6544 0 1 0 47.3088 0 23.6544 23.6544 0 1 0-47.3088 0Z" fill="#FFA05F"/>
    <path d="M878.16704 565.26848m-23.6544 0a23.6544 23.6544 0 1 0 47.3088 0 23.6544 23.6544 0 1 0-47.3088 0Z" fill="#FFA05F"/>
    <path d="M504.02304 224.35328s-27.4944-173.22496-8.24832-192.47104 33.90976-12.17024 41.24672-5.49888c15.12448 13.7472-16.49664 159.47776-16.49664 178.72384 0 19.24608-8.24832 38.49216-16.50176 19.24608z" fill="#5A4530"/>
    <path d="M460.36992 221.66016s33.19808-5.24288 54.16448 0c20.9664 5.24288 22.71232 6.9888 26.20928 12.23168 3.49184 5.24288-24.45824 3.49184-24.45824 3.49184s-19.22048-5.24288-31.44704-5.24288H463.872s-13.98272-5.23776-3.50208-10.48064z" fill="#5A4530"/>
  </svg>
  <svg width="30" height="30" viewBox="0 0 1024 1024" class="icon" version="1.1" x="150.0" y="160.0">
    <path d="M510.75072 539.4944m-472.18176 0a472.18176 472.18176 0 1 0 944.36352 0 472.18176 472.18176 0 1 0-944.36352 0Z" fill="#FF7100"/>
    <path d="M508.78976 219.22816c-20.6848-44.63616 19.46624-107.20256 89.68704-139.74528 70.21568-32.54272 143.90784-22.7328 164.59776 21.90336L508.78976 219.22816z" fill="#30C03F"/>
    <path d="M508.78976 219.22816c20.6848 44.63616 94.37696 54.44608 164.59776 21.90336 70.21568-32.54272 110.37184-95.104 89.68704-139.74528L508.78976 219.22816z" fill="#97CF43"/>
    <path d="M370.32448 220.49792m-23.6544 0a23.6544 23.6544 0 1 0 47.3088 0 23.6544 23.6544 0 1 0-47.3088 0Z" fill="#FFA05F"/>
    <path d="M254.208 313.6768m-23.6544 0a23.6544 23.6544 0 1 0 47.3088 0 23.6544 23.6544 0 1 0-47.3088 0Z" fill="#FFA05F"/>
    <path d="M743.41376 281.06752m-23.6544 0a23.6544 23.6544 0 1 0 47.3088 0 23.6544 23.6544 0 1 0-47.3088 0Z" fill="#FFA05F"/>
    <path d="M859.53024 388.224m-23.6544 0a23.6544 23.6544 0 1 0 47.3088 0 23.6544 23.6544 0 1 0-47.3088 0Z" fill="#FFA05F"/>
    <path d="M767.06816 434.816m-23.6544 0a23.6544 23.6544 0 1 0 47.3088 0 23.6544 23.6544 0 1 0-47.3088 0Z" fill="#FFA05F"/>
    <path d="M631.59296 346.65472m-23.6544 0a23.6544 23.6544 0 1 0 47.3088 0 23.6544 23.6544 0 1 0-47.3088 0Z" fill="#FFA05F"/>
    <path d="M878.16704 565.26848m-23.6544 0a23.6544 23.6544 0 1 0 47.3088 0 23.6544 23.6544 0 1 0-47.3088 0Z" fill="#FFA05F"/>
    <path d="M504.02304 224.35328s-27.4944-173.22496-8.24832-192.47104 33.90976-12.17024 41.24672-5.49888c15.12448 13.7472-16.49664 159.47776-16.49664 178.72384 0 19.24608-8.24832 38.49216-16.50176 19.24608z" fill="#5A4530"/>
    <path d="M460.36992 221.66016s33.19808-5.24288 54.16448 0c20.9664 5.24288 22.71232 6.9888 26.20928 12.23168 3.49184 5.24288-24.45824 3.49184-24.45824 3.49184s-19.22048-5.24288-31.44704-5.24288H463.872s-13.98272-5.23776-3.50208-10.48064z" fill="#5A4530"/>
  </svg>
  <svg width="30" height="30" viewBox="0 0 1024 1024" class="icon" version="1.1" x="70.0" y="200.0">
    <path d="M510.75072 539.4944m-472.18176 0a472.18176 472.18176 0 1 0 944.36352 0 472.18176 472.18176 0 1 0-944.36352 0Z" fill="#FF7100"/>
    <path d="M508.78976 219.22816c-20.6848-44.63616 19.46624-107.20256 89.68704-139.74528 70.21568-32.54272 143.90784-22.7328 164.59776 21.90336L508.78976 219.22816z" fill="#30C03F"/>
    <path d="M508.78976 219.22816c20.6848 44.63616 94.37696 54.44608 164.59776 21.90336 70.21568-32.54272 110.37184-95.104 89.68704-139.74528L508.78976 219.22816z" fill="#97CF43"/>
    <path d="M370.32448 220.49792m-23.6544 0a23.6544 23.6544 0 1 0 47.3088 0 23.6544 23.6544 0 1 0-47.3088 0Z" fill="#FFA05F"/>
    <path d="M254.208 313.6768m-23.6544 0a23.6544 23.6544 0 1 0 47.3088 0 23.6544 23.6544 0 1 0-47.3088 0Z" fill="#FFA05F"/>
    <path d="M743.41376 281.06752m-23.6544 0a23.6544 23.6544 0 1 0 47.3088 0 23.6544 23.6544 0 1 0-47.3088 0Z" fill="#FFA05F"/>
    <path d="M859.53024 388.224m-23.6544 0a23.6544 23.6544 0 1 0 47.3088 0 23.6544 23.6544 0 1 0-47.3088 0Z" fill="#FFA05F"/>
    <path d="M767.06816 434.816m-23.6544 0a23.6544 23.6544 0 1 0 47.3088 0 23.6544 23.6544 0 1 0-47.3088 0Z" fill="#FFA05F"/>
    <path d="M631.59296 346.65472m-23.6544 0a23.6544 23.6544 0 1 0 47.3088 0 23.6544 23.6544 0 1 0-47.3088 0Z" fill="#FFA05F"/>
    <path d="M878.16704 565.26848m-23.6544 0a23.6544 23.6544 0 1 0 47.3088 0 23.6544 23.6544 0 1 0-47.3088 0Z" fill="#FFA05F"/>
    <path d="M504.02304 224.35328s-27.4944-173.22496-8.24832-192.47104 33.90976-12.17024 41.24672-5.49888c15.12448 13.7472-16.49664 159.47776-16.49664 178.72384 0 19.24608-8.24832 38.49216-16.50176 19.24608z" fill="#5A4530"/>
    <path d="M460.36992 221.66016s33.19808-5.24288 54.16448 0c20.9664 5.24288 22.71232 6.9888 26.20928 12.23168 3.49184 5.24288-24.45824 3.49184-24.45824 3.49184s-19.22048-5.24288-31.44704-5.24288H463.872s-13.98272-5.23776-3.50208-10.48064z" fill="#5A4530"/>
  </svg>
  <svg width="30" height="30" viewBox="0 0 1024 1024" class="icon" version="1.1" x="110.0" y="200.0">
    <path d="M510.75072 539.4944m-472.18176 0a472.18176 472.18176 0 1 0 944.36352 0 472.18176 472.18176 0 1 0-944.36352 0Z" fill="#FF7100"/>
    <path d="M508.78976 219.22816c-20.6848-44.63616 19.46624-107.20256 89.68704-139.74528 70.21568-32.54272 143.90784-22.7328 164.59776 21.90336L508.78976 219.22816z" fill="#30C03F"/>
    <path d="M508.78976 219.22816c20.6848 44.63616 94.37696 54.44608 164.59776 21.90336 70.21568-32.54272 110.37184-95.104 89.68704-139.74528L508.78976 219.22816z" fill="#97CF43"/>
    <path d="M370.32448 220.49792m-23.6544 0a23.6544 23.6544 0 1 0 47.3088 0 23.6544 23.6544 0 1 0-47.3088 0Z" fill="#FFA05F"/>
    <path d="M254.208 313.6768m-23.6544 0a23.6544 23.6544 0 1 0 47.3088 0 23.6544 23.6544 0 1 0-47.3088 0Z" fill="#FFA05F"/>
    <path d="M743.41376 281.06752m-23.6544 0a23.6544 23.6544 0 1 0 47.3088 0 23.6544 23.6544 0 1 0-47.3088 0Z" fill="#FFA05F"/>
    <path d="M859.53024 388.224m-23.6544 0a23.6544 23.6544 0 1 0 47.3088 0 23.6544 23.6544 0 1 0-47.3088 0Z" fill="#FFA05F"/>
    <path d="M767.06816 434.816m-23.6544 0a23.6544 23.6544 0 1 0 47.3088 0 23.6544 23.6544 0 1 0-47.3088 0Z" fill="#FFA05F"/>
    <path d="M631.59296 346.65472m-23.6544 0a23.6544 23.6544 0 1 0 47.3088 0 23.6544 23.6544 0 1 0-47.3088 0Z" fill="#FFA05F"/>
    <path d="M878.16704 565.26848m-23.6544 0a23.6544 23.6544 0 1 0 47.3088 0 23.6544 23.6544 0 1 0-47.3088 0Z" fill="#FFA05F"/>
    <path d="M504.02304 224.35328s-27.4944-173.22496-8.24832-192.47104 33.90976-12.17024 41.24672-5.49888c15.12448 13.7472-16.49664 159.47776-16.49664 178.72384 0 19.24608-8.24832 38.49216-16.50176 19.24608z" fill="#5A4530"/>
    <path d="M460.36992 221.66016s33.19808-5.24288 54.16448 0c20.9664 5.24288 22.71232 6.9888 26.20928 12.23168 3.49184 5.24288-24.45824 3.49184-24.45824 3.49184s-19.22048-5.24288-31.44704-5.24288H463.872s-13.98272-5.23776-3.50208-10.48064z" fill="#5A4530"/>
  </svg>
  <svg width="30" height="30" viewBox="0 0 1024 1024" class="icon" version="1.1" x="150.0" y="200.0">
    <path d="M510.75072 539.4944m-472.18176 0a472.18176 472.18176 0 1 0 944.36352 0 472.18176 472.18176 0 1 0-944.36352 0Z" fill="#FF7100"/>
    <path d="M508.78976 219.22816c-20.6848-44.63616 19.46624-107.20256 89.68704-139.74528 70.21568-32.54272 143.90784-22.7328 164.59776 21.90336L508.78976 219.22816z" fill="#30C03F"/>
    <path d="M508.78976 219.22816c20.6848 44.63616 94.37696 54.44608 164.59776 21.90336 70.21568-32.54272 110.37184-95.104 89.68704-139.74528L508.78976 219.22816z" fill="#97CF43"/>
    <path d="M370.32448 220.49792m-23.6544 0a23.6544 23.6544 0 1 0 47.3088 0 23.6544 23.6544 0 1 0-47.3088 0Z" fill="#FFA05F"/>
    <path d="M254.208 313.6768m-23.6544 0a23.6544 23.6544 0 1 0 47.3088 0 23.6544 23.6544 0 1 0-47.3088 0Z" fill="#FFA05F"/>
    <path d="M743.41376 281.06752m-23.6544 0a23.6544 23.6544 0 1 0 47.3088 0 23.6544 23.6544 0 1 0-47.3088 0Z" fill="#FFA05F"/>
    <path d="M859.53024 388.224m-23.6544 0a23.6544 23.6544 0 1 0 47.3088 0 23.6544 23.6544 0 1 0-47.3088 0Z" fill="#FFA05F"/>
    <path d="M767.06816 434.816m-23.6544 0a23.6544 23.6544 0 1 0 47.3088 0 23.6544 23.6544 0 1 0-47.3088 0Z" fill="#FFA05F"/>
    <path d="M631.59296 346.65472m-23.6544 0a23.6544 23.6544 0 1 0 47.3088 0 23.6544 23.6544 0 1 0-47.3088 0Z" fill="#FFA05F"/>
    <path d="M878.16704 565.26848m-23.6544 0a23.6544 23.6544 0 1 0 47.3088 0 23.6544 23.6544 0 1 0-47.3088 0Z" fill="#FFA05F"/>
    <path d="M504.02304 224.35328s-27.4944-173.22496-8.24832-192.47104 33.90976-12.17024 41.24672-5.49888c15.12448 13.7472-16.49664 159.47776-16.49664 178.72384 0 19.24608-8.24832 38.49216-16.50176 19.24608z" fill="#5A4530"/>
    <path d="M460.36992 221.66016s33.19808-5.24288 54.16448 0c20.9664 5.24288 22.71232 6.9888 26.20928 12.23168 3.49184 5.24288-24.45824 3.49184-24.45824 3.49184s-19.22048-5.24288-31.44704-5.24288H463.872s-13.98272-5.23776-3.50208-10.48064z" fill="#5A4530"/>
  </svg>
  <rect x="280" y="100" width="160" height="160.0" stroke="black" fill="none"/>
  <g>
    <svg xmlns:xlink="http://www.w3.org/1999/xlink" version="1.1" id="Layer_1" x="314.0" y="55" viewBox="0 0 464 464" style="enable-background:new 0 0 464 464;" xml:space="preserve" width="40" height="40">
<g>
	<path style="fill:#956E55;" d="M380.378,436.829l-9.188-68.908c-1.962-14.712-11.908-27.128-25.837-32.253l-54.412-20.02   c-6.534-2.178-10.94-8.292-10.94-15.179v-25.802l34.461-14.359C332.349,252.855,344,235.378,344,216v-8c13.255,0,24-10.745,24-24   s-10.745-24-24-24v-16c0-22.092-17.909-56-40-56H160c-22.091,0-40,33.909-40,56v16c-13.255,0-24,10.745-24,24s10.745,24,24,24v8   c0,19.378,11.651,36.855,29.538,44.308L184,274.667v25.801c0,6.887-4.407,13.001-10.94,15.179l-54.412,20.02   c-13.929,5.125-23.875,17.541-25.837,32.253l-9.188,68.908C81.705,451.216,92.898,464,107.413,464h249.175   C371.103,464,382.296,451.216,380.378,436.829z"/>
	<g>
		<path style="fill:#6E4439;" d="M320,32c0,0,23.5-32,64-32s64,30.667,64,72c0,41.967-46.667,154.667-24,224c0,0-60-20.667-80-104    c-18.34-76.418,8-128,8-128L320,32z"/>
	</g>
	<g>
		<path style="fill:#5E342E;" d="M347,40c0,0,26.5-19,45-8c40.721,24.213,7.454,90.732,0,128c-10,50-6,98,32,136    c0,0-60-20.667-80-104c-18.34-76.418,3-128,3-128V40z"/>
	</g>
	<g>
		<path style="fill:#BD445A;" d="M356.092,50.666L356.092,50.666c3.293-2.946,3.574-8.004,0.628-11.296l-19.461-21.75    c-2.946-3.293-8.004-3.574-11.296-0.628l0,0c-3.293,2.946-3.574,8.004-0.628,11.296l19.461,21.75    C347.741,53.331,352.799,53.612,356.092,50.666z"/>
	</g>
	<g>
		<path style="fill:#6E4439;" d="M144,32c0,0-23.5-32-64-32S16,30.667,16,72c0,41.967,46.667,154.667,24,224c0,0,60-20.667,80-104    c18.34-76.418-8-128-8-128L144,32z"/>
	</g>
	<g>
		<path style="fill:#5E342E;" d="M117,40c0,0-26.5-19-45-8c-40.721,24.213-7.454,90.732,0,128c10,50,6,98-32,136    c0,0,60-20.667,80-104c18.34-76.418-3-128-3-128V40z"/>
	</g>
	<g>
		<path style="fill:#BD445A;" d="M107.909,50.666L107.909,50.666c-3.293-2.946-3.574-8.004-0.628-11.296l19.461-21.75    c2.946-3.293,8.004-3.574,11.296-0.628l0,0c3.293,2.946,3.574,8.004,0.628,11.296l-19.461,21.75    C116.259,53.331,111.202,53.612,107.909,50.666z"/>
	</g>
	<g>
		<path style="fill:#7C5A49;" d="M280,274.667l-96-21.334v47.135c0,5.759-3.186,10.831-8.017,13.659    C243.077,325.871,280,274.667,280,274.667z"/>
	</g>
	<path style="fill:#A2795C;" d="M344,160v-16c0-22.092-17.909-56-40-56H160c-22.091,0-40,33.909-40,56v16c-13.255,0-24,10.745-24,24   s10.745,24,24,24v8c0,19.378,11.651,36.855,29.538,44.308l51.691,21.538c9.75,4.063,20.208,6.154,30.77,6.154l0,0   c10.562,0,21.019-2.091,30.769-6.154l51.694-21.539C332.349,252.855,344,235.378,344,216v-8c13.255,0,24-10.745,24-24   S357.255,160,344,160z"/>
	<g>
		<path style="fill:#623F33;" d="M176,192L176,192c-4.4,0-8-3.6-8-8v-8c0-4.4,3.6-8,8-8l0,0c4.4,0,8,3.6,8,8v8    C184,188.4,180.4,192,176,192z"/>
	</g>
	<g>
		<path style="fill:#623F33;" d="M288,192L288,192c-4.4,0-8-3.6-8-8v-8c0-4.4,3.6-8,8-8l0,0c4.4,0,8,3.6,8,8v8    C296,188.4,292.4,192,288,192z"/>
	</g>
	<g>
		<g>
			<path style="fill:#7C5A49;" d="M232,248.219c-14.223,0-27.527-3.5-36.5-9.605c-3.652-2.484-4.602-7.461-2.113-11.113     c2.48-3.648,7.461-4.598,11.113-2.113c6.289,4.277,16.57,6.832,27.5,6.832s21.211-2.555,27.5-6.832     c3.66-2.492,8.629-1.539,11.113,2.113c2.488,3.652,1.539,8.629-2.113,11.113C259.528,244.719,246.223,248.219,232,248.219z"/>
		</g>
	</g>
	<path style="fill:#956E55;" d="M239.943,97.356L230,84c-23.667,54-86.783,63.591-110,64.795V160c-13.255,0-24,10.745-24,24   s10.745,24,24,24v8c0,19.378,11.651,36.855,29.538,44.308l51.69,21.538c2.53,1.054,5.112,1.962,7.727,2.749   c-22.844-16.711-38.05-31.32-46.96-40.872c-6.482-6.95-9.995-16.121-9.995-25.625v-44.711   C174.658,165.478,237.818,139.688,239.943,97.356z"/>
	<path style="fill:#6E4439;" d="M272,0c-26,0-40,8-40,8s-14-8-40-8S67.333,50.055,104,166.055c0,0,128-22.722,128-78.055   c0,55.333,128,78.055,128,78.055C396.667,50.055,298,0,272,0z"/>
	<g>
		<path style="fill:#653C34;" d="M232,8.004V8c0,0-14-8-40-8S67.334,50.055,104,166.055c0,0,15.495-2.757,35.69-8.67    C117.089,53.368,207.192,8.084,232,8.004z"/>
	</g>
	<g>
		<g>
			<path style="fill:#BD445A;" d="M137.155,379.991l-17.606-44.603c-1.159-2.935,0.282-6.254,3.217-7.412l19.14-7.555     c2.935-1.159,6.254,0.282,7.412,3.217l17.605,44.603L137.155,379.991z"/>
		</g>
	</g>
	<g>
		<g>
			<path style="fill:#BD445A;" d="M326.846,379.991l17.605-44.603c1.159-2.935-0.282-6.254-3.217-7.412l-19.14-7.555     c-2.935-1.159-6.254,0.282-7.412,3.217l-17.605,44.603L326.846,379.991z"/>
		</g>
	</g>
	<g>
		<path style="fill:#F05467;" d="M312,368H152c-8.837,0-16,7.163-16,16v80h192v-80C328,375.164,320.837,368,312,368z"/>
	</g>
	<polygon style="fill:#FFC84A;" points="280,384 232,408 184,384 136,408 136,424 184,400 232,424 280,400 328,424 328,408  "/>
	<polygon style="fill:#FFA34E;" points="280,416 232,440 184,416 136,440 136,456 184,432 232,456 280,432 328,456 328,440  "/>
</g>
<g>
</g>
<g>
</g>
<g>
</g>
<g>
</g>
<g>
</g>
<g>
</g>
<g>
</g>
<g>
</g>
<g>
</g>
<g>
</g>
<g>
</g>
<g>
</g>
<g>
</g>
<g>
</g>
<g>
</g>
</svg>
    <text x="364.0" y="75.0" style="font-size: 15px;" dominant_baseline="middle" text_anchor="middle">Sharon</text>
  </g>
  <svg width="30" height="30" viewBox="0 0 1024 1024" class="icon" version="1.1" x="300.0" y="120.0">
    <path d="M510.75072 539.4944m-472.18176 0a472.18176 472.18176 0 1 0 944.36352 0 472.18176 472.18176 0 1 0-944.36352 0Z" fill="#FF7100"/>
    <path d="M508.78976 219.22816c-20.6848-44.63616 19.46624-107.20256 89.68704-139.74528 70.21568-32.54272 143.90784-22.7328 164.59776 21.90336L508.78976 219.22816z" fill="#30C03F"/>
    <path d="M508.78976 219.22816c20.6848 44.63616 94.37696 54.44608 164.59776 21.90336 70.21568-32.54272 110.37184-95.104 89.68704-139.74528L508.78976 219.22816z" fill="#97CF43"/>
    <path d="M370.32448 220.49792m-23.6544 0a23.6544 23.6544 0 1 0 47.3088 0 23.6544 23.6544 0 1 0-47.3088 0Z" fill="#FFA05F"/>
    <path d="M254.208 313.6768m-23.6544 0a23.6544 23.6544 0 1 0 47.3088 0 23.6544 23.6544 0 1 0-47.3088 0Z" fill="#FFA05F"/>
    <path d="M743.41376 281.06752m-23.6544 0a23.6544 23.6544 0 1 0 47.3088 0 23.6544 23.6544 0 1 0-47.3088 0Z" fill="#FFA05F"/>
    <path d="M859.53024 388.224m-23.6544 0a23.6544 23.6544 0 1 0 47.3088 0 23.6544 23.6544 0 1 0-47.3088 0Z" fill="#FFA05F"/>
    <path d="M767.06816 434.816m-23.6544 0a23.6544 23.6544 0 1 0 47.3088 0 23.6544 23.6544 0 1 0-47.3088 0Z" fill="#FFA05F"/>
    <path d="M631.59296 346.65472m-23.6544 0a23.6544 23.6544 0 1 0 47.3088 0 23.6544 23.6544 0 1 0-47.3088 0Z" fill="#FFA05F"/>
    <path d="M878.16704 565.26848m-23.6544 0a23.6544 23.6544 0 1 0 47.3088 0 23.6544 23.6544 0 1 0-47.3088 0Z" fill="#FFA05F"/>
    <path d="M504.02304 224.35328s-27.4944-173.22496-8.24832-192.47104 33.90976-12.17024 41.24672-5.49888c15.12448 13.7472-16.49664 159.47776-16.49664 178.72384 0 19.24608-8.24832 38.49216-16.50176 19.24608z" fill="#5A4530"/>
    <path d="M460.36992 221.66016s33.19808-5.24288 54.16448 0c20.9664 5.24288 22.71232 6.9888 26.20928 12.23168 3.49184 5.24288-24.45824 3.49184-24.45824 3.49184s-19.22048-5.24288-31.44704-5.24288H463.872s-13.98272-5.23776-3.50208-10.48064z" fill="#5A4530"/>
  </svg>
  <svg width="30" height="30" viewBox="0 0 1024 1024" class="icon" version="1.1" x="340.0" y="120.0">
    <path d="M510.75072 539.4944m-472.18176 0a472.18176 472.18176 0 1 0 944.36352 0 472.18176 472.18176 0 1 0-944.36352 0Z" fill="#FF7100"/>
    <path d="M508.78976 219.22816c-20.6848-44.63616 19.46624-107.20256 89.68704-139.74528 70.21568-32.54272 143.90784-22.7328 164.59776 21.90336L508.78976 219.22816z" fill="#30C03F"/>
    <path d="M508.78976 219.22816c20.6848 44.63616 94.37696 54.44608 164.59776 21.90336 70.21568-32.54272 110.37184-95.104 89.68704-139.74528L508.78976 219.22816z" fill="#97CF43"/>
    <path d="M370.32448 220.49792m-23.6544 0a23.6544 23.6544 0 1 0 47.3088 0 23.6544 23.6544 0 1 0-47.3088 0Z" fill="#FFA05F"/>
    <path d="M254.208 313.6768m-23.6544 0a23.6544 23.6544 0 1 0 47.3088 0 23.6544 23.6544 0 1 0-47.3088 0Z" fill="#FFA05F"/>
    <path d="M743.41376 281.06752m-23.6544 0a23.6544 23.6544 0 1 0 47.3088 0 23.6544 23.6544 0 1 0-47.3088 0Z" fill="#FFA05F"/>
    <path d="M859.53024 388.224m-23.6544 0a23.6544 23.6544 0 1 0 47.3088 0 23.6544 23.6544 0 1 0-47.3088 0Z" fill="#FFA05F"/>
    <path d="M767.06816 434.816m-23.6544 0a23.6544 23.6544 0 1 0 47.3088 0 23.6544 23.6544 0 1 0-47.3088 0Z" fill="#FFA05F"/>
    <path d="M631.59296 346.65472m-23.6544 0a23.6544 23.6544 0 1 0 47.3088 0 23.6544 23.6544 0 1 0-47.3088 0Z" fill="#FFA05F"/>
    <path d="M878.16704 565.26848m-23.6544 0a23.6544 23.6544 0 1 0 47.3088 0 23.6544 23.6544 0 1 0-47.3088 0Z" fill="#FFA05F"/>
    <path d="M504.02304 224.35328s-27.4944-173.22496-8.24832-192.47104 33.90976-12.17024 41.24672-5.49888c15.12448 13.7472-16.49664 159.47776-16.49664 178.72384 0 19.24608-8.24832 38.49216-16.50176 19.24608z" fill="#5A4530"/>
    <path d="M460.36992 221.66016s33.19808-5.24288 54.16448 0c20.9664 5.24288 22.71232 6.9888 26.20928 12.23168 3.49184 5.24288-24.45824 3.49184-24.45824 3.49184s-19.22048-5.24288-31.44704-5.24288H463.872s-13.98272-5.23776-3.50208-10.48064z" fill="#5A4530"/>
  </svg>
  <svg width="30" height="30" viewBox="0 0 1024 1024" class="icon" version="1.1" x="380.0" y="120.0">
    <path d="M510.75072 539.4944m-472.18176 0a472.18176 472.18176 0 1 0 944.36352 0 472.18176 472.18176 0 1 0-944.36352 0Z" fill="#FF7100"/>
    <path d="M508.78976 219.22816c-20.6848-44.63616 19.46624-107.20256 89.68704-139.74528 70.21568-32.54272 143.90784-22.7328 164.59776 21.90336L508.78976 219.22816z" fill="#30C03F"/>
    <path d="M508.78976 219.22816c20.6848 44.63616 94.37696 54.44608 164.59776 21.90336 70.21568-32.54272 110.37184-95.104 89.68704-139.74528L508.78976 219.22816z" fill="#97CF43"/>
    <path d="M370.32448 220.49792m-23.6544 0a23.6544 23.6544 0 1 0 47.3088 0 23.6544 23.6544 0 1 0-47.3088 0Z" fill="#FFA05F"/>
    <path d="M254.208 313.6768m-23.6544 0a23.6544 23.6544 0 1 0 47.3088 0 23.6544 23.6544 0 1 0-47.3088 0Z" fill="#FFA05F"/>
    <path d="M743.41376 281.06752m-23.6544 0a23.6544 23.6544 0 1 0 47.3088 0 23.6544 23.6544 0 1 0-47.3088 0Z" fill="#FFA05F"/>
    <path d="M859.53024 388.224m-23.6544 0a23.6544 23.6544 0 1 0 47.3088 0 23.6544 23.6544 0 1 0-47.3088 0Z" fill="#FFA05F"/>
    <path d="M767.06816 434.816m-23.6544 0a23.6544 23.6544 0 1 0 47.3088 0 23.6544 23.6544 0 1 0-47.3088 0Z" fill="#FFA05F"/>
    <path d="M631.59296 346.65472m-23.6544 0a23.6544 23.6544 0 1 0 47.3088 0 23.6544 23.6544 0 1 0-47.3088 0Z" fill="#FFA05F"/>
    <path d="M878.16704 565.26848m-23.6544 0a23.6544 23.6544 0 1 0 47.3088 0 23.6544 23.6544 0 1 0-47.3088 0Z" fill="#FFA05F"/>
    <path d="M504.02304 224.35328s-27.4944-173.22496-8.24832-192.47104 33.90976-12.17024 41.24672-5.49888c15.12448 13.7472-16.49664 159.47776-16.49664 178.72384 0 19.24608-8.24832 38.49216-16.50176 19.24608z" fill="#5A4530"/>
    <path d="M460.36992 221.66016s33.19808-5.24288 54.16448 0c20.9664 5.24288 22.71232 6.9888 26.20928 12.23168 3.49184 5.24288-24.45824 3.49184-24.45824 3.49184s-19.22048-5.24288-31.44704-5.24288H463.872s-13.98272-5.23776-3.50208-10.48064z" fill="#5A4530"/>
  </svg>
  <svg width="30" height="30" viewBox="0 0 1024 1024" class="icon" version="1.1" x="300.0" y="160.0">
    <path d="M510.75072 539.4944m-472.18176 0a472.18176 472.18176 0 1 0 944.36352 0 472.18176 472.18176 0 1 0-944.36352 0Z" fill="#FF7100"/>
    <path d="M508.78976 219.22816c-20.6848-44.63616 19.46624-107.20256 89.68704-139.74528 70.21568-32.54272 143.90784-22.7328 164.59776 21.90336L508.78976 219.22816z" fill="#30C03F"/>
    <path d="M508.78976 219.22816c20.6848 44.63616 94.37696 54.44608 164.59776 21.90336 70.21568-32.54272 110.37184-95.104 89.68704-139.74528L508.78976 219.22816z" fill="#97CF43"/>
    <path d="M370.32448 220.49792m-23.6544 0a23.6544 23.6544 0 1 0 47.3088 0 23.6544 23.6544 0 1 0-47.3088 0Z" fill="#FFA05F"/>
    <path d="M254.208 313.6768m-23.6544 0a23.6544 23.6544 0 1 0 47.3088 0 23.6544 23.6544 0 1 0-47.3088 0Z" fill="#FFA05F"/>
    <path d="M743.41376 281.06752m-23.6544 0a23.6544 23.6544 0 1 0 47.3088 0 23.6544 23.6544 0 1 0-47.3088 0Z" fill="#FFA05F"/>
    <path d="M859.53024 388.224m-23.6544 0a23.6544 23.6544 0 1 0 47.3088 0 23.6544 23.6544 0 1 0-47.3088 0Z" fill="#FFA05F"/>
    <path d="M767.06816 434.816m-23.6544 0a23.6544 23.6544 0 1 0 47.3088 0 23.6544 23.6544 0 1 0-47.3088 0Z" fill="#FFA05F"/>
    <path d="M631.59296 346.65472m-23.6544 0a23.6544 23.6544 0 1 0 47.3088 0 23.6544 23.6544 0 1 0-47.3088 0Z" fill="#FFA05F"/>
    <path d="M878.16704 565.26848m-23.6544 0a23.6544 23.6544 0 1 0 47.3088 0 23.6544 23.6544 0 1 0-47.3088 0Z" fill="#FFA05F"/>
    <path d="M504.02304 224.35328s-27.4944-173.22496-8.24832-192.47104 33.90976-12.17024 41.24672-5.49888c15.12448 13.7472-16.49664 159.47776-16.49664 178.72384 0 19.24608-8.24832 38.49216-16.50176 19.24608z" fill="#5A4530"/>
    <path d="M460.36992 221.66016s33.19808-5.24288 54.16448 0c20.9664 5.24288 22.71232 6.9888 26.20928 12.23168 3.49184 5.24288-24.45824 3.49184-24.45824 3.49184s-19.22048-5.24288-31.44704-5.24288H463.872s-13.98272-5.23776-3.50208-10.48064z" fill="#5A4530"/>
  </svg>
  <svg width="30" height="30" viewBox="0 0 1024 1024" class="icon" version="1.1" x="340.0" y="160.0">
    <path d="M510.75072 539.4944m-472.18176 0a472.18176 472.18176 0 1 0 944.36352 0 472.18176 472.18176 0 1 0-944.36352 0Z" fill="#FF7100"/>
    <path d="M508.78976 219.22816c-20.6848-44.63616 19.46624-107.20256 89.68704-139.74528 70.21568-32.54272 143.90784-22.7328 164.59776 21.90336L508.78976 219.22816z" fill="#30C03F"/>
    <path d="M508.78976 219.22816c20.6848 44.63616 94.37696 54.44608 164.59776 21.90336 70.21568-32.54272 110.37184-95.104 89.68704-139.74528L508.78976 219.22816z" fill="#97CF43"/>
    <path d="M370.32448 220.49792m-23.6544 0a23.6544 23.6544 0 1 0 47.3088 0 23.6544 23.6544 0 1 0-47.3088 0Z" fill="#FFA05F"/>
    <path d="M254.208 313.6768m-23.6544 0a23.6544 23.6544 0 1 0 47.3088 0 23.6544 23.6544 0 1 0-47.3088 0Z" fill="#FFA05F"/>
    <path d="M743.41376 281.06752m-23.6544 0a23.6544 23.6544 0 1 0 47.3088 0 23.6544 23.6544 0 1 0-47.3088 0Z" fill="#FFA05F"/>
    <path d="M859.53024 388.224m-23.6544 0a23.6544 23.6544 0 1 0 47.3088 0 23.6544 23.6544 0 1 0-47.3088 0Z" fill="#FFA05F"/>
    <path d="M767.06816 434.816m-23.6544 0a23.6544 23.6544 0 1 0 47.3088 0 23.6544 23.6544 0 1 0-47.3088 0Z" fill="#FFA05F"/>
    <path d="M631.59296 346.65472m-23.6544 0a23.6544 23.6544 0 1 0 47.3088 0 23.6544 23.6544 0 1 0-47.3088 0Z" fill="#FFA05F"/>
    <path d="M878.16704 565.26848m-23.6544 0a23.6544 23.6544 0 1 0 47.3088 0 23.6544 23.6544 0 1 0-47.3088 0Z" fill="#FFA05F"/>
    <path d="M504.02304 224.35328s-27.4944-173.22496-8.24832-192.47104 33.90976-12.17024 41.24672-5.49888c15.12448 13.7472-16.49664 159.47776-16.49664 178.72384 0 19.24608-8.24832 38.49216-16.50176 19.24608z" fill="#5A4530"/>
    <path d="M460.36992 221.66016s33.19808-5.24288 54.16448 0c20.9664 5.24288 22.71232 6.9888 26.20928 12.23168 3.49184 5.24288-24.45824 3.49184-24.45824 3.49184s-19.22048-5.24288-31.44704-5.24288H463.872s-13.98272-5.23776-3.50208-10.48064z" fill="#5A4530"/>
  </svg>
  <svg width="30" height="30" viewBox="0 0 1024 1024" class="icon" version="1.1" x="380.0" y="160.0">
    <path d="M510.75072 539.4944m-472.18176 0a472.18176 472.18176 0 1 0 944.36352 0 472.18176 472.18176 0 1 0-944.36352 0Z" fill="#FF7100"/>
    <path d="M508.78976 219.22816c-20.6848-44.63616 19.46624-107.20256 89.68704-139.74528 70.21568-32.54272 143.90784-22.7328 164.59776 21.90336L508.78976 219.22816z" fill="#30C03F"/>
    <path d="M508.78976 219.22816c20.6848 44.63616 94.37696 54.44608 164.59776 21.90336 70.21568-32.54272 110.37184-95.104 89.68704-139.74528L508.78976 219.22816z" fill="#97CF43"/>
    <path d="M370.32448 220.49792m-23.6544 0a23.6544 23.6544 0 1 0 47.3088 0 23.6544 23.6544 0 1 0-47.3088 0Z" fill="#FFA05F"/>
    <path d="M254.208 313.6768m-23.6544 0a23.6544 23.6544 0 1 0 47.3088 0 23.6544 23.6544 0 1 0-47.3088 0Z" fill="#FFA05F"/>
    <path d="M743.41376 281.06752m-23.6544 0a23.6544 23.6544 0 1 0 47.3088 0 23.6544 23.6544 0 1 0-47.3088 0Z" fill="#FFA05F"/>
    <path d="M859.53024 388.224m-23.6544 0a23.6544 23.6544 0 1 0 47.3088 0 23.6544 23.6544 0 1 0-47.3088 0Z" fill="#FFA05F"/>
    <path d="M767.06816 434.816m-23.6544 0a23.6544 23.6544 0 1 0 47.3088 0 23.6544 23.6544 0 1 0-47.3088 0Z" fill="#FFA05F"/>
    <path d="M631.59296 346.65472m-23.6544 0a23.6544 23.6544 0 1 0 47.3088 0 23.6544 23.6544 0 1 0-47.3088 0Z" fill="#FFA05F"/>
    <path d="M878.16704 565.26848m-23.6544 0a23.6544 23.6544 0 1 0 47.3088 0 23.6544 23.6544 0 1 0-47.3088 0Z" fill="#FFA05F"/>
    <path d="M504.02304 224.35328s-27.4944-173.22496-8.24832-192.47104 33.90976-12.17024 41.24672-5.49888c15.12448 13.7472-16.49664 159.47776-16.49664 178.72384 0 19.24608-8.24832 38.49216-16.50176 19.24608z" fill="#5A4530"/>
    <path d="M460.36992 221.66016s33.19808-5.24288 54.16448 0c20.9664 5.24288 22.71232 6.9888 26.20928 12.23168 3.49184 5.24288-24.45824 3.49184-24.45824 3.49184s-19.22048-5.24288-31.44704-5.24288H463.872s-13.98272-5.23776-3.50208-10.48064z" fill="#5A4530"/>
  </svg>
  <svg width="30" height="30" viewBox="0 0 1024 1024" class="icon" version="1.1" x="300.0" y="200.0">
    <path d="M510.75072 539.4944m-472.18176 0a472.18176 472.18176 0 1 0 944.36352 0 472.18176 472.18176 0 1 0-944.36352 0Z" fill="#FF7100"/>
    <path d="M508.78976 219.22816c-20.6848-44.63616 19.46624-107.20256 89.68704-139.74528 70.21568-32.54272 143.90784-22.7328 164.59776 21.90336L508.78976 219.22816z" fill="#30C03F"/>
    <path d="M508.78976 219.22816c20.6848 44.63616 94.37696 54.44608 164.59776 21.90336 70.21568-32.54272 110.37184-95.104 89.68704-139.74528L508.78976 219.22816z" fill="#97CF43"/>
    <path d="M370.32448 220.49792m-23.6544 0a23.6544 23.6544 0 1 0 47.3088 0 23.6544 23.6544 0 1 0-47.3088 0Z" fill="#FFA05F"/>
    <path d="M254.208 313.6768m-23.6544 0a23.6544 23.6544 0 1 0 47.3088 0 23.6544 23.6544 0 1 0-47.3088 0Z" fill="#FFA05F"/>
    <path d="M743.41376 281.06752m-23.6544 0a23.6544 23.6544 0 1 0 47.3088 0 23.6544 23.6544 0 1 0-47.3088 0Z" fill="#FFA05F"/>
    <path d="M859.53024 388.224m-23.6544 0a23.6544 23.6544 0 1 0 47.3088 0 23.6544 23.6544 0 1 0-47.3088 0Z" fill="#FFA05F"/>
    <path d="M767.06816 434.816m-23.6544 0a23.6544 23.6544 0 1 0 47.3088 0 23.6544 23.6544 0 1 0-47.3088 0Z" fill="#FFA05F"/>
    <path d="M631.59296 346.65472m-23.6544 0a23.6544 23.6544 0 1 0 47.3088 0 23.6544 23.6544 0 1 0-47.3088 0Z" fill="#FFA05F"/>
    <path d="M878.16704 565.26848m-23.6544 0a23.6544 23.6544 0 1 0 47.3088 0 23.6544 23.6544 0 1 0-47.3088 0Z" fill="#FFA05F"/>
    <path d="M504.02304 224.35328s-27.4944-173.22496-8.24832-192.47104 33.90976-12.17024 41.24672-5.49888c15.12448 13.7472-16.49664 159.47776-16.49664 178.72384 0 19.24608-8.24832 38.49216-16.50176 19.24608z" fill="#5A4530"/>
    <path d="M460.36992 221.66016s33.19808-5.24288 54.16448 0c20.9664 5.24288 22.71232 6.9888 26.20928 12.23168 3.49184 5.24288-24.45824 3.49184-24.45824 3.49184s-19.22048-5.24288-31.44704-5.24288H463.872s-13.98272-5.23776-3.50208-10.48064z" fill="#5A4530"/>
  </svg>
  <svg xmlns:xlink="http://www.w3.org/1999/xlink" height="30" width="30" version="1.1" id="Layer_1" viewBox="0 0 495 495" xml:space="preserve" x="230" y="165.0">
<polygon style="fill:#2488FF;" points="495,227.5 267.5,227.5 267.5,0 227.5,0 227.5,227.5 0,227.5 0,267.5 227.5,267.5 227.5,495   267.5,495 267.5,267.5 495,267.5 "/>
</svg>
  <svg fill="#2388ff" width="30" height="30" viewBox="0 0 256 256" id="Flat" x="480" y="165.0">

<g id="SVGRepo_bgCarrier" stroke-width="0"/>

<g id="SVGRepo_tracerCarrier" stroke-linecap="round" stroke-linejoin="round"/>

<g id="SVGRepo_iconCarrier"> <path d="M224,160a8.00008,8.00008,0,0,1-8,8H40a8,8,0,0,1,0-16H216A8.00008,8.00008,0,0,1,224,160ZM40,104H216a8,8,0,0,0,0-16H40a8,8,0,0,0,0,16Z"/> </g>

</svg>
  <svg xmlns:xlink="http://www.w3.org/1999/xlink" xmlns:serif="http://www.serif.com/" fill="#2388ff" width="60" height="60" viewBox="0 0 64 64" version="1.1" xml:space="preserve" style="fill-rule:evenodd;clip-rule:evenodd;stroke-linejoin:round;stroke-miterlimit:2;" stroke="#2388ff" x="530" y="150.0">

<g id="SVGRepo_bgCarrier" stroke-width="0"/>

<g id="SVGRepo_tracerCarrier" stroke-linecap="round" stroke-linejoin="round"/>

<g id="SVGRepo_iconCarrier"> <rect id="Icons" x="-640" y="-192" width="1280" height="800" style="fill:none;"/> <g id="Icons1" serif:id="Icons"> <g id="Strike"> </g> <g id="H1"> </g> <g id="H2"> </g> <g id="H3"> </g> <g id="list-ul"> </g> <g id="hamburger-1"> </g> <g id="hamburger-2"> </g> <g id="list-ol"> </g> <g id="list-task"> </g> <g id="trash"> </g> <g id="vertical-menu"> </g> <g id="horizontal-menu"> </g> <g id="sidebar-2"> </g> <g id="Pen"> </g> <g id="Pen1" serif:id="Pen"> </g> <g id="clock"> </g> <g id="external-link"> </g> <g id="hr"> </g> <g id="info"> </g> <g id="warning"> </g> <g id="plus-circle"> </g> <g id="minus-circle"> </g> <g id="vue"> </g> <g id="cog"> </g> <g id="logo"> </g> <path id="question" d="M27.952,42.387c0.043,-2.56 0.333,-4.583 0.871,-6.068c0.538,-1.485 1.636,-3.131 3.293,-4.939l4.229,-4.358c1.807,-2.044 2.711,-4.239 2.711,-6.585c0,-2.259 -0.592,-4.029 -1.775,-5.31c-1.184,-1.28 -2.905,-1.92 -5.165,-1.92c-2.195,0 -3.96,0.581 -5.294,1.743c-1.334,1.162 -2.001,2.722 -2.001,4.68l-5.972,0c0.043,-3.486 1.286,-6.3 3.728,-8.441c2.443,-2.141 5.622,-3.212 9.539,-3.212c4.067,0 7.236,1.092 9.506,3.277c2.271,2.184 3.406,5.181 3.406,8.99c0,3.765 -1.743,7.478 -5.229,11.136l-3.519,3.486c-1.571,1.743 -2.356,4.25 -2.356,7.521l-5.972,0Zm-0.258,10.233c0,-0.968 0.296,-1.781 0.887,-2.437c0.592,-0.656 1.469,-0.985 2.631,-0.985c1.162,0 2.045,0.329 2.647,0.985c0.603,0.656 0.904,1.469 0.904,2.437c0,0.969 -0.301,1.77 -0.904,2.405c-0.602,0.635 -1.485,0.952 -2.647,0.952c-1.162,0 -2.039,-0.317 -2.631,-0.952c-0.591,-0.635 -0.887,-1.436 -0.887,-2.405Z" style="fill-rule:nonzero;"/> <g id="radio-check"> </g> <g id="eye-slash"> </g> <g id="eye"> </g> <g id="toggle-off"> </g> <g id="shredder"> </g> <g id="spinner--loading--dots-" serif:id="spinner [loading, dots]"> </g> <g id="react"> </g> <g id="check-selected"> </g> <g id="turn-off"> </g> <g id="code-block"> </g> <g id="user"> </g> <g id="coffee-bean"> </g> <g id="coffee-beans"> <g id="coffee-bean1" serif:id="coffee-bean"> </g> </g> <g id="coffee-bean-filled"> </g> <g id="coffee-beans-filled"> <g id="coffee-bean2" serif:id="coffee-bean"> </g> </g> <g id="clipboard"> </g> <g id="clipboard-paste"> </g> <g id="clipboard-copy"> </g> <g id="Layer1"> </g> </g> </g>

</svg>
</svg>
