<svg xmlns="http://www.w3.org/2000/svg" width="560" height="270.0">
  <rect x="50" y="100" width="120" height="120.0" stroke="black" fill="none"/>
  <g>
    <text x="78.5" y="75.0" style="font-size: 15px;" dominant_baseline="middle" text_anchor="middle">small dog</text>
  </g>
  <svg xmlns:xlink="http://www.w3.org/1999/xlink" version="1.1" id="Layer_1" x="70.0" y="120.0" viewBox="0 0 460 460" style="enable-background:new 0 0 460 460;" xml:space="preserve" width="30" height="30">
<g id="XMLID_2818_">
	<path id="XMLID_2124_" style="fill:#999282;" d="M450,270v80v100c0,5.523-4.477,10-10,10h-30h-10h-10h-20h-20   c-5.523,0-10-4.477-10-10v-10c0-11.046,8.954-20,20-20c5.523,0,10-4.477,10-10v-60l-30-80h40h30H450z"/>
	<path id="XMLID_1283_" style="fill:#999282;" d="M160,270h-40l30,80v60c0,5.523-4.477,10-10,10c-11.046,0-20,8.954-20,20v10   c0,5.523,4.477,10,10,10h20h20h10h10h30c5.523,0,10-4.477,10-10V350v-80h-40H160z"/>
	<path id="XMLID_1225_" style="fill:#E1DDD2;" d="M460,170v65.061c0,31.093-23.753,57.035-54.726,59.768L169.023,317.11   c-18.066,1.704-35.016-8.967-41.29-25.995l-6.148-16.687l-9.363-1.313c-13.176-1.847-23.561-12.152-25.511-25.313L64.598,98.535   C63.871,93.631,59.662,90,54.706,90H40H20C8.954,90,0,81.046,0,70V56.18c0-3.788,2.14-7.25,5.528-8.944L40,30l0,0   C40,13.432,53.431,0,70,0h48.611c12.799,0,24.189,8.12,28.361,20.22l19.262,55.859C177.361,108.346,207.733,130,241.864,130H420   C442.091,130,460,147.909,460,170z"/>
	<path id="XMLID_1281_" style="fill:#847C6D;" d="M190,284.075v53.769l-20.978,1.979c-9.04,0.853-17.8-1.394-25.083-5.984L120,270   h48.451C173.89,276.938,181.482,281.889,190,284.075z"/>
	<path id="XMLID_2110_" style="fill:#847C6D;" d="M364.386,270l-23.553,2.221l18.616,49.642l45.825-4.322   c1.597-0.141,3.17-0.358,4.726-0.62V270H364.386z"/>
	<path id="XMLID_1259_" style="fill:#C9C1B1;" d="M460,234.78v0.281c0,12.21-3.675,23.617-10,33.145V350v100c0,5.523-4.477,10-10,10   h-30h-20c-5.523,0-10-4.477-10-10v-10c0-11.046,8.954-20,20-20c5.523,0,10-4.477,10-10v-60l-20.144-53.717L230,311.359V350v100   c0,5.523-4.477,10-10,10h-30h-20c-5.523,0-10-4.477-10-10v-10c0-11.046,8.954-20,20-20c5.523,0,10-4.477,10-10v-60l-12.629-33.678   l-8.348,0.787c-18.066,1.704-35.016-8.967-41.289-25.995l-6.148-16.687l-9.363-1.313c-13.176-1.847-23.561-12.152-25.511-25.313   L64.598,98.535C63.871,93.631,59.662,90,54.706,90l0,0c29.527,0,54.597,21.63,58.925,50.838l7.748,52.298   c1.95,13.161,12.335,23.466,25.511,25.313l9.363,1.313l6.148,16.687c6.273,17.028,23.223,27.699,41.29,25.995l236.251-22.281   C447.081,239.532,453.83,237.656,460,234.78z"/>
	<path id="XMLID_2093_" style="fill:#CEC4AE;" d="M185.676,196.442v3.072c0,4.397-3.103,8.182-7.415,9.044l-6.303,1.261   c-5.109,1.022-10.05-2.388-10.907-7.528l-0.923-5.537c-1.04-6.243,4.372-11.655,10.614-10.614l7.226,1.204   C182.417,188.085,185.676,191.933,185.676,196.442z"/>
	<path id="XMLID_1288_" style="fill:#CEC4AE;" d="M168.964,130.873l-15.669-2.612c-13.536-2.256-25.272,9.479-23.016,23.016   l2.001,12.006c1.858,11.145,12.571,18.54,23.65,16.324l13.668-2.733c9.349-1.87,16.078-10.078,16.078-19.612V150.6   C185.676,140.824,178.608,132.48,168.964,130.873z"/>
	<path id="XMLID_1264_" style="fill:#CEC4AE;" d="M420,130H241.864c-15.012,0-29.294-4.192-41.534-11.63l-4.819,43.37   c-3.388,30.492,22.189,56.352,52.717,53.299l138.356-13.835C411.231,198.738,430,177.999,430,153.229V131.26   C426.804,130.438,423.453,130,420,130z"/>
	<path id="XMLID_1114_" style="fill:#CCC6BA;" d="M80,35c0,8.284-6.716,15-15,15s-15-6.716-15-15s6.716-15,15-15S80,26.716,80,35z"/>
	<path id="XMLID_1262_" style="fill:#CEC4AE;" d="M162.259,64.817L146.881,20.22C142.708,8.12,131.319,0,118.52,0H69.908   c-1.4,0-2.776,0.104-4.126,0.289c-1.597,5.657-2.024,11.787-0.97,18.111l4.157,24.945c3.86,23.155,26.12,38.519,49.138,33.915   l28.397-5.68C152.323,70.417,157.647,68.064,162.259,64.817z"/>
	<path id="XMLID_1176_" style="fill:#C1B69F;" d="M79.92,35c0,6.403-4.019,11.854-9.666,14.006   c-0.574-1.829-1.039-3.714-1.363-5.661L65,20.004C73.247,20.048,79.92,26.743,79.92,35z"/>
	<path id="XMLID_1275_" style="fill:#604835;" d="M151.614,114.907l-32.533,8.133c-14.864,3.716-28.917-8.43-27.393-23.676   l6.94-69.398C99.194,24.309,103.955,20,109.641,20h11.861c4.34,0,9.048,3.356,10.462,7.459l18.829,54.604   c2.005,5.813,4.576,11.313,7.639,16.448C162.23,104.882,158.81,113.108,151.614,114.907z"/>
	<path id="XMLID_1274_" style="fill:#705340;" d="M153.496,88.884l-17.731,4.433c-14.864,3.716-28.917-8.43-27.393-23.676   L113.336,20h8.165c4.34,0,9.048,3.356,10.463,7.459l18.829,54.604C151.596,84.393,152.515,86.658,153.496,88.884z"/>
	<path id="XMLID_1185_" style="fill:#5B4F3B;" d="M20,40v15c0,2.761-2.239,5-5,5H0v-3.82c0-3.788,2.14-7.25,5.528-8.944L20,40z"/>
	<path id="XMLID_1272_" style="fill:#442D1E;" d="M70,35c0,2.761-2.239,5-5,5s-5-2.239-5-5s2.239-5,5-5S70,32.239,70,35z"/>
</g>
<g>
</g>
<g>
</g>
<g>
</g>
<g>
</g>
<g>
</g>
<g>
</g>
<g>
</g>
<g>
</g>
<g>
</g>
<g>
</g>
<g>
</g>
<g>
</g>
<g>
</g>
<g>
</g>
<g>
</g>
</svg>
  <svg xmlns:xlink="http://www.w3.org/1999/xlink" version="1.1" id="Layer_1" x="110.0" y="120.0" viewBox="0 0 460 460" style="enable-background:new 0 0 460 460;" xml:space="preserve" width="30" height="30">
<g id="XMLID_2818_">
	<path id="XMLID_2124_" style="fill:#999282;" d="M450,270v80v100c0,5.523-4.477,10-10,10h-30h-10h-10h-20h-20   c-5.523,0-10-4.477-10-10v-10c0-11.046,8.954-20,20-20c5.523,0,10-4.477,10-10v-60l-30-80h40h30H450z"/>
	<path id="XMLID_1283_" style="fill:#999282;" d="M160,270h-40l30,80v60c0,5.523-4.477,10-10,10c-11.046,0-20,8.954-20,20v10   c0,5.523,4.477,10,10,10h20h20h10h10h30c5.523,0,10-4.477,10-10V350v-80h-40H160z"/>
	<path id="XMLID_1225_" style="fill:#E1DDD2;" d="M460,170v65.061c0,31.093-23.753,57.035-54.726,59.768L169.023,317.11   c-18.066,1.704-35.016-8.967-41.29-25.995l-6.148-16.687l-9.363-1.313c-13.176-1.847-23.561-12.152-25.511-25.313L64.598,98.535   C63.871,93.631,59.662,90,54.706,90H40H20C8.954,90,0,81.046,0,70V56.18c0-3.788,2.14-7.25,5.528-8.944L40,30l0,0   C40,13.432,53.431,0,70,0h48.611c12.799,0,24.189,8.12,28.361,20.22l19.262,55.859C177.361,108.346,207.733,130,241.864,130H420   C442.091,130,460,147.909,460,170z"/>
	<path id="XMLID_1281_" style="fill:#847C6D;" d="M190,284.075v53.769l-20.978,1.979c-9.04,0.853-17.8-1.394-25.083-5.984L120,270   h48.451C173.89,276.938,181.482,281.889,190,284.075z"/>
	<path id="XMLID_2110_" style="fill:#847C6D;" d="M364.386,270l-23.553,2.221l18.616,49.642l45.825-4.322   c1.597-0.141,3.17-0.358,4.726-0.62V270H364.386z"/>
	<path id="XMLID_1259_" style="fill:#C9C1B1;" d="M460,234.78v0.281c0,12.21-3.675,23.617-10,33.145V350v100c0,5.523-4.477,10-10,10   h-30h-20c-5.523,0-10-4.477-10-10v-10c0-11.046,8.954-20,20-20c5.523,0,10-4.477,10-10v-60l-20.144-53.717L230,311.359V350v100   c0,5.523-4.477,10-10,10h-30h-20c-5.523,0-10-4.477-10-10v-10c0-11.046,8.954-20,20-20c5.523,0,10-4.477,10-10v-60l-12.629-33.678   l-8.348,0.787c-18.066,1.704-35.016-8.967-41.289-25.995l-6.148-16.687l-9.363-1.313c-13.176-1.847-23.561-12.152-25.511-25.313   L64.598,98.535C63.871,93.631,59.662,90,54.706,90l0,0c29.527,0,54.597,21.63,58.925,50.838l7.748,52.298   c1.95,13.161,12.335,23.466,25.511,25.313l9.363,1.313l6.148,16.687c6.273,17.028,23.223,27.699,41.29,25.995l236.251-22.281   C447.081,239.532,453.83,237.656,460,234.78z"/>
	<path id="XMLID_2093_" style="fill:#CEC4AE;" d="M185.676,196.442v3.072c0,4.397-3.103,8.182-7.415,9.044l-6.303,1.261   c-5.109,1.022-10.05-2.388-10.907-7.528l-0.923-5.537c-1.04-6.243,4.372-11.655,10.614-10.614l7.226,1.204   C182.417,188.085,185.676,191.933,185.676,196.442z"/>
	<path id="XMLID_1288_" style="fill:#CEC4AE;" d="M168.964,130.873l-15.669-2.612c-13.536-2.256-25.272,9.479-23.016,23.016   l2.001,12.006c1.858,11.145,12.571,18.54,23.65,16.324l13.668-2.733c9.349-1.87,16.078-10.078,16.078-19.612V150.6   C185.676,140.824,178.608,132.48,168.964,130.873z"/>
	<path id="XMLID_1264_" style="fill:#CEC4AE;" d="M420,130H241.864c-15.012,0-29.294-4.192-41.534-11.63l-4.819,43.37   c-3.388,30.492,22.189,56.352,52.717,53.299l138.356-13.835C411.231,198.738,430,177.999,430,153.229V131.26   C426.804,130.438,423.453,130,420,130z"/>
	<path id="XMLID_1114_" style="fill:#CCC6BA;" d="M80,35c0,8.284-6.716,15-15,15s-15-6.716-15-15s6.716-15,15-15S80,26.716,80,35z"/>
	<path id="XMLID_1262_" style="fill:#CEC4AE;" d="M162.259,64.817L146.881,20.22C142.708,8.12,131.319,0,118.52,0H69.908   c-1.4,0-2.776,0.104-4.126,0.289c-1.597,5.657-2.024,11.787-0.97,18.111l4.157,24.945c3.86,23.155,26.12,38.519,49.138,33.915   l28.397-5.68C152.323,70.417,157.647,68.064,162.259,64.817z"/>
	<path id="XMLID_1176_" style="fill:#C1B69F;" d="M79.92,35c0,6.403-4.019,11.854-9.666,14.006   c-0.574-1.829-1.039-3.714-1.363-5.661L65,20.004C73.247,20.048,79.92,26.743,79.92,35z"/>
	<path id="XMLID_1275_" style="fill:#604835;" d="M151.614,114.907l-32.533,8.133c-14.864,3.716-28.917-8.43-27.393-23.676   l6.94-69.398C99.194,24.309,103.955,20,109.641,20h11.861c4.34,0,9.048,3.356,10.462,7.459l18.829,54.604   c2.005,5.813,4.576,11.313,7.639,16.448C162.23,104.882,158.81,113.108,151.614,114.907z"/>
	<path id="XMLID_1274_" style="fill:#705340;" d="M153.496,88.884l-17.731,4.433c-14.864,3.716-28.917-8.43-27.393-23.676   L113.336,20h8.165c4.34,0,9.048,3.356,10.463,7.459l18.829,54.604C151.596,84.393,152.515,86.658,153.496,88.884z"/>
	<path id="XMLID_1185_" style="fill:#5B4F3B;" d="M20,40v15c0,2.761-2.239,5-5,5H0v-3.82c0-3.788,2.14-7.25,5.528-8.944L20,40z"/>
	<path id="XMLID_1272_" style="fill:#442D1E;" d="M70,35c0,2.761-2.239,5-5,5s-5-2.239-5-5s2.239-5,5-5S70,32.239,70,35z"/>
</g>
<g>
</g>
<g>
</g>
<g>
</g>
<g>
</g>
<g>
</g>
<g>
</g>
<g>
</g>
<g>
</g>
<g>
</g>
<g>
</g>
<g>
</g>
<g>
</g>
<g>
</g>
<g>
</g>
<g>
</g>
</svg>
  <svg xmlns:xlink="http://www.w3.org/1999/xlink" version="1.1" id="Layer_1" x="70.0" y="160.0" viewBox="0 0 460 460" style="enable-background:new 0 0 460 460;" xml:space="preserve" width="30" height="30">
<g id="XMLID_2818_">
	<path id="XMLID_2124_" style="fill:#999282;" d="M450,270v80v100c0,5.523-4.477,10-10,10h-30h-10h-10h-20h-20   c-5.523,0-10-4.477-10-10v-10c0-11.046,8.954-20,20-20c5.523,0,10-4.477,10-10v-60l-30-80h40h30H450z"/>
	<path id="XMLID_1283_" style="fill:#999282;" d="M160,270h-40l30,80v60c0,5.523-4.477,10-10,10c-11.046,0-20,8.954-20,20v10   c0,5.523,4.477,10,10,10h20h20h10h10h30c5.523,0,10-4.477,10-10V350v-80h-40H160z"/>
	<path id="XMLID_1225_" style="fill:#E1DDD2;" d="M460,170v65.061c0,31.093-23.753,57.035-54.726,59.768L169.023,317.11   c-18.066,1.704-35.016-8.967-41.29-25.995l-6.148-16.687l-9.363-1.313c-13.176-1.847-23.561-12.152-25.511-25.313L64.598,98.535   C63.871,93.631,59.662,90,54.706,90H40H20C8.954,90,0,81.046,0,70V56.18c0-3.788,2.14-7.25,5.528-8.944L40,30l0,0   C40,13.432,53.431,0,70,0h48.611c12.799,0,24.189,8.12,28.361,20.22l19.262,55.859C177.361,108.346,207.733,130,241.864,130H420   C442.091,130,460,147.909,460,170z"/>
	<path id="XMLID_1281_" style="fill:#847C6D;" d="M190,284.075v53.769l-20.978,1.979c-9.04,0.853-17.8-1.394-25.083-5.984L120,270   h48.451C173.89,276.938,181.482,281.889,190,284.075z"/>
	<path id="XMLID_2110_" style="fill:#847C6D;" d="M364.386,270l-23.553,2.221l18.616,49.642l45.825-4.322   c1.597-0.141,3.17-0.358,4.726-0.62V270H364.386z"/>
	<path id="XMLID_1259_" style="fill:#C9C1B1;" d="M460,234.78v0.281c0,12.21-3.675,23.617-10,33.145V350v100c0,5.523-4.477,10-10,10   h-30h-20c-5.523,0-10-4.477-10-10v-10c0-11.046,8.954-20,20-20c5.523,0,10-4.477,10-10v-60l-20.144-53.717L230,311.359V350v100   c0,5.523-4.477,10-10,10h-30h-20c-5.523,0-10-4.477-10-10v-10c0-11.046,8.954-20,20-20c5.523,0,10-4.477,10-10v-60l-12.629-33.678   l-8.348,0.787c-18.066,1.704-35.016-8.967-41.289-25.995l-6.148-16.687l-9.363-1.313c-13.176-1.847-23.561-12.152-25.511-25.313   L64.598,98.535C63.871,93.631,59.662,90,54.706,90l0,0c29.527,0,54.597,21.63,58.925,50.838l7.748,52.298   c1.95,13.161,12.335,23.466,25.511,25.313l9.363,1.313l6.148,16.687c6.273,17.028,23.223,27.699,41.29,25.995l236.251-22.281   C447.081,239.532,453.83,237.656,460,234.78z"/>
	<path id="XMLID_2093_" style="fill:#CEC4AE;" d="M185.676,196.442v3.072c0,4.397-3.103,8.182-7.415,9.044l-6.303,1.261   c-5.109,1.022-10.05-2.388-10.907-7.528l-0.923-5.537c-1.04-6.243,4.372-11.655,10.614-10.614l7.226,1.204   C182.417,188.085,185.676,191.933,185.676,196.442z"/>
	<path id="XMLID_1288_" style="fill:#CEC4AE;" d="M168.964,130.873l-15.669-2.612c-13.536-2.256-25.272,9.479-23.016,23.016   l2.001,12.006c1.858,11.145,12.571,18.54,23.65,16.324l13.668-2.733c9.349-1.87,16.078-10.078,16.078-19.612V150.6   C185.676,140.824,178.608,132.48,168.964,130.873z"/>
	<path id="XMLID_1264_" style="fill:#CEC4AE;" d="M420,130H241.864c-15.012,0-29.294-4.192-41.534-11.63l-4.819,43.37   c-3.388,30.492,22.189,56.352,52.717,53.299l138.356-13.835C411.231,198.738,430,177.999,430,153.229V131.26   C426.804,130.438,423.453,130,420,130z"/>
	<path id="XMLID_1114_" style="fill:#CCC6BA;" d="M80,35c0,8.284-6.716,15-15,15s-15-6.716-15-15s6.716-15,15-15S80,26.716,80,35z"/>
	<path id="XMLID_1262_" style="fill:#CEC4AE;" d="M162.259,64.817L146.881,20.22C142.708,8.12,131.319,0,118.52,0H69.908   c-1.4,0-2.776,0.104-4.126,0.289c-1.597,5.657-2.024,11.787-0.97,18.111l4.157,24.945c3.86,23.155,26.12,38.519,49.138,33.915   l28.397-5.68C152.323,70.417,157.647,68.064,162.259,64.817z"/>
	<path id="XMLID_1176_" style="fill:#C1B69F;" d="M79.92,35c0,6.403-4.019,11.854-9.666,14.006   c-0.574-1.829-1.039-3.714-1.363-5.661L65,20.004C73.247,20.048,79.92,26.743,79.92,35z"/>
	<path id="XMLID_1275_" style="fill:#604835;" d="M151.614,114.907l-32.533,8.133c-14.864,3.716-28.917-8.43-27.393-23.676   l6.94-69.398C99.194,24.309,103.955,20,109.641,20h11.861c4.34,0,9.048,3.356,10.462,7.459l18.829,54.604   c2.005,5.813,4.576,11.313,7.639,16.448C162.23,104.882,158.81,113.108,151.614,114.907z"/>
	<path id="XMLID_1274_" style="fill:#705340;" d="M153.496,88.884l-17.731,4.433c-14.864,3.716-28.917-8.43-27.393-23.676   L113.336,20h8.165c4.34,0,9.048,3.356,10.463,7.459l18.829,54.604C151.596,84.393,152.515,86.658,153.496,88.884z"/>
	<path id="XMLID_1185_" style="fill:#5B4F3B;" d="M20,40v15c0,2.761-2.239,5-5,5H0v-3.82c0-3.788,2.14-7.25,5.528-8.944L20,40z"/>
	<path id="XMLID_1272_" style="fill:#442D1E;" d="M70,35c0,2.761-2.239,5-5,5s-5-2.239-5-5s2.239-5,5-5S70,32.239,70,35z"/>
</g>
<g>
</g>
<g>
</g>
<g>
</g>
<g>
</g>
<g>
</g>
<g>
</g>
<g>
</g>
<g>
</g>
<g>
</g>
<g>
</g>
<g>
</g>
<g>
</g>
<g>
</g>
<g>
</g>
<g>
</g>
</svg>
  <rect x="240" y="100" width="120" height="120.0" stroke="black" fill="none"/>
  <g>
    <text x="275.5" y="75.0" style="font-size: 15px;" dominant_baseline="middle" text_anchor="middle">big dog</text>
  </g>
  <svg xmlns:xlink="http://www.w3.org/1999/xlink" version="1.1" id="Layer_1" x="260.0" y="120.0" viewBox="0 0 460 460" style="enable-background:new 0 0 460 460;" xml:space="preserve" width="30" height="30">
<g id="XMLID_2818_">
	<path id="XMLID_2124_" style="fill:#999282;" d="M450,270v80v100c0,5.523-4.477,10-10,10h-30h-10h-10h-20h-20   c-5.523,0-10-4.477-10-10v-10c0-11.046,8.954-20,20-20c5.523,0,10-4.477,10-10v-60l-30-80h40h30H450z"/>
	<path id="XMLID_1283_" style="fill:#999282;" d="M160,270h-40l30,80v60c0,5.523-4.477,10-10,10c-11.046,0-20,8.954-20,20v10   c0,5.523,4.477,10,10,10h20h20h10h10h30c5.523,0,10-4.477,10-10V350v-80h-40H160z"/>
	<path id="XMLID_1225_" style="fill:#E1DDD2;" d="M460,170v65.061c0,31.093-23.753,57.035-54.726,59.768L169.023,317.11   c-18.066,1.704-35.016-8.967-41.29-25.995l-6.148-16.687l-9.363-1.313c-13.176-1.847-23.561-12.152-25.511-25.313L64.598,98.535   C63.871,93.631,59.662,90,54.706,90H40H20C8.954,90,0,81.046,0,70V56.18c0-3.788,2.14-7.25,5.528-8.944L40,30l0,0   C40,13.432,53.431,0,70,0h48.611c12.799,0,24.189,8.12,28.361,20.22l19.262,55.859C177.361,108.346,207.733,130,241.864,130H420   C442.091,130,460,147.909,460,170z"/>
	<path id="XMLID_1281_" style="fill:#847C6D;" d="M190,284.075v53.769l-20.978,1.979c-9.04,0.853-17.8-1.394-25.083-5.984L120,270   h48.451C173.89,276.938,181.482,281.889,190,284.075z"/>
	<path id="XMLID_2110_" style="fill:#847C6D;" d="M364.386,270l-23.553,2.221l18.616,49.642l45.825-4.322   c1.597-0.141,3.17-0.358,4.726-0.62V270H364.386z"/>
	<path id="XMLID_1259_" style="fill:#C9C1B1;" d="M460,234.78v0.281c0,12.21-3.675,23.617-10,33.145V350v100c0,5.523-4.477,10-10,10   h-30h-20c-5.523,0-10-4.477-10-10v-10c0-11.046,8.954-20,20-20c5.523,0,10-4.477,10-10v-60l-20.144-53.717L230,311.359V350v100   c0,5.523-4.477,10-10,10h-30h-20c-5.523,0-10-4.477-10-10v-10c0-11.046,8.954-20,20-20c5.523,0,10-4.477,10-10v-60l-12.629-33.678   l-8.348,0.787c-18.066,1.704-35.016-8.967-41.289-25.995l-6.148-16.687l-9.363-1.313c-13.176-1.847-23.561-12.152-25.511-25.313   L64.598,98.535C63.871,93.631,59.662,90,54.706,90l0,0c29.527,0,54.597,21.63,58.925,50.838l7.748,52.298   c1.95,13.161,12.335,23.466,25.511,25.313l9.363,1.313l6.148,16.687c6.273,17.028,23.223,27.699,41.29,25.995l236.251-22.281   C447.081,239.532,453.83,237.656,460,234.78z"/>
	<path id="XMLID_2093_" style="fill:#CEC4AE;" d="M185.676,196.442v3.072c0,4.397-3.103,8.182-7.415,9.044l-6.303,1.261   c-5.109,1.022-10.05-2.388-10.907-7.528l-0.923-5.537c-1.04-6.243,4.372-11.655,10.614-10.614l7.226,1.204   C182.417,188.085,185.676,191.933,185.676,196.442z"/>
	<path id="XMLID_1288_" style="fill:#CEC4AE;" d="M168.964,130.873l-15.669-2.612c-13.536-2.256-25.272,9.479-23.016,23.016   l2.001,12.006c1.858,11.145,12.571,18.54,23.65,16.324l13.668-2.733c9.349-1.87,16.078-10.078,16.078-19.612V150.6   C185.676,140.824,178.608,132.48,168.964,130.873z"/>
	<path id="XMLID_1264_" style="fill:#CEC4AE;" d="M420,130H241.864c-15.012,0-29.294-4.192-41.534-11.63l-4.819,43.37   c-3.388,30.492,22.189,56.352,52.717,53.299l138.356-13.835C411.231,198.738,430,177.999,430,153.229V131.26   C426.804,130.438,423.453,130,420,130z"/>
	<path id="XMLID_1114_" style="fill:#CCC6BA;" d="M80,35c0,8.284-6.716,15-15,15s-15-6.716-15-15s6.716-15,15-15S80,26.716,80,35z"/>
	<path id="XMLID_1262_" style="fill:#CEC4AE;" d="M162.259,64.817L146.881,20.22C142.708,8.12,131.319,0,118.52,0H69.908   c-1.4,0-2.776,0.104-4.126,0.289c-1.597,5.657-2.024,11.787-0.97,18.111l4.157,24.945c3.86,23.155,26.12,38.519,49.138,33.915   l28.397-5.68C152.323,70.417,157.647,68.064,162.259,64.817z"/>
	<path id="XMLID_1176_" style="fill:#C1B69F;" d="M79.92,35c0,6.403-4.019,11.854-9.666,14.006   c-0.574-1.829-1.039-3.714-1.363-5.661L65,20.004C73.247,20.048,79.92,26.743,79.92,35z"/>
	<path id="XMLID_1275_" style="fill:#604835;" d="M151.614,114.907l-32.533,8.133c-14.864,3.716-28.917-8.43-27.393-23.676   l6.94-69.398C99.194,24.309,103.955,20,109.641,20h11.861c4.34,0,9.048,3.356,10.462,7.459l18.829,54.604   c2.005,5.813,4.576,11.313,7.639,16.448C162.23,104.882,158.81,113.108,151.614,114.907z"/>
	<path id="XMLID_1274_" style="fill:#705340;" d="M153.496,88.884l-17.731,4.433c-14.864,3.716-28.917-8.43-27.393-23.676   L113.336,20h8.165c4.34,0,9.048,3.356,10.463,7.459l18.829,54.604C151.596,84.393,152.515,86.658,153.496,88.884z"/>
	<path id="XMLID_1185_" style="fill:#5B4F3B;" d="M20,40v15c0,2.761-2.239,5-5,5H0v-3.82c0-3.788,2.14-7.25,5.528-8.944L20,40z"/>
	<path id="XMLID_1272_" style="fill:#442D1E;" d="M70,35c0,2.761-2.239,5-5,5s-5-2.239-5-5s2.239-5,5-5S70,32.239,70,35z"/>
</g>
<g>
</g>
<g>
</g>
<g>
</g>
<g>
</g>
<g>
</g>
<g>
</g>
<g>
</g>
<g>
</g>
<g>
</g>
<g>
</g>
<g>
</g>
<g>
</g>
<g>
</g>
<g>
</g>
<g>
</g>
</svg>
  <svg xmlns:xlink="http://www.w3.org/1999/xlink" height="30" width="30" version="1.1" id="Layer_1" viewBox="0 0 495 495" xml:space="preserve" x="190" y="145.0">
<polygon style="fill:#2488FF;" points="495,227.5 267.5,227.5 267.5,0 227.5,0 227.5,227.5 0,227.5 0,267.5 227.5,267.5 227.5,495   267.5,495 267.5,267.5 495,267.5 "/>
</svg>
  <svg fill="#2388ff" width="30" height="30" viewBox="0 0 256 256" id="Flat" x="400" y="145.0">

<g id="SVGRepo_bgCarrier" stroke-width="0"/>

<g id="SVGRepo_tracerCarrier" stroke-linecap="round" stroke-linejoin="round"/>

<g id="SVGRepo_iconCarrier"> <path d="M224,160a8.00008,8.00008,0,0,1-8,8H40a8,8,0,0,1,0-16H216A8.00008,8.00008,0,0,1,224,160ZM40,104H216a8,8,0,0,0,0-16H40a8,8,0,0,0,0,16Z"/> </g>

</svg>
  <svg xmlns:xlink="http://www.w3.org/1999/xlink" xmlns:serif="http://www.serif.com/" fill="#2388ff" width="60" height="60" viewBox="0 0 64 64" version="1.1" xml:space="preserve" style="fill-rule:evenodd;clip-rule:evenodd;stroke-linejoin:round;stroke-miterlimit:2;" stroke="#2388ff" x="450" y="130.0">

<g id="SVGRepo_bgCarrier" stroke-width="0"/>

<g id="SVGRepo_tracerCarrier" stroke-linecap="round" stroke-linejoin="round"/>

<g id="SVGRepo_iconCarrier"> <rect id="Icons" x="-640" y="-192" width="1280" height="800" style="fill:none;"/> <g id="Icons1" serif:id="Icons"> <g id="Strike"> </g> <g id="H1"> </g> <g id="H2"> </g> <g id="H3"> </g> <g id="list-ul"> </g> <g id="hamburger-1"> </g> <g id="hamburger-2"> </g> <g id="list-ol"> </g> <g id="list-task"> </g> <g id="trash"> </g> <g id="vertical-menu"> </g> <g id="horizontal-menu"> </g> <g id="sidebar-2"> </g> <g id="Pen"> </g> <g id="Pen1" serif:id="Pen"> </g> <g id="clock"> </g> <g id="external-link"> </g> <g id="hr"> </g> <g id="info"> </g> <g id="warning"> </g> <g id="plus-circle"> </g> <g id="minus-circle"> </g> <g id="vue"> </g> <g id="cog"> </g> <g id="logo"> </g> <path id="question" d="M27.952,42.387c0.043,-2.56 0.333,-4.583 0.871,-6.068c0.538,-1.485 1.636,-3.131 3.293,-4.939l4.229,-4.358c1.807,-2.044 2.711,-4.239 2.711,-6.585c0,-2.259 -0.592,-4.029 -1.775,-5.31c-1.184,-1.28 -2.905,-1.92 -5.165,-1.92c-2.195,0 -3.96,0.581 -5.294,1.743c-1.334,1.162 -2.001,2.722 -2.001,4.68l-5.972,0c0.043,-3.486 1.286,-6.3 3.728,-8.441c2.443,-2.141 5.622,-3.212 9.539,-3.212c4.067,0 7.236,1.092 9.506,3.277c2.271,2.184 3.406,5.181 3.406,8.99c0,3.765 -1.743,7.478 -5.229,11.136l-3.519,3.486c-1.571,1.743 -2.356,4.25 -2.356,7.521l-5.972,0Zm-0.258,10.233c0,-0.968 0.296,-1.781 0.887,-2.437c0.592,-0.656 1.469,-0.985 2.631,-0.985c1.162,0 2.045,0.329 2.647,0.985c0.603,0.656 0.904,1.469 0.904,2.437c0,0.969 -0.301,1.77 -0.904,2.405c-0.602,0.635 -1.485,0.952 -2.647,0.952c-1.162,0 -2.039,-0.317 -2.631,-0.952c-0.591,-0.635 -0.887,-1.436 -0.887,-2.405Z" style="fill-rule:nonzero;"/> <g id="radio-check"> </g> <g id="eye-slash"> </g> <g id="eye"> </g> <g id="toggle-off"> </g> <g id="shredder"> </g> <g id="spinner--loading--dots-" serif:id="spinner [loading, dots]"> </g> <g id="react"> </g> <g id="check-selected"> </g> <g id="turn-off"> </g> <g id="code-block"> </g> <g id="user"> </g> <g id="coffee-bean"> </g> <g id="coffee-beans"> <g id="coffee-bean1" serif:id="coffee-bean"> </g> </g> <g id="coffee-bean-filled"> </g> <g id="coffee-beans-filled"> <g id="coffee-bean2" serif:id="coffee-bean"> </g> </g> <g id="clipboard"> </g> <g id="clipboard-paste"> </g> <g id="clipboard-copy"> </g> <g id="Layer1"> </g> </g> </g>

</svg>
</svg>
